<?xml  version="1.0" encoding="UTF-8"?>
<!DOCTYPE svg PUBLIC "-//W3C//DTD SVG 1.0//EN" "http://www.w3.org/TR/2001/REC-SVG-20010904/DTD/svg10.dtd" >
<svg xmlns="http://www.w3.org/2000/svg" >
<metadata>
<version>1.0</version>
<id><![CDATA[Univers LT W01 85 Extra Bk Obl]]></id>
<vendor>Monotype Imaging Inc.</vendor>
<credits>
<name>Fonts.com WebFonts</name>
<URL>http://webfonts.fonts.com</URL>
<role>Home of the Web fonts</role>
</credits>
<license>
<URL>http://webfonts.fonts.com/Legal</URL>
</license>
<copyright><![CDATA[Copyright © 2009 Linotype Corp., www.linotype.com. All rights reserved. This font software may not be reproduced, modified, disclosed or transferred without the express written approval of Linotype Corp. Univers is a trademark of Linotype Corp. registered in the U.S. Patent and Trademark Office and may be registered in certain other jurisdictions in the name of Linotype Corp. or its licensee Linotype GmbH. This typeface is original artwork of Adrian Frutiger. The design may be protected in certain jurisdictions.]]></copyright>
<trademark><![CDATA[Univers is a trademark of Linotype Corp. registered in the U.S. Patent and Trademark Office and may be registered in certain other jurisdictions in the name of Linotype Corp. or its licensee Linotype GmbH.]]></trademark>
<licensee>
<name></name>
</licensee>
</metadata>
<defs >
<font horiz-adv-x="608" id="03d2c5f3-b690-4467-a028-47a5c2e659ce">
<font-face font-family="" panose-1="2 11 10 4 4 7 2 9 2 4" ascent="1017" descent="-244" units-per-em="1000" alphabetic="0">
</font-face>
<missing-glyph horiz-adv-x="0" />

<glyph unicode="&#xA;" />
<glyph unicode="&#xD;" horiz-adv-x="0" />
<glyph unicode=" " horiz-adv-x="352" />
<glyph unicode="!" horiz-adv-x="370" d="M330 213H129L194 722H482L330 213ZM304 0H66L101 164H339L304 0Z"  />
<glyph unicode="&quot;" horiz-adv-x="592" d="M567 422H445L478 722H660L567 422ZM327 422H205L238 722H420L327 422Z"  />
<glyph unicode="#" horiz-adv-x="704" d="M691 410H603L569 312H641L616 194H528L461 0H337L404 194H337L270 0H146L213 194H141L166 312H254L289 410H217L242 528H330L396 722H520L454 528H521L587 722H711L644 528H716L691 410ZM412 410L378 312H445L479 410H412Z"  />
<glyph unicode="$" horiz-adv-x="704" d="M528 519Q530 525 530 530T530 541Q530 564 518 573T478 582Q466 582 453 579T428 569T409 552T402 526Q402 512 411 504T437 489T476 478T522 466L607 442Q643 432 670 414T715 372T741 320T750 263Q750 191 721 141T645 56T537 5T414 -19L392 -120H243L265 -17Q224 -12 186 0T118 33T70 85T52 160Q52 177 54 192T61 225H333Q328 207 328 191Q328 142 388 142Q403 142 418 147T445 161T464 184T472 214Q472 227 465 235T446 248T417 258T381 269L296 296Q219 320 173 363T127 473Q127 537 152 583T218 660T313 709T425 735L446 833H595L575 739Q618 735 657 725T725 696T772 646T789 572Q789 547 783 519H528Z"  />
<glyph unicode="%" horiz-adv-x="1056" d="M389 0H266L823 722H943L389 0ZM373 495Q378 518 382 540T386 580Q386 596 382 605T364 615Q343 615 329 590T301 504Q288 443 288 413Q288 393 294 385T313 376Q323 376 330 381T345 400T358 437T373 495ZM911 222Q916 245 920 267T924 307Q924 323 920 332T902 342Q881 342 867 317T839 231Q826 170 826 140Q826 120 832 112T851 103Q861 103 868 108T883 127T896 164T911 222ZM279 259Q236 259 206 271T157 305T128 356T119 421Q119 482 137 539T189 639T275 709T395 736Q438 736 468 724T516 690T543 639T552 577Q552 515 536 458T485 357T400 286T279 259ZM817 -14Q774 -14 744 -2T695 32T666 83T657 148Q657 209 675 266T727 366T813 436T933 463Q976 463 1006 451T1054 417T1081 366T1090 304Q1090 242 1074 185T1023 84T938 13T817 -14Z"  />
<glyph unicode="&amp;" horiz-adv-x="888" d="M394 273Q379 269 363 261T333 240T311 213T302 181Q302 154 322 135T374 116Q395 116 425 126T489 154L394 273ZM563 574Q563 611 507 611Q494 611 480 608T455 599T437 582T429 555Q429 533 446 515T478 485Q488 491 503 500T531 520T553 545T563 574ZM938 397Q932 365 916 331T879 263T831 202T778 154L892 0H616L583 43Q524 9 457 -6T328 -21Q200 -21 128 26T56 156Q56 208 76 246T128 311T201 357T286 390Q202 459 202 533Q202 575 217 606T257 661T316 699T386 724T459 737T528 741Q587 741 635 732T716 704T768 661T787 602Q787 563 769 529T722 465T661 413T596 373L668 286Q712 330 733 398H939L938 397Z"  />
<glyph unicode="&apos;" horiz-adv-x="352" d="M327 422H205L238 722H420L327 422Z"  />
<glyph unicode="(" horiz-adv-x="388" d="M519 722Q499 683 486 655T461 603T441 557T420 506Q394 444 377 391T350 293Q336 224 332 154T327 12Q327 -6 327 -23T329 -59T331 -99T336 -146H150Q144 -115 140 -91T132 -45T126 1T120 57Q118 87 117 113T115 163Q115 214 122 259T143 348T176 435T218 523Q233 553 245 575T270 620T298 666T334 722H519H519Z"  />
<glyph unicode=")" horiz-adv-x="388" d="M391 519Q393 490 395 464T397 415Q397 364 390 318T369 229T336 142T293 53Q278 23 266 1T241 -44T213 -90T177 -146H-8Q11 -106 25 -78T50 -26T70 20T92 70Q141 190 161 281Q175 350 179 421T184 564Q184 582 184 599T182 635T180 675T175 722H361Q368 690 372 667T380 621T385 575T391 519Z"  />
<glyph unicode="*" horiz-adv-x="388" d="M468 535H378L406 456L324 417L298 494L238 417L173 457L234 535H146L163 616H251L224 694L305 736L333 657L391 735L456 693L395 616H485L468 535Z"  />
<glyph unicode="+" horiz-adv-x="600" d="M416 185V0H280V185H95V321H280V506H416V321H601V185H416Z"  />
<glyph unicode="&#x2c;" horiz-adv-x="352" d="M193 -97H-11L120 211H366L193 -97Z"  />
<glyph unicode="-" horiz-adv-x="407" d="M416 182H67L103 349H452L416 182Z"  />
<glyph unicode="." horiz-adv-x="352" d="M297 0H54L98 208H341L297 0Z"  />
<glyph unicode="/" horiz-adv-x="370" d="M128 -14H-24L394 722H544L128 -14Z"  />
<glyph unicode="0" horiz-adv-x="704" d="M474 563Q455 563 441 553T413 519T389 454T364 352Q357 320 351 285T344 217Q344 160 387 160Q420 160 439 191Q446 203 452 216T464 249T476 294T490 358Q503 417 508 451T513 507Q513 528 507 545T474 563ZM757 360Q739 273 704 203T616 84T493 8T332 -19Q83 -19 83 218Q83 277 100 356Q118 441 151 512T235 634T355 713T513 741Q585 741 634 726T715 680T761 607T775 509Q775 442 757 360Z"  />
<glyph unicode="1" horiz-adv-x="704" d="M516 0H241L341 472Q299 443 254 422T170 393L213 598Q242 607 274 619T337 646T398 681T450 722H669L516 0Z"  />
<glyph unicode="2" horiz-adv-x="704" d="M709 188L669 0H35L75 188L258 290Q283 304 324 330T406 388T476 457T506 526Q506 544 495 554T461 565Q400 565 382 484H131V485Q147 560 182 608T265 685T372 725T496 736Q631 736 706 691T782 561Q782 490 747 434T658 332T543 252T428 188H709Z"  />
<glyph unicode="3" horiz-adv-x="704" d="M577 377Q608 374 634 366T678 343T707 308T718 256Q718 179 685 127T600 42T482 -5T354 -20Q309 -20 258 -14T162 12T88 65T58 156Q58 170 60 186T66 223L67 225H311Q308 210 308 198Q308 146 365 146Q405 146 427 171T450 234Q450 264 424 277T341 290Q336 290 330 290T313 289L346 442Q358 441 363 441T377 441Q401 441 424 444T466 458T495 486T507 533Q507 575 453 575Q421 575 403 557T376 498H136V499Q150 566 183 612T263 686T368 726T491 738Q624 738 698 697T772 577Q772 533 757 499T716 440T654 399T577 377Z"  />
<glyph unicode="4" horiz-adv-x="704" d="M668 299H754L715 116H629L604 0H341L366 116H37L80 321L408 722H757L668 299ZM275 299H411L463 546L275 299Z"  />
<glyph unicode="5" horiz-adv-x="704" d="M740 551H411L376 435Q414 462 451 474T535 486Q628 486 678 441T729 315Q729 278 720 242T693 172T651 109T597 57Q546 17 484 -1T341 -20Q212 -20 144 25T76 156Q76 166 77 177T80 199H335Q334 194 334 190T334 182Q334 144 370 144Q392 144 406 154T428 179T442 214T451 250Q458 279 458 300Q458 323 448 332T414 341Q390 341 374 326T350 285H114L219 722H776L740 551Z"  />
<glyph unicode="6" horiz-adv-x="704" d="M486 276Q486 325 435 325Q410 325 393 313T364 281T347 239T342 195Q342 142 393 142Q418 142 435 155T464 188T480 231T486 276ZM523 523Q526 533 526 545Q526 579 486 579Q454 579 433 555Q414 533 400 499T374 410Q409 441 446 454T533 468Q578 468 615 457T678 425T720 372T735 299Q735 274 729 246Q716 184 684 135T603 51T493 -2T356 -21Q285 -21 235 -4T154 46T107 123T92 225Q92 283 107 351Q125 436 160 507T247 630T371 709T533 738Q583 738 625 730T698 704T746 655T764 580Q764 552 757 523H523Z"  />
<glyph unicode="7" horiz-adv-x="704" d="M773 566L383 0H91L474 529H154L195 722H806L773 566Z"  />
<glyph unicode="8" horiz-adv-x="704" d="M459 213Q463 229 463 245Q463 265 453 276T415 288Q350 288 334 213Q331 198 331 187Q331 142 380 142Q444 142 459 213ZM514 516Q517 531 517 543Q517 578 476 578Q449 578 434 563T410 514Q407 497 407 485Q407 446 447 446Q476 446 491 462T514 516ZM613 366Q668 354 696 317T725 228Q725 179 708 142T662 77T595 31T515 1T428 -15T343 -20Q296 -20 247 -11T156 20T89 75T62 158Q62 200 76 234T114 296T173 340T249 365Q198 379 174 411T150 488Q150 562 183 610T269 687T385 727T510 738Q635 738 705 693T775 566Q775 491 732 437T613 366Z"  />
<glyph unicode="9" horiz-adv-x="704" d="M508 489Q512 506 512 523Q512 575 460 575Q394 575 373 478Q368 455 368 441Q368 392 418 392Q487 392 508 489ZM747 366Q729 281 694 210T607 88T483 8T322 -21Q272 -21 230 -13T156 14T108 63T91 137Q91 162 97 194H330Q329 189 328 184T327 173Q327 139 368 139Q401 139 420 162Q440 185 453 219T479 308Q444 277 407 264T320 250Q276 250 239 261T175 293T133 346T118 419Q118 497 149 556T232 656T350 717T488 738Q559 738 610 721T696 673T746 597T762 496Q762 436 747 366Z"  />
<glyph unicode=":" horiz-adv-x="352" d="M363 308H120L165 516H408L363 308ZM298 0H55L99 208H342L298 0Z"  />
<glyph unicode=";" horiz-adv-x="352" d="M378 308H137L182 516H423L378 308ZM193 -97H-12L117 211H364L193 -97Z"  />
<glyph unicode="&lt;" horiz-adv-x="600" d="M82 171V334L597 538V372L255 252L597 134V-33L82 171Z"  />
<glyph unicode="=" horiz-adv-x="600" d="M104 295V443H620V295H104ZM104 63V212H620V63H104Z"  />
<glyph unicode="&gt;" horiz-adv-x="600" d="M97 -33V134L440 252L97 372V538L612 334V171L97 -33Z"  />
<glyph unicode="?" horiz-adv-x="537" d="M333 0H93L128 164H368L333 0ZM445 334Q415 315 400 291T374 222L371 208H135L143 243Q150 272 157 293T177 331T206 365T251 403L268 416Q278 423 290 433T314 456T332 481T340 508Q340 544 277 544Q228 544 140 519L180 708Q240 724 296 732T400 741Q445 741 487 733T563 707T616 658T636 583Q636 539 622 505T584 442T529 391T464 346L445 334Z"  />
<glyph unicode="@" horiz-adv-x="912" d="M464 -131Q377 -131 307 -101T186 -17T109 108T82 262Q82 362 121 449T226 601T379 703T565 741Q663 741 738 718T864 653T941 555T967 431Q967 388 958 344T930 260T883 184T814 124Q768 95 724 85T651 75Q610 75 588 90T566 135Q566 140 568 150Q548 130 531 116T495 92T457 79T411 75Q360 75 325 111T290 211Q290 270 310 327T365 431T447 505T550 533Q594 533 617 519T659 472L675 521H795L723 286Q721 279 716 261T710 225Q710 211 715 202T736 192Q742 192 759 198T795 227T827 289T841 397Q841 457 821 500T764 572T679 615T570 629Q496 629 430 601T315 524T238 409T209 265Q209 199 232 146T293 57T382 1T487 -19Q536 -19 573 -14T639 1T693 24T742 56L803 -21Q771 -48 737 -69T661 -103T572 -124T464 -131ZM495 182Q525 182 547 203T586 254T610 316T618 370Q618 426 571 426Q542 426 519 405T480 354T456 292T448 238Q448 182 495 182Z"  />
<glyph unicode="A" horiz-adv-x="796" d="M524 0L521 116H313L259 0H-19L366 722H737L816 0H524ZM515 563L393 292H516L515 563Z"  />
<glyph unicode="B" horiz-adv-x="758" d="M507 239Q507 267 484 282T409 297H382L351 152H374Q398 152 422 154T465 165T495 191T507 239ZM553 516Q553 542 532 555T463 568H440L411 432H437Q459 432 480 435T517 448T543 474T553 516ZM656 377Q719 367 750 331T782 242Q782 203 768 168T731 105T676 54T608 20Q588 13 570 9T532 3T490 1T438 0H53L206 722H622Q728 722 779 682T831 573Q831 529 819 497T785 443T730 405T656 377Z"  />
<glyph unicode="C" horiz-adv-x="758" d="M826 449H563Q566 470 566 485Q566 517 554 531T516 546Q488 546 469 532T437 492T415 434T398 363Q390 328 385 298T380 241Q380 209 392 190T437 170Q469 170 490 192T525 266H793L792 265Q778 199 744 146T657 57T538 1T389 -19Q241 -19 165 50T88 249Q88 275 91 303T101 361Q120 450 159 520T257 638T389 711T551 737Q614 737 666 725T756 687T814 621T835 525Q835 493 827 450L826 449Z"  />
<glyph unicode="D" horiz-adv-x="796" d="M556 370Q561 396 565 420T569 468Q569 507 550 532T475 558H450L366 166H388Q433 166 462 183T509 229T537 295T556 370ZM639 56Q535 0 400 0H49L202 722H526Q593 722 654 712T762 674T835 595T863 463Q863 404 848 344T804 229T734 129T639 56Z"  />
<glyph unicode="E" horiz-adv-x="630" d="M714 534H440L423 456H676L636 269H383L366 188H649L609 0H51L204 722H753L714 534Z"  />
<glyph unicode="F" horiz-adv-x="610" d="M716 534H447L428 449H678L639 264H389L333 0H49L202 722H755L716 534Z"  />
<glyph unicode="G" horiz-adv-x="814" d="M864 493H598Q598 496 598 499T599 505Q599 552 540 552Q503 552 479 536T438 492T410 423T389 335Q384 309 380 285T376 240Q376 205 392 183T454 161Q474 161 496 165T535 176L555 266H457L487 410H860L779 28Q738 17 692 9T599 -7T504 -17T412 -21Q258 -21 175 46T91 249Q91 299 103 358Q123 452 164 523T266 641T403 713T572 737Q630 737 684 730T779 702T846 647T871 558Q871 544 870 528T864 494V493Z"  />
<glyph unicode="H" horiz-adv-x="796" d="M744 0H458L515 266H395L338 0H52L205 722H491L439 475H559L611 722H897L744 0Z"  />
<glyph unicode="I" horiz-adv-x="388" d="M336 0H51L204 722H489L336 0Z"  />
<glyph unicode="J" horiz-adv-x="666" d="M677 267Q671 239 665 217T652 177T637 144T619 114Q576 51 495 15T307 -21Q245 -21 196 -9T111 27T56 84T37 160Q37 180 40 199T49 238H291Q285 223 285 206Q285 168 321 168Q338 168 349 175T368 195T380 221T388 249L488 722H773L677 267Z"  />
<glyph unicode="K" horiz-adv-x="796" d="M672 382L811 0H502L402 324L333 0H53L206 722H486L421 412L637 722H937L672 382Z"  />
<glyph unicode="L" horiz-adv-x="610" d="M600 0H51L204 722H491L379 194H641L600 0Z"  />
<glyph unicode="M" horiz-adv-x="1056" d="M1002 0H766L876 518L657 0H400L401 518L291 0H55L208 722H608L591 292L765 722H1155L1002 0Z"  />
<glyph unicode="N" horiz-adv-x="832" d="M780 0H438L376 442L282 0H51L204 722H553L610 287L702 722H933L780 0Z"  />
<glyph unicode="O" horiz-adv-x="796" d="M554 377Q561 410 565 437T570 487Q570 518 559 534T517 551Q469 551 443 502T395 353Q388 321 384 294T380 243Q380 208 391 189T431 170Q453 170 470 180T502 215T529 278T554 377ZM848 361Q829 272 790 202T693 82T563 6T403 -21Q330 -21 272 -3T173 51T111 136T89 252Q89 300 101 356Q120 447 159 519T256 640T388 715T554 741Q698 741 779 672T861 473Q861 447 858 419T848 361Z"  />
<glyph unicode="P" horiz-adv-x="740" d="M204 722H599Q652 722 695 710T770 672T819 609T837 522Q837 468 823 427T784 354T727 302T658 268T584 249T511 243H390L338 0H51L204 722ZM441 407Q466 407 487 410T525 424T550 451T559 495Q559 561 481 561H457L425 407H441Z"  />
<glyph unicode="Q" horiz-adv-x="796" d="M554 377Q561 410 565 437T570 487Q570 518 559 534T517 551Q469 551 443 502T395 353Q388 321 384 294T380 243Q380 208 391 189T431 170Q453 170 470 180T502 215T529 278T554 377ZM832 176L795 0H652Q637 0 626 0T603 0T577 -2T543 -4Q532 -5 525 -5T512 -7Q483 -14 454 -17T393 -21Q246 -21 168 50T89 252Q89 300 101 356Q120 447 161 519T261 640T396 715T564 741Q709 741 785 672T861 473Q861 435 855 396T838 319T810 244T772 176H832Z"  />
<glyph unicode="R" horiz-adv-x="758" d="M558 509Q558 535 537 547T466 560H448L418 420H439Q463 420 484 424T522 438T548 465T558 509ZM659 366Q689 361 708 354T740 334T756 305T761 263Q761 240 758 212L752 144Q750 123 749 101T747 57Q747 27 750 0H470V19Q470 29 470 41T470 66T471 88T472 105L474 138Q476 164 477 181T478 209Q478 244 461 252T410 260H386L331 0H49L202 722H631Q667 722 704 716T772 694T822 648T842 574Q842 528 829 495T793 437T735 395T659 366Z"  />
<glyph unicode="S" horiz-adv-x="722" d="M790 519H535Q537 525 537 530T537 541Q537 564 525 573T485 582Q473 582 460 579T435 569T416 552T409 526Q409 512 419 504T446 489T484 477T529 466L614 442Q686 420 721 373T757 262Q757 182 723 128T633 41T509 -6T370 -21Q313 -21 258 -12T159 18T88 75T61 165Q61 180 63 195T68 225H340Q335 207 335 191Q335 142 395 142Q409 142 424 147T451 161T471 184T479 213Q479 226 471 234T449 249T420 259T388 269L303 296Q228 319 181 361T134 473Q134 553 168 605T256 687T379 729T515 741Q566 741 616 734T706 708T771 656T796 572Q796 560 795 547T791 520L790 519Z"  />
<glyph unicode="T" horiz-adv-x="648" d="M757 527H579L467 0H180L292 527H115L156 722H798L757 527Z"  />
<glyph unicode="U" horiz-adv-x="778" d="M790 270Q773 190 740 135T657 45T542 -5T396 -21Q349 -21 295 -13T195 17T119 76T89 171Q89 201 98 243L199 722H486L388 257Q384 240 384 224Q384 176 429 176Q458 176 478 196T506 253L605 722H886L790 270Z"  />
<glyph unicode="V" horiz-adv-x="759" d="M565 0H195L144 722H431L413 160L640 722H922L565 0Z"  />
<glyph unicode="W" horiz-adv-x="1036" d="M898 0H589L616 468L452 0H139V722H391L357 267L521 722H819L790 267L950 722H1204L898 0Z"  />
<glyph unicode="X" horiz-adv-x="778" d="M639 369L792 0H492L431 220L272 0H-14L299 369L155 722H455L508 519L648 722H937L639 369Z"  />
<glyph unicode="Y" horiz-adv-x="740" d="M566 250L513 0H228L281 250L135 722H425L464 419L629 722H911L566 250Z"  />
<glyph unicode="Z" horiz-adv-x="685" d="M772 549L394 188H702L662 0H23L60 174L438 534H146L185 722H808L772 549Z"  />
<glyph unicode="[" horiz-adv-x="481" d="M566 560H411L295 14H450L416 -146H50L234 722H600L566 560Z"  />
<glyph unicode="\" horiz-adv-x="370" d="M236 -14L132 722H282L388 -14H236Z"  />
<glyph unicode="]" horiz-adv-x="481" d="M369 -146H4L38 14H193L309 560H154L188 722H553L369 -146Z"  />
<glyph unicode="^" horiz-adv-x="600" d="M507 359L412 582L317 359H177L341 722H483L647 359H507Z"  />
<glyph unicode="_" horiz-adv-x="500" d="M0 -125V-75H500V-125H0Z"  />
<glyph unicode="`" horiz-adv-x="278" d="M194 552L76 722H311L371 552H194Z"  />
<glyph unicode="a" horiz-adv-x="592" d="M382 223Q375 224 371 224T361 225Q343 225 325 222T291 210T267 187T257 150Q257 115 303 115Q333 115 351 133T377 197L382 223ZM553 0H341L348 53Q312 18 275 3T188 -13Q116 -13 79 22T41 112Q41 176 70 216T146 278T247 309T355 318Q363 318 374 318T399 317L409 360Q410 365 410 373Q410 400 371 400Q347 400 334 389T314 352H115V353Q120 376 133 399T165 440Q237 513 404 513Q436 513 475 510T549 495T607 459T631 392Q631 377 629 362T623 330L553 0Z"  />
<glyph unicode="b" horiz-adv-x="666" d="M692 259Q664 129 593 57T421 -16Q372 -16 340 2T287 58L267 0H39L192 722H438L382 456Q419 489 458 503T542 517Q620 517 661 472T702 345Q702 325 700 304T692 259ZM443 250Q448 270 451 289T454 325Q454 346 446 359T414 373Q394 373 381 364T359 337T344 296T332 243Q327 223 324 205T321 172Q321 152 329 140T360 128Q392 128 410 155T443 250Z"  />
<glyph unicode="c" horiz-adv-x="630" d="M667 301H444Q447 315 448 326T449 346Q449 390 410 390Q388 390 374 379T350 345T333 293T317 225Q313 208 310 191T306 157Q306 137 315 124T350 110Q368 110 380 120T402 144T416 175T424 206H651Q637 141 606 99T533 31T439 -5T332 -15Q275 -15 227 -5T145 28T91 87T71 174Q71 209 80 253Q106 378 195 447T425 517Q482 517 528 506T606 474T655 421T673 350Q673 327 667 302V301Z"  />
<glyph unicode="d" horiz-adv-x="666" d="M625 0H397L401 58Q365 20 326 2T237 -16Q156 -16 114 30T72 164Q72 206 83 259Q109 380 177 448T341 517Q387 517 420 504T477 456L533 722H778L625 0ZM439 260Q442 277 445 294T449 326Q449 346 441 359T408 373Q388 373 376 364T354 338T339 299T327 250Q322 227 320 210T317 178Q317 151 327 140T359 128Q380 128 393 139T415 167T428 206T437 249L439 260Z"  />
<glyph unicode="e" horiz-adv-x="630" d="M455 315Q460 338 460 353Q460 373 449 385T409 398Q368 398 351 375T325 315H455ZM302 208V207Q299 193 297 182T294 156Q294 133 306 120T348 106Q403 106 423 164H633Q630 152 623 139T607 112T587 86T567 65Q522 23 465 4T319 -16Q204 -16 138 32T71 181Q71 262 97 325T172 431T286 497T432 520Q552 520 608 468T665 322Q665 293 660 265T649 208H302Z"  />
<glyph unicode="f" horiz-adv-x="388" d="M520 574Q509 575 496 575T470 576Q444 576 432 566T413 530L406 500H495L464 352H375L300 0H61L136 352H77L108 500H167L174 532Q185 583 203 616T254 676Q286 702 329 716T420 730Q429 730 444 729T478 726T516 721T550 715L520 574Z"  />
<glyph unicode="g" horiz-adv-x="666" d="M444 262Q447 276 450 292T453 325Q453 345 445 358T413 372Q391 372 377 360T354 329T338 286T327 237Q325 225 323 212T320 187Q320 170 328 158T360 145Q383 145 397 154T420 180T434 217T444 262ZM639 66Q632 34 627 13T615 -25T601 -56T582 -87Q543 -146 465 -175T273 -204Q237 -204 196 -200T121 -181T63 -139T40 -64Q40 -49 43 -32H279Q279 -34 279 -36T278 -41Q278 -73 321 -73Q356 -73 373 -52T403 23L414 74Q385 42 344 26T248 9Q157 9 115 56T72 179Q72 214 81 253Q92 305 114 352T171 435T251 492T354 513Q454 513 486 447L505 500H731L639 66Z"  />
<glyph unicode="h" horiz-adv-x="648" d="M612 0H370L435 307Q438 319 438 329Q438 366 404 366Q389 366 379 360T363 344T352 323T345 299L281 0H37L190 722H434L373 433Q408 477 449 496T547 516Q588 516 615 507T659 482T682 443T689 393Q689 374 687 354T679 313L612 0Z"  />
<glyph unicode="i" horiz-adv-x="314" d="M397 569H159L191 722H429L397 569ZM276 0H38L144 500H382L276 0Z"  />
<glyph unicode="j" horiz-adv-x="314" d="M396 569H158L190 722H428L396 569ZM273 -10Q266 -41 258 -64T240 -105T215 -136T183 -160Q166 -170 148 -176T107 -187T53 -192T-22 -194Q-57 -194 -91 -191L-64 -65Q-59 -65 -54 -65T-43 -66Q-3 -66 12 -51Q30 -33 40 13L143 500H381L273 -10Z"  />
<glyph unicode="k" horiz-adv-x="630" d="M552 287L641 0H377L331 262L275 0H35L188 722H428L340 308L475 500H736L552 287Z"  />
<glyph unicode="l" horiz-adv-x="314" d="M276 0H38L191 722H429L276 0Z"  />
<glyph unicode="m" horiz-adv-x="980" d="M942 0H703L769 309Q771 315 771 320T771 330Q771 366 738 366Q716 366 700 350T678 303L614 0H372L437 307Q440 319 440 329Q440 366 406 366Q379 366 366 348T347 302L283 0H39L145 500H378L368 426Q408 475 449 495T550 516Q611 516 645 494T693 420Q767 516 879 516Q950 516 985 484T1021 394Q1021 370 1015 343L942 0Z"  />
<glyph unicode="n" horiz-adv-x="648" d="M612 0H370L435 307Q438 319 438 329Q438 366 404 366Q376 366 363 346T345 303L281 0H37L143 500H376L366 426Q404 474 447 495T547 516Q577 516 603 510T649 489T679 451T690 395Q690 373 686 350T676 303L612 0Z"  />
<glyph unicode="o" horiz-adv-x="666" d="M444 259Q454 305 454 335Q454 363 445 375T416 387Q381 387 364 352T334 259Q327 229 323 205T319 163Q319 140 327 129T357 117Q377 117 391 129T414 160T431 205T444 259ZM694 252Q678 176 644 125T562 43T454 -2T325 -16Q270 -16 224 -4T143 34T90 97T71 186Q71 201 72 217T78 251Q93 320 125 371T202 455T305 504T428 521Q486 521 536 510T622 474T680 411T701 319Q701 286 694 252Z"  />
<glyph unicode="p" horiz-adv-x="666" d="M443 250Q448 273 450 290T453 322Q453 349 443 360T411 372Q393 372 381 364T360 340T345 302T333 251Q328 231 325 212T322 175Q322 154 330 141T362 127Q383 127 396 138T419 168T433 208T443 250ZM688 241Q662 120 594 52T429 -17Q381 -17 350 -4T294 44L244 -192H-2L145 500H373L369 442Q440 516 534 516Q614 516 656 469T699 335Q699 294 688 241Z"  />
<glyph unicode="q" horiz-adv-x="666" d="M439 257Q443 277 446 295T450 329Q450 349 442 360T411 372Q373 372 356 338T327 250Q323 231 320 212T316 175Q316 154 324 141T356 127Q379 127 393 139T415 170T429 212T439 257ZM584 -192H339L389 44Q353 11 314 -3T228 -17Q150 -17 110 28T69 155Q69 175 71 196T79 241Q106 371 178 443T350 516Q399 516 431 498T483 442L503 500H731L584 -192Z"  />
<glyph unicode="r" horiz-adv-x="444" d="M507 306Q485 311 464 315T419 319Q383 319 363 302T334 244L282 0H37L143 500H376L370 447Q388 471 421 489T486 507Q499 507 516 503T547 493L507 306Z"  />
<glyph unicode="s" horiz-adv-x="592" d="M420 350Q422 356 423 362T424 374Q424 407 382 407Q359 407 341 396T323 359Q323 341 344 336T411 322L458 314Q484 309 510 300T558 275T593 236T607 181Q607 116 579 77T507 16T409 -12T302 -19Q257 -19 213 -13T132 8T74 51T52 123Q52 143 56 162H277Q274 147 274 136Q274 94 318 94Q343 94 361 107T379 147Q379 168 355 176T283 191L260 194Q176 205 138 240T100 325Q100 386 127 424T198 483T294 511T397 519Q511 519 571 485T632 385Q632 366 628 350H420Z"  />
<glyph unicode="t" horiz-adv-x="426" d="M496 352H383L351 204Q349 195 349 188T348 175Q348 158 355 152T380 145Q392 145 410 147T445 153L413 5Q372 -4 332 -10T251 -16Q225 -16 198 -12T147 3T110 34T95 86Q95 100 97 114T103 145L147 352H80L111 500H177L195 583L450 667L414 500H527L496 352Z"  />
<glyph unicode="u" horiz-adv-x="648" d="M611 0H378L389 74Q351 26 308 5T208 -16Q178 -16 152 -10T106 11T76 49T65 105Q65 127 69 150T78 197L142 500H384L319 193Q316 181 316 171Q316 134 350 134Q379 134 391 154T409 198L473 500H717L611 0Z"  />
<glyph unicode="v" horiz-adv-x="630" d="M481 0H151L106 500H356L358 191L489 500H736L481 0Z"  />
<glyph unicode="w" horiz-adv-x="944" d="M820 0H526L530 319L403 0H107L104 500H335L310 174L441 500H706L696 174L818 500H1052L820 0Z"  />
<glyph unicode="x" horiz-adv-x="630" d="M545 267L643 0H389L347 150L254 0H-13L197 267L108 500H366L390 368L464 500H721L545 267Z"  />
<glyph unicode="y" horiz-adv-x="630" d="M355 -192H94L198 -15L103 500H361L373 226L499 500H740L355 -192Z"  />
<glyph unicode="z" horiz-adv-x="536" d="M568 343L370 162H546L512 0H25L55 139L272 340H111L145 500H601L568 343Z"  />
<glyph unicode="{" horiz-adv-x="481" d="M555 560H520Q489 560 473 546T449 500L424 383Q418 356 403 340T368 313T328 298T292 291V288Q305 286 321 282T352 270T377 248T387 214Q387 209 386 205T384 195L359 74Q356 62 356 52Q356 14 404 14H439L405 -146H239Q210 -146 189 -138T153 -115T132 -83T125 -45Q125 -38 125 -32T127 -20L163 151Q164 155 164 158T165 165Q165 179 158 187T138 200T111 206T81 207L116 371Q133 371 150 372T181 380T207 397T222 427L258 596Q263 619 277 641T312 682T361 711T423 722H589L555 560Z"  />
<glyph unicode="|" horiz-adv-x="222" d="M112 -19V741H268V-19H112Z"  />
<glyph unicode="}" horiz-adv-x="481" d="M488 207Q471 207 454 206T423 198T397 181T382 151L346 -20Q341 -43 327 -65T292 -106T242 -135T180 -146H14L48 14H83Q114 14 130 28T154 74L179 195Q185 222 200 238T236 265T276 280T312 287V290Q299 292 283 296T252 308T227 329T217 364Q217 369 217 373T219 383L244 500Q247 512 247 522Q247 560 199 560H164L198 722H364Q393 722 414 714T450 691T472 659T479 621Q479 614 479 608T477 596L441 427Q440 423 440 420T439 413Q439 399 446 391T466 378T493 372T523 371L488 207Z"  />
<glyph unicode="~" horiz-adv-x="600" d="M634 358Q632 326 623 288T596 218T550 163T482 141Q465 141 441 146T390 158T339 173T300 185Q283 190 262 195T223 201Q198 201 186 186T171 148H69Q69 180 79 217T108 287T157 340T223 362Q236 362 254 359T291 352T327 342T358 332Q387 323 418 313T481 303Q509 303 518 319T532 358H634H634Z"  />
<glyph unicode="&#xA0;" horiz-adv-x="352" />
<glyph unicode="&#xA1;" horiz-adv-x="370" d="M154 326H354L288 -185H2L154 326ZM178 537H420L385 373H143L178 537Z"  />
<glyph unicode="&#xA2;" horiz-adv-x="704" d="M289 -15Q243 -9 206 8T143 58Q118 90 110 138T116 254Q129 314 158 359T227 437T311 489T402 517L425 625H567L544 517Q587 511 620 495T674 450T703 384T703 296H479Q488 344 484 368T448 393Q433 393 421 388T398 367T377 322T356 244Q347 202 345 176T345 135T357 115T384 109Q415 109 430 132T460 203H684Q673 150 649 113T592 50T518 9T431 -15L408 -123H266L289 -15Z"  />
<glyph unicode="&#xA3;" horiz-adv-x="704" d="M76 194H148L167 285H74L109 449H202L214 505Q226 562 258 606T336 680T441 725T566 741Q631 741 680 728T760 688T802 621T802 529L798 509H556Q561 538 550 548T524 559Q506 559 488 545T459 483L452 449H591L556 285H417L398 194H715L674 0H35L76 194Z"  />
<glyph unicode="&#xA4;" horiz-adv-x="704" d="M148 174L203 229Q184 257 174 290T164 361Q164 399 175 434T206 498L148 556L221 629L281 570Q340 609 412 609Q487 609 543 570L603 629L676 556L618 498Q638 469 649 434T660 361Q660 324 650 291T621 229L676 174L603 101L549 155Q520 135 485 124T412 113Q374 113 339 124T275 155L221 101L148 174ZM294 361Q294 337 303 316T329 278T366 253T412 243Q436 243 457 252T495 278T520 315T530 361Q530 385 521 406T495 444T458 469T412 479Q388 479 367 470T329 444T304 407T294 361Z"  />
<glyph unicode="&#xA5;" horiz-adv-x="704" d="M234 82H85L114 218H263L270 250L261 277H126L155 413H223L138 722H418L449 419H451L610 722H872L653 413H721L692 277H557L538 250L531 218H680L651 82H502L485 0H217L234 82Z"  />
<glyph unicode="&#xA6;" horiz-adv-x="222" d="M116 275H252V-19H116V275ZM116 741H252V447H116V741Z"  />
<glyph unicode="&#xA7;" horiz-adv-x="704" d="M132 144Q170 130 211 121T287 111Q309 111 321 121T337 144Q340 158 326 168T288 188T239 209T191 239T158 282T155 346Q159 364 169 384T197 424T240 458T297 479L298 481Q275 488 261 500T241 528T234 559T236 590Q243 624 261 652T314 700T399 730T522 741Q570 741 620 736T716 722L688 592Q655 600 622 605T560 611Q543 611 531 607T516 591Q513 578 528 569T567 551T618 530T667 500T700 453T703 384Q693 336 661 297T557 235Q592 219 603 190T607 126Q601 95 583 69T532 23T453 -8T345 -19Q287 -19 221 -13T103 8L132 144ZM441 305Q477 323 490 339T505 365Q509 382 493 398T423 430L401 417Q367 396 364 379Q362 368 366 357T386 337L441 305Z"  />
<glyph unicode="&#xA8;" horiz-adv-x="278" d="M90 722H254L218 552H54L90 722ZM330 722H494L458 552H294L330 722Z"  />
<glyph unicode="&#xA9;" horiz-adv-x="800" d="M654 306Q649 267 633 238T592 189T538 159T475 149Q429 149 392 165T327 209T286 276T271 360Q271 406 285 444T325 511T388 556T473 572Q542 572 591 534T654 421H548Q542 451 522 464T470 478Q428 478 406 447T383 362Q383 309 407 276T469 243Q501 243 522 257T548 306H654ZM90 361Q90 440 120 509T201 629T322 711T470 741Q549 741 618 711T738 630T820 509T850 361Q850 282 820 213T739 93T618 11T470 -19Q391 -19 322 11T202 92T120 213T90 361ZM208 361Q208 307 228 259T284 176T368 120T470 99Q524 99 572 119T655 175T711 259T732 361Q732 415 712 463T656 546T572 602T470 623Q416 623 368 603T285 547T229 463T208 361Z"  />
<glyph unicode="&#xAA;" horiz-adv-x="388" d="M214 411Q167 411 143 433T119 491Q119 529 137 554T185 593T249 614T320 620Q324 620 329 620T343 619L348 642Q348 644 348 645T349 649Q349 663 327 663Q313 663 306 657T295 633H163Q179 739 343 739Q385 739 416 733T468 715Q495 699 495 659Q495 650 494 640T490 618L455 453Q454 450 453 444T451 433Q450 426 449 419H307L310 446Q287 426 267 419T214 411ZM287 496Q318 496 327 532L331 555H322Q313 555 303 554T283 548T267 536T261 516Q261 496 287 496Z"  />
<glyph unicode="&#xAB;" horiz-adv-x="648" d="M549 500H743L582 250L637 0H443L344 250L549 500ZM269 500H463L302 250L357 0H163L64 250L269 500Z"  />
<glyph unicode="&#xAC;" horiz-adv-x="600" d="M477 307H107V443H613V126H477V307Z"  />
<glyph unicode="&#xAD;" horiz-adv-x="407" d="M103 352H452L416 182H67L103 352Z"  />
<glyph unicode="&#xAE;" horiz-adv-x="400" d="M500 557Q500 519 486 486T447 428T389 389T317 374Q279 374 246 388T187 427T148 485T133 557Q133 595 147 628T187 687T245 726T317 741Q355 741 388 727T446 687T485 629T500 557ZM459 557Q459 587 448 613T418 658T372 689T317 700Q287 700 261 689T216 659T185 613T174 557Q174 527 185 502T215 457T261 426T317 415Q346 415 372 426T417 456T448 502T459 557ZM347 454Q342 468 343 480T343 502T334 517T307 523H299V454H236V660H317Q333 660 349 658T378 650T398 631T406 598Q406 560 371 548Q389 539 395 529T402 507T404 482T408 454H347ZM343 593Q343 607 333 610T312 614H299V570H312Q323 570 333 574T343 593Z"  />
<glyph unicode="&#xAF;" horiz-adv-x="278" d="M73 699H501L476 581H48L73 699Z"  />
<glyph unicode="&#xB0;" horiz-adv-x="400" d="M177 598Q177 628 188 654T218 699T264 730T320 741Q350 741 376 730T421 700T452 654T463 598Q463 568 452 542T422 497T376 466T320 455Q290 455 264 466T219 496T188 542T177 598ZM265 598Q265 575 281 559T320 543Q343 543 359 559T375 598Q375 621 359 637T320 653Q297 653 281 637T265 598Z"  />
<glyph unicode="&#xB1;" horiz-adv-x="600" d="M272 506H408V401H593V265H408V160H272V265H87V401H272V506ZM87 136H593V0H87V136Z"  />
<glyph unicode="&#xB2;" horiz-adv-x="444" d="M111 405L224 467Q253 484 275 497T321 530Q328 536 337 543T353 560T366 579T372 602Q372 622 348 622Q313 622 303 578V574H143L144 579Q175 730 372 730Q457 730 497 701T538 620Q538 580 517 547T463 488Q446 474 435 466T411 449T380 432T333 407H495L470 289H86L111 405Z"  />
<glyph unicode="&#xB3;" horiz-adv-x="444" d="M281 277Q191 277 147 307T102 395Q102 403 103 411T106 429H262Q260 424 260 420T260 411Q260 382 292 382Q312 382 325 394T339 429Q339 446 324 453T276 460Q272 460 267 460T255 459L276 557Q284 557 288 557T298 556Q336 556 354 567T372 606Q372 628 342 628Q324 628 314 618T299 582H145L146 587Q162 665 218 698T372 732Q454 732 497 704T540 628Q540 577 512 551T442 516Q477 510 492 490T508 441Q508 356 447 317T281 277Z"  />
<glyph unicode="&#xB4;" horiz-adv-x="278" d="M267 722H499L309 552H133L267 722Z"  />
<glyph unicode="&#xB5;" horiz-adv-x="648" d="M476 502H718L612 0H376L386 76H384Q365 46 350 29T324 1T304 -12T290 -15Q281 -15 275 -11L237 -192H-4L142 502H384L317 187Q312 161 321 147T350 133Q370 133 386 146T410 189L476 502Z"  />
<glyph unicode="&#xB6;" horiz-adv-x="620" d="M391 -192L558 596H488L321 -192H169L260 239Q184 249 147 294T110 411Q110 477 132 534T196 633T295 698T425 722H737L543 -192H391Z"  />
<glyph unicode="&#xB7;" horiz-adv-x="352" d="M92 182L136 390H379L335 182H92Z"  />
<glyph unicode="&#xB8;" horiz-adv-x="278" d="M106 0H188L144 -56H146Q151 -54 159 -54T175 -53Q214 -53 237 -75T252 -138Q247 -163 232 -183T194 -216T143 -237T83 -244Q44 -244 9 -237T-49 -216L-9 -152Q11 -163 32 -169T74 -176Q94 -176 112 -167T133 -142Q136 -128 125 -122T99 -115Q86 -115 67 -122L35 -92L106 0Z"  />
<glyph unicode="&#xB9;" horiz-adv-x="444" d="M270 562Q236 542 213 533T166 519L193 647Q223 656 244 664T282 682T312 700T340 722H479L387 289H212L270 562Z"  />
<glyph unicode="&#xBA;" horiz-adv-x="434" d="M309 406Q231 406 186 445T141 548Q141 595 162 635T216 700Q274 741 365 741Q449 741 493 704T538 603Q538 557 518 515T466 449Q437 428 400 417T309 406ZM322 494Q340 494 350 512T371 577Q374 592 376 603T378 623Q378 651 357 651Q348 651 342 648T329 636T318 611T307 567Q304 552 302 540T300 520Q300 505 305 500T322 494Z"  />
<glyph unicode="&#xBB;" horiz-adv-x="648" d="M117 500H311L410 250L205 0H11L172 250L117 500ZM397 500H591L690 250L485 0H291L452 250L397 500Z"  />
<glyph unicode="&#xBC;" horiz-adv-x="1055" d="M266 562Q232 542 209 533T162 519L189 647Q219 656 240 664T278 682T308 700T336 722H475L383 289H208L266 562ZM825 747H931L365 -25H259L825 747ZM835 68H634L661 193L862 433H1079L1026 184H1080L1055 68H1001L987 0H821L835 68ZM863 184L890 310Q864 278 841 247T792 184H863Z"  />
<glyph unicode="&#xBD;" horiz-adv-x="1055" d="M266 562Q232 542 209 533T162 519L189 647Q219 656 240 664T278 682T308 700T336 722H475L383 289H208L266 562ZM816 747H922L356 -25H250L816 747ZM672 116L785 178Q814 195 836 208T882 241Q889 247 898 254T914 271T927 290T933 313Q933 333 909 333Q874 333 864 289V285H704L705 290Q736 441 933 441Q1018 441 1058 412T1099 331Q1099 291 1078 258T1024 199Q1007 185 996 177T972 160T941 143T894 118H1056L1031 0H647L672 116Z"  />
<glyph unicode="&#xBE;" horiz-adv-x="1055" d="M281 277Q191 277 147 307T102 395Q102 403 103 411T106 429H262Q260 424 260 420T260 411Q260 382 292 382Q312 382 325 394T339 429Q339 446 324 453T276 460Q272 460 267 460T255 459L276 557Q284 557 288 557T298 556Q336 556 354 567T372 606Q372 628 342 628Q324 628 314 618T299 582H145L146 587Q162 665 218 698T372 732Q454 732 497 704T540 628Q540 577 512 551T442 516Q477 510 492 490T508 441Q508 356 447 317T281 277ZM837 747H943L377 -25H271L837 747ZM819 68H618L645 193L846 433H1063L1010 184H1064L1039 68H985L971 0H805L819 68ZM847 184L874 310Q848 278 825 247T776 184H847Z"  />
<glyph unicode="&#xBF;" horiz-adv-x="537" d="M273 329H515L502 265Q495 233 479 210T437 165L348 91Q331 76 323 62T312 39Q307 15 322 3T371 -10Q399 -10 436 -2T511 20L471 -168Q443 -177 413 -184T353 -195T298 -202T253 -204Q196 -204 149 -193T69 -157T22 -95T18 -6Q29 47 53 79T115 139L214 211Q234 225 246 240T263 280L273 329ZM318 537H560L525 373H283L318 537Z"  />
<glyph unicode="&#xC0;" horiz-adv-x="796" d="M524 0L521 116H313L259 0H-19L366 722H737L816 0H524ZM515 563L393 292H516L515 563ZM377 942H609L671 772H495L377 942Z"  />
<glyph unicode="&#xC1;" horiz-adv-x="796" d="M524 0L521 116H313L259 0H-19L366 722H737L816 0H524ZM515 563L393 292H516L515 563ZM573 942H805L615 772H439L573 942Z"  />
<glyph unicode="&#xC2;" horiz-adv-x="796" d="M524 0L521 116H313L259 0H-19L366 722H737L816 0H524ZM515 563L393 292H516L515 563ZM570 848L510 772H328L478 942H702L780 772H598L570 848Z"  />
<glyph unicode="&#xC3;" horiz-adv-x="796" d="M524 0L521 116H313L259 0H-19L366 722H737L816 0H524ZM515 563L393 292H516L515 563ZM804 936Q788 858 748 815T631 772Q613 772 593 777T552 789T515 800T488 806Q469 806 463 778H339L343 797Q357 860 398 901T500 942Q521 942 544 937T587 925T625 914T652 908Q661 908 668 915T680 936H804Z"  />
<glyph unicode="&#xC4;" horiz-adv-x="796" d="M524 0L521 116H313L259 0H-19L366 722H737L816 0H524ZM515 563L393 292H516L515 563ZM388 942H552L516 772H352L388 942ZM628 942H792L756 772H592L628 942Z"  />
<glyph unicode="&#xC5;" horiz-adv-x="796" d="M524 0L521 116H313L259 0H-19L366 722H737L816 0H524ZM515 563L393 292H516L515 563ZM447 886Q453 913 468 937T505 978T553 1006T606 1017Q633 1017 654 1007T690 979T709 937T709 886Q703 859 688 835T651 794T603 766T550 755Q523 755 502 765T466 793T447 835T447 886ZM535 886Q531 868 541 856T569 843Q587 843 602 855T621 886Q625 904 615 916T587 929Q569 929 554 917T535 886Z"  />
<glyph unicode="&#xC6;" horiz-adv-x="1000" d="M1088 532H833L822 451H1051L1013 271H805L796 185H1020L981 0H513L525 116H313L247 0H-22L436 722H1128L1088 532ZM543 292L577 572L416 292H543Z"  />
<glyph unicode="&#xC7;" horiz-adv-x="758" d="M333 -16Q212 -3 150 64T88 249Q88 275 91 303T101 361Q120 450 159 520T257 638T389 711T551 737Q614 737 666 725T756 687T814 621T835 525Q835 493 827 450L826 449H563Q566 470 566 485Q566 517 554 531T516 546Q488 546 469 532T437 492T415 434T398 363Q390 328 385 298T380 241Q380 209 392 190T437 170Q469 170 490 192T525 266H793L792 265Q778 201 746 150T665 63T553 6T413 -18L384 -56H386Q391 -54 399 -54T415 -53Q454 -53 477 -75T492 -138Q487 -163 472 -183T434 -216T383 -237T323 -244Q284 -244 249 -237T191 -216L231 -152Q251 -163 272 -169T314 -176Q334 -176 352 -167T373 -142Q376 -128 365 -122T339 -115Q326 -115 307 -122L275 -92L333 -16Z"  />
<glyph unicode="&#xC8;" horiz-adv-x="630" d="M714 534H440L423 456H676L636 269H383L366 188H649L609 0H51L204 722H753L714 534ZM298 942H530L592 772H416L298 942Z"  />
<glyph unicode="&#xC9;" horiz-adv-x="630" d="M714 534H440L423 456H676L636 269H383L366 188H649L609 0H51L204 722H753L714 534ZM489 942H721L531 772H355L489 942Z"  />
<glyph unicode="&#xCA;" horiz-adv-x="630" d="M714 534H440L423 456H676L636 269H383L366 188H649L609 0H51L204 722H753L714 534ZM494 848L434 772H252L402 942H626L704 772H522L494 848Z"  />
<glyph unicode="&#xCB;" horiz-adv-x="630" d="M714 534H440L423 456H676L636 269H383L366 188H649L609 0H51L204 722H753L714 534ZM312 942H476L440 772H276L312 942ZM552 942H716L680 772H516L552 942Z"  />
<glyph unicode="&#xCC;" horiz-adv-x="388" d="M336 0H51L204 722H489L336 0ZM176 942H408L470 772H294L176 942Z"  />
<glyph unicode="&#xCD;" horiz-adv-x="388" d="M336 0H51L204 722H489L336 0ZM368 942H600L410 772H234L368 942Z"  />
<glyph unicode="&#xCE;" horiz-adv-x="388" d="M336 0H51L204 722H489L336 0ZM373 848L313 772H131L281 942H505L583 772H401L373 848Z"  />
<glyph unicode="&#xCF;" horiz-adv-x="388" d="M336 0H51L204 722H489L336 0ZM191 942H355L319 772H155L191 942ZM431 942H595L559 772H395L431 942Z"  />
<glyph unicode="&#xD0;" horiz-adv-x="796" d="M639 56Q535 0 400 0H49L114 306H58L83 428H140L202 722H526Q593 722 654 712T762 674T835 595T863 463Q863 404 848 344T804 229T734 129T639 56ZM396 306L366 166H388Q433 166 462 183T509 229T537 295T556 370Q561 396 565 420T569 468Q569 507 550 532T475 558H450L422 428H503L478 306H396Z"  />
<glyph unicode="&#xD1;" horiz-adv-x="832" d="M780 0H438L376 442L282 0H51L204 722H553L610 287L702 722H933L780 0ZM830 936Q814 858 774 815T657 772Q639 772 619 777T578 789T541 800T514 806Q495 806 489 778H365L369 797Q383 860 424 901T526 942Q547 942 570 937T613 925T651 914T678 908Q687 908 694 915T706 936H830Z"  />
<glyph unicode="&#xD2;" horiz-adv-x="796" d="M554 377Q561 410 565 437T570 487Q570 518 559 534T517 551Q469 551 443 502T395 353Q388 321 384 294T380 243Q380 208 391 189T431 170Q453 170 470 180T502 215T529 278T554 377ZM848 361Q829 272 790 202T693 82T563 6T403 -21Q330 -21 272 -3T173 51T111 136T89 252Q89 300 101 356Q120 447 159 519T256 640T388 715T554 741Q698 741 779 672T861 473Q861 447 858 419T848 361ZM382 942H614L676 772H500L382 942Z"  />
<glyph unicode="&#xD3;" horiz-adv-x="796" d="M554 377Q561 410 565 437T570 487Q570 518 559 534T517 551Q469 551 443 502T395 353Q388 321 384 294T380 243Q380 208 391 189T431 170Q453 170 470 180T502 215T529 278T554 377ZM848 361Q829 272 790 202T693 82T563 6T403 -21Q330 -21 272 -3T173 51T111 136T89 252Q89 300 101 356Q120 447 159 519T256 640T388 715T554 741Q698 741 779 672T861 473Q861 447 858 419T848 361ZM573 942H805L615 772H439L573 942Z"  />
<glyph unicode="&#xD4;" horiz-adv-x="796" d="M554 377Q561 410 565 437T570 487Q570 518 559 534T517 551Q469 551 443 502T395 353Q388 321 384 294T380 243Q380 208 391 189T431 170Q453 170 470 180T502 215T529 278T554 377ZM848 361Q829 272 790 202T693 82T563 6T403 -21Q330 -21 272 -3T173 51T111 136T89 252Q89 300 101 356Q120 447 159 519T256 640T388 715T554 741Q698 741 779 672T861 473Q861 447 858 419T848 361ZM578 848L518 772H336L486 942H710L788 772H606L578 848Z"  />
<glyph unicode="&#xD5;" horiz-adv-x="796" d="M554 377Q561 410 565 437T570 487Q570 518 559 534T517 551Q469 551 443 502T395 353Q388 321 384 294T380 243Q380 208 391 189T431 170Q453 170 470 180T502 215T529 278T554 377ZM848 361Q829 272 790 202T693 82T563 6T403 -21Q330 -21 272 -3T173 51T111 136T89 252Q89 300 101 356Q120 447 159 519T256 640T388 715T554 741Q698 741 779 672T861 473Q861 447 858 419T848 361ZM812 936Q796 858 756 815T639 772Q621 772 601 777T560 789T523 800T496 806Q477 806 471 778H347L351 797Q365 860 406 901T508 942Q529 942 552 937T595 925T633 914T660 908Q669 908 676 915T688 936H812Z"  />
<glyph unicode="&#xD6;" horiz-adv-x="796" d="M554 377Q561 410 565 437T570 487Q570 518 559 534T517 551Q469 551 443 502T395 353Q388 321 384 294T380 243Q380 208 391 189T431 170Q453 170 470 180T502 215T529 278T554 377ZM848 361Q829 272 790 202T693 82T563 6T403 -21Q330 -21 272 -3T173 51T111 136T89 252Q89 300 101 356Q120 447 159 519T256 640T388 715T554 741Q698 741 779 672T861 473Q861 447 858 419T848 361ZM396 942H560L524 772H360L396 942ZM636 942H800L764 772H600L636 942Z"  />
<glyph unicode="&#xD7;" horiz-adv-x="600" d="M118 105L267 253L118 401L212 495L360 347L508 495L602 401L453 253L602 105L508 11L360 159L212 11L118 105Z"  />
<glyph unicode="&#xD8;" horiz-adv-x="796" d="M37 -32L143 82Q116 117 103 163T90 265Q90 291 92 317T101 371Q120 462 160 531T259 647T393 717T558 741Q603 741 649 733T726 707L818 809L894 745L804 646Q831 611 844 565T858 463Q858 411 846 353Q827 264 787 195T687 77T554 4T393 -21Q349 -21 303 -12T223 18L117 -100L37 -32ZM433 170Q459 170 479 180T516 214T545 277T569 374L573 396L381 187Q395 170 433 170ZM565 536Q548 551 513 551Q464 551 438 513Q421 490 407 450T381 361Q379 353 379 348T377 335L565 536Z"  />
<glyph unicode="&#xD9;" horiz-adv-x="778" d="M790 270Q773 190 740 135T657 45T542 -5T396 -21Q349 -21 295 -13T195 17T119 76T89 171Q89 201 98 243L199 722H486L388 257Q384 240 384 224Q384 176 429 176Q458 176 478 196T506 253L605 722H886L790 270ZM371 942H603L665 772H489L371 942Z"  />
<glyph unicode="&#xDA;" horiz-adv-x="778" d="M790 270Q773 190 740 135T657 45T542 -5T396 -21Q349 -21 295 -13T195 17T119 76T89 171Q89 201 98 243L199 722H486L388 257Q384 240 384 224Q384 176 429 176Q458 176 478 196T506 253L605 722H886L790 270ZM583 942H815L625 772H449L583 942Z"  />
<glyph unicode="&#xDB;" horiz-adv-x="778" d="M790 270Q773 190 740 135T657 45T542 -5T396 -21Q349 -21 295 -13T195 17T119 76T89 171Q89 201 98 243L199 722H486L388 257Q384 240 384 224Q384 176 429 176Q458 176 478 196T506 253L605 722H886L790 270ZM568 848L508 772H326L476 942H700L778 772H596L568 848Z"  />
<glyph unicode="&#xDC;" horiz-adv-x="778" d="M790 270Q773 190 740 135T657 45T542 -5T396 -21Q349 -21 295 -13T195 17T119 76T89 171Q89 201 98 243L199 722H486L388 257Q384 240 384 224Q384 176 429 176Q458 176 478 196T506 253L605 722H886L790 270ZM386 942H550L514 772H350L386 942ZM626 942H790L754 772H590L626 942Z"  />
<glyph unicode="&#xDD;" horiz-adv-x="740" d="M566 250L513 0H228L281 250L135 722H425L464 419L629 722H911L566 250ZM564 942H796L606 772H430L564 942Z"  />
<glyph unicode="&#xDE;" horiz-adv-x="740" d="M204 722H491L467 609H564Q598 609 622 608T664 604T696 597T726 585Q768 565 789 521T811 421Q811 389 804 357T784 297T753 244T714 203Q665 163 602 148T472 132H366L338 0H51L204 722ZM414 296Q470 296 502 316T534 393Q534 450 458 450H433L400 296H414Z"  />
<glyph unicode="&#xDF;" horiz-adv-x="758" d="M142 506Q155 567 181 611T251 684T358 727T507 741Q644 741 720 701T796 589Q796 542 771 512T706 451Q700 447 691 441T673 428T658 412T651 394Q651 385 664 372T720 328Q756 302 772 270T789 200Q789 143 767 102T706 33T618 -6T511 -19Q424 -19 376 12T327 116Q327 140 333 169H506Q504 164 504 160T504 150Q504 120 529 120Q547 120 557 135T567 168Q567 179 558 193T518 232L474 265Q440 290 425 312T410 361Q410 398 428 428T477 479Q486 485 500 495T529 517T553 544T563 573Q563 593 545 605T499 617Q452 617 422 582T378 480L276 0H35L142 506Z"  />
<glyph unicode="&#xE0;" horiz-adv-x="592" d="M382 223Q375 224 371 224T361 225Q343 225 325 222T291 210T267 187T257 150Q257 115 303 115Q333 115 351 133T377 197L382 223ZM553 0H341L348 53Q312 18 275 3T188 -13Q116 -13 79 22T41 112Q41 176 70 216T146 278T247 309T355 318Q363 318 374 318T399 317L409 360Q410 365 410 373Q410 400 371 400Q347 400 334 389T314 352H115V353Q120 376 133 399T165 440Q237 513 404 513Q436 513 475 510T549 495T607 459T631 392Q631 377 629 362T623 330L553 0ZM361 552L243 722H478L538 552H361Z"  />
<glyph unicode="&#xE1;" horiz-adv-x="592" d="M382 223Q375 224 371 224T361 225Q343 225 325 222T291 210T267 187T257 150Q257 115 303 115Q333 115 351 133T377 197L382 223ZM553 0H341L348 53Q312 18 275 3T188 -13Q116 -13 79 22T41 112Q41 176 70 216T146 278T247 309T355 318Q363 318 374 318T399 317L409 360Q410 365 410 373Q410 400 371 400Q347 400 334 389T314 352H115V353Q120 376 133 399T165 440Q237 513 404 513Q436 513 475 510T549 495T607 459T631 392Q631 377 629 362T623 330L553 0ZM434 722H666L476 552H300L434 722Z"  />
<glyph unicode="&#xE2;" horiz-adv-x="592" d="M382 223Q375 224 371 224T361 225Q343 225 325 222T291 210T267 187T257 150Q257 115 303 115Q333 115 351 133T377 197L382 223ZM553 0H341L348 53Q312 18 275 3T188 -13Q116 -13 79 22T41 112Q41 176 70 216T146 278T247 309T355 318Q363 318 374 318T399 317L409 360Q410 365 410 373Q410 400 371 400Q347 400 334 389T314 352H115V353Q120 376 133 399T165 440Q237 513 404 513Q436 513 475 510T549 495T607 459T631 392Q631 377 629 362T623 330L553 0ZM422 628L362 552H180L330 722H554L632 552H450L422 628Z"  />
<glyph unicode="&#xE3;" horiz-adv-x="592" d="M382 223Q375 224 371 224T361 225Q343 225 325 222T291 210T267 187T257 150Q257 115 303 115Q333 115 351 133T377 197L382 223ZM553 0H341L348 53Q312 18 275 3T188 -13Q116 -13 79 22T41 112Q41 176 70 216T146 278T247 309T355 318Q363 318 374 318T399 317L409 360Q410 365 410 373Q410 400 371 400Q347 400 334 389T314 352H115V353Q120 376 133 399T165 440Q237 513 404 513Q436 513 475 510T549 495T607 459T631 392Q631 377 629 362T623 330L553 0ZM657 716Q640 638 600 595T483 552Q465 552 445 557T404 569T367 580T340 586Q321 586 315 558H191L195 577Q209 640 250 681T352 722Q373 722 396 717T439 705T477 694T504 688Q513 688 521 695T533 716H657Z"  />
<glyph unicode="&#xE4;" horiz-adv-x="592" d="M382 223Q375 224 371 224T361 225Q343 225 325 222T291 210T267 187T257 150Q257 115 303 115Q333 115 351 133T377 197L382 223ZM553 0H341L348 53Q312 18 275 3T188 -13Q116 -13 79 22T41 112Q41 176 70 216T146 278T247 309T355 318Q363 318 374 318T399 317L409 360Q410 365 410 373Q410 400 371 400Q347 400 334 389T314 352H115V353Q120 376 133 399T165 440Q237 513 404 513Q436 513 475 510T549 495T607 459T631 392Q631 377 629 362T623 330L553 0ZM240 722H404L368 552H204L240 722ZM480 722H644L608 552H444L480 722Z"  />
<glyph unicode="&#xE5;" horiz-adv-x="592" d="M382 223Q375 224 371 224T361 225Q343 225 325 222T291 210T267 187T257 150Q257 115 303 115Q333 115 351 133T377 197L382 223ZM553 0H341L348 53Q312 18 275 3T188 -13Q116 -13 79 22T41 112Q41 176 70 216T146 278T247 309T355 318Q363 318 374 318T399 317L409 360Q410 365 410 373Q410 400 371 400Q347 400 334 389T314 352H115V353Q120 376 133 399T165 440Q237 513 404 513Q436 513 475 510T549 495T607 459T631 392Q631 377 629 362T623 330L553 0ZM312 681Q318 708 333 732T370 773T418 801T471 812Q498 812 519 802T555 774T575 732T574 681Q568 654 553 630T516 589T468 561T415 550Q388 550 367 560T331 588T312 630T312 681ZM400 681Q396 663 406 651T434 638Q452 638 467 650T486 681Q490 699 480 711T452 724Q434 724 419 712T400 681Z"  />
<glyph unicode="&#xE6;" horiz-adv-x="906" d="M907 163Q896 115 870 81T806 26T722 -6T626 -17Q560 -17 508 0T433 54Q411 34 389 21T342 -1T288 -13T224 -17Q135 -17 88 21T41 121Q41 163 60 202T116 266Q142 283 174 293T241 307T314 313T389 314H397L404 341Q409 361 409 373Q409 409 369 409Q346 409 331 396T313 353H115Q121 395 142 426T197 479T275 510T372 520Q431 520 477 506T546 463Q625 520 725 520Q829 520 886 466T943 316Q943 290 939 263T925 207H578Q574 188 573 178T572 160Q572 104 624 104Q651 104 672 119T699 163H907ZM733 314Q736 326 737 333T738 346Q738 399 687 399Q656 399 635 379T605 320L603 314H733ZM380 221Q372 222 368 222T359 222Q342 222 324 219T291 209T266 187T256 152Q256 134 268 124T301 113Q332 113 349 133T376 199L380 221Z"  />
<glyph unicode="&#xE7;" horiz-adv-x="630" d="M270 -12Q225 -7 189 6T126 41T86 97T71 174Q71 209 80 253Q106 378 195 447T425 517Q482 517 528 506T606 474T655 421T673 350Q673 327 667 302V301H444Q447 315 448 326T449 346Q449 390 410 390Q388 390 374 379T350 345T333 293T317 225Q313 208 310 191T306 157Q306 137 315 124T350 110Q368 110 380 120T402 144T416 175T424 206H651Q637 144 608 103T539 36T450 -1T349 -14L317 -56H319Q324 -54 332 -54T348 -53Q387 -53 410 -75T425 -138Q420 -163 405 -183T367 -216T316 -237T256 -244Q217 -244 182 -237T124 -216L164 -152Q184 -163 205 -169T247 -176Q267 -176 285 -167T306 -142Q309 -128 298 -122T272 -115Q259 -115 240 -122L208 -92L270 -12Z"  />
<glyph unicode="&#xE8;" horiz-adv-x="630" d="M455 315Q460 338 460 353Q460 373 449 385T409 398Q368 398 351 375T325 315H455ZM302 208V207Q299 193 297 182T294 156Q294 133 306 120T348 106Q403 106 423 164H633Q630 152 623 139T607 112T587 86T567 65Q522 23 465 4T319 -16Q204 -16 138 32T71 181Q71 262 97 325T172 431T286 497T432 520Q552 520 608 468T665 322Q665 293 660 265T649 208H302ZM370 552L252 722H487L547 552H370Z"  />
<glyph unicode="&#xE9;" horiz-adv-x="630" d="M455 315Q460 338 460 353Q460 373 449 385T409 398Q368 398 351 375T325 315H455ZM302 208V207Q299 193 297 182T294 156Q294 133 306 120T348 106Q403 106 423 164H633Q630 152 623 139T607 112T587 86T567 65Q522 23 465 4T319 -16Q204 -16 138 32T71 181Q71 262 97 325T172 431T286 497T432 520Q552 520 608 468T665 322Q665 293 660 265T649 208H302ZM443 722H675L485 552H309L443 722Z"  />
<glyph unicode="&#xEA;" horiz-adv-x="630" d="M455 315Q460 338 460 353Q460 373 449 385T409 398Q368 398 351 375T325 315H455ZM302 208V207Q299 193 297 182T294 156Q294 133 306 120T348 106Q403 106 423 164H633Q630 152 623 139T607 112T587 86T567 65Q522 23 465 4T319 -16Q204 -16 138 32T71 181Q71 262 97 325T172 431T286 497T432 520Q552 520 608 468T665 322Q665 293 660 265T649 208H302ZM454 628L394 552H212L362 722H586L664 552H482L454 628Z"  />
<glyph unicode="&#xEB;" horiz-adv-x="630" d="M455 315Q460 338 460 353Q460 373 449 385T409 398Q368 398 351 375T325 315H455ZM302 208V207Q299 193 297 182T294 156Q294 133 306 120T348 106Q403 106 423 164H633Q630 152 623 139T607 112T587 86T567 65Q522 23 465 4T319 -16Q204 -16 138 32T71 181Q71 262 97 325T172 431T286 497T432 520Q552 520 608 468T665 322Q665 293 660 265T649 208H302ZM272 722H436L400 552H236L272 722ZM512 722H676L640 552H476L512 722Z"  />
<glyph unicode="&#xEC;" horiz-adv-x="314" d="M142 500H384L278 0H36L142 500ZM212 552L94 722H329L389 552H212Z"  />
<glyph unicode="&#xED;" horiz-adv-x="314" d="M142 500H384L278 0H36L142 500ZM285 722H517L327 552H151L285 722Z"  />
<glyph unicode="&#xEE;" horiz-adv-x="314" d="M142 500H384L278 0H36L142 500ZM290 628L230 552H48L198 722H422L500 552H318L290 628Z"  />
<glyph unicode="&#xEF;" horiz-adv-x="314" d="M142 500H384L278 0H36L142 500ZM108 722H272L236 552H72L108 722ZM348 722H512L476 552H312L348 722Z"  />
<glyph unicode="&#xF0;" horiz-adv-x="666" d="M337 -18Q274 -18 226 -3T145 39T96 103T79 187Q79 252 103 305T167 397T258 456T366 477Q395 477 423 471T471 450Q468 482 453 507T399 562L282 506L201 562L313 613Q306 617 301 620T288 627T271 635T244 645L376 769Q398 762 413 756T443 743T471 727T506 705L631 763L699 700L586 648Q644 598 672 532T700 386Q700 357 697 328T686 267Q657 127 570 55T337 -18ZM356 115Q370 115 381 120T401 138T418 175T434 235Q443 275 443 301Q443 346 406 346Q392 346 381 342T361 324T344 289T329 233Q318 183 318 158Q318 135 327 125T356 115Z"  />
<glyph unicode="&#xF1;" horiz-adv-x="648" d="M612 0H370L435 307Q438 319 438 329Q438 366 404 366Q376 366 363 346T345 303L281 0H37L143 500H376L366 426Q404 474 447 495T547 516Q577 516 603 510T649 489T679 451T690 395Q690 373 686 350T676 303L612 0ZM693 716Q676 638 636 595T519 552Q501 552 481 557T440 569T403 580T376 586Q357 586 351 558H227L231 577Q245 640 286 681T388 722Q409 722 432 717T475 705T513 694T540 688Q549 688 557 695T569 716H693Z"  />
<glyph unicode="&#xF2;" horiz-adv-x="666" d="M444 259Q454 305 454 335Q454 363 445 375T416 387Q381 387 364 352T334 259Q327 229 323 205T319 163Q319 140 327 129T357 117Q377 117 391 129T414 160T431 205T444 259ZM694 252Q678 176 644 125T562 43T454 -2T325 -16Q270 -16 224 -4T143 34T90 97T71 186Q71 201 72 217T78 251Q93 320 125 371T202 455T305 504T428 521Q486 521 536 510T622 474T680 411T701 319Q701 286 694 252ZM378 552L260 722H495L555 552H378Z"  />
<glyph unicode="&#xF3;" horiz-adv-x="666" d="M444 259Q454 305 454 335Q454 363 445 375T416 387Q381 387 364 352T334 259Q327 229 323 205T319 163Q319 140 327 129T357 117Q377 117 391 129T414 160T431 205T444 259ZM694 252Q678 176 644 125T562 43T454 -2T325 -16Q270 -16 224 -4T143 34T90 97T71 186Q71 201 72 217T78 251Q93 320 125 371T202 455T305 504T428 521Q486 521 536 510T622 474T680 411T701 319Q701 286 694 252ZM471 722H703L513 552H337L471 722Z"  />
<glyph unicode="&#xF4;" horiz-adv-x="666" d="M444 259Q454 305 454 335Q454 363 445 375T416 387Q381 387 364 352T334 259Q327 229 323 205T319 163Q319 140 327 129T357 117Q377 117 391 129T414 160T431 205T444 259ZM694 252Q678 176 644 125T562 43T454 -2T325 -16Q270 -16 224 -4T143 34T90 97T71 186Q71 201 72 217T78 251Q93 320 125 371T202 455T305 504T428 521Q486 521 536 510T622 474T680 411T701 319Q701 286 694 252ZM466 628L406 552H224L374 722H598L676 552H494L466 628Z"  />
<glyph unicode="&#xF5;" horiz-adv-x="666" d="M444 259Q454 305 454 335Q454 363 445 375T416 387Q381 387 364 352T334 259Q327 229 323 205T319 163Q319 140 327 129T357 117Q377 117 391 129T414 160T431 205T444 259ZM694 252Q678 176 644 125T562 43T454 -2T325 -16Q270 -16 224 -4T143 34T90 97T71 186Q71 201 72 217T78 251Q93 320 125 371T202 455T305 504T428 521Q486 521 536 510T622 474T680 411T701 319Q701 286 694 252ZM701 716Q684 638 644 595T527 552Q509 552 489 557T448 569T411 580T384 586Q365 586 359 558H235L239 577Q253 640 294 681T396 722Q417 722 440 717T483 705T521 694T548 688Q557 688 565 695T577 716H701Z"  />
<glyph unicode="&#xF6;" horiz-adv-x="666" d="M444 259Q454 305 454 335Q454 363 445 375T416 387Q381 387 364 352T334 259Q327 229 323 205T319 163Q319 140 327 129T357 117Q377 117 391 129T414 160T431 205T444 259ZM694 252Q678 176 644 125T562 43T454 -2T325 -16Q270 -16 224 -4T143 34T90 97T71 186Q71 201 72 217T78 251Q93 320 125 371T202 455T305 504T428 521Q486 521 536 510T622 474T680 411T701 319Q701 286 694 252ZM284 722H448L412 552H248L284 722ZM524 722H688L652 552H488L524 722Z"  />
<glyph unicode="&#xF7;" horiz-adv-x="600" d="M100 321H606V185H100V321ZM262 46Q262 84 288 110T353 137Q391 137 417 111T444 46Q444 8 418 -18T353 -45Q315 -45 289 -19T262 46ZM262 460Q262 498 288 524T353 551Q391 551 417 525T444 460Q444 422 418 396T353 369Q315 369 289 395T262 460Z"  />
<glyph unicode="&#xF8;" horiz-adv-x="666" d="M46 -32L125 50Q72 103 72 192Q72 269 98 330T171 433T281 498T419 521Q459 521 500 516T573 499L660 585L721 531L646 455Q673 429 686 393T699 314Q699 281 691 241Q664 113 576 49T325 -16Q290 -16 256 -11T195 6L105 -89L46 -32ZM459 383Q445 397 419 397Q399 397 384 389T357 363T335 314T316 239L459 383ZM355 116Q393 116 416 146T454 248L458 267L320 128Q332 116 355 116Z"  />
<glyph unicode="&#xF9;" horiz-adv-x="648" d="M611 0H378L389 74Q351 26 308 5T208 -16Q178 -16 152 -10T106 11T76 49T65 105Q65 127 69 150T78 197L142 500H384L319 193Q316 181 316 171Q316 134 350 134Q379 134 391 154T409 198L473 500H717L611 0ZM359 552L241 722H476L536 552H359Z"  />
<glyph unicode="&#xFA;" horiz-adv-x="648" d="M611 0H378L389 74Q351 26 308 5T208 -16Q178 -16 152 -10T106 11T76 49T65 105Q65 127 69 150T78 197L142 500H384L319 193Q316 181 316 171Q316 134 350 134Q379 134 391 154T409 198L473 500H717L611 0ZM452 722H684L494 552H318L452 722Z"  />
<glyph unicode="&#xFB;" horiz-adv-x="648" d="M611 0H378L389 74Q351 26 308 5T208 -16Q178 -16 152 -10T106 11T76 49T65 105Q65 127 69 150T78 197L142 500H384L319 193Q316 181 316 171Q316 134 350 134Q379 134 391 154T409 198L473 500H717L611 0ZM457 628L397 552H215L365 722H589L667 552H485L457 628Z"  />
<glyph unicode="&#xFC;" horiz-adv-x="648" d="M611 0H378L389 74Q351 26 308 5T208 -16Q178 -16 152 -10T106 11T76 49T65 105Q65 127 69 150T78 197L142 500H384L319 193Q316 181 316 171Q316 134 350 134Q379 134 391 154T409 198L473 500H717L611 0ZM275 722H439L403 552H239L275 722ZM515 722H679L643 552H479L515 722Z"  />
<glyph unicode="&#xFD;" horiz-adv-x="630" d="M355 -192H94L198 -15L103 500H361L373 226L499 500H740L355 -192ZM453 722H685L495 552H319L453 722Z"  />
<glyph unicode="&#xFE;" horiz-adv-x="666" d="M428 722L368 442Q438 516 533 516Q613 516 654 465T695 325Q695 302 692 278T684 228Q658 107 596 45T438 -17Q390 -17 353 -4T293 44L243 -192H-1L192 722H428ZM409 372Q394 372 384 368T365 352T350 317T334 256Q323 203 323 177Q323 148 333 138T363 127Q377 127 388 131T408 148T426 184T442 246Q451 289 451 318Q451 347 441 359T409 372Z"  />
<glyph unicode="&#xFF;" horiz-adv-x="630" d="M355 -192H94L198 -15L103 500H361L373 226L499 500H740L355 -192ZM276 722H440L404 552H240L276 722ZM516 722H680L644 552H480L516 722Z"  />
<glyph unicode="&#x131;" horiz-adv-x="314" d="M142 500H384L278 0H36L142 500Z"  />
<glyph unicode="&#x152;" horiz-adv-x="962" d="M1050 532H826L809 454H1010L971 271H770L752 188H976L937 0H518Q503 0 480 -1T432 -2T386 -4T352 -5Q287 -5 239 16T160 74T113 162T97 273Q97 331 110 392Q147 567 257 646T538 725Q541 725 555 725T592 724T642 723T697 722H1090L1050 532ZM557 543Q543 551 533 553T509 556Q485 556 467 549T434 521T406 463T380 366Q364 293 364 248Q364 201 381 184T432 167Q445 167 456 169T480 179L557 543Z"  />
<glyph unicode="&#x153;" horiz-adv-x="944" d="M298 -19Q244 -19 202 -3T130 42T85 111T70 199Q70 275 95 335T165 436T272 499T408 521Q513 521 570 465Q610 494 654 507T754 521Q811 521 854 506T926 463T969 397T984 313Q984 261 966 206H620Q615 180 614 171T612 157Q612 102 665 102Q691 102 713 114T740 162H950Q937 112 911 78T847 22T762 -9T657 -19Q597 -19 559 -6T490 44Q452 11 404 -4T298 -19ZM345 118Q361 118 373 124T395 146T413 189T431 257Q441 303 441 334Q441 387 400 387Q364 387 345 354T311 250Q302 208 302 179Q302 118 345 118ZM773 313Q776 328 777 335T778 348Q778 397 727 397Q696 397 676 377T647 321L645 313H773Z"  />
<glyph unicode="&#x160;" horiz-adv-x="722" d="M790 519H535Q537 525 537 530T537 541Q537 564 525 573T485 582Q473 582 460 579T435 569T416 552T409 526Q409 512 419 504T446 489T484 477T529 466L614 442Q686 420 721 373T757 262Q757 182 723 128T633 41T509 -6T370 -21Q313 -21 258 -12T159 18T88 75T61 165Q61 180 63 195T68 225H340Q335 207 335 191Q335 142 395 142Q409 142 424 147T451 161T471 184T479 213Q479 226 471 234T449 249T420 259T388 269L303 296Q228 319 181 361T134 473Q134 553 168 605T256 687T379 729T515 741Q566 741 616 734T706 708T771 656T796 572Q796 560 795 547T791 520L790 519ZM332 942H514L542 866L602 942H784L634 772H410L332 942Z"  />
<glyph unicode="&#x161;" horiz-adv-x="592" d="M420 350Q422 356 423 362T424 374Q424 407 382 407Q359 407 341 396T323 359Q323 341 344 336T411 322L458 314Q484 309 510 300T558 275T593 236T607 181Q607 116 579 77T507 16T409 -12T302 -19Q257 -19 213 -13T132 8T74 51T52 123Q52 143 56 162H277Q274 147 274 136Q274 94 318 94Q343 94 361 107T379 147Q379 168 355 176T283 191L260 194Q176 205 138 240T100 325Q100 386 127 424T198 483T294 511T397 519Q511 519 571 485T632 385Q632 366 628 350H420ZM222 722H404L432 646L492 722H674L524 552H300L222 722Z"  />
<glyph unicode="&#x178;" horiz-adv-x="740" d="M566 250L513 0H228L281 250L135 722H425L464 419L629 722H911L566 250ZM378 942H542L506 772H342L378 942ZM618 942H782L746 772H582L618 942Z"  />
<glyph unicode="&#x17D;" horiz-adv-x="685" d="M772 549L394 188H702L662 0H23L60 174L438 534H146L185 722H808L772 549ZM312 942H494L522 866L582 942H764L614 772H390L312 942Z"  />
<glyph unicode="&#x17E;" horiz-adv-x="536" d="M568 343L370 162H546L512 0H25L55 139L272 340H111L145 500H601L568 343ZM196 722H378L406 646L466 722H648L498 552H274L196 722Z"  />
<glyph unicode="&#x192;" horiz-adv-x="704" d="M197 431H332L387 575Q422 668 481 704T627 741Q665 741 704 736T772 722L714 568Q703 573 691 575T667 577Q631 577 615 536L574 431H679L644 267H509L391 -37Q370 -91 341 -123T278 -174T209 -198T141 -204Q109 -204 73 -197T8 -176L62 -29Q70 -34 81 -37T107 -40Q127 -40 143 -26T172 22L267 267H162L197 431Z"  />
<glyph unicode="&#x2C6;" horiz-adv-x="278" d="M272 628L212 552H30L180 722H404L482 552H300L272 628Z"  />
<glyph unicode="&#x2C7;" horiz-adv-x="278" d="M66 722H248L276 646L336 722H518L368 552H144L66 722Z"  />
<glyph unicode="&#x2DA;" horiz-adv-x="278" d="M152 681Q158 708 173 732T210 773T258 801T311 812Q338 812 359 802T395 774T415 732T414 681Q408 654 393 630T356 589T308 561T255 550Q228 550 207 560T171 588T152 630T152 681ZM240 681Q236 663 246 651T274 638Q292 638 307 650T326 681Q330 699 320 711T292 724Q274 724 259 712T240 681Z"  />
<glyph unicode="&#x2DC;" horiz-adv-x="278" d="M507 716Q490 638 450 595T333 552Q315 552 295 557T254 569T217 580T190 586Q171 586 165 558H41L45 577Q59 640 100 681T202 722Q223 722 246 717T289 705T327 694T354 688Q363 688 371 695T383 716H507Z"  />
<glyph unicode="&#x2013;" horiz-adv-x="500" d="M74 352H574L538 182H38L74 352Z"  />
<glyph unicode="&#x2014;" horiz-adv-x="1000" d="M74 352H1074L1038 182H38L74 352Z"  />
<glyph unicode="&#x2018;" horiz-adv-x="352" d="M288 722H482L344 422H112L288 722Z"  />
<glyph unicode="&#x2019;" horiz-adv-x="352" d="M250 722H482L306 422H112L250 722Z"  />
<glyph unicode="&#x201A;" horiz-adv-x="352" d="M140 206H372L197 -94H3L140 206Z"  />
<glyph unicode="&#x201C;" horiz-adv-x="592" d="M270 722H464L326 422H94L270 722ZM546 722H740L602 422H370L546 722Z"  />
<glyph unicode="&#x201D;" horiz-adv-x="592" d="M508 722H740L564 422H370L508 722ZM232 722H464L288 422H94L232 722Z"  />
<glyph unicode="&#x201E;" horiz-adv-x="592" d="M398 206H630L455 -94H261L398 206ZM122 206H354L179 -94H-14L122 206Z"  />
<glyph unicode="&#x2020;" horiz-adv-x="704" d="M336 412H174L209 576H371L402 722H608L577 576H739L704 412H542L455 0H249L336 412Z"  />
<glyph unicode="&#x2021;" horiz-adv-x="704" d="M279 116H111L144 270H312L351 452H183L215 606H383L408 722H602L577 606H745L713 452H545L506 270H674L641 116H473L449 0H255L279 116Z"  />
<glyph unicode="&#x2022;" horiz-adv-x="500" d="M490 360Q490 322 476 290T437 232T379 193T309 179Q271 179 239 193T181 232T142 289T128 360Q128 397 142 430T181 488T238 527T309 541Q346 541 379 527T437 488T476 430T490 360Z"  />
<glyph unicode="&#x2026;" horiz-adv-x="1000" d="M89 206H331L288 0H46L89 206ZM422 206H664L621 0H379L422 206ZM755 206H997L954 0H712L755 206Z"  />
<glyph unicode="&#x2030;" horiz-adv-x="1166" d="M111 509Q133 616 187 678T337 741Q374 741 401 727T443 686T462 619T454 525Q443 471 424 428T378 355T313 309T228 293Q191 293 164 307T122 348T103 415T111 509ZM248 517Q240 480 237 457T235 421T241 404T257 399Q267 399 274 403T288 421T301 457T316 517Q324 554 327 577T329 613T323 630T307 635Q297 635 290 631T276 613T263 577T248 517ZM492 197Q515 304 569 366T719 429Q756 429 783 415T825 374T844 307T836 213Q813 106 759 44T609 -19Q572 -19 545 -5T503 36T484 103T492 197ZM630 205Q622 168 619 145T617 109T623 92T639 87Q649 87 656 91T670 109T683 145T698 205Q706 242 709 265T711 301T705 318T689 323Q679 323 672 319T658 301T645 265T630 205ZM864 197Q887 304 941 366T1091 429Q1128 429 1155 415T1197 374T1216 307T1208 213Q1185 106 1131 44T981 -19Q944 -19 917 -5T875 36T856 103T864 197ZM1002 205Q994 168 991 145T989 109T995 92T1011 87Q1021 87 1028 91T1042 109T1055 145T1070 205Q1078 242 1081 265T1083 301T1077 318T1061 323Q1051 323 1044 319T1030 301T1017 265T1002 205ZM702 747H808L241 -25H135L702 747Z"  />
<glyph unicode="&#x2039;" horiz-adv-x="352" d="M56 250L261 500H455L294 250L349 0H155L56 250Z"  />
<glyph unicode="&#x203A;" horiz-adv-x="352" d="M109 500H303L402 250L197 0H3L164 250L109 500Z"  />
<glyph unicode="&#x20AC;" horiz-adv-x="704" d="M741 209Q728 149 695 106T614 36T510 -5T393 -19Q325 -19 276 -2T194 49T147 129T131 234H59L105 327H139L150 381H90L136 474H182Q233 590 326 657T553 725Q613 725 664 714T751 676T801 608T804 505H556Q563 546 552 558T521 570Q495 570 477 545T444 474H609L563 381H421L410 327H536L490 234H394Q389 189 395 163T428 136Q449 136 465 151T493 209H741Z"  />
<glyph unicode="&#x2122;" horiz-adv-x="1000" d="M884 366V627L805 366H726L647 627V366H548V722H708L765 532L822 722H982V366H884ZM415 639V366H309V639H206V722H518V639H415Z"  />

</font>
</defs>
</svg>
