<?xml  version="1.0" encoding="UTF-8"?>
<!DOCTYPE svg PUBLIC "-//W3C//DTD SVG 1.0//EN" "http://www.w3.org/TR/2001/REC-SVG-20010904/DTD/svg10.dtd" >
<svg xmlns="http://www.w3.org/2000/svg" >
<metadata>
<version>1.0</version>
<id><![CDATA[Bembo MT W01 Semibold]]></id>
<vendor>Monotype Imaging Inc.</vendor>
<credits>
<name>Fonts.com WebFonts</name>
<URL>http://webfonts.fonts.com</URL>
<role>Home of the Web fonts</role>
</credits>
<license>
<URL>http://webfonts.fonts.com/Legal</URL>
</license>
<copyright><![CDATA[Font software Copyright 1990, 2002 Adobe Systems Incorporated. Type design Copyright 1990, 2002 The Monotype Corporation. All rights reserved.]]></copyright>
<trademark><![CDATA["Bembo is a registered trademark of The Monotype Corporation in the United States and/or other countries; MT is a trademark of Monotype Imaging; Inc. Registered in U.S. Patent & Trademark Office and may be registered in certain other jurisdictions."]]></trademark>
<licensee>
<name></name>
</licensee>
</metadata>
<defs >
<font horiz-adv-x="544" id="0e37fa2e-9534-4cd7-899a-551d26005630">
<font-face font-family="" panose-1="2 2 7 3 5 4 5 2 3 4" ascent="868" descent="-249" units-per-em="1000" alphabetic="0">
</font-face>
<missing-glyph horiz-adv-x="0" />

<glyph unicode="&#xA;" />
<glyph unicode="&#xD;" horiz-adv-x="0" />
<glyph unicode=" " horiz-adv-x="333" />
<glyph unicode="!" horiz-adv-x="289" d="M86 619Q86 625 86 628T85 635Q85 646 91 648T119 651H170Q191 651 197 649T203 635Q203 632 203 627T202 619L157 194H132L86 619ZM145 102Q174 102 192 86T211 44Q211 18 193 4T145 -11Q114 -11 96 3T78 44Q78 70 97 86T145 102Z"  />
<glyph unicode="&quot;" horiz-adv-x="555" d="M323 517Q319 534 317 551T314 581Q314 607 328 622T366 638Q389 638 404 623T420 585Q420 576 417 558T409 517L377 374H357L323 517ZM144 517Q140 534 138 551T135 581Q135 607 149 622T187 638Q210 638 225 623T241 585Q241 576 238 558T230 517L198 374H178L144 517Z"  />
<glyph unicode="#" horiz-adv-x="668" d="M199 477L241 671H311L269 477H464L505 671H575L534 477H626V407H521L485 236H626V166H471L430 -27H360L401 166H205L164 -27H94L135 166H42V236H149L185 407H42V477H199ZM219 236H415L451 407H255L219 236Z"  />
<glyph unicode="$" horiz-adv-x="486" d="M177 293Q110 335 82 371T54 454Q54 505 85 539T177 587V649H200V590Q217 592 236 592T278 590V649H301V587Q355 576 391 549T427 489Q427 472 416 461T388 449Q373 449 364 458T345 482T326 512T301 540V336Q342 312 370 291T416 247T441 202T449 151Q449 91 410 50T301 -6V-100H278V-9L252 -12H228Q223 -12 216 -12T200 -10V-100H177V-6Q148 -1 123 10T78 37T48 71T37 108Q37 126 50 139T81 153Q101 153 109 140T123 107T140 66T177 31V293ZM200 21Q216 15 239 15T278 21V231L200 278V21ZM301 27Q331 41 347 64T364 116Q364 174 301 216V27ZM278 556Q264 563 244 565T200 564V396L278 349V556ZM177 557Q131 535 131 490Q131 446 177 413V557Z"  />
<glyph unicode="%" horiz-adv-x="775" d="M94 467Q94 428 96 400T104 353T121 326T151 317Q169 317 180 325T197 352T205 398T207 467Q207 545 197 581T151 618Q116 618 105 584T94 467ZM24 467Q24 504 33 535T60 589T100 625T151 638Q178 638 201 625T241 590T267 536T277 467Q277 430 268 399T241 346T201 310T150 297Q123 297 100 310T60 345T34 399T24 467ZM569 638H630L194 -39H133L569 638ZM498 141Q498 178 507 209T534 263T574 299T625 312Q652 312 675 299T715 264T741 210T751 141Q751 104 742 73T715 20T675 -16T624 -29Q597 -29 574 -16T534 19T508 73T498 141ZM568 141Q568 102 570 74T578 27T595 0T625 -9Q643 -9 654 -1T671 26T679 72T681 141Q681 219 671 255T625 292Q590 292 579 258T568 141Z"  />
<glyph unicode="&amp;" horiz-adv-x="739" d="M699 37Q655 8 623 -4T559 -16Q538 -16 520 -11T486 8T455 42T421 94Q308 -16 203 -16Q167 -16 136 -3T82 32T46 85T33 151Q33 213 74 256T205 333Q170 359 150 393T130 463Q130 519 172 550T288 582Q353 582 389 557T426 487Q426 450 399 421T310 361Q357 329 399 285T474 190Q531 266 558 310T586 374Q586 385 574 389T527 395V420H727V395Q683 396 664 392T634 376Q626 368 613 346T580 294T538 231T489 167Q513 132 527 106T552 61T576 34T607 25Q624 25 645 33T687 57L699 37ZM406 119Q392 146 370 173T323 227T272 275T225 314Q180 286 158 250T135 171Q135 145 144 123T169 83T209 56T260 46Q295 46 333 65T406 119ZM289 379Q345 420 345 475Q345 509 326 531T277 554Q249 554 232 536T214 490Q214 476 217 464T229 440T252 413T289 379Z"  />
<glyph unicode="&apos;" horiz-adv-x="278" d="M95 517Q91 534 89 551T86 581Q86 607 100 622T138 638Q161 638 176 623T192 585Q192 576 189 558T181 517L149 374H129L95 517Z"  />
<glyph unicode="(" horiz-adv-x="351" d="M340 657Q291 602 260 547T211 436T186 327T179 219Q179 162 187 105T213 -7T263 -115T340 -219H296Q253 -180 214 -133T144 -30T95 88T77 219Q77 335 129 447T296 657H340Z"  />
<glyph unicode=")" horiz-adv-x="351" d="M11 -219Q60 -164 91 -109T140 2T165 111T172 219Q172 276 164 333T138 445T88 553T11 657H55Q98 618 137 571T207 468T256 350T274 219Q274 103 222 -9T55 -219H11Z"  />
<glyph unicode="*" horiz-adv-x="514" d="M135 240L105 260L173 410L33 492L42 525L206 506L239 671H274L307 506L470 525L480 492L339 410L407 260L377 240L256 350L135 240Z"  />
<glyph unicode="+" horiz-adv-x="667" d="M300 315V513H367V315H565V248H367V50H300V248H102V315H300Z"  />
<glyph unicode="&#x2c;" horiz-adv-x="289" d="M78 -129Q117 -110 138 -87T159 -39Q159 -23 146 -23Q142 -23 136 -24T126 -25Q101 -25 85 -8T68 35Q68 64 88 83T140 102Q176 102 198 76T221 8Q221 -46 186 -87T87 -148L78 -129Z"  />
<glyph unicode="-" horiz-adv-x="388" d="M27 242H360V159H27V242Z"  />
<glyph unicode="." horiz-adv-x="289" d="M145 102Q174 102 192 86T211 44Q211 18 193 4T145 -11Q114 -11 96 3T78 44Q78 70 97 86T145 102Z"  />
<glyph unicode="/" horiz-adv-x="477" d="M443 671L104 -16H34L373 671H443Z"  />
<glyph unicode="0" horiz-adv-x="514" d="M49 311Q49 363 61 420T98 526T162 606T255 638Q299 638 337 613T402 545T445 441T461 311Q461 241 446 181T403 78T337 9T255 -16Q203 -16 164 14T100 92T62 197T49 311ZM151 311Q151 236 153 180T166 85T198 28T255 9Q291 9 312 28T343 86T356 180T359 311Q359 376 357 431T346 527T315 590T255 613Q219 613 198 594T167 536T154 442T151 311Z"  />
<glyph unicode="1" horiz-adv-x="514" d="M114 27H162Q178 27 187 28T201 34T207 48T209 73V530Q194 519 180 511T152 495T122 481T87 467L76 490Q133 522 180 560T259 638H304V73Q304 45 313 36T351 27H401V0H114V27Z"  />
<glyph unicode="2" horiz-adv-x="514" d="M42 28L229 229Q283 286 308 337T333 440Q333 497 301 532T217 567Q168 567 133 535T83 443H55Q62 487 79 523T122 584T182 624T256 638Q293 638 326 624T383 586T421 530T435 462Q435 420 418 380T352 291Q344 283 328 268T290 234T244 192T196 146Q168 118 155 103T136 81H344Q368 81 383 84T408 96T423 120T432 160H457L438 0H42V28Z"  />
<glyph unicode="3" horiz-adv-x="514" d="M165 324Q197 352 219 374T256 416T277 452T284 486Q284 504 278 520T260 547T233 566T200 573Q167 573 141 553T86 487L62 496Q90 565 136 601T245 638Q273 638 297 630T338 606T365 569T375 524Q375 485 349 448T275 384V382Q350 376 389 334T428 218Q428 169 409 126T356 52T277 2T179 -16Q149 -16 122 -10T74 6T42 31T30 61Q30 79 43 91T76 104Q98 104 113 91T143 62T175 33T217 19Q251 19 273 37T307 82T324 136T329 186Q329 249 304 283T232 317Q218 317 206 315T174 305L165 324Z"  />
<glyph unicode="4" horiz-adv-x="514" d="M276 168H38V203L329 638H371V226H463V168H371V-16H276V168ZM276 226V501H274L92 226H276Z"  />
<glyph unicode="5" horiz-adv-x="514" d="M103 305L117 622H331Q347 622 360 623T386 638H407L393 541H145L139 387Q164 398 185 402T233 407Q277 407 315 392T382 349T427 285T444 206Q444 160 426 120T376 49T302 2T211 -16Q182 -16 156 -10T110 6T79 30T67 59Q67 75 77 85T105 96Q124 96 137 84T164 56T194 29T236 16Q253 16 273 24T310 51T338 98T349 168Q349 237 312 279T212 322Q189 322 168 316T122 293L103 305Z"  />
<glyph unicode="6" horiz-adv-x="514" d="M412 618Q348 591 305 558T235 487T193 411T170 333Q235 377 296 377Q333 377 364 363T418 325T453 266T466 190Q466 146 451 109T410 43T347 0T269 -16Q225 -16 187 2T121 53T76 134T59 240Q59 315 82 379T149 494T256 581T400 638L412 618ZM166 299Q163 284 162 260T161 208Q161 114 188 64T268 13Q316 13 340 58T364 191Q364 344 270 344Q246 344 222 334T166 299Z"  />
<glyph unicode="7" horiz-adv-x="514" d="M383 536H149Q129 536 118 535T100 527T91 508T84 474H55L63 622H465V591L227 -16H148L383 536Z"  />
<glyph unicode="8" horiz-adv-x="514" d="M68 476Q68 510 82 540T121 591T180 625T254 638Q293 638 327 627T386 595T425 547T440 488Q440 440 407 404T316 348Q356 327 383 308T426 267T450 222T458 169Q458 129 443 95T400 37T336 -2T254 -16Q212 -16 176 -3T113 33T71 87T56 154Q56 257 186 309Q122 345 95 383T68 476ZM145 508Q145 487 151 470T174 435T219 401T291 362Q328 388 344 419T361 492Q361 547 332 579T251 612Q228 612 209 604T176 582T153 549T145 508ZM140 155Q140 92 172 53T258 14Q283 14 304 23T340 49T365 88T374 136Q374 155 370 172T348 207T299 246T211 294Q173 265 157 233T140 155Z"  />
<glyph unicode="9" horiz-adv-x="514" d="M102 4Q166 31 209 64T279 135T321 211T344 289Q279 245 218 245Q180 245 149 258T96 297T61 356T48 432Q48 476 63 513T104 579T167 622T245 638Q289 638 327 620T393 569T438 488T455 382Q455 307 432 243T365 128T258 41T114 -16L102 4ZM348 323Q351 338 352 362T353 414Q353 508 326 558T246 609Q198 609 174 564T150 431Q150 278 244 278Q268 278 292 288T348 323Z"  />
<glyph unicode=":" horiz-adv-x="289" d="M145 413Q174 413 192 397T211 355Q211 329 193 315T145 300Q114 300 96 314T78 355Q78 381 97 397T145 413ZM145 102Q174 102 192 86T211 44Q211 18 193 4T145 -11Q114 -11 96 3T78 44Q78 70 97 86T145 102Z"  />
<glyph unicode=";" horiz-adv-x="289" d="M78 -129Q117 -110 138 -87T159 -39Q159 -23 146 -23Q142 -23 136 -24T126 -25Q101 -25 85 -8T68 35Q68 64 88 83T140 102Q176 102 198 76T221 8Q221 -46 186 -87T87 -148L78 -129ZM145 413Q174 413 192 397T211 355Q211 329 193 315T145 300Q114 300 96 314T78 355Q78 381 97 397T145 413Z"  />
<glyph unicode="&lt;" horiz-adv-x="667" d="M102 252V312L564 506V434L192 282L564 130V58L102 252Z"  />
<glyph unicode="=" horiz-adv-x="667" d="M565 416V349H102V416H565ZM565 217V150H102V217H565Z"  />
<glyph unicode="&gt;" horiz-adv-x="667" d="M103 130L476 282L103 434V506L565 312V252L103 58V130Z"  />
<glyph unicode="?" horiz-adv-x="360" d="M119 186Q98 221 89 247T79 295Q79 320 94 334T131 359T180 376T229 395T267 423T282 470Q282 504 260 524T202 545Q193 545 179 543T150 539T121 535T95 533Q43 533 43 576Q43 603 67 618T136 634Q182 634 217 617T275 573T309 513T321 448Q321 410 310 381T273 325Q250 302 225 293T179 277T145 263T131 236Q131 217 147 186H119ZM144 102Q173 102 191 86T210 44Q210 18 192 4T144 -11Q113 -11 95 3T77 44Q77 70 96 86T144 102Z"  />
<glyph unicode="@" horiz-adv-x="930" d="M565 101Q561 87 559 74T556 52Q556 38 565 29T588 19Q609 19 639 35T699 85T748 168T769 286Q769 344 749 393T693 477T607 531T497 551Q420 551 353 520T236 435T158 309T129 153Q129 80 153 19T222 -86T326 -155T460 -180Q518 -180 570 -164T667 -118T746 -45T803 53H828Q806 -7 770 -55T686 -136T581 -187T459 -205Q378 -205 310 -177T192 -100T115 18T87 168Q87 254 118 328T203 457T330 543T487 575Q564 575 621 552T717 489T775 397T794 287Q794 233 778 180T730 84T654 15T551 -11Q516 -11 496 6T475 53Q475 57 476 65T478 82T480 99T484 113L482 115Q456 77 435 53T396 14T360 -6T327 -12Q295 -12 275 14T254 83Q254 142 277 197T335 295T410 363T482 389Q534 389 545 327H547L560 375L645 384L565 101ZM529 305Q529 331 518 347T488 364Q464 364 439 334T392 262T356 175T342 101Q342 81 353 67T378 52Q390 52 404 59T438 87Q457 106 474 132T503 188T522 247T529 305Z"  />
<glyph unicode="A" horiz-adv-x="711" d="M10 27Q35 27 51 30T78 43T98 70T118 117L299 613L291 638H403L598 117Q609 88 617 70T636 43T661 30T700 27V0H403V27Q462 27 483 34T504 64Q504 72 501 84T490 117L442 241H213L164 108Q154 81 154 66Q154 44 174 35T254 27V0H10V27ZM423 291L327 544L232 291H423Z"  />
<glyph unicode="B" horiz-adv-x="649" d="M115 494Q115 519 113 538T103 569T80 588T39 595H5V622Q17 622 33 622T68 623T106 624T143 626Q157 627 175 627T211 628T246 629T276 630Q340 630 392 623T482 600T539 555T560 484Q560 435 529 401T441 356V354Q516 334 556 291T596 186Q596 148 581 115T535 56T456 15T344 0H5V27Q38 27 59 30T93 41T110 62T115 96V494ZM226 364H299Q443 364 443 473Q443 501 435 524T407 565T358 592T285 602Q269 602 256 601T226 598V364ZM226 146Q226 117 230 97T247 63T279 43T330 36Q396 36 435 76T475 184Q475 259 426 297T281 336H226V146Z"  />
<glyph unicode="C" horiz-adv-x="739" d="M642 0Q633 4 626 5T608 7Q591 7 570 4T524 -4T470 -12T409 -16Q322 -16 255 8T143 74T74 174T50 299Q50 363 72 424T139 532T253 609T417 638Q458 638 492 633T554 622T601 610T632 605Q643 605 650 612H675L680 447H650Q622 525 564 565T421 606Q365 606 319 586T240 529T189 440T171 325Q171 259 191 204T248 107T333 43T439 20Q513 20 575 57T680 167H710L642 0Z"  />
<glyph unicode="D" horiz-adv-x="784" d="M118 507Q118 534 114 551T99 578T70 591T23 595V622Q34 622 54 622T96 624T141 626T180 628Q221 630 257 630T323 630Q437 630 517 609T644 542Q691 495 710 441T730 329Q730 274 710 216T642 109T520 31T334 0H23V27Q55 27 74 30T102 42T115 67T118 108V507ZM229 100Q229 76 231 62T241 41T264 31T303 28Q348 28 383 33T445 47T493 69T531 100Q554 123 569 149T593 204T605 260T609 315Q609 369 594 426T532 529Q513 548 492 561T443 584T381 597T302 602Q289 602 269 602T229 600V100Z"  />
<glyph unicode="E" horiz-adv-x="576" d="M10 0V27Q40 27 60 30T91 40T106 61T111 96V527Q111 552 105 565T86 585T54 593T10 595V622H521L530 472H503L498 493Q490 524 483 541T465 566T438 575T398 577H222V344H377Q399 344 412 346T434 356T446 379T452 420H479V219H452Q449 246 445 261T433 285T411 296T377 299H222V117Q222 94 224 80T232 58T250 48T281 45H392Q430 45 454 48T493 64T519 98T540 157H567L552 0H10Z"  />
<glyph unicode="F" horiz-adv-x="550" d="M226 123Q226 93 229 75T241 46T268 31T313 27V0H38V27Q86 27 100 46T115 105V522Q115 564 98 579T38 595V622H514V497H487Q485 522 480 537T464 562T433 574T383 577H226V356H383Q406 356 420 358T444 368T457 387T464 420H491V236H464Q461 259 457 273T443 296T418 308T378 311H226V123Z"  />
<glyph unicode="G" horiz-adv-x="739" d="M656 45Q614 28 579 17T511 -2T449 -13T388 -16Q312 -16 250 6T143 70T75 168T50 297Q50 347 66 406T123 517T231 603T402 638Q439 638 468 634T521 625T563 615T593 611Q611 611 619 622H648V438H618Q601 519 550 562T420 606Q364 606 318 585T240 524T189 430T171 308Q171 233 192 179T248 90T327 38T417 21Q482 21 545 54V173Q545 199 541 214T523 238T487 248T426 251V278H725V251Q699 251 686 244T665 226T657 200T656 172V45Z"  />
<glyph unicode="H" horiz-adv-x="810" d="M224 114Q224 92 226 76T238 50T265 34T313 27V0H24V27Q54 29 72 34T99 51T110 79T113 121V494Q113 522 110 541T98 572T71 589T24 595V622H313V595Q285 594 268 590T241 574T228 542T224 489V340H585V490Q585 520 582 540T570 572T542 589T493 595V622H787V595Q757 593 740 589T712 574T699 545T696 497V120Q696 93 699 76T711 49T739 34T787 27V0H493V27Q522 28 540 33T568 49T581 77T585 122V295H224V114Z"  />
<glyph unicode="I" horiz-adv-x="343" d="M32 622H311V595Q286 595 270 592T243 579T229 553T225 509V120Q225 92 228 74T241 45T267 30T311 27V0H32V27Q62 26 78 31T103 48T112 75T114 113V520Q114 540 111 554T99 578T74 591T32 595V622Z"  />
<glyph unicode="J" horiz-adv-x="351" d="M34 622H321V595Q294 595 278 591T252 578T240 551T236 508V135Q236 56 222 -11T180 -128T109 -204T10 -232Q-13 -232 -34 -227T-72 -214T-97 -195T-107 -171Q-107 -162 -103 -153T-91 -137T-76 -125T-59 -120Q-46 -120 -32 -129T-3 -151T27 -172T59 -182Q97 -182 111 -147T125 -38V509Q125 533 123 549T111 576T84 591T34 595V622Z"  />
<glyph unicode="K" horiz-adv-x="721" d="M417 0V27Q447 27 460 33T474 54Q474 60 468 70T453 93T434 116T417 135L332 224Q300 258 278 271T224 284V119Q224 92 226 74T239 45T267 30T317 27V0H16V27Q49 26 68 29T97 43T110 70T113 113V518Q113 544 108 559T92 583T63 594T16 595V622H317V595Q285 595 267 591T239 576T227 549T224 509V316Q264 327 295 349T353 397Q378 422 399 447T435 495T458 536T466 564Q466 581 451 588T397 595V622H681V595Q642 595 617 592T575 580T544 557T516 523L433 410Q428 403 416 391T390 366T364 342T344 327L346 325Q355 325 368 318T397 297T430 267T465 230L570 111Q596 81 612 65T645 40T680 29T733 27V0H417Z"  />
<glyph unicode="L" horiz-adv-x="577" d="M20 0V27Q50 27 69 29T98 40T113 66T117 113V509Q117 534 115 551T102 578T73 592T20 595V622H348V595Q307 595 284 593T248 584T232 560T228 516V94Q228 79 230 69T238 54T254 47T282 45H385Q417 45 436 47T472 59T505 91T551 151H581L504 0H20Z"  />
<glyph unicode="M" horiz-adv-x="928" d="M18 27Q41 27 56 30T82 43T97 73T104 125L128 493Q130 526 129 546T121 577T101 591T65 595V622H250L466 159L670 622H855V595Q813 595 801 584T791 537L827 82Q828 63 833 52T847 36T872 29T909 27V0H625V27Q656 27 674 32T702 50T714 88T713 153L686 522H684L453 0H419L184 509H182L158 139Q155 99 158 77T171 45T198 32T240 27V0H18V27Z"  />
<glyph unicode="N" horiz-adv-x="820" d="M164 509V125Q164 96 167 76T180 45T210 29T264 27V0H25V27Q52 26 68 30T94 45T106 72T109 113V563Q91 579 73 586T25 595V622H206L652 151V509Q652 537 649 554T636 580T606 592T553 595V622H795V595Q770 595 753 592T726 580T712 553T707 507V-6H653L164 509Z"  />
<glyph unicode="O" horiz-adv-x="838" d="M54 294Q54 369 81 432T157 541T272 612T419 638Q500 638 567 615T682 550T757 450T784 322Q784 254 758 193T684 86T568 12T415 -16Q337 -16 271 7T156 72T81 170T54 294ZM175 321Q175 246 197 189T255 93T337 36T431 16Q483 16 526 36T599 93T646 182T663 297Q663 365 645 421T593 519T513 583T411 606Q357 606 314 586T239 529T192 440T175 321Z"  />
<glyph unicode="P" horiz-adv-x="558" d="M30 27Q56 28 72 32T98 47T110 79T114 133V489Q114 525 110 546T96 578T67 592T18 595V622Q29 622 43 622T71 623T99 624T121 625Q139 626 159 626T198 628T232 629T254 630Q325 630 379 621T470 591T526 536T545 450Q545 406 528 370T479 307T404 267T307 252Q287 252 267 253T225 259V122Q225 93 229 75T246 46T281 31T338 27V0H30V27ZM225 289Q235 287 246 286T268 284Q302 284 331 296T380 331T412 384T424 452Q424 477 418 503T394 552T348 588T274 602Q247 602 225 599V289Z"  />
<glyph unicode="Q" horiz-adv-x="838" d="M279 4Q227 21 186 50T115 116T70 200T54 297Q54 371 81 433T157 541T273 612T419 638Q500 638 567 615T682 550T757 450T784 322Q784 263 765 210T710 113T625 39T518 -5H515V-7Q538 -17 564 -37T631 -93Q658 -117 678 -133T717 -159T756 -175T804 -186L785 -221Q777 -222 766 -222T744 -223Q713 -223 685 -217T627 -197T562 -161T484 -104Q455 -81 431 -65T383 -36T336 -15T281 3H282L279 4ZM175 321Q175 246 197 190T256 95T338 37T431 17Q483 17 526 37T599 94T646 183T663 298Q663 365 644 422T592 519T512 583T410 606Q356 606 313 586T239 529T192 440T175 321Z"  />
<glyph unicode="R" horiz-adv-x="793" d="M224 126Q224 94 227 74T240 43T271 29T326 27V0H20V27Q51 26 69 30T98 44T110 71T113 113V514Q113 538 110 554T97 579T69 591T20 595V622Q37 622 74 624T163 629Q203 631 236 631T285 631Q361 631 412 616T496 576T542 519T556 452Q556 341 430 289Q436 285 446 276T467 257T489 236T505 220L570 155Q603 122 633 98T692 56T750 30T810 17V-11Q736 -13 687 -7T602 13T537 51T474 109L421 162Q402 181 389 194T364 217T341 237T313 258Q291 256 268 256T224 258V126ZM224 286Q229 285 240 284T256 283Q306 285 340 296T395 326T425 375T435 442Q435 518 395 560T272 603Q261 603 246 602T224 599V286Z"  />
<glyph unicode="S" horiz-adv-x="523" d="M49 164H79Q98 95 142 58T252 20Q307 20 341 49T376 123Q376 158 353 187T294 242T219 295T143 350T85 413T61 492Q61 524 74 551T112 597T170 627T244 638Q269 638 287 636T321 630Q336 627 348 625T374 622Q391 622 402 634H427L449 479H419Q396 539 353 572T256 606Q208 606 183 582T158 524Q158 491 181 464T240 412T316 363T392 309T450 242T474 157Q474 118 459 87T415 32T347 -3T259 -16Q231 -16 211 -13T175 -7T147 -1T125 2Q108 2 98 -9H74L49 164Z"  />
<glyph unicode="T" horiz-adv-x="684" d="M38 639H65Q68 634 71 631T81 625Q88 623 99 623T130 622H553Q572 622 584 622T602 625T612 630T618 639H645L663 467H634Q629 506 622 528T605 561T578 574T540 577H397V106Q397 80 400 65T416 41T451 30T513 27V0H170V27Q207 27 230 30T265 41T282 65T286 106V577H143Q121 577 106 575T80 561T62 528T49 467H20L38 639Z"  />
<glyph unicode="U" horiz-adv-x="802" d="M19 622H303V595Q275 595 258 592T232 579T219 552T215 509V240Q215 190 231 154T275 93T343 58T429 46Q471 46 509 56T578 88T626 148T644 242V509Q644 538 641 555T627 581T597 592T548 595V622H790V595Q761 595 744 592T716 579T703 552T699 509V231Q699 172 677 126T616 49T520 1T396 -16Q253 -16 179 49T104 238V519Q104 542 101 556T88 579T62 591T19 595V622Z"  />
<glyph unicode="V" horiz-adv-x="730" d="M117 518Q106 544 98 559T79 582T53 592T14 595V622H322V595Q291 595 273 591T244 581T230 568T226 552Q226 531 242 492L393 121L540 475Q554 507 558 524T563 552Q563 577 542 586T473 595V622H716V595Q689 595 672 588T643 567T622 532T600 481L393 -16H332L117 518Z"  />
<glyph unicode="W" horiz-adv-x="1118" d="M142 511Q129 539 119 556T95 581T63 592T16 595V622H306V595Q268 593 255 587T241 562Q241 555 244 544T252 519T263 493T274 469L448 100L553 317L461 511Q447 541 437 558T415 583T389 593T348 595V622H817V595Q791 595 775 592T747 581T725 556T701 511L636 381L771 103L944 516Q953 537 956 548T959 565Q959 582 943 588T886 595V622H1102V595Q1081 595 1067 593T1040 580T1015 548T986 488L775 -16H711L580 260L448 -16H386L142 511ZM660 543Q671 565 671 577Q671 587 662 591T628 595H591Q565 595 556 592T547 578Q547 570 550 560T562 533L609 437L660 543Z"  />
<glyph unicode="X" horiz-adv-x="793" d="M23 27Q58 25 91 41T148 85L342 306L177 512Q156 538 141 554T109 578T73 590T23 595V622H367V595Q325 595 305 589T285 564Q285 556 290 546T312 516L414 389L503 488Q532 520 543 537T554 566Q554 583 540 589T485 595V622H745V595Q716 595 696 592T658 578T622 551T578 504L445 351L652 95Q668 75 682 62T711 42T743 31T782 27V0H471V27Q503 26 519 31T535 53Q535 70 510 99L373 268L240 117Q217 91 209 78T200 55Q200 40 217 33T277 27V0H23V27Z"  />
<glyph unicode="Y" horiz-adv-x="739" d="M137 514Q118 541 105 556T79 580T51 591T12 595V622H313V595Q272 595 258 588T243 566Q243 556 250 542T277 499L408 312L522 493Q539 521 547 537T555 564Q555 581 540 588T491 595V622H726V595Q699 592 680 587T645 569T612 533T571 471L436 253V114Q436 86 439 69T452 43T481 30T531 27V0H229V27Q257 27 276 29T305 41T320 68T325 117V244L137 514Z"  />
<glyph unicode="Z" horiz-adv-x="676" d="M28 45L472 577H201Q169 577 150 574T119 559T103 526T93 471H64L69 622H616V582L170 45H499Q532 45 551 50T583 70T602 113T619 189H649L635 0H28V45Z"  />
<glyph unicode="[" horiz-adv-x="333" d="M302 652V624L219 621Q192 620 184 611T176 570V-129Q176 -161 184 -170T219 -180L302 -183V-211H81V652H302Z"  />
<glyph unicode="\" horiz-adv-x="477" d="M443 -16H373L34 671H105L443 -16Z"  />
<glyph unicode="]" horiz-adv-x="333" d="M252 -211H31V-183L113 -180Q141 -179 149 -170T157 -129V570Q157 602 149 611T113 621L31 624V652H252V-211Z"  />
<glyph unicode="^" horiz-adv-x="581" d="M273 622H307L481 319H416L290 535L164 319H99L273 622Z"  />
<glyph unicode="_" horiz-adv-x="500" d="M506 -75V-125H-6V-75H506Z"  />
<glyph unicode="`" horiz-adv-x="333" d="M76 638H186L233 492H208L76 638Z"  />
<glyph unicode="a" horiz-adv-x="442" d="M439 51Q370 -11 321 -11Q263 -11 265 51Q247 37 235 26T210 6T184 -6T147 -11Q101 -11 72 16T43 85Q43 128 69 154Q84 169 106 177T154 194Q180 202 208 212T265 243V275Q265 328 249 352T197 376Q174 376 158 364T141 334Q141 327 144 319T151 304L60 267Q48 283 48 298Q48 316 64 336T105 374T163 402T229 413Q291 413 325 384T360 301V77Q360 43 381 43Q400 43 430 69L439 51ZM265 214Q225 190 201 176T164 150T147 126T143 95Q143 69 156 53T190 36Q201 36 209 40T226 50Q234 56 241 61T265 78V214Z"  />
<glyph unicode="b" horiz-adv-x="531" d="M75 554Q75 580 61 592T9 604V629L141 671H170V345Q200 365 222 378T262 399T296 410T328 413Q362 413 392 398T444 357T479 295T492 218Q492 175 477 134T429 61T347 9T227 -11Q210 -11 193 -10T155 -7Q136 -5 117 -3T75 4V554ZM170 163Q170 133 173 108T188 63T218 32T270 21Q327 21 359 64T392 179Q392 214 384 245T361 299T324 337T273 351Q251 351 228 343T170 311V163Z"  />
<glyph unicode="c" horiz-adv-x="451" d="M419 96Q338 -11 226 -11Q185 -11 151 3T93 43T56 105T42 185Q42 236 60 278T111 350T190 396T291 413Q351 413 386 395T421 344Q421 327 409 316T378 304Q358 304 343 316T313 342T284 369T249 381Q226 381 206 368T172 332T149 279T141 212Q141 173 150 141T175 86T213 50T263 37Q301 37 332 54T400 113L419 96Z"  />
<glyph unicode="d" horiz-adv-x="531" d="M364 53Q318 22 280 6T198 -11Q165 -11 136 4T86 45T53 106T40 183Q40 232 58 274T108 347T183 395T278 413Q322 413 364 402V549Q364 575 351 590T298 604V629L434 671H459V100Q459 68 487 68Q489 68 501 69T526 76V53L389 -12H364V53ZM364 299Q335 338 309 355T251 373Q200 373 170 332T140 219Q140 180 148 148T172 92T209 56T257 43Q280 43 302 51T364 82V299Z"  />
<glyph unicode="e" horiz-adv-x="469" d="M429 99Q391 42 342 16T226 -11Q173 -11 138 7T81 55T50 119T40 190Q40 239 55 280T98 350T164 396T247 413Q288 413 319 401T371 368Q388 351 395 334T406 303T416 277T434 260V232H135Q135 190 146 156T176 98T223 61T284 47Q347 47 410 117L429 99ZM319 260Q307 386 230 386Q150 386 135 260H319Z"  />
<glyph unicode="f" horiz-adv-x="306" d="M18 375Q37 380 58 387T91 402Q89 463 111 513T169 598T249 652T337 671Q357 671 376 667T412 657T437 644T447 629Q447 624 443 612T431 588T416 566T402 556Q393 556 382 566T356 587T321 609T275 619Q229 619 208 584T186 473V402H295L300 350H186V101Q186 64 198 45T251 25H300V0H24V25Q39 25 51 27T73 38T86 62T91 102V350H18V375Z"  />
<glyph unicode="g" horiz-adv-x="514" d="M501 309Q478 309 456 312T406 324Q413 307 415 293T418 265Q418 234 404 207T366 159T308 126T238 114Q206 114 181 119Q156 102 147 93T138 73Q138 60 148 53T184 41T252 36T357 35Q395 35 420 26T462 3T484 -28T491 -64Q491 -92 473 -122T418 -176T328 -216T204 -232Q124 -232 80 -211T35 -143Q35 -121 46 -105T73 -77T105 -53T132 -29Q93 -17 72 4T50 53Q50 74 65 86T99 106T134 118T151 129Q102 149 79 180T56 259Q56 292 70 320T109 369T168 401T244 413Q318 413 366 377L501 396V309ZM151 276Q151 218 176 180T241 142Q279 142 301 172T323 253Q323 310 298 347T233 385Q195 385 173 356T151 276ZM161 -36Q147 -52 135 -66T122 -101Q122 -120 133 -137T165 -168T211 -188T267 -196Q296 -196 322 -188T369 -165T401 -132T413 -92Q413 -48 348 -47L273 -45Q234 -44 208 -42T161 -36Z"  />
<glyph unicode="h" horiz-adv-x="541" d="M294 25Q318 25 333 30T356 55T367 114T370 222Q370 297 352 328T295 360Q272 360 244 350T177 318V98Q177 57 192 41T244 25V0H17V25Q50 25 66 41T82 106V552Q82 562 81 570T73 584T53 596T17 604V629L152 671H177V345Q228 378 275 395T359 413Q410 413 437 376T465 247Q465 203 462 160T458 89Q458 52 475 39T535 25V0H294V25Z"  />
<glyph unicode="i" horiz-adv-x="261" d="M7 382L158 424H180V107Q180 82 183 66T194 41T217 29T253 25V0H7V25Q49 23 67 39T85 96V320Q85 328 84 334T75 344T51 352T7 360V382ZM63 595Q63 619 80 633T127 648Q154 648 171 634T188 596Q188 572 171 557T124 542Q97 542 80 556T63 595Z"  />
<glyph unicode="j" horiz-adv-x="261" d="M16 382L166 424H189V2Q189 -50 178 -93T142 -167T82 -215T-3 -232Q-53 -232 -85 -216T-118 -175Q-118 -165 -115 -154T-105 -135T-92 -122T-77 -116Q-63 -116 -49 -128T-20 -154T11 -180T44 -192Q94 -192 94 -90V299Q94 317 93 327T84 344T60 353T16 362V382ZM68 595Q68 619 85 633T132 648Q159 648 176 634T193 596Q193 572 176 557T129 542Q102 542 85 556T68 595Z"  />
<glyph unicode="k" horiz-adv-x="531" d="M295 25Q318 25 326 29T335 45Q335 59 319 75L178 222V98Q178 57 193 41T251 25V0H18V25Q50 25 66 39T83 93V541Q83 557 81 567T73 584T53 595T18 604V629L153 671H178V236L295 325Q315 340 323 348T331 362Q331 370 320 373T279 377V402H497V377Q474 377 456 374T419 362T380 342T335 310L263 255L440 67Q456 50 483 38T536 25V0H295V25Z"  />
<glyph unicode="l" horiz-adv-x="271" d="M11 629L154 671H183V99Q183 56 198 41T259 25V0H11V25Q35 25 50 29T73 42T85 67T88 106V541Q88 558 86 569T77 587T54 598T11 604V629Z"  />
<glyph unicode="m" horiz-adv-x="820" d="M15 369L150 413H175V333Q238 375 281 394T359 413Q433 413 452 330Q515 373 560 393T639 413Q689 413 714 377T739 276V105Q739 87 741 72T750 47T770 31T805 25V0H579V25Q609 25 626 39T644 96V273Q644 307 631 331T583 356Q533 356 457 300V105Q457 58 472 42T524 25V0H297V25Q329 25 345 39T362 97V265Q362 283 360 299T352 328T333 348T301 356Q252 356 175 300V103Q175 56 190 41T241 25V0H15V25Q50 25 65 42T80 99V275Q80 296 79 307T71 326T52 336T15 344V369Z"  />
<glyph unicode="n" horiz-adv-x="541" d="M11 369L147 413H172V329Q239 372 280 392T357 413Q409 413 435 375T461 253Q461 192 458 153T454 89Q454 54 471 40T529 25V0H288V25Q315 25 330 32T354 63T364 128T366 242Q366 299 350 327T298 355Q272 355 243 340T172 296V102Q172 60 185 43T239 25V0H11V25Q48 25 62 41T77 99V278Q77 297 76 308T68 326T48 336T11 344V369Z"  />
<glyph unicode="o" horiz-adv-x="541" d="M41 204Q41 252 57 290T103 356T175 398T269 413Q332 413 376 393T448 341T488 273T501 202Q501 156 484 117T437 50T364 5T273 -11Q220 -11 177 4T104 47T58 115T41 204ZM143 233Q143 188 154 150T185 83T231 38T288 21Q339 21 369 60T399 169Q399 214 388 252T357 319T311 364T256 381Q205 381 174 341T143 233Z"  />
<glyph unicode="p" horiz-adv-x="523" d="M13 369L143 428H168V343Q224 378 263 393T331 409Q365 409 392 394T439 354T469 296T479 226Q479 172 457 129T400 56T324 9T245 -7Q227 -7 210 -4T168 7V-126Q168 -153 171 -169T184 -194T212 -204T259 -207V-232H-3V-207Q39 -207 56 -191T73 -129V296Q73 309 72 317T64 331T46 338T13 344V369ZM168 89Q219 33 278 33Q299 33 318 42T352 70T376 115T385 177Q385 222 374 254T344 309T304 341T262 352Q242 352 221 344T168 315V89Z"  />
<glyph unicode="q" horiz-adv-x="531" d="M364 58Q324 24 288 9T212 -7Q175 -7 144 7T89 46T53 106T40 182Q40 230 58 272T107 345T179 395T268 413Q302 413 331 405T402 377Q410 387 419 395T439 413H464Q462 400 461 384T459 348V-128Q459 -167 471 -187T527 -207V-232H258V-207Q293 -207 314 -204T346 -193T360 -169T364 -128V58ZM364 260Q364 314 337 347T260 381Q206 381 173 337T140 220Q140 183 149 152T175 99T215 64T267 51Q288 51 311 59T364 90V260Z"  />
<glyph unicode="r" horiz-adv-x="360" d="M15 349V369L152 413H177V313H179Q208 369 228 391T268 413Q279 413 298 405T362 388L329 306Q295 313 274 323T242 334Q208 334 177 270V104Q177 77 181 61T196 37T226 27T277 25V0H15V25Q50 25 66 40T82 100V324L15 349Z"  />
<glyph unicode="s" horiz-adv-x="351" d="M49 115H72Q81 70 108 43T173 16Q199 16 216 31T233 71Q233 90 220 107T186 141T142 175T98 210T65 251T51 299Q51 324 61 345T91 381T136 404T192 413Q212 413 234 410T285 399V289H263Q253 334 232 358T180 382Q158 382 143 369T128 335Q128 316 141 300T176 268T220 238T265 203T299 161T313 106Q313 81 302 60T273 23T229 -2T174 -11Q160 -11 149 -10T129 -7Q121 -5 115 -4T102 -3Q96 -3 91 -5T83 -12H62L49 115Z"  />
<glyph unicode="t" horiz-adv-x="316" d="M311 73Q289 25 256 7T186 -11Q136 -11 104 20T71 120V350H26V369Q72 393 99 428T142 514H166V402H311L289 350H166V132Q166 94 179 67T225 40Q246 40 260 51T289 90L311 73Z"  />
<glyph unicode="u" horiz-adv-x="541" d="M387 -11H364V65Q330 43 305 29T260 5T223 -7T189 -11Q134 -11 108 24T82 118V296Q82 315 81 326T73 343T55 352T20 361V383L152 413H177V145Q177 104 193 77T254 50Q275 50 300 61T364 100V305Q364 321 362 331T351 347T325 358T278 365V389L434 413H459V95Q459 64 463 56T484 47Q492 47 501 48T526 53V28L387 -11Z"  />
<glyph unicode="v" horiz-adv-x="523" d="M92 319Q85 335 79 346T64 363T44 373T16 377V402H250V377Q213 375 199 369T185 349Q185 343 188 334T200 305L290 95L376 290Q389 319 389 336Q389 374 319 377V402H506V377Q489 375 477 372T455 359T436 333T415 290L282 -11H238L92 319Z"  />
<glyph unicode="w" horiz-adv-x="775" d="M507 -11L392 266L273 -11H229L101 296Q90 322 81 338T62 362T40 374T13 377V402H237V377Q208 378 196 371T183 352Q183 347 184 341T190 326L282 102L373 312Q364 331 356 343T338 363T315 374T282 377V402H517V377Q488 377 476 370T463 347Q463 339 466 329T477 301L557 107L631 285Q641 308 644 320T648 343Q648 362 634 369T583 377V402H762V377Q744 376 732 373T710 359T690 328T666 273L547 -11H507Z"  />
<glyph unicode="x" horiz-adv-x="541" d="M15 25Q27 25 37 27T60 35T87 54T123 86L229 187L133 310Q104 348 77 362T21 377V402H260V377Q237 377 227 373T217 361Q217 356 220 349T235 328L295 250L345 300Q363 318 370 328T377 348Q377 364 365 370T326 377V402H519V377Q501 377 487 374T460 365T432 346T400 316L311 228L418 92Q434 71 447 58T472 38T496 28T526 25V0H285V25Q311 25 320 29T330 44Q330 51 325 60T307 86L246 165L177 96Q160 79 155 71T149 53Q149 25 213 25V0H15V25Z"  />
<glyph unicode="y" horiz-adv-x="486" d="M85 307Q73 331 65 345T48 366T28 375T-2 377V402H232V377Q198 377 186 370T174 349Q174 341 177 332T188 307L282 111L352 267Q364 293 369 310T374 339Q374 361 359 369T311 377V402H488V377Q473 376 462 372T442 359T423 335T404 298L221 -111Q193 -174 168 -203T110 -232Q87 -232 72 -218T57 -181Q57 -157 70 -148T101 -133T139 -124T174 -104Q178 -100 183 -95T194 -78T210 -49T232 0L85 307Z"  />
<glyph unicode="z" horiz-adv-x="469" d="M37 32L293 357H145Q127 357 116 355T97 342T84 312T71 258H41L71 424H96Q99 411 107 406Q116 402 141 402H422V369L163 45H318Q339 45 353 47T376 56T394 79T414 119H442L397 0H37V32Z"  />
<glyph unicode="{" horiz-adv-x="394" d="M121 215Q156 206 183 189T230 151T260 105T271 55Q271 38 268 14T260 -35T252 -80T248 -113Q248 -128 255 -144T275 -174T308 -199T353 -213V-232Q311 -231 277 -215T217 -173T177 -116T163 -54Q163 -36 167 -16T175 24Q180 45 183 65T186 102Q186 142 158 170T81 205V227Q129 234 157 262T186 330Q186 347 183 367T175 407T167 448T163 486Q163 517 177 548T216 604T276 646T353 664V645Q328 642 309 631T276 606T255 576T248 545Q248 534 251 513T260 467Q264 443 267 419T271 377Q271 327 231 282T121 216V215Z"  />
<glyph unicode="|" horiz-adv-x="527" d="M297 671V-160H230V671H297Z"  />
<glyph unicode="}" horiz-adv-x="394" d="M273 217Q238 226 211 243T164 281T134 327T123 377Q123 394 126 418T134 467T142 512T146 545Q146 560 139 576T119 606T86 631T41 645V664Q83 662 117 646T177 605T217 548T231 486Q231 469 228 449T220 408Q215 387 212 367T208 330Q208 290 236 262T313 227V205Q265 198 237 170T208 102Q208 85 211 65T219 25T227 -16T231 -54Q231 -85 217 -116T178 -172T118 -214T41 -232V-213Q66 -210 85 -200T118 -175T139 -144T146 -113Q146 -102 143 -81T135 -35Q130 -10 127 14T123 55Q123 105 163 150T273 216V217Z"  />
<glyph unicode="~" horiz-adv-x="667" d="M564 395Q562 332 532 295T450 258Q422 258 389 270T321 297Q288 311 257 323T202 335Q140 335 128 259H103Q105 319 133 357T213 396Q245 396 279 384T346 357Q380 343 410 331T465 318Q497 318 516 338T539 395H564Z"  />
<glyph unicode="&#xA0;" horiz-adv-x="333" />
<glyph unicode="&#xA1;" horiz-adv-x="289" d="M203 -217Q203 -223 203 -226T204 -233Q204 -244 198 -246T170 -249H119Q98 -249 92 -247T86 -233Q86 -230 86 -225T87 -217L132 208H157L203 -217ZM144 300Q115 300 97 316T78 358Q78 384 96 398T144 413Q175 413 193 399T211 358Q211 332 192 316T144 300Z"  />
<glyph unicode="&#xA2;" horiz-adv-x="451" d="M173 -4Q110 13 76 63T42 185Q42 233 59 275T108 347T187 395T293 413L353 622H383L323 411Q368 407 394 389T421 344Q421 327 409 316T378 304Q371 304 365 305T350 312T332 326T305 351L218 47Q232 42 242 40T266 37Q301 37 335 56T400 113L419 96Q372 35 322 10T201 -10L137 -232H108L173 -4ZM281 372Q272 378 265 379T249 381Q226 381 206 368T172 332T149 278T141 212Q141 162 153 127T193 65L281 372Z"  />
<glyph unicode="&#xA3;" horiz-adv-x="802" d="M77 69L84 101H237Q280 215 314 295T377 431T431 522T483 584Q526 627 569 643T650 660Q676 660 699 654T740 636T768 610T778 578Q778 561 766 549T735 537Q716 537 703 549T676 577T648 604T612 617Q580 617 559 593Q529 559 506 506T456 388T399 250T323 101H502L496 69H303Q297 58 287 43T264 10T240 -25T217 -55L219 -57Q242 -47 272 -41T330 -34Q377 -34 414 -55T483 -102T546 -149T612 -171Q642 -171 663 -153T684 -107Q684 -94 680 -83T669 -60T659 -39T654 -16Q654 3 666 15T696 27Q722 27 737 5T753 -54Q753 -89 738 -120T695 -174T632 -210T556 -224Q520 -224 492 -214T439 -187T393 -152T350 -117T305 -91T256 -80Q238 -80 222 -84T185 -99Q162 -158 131 -191T69 -224Q36 -224 36 -190Q36 -131 155 -79Q191 -12 225 69H77Z"  />
<glyph unicode="&#xA4;" horiz-adv-x="667" d="M526 570L577 518L515 455Q538 422 547 392T557 326Q557 290 548 260T515 196L577 134L526 82L464 144Q430 121 400 112T334 102Q297 102 267 112T204 144L141 82L89 134L152 196Q129 229 120 259T110 326Q110 362 119 392T152 456L89 518L141 570L204 507Q239 530 269 539T334 549Q371 549 400 540T464 507L526 570ZM183 326Q183 295 195 268T227 220T275 187T334 175Q365 175 392 187T439 219T472 267T484 326Q484 357 472 384T440 431T392 464T334 476Q303 476 276 464T228 432T195 384T183 326Z"  />
<glyph unicode="&#xA5;" horiz-adv-x="721" d="M428 223H676V191H428V114Q428 86 431 69T444 43T473 30T523 27V0H221V27Q249 27 268 29T297 41T312 68T317 117V191H69V223H317V303H69V335H296L173 514Q154 541 141 556T115 580T87 591T48 595V622H349V595Q308 595 294 588T279 566Q279 556 286 542T313 499L400 372L478 493Q495 521 503 537T511 564Q511 581 496 588T447 595V622H682V595Q655 592 636 587T601 569T568 533T527 471L442 335H676V303H428V223Z"  />
<glyph unicode="&#xA6;" horiz-adv-x="527" d="M297 195V-160H230V195H297ZM297 671V316H230V671H297Z"  />
<glyph unicode="&#xA7;" horiz-adv-x="459" d="M67 -154Q67 -138 78 -126T104 -114Q116 -114 128 -125T153 -148T183 -172T219 -183Q231 -183 244 -179T268 -166T286 -147T293 -122Q293 -104 277 -72T240 -7L124 168Q86 227 66 278T45 377Q45 431 63 477T113 558T187 613T280 633Q302 633 323 628T360 613T387 593T397 569Q397 552 386 540T361 527Q347 527 334 538T305 562T272 586T235 597Q222 597 210 592T188 579T173 560T167 538Q167 520 175 501T195 462T219 425T241 393L328 259Q354 219 370 186T396 125T409 72T413 24Q413 -35 392 -80T337 -157T264 -203T186 -219Q162 -219 141 -214T103 -199T77 -179T67 -154ZM265 46Q282 18 293 -2T312 -40T323 -73T329 -109Q351 -83 359 -59T367 -3Q367 38 353 89T294 212L190 375Q162 419 146 455T131 521L129 523Q109 494 100 467T91 404Q91 362 104 323T148 234L265 46Z"  />
<glyph unicode="&#xA8;" horiz-adv-x="333" d="M90 604Q111 604 126 589T141 553Q141 532 126 517T90 502Q69 502 54 517T39 553Q39 574 54 589T90 604ZM244 604Q265 604 280 589T295 553Q295 532 280 517T244 502Q223 502 208 517T193 553Q193 574 208 589T244 604Z"  />
<glyph unicode="&#xA9;" horiz-adv-x="747" d="M554 416H535Q500 532 387 532Q315 532 273 481T230 342Q230 287 243 249T278 186T329 151T392 140Q487 140 544 219L563 210Q495 111 375 111Q327 111 286 127T214 173T167 241T149 327Q149 375 167 416T218 488T295 535T392 553Q415 553 432 550T462 542T484 535T502 531Q512 531 517 537T525 553H544L554 416ZM374 676Q446 676 509 649T619 575T693 465T720 330Q720 258 693 195T619 85T509 11T374 -16Q302 -16 239 11T129 85T55 195T28 330Q28 402 55 465T129 575T239 649T374 676ZM374 646Q308 646 251 621T151 554T83 454T58 330Q58 264 83 207T150 107T250 39T374 14Q440 14 497 39T597 106T665 206T690 330Q690 396 665 453T598 553T498 621T374 646Z"  />
<glyph unicode="&#xAA;" horiz-adv-x="279" d="M287 422Q262 400 242 392T206 383Q172 383 165 415Q147 398 131 391T94 383Q63 383 43 400T23 443Q23 454 27 465T39 484Q48 493 62 498T93 508T128 519T165 537V555Q165 585 156 598T127 612Q97 612 95 589Q96 584 97 582T103 571L37 546Q26 558 26 568Q26 580 37 592T65 615T104 631T147 638Q189 638 212 621T236 564V436Q236 422 246 422Q255 422 278 439L287 422ZM165 512Q152 504 140 499T119 487T104 473T98 449Q98 435 104 426T122 417Q135 417 143 425T165 439V512Z"  />
<glyph unicode="&#xAB;" horiz-adv-x="351" d="M22 219L186 402H212L118 219L212 35H186L22 219ZM306 386H330L285 219L330 51H306L190 219L306 386Z"  />
<glyph unicode="&#xAC;" horiz-adv-x="667" d="M565 416V150H498V349H102V416H565Z"  />
<glyph unicode="&#xAD;" horiz-adv-x="388" d="M27 242H360V159H27V242Z"  />
<glyph unicode="&#xAE;" horiz-adv-x="747" d="M370 543Q436 543 476 513T516 433Q516 352 407 325L509 179Q526 155 538 147T568 136V120H478L334 318H298V174Q298 154 310 145T355 136V120H176V136Q204 136 215 147T227 179V483Q227 503 219 514T182 525V543H370ZM317 339Q340 339 361 344T400 359T427 387T437 428Q437 468 409 494T338 521Q327 521 319 520T298 514V339H317ZM374 676Q446 676 509 649T619 575T693 465T720 330Q720 258 693 195T619 85T509 11T374 -16Q302 -16 239 11T129 85T55 195T28 330Q28 402 55 465T129 575T239 649T374 676ZM374 646Q308 646 251 621T151 554T83 454T58 330Q58 264 83 207T150 107T250 39T374 14Q440 14 497 39T597 106T665 206T690 330Q690 396 665 453T598 553T498 621T374 646Z"  />
<glyph unicode="&#xAF;" horiz-adv-x="333" d="M301 587V516H31V587H301Z"  />
<glyph unicode="&#xB0;" horiz-adv-x="400" d="M200 638Q228 638 253 627T297 598T327 554T338 500Q338 471 327 446T298 403T254 373T200 362Q171 362 146 373T103 402T73 446T62 500Q62 528 73 553T102 597T146 627T200 638ZM200 593Q181 593 164 586T135 566T115 536T107 500Q107 481 114 464T134 435T164 415T200 407Q219 407 236 414T265 434T285 464T293 500Q293 519 286 536T266 565T236 585T200 593Z"  />
<glyph unicode="&#xB1;" horiz-adv-x="667" d="M300 387V585H367V387H565V320H367V122H300V320H102V387H300ZM565 46V-21H102V46H565Z"  />
<glyph unicode="&#xB2;" horiz-adv-x="306" d="M21 427L112 512Q151 548 172 576T193 638Q193 667 175 683T130 700Q123 700 113 699T92 691T71 672T55 637H28Q31 648 36 665T56 699Q73 718 98 729T153 741Q172 741 192 735T227 717T253 688T263 649Q263 630 258 616T241 588T211 559T167 524Q165 522 157 515T136 498T112 477T90 457H205Q219 457 227 458T239 464T246 477T252 498H276L264 410H21V427Z"  />
<glyph unicode="&#xB3;" horiz-adv-x="306" d="M96 579Q130 604 148 623T166 660Q166 673 156 687T122 701Q104 701 90 692T57 658L35 665Q47 690 61 705T91 728T122 738T148 741Q170 741 186 735T212 720T226 701T231 682Q231 668 225 657T211 636T193 621T177 611Q187 609 201 605T229 592T252 567T262 524Q262 501 251 479T220 439T172 412T110 401Q68 401 43 414T17 443Q17 454 26 461T50 468Q64 468 74 461T99 441Q115 425 132 425Q153 425 165 435T183 460T192 488T194 508Q194 512 193 522T187 544T172 563T141 572Q130 572 121 570T104 565L96 579Z"  />
<glyph unicode="&#xB4;" horiz-adv-x="333" d="M100 492L147 638H257L125 492H100Z"  />
<glyph unicode="&#xB5;" horiz-adv-x="500" d="M136 144Q136 103 153 77T213 50Q234 50 259 61T323 100V413H418V114Q418 77 425 62T448 46Q473 46 481 105H499Q499 76 491 55T470 19T438 -3T400 -11Q335 -11 323 65Q290 43 265 29T219 5T182 -7T149 -11Q107 -11 76 14Q76 -10 79 -33T87 -76T95 -113T99 -142Q99 -166 86 -181T52 -196Q33 -196 22 -183T11 -146Q11 -129 15 -108T26 -62T36 -6T41 60V413H136V144Z"  />
<glyph unicode="&#xB6;" horiz-adv-x="540" d="M437 -232H401V595H310V-232H274V253Q212 253 168 266T96 304T54 363T40 438Q40 525 98 573T260 622H501V595H437V-232Z"  />
<glyph unicode="&#xB7;" horiz-adv-x="289" d="M145 367Q174 367 192 351T211 309Q211 283 193 269T145 254Q114 254 96 268T78 309Q78 335 97 351T145 367Z"  />
<glyph unicode="&#xB8;" horiz-adv-x="333" d="M77 -144Q82 -145 89 -145T101 -146Q109 -146 120 -144T140 -136T156 -121T163 -98Q163 -59 107 -56L168 0H218L196 -25Q212 -30 220 -37T233 -54T237 -72T238 -89Q238 -108 227 -122T199 -146T161 -161T117 -166Q106 -166 99 -166T77 -163V-144Z"  />
<glyph unicode="&#xB9;" horiz-adv-x="306" d="M69 429L102 430Q119 431 122 433T125 450V678Q114 672 106 668T91 661T75 654T55 648L46 664Q76 678 105 697T157 742H191V450Q191 436 195 434T213 430L248 429V410H69V429Z"  />
<glyph unicode="&#xBA;" horiz-adv-x="343" d="M19 507Q19 535 30 559T62 601T111 628T173 638Q206 638 233 629T281 602T313 562T324 511Q324 484 313 461T281 420T232 393T172 383Q139 383 111 392T62 417T31 457T19 507ZM94 531Q94 505 101 483T120 443T149 417T183 407Q213 407 231 430T249 493Q249 518 243 540T224 579T196 604T162 614Q127 614 111 589T94 531Z"  />
<glyph unicode="&#xBB;" horiz-adv-x="351" d="M139 35L234 219L139 402H165L329 219L165 35H139ZM45 51H21L67 219L21 386H45L161 219L45 51Z"  />
<glyph unicode="&#xBC;" horiz-adv-x="775" d="M540 66H399V87L573 311H606V101H660V66H606V-29H540V66ZM540 101V225H538L443 101H540ZM533 638H594L158 -39H97L533 638ZM64 325H97Q114 325 117 328T120 345V573Q109 567 101 563T85 556T69 550T50 543L41 560Q77 577 104 597T152 638H186V345Q186 332 190 329T208 325H243V305H64V325Z"  />
<glyph unicode="&#xBD;" horiz-adv-x="775" d="M423 -4Q432 5 446 19T477 48T510 78T539 105Q568 134 581 157T595 206Q595 234 578 251T532 269Q474 269 457 206H430Q441 257 473 284T555 312Q578 312 598 305T633 285T656 255T665 219Q665 199 658 182T629 143Q617 131 600 117T563 88T525 58T492 27H606Q632 27 640 34T654 67H678L666 -21H423V-4ZM533 638H594L158 -39H97L533 638ZM64 325H97Q114 325 117 328T120 345V573Q109 567 101 563T85 556T69 550T50 543L41 560Q77 577 104 597T152 638H186V345Q186 332 190 329T208 325H243V305H64V325Z"  />
<glyph unicode="&#xBE;" horiz-adv-x="775" d="M553 638H614L178 -39H117L553 638ZM113 474Q151 503 167 521T183 557Q183 575 171 587T139 599Q120 599 106 589T75 553L52 560Q86 638 166 638Q201 638 224 621T248 578Q248 558 236 541T194 507Q232 501 255 482T279 420Q279 394 267 372T235 334T186 308T127 298Q89 298 62 310T34 340Q34 350 43 357T67 364Q81 364 91 358T109 343T127 328T149 321Q176 321 193 344T211 404Q211 468 158 468Q150 468 142 467T121 461L113 474ZM560 66H419V87L593 311H626V101H680V66H626V-29H560V66ZM560 101V225H558L463 101H560Z"  />
<glyph unicode="&#xBF;" horiz-adv-x="360" d="M241 216Q262 181 271 155T281 107Q281 82 266 68T229 43T180 26T131 7T93 -21T78 -68Q78 -102 100 -122T158 -143Q167 -143 181 -141T210 -137T239 -133T265 -131Q317 -131 317 -174Q317 -201 293 -216T224 -232Q177 -232 143 -215T85 -171T51 -111T39 -46Q39 -8 50 21T87 77Q110 100 135 109T181 125T215 138T229 166Q229 185 213 216H241ZM216 300Q187 300 169 316T150 358Q150 384 168 398T216 413Q247 413 265 399T283 358Q283 332 264 316T216 300Z"  />
<glyph unicode="&#xC0;" horiz-adv-x="711" d="M10 27Q35 27 51 30T78 43T98 70T118 117L299 613L291 638H403L598 117Q609 88 617 70T636 43T661 30T700 27V0H403V27Q462 27 483 34T504 64Q504 72 501 84T490 117L442 241H213L164 108Q154 81 154 66Q154 44 174 35T254 27V0H10V27ZM423 291L327 544L232 291H423ZM265 835H375L422 689H397L265 835Z"  />
<glyph unicode="&#xC1;" horiz-adv-x="711" d="M10 27Q35 27 51 30T78 43T98 70T118 117L299 613L291 638H403L598 117Q609 88 617 70T636 43T661 30T700 27V0H403V27Q462 27 483 34T504 64Q504 72 501 84T490 117L442 241H213L164 108Q154 81 154 66Q154 44 174 35T254 27V0H10V27ZM423 291L327 544L232 291H423ZM289 689L336 835H446L314 689H289Z"  />
<glyph unicode="&#xC2;" horiz-adv-x="711" d="M10 27Q35 27 51 30T78 43T98 70T118 117L299 613L291 638H403L598 117Q609 88 617 70T636 43T661 30T700 27V0H403V27Q462 27 483 34T504 64Q504 72 501 84T490 117L442 241H213L164 108Q154 81 154 66Q154 44 174 35T254 27V0H10V27ZM423 291L327 544L232 291H423ZM452 673L355 788L258 673H216L309 868H400L494 673H452Z"  />
<glyph unicode="&#xC3;" horiz-adv-x="711" d="M10 27Q35 27 51 30T78 43T98 70T118 117L299 613L291 638H403L598 117Q609 88 617 70T636 43T661 30T700 27V0H403V27Q462 27 483 34T504 64Q504 72 501 84T490 117L442 241H213L164 108Q154 81 154 66Q154 44 174 35T254 27V0H10V27ZM423 291L327 544L232 291H423ZM219 692Q217 716 223 737T242 773T270 797T303 806Q325 806 341 799T373 782T403 765T436 757Q460 757 472 806H490Q493 784 488 764T471 727T444 702T407 692Q386 692 368 699T333 716T301 733T273 741Q256 741 248 725T239 692H219H219Z"  />
<glyph unicode="&#xC4;" horiz-adv-x="711" d="M10 27Q35 27 51 30T78 43T98 70T118 117L299 613L291 638H403L598 117Q609 88 617 70T636 43T661 30T700 27V0H403V27Q462 27 483 34T504 64Q504 72 501 84T490 117L442 241H213L164 108Q154 81 154 66Q154 44 174 35T254 27V0H10V27ZM423 291L327 544L232 291H423ZM279 801Q300 801 315 786T330 750Q330 729 315 714T279 699Q258 699 243 714T228 750Q228 771 243 786T279 801ZM433 801Q454 801 469 786T484 750Q484 729 469 714T433 699Q412 699 397 714T382 750Q382 771 397 786T433 801Z"  />
<glyph unicode="&#xC5;" horiz-adv-x="711" d="M10 27Q35 27 51 30T78 43T98 70T118 117L299 613L291 638H403L598 117Q609 88 617 70T636 43T661 30T700 27V0H403V27Q462 27 483 34T504 64Q504 72 501 84T490 117L442 241H213L164 108Q154 81 154 66Q154 44 174 35T254 27V0H10V27ZM423 291L327 544L232 291H423ZM356 832Q391 832 415 808T440 748Q440 713 416 688T356 663Q321 663 296 688T271 748Q271 783 296 807T356 832ZM355 801Q332 801 317 786T302 748Q302 725 317 710T355 694Q378 694 393 709T409 748Q409 771 394 786T355 801Z"  />
<glyph unicode="&#xC6;" horiz-adv-x="883" d="M-44 27Q-25 28 -12 32T12 44T35 68T62 109L305 509Q329 548 329 567Q329 582 318 588T278 595V622H809L818 472H790Q784 507 777 528T758 560T730 574T688 577H527V344H667Q690 344 704 346T726 357T737 381T742 420H770V219H742Q739 246 735 261T724 285T703 296T667 299H527V116Q527 93 529 79T537 58T554 48T586 45H680Q718 45 742 48T781 64T807 98T827 157H855L840 0H305V27Q343 27 365 32T398 48T413 79T416 127V234H194L123 116Q109 94 104 81T98 59Q98 43 115 36T175 27V0H-44V27ZM416 284V587H405L223 284H416Z"  />
<glyph unicode="&#xC7;" horiz-adv-x="739" d="M267 -144Q272 -145 279 -145T291 -146Q299 -146 310 -144T330 -136T346 -121T353 -98Q353 -59 297 -56L345 -12Q273 -3 218 23T126 91T69 185T50 299Q50 363 72 424T139 532T253 609T417 638Q458 638 492 633T554 622T601 610T632 605Q643 605 650 612H675L680 447H650Q622 525 564 565T421 606Q365 606 319 586T240 529T189 440T171 325Q171 259 191 204T248 107T333 43T439 20Q513 20 575 57T680 167H710L642 0Q633 4 626 5T608 7Q591 7 570 4T524 -4T470 -12T409 -16H394L386 -25Q402 -30 410 -37T423 -54T427 -72T428 -89Q428 -108 417 -122T389 -146T351 -161T307 -166Q296 -166 289 -166T267 -163V-144Z"  />
<glyph unicode="&#xC8;" horiz-adv-x="576" d="M10 0V27Q40 27 60 30T91 40T106 61T111 96V527Q111 552 105 565T86 585T54 593T10 595V622H521L530 472H503L498 493Q490 524 483 541T465 566T438 575T398 577H222V344H377Q399 344 412 346T434 356T446 379T452 420H479V219H452Q449 246 445 261T433 285T411 296T377 299H222V117Q222 94 224 80T232 58T250 48T281 45H392Q430 45 454 48T493 64T519 98T540 157H567L552 0H10ZM198 835H308L355 689H330L198 835Z"  />
<glyph unicode="&#xC9;" horiz-adv-x="576" d="M10 0V27Q40 27 60 30T91 40T106 61T111 96V527Q111 552 105 565T86 585T54 593T10 595V622H521L530 472H503L498 493Q490 524 483 541T465 566T438 575T398 577H222V344H377Q399 344 412 346T434 356T446 379T452 420H479V219H452Q449 246 445 261T433 285T411 296T377 299H222V117Q222 94 224 80T232 58T250 48T281 45H392Q430 45 454 48T493 64T519 98T540 157H567L552 0H10ZM222 689L269 835H379L247 689H222Z"  />
<glyph unicode="&#xCA;" horiz-adv-x="576" d="M10 0V27Q40 27 60 30T91 40T106 61T111 96V527Q111 552 105 565T86 585T54 593T10 595V622H521L530 472H503L498 493Q490 524 483 541T465 566T438 575T398 577H222V344H377Q399 344 412 346T434 356T446 379T452 420H479V219H452Q449 246 445 261T433 285T411 296T377 299H222V117Q222 94 224 80T232 58T250 48T281 45H392Q430 45 454 48T493 64T519 98T540 157H567L552 0H10ZM385 673L288 788L191 673H149L242 868H333L427 673H385Z"  />
<glyph unicode="&#xCB;" horiz-adv-x="576" d="M10 0V27Q40 27 60 30T91 40T106 61T111 96V527Q111 552 105 565T86 585T54 593T10 595V622H521L530 472H503L498 493Q490 524 483 541T465 566T438 575T398 577H222V344H377Q399 344 412 346T434 356T446 379T452 420H479V219H452Q449 246 445 261T433 285T411 296T377 299H222V117Q222 94 224 80T232 58T250 48T281 45H392Q430 45 454 48T493 64T519 98T540 157H567L552 0H10ZM212 801Q233 801 248 786T263 750Q263 729 248 714T212 699Q191 699 176 714T161 750Q161 771 176 786T212 801ZM366 801Q387 801 402 786T417 750Q417 729 402 714T366 699Q345 699 330 714T315 750Q315 771 330 786T366 801Z"  />
<glyph unicode="&#xCC;" horiz-adv-x="343" d="M32 622H311V595Q286 595 270 592T243 579T229 553T225 509V120Q225 92 228 74T241 45T267 30T311 27V0H32V27Q62 26 78 31T103 48T112 75T114 113V520Q114 540 111 554T99 578T74 591T32 595V622ZM81 835H191L238 689H213L81 835Z"  />
<glyph unicode="&#xCD;" horiz-adv-x="343" d="M32 622H311V595Q286 595 270 592T243 579T229 553T225 509V120Q225 92 228 74T241 45T267 30T311 27V0H32V27Q62 26 78 31T103 48T112 75T114 113V520Q114 540 111 554T99 578T74 591T32 595V622ZM105 689L152 835H262L130 689H105Z"  />
<glyph unicode="&#xCE;" horiz-adv-x="343" d="M32 622H311V595Q286 595 270 592T243 579T229 553T225 509V120Q225 92 228 74T241 45T267 30T311 27V0H32V27Q62 26 78 31T103 48T112 75T114 113V520Q114 540 111 554T99 578T74 591T32 595V622ZM268 673L171 788L74 673H32L125 868H216L310 673H268Z"  />
<glyph unicode="&#xCF;" horiz-adv-x="343" d="M32 622H311V595Q286 595 270 592T243 579T229 553T225 509V120Q225 92 228 74T241 45T267 30T311 27V0H32V27Q62 26 78 31T103 48T112 75T114 113V520Q114 540 111 554T99 578T74 591T32 595V622ZM95 801Q116 801 131 786T146 750Q146 729 131 714T95 699Q74 699 59 714T44 750Q44 771 59 786T95 801ZM249 801Q270 801 285 786T300 750Q300 729 285 714T249 699Q228 699 213 714T198 750Q198 771 213 786T249 801Z"  />
<glyph unicode="&#xD0;" horiz-adv-x="784" d="M23 322H118V507Q118 534 114 551T99 578T70 591T23 595V622Q34 622 54 622T96 624T141 626T180 628Q221 630 257 630T323 630Q437 630 517 609T644 542Q691 495 710 441T730 329Q730 274 710 216T642 109T520 31T334 0H23V27Q55 27 74 30T102 42T115 67T118 108V277H23V322ZM229 322H344V277H229V100Q229 76 231 62T242 40T264 30T303 28Q348 28 383 33T445 47T493 69T531 100Q554 123 569 149T593 204T605 260T609 315Q609 369 594 426T532 529Q513 548 492 561T443 584T381 597T302 602Q289 602 269 602T229 600V322Z"  />
<glyph unicode="&#xD1;" horiz-adv-x="820" d="M164 509V125Q164 96 167 76T180 45T210 29T264 27V0H25V27Q52 26 68 30T94 45T106 72T109 113V563Q91 579 73 586T25 595V622H206L652 151V509Q652 537 649 554T636 580T606 592T553 595V622H795V595Q770 595 753 592T726 580T712 553T707 507V-6H653L164 509ZM274 692Q272 716 278 737T297 773T325 797T358 806Q380 806 396 799T428 782T458 765T491 757Q515 757 527 806H545Q548 784 543 764T526 727T499 702T462 692Q441 692 423 699T388 716T356 733T328 741Q311 741 303 725T294 692H274H274Z"  />
<glyph unicode="&#xD2;" horiz-adv-x="838" d="M54 294Q54 369 81 432T157 541T272 612T419 638Q500 638 567 615T682 550T757 450T784 322Q784 254 758 193T684 86T568 12T415 -16Q337 -16 271 7T156 72T81 170T54 294ZM175 321Q175 246 197 189T255 93T337 36T431 16Q483 16 526 36T599 93T646 182T663 297Q663 365 645 421T593 519T513 583T411 606Q357 606 314 586T239 529T192 440T175 321ZM329 835H439L486 689H461L329 835Z"  />
<glyph unicode="&#xD3;" horiz-adv-x="838" d="M54 294Q54 369 81 432T157 541T272 612T419 638Q500 638 567 615T682 550T757 450T784 322Q784 254 758 193T684 86T568 12T415 -16Q337 -16 271 7T156 72T81 170T54 294ZM175 321Q175 246 197 189T255 93T337 36T431 16Q483 16 526 36T599 93T646 182T663 297Q663 365 645 421T593 519T513 583T411 606Q357 606 314 586T239 529T192 440T175 321ZM353 689L400 835H510L378 689H353Z"  />
<glyph unicode="&#xD4;" horiz-adv-x="838" d="M54 294Q54 369 81 432T157 541T272 612T419 638Q500 638 567 615T682 550T757 450T784 322Q784 254 758 193T684 86T568 12T415 -16Q337 -16 271 7T156 72T81 170T54 294ZM175 321Q175 246 197 189T255 93T337 36T431 16Q483 16 526 36T599 93T646 182T663 297Q663 365 645 421T593 519T513 583T411 606Q357 606 314 586T239 529T192 440T175 321ZM516 673L419 788L322 673H280L373 868H464L558 673H516Z"  />
<glyph unicode="&#xD5;" horiz-adv-x="838" d="M54 294Q54 369 81 432T157 541T272 612T419 638Q500 638 567 615T682 550T757 450T784 322Q784 254 758 193T684 86T568 12T415 -16Q337 -16 271 7T156 72T81 170T54 294ZM175 321Q175 246 197 189T255 93T337 36T431 16Q483 16 526 36T599 93T646 182T663 297Q663 365 645 421T593 519T513 583T411 606Q357 606 314 586T239 529T192 440T175 321ZM283 692Q281 716 287 737T306 773T334 797T367 806Q389 806 405 799T437 782T467 765T500 757Q524 757 536 806H554Q557 784 552 764T535 727T508 702T471 692Q450 692 432 699T397 716T365 733T337 741Q320 741 312 725T303 692H283H283Z"  />
<glyph unicode="&#xD6;" horiz-adv-x="838" d="M54 294Q54 369 81 432T157 541T272 612T419 638Q500 638 567 615T682 550T757 450T784 322Q784 254 758 193T684 86T568 12T415 -16Q337 -16 271 7T156 72T81 170T54 294ZM175 321Q175 246 197 189T255 93T337 36T431 16Q483 16 526 36T599 93T646 182T663 297Q663 365 645 421T593 519T513 583T411 606Q357 606 314 586T239 529T192 440T175 321ZM343 801Q364 801 379 786T394 750Q394 729 379 714T343 699Q322 699 307 714T292 750Q292 771 307 786T343 801ZM497 801Q518 801 533 786T548 750Q548 729 533 714T497 699Q476 699 461 714T446 750Q446 771 461 786T497 801Z"  />
<glyph unicode="&#xD7;" horiz-adv-x="667" d="M334 328L500 494L547 447L381 281L548 114L501 67L335 233L168 66L120 114L287 281L121 447L168 494L334 328Z"  />
<glyph unicode="&#xD8;" horiz-adv-x="838" d="M241 109Q274 66 324 41T431 16Q483 16 526 36T599 93T646 182T663 297Q663 360 649 409T615 487L241 109ZM680 553Q729 511 756 452T784 322Q784 254 758 193T684 86T568 12T415 -16Q346 -16 287 2T184 51L85 -49L60 -22L155 73Q107 115 81 171T54 294Q54 369 81 432T157 541T272 612T419 638Q494 638 556 619T652 572L753 673L777 651L680 553ZM596 516Q564 555 519 580T411 606Q357 606 314 586T239 529T192 440T175 321Q175 273 186 225T221 139L596 516Z"  />
<glyph unicode="&#xD9;" horiz-adv-x="802" d="M19 622H303V595Q275 595 258 592T232 579T219 552T215 509V240Q215 190 231 154T275 93T343 58T429 46Q471 46 509 56T578 88T626 148T644 242V509Q644 538 641 555T627 581T597 592T548 595V622H790V595Q761 595 744 592T716 579T703 552T699 509V231Q699 172 677 126T616 49T520 1T396 -16Q253 -16 179 49T104 238V519Q104 542 101 556T88 579T62 591T19 595V622ZM311 835H421L468 689H443L311 835Z"  />
<glyph unicode="&#xDA;" horiz-adv-x="802" d="M19 622H303V595Q275 595 258 592T232 579T219 552T215 509V240Q215 190 231 154T275 93T343 58T429 46Q471 46 509 56T578 88T626 148T644 242V509Q644 538 641 555T627 581T597 592T548 595V622H790V595Q761 595 744 592T716 579T703 552T699 509V231Q699 172 677 126T616 49T520 1T396 -16Q253 -16 179 49T104 238V519Q104 542 101 556T88 579T62 591T19 595V622ZM335 689L382 835H492L360 689H335Z"  />
<glyph unicode="&#xDB;" horiz-adv-x="802" d="M19 622H303V595Q275 595 258 592T232 579T219 552T215 509V240Q215 190 231 154T275 93T343 58T429 46Q471 46 509 56T578 88T626 148T644 242V509Q644 538 641 555T627 581T597 592T548 595V622H790V595Q761 595 744 592T716 579T703 552T699 509V231Q699 172 677 126T616 49T520 1T396 -16Q253 -16 179 49T104 238V519Q104 542 101 556T88 579T62 591T19 595V622ZM498 673L401 788L304 673H262L355 868H446L540 673H498Z"  />
<glyph unicode="&#xDC;" horiz-adv-x="802" d="M19 622H303V595Q275 595 258 592T232 579T219 552T215 509V240Q215 190 231 154T275 93T343 58T429 46Q471 46 509 56T578 88T626 148T644 242V509Q644 538 641 555T627 581T597 592T548 595V622H790V595Q761 595 744 592T716 579T703 552T699 509V231Q699 172 677 126T616 49T520 1T396 -16Q253 -16 179 49T104 238V519Q104 542 101 556T88 579T62 591T19 595V622ZM325 801Q346 801 361 786T376 750Q376 729 361 714T325 699Q304 699 289 714T274 750Q274 771 289 786T325 801ZM479 801Q500 801 515 786T530 750Q530 729 515 714T479 699Q458 699 443 714T428 750Q428 771 443 786T479 801Z"  />
<glyph unicode="&#xDD;" horiz-adv-x="739" d="M137 514Q118 541 105 556T79 580T51 591T12 595V622H313V595Q272 595 258 588T243 566Q243 556 250 542T277 499L408 312L522 493Q539 521 547 537T555 564Q555 581 540 588T491 595V622H726V595Q699 592 680 587T645 569T612 533T571 471L436 253V114Q436 86 439 69T452 43T481 30T531 27V0H229V27Q257 27 276 29T305 41T320 68T325 117V244L137 514ZM303 689L350 835H460L328 689H303Z"  />
<glyph unicode="&#xDE;" horiz-adv-x="558" d="M114 493Q114 525 111 544T99 574T74 589T30 595V622H338V595Q299 594 277 590T243 574T228 544T225 495Q241 498 264 501T308 504Q356 504 399 491T475 454T526 394T545 316Q545 272 528 236T479 173T404 133T307 118Q287 118 267 120T225 127Q225 94 229 75T247 46T281 32T338 27V0H30V27Q52 30 67 32T93 43T109 72T114 129V493ZM225 155Q237 151 247 151T268 150Q302 150 331 162T380 197T412 250T424 318Q424 343 418 370T394 419T348 455T274 469Q260 469 248 468T225 465V155Z"  />
<glyph unicode="&#xDF;" horiz-adv-x="531" d="M8 25Q29 26 42 29T62 42T71 69T73 117V433Q73 481 83 524T116 600T178 652T276 671Q361 671 411 632T462 527Q462 471 423 431T312 370V368Q401 352 446 303T492 176Q492 136 479 102T442 42T386 3T315 -11Q273 -11 249 4T224 46Q224 62 235 73T264 84Q279 84 288 76T306 57T322 39T342 30Q366 30 381 66T397 165Q397 263 357 308T225 352V377Q228 377 234 377T245 376Q306 376 341 414T377 518Q377 575 350 609T277 643Q220 643 194 603T168 494V0H8V25Z"  />
<glyph unicode="&#xE0;" horiz-adv-x="442" d="M439 51Q370 -11 321 -11Q263 -11 265 51Q247 37 235 26T210 6T184 -6T147 -11Q101 -11 72 16T43 85Q43 128 69 154Q84 169 106 177T154 194Q180 202 208 212T265 243V275Q265 328 249 352T197 376Q174 376 158 364T141 334Q141 327 144 319T151 304L60 267Q48 283 48 298Q48 316 64 336T105 374T163 402T229 413Q291 413 325 384T360 301V77Q360 43 381 43Q400 43 430 69L439 51ZM265 214Q225 190 201 176T164 150T147 126T143 95Q143 69 156 53T190 36Q201 36 209 40T226 50Q234 56 241 61T265 78V214ZM131 638H241L288 492H263L131 638Z"  />
<glyph unicode="&#xE1;" horiz-adv-x="442" d="M439 51Q370 -11 321 -11Q263 -11 265 51Q247 37 235 26T210 6T184 -6T147 -11Q101 -11 72 16T43 85Q43 128 69 154Q84 169 106 177T154 194Q180 202 208 212T265 243V275Q265 328 249 352T197 376Q174 376 158 364T141 334Q141 327 144 319T151 304L60 267Q48 283 48 298Q48 316 64 336T105 374T163 402T229 413Q291 413 325 384T360 301V77Q360 43 381 43Q400 43 430 69L439 51ZM265 214Q225 190 201 176T164 150T147 126T143 95Q143 69 156 53T190 36Q201 36 209 40T226 50Q234 56 241 61T265 78V214ZM155 492L202 638H312L180 492H155Z"  />
<glyph unicode="&#xE2;" horiz-adv-x="442" d="M439 51Q370 -11 321 -11Q263 -11 265 51Q247 37 235 26T210 6T184 -6T147 -11Q101 -11 72 16T43 85Q43 128 69 154Q84 169 106 177T154 194Q180 202 208 212T265 243V275Q265 328 249 352T197 376Q174 376 158 364T141 334Q141 327 144 319T151 304L60 267Q48 283 48 298Q48 316 64 336T105 374T163 402T229 413Q291 413 325 384T360 301V77Q360 43 381 43Q400 43 430 69L439 51ZM265 214Q225 190 201 176T164 150T147 126T143 95Q143 69 156 53T190 36Q201 36 209 40T226 50Q234 56 241 61T265 78V214ZM318 476L221 591L124 476H82L175 671H266L360 476H318Z"  />
<glyph unicode="&#xE3;" horiz-adv-x="442" d="M439 51Q370 -11 321 -11Q263 -11 265 51Q247 37 235 26T210 6T184 -6T147 -11Q101 -11 72 16T43 85Q43 128 69 154Q84 169 106 177T154 194Q180 202 208 212T265 243V275Q265 328 249 352T197 376Q174 376 158 364T141 334Q141 327 144 319T151 304L60 267Q48 283 48 298Q48 316 64 336T105 374T163 402T229 413Q291 413 325 384T360 301V77Q360 43 381 43Q400 43 430 69L439 51ZM265 214Q225 190 201 176T164 150T147 126T143 95Q143 69 156 53T190 36Q201 36 209 40T226 50Q234 56 241 61T265 78V214ZM85 495Q83 519 89 540T108 576T136 600T169 609Q191 609 207 602T239 585T269 568T302 560Q326 560 338 609H356Q359 587 354 567T337 530T310 505T273 495Q252 495 234 502T199 519T167 536T139 544Q122 544 114 528T105 495H85H85Z"  />
<glyph unicode="&#xE4;" horiz-adv-x="442" d="M439 51Q370 -11 321 -11Q263 -11 265 51Q247 37 235 26T210 6T184 -6T147 -11Q101 -11 72 16T43 85Q43 128 69 154Q84 169 106 177T154 194Q180 202 208 212T265 243V275Q265 328 249 352T197 376Q174 376 158 364T141 334Q141 327 144 319T151 304L60 267Q48 283 48 298Q48 316 64 336T105 374T163 402T229 413Q291 413 325 384T360 301V77Q360 43 381 43Q400 43 430 69L439 51ZM265 214Q225 190 201 176T164 150T147 126T143 95Q143 69 156 53T190 36Q201 36 209 40T226 50Q234 56 241 61T265 78V214ZM145 604Q166 604 181 589T196 553Q196 532 181 517T145 502Q124 502 109 517T94 553Q94 574 109 589T145 604ZM299 604Q320 604 335 589T350 553Q350 532 335 517T299 502Q278 502 263 517T248 553Q248 574 263 589T299 604Z"  />
<glyph unicode="&#xE5;" horiz-adv-x="442" d="M439 51Q370 -11 321 -11Q263 -11 265 51Q247 37 235 26T210 6T184 -6T147 -11Q101 -11 72 16T43 85Q43 128 69 154Q84 169 106 177T154 194Q180 202 208 212T265 243V275Q265 328 249 352T197 376Q174 376 158 364T141 334Q141 327 144 319T151 304L60 267Q48 283 48 298Q48 316 64 336T105 374T163 402T229 413Q291 413 325 384T360 301V77Q360 43 381 43Q400 43 430 69L439 51ZM265 214Q225 190 201 176T164 150T147 126T143 95Q143 69 156 53T190 36Q201 36 209 40T226 50Q234 56 241 61T265 78V214ZM222 635Q257 635 281 611T306 551Q306 516 282 491T222 466Q187 466 162 491T137 551Q137 586 162 610T222 635ZM221 604Q198 604 183 589T168 551Q168 528 183 513T221 497Q244 497 259 512T275 551Q275 574 260 589T221 604Z"  />
<glyph unicode="&#xE6;" horiz-adv-x="676" d="M634 99Q539 -11 440 -11Q349 -11 294 71Q249 27 214 8T144 -11Q100 -11 71 16T41 84Q41 104 48 122T68 153Q82 167 105 176T156 195T211 214T263 242V290Q263 325 249 350T197 376Q174 376 158 364T141 336Q141 328 143 320T150 304Q143 302 131 298T104 288T78 277T60 268Q48 284 48 300Q48 317 63 336T104 373T161 401T226 413Q303 413 339 369Q399 413 465 413Q536 413 577 372Q597 352 605 334T618 299Q623 283 628 273T645 256V232H358Q358 188 370 154T401 97T446 61T498 48Q559 48 619 116L634 99ZM530 260Q527 317 505 351T447 385Q411 385 386 351T358 260H530ZM263 214Q240 196 218 184T179 161T152 134T141 95Q141 69 154 53T187 36Q217 36 263 73V214Z"  />
<glyph unicode="&#xE7;" horiz-adv-x="451" d="M107 -144Q112 -145 119 -145T131 -146Q139 -146 150 -144T170 -136T186 -121T193 -98Q193 -59 137 -56L189 -8Q122 4 82 55T42 185Q42 236 60 278T111 350T190 396T291 413Q351 413 386 395T421 344Q421 327 409 316T378 304Q358 304 343 316T313 342T284 369T249 381Q226 381 206 368T172 332T149 279T141 212Q141 173 150 141T175 86T213 50T263 37Q301 37 332 54T400 113L419 96Q342 -5 239 -11L226 -25Q242 -30 250 -37T263 -54T267 -72T268 -89Q268 -108 257 -122T229 -146T191 -161T147 -166Q136 -166 129 -166T107 -163V-144Z"  />
<glyph unicode="&#xE8;" horiz-adv-x="469" d="M429 99Q391 42 342 16T226 -11Q173 -11 138 7T81 55T50 119T40 190Q40 239 55 280T98 350T164 396T247 413Q288 413 319 401T371 368Q388 351 395 334T406 303T416 277T434 260V232H135Q135 190 146 156T176 98T223 61T284 47Q347 47 410 117L429 99ZM319 260Q307 386 230 386Q150 386 135 260H319ZM144 638H254L301 492H276L144 638Z"  />
<glyph unicode="&#xE9;" horiz-adv-x="469" d="M429 99Q391 42 342 16T226 -11Q173 -11 138 7T81 55T50 119T40 190Q40 239 55 280T98 350T164 396T247 413Q288 413 319 401T371 368Q388 351 395 334T406 303T416 277T434 260V232H135Q135 190 146 156T176 98T223 61T284 47Q347 47 410 117L429 99ZM319 260Q307 386 230 386Q150 386 135 260H319ZM168 492L215 638H325L193 492H168Z"  />
<glyph unicode="&#xEA;" horiz-adv-x="469" d="M429 99Q391 42 342 16T226 -11Q173 -11 138 7T81 55T50 119T40 190Q40 239 55 280T98 350T164 396T247 413Q288 413 319 401T371 368Q388 351 395 334T406 303T416 277T434 260V232H135Q135 190 146 156T176 98T223 61T284 47Q347 47 410 117L429 99ZM319 260Q307 386 230 386Q150 386 135 260H319ZM331 476L234 591L137 476H95L188 671H279L373 476H331Z"  />
<glyph unicode="&#xEB;" horiz-adv-x="469" d="M429 99Q391 42 342 16T226 -11Q173 -11 138 7T81 55T50 119T40 190Q40 239 55 280T98 350T164 396T247 413Q288 413 319 401T371 368Q388 351 395 334T406 303T416 277T434 260V232H135Q135 190 146 156T176 98T223 61T284 47Q347 47 410 117L429 99ZM319 260Q307 386 230 386Q150 386 135 260H319ZM158 604Q179 604 194 589T209 553Q209 532 194 517T158 502Q137 502 122 517T107 553Q107 574 122 589T158 604ZM312 604Q333 604 348 589T363 553Q363 532 348 517T312 502Q291 502 276 517T261 553Q261 574 276 589T312 604Z"  />
<glyph unicode="&#xEC;" horiz-adv-x="261" d="M7 382L158 424H180V107Q180 82 183 66T194 41T217 29T253 25V0H7V25Q49 23 67 39T85 96V320Q85 328 84 334T75 344T51 352T7 360V382ZM41 638H151L198 492H173L41 638Z"  />
<glyph unicode="&#xED;" horiz-adv-x="261" d="M7 382L158 424H180V107Q180 82 183 66T194 41T217 29T253 25V0H7V25Q49 23 67 39T85 96V320Q85 328 84 334T75 344T51 352T7 360V382ZM65 492L112 638H222L90 492H65Z"  />
<glyph unicode="&#xEE;" horiz-adv-x="261" d="M7 382L158 424H180V107Q180 82 183 66T194 41T217 29T253 25V0H7V25Q49 23 67 39T85 96V320Q85 328 84 334T75 344T51 352T7 360V382ZM228 476L131 591L34 476H-8L85 671H176L270 476H228Z"  />
<glyph unicode="&#xEF;" horiz-adv-x="261" d="M7 382L158 424H180V107Q180 82 183 66T194 41T217 29T253 25V0H7V25Q49 23 67 39T85 96V320Q85 328 84 334T75 344T51 352T7 360V382ZM55 604Q76 604 91 589T106 553Q106 532 91 517T55 502Q34 502 19 517T4 553Q4 574 19 589T55 604ZM209 604Q230 604 245 589T260 553Q260 532 245 517T209 502Q188 502 173 517T158 553Q158 574 173 589T209 604Z"  />
<glyph unicode="&#xF0;" horiz-adv-x="542" d="M142 234Q142 189 153 150T184 82T230 36T287 19Q338 19 368 59T398 169Q398 213 387 252T356 320T310 366T255 383Q204 383 173 343T142 234ZM444 618L338 565Q382 529 413 487T463 399T491 310T500 225Q500 157 479 112T426 39T355 1T280 -11Q217 -11 172 5T97 51T54 121T40 208Q40 264 62 303T117 366T189 402T261 413Q284 413 309 408T360 382L362 384Q348 421 325 459T270 531L129 460L109 495L239 561Q218 579 194 595T142 623L161 653Q203 642 238 627T302 592L424 653L444 618Z"  />
<glyph unicode="&#xF1;" horiz-adv-x="541" d="M11 369L147 413H172V329Q239 372 280 392T357 413Q409 413 435 375T461 253Q461 192 458 153T454 89Q454 54 471 40T529 25V0H288V25Q315 25 330 32T354 63T364 128T366 242Q366 299 350 327T298 355Q272 355 243 340T172 296V102Q172 60 185 43T239 25V0H11V25Q48 25 62 41T77 99V278Q77 297 76 308T68 326T48 336T11 344V369ZM134 495Q132 519 138 540T157 576T185 600T218 609Q240 609 256 602T288 585T318 568T351 560Q375 560 387 609H405Q408 587 403 567T386 530T359 505T322 495Q301 495 283 502T248 519T216 536T188 544Q171 544 163 528T154 495H134H134Z"  />
<glyph unicode="&#xF2;" horiz-adv-x="541" d="M41 204Q41 252 57 290T103 356T175 398T269 413Q332 413 376 393T448 341T488 273T501 202Q501 156 484 117T437 50T364 5T273 -11Q220 -11 177 4T104 47T58 115T41 204ZM143 233Q143 188 154 150T185 83T231 38T288 21Q339 21 369 60T399 169Q399 214 388 252T357 319T311 364T256 381Q205 381 174 341T143 233ZM180 638H290L337 492H312L180 638Z"  />
<glyph unicode="&#xF3;" horiz-adv-x="541" d="M41 204Q41 252 57 290T103 356T175 398T269 413Q332 413 376 393T448 341T488 273T501 202Q501 156 484 117T437 50T364 5T273 -11Q220 -11 177 4T104 47T58 115T41 204ZM143 233Q143 188 154 150T185 83T231 38T288 21Q339 21 369 60T399 169Q399 214 388 252T357 319T311 364T256 381Q205 381 174 341T143 233ZM204 492L251 638H361L229 492H204Z"  />
<glyph unicode="&#xF4;" horiz-adv-x="541" d="M41 204Q41 252 57 290T103 356T175 398T269 413Q332 413 376 393T448 341T488 273T501 202Q501 156 484 117T437 50T364 5T273 -11Q220 -11 177 4T104 47T58 115T41 204ZM143 233Q143 188 154 150T185 83T231 38T288 21Q339 21 369 60T399 169Q399 214 388 252T357 319T311 364T256 381Q205 381 174 341T143 233ZM367 476L270 591L173 476H131L224 671H315L409 476H367Z"  />
<glyph unicode="&#xF5;" horiz-adv-x="541" d="M41 204Q41 252 57 290T103 356T175 398T269 413Q332 413 376 393T448 341T488 273T501 202Q501 156 484 117T437 50T364 5T273 -11Q220 -11 177 4T104 47T58 115T41 204ZM143 233Q143 188 154 150T185 83T231 38T288 21Q339 21 369 60T399 169Q399 214 388 252T357 319T311 364T256 381Q205 381 174 341T143 233ZM134 495Q132 519 138 540T157 576T185 600T218 609Q240 609 256 602T288 585T318 568T351 560Q375 560 387 609H405Q408 587 403 567T386 530T359 505T322 495Q301 495 283 502T248 519T216 536T188 544Q171 544 163 528T154 495H134H134Z"  />
<glyph unicode="&#xF6;" horiz-adv-x="541" d="M41 204Q41 252 57 290T103 356T175 398T269 413Q332 413 376 393T448 341T488 273T501 202Q501 156 484 117T437 50T364 5T273 -11Q220 -11 177 4T104 47T58 115T41 204ZM143 233Q143 188 154 150T185 83T231 38T288 21Q339 21 369 60T399 169Q399 214 388 252T357 319T311 364T256 381Q205 381 174 341T143 233ZM194 604Q215 604 230 589T245 553Q245 532 230 517T194 502Q173 502 158 517T143 553Q143 574 158 589T194 604ZM348 604Q369 604 384 589T399 553Q399 532 384 517T348 502Q327 502 312 517T297 553Q297 574 312 589T348 604Z"  />
<glyph unicode="&#xF7;" horiz-adv-x="667" d="M334 496Q351 496 363 484T375 455Q375 438 363 426T334 413Q317 413 305 425T292 455Q292 472 304 484T334 496ZM565 315V248H102V315H565ZM334 150Q351 150 363 138T375 109Q375 92 363 80T334 67Q317 67 305 79T292 109Q292 126 304 138T334 150Z"  />
<glyph unicode="&#xF8;" horiz-adv-x="541" d="M183 84Q203 55 230 38T288 21Q342 21 370 62T399 169Q399 198 393 229T376 284L183 84ZM41 204Q41 252 57 290T103 356T175 398T269 413Q306 413 345 404T413 372L474 435L499 411L440 350Q473 317 487 278T501 202Q501 156 484 117T437 50T364 5T273 -11Q231 -11 193 -1T129 28L66 -37L42 -12L102 50Q41 106 41 204ZM358 315Q338 349 312 365T256 381Q227 381 206 370T171 338T150 290T143 233Q143 211 147 178T166 116L358 315Z"  />
<glyph unicode="&#xF9;" horiz-adv-x="541" d="M387 -11H364V65Q330 43 305 29T260 5T223 -7T189 -11Q134 -11 108 24T82 118V296Q82 315 81 326T73 343T55 352T20 361V383L152 413H177V145Q177 104 193 77T254 50Q275 50 300 61T364 100V305Q364 321 362 331T351 347T325 358T278 365V389L434 413H459V95Q459 64 463 56T484 47Q492 47 501 48T526 53V28L387 -11ZM180 638H290L337 492H312L180 638Z"  />
<glyph unicode="&#xFA;" horiz-adv-x="541" d="M387 -11H364V65Q330 43 305 29T260 5T223 -7T189 -11Q134 -11 108 24T82 118V296Q82 315 81 326T73 343T55 352T20 361V383L152 413H177V145Q177 104 193 77T254 50Q275 50 300 61T364 100V305Q364 321 362 331T351 347T325 358T278 365V389L434 413H459V95Q459 64 463 56T484 47Q492 47 501 48T526 53V28L387 -11ZM204 492L251 638H361L229 492H204Z"  />
<glyph unicode="&#xFB;" horiz-adv-x="541" d="M387 -11H364V65Q330 43 305 29T260 5T223 -7T189 -11Q134 -11 108 24T82 118V296Q82 315 81 326T73 343T55 352T20 361V383L152 413H177V145Q177 104 193 77T254 50Q275 50 300 61T364 100V305Q364 321 362 331T351 347T325 358T278 365V389L434 413H459V95Q459 64 463 56T484 47Q492 47 501 48T526 53V28L387 -11ZM367 476L270 591L173 476H131L224 671H315L409 476H367Z"  />
<glyph unicode="&#xFC;" horiz-adv-x="541" d="M387 -11H364V65Q330 43 305 29T260 5T223 -7T189 -11Q134 -11 108 24T82 118V296Q82 315 81 326T73 343T55 352T20 361V383L152 413H177V145Q177 104 193 77T254 50Q275 50 300 61T364 100V305Q364 321 362 331T351 347T325 358T278 365V389L434 413H459V95Q459 64 463 56T484 47Q492 47 501 48T526 53V28L387 -11ZM194 604Q215 604 230 589T245 553Q245 532 230 517T194 502Q173 502 158 517T143 553Q143 574 158 589T194 604ZM348 604Q369 604 384 589T399 553Q399 532 384 517T348 502Q327 502 312 517T297 553Q297 574 312 589T348 604Z"  />
<glyph unicode="&#xFD;" horiz-adv-x="486" d="M85 307Q73 331 65 345T48 366T28 375T-2 377V402H232V377Q198 377 186 370T174 349Q174 341 177 332T188 307L282 111L352 267Q364 293 369 310T374 339Q374 361 359 369T311 377V402H488V377Q473 376 462 372T442 359T423 335T404 298L221 -111Q193 -174 168 -203T110 -232Q87 -232 72 -218T57 -181Q57 -157 70 -148T101 -133T139 -124T174 -104Q178 -100 183 -95T194 -78T210 -49T232 0L85 307ZM177 492L224 638H334L202 492H177Z"  />
<glyph unicode="&#xFE;" horiz-adv-x="523" d="M13 612L144 671H168V343Q224 378 263 393T331 409Q365 409 392 394T439 354T469 296T479 226Q479 172 457 129T400 56T324 9T245 -7Q227 -7 210 -4T168 7V-126Q168 -153 171 -169T184 -194T212 -204T259 -207V-232H-3V-207Q39 -207 56 -191T73 -129V539Q73 552 72 560T64 574T46 581T13 587V612ZM168 89Q219 33 278 33Q299 33 318 42T352 70T376 115T385 177Q385 222 374 254T344 309T304 341T262 352Q242 352 221 344T168 315V89Z"  />
<glyph unicode="&#xFF;" horiz-adv-x="486" d="M85 307Q73 331 65 345T48 366T28 375T-2 377V402H232V377Q198 377 186 370T174 349Q174 341 177 332T188 307L282 111L352 267Q364 293 369 310T374 339Q374 361 359 369T311 377V402H488V377Q473 376 462 372T442 359T423 335T404 298L221 -111Q193 -174 168 -203T110 -232Q87 -232 72 -218T57 -181Q57 -157 70 -148T101 -133T139 -124T174 -104Q178 -100 183 -95T194 -78T210 -49T232 0L85 307ZM167 604Q188 604 203 589T218 553Q218 532 203 517T167 502Q146 502 131 517T116 553Q116 574 131 589T167 604ZM321 604Q342 604 357 589T372 553Q372 532 357 517T321 502Q300 502 285 517T270 553Q270 574 285 589T321 604Z"  />
<glyph unicode="&#x131;" horiz-adv-x="261" d="M7 382L158 424H180V107Q180 82 183 66T194 41T217 29T253 25V0H7V25Q49 23 67 39T85 96V320Q85 328 84 334T75 344T51 352T7 360V382Z"  />
<glyph unicode="&#x152;" horiz-adv-x="1009" d="M510 0Q475 0 442 -3Q425 -5 411 -6T383 -7Q311 -7 251 16T146 79T77 176T52 298Q52 358 74 417T139 524T246 600T393 629Q416 629 434 629T473 626Q493 624 519 623T586 622H931L940 472H913Q906 508 900 529T884 560T861 574T827 577H640V344H788Q810 344 823 346T845 356T857 379T863 420H890V219H863Q860 246 856 261T844 285T822 296T788 299H640V117Q640 94 642 80T650 58T668 48T699 45H802Q840 45 864 49T904 65T930 99T950 157H977L962 0H510ZM529 492Q529 541 494 569T388 597Q337 597 303 583T246 546Q225 525 210 498T186 442T172 381T167 321Q167 244 191 187T257 87Q319 25 398 25Q458 25 493 59T529 163V492Z"  />
<glyph unicode="&#x153;" horiz-adv-x="775" d="M743 99Q699 45 650 17T551 -11Q515 -11 487 3T434 49Q375 -11 282 -11Q234 -11 193 4T122 48T75 113T58 194Q58 240 75 280T122 349T192 396T279 413Q363 413 428 353Q480 413 568 413Q603 413 634 402T688 369Q708 349 715 330T727 296T735 270T754 255V232H480Q480 197 490 165T517 107T559 67T612 51Q672 51 728 116L743 99ZM641 260Q638 316 616 350T560 384Q528 384 507 351T480 260H641ZM159 235Q159 192 170 153T200 85T244 39T297 21Q342 21 366 60T391 162Q391 206 381 245T353 315T313 363T265 381Q218 381 189 340T159 235Z"  />
<glyph unicode="&#x160;" horiz-adv-x="523" d="M49 164H79Q98 95 142 58T252 20Q307 20 341 49T376 123Q376 158 353 187T294 242T219 295T143 350T85 413T61 492Q61 524 74 551T112 597T170 627T244 638Q269 638 287 636T321 630Q336 627 348 625T374 622Q391 622 402 634H427L449 479H419Q396 539 353 572T256 606Q208 606 183 582T158 524Q158 491 181 464T240 412T316 363T392 309T450 242T474 157Q474 118 459 87T415 32T347 -3T259 -16Q231 -16 211 -13T175 -7T147 -1T125 2Q108 2 98 -9H74L49 164ZM123 868H165L262 753L359 868H401L308 673H217L123 868Z"  />
<glyph unicode="&#x161;" horiz-adv-x="351" d="M49 115H72Q81 70 108 43T173 16Q199 16 216 31T233 71Q233 90 220 107T186 141T142 175T98 210T65 251T51 299Q51 324 61 345T91 381T136 404T192 413Q212 413 234 410T285 399V289H263Q253 334 232 358T180 382Q158 382 143 369T128 335Q128 316 141 300T176 268T220 238T265 203T299 161T313 106Q313 81 302 60T273 23T229 -2T174 -11Q160 -11 149 -10T129 -7Q121 -5 115 -4T102 -3Q96 -3 91 -5T83 -12H62L49 115ZM37 671H79L176 556L273 671H315L222 476H131L37 671Z"  />
<glyph unicode="&#x178;" horiz-adv-x="739" d="M137 514Q118 541 105 556T79 580T51 591T12 595V622H313V595Q272 595 258 588T243 566Q243 556 250 542T277 499L408 312L522 493Q539 521 547 537T555 564Q555 581 540 588T491 595V622H726V595Q699 592 680 587T645 569T612 533T571 471L436 253V114Q436 86 439 69T452 43T481 30T531 27V0H229V27Q257 27 276 29T305 41T320 68T325 117V244L137 514ZM293 801Q314 801 329 786T344 750Q344 729 329 714T293 699Q272 699 257 714T242 750Q242 771 257 786T293 801ZM447 801Q468 801 483 786T498 750Q498 729 483 714T447 699Q426 699 411 714T396 750Q396 771 411 786T447 801Z"  />
<glyph unicode="&#x17D;" horiz-adv-x="676" d="M28 45L472 577H201Q169 577 150 574T119 559T103 526T93 471H64L69 622H616V582L170 45H499Q532 45 551 50T583 70T602 113T619 189H649L635 0H28V45ZM200 868H242L339 753L436 868H478L385 673H294L200 868Z"  />
<glyph unicode="&#x17E;" horiz-adv-x="469" d="M37 32L293 357H145Q127 357 116 355T97 342T84 312T71 258H41L71 424H96Q99 411 107 406Q116 402 141 402H422V369L163 45H318Q339 45 353 47T376 56T394 79T414 119H442L397 0H37V32ZM96 671H138L235 556L332 671H374L281 476H190L96 671Z"  />
<glyph unicode="&#x192;" horiz-adv-x="488" d="M280 361L246 138Q234 57 214 -11T160 -128T78 -204T-40 -232Q-69 -232 -90 -219T-111 -180Q-111 -161 -99 -149T-67 -137Q-50 -137 -40 -145T-21 -164T0 -183T30 -192Q52 -192 69 -180T101 -135T128 -48T155 93L197 361H129L134 386Q154 389 173 393T205 402Q232 535 292 603T440 671Q520 671 520 621Q520 603 508 592T476 581Q459 581 449 589T428 607T407 625T380 634Q363 634 351 623T328 584T308 513T288 402H372L364 361H280Z"  />
<glyph unicode="&#x2C6;" horiz-adv-x="333" d="M263 476L166 591L69 476H27L120 671H211L305 476H263Z"  />
<glyph unicode="&#x2DC;" horiz-adv-x="333" d="M30 495Q28 519 34 540T53 576T81 600T114 609Q136 609 152 602T184 585T214 568T247 560Q271 560 283 609H301Q304 587 299 567T282 530T255 505T218 495Q197 495 179 502T144 519T112 536T84 544Q67 544 59 528T50 495H30H30Z"  />
<glyph unicode="&#x2013;" horiz-adv-x="500" d="M506 255V177H-6V255H506Z"  />
<glyph unicode="&#x2014;" horiz-adv-x="1000" d="M1006 255V177H-6V255H1006Z"  />
<glyph unicode="&#x2018;" horiz-adv-x="289" d="M211 652Q172 633 151 610T130 562Q130 546 143 546Q147 546 153 547T163 548Q188 548 204 531T221 488Q221 459 201 440T149 421Q113 421 91 447T68 515Q68 569 103 610T202 671L211 652Z"  />
<glyph unicode="&#x2019;" horiz-adv-x="289" d="M78 440Q117 459 138 482T159 530Q159 546 146 546Q142 546 136 545T126 544Q101 544 85 561T68 604Q68 633 88 652T140 671Q176 671 198 645T221 577Q221 523 186 482T87 421L78 440Z"  />
<glyph unicode="&#x201A;" horiz-adv-x="289" d="M78 -129Q117 -110 138 -87T159 -39Q159 -23 146 -23Q142 -23 136 -24T126 -25Q101 -25 85 -8T68 35Q68 64 88 83T140 102Q176 102 198 76T221 8Q221 -46 186 -87T87 -148L78 -129Z"  />
<glyph unicode="&#x201C;" horiz-adv-x="523" d="M443 652Q404 633 383 610T362 562Q362 546 375 546Q379 546 385 547T395 548Q420 548 436 531T453 488Q453 459 433 440T381 421Q345 421 323 447T300 515Q300 569 335 610T434 671L443 652ZM214 652Q175 633 154 610T133 562Q133 546 146 546Q150 546 156 547T166 548Q191 548 207 531T224 488Q224 459 204 440T152 421Q116 421 94 447T71 515Q71 569 106 610T205 671L214 652Z"  />
<glyph unicode="&#x201D;" horiz-adv-x="523" d="M309 440Q348 459 369 482T390 530Q390 546 377 546Q373 546 367 545T357 544Q332 544 316 561T299 604Q299 633 319 652T371 671Q407 671 429 645T452 577Q452 523 417 482T318 421L309 440ZM80 440Q119 459 140 482T161 530Q161 546 148 546Q144 546 138 545T128 544Q103 544 87 561T70 604Q70 633 90 652T142 671Q178 671 200 645T223 577Q223 523 188 482T89 421L80 440Z"  />
<glyph unicode="&#x201E;" horiz-adv-x="523" d="M309 -129Q348 -110 369 -87T390 -39Q390 -23 377 -23Q373 -23 367 -24T357 -25Q332 -25 316 -8T299 35Q299 64 319 83T371 102Q407 102 429 76T452 8Q452 -46 417 -87T318 -148L309 -129ZM80 -129Q119 -110 140 -87T161 -39Q161 -23 148 -23Q144 -23 138 -24T128 -25Q103 -25 87 -8T70 35Q70 64 90 83T142 102Q178 102 200 76T223 8Q223 -46 188 -87T89 -148L80 -129Z"  />
<glyph unicode="&#x2020;" horiz-adv-x="477" d="M76 316Q68 314 60 313T48 312Q37 312 32 318T27 342V377Q27 396 31 403T48 410Q60 410 71 407L218 377L184 586Q183 593 183 597T183 606Q183 620 190 624T218 629H257Q278 629 285 625T293 606Q293 601 293 597T291 586L257 377L404 407Q416 410 427 410Q440 410 444 403T449 377V342Q449 325 444 319T428 312Q424 312 416 313T404 315L257 342L299 -158Q300 -171 300 -176T301 -187Q301 -204 294 -209T265 -215H210Q190 -215 183 -210T175 -187Q175 -182 175 -177T176 -158L218 342L76 316Z"  />
<glyph unicode="&#x2021;" horiz-adv-x="477" d="M81 -23Q70 -25 63 -25T51 -26Q37 -26 32 -19T27 8V33Q27 55 31 63T47 71Q52 71 59 70T81 66L219 39L195 208L219 377L81 349Q66 346 59 345T47 344Q35 344 31 352T27 382V408Q27 428 32 435T51 442Q56 442 61 442T81 438L219 412L185 585Q185 589 184 596T183 607Q183 621 190 625T219 629H256Q278 629 285 625T293 607Q293 603 292 595T290 585L256 412L394 438Q408 441 413 441T423 442Q438 442 443 435T449 408V382Q449 360 445 352T428 344Q423 344 416 345T394 349L256 377L281 208L256 39L394 66Q408 69 415 70T428 71Q440 71 444 63T449 33V8Q449 -12 444 -19T424 -26Q419 -26 413 -26T394 -23L256 0L290 -170Q291 -174 292 -180T293 -192Q293 -206 286 -210T256 -215H219Q197 -215 190 -211T182 -192Q182 -189 183 -181T185 -170L219 0L81 -23Z"  />
<glyph unicode="&#x2022;" horiz-adv-x="350" d="M176 399Q200 399 220 390T256 366T280 331T289 286Q289 262 280 242T256 206T221 181T176 172Q152 172 132 181T96 205T71 241T62 286Q62 310 71 330T95 366T131 390T176 399Z"  />
<glyph unicode="&#x2026;" horiz-adv-x="865" d="M144 102Q173 102 191 86T210 44Q210 18 192 4T144 -11Q113 -11 95 3T77 44Q77 70 96 86T144 102ZM722 102Q751 102 769 86T788 44Q788 18 770 4T722 -11Q691 -11 673 3T655 44Q655 70 674 86T722 102ZM433 102Q462 102 480 86T499 44Q499 19 481 4T433 -11Q402 -11 384 3T366 44Q366 70 385 86T433 102Z"  />
<glyph unicode="&#x2030;" horiz-adv-x="1000" d="M96 467Q96 428 98 400T106 353T123 326T153 317Q171 317 182 325T199 352T207 398T209 467Q209 545 199 581T153 618Q118 618 107 584T96 467ZM26 467Q26 504 35 535T62 589T102 625T153 638Q180 638 203 625T243 590T269 536T279 467Q279 430 270 399T243 346T203 310T152 297Q125 297 102 310T62 345T36 399T26 467ZM536 638H597L161 -39H100L536 638ZM721 141Q721 178 730 209T757 263T797 299T848 312Q875 312 898 299T938 264T964 210T974 141Q974 104 965 73T938 20T898 -16T847 -29Q820 -29 797 -16T757 19T731 73T721 141ZM791 141Q791 102 793 74T801 27T818 0T848 -9Q866 -9 877 -1T894 26T902 72T904 141Q904 219 894 255T848 292Q813 292 802 258T791 141ZM419 141Q419 178 428 209T455 263T495 299T546 312Q573 312 596 299T636 264T662 210T672 141Q672 104 663 73T636 20T596 -16T545 -29Q518 -29 495 -16T455 19T429 73T419 141ZM489 141Q489 102 491 74T499 27T516 0T546 -9Q564 -9 575 -1T592 26T600 72T602 141Q602 219 592 255T546 292Q511 292 500 258T489 141Z"  />
<glyph unicode="&#x2039;" horiz-adv-x="261" d="M36 219L200 402H226L132 219L226 35H200L36 219Z"  />
<glyph unicode="&#x203A;" horiz-adv-x="261" d="M35 35L130 219L35 402H62L226 219L62 35H35Z"  />
<glyph unicode="&#x20AC;" horiz-adv-x="532" d="M443 258H168Q173 217 184 177T215 104T261 51T327 30Q375 30 413 57T482 119L501 106Q466 55 419 21T309 -14Q251 -14 208 9T134 71T87 158T64 258H10L17 290H62Q61 295 61 298T61 307Q61 315 61 322T62 338H10L17 370H66Q74 419 93 467T144 552T218 613T315 637Q343 637 366 631T406 617T436 603T458 597L471 603H481L487 461H464Q456 489 444 515T415 562T372 595T314 607Q277 607 250 585T205 528T177 451T164 370H468L462 338H163Q163 327 163 315T165 290H449L443 258Z"  />
<glyph unicode="&#x2122;" horiz-adv-x="1000" d="M392 671L403 573H386Q380 611 360 626T292 642H257V358Q257 338 258 326T265 307T280 298T307 294V277H124V294Q140 296 150 298T165 308T172 326T174 358V642H135Q90 642 71 627T43 573H26L36 671H392ZM710 391L839 671H975V653Q957 653 947 651T931 641T924 621T922 586V358Q922 337 923 325T930 307T946 298T975 294V277H780V294Q799 294 810 296T828 306T837 325T839 358V598H837L689 277H673L524 594H522V358Q522 318 531 306T569 294H587V277H436V294Q454 294 465 296T482 305T490 324T492 358V586Q492 608 490 621T482 642T465 651T436 653V671H577L710 391Z"  />

</font>
</defs>
</svg>
