<?xml  version="1.0" encoding="UTF-8"?>
<!DOCTYPE svg PUBLIC "-//W3C//DTD SVG 1.0//EN" "http://www.w3.org/TR/2001/REC-SVG-20010904/DTD/svg10.dtd" >
<svg xmlns="http://www.w3.org/2000/svg" >
<metadata>
<version>1.0</version>
<id><![CDATA[Univers LT W01 53 Ex Obl]]></id>
<vendor>Monotype Imaging Inc.</vendor>
<credits>
<name>Fonts.com WebFonts</name>
<URL>http://webfonts.fonts.com</URL>
<role>Home of the Web fonts</role>
</credits>
<license>
<URL>http://webfonts.fonts.com/Legal</URL>
</license>
<copyright><![CDATA[Copyright © 1990, 1998, 2002 Adobe Systems Incorporated.  All Rights Reserved. © 1981, 1998, 2002 Heidelberger Druckmaschinen AG. All rights reserved.]]></copyright>
<trademark><![CDATA[Univers is a trademark of Heidelberger Druckmaschinen AG, exclusively licensed through Linotype Library GmbH, and may be registered in certain jurisdictions.]]></trademark>
<licensee>
<name></name>
</licensee>
</metadata>
<defs >
<font horiz-adv-x="671" id="1a2e51bc-3bcd-4ef9-998e-6ba851e52024">
<font-face font-family="" panose-1="2 11 6 5 3 5 2 2 2 4" ascent="945" descent="-278" units-per-em="1000" alphabetic="0">
</font-face>
<missing-glyph horiz-adv-x="370" />

<glyph unicode="&#xA;" />
<glyph unicode="&#xD;" />
<glyph unicode=" " horiz-adv-x="370" />
<glyph unicode="!" horiz-adv-x="518" d="M354 722H470L337 176H255L354 722ZM227 110H337L314 0H204L227 110Z"  />
<glyph unicode="&quot;" horiz-adv-x="593" d="M503 722H591L546 508H458L503 722ZM308 722H396L351 508H263L308 722Z"  />
<glyph unicode="#" horiz-adv-x="740" d="M366 280H476L522 412H412L366 280ZM330 412H239L254 486H356L429 692H511L438 486H548L621 692H703L630 486H721L706 412H604L558 280H649L633 206H531L458 0H376L449 206H339L266 0H184L257 206H166L182 280H284L330 412Z"  />
<glyph unicode="$" horiz-adv-x="740" d="M493 659H487Q448 659 412 650T346 624T296 582T269 528Q266 513 268 499T280 472T310 450T362 434L442 420L493 659ZM424 63Q521 70 579 108T649 201Q655 231 644 250T609 282T551 302T478 314L424 63ZM349 -19Q201 -17 131 41T76 216H186Q180 181 189 154T222 107T282 76T366 63L421 320Q368 326 317 336T227 367T170 425T164 522Q186 624 277 681T511 741L526 812H584L569 741Q619 738 664 726T743 689T792 625T800 530H690Q693 561 684 583T656 620T610 644T550 656L498 410L621 388Q706 373 737 326T755 212Q744 162 716 121T642 51T538 3T407 -19L392 -90H334L349 -19Z"  />
<glyph unicode="%" horiz-adv-x="1110" d="M217 523Q235 609 291 660T434 711Q521 711 555 660T571 523Q553 437 497 386T354 335Q267 335 233 386T217 523ZM291 523Q284 488 287 464T301 424T329 401T367 393Q410 393 446 423T497 523Q512 592 489 622T422 653Q380 653 343 623T291 523ZM686 169Q704 255 760 306T903 357Q990 357 1024 306T1040 169Q1022 83 966 32T823 -19Q736 -19 702 32T686 169ZM760 169Q745 100 769 70T835 39Q878 39 914 69T966 169Q980 238 957 268T891 299Q870 299 850 292T812 269T781 228T760 169ZM1024 721L321 -29H239L942 721H1024Z"  />
<glyph unicode="&amp;" horiz-adv-x="962" d="M787 0L695 94Q664 70 629 50T555 14T470 -10T374 -19Q306 -19 254 -4T168 40T120 108T117 197Q124 232 141 263T190 323T267 375T378 421Q335 457 320 495T313 578Q319 609 337 638T386 690T456 727T548 741Q596 741 629 728T682 692T708 641T708 583Q684 467 531 401L716 221Q768 275 802 335T854 458H952Q939 416 924 378T887 305T839 234T775 163L942 0H787ZM435 363Q338 333 286 292T222 201Q215 170 223 143T253 97T309 66T390 55Q430 55 466 63T533 85T592 116T642 150L435 363ZM619 578Q624 601 619 618T601 648T571 666T535 673Q516 673 496 667T459 648T429 619T411 578Q403 542 424 511T478 453Q538 476 574 509T619 578Z"  />
<glyph unicode="&apos;" horiz-adv-x="370" d="M294 722H382L337 508H249L294 722Z"  />
<glyph unicode="(" horiz-adv-x="370" d="M202 -137Q148 -10 136 102T141 302Q160 389 220 501T389 741H471Q418 677 379 616T311 499T266 393T239 302Q230 261 227 212T227 106T245 -12T284 -137H202Z"  />
<glyph unicode=")" horiz-adv-x="370" d="M28 -137Q80 -73 119 -12T187 105T232 211T259 302Q268 343 271 392T271 498T254 616T215 741H297Q351 614 363 502T357 302Q339 215 279 103T110 -137H28Z"  />
<glyph unicode="*" horiz-adv-x="592" d="M259 406L378 528L223 508L239 582L385 562L317 684L394 722L420 582L504 722L565 684L445 562L601 582L585 508L438 528L505 406L434 368L404 508L314 368L259 406Z"  />
<glyph unicode="+" horiz-adv-x="600" d="M364 506H452L407 297H616L597 209H388L344 0H256L300 209H91L110 297H319L364 506Z"  />
<glyph unicode="&#x2c;" horiz-adv-x="370" d="M181 110H299L154 -104H72L181 110Z"  />
<glyph unicode="-" horiz-adv-x="444" d="M120 311H456L437 223H101L120 311Z"  />
<glyph unicode="." horiz-adv-x="370" d="M153 110H263L240 0H130L153 110Z"  />
<glyph unicode="/" horiz-adv-x="444" d="M493 741H591L105 -19H7L493 741Z"  />
<glyph unicode="0" horiz-adv-x="740" d="M126 346Q165 531 267 621T521 711Q672 711 736 621T762 346Q722 160 620 71T366 -19Q215 -19 151 71T126 346ZM230 346Q216 281 217 229T237 140T291 83T383 63Q438 63 483 83T562 140T620 229T658 346Q671 410 670 462T650 552T596 609T504 629Q448 629 404 609T325 552T267 463T230 346Z"  />
<glyph unicode="1" horiz-adv-x="740" d="M486 586Q433 544 378 518T257 470L277 563Q340 585 402 617T517 692H612L465 0H361L486 586Z"  />
<glyph unicode="2" horiz-adv-x="740" d="M92 92Q226 160 326 216T494 321T600 411T645 491Q652 523 645 548T620 592T573 619T508 629Q424 629 370 591T301 490H191Q204 542 234 583T308 652T406 696T519 711Q591 711 640 694T716 649T752 583T752 505Q742 459 707 411T609 310T453 202T234 84L233 82H685L668 0H72L92 92Z"  />
<glyph unicode="3" horiz-adv-x="740" d="M365 398H411Q472 398 515 406T587 430T631 466T652 511Q658 538 649 559T620 596T569 620T499 629Q462 629 428 623T365 604T318 571T292 521H188Q197 564 226 599T296 659T389 697T494 711Q645 711 707 658T751 517Q745 491 732 466T696 418T644 381T576 358V356Q658 341 688 296T704 187Q682 87 588 34T338 -19Q198 -19 139 34T97 183H201Q195 152 205 130T237 92T291 70T361 63Q406 63 446 71T518 95T572 135T601 191Q626 316 395 316H347L365 398Z"  />
<glyph unicode="4" horiz-adv-x="740" d="M491 164H67L91 276L577 692H701L606 246H760L743 164H589L554 0H456L491 164ZM508 246L584 604L173 249L172 246H508Z"  />
<glyph unicode="5" horiz-adv-x="740" d="M260 692H782L765 610H338L279 392Q307 414 334 429T389 453T444 465T503 469Q548 469 593 456T673 414T722 340T725 232Q711 165 676 118T591 40T485 -5T368 -19Q319 -19 270 -9T183 24T126 87T120 186H230Q224 153 233 130T263 92T313 70T375 63Q417 63 457 73T531 105T588 156T620 228Q629 270 618 300T581 349T522 378T451 387Q422 387 394 381T340 363T293 331T257 285H156L260 692Z"  />
<glyph unicode="6" horiz-adv-x="740" d="M669 512Q672 574 634 601T517 629Q472 629 429 614T350 566T287 485T244 368Q308 423 370 442T491 462Q550 462 598 446T679 400T725 326T726 226Q714 167 683 122T606 45T501 -2T375 -19Q289 -19 234 6T151 78T120 189T133 332Q172 518 272 614T544 711Q667 711 727 659T773 512H669ZM227 221Q219 185 228 156T259 106T314 74T390 63Q432 63 470 74T540 106T592 156T621 221Q629 258 620 287T589 337T534 369T458 380Q416 380 378 369T309 338T257 288T227 221Z"  />
<glyph unicode="7" horiz-adv-x="740" d="M214 692H791L772 604L319 0H197L662 604H195L214 692Z"  />
<glyph unicode="8" horiz-adv-x="740" d="M366 -19Q301 -19 247 -7T156 31T103 95T97 185Q104 217 122 246T169 299T235 338T314 359L315 361Q279 368 253 384T211 422T190 470T190 523Q210 614 295 662T521 711Q658 711 723 663T768 523Q762 493 744 466T700 418T641 382T572 361L571 359Q614 354 645 339T696 300T721 247T721 185Q710 134 678 96T597 32T490 -6T366 -19ZM202 189Q191 135 237 99T383 63Q430 63 469 72T539 99T587 139T612 189Q618 215 609 238T577 278T519 306T437 316Q388 316 347 306T276 279T227 238T202 189ZM292 514Q287 489 297 468T329 432T383 407T455 398Q493 398 528 407T591 431T638 468T662 514Q668 544 659 565T629 601T575 622T504 629Q422 629 364 602T292 514Z"  />
<glyph unicode="9" horiz-adv-x="740" d="M430 325Q481 325 521 339T589 375T635 424T658 477Q664 502 658 529T633 578T580 615T495 629Q445 629 405 615T337 579T291 529T268 477Q263 451 268 424T293 375T346 339T430 325ZM221 185Q217 153 227 130T257 92T307 70T373 63Q469 63 540 131T653 350H651Q623 318 592 297T526 264T455 248T382 243Q335 243 291 257T214 301T167 373T164 474Q175 526 204 569T278 644T381 693T508 711Q575 711 630 696T720 643T767 540T756 373Q734 269 699 195T614 74T497 4T345 -19Q289 -19 244 -8T167 29T120 92T111 185H221Z"  />
<glyph unicode=":" horiz-adv-x="370" d="M237 502H347L323 392H213L237 502ZM153 110H263L240 0H130L153 110Z"  />
<glyph unicode=";" horiz-adv-x="370" d="M181 110H299L154 -104H72L181 110ZM265 502H375L351 392H241L265 502Z"  />
<glyph unicode="&lt;" horiz-adv-x="600" d="M109 290L662 514L644 426L214 253L570 80L551 -8L93 216L109 290Z"  />
<glyph unicode="=" horiz-adv-x="600" d="M132 402H638L620 314H114L132 402ZM88 192H594L575 104H69L88 192Z"  />
<glyph unicode="&gt;" horiz-adv-x="600" d="M64 80L494 253L138 426L156 514L615 290L599 216L45 -8L64 80Z"  />
<glyph unicode="?" horiz-adv-x="593" d="M271 258Q276 284 292 305T337 347L469 442Q503 466 521 495T546 553Q557 610 520 638T401 667Q358 667 313 659T229 640L246 722Q293 729 343 735T439 741Q483 741 526 733T600 703T647 646T650 555Q645 532 635 511T607 467T560 422T492 370L388 299Q369 287 362 274T350 243L334 169H252L271 258ZM225 110H335L312 0H202L225 110Z"  />
<glyph unicode="@" horiz-adv-x="800" d="M581 394Q588 428 570 451T520 475Q484 475 456 460T406 423T373 375T356 329Q347 287 363 262T416 236Q444 236 471 251T520 289T559 340T581 394ZM778 150Q706 69 613 25T415 -19Q326 -19 258 8T148 84T92 201T95 352Q113 438 158 509T269 632T414 712T582 741Q651 741 710 719T810 655T868 557T871 429Q855 354 816 302T728 217T632 169T550 154Q526 154 512 167T501 209H499Q473 184 441 169T366 154Q340 154 318 165T282 198T262 249T265 315Q274 359 299 402T359 480T438 536T530 557Q565 557 591 541T630 489L657 543H731L610 293Q606 283 602 272T596 254Q594 246 598 238T620 230Q645 230 672 243T723 281T766 338T794 412Q807 473 794 520T749 600T668 650T559 667Q493 667 431 643T319 577T234 479T184 359Q170 292 180 236T223 140T310 78T439 55Q508 55 575 80T696 150H778Z"  />
<glyph unicode="A" horiz-adv-x="888" d="M704 188H261L128 0H12L536 722H658L876 0H757L704 188ZM681 270L579 634L320 270H681Z"  />
<glyph unicode="B" horiz-adv-x="814" d="M249 722H590Q664 722 713 711T791 678T827 621T825 540Q810 471 765 433T647 380L646 377Q688 372 717 356T762 316T782 263T780 201Q771 160 748 124T686 60T591 16T462 0H96L249 722ZM217 82H466Q519 82 555 91T616 118T652 158T671 207Q685 270 648 303T514 336H271L217 82ZM289 418H555Q621 418 663 444T718 528Q723 553 720 573T701 609T653 632T567 640H336L289 418Z"  />
<glyph unicode="C" horiz-adv-x="888" d="M864 201Q843 141 803 100T711 32T596 -7T467 -19Q370 -19 306 12T206 96T163 217T171 361Q180 404 198 449T246 536T314 615T405 681T519 725T658 741Q722 741 774 726T861 683T913 617T924 532H808Q809 567 796 591T758 631T702 652T632 659Q570 659 514 641T411 586T331 493T281 361Q265 285 274 229T315 136T394 81T505 63Q542 63 579 71T649 97T708 140T748 201H864Z"  />
<glyph unicode="D" horiz-adv-x="888" d="M223 82H419Q508 82 571 106T677 169T744 258T780 361Q795 431 789 483T752 570T663 622T513 640H342L223 82ZM255 722H536Q656 722 733 698T851 626T899 509T888 352Q853 185 731 93T398 0H102L255 722Z"  />
<glyph unicode="E" horiz-adv-x="740" d="M261 722H801L784 640H348L300 412H708L690 330H282L229 82H677L660 0H108L261 722Z"  />
<glyph unicode="F" horiz-adv-x="667" d="M249 722H762L745 640H336L286 404H675L657 322H268L200 0H96L249 722Z"  />
<glyph unicode="G" horiz-adv-x="962" d="M603 377H938L869 51Q769 13 680 -3T506 -19Q396 -19 323 12T208 95T156 216T161 361Q175 429 212 497T309 619T456 707T654 741Q730 741 789 730T888 693T948 629T965 535H855Q853 569 837 593T792 631T727 652T646 659Q570 659 507 636T395 572T316 478T271 362Q258 302 267 248T307 153T393 88T527 63Q587 63 653 75T777 109L817 295H586L603 377Z"  />
<glyph unicode="H" horiz-adv-x="888" d="M747 336H283L212 0H108L261 722H365L301 418H765L829 722H933L780 0H676L747 336Z"  />
<glyph unicode="I" horiz-adv-x="296" d="M249 722H353L200 0H96L249 722Z"  />
<glyph unicode="J" horiz-adv-x="740" d="M681 722H785L688 264Q671 187 638 133T557 45T449 -4T318 -19Q263 -19 216 -6T137 35T91 105T88 205H198Q191 166 199 139T227 95T277 71T344 63Q435 63 498 112T586 272L681 722Z"  />
<glyph unicode="K" horiz-adv-x="814" d="M274 722H378L310 399L766 722H918L439 396L799 0H647L307 387L225 0H121L274 722Z"  />
<glyph unicode="L" horiz-adv-x="667" d="M274 722H378L242 82H658L641 0H121L274 722Z"  />
<glyph unicode="M" horiz-adv-x="1184" d="M352 648H350L212 0H108L261 722H427L611 88L1063 722H1229L1076 0H972L1110 648H1108L647 0H537L352 648Z"  />
<glyph unicode="N" horiz-adv-x="888" d="M838 722H942L789 0H647L336 616H334L203 0H99L252 722H394L706 106H708L838 722Z"  />
<glyph unicode="O" horiz-adv-x="962" d="M152 361Q161 404 179 449T227 536T295 615T386 681T500 725T639 741Q715 741 771 725T866 681T928 616T963 536T974 449T964 361Q950 296 915 229T821 107T676 16T477 -19Q363 -19 293 16T187 106T145 229T152 361ZM262 361Q248 294 257 239T298 145T378 85T494 63Q560 63 619 84T725 145T806 239T854 361Q868 428 858 483T818 577T737 637T621 659Q555 659 496 638T390 577T310 483T262 361Z"  />
<glyph unicode="P" horiz-adv-x="814" d="M544 399Q635 399 683 430T745 527Q751 556 747 577T724 613T672 633T587 640H361L310 399H544ZM274 722H606Q687 722 740 710T822 674T858 613T855 527Q845 480 821 441T759 375T670 332T552 317H292L225 0H121L274 722Z"  />
<glyph unicode="Q" horiz-adv-x="962" d="M971 82L954 0H625Q608 -5 591 -8T555 -14Q536 -16 517 -17T477 -19Q363 -19 293 16T187 106T145 229T152 361Q161 404 179 449T227 536T295 615T386 681T500 725T639 741Q715 741 771 725T866 681T928 616T963 536T974 449T964 361Q956 325 940 287T900 213T843 144T772 84L771 82H971ZM262 361Q248 294 257 239T298 145T378 85T494 63Q560 63 619 84T725 145T806 239T854 361Q868 428 858 483T818 577T737 637T621 659Q555 659 496 638T390 577T310 483T262 361Z"  />
<glyph unicode="R" horiz-adv-x="814" d="M200 0H96L249 722H604Q688 722 738 709T813 670T842 610T837 531Q830 498 813 470T769 419T709 383T636 363V361Q671 356 693 346T726 316T741 265T741 188Q738 130 736 83T742 0H632Q629 19 629 46T630 105T632 170T633 233Q633 252 627 268T602 297T552 315T469 322H268L200 0ZM286 404H523Q606 404 658 428T725 522Q739 588 705 614T575 640H336L286 404Z"  />
<glyph unicode="S" horiz-adv-x="814" d="M727 530Q731 568 717 593T674 632T607 653T524 659Q485 659 449 650T383 624T333 582T306 528Q303 513 305 499T317 472T347 450T399 434L658 388Q743 373 774 326T792 212Q780 158 748 115T665 43T547 -3T400 -19Q246 -19 172 39T113 216H223Q216 180 227 152T265 104T331 74T423 63Q479 63 525 73T604 102T659 146T686 201Q694 238 675 259T619 293T535 311T436 323T338 340T256 372T205 429T201 522Q212 574 242 615T319 684T427 726T563 741Q619 741 672 732T765 698T825 633T837 530H727Z"  />
<glyph unicode="T" horiz-adv-x="740" d="M453 634H147L165 722H881L863 634H557L422 0H318L453 634Z"  />
<glyph unicode="U" horiz-adv-x="888" d="M829 722H933L842 291Q825 214 788 156T698 59T579 1T440 -19Q366 -19 309 0T215 59T166 156T170 291L261 722H365L273 286Q250 182 297 123T457 63Q569 63 641 122T737 286L829 722Z"  />
<glyph unicode="V" horiz-adv-x="814" d="M165 722H280L429 88L845 722H955L470 0H343L165 722Z"  />
<glyph unicode="W" horiz-adv-x="1258" d="M1289 722H1399L995 0H851L765 634H763L407 0H263L165 722H275L354 88H356L712 722H852L940 88H942L1289 722Z"  />
<glyph unicode="X" horiz-adv-x="814" d="M474 311L152 0H12L421 375L197 722H337L507 436L808 722H936L558 375L802 0H662L474 311Z"  />
<glyph unicode="Y" horiz-adv-x="814" d="M355 0L419 301L165 722H299L489 387L821 722H955L523 301L459 0H355Z"  />
<glyph unicode="Z" horiz-adv-x="740" d="M56 94L714 640H194L211 722H841L818 612L181 82H721L704 0H36L56 94Z"  />
<glyph unicode="[" horiz-adv-x="370" d="M274 741H482L469 683H349L187 -79H307L295 -137H87L274 741Z"  />
<glyph unicode="\" horiz-adv-x="444" d="M169 741H267L429 -19H331L169 741Z"  />
<glyph unicode="]" horiz-adv-x="370" d="M29 -79H149L311 683H191L204 741H412L225 -137H17L29 -79Z"  />
<glyph unicode="^" horiz-adv-x="600" d="M121 288L406 692H488L601 288H513L428 604L209 288H121Z"  />
<glyph unicode="_" horiz-adv-x="500" d="M-16 -75H484L473 -125H-27L-16 -75Z"  />
<glyph unicode="`" horiz-adv-x="296" d="M155 722H277L362 582H280L155 722Z"  />
<glyph unicode="a" horiz-adv-x="666" d="M171 371Q185 416 215 445T285 491T368 514T453 521Q505 521 547 511T616 479T655 424T656 343L603 96Q597 67 593 44T587 0H495Q497 17 499 35T506 70H504Q477 42 450 25T395 -2T335 -15T266 -19Q218 -19 182 -7T122 28T89 80T87 145Q104 225 174 266T380 311Q437 313 477 313T552 313L555 327Q562 363 557 387T534 426T488 447T424 453Q372 453 330 433T275 371H171ZM537 245Q512 245 475 245T380 242Q342 240 310 236T254 221T213 193T191 148Q187 129 191 112T209 80T246 58T306 49Q397 49 454 90T532 222L537 245Z"  />
<glyph unicode="b" horiz-adv-x="740" d="M239 722H337L277 436Q334 486 394 503T515 521Q571 521 618 502T695 447T738 362T737 251Q724 190 691 140T612 55T511 1T400 -19Q333 -19 281 4T199 71Q195 53 190 35T180 0H82Q90 31 98 61T111 118L239 722ZM237 251Q227 203 233 166T261 102T315 63T392 49Q436 49 475 62T546 102T600 165T633 251Q643 299 637 336T610 400T556 439T478 453Q434 453 395 440T324 400T270 337T237 251Z"  />
<glyph unicode="c" horiz-adv-x="666" d="M644 162Q630 114 599 80T525 24T435 -8T338 -19Q268 -19 219 0T141 54T104 139T109 250Q122 313 153 363T231 449T335 502T462 521Q507 521 548 512T620 481T666 425T679 342H575Q580 397 545 425T448 453Q408 453 371 440T302 402T247 338T213 250Q204 210 208 174T229 110T278 66T357 49Q426 49 476 79T540 162H644Z"  />
<glyph unicode="d" horiz-adv-x="740" d="M709 722H807L679 118Q674 92 669 62T658 0H560Q562 16 564 33T571 71Q523 27 461 4T332 -19Q276 -19 229 0T152 55T109 140T109 251Q122 312 155 362T235 447T336 501T447 521Q507 521 560 504T649 436L709 722ZM213 251Q203 203 209 166T236 102T290 63T368 49Q411 49 450 62T522 102T576 165T609 251Q619 299 613 336T585 400T531 439T454 453Q410 453 371 440T300 400T246 337T213 251Z"  />
<glyph unicode="e" horiz-adv-x="666" d="M575 293Q584 336 575 366T546 416T497 444T435 453Q359 453 301 415T213 293H575ZM665 225H195Q190 186 197 154T223 99T272 62T343 49Q370 49 397 55T450 73T497 104T533 151H637Q619 101 585 68T509 16T422 -11T334 -19Q265 -19 215 -1T135 51T96 133T100 241Q115 310 146 362T222 449T326 503T452 521Q586 521 642 452T671 255L665 225Z"  />
<glyph unicode="f" horiz-adv-x="444" d="M160 0L252 434H121L136 502H267L273 532Q283 577 299 613T341 674T405 714T496 728Q517 728 540 727T585 722L571 654Q559 656 542 658T507 660Q451 660 420 635T374 547L365 502H526L511 434H350L258 0H160Z"  />
<glyph unicode="g" horiz-adv-x="740" d="M171 -35Q168 -56 173 -74T194 -107T238 -129T308 -138Q374 -138 419 -123T494 -82T540 -19T566 62L574 97H572Q526 52 467 31T346 9Q283 9 234 27T154 79T112 160T112 265Q124 323 155 370T232 450T335 502T455 521Q521 521 568 501T651 434Q659 470 670 502H762Q756 480 750 457T737 405L666 70Q650 -6 620 -58T545 -144T439 -191T300 -206Q228 -206 180 -196T105 -164T69 -110T67 -35H171ZM217 267Q199 181 237 129T371 77Q471 77 531 129T610 267Q619 308 614 342T589 401T535 439T451 453Q403 453 364 440T295 402T246 343T217 267Z"  />
<glyph unicode="h" horiz-adv-x="740" d="M245 722H343L278 414H280Q327 471 388 496T516 521Q569 521 610 506T678 462T712 388T709 285L648 0H550L610 280Q627 365 592 409T485 453Q450 453 412 442T340 405T280 338T240 237L190 0H92L245 722Z"  />
<glyph unicode="i" horiz-adv-x="296" d="M206 502H304L197 0H99L206 502ZM252 722H350L329 622H231L252 722Z"  />
<glyph unicode="j" horiz-adv-x="296" d="M206 502H304L187 -47Q170 -125 126 -161T-7 -198Q-35 -198 -50 -197T-75 -194L-60 -122Q-47 -124 -35 -124T-11 -124Q12 -124 29 -120T58 -103T80 -69T97 -11L206 502ZM252 722H350L329 622H231L252 722Z"  />
<glyph unicode="k" horiz-adv-x="666" d="M252 722H350L260 296L572 502H712L387 285L653 0H507L256 278L197 0H99L252 722Z"  />
<glyph unicode="l" horiz-adv-x="296" d="M252 722H350L197 0H99L252 722Z"  />
<glyph unicode="m" horiz-adv-x="1110" d="M174 388Q181 417 185 444T195 502H287Q284 483 281 461T272 413H274Q329 471 387 496T508 521Q571 521 613 490T664 395Q683 421 709 444T765 484T829 511T898 521Q952 521 991 508T1055 466T1085 393T1079 288L1018 0H920L973 251Q983 297 983 334T973 397T938 438T874 453Q842 453 808 441T744 403T690 334T653 229L604 0H506L561 257Q582 359 558 406T466 453Q434 453 399 441T333 404T278 338T242 243L190 0H92L174 388Z"  />
<glyph unicode="n" horiz-adv-x="740" d="M174 388Q181 417 185 444T195 502H287Q284 483 281 461T272 413H274Q329 471 388 496T516 521Q569 521 610 506T678 462T712 388T709 285L648 0H550L610 280Q627 365 592 409T485 453Q450 453 412 442T340 405T280 338T240 237L190 0H92L174 388Z"  />
<glyph unicode="o" horiz-adv-x="740" d="M737 251Q710 121 615 51T366 -19Q212 -19 147 51T109 251Q122 312 152 362T229 447T339 501T481 521Q635 521 700 451T737 251ZM466 453Q415 453 373 438T298 395T244 331T213 251Q204 208 209 171T236 107T293 65T380 49Q431 49 474 64T549 107T602 171T633 251Q642 294 637 331T610 395T553 437T466 453Z"  />
<glyph unicode="p" horiz-adv-x="740" d="M168 388Q175 417 179 444T189 502H287Q285 488 283 471T276 431Q324 475 386 498T515 521Q571 521 618 502T695 447T738 362T737 251Q724 190 691 140T612 55T511 1T400 -19Q340 -19 287 -2T198 66L143 -192H45L168 388ZM237 251Q227 203 233 166T261 102T315 63T392 49Q436 49 475 62T546 102T600 165T633 251Q643 299 637 336T610 400T556 439T478 453Q434 453 395 440T324 400T270 337T237 251Z"  />
<glyph unicode="q" horiz-adv-x="740" d="M570 66Q513 16 453 -1T332 -19Q276 -19 229 0T152 55T109 140T109 251Q122 312 155 362T235 447T336 501T447 521Q514 521 566 498T648 431Q652 449 657 466T667 502H765Q757 475 751 449T738 394L613 -192H515L570 66ZM213 251Q203 203 209 166T236 102T290 63T368 49Q411 49 450 62T522 102T576 165T609 251Q619 299 613 336T585 400T531 439T454 453Q410 453 371 440T300 400T246 337T213 251Z"  />
<glyph unicode="r" horiz-adv-x="444" d="M174 388Q181 417 185 444T195 502H287Q283 479 279 454T269 402H271Q295 432 317 452T364 485T421 503T495 509H528L509 421Q499 425 489 426T464 427Q420 427 383 413T317 373T269 315T242 243L190 0H92L174 388Z"  />
<glyph unicode="s" horiz-adv-x="666" d="M200 143Q198 117 207 99T235 70T281 54T342 49Q425 49 471 72T525 136Q530 158 515 171T474 192T412 206T340 218T269 234T209 260T172 301T167 364Q176 406 201 435T263 484T346 512T445 521Q484 521 525 515T597 493T646 447T657 372H562Q562 396 553 411T526 436T486 449T434 453Q401 453 373 448T322 432T286 408T268 377Q263 351 284 334T360 306L519 275Q588 261 615 231T630 143Q613 62 537 22T317 -19Q267 -19 224 -10T150 18T105 68T96 143H200Z"  />
<glyph unicode="t" horiz-adv-x="444" d="M286 594L393 635L365 502H513L498 434H350L289 145Q280 104 290 83T347 62Q361 62 381 63T423 68L409 0Q359 -6 314 -6Q277 -6 250 0T206 23T185 68T189 138L252 434H121L136 502H267L286 594Z"  />
<glyph unicode="u" horiz-adv-x="740" d="M672 114Q666 85 662 58T652 0H560Q562 19 565 41T575 89H573Q518 31 459 6T331 -19Q278 -19 237 -4T169 40T135 114T138 217L199 502H297L237 222Q219 137 254 93T361 49Q396 49 434 60T506 97T567 164T606 265L657 502H755L672 114Z"  />
<glyph unicode="v" horiz-adv-x="666" d="M119 502H229L352 88L651 502H761L395 0H269L119 502Z"  />
<glyph unicode="w" horiz-adv-x="1110" d="M118 502H231L323 88L602 502H726L832 82L1105 502H1206L875 0H748L640 420L358 0H238L118 502Z"  />
<glyph unicode="x" horiz-adv-x="666" d="M618 502H743L453 262L656 0H516L370 205L138 0H10L316 262L133 502H267L402 317L618 502Z"  />
<glyph unicode="y" horiz-adv-x="666" d="M763 502L252 -192H142L287 0L117 502H233L360 94L659 502H763Z"  />
<glyph unicode="z" horiz-adv-x="593" d="M170 502H642L624 420L192 74H561L545 0H48L65 82L497 428H154L170 502Z"  />
<glyph unicode="{" horiz-adv-x="370" d="M159 170Q164 193 160 211T147 241T124 261T95 268L109 336Q124 336 140 343T172 362T198 393T215 434L254 617Q261 648 277 671T313 709T354 733T394 741H472L459 683H406Q375 683 361 660T340 609L300 421Q293 389 278 367T245 332T211 311T184 303V301Q193 299 207 293T233 273T251 237T250 183L210 -5Q207 -19 206 -32T208 -55T220 -72T244 -79H297L285 -137H207Q189 -137 171 -129T140 -106T120 -67T120 -13L159 170Z"  />
<glyph unicode="|" horiz-adv-x="474" d="M348 835V-278H279V835H348Z"  />
<glyph unicode="}" horiz-adv-x="370" d="M214 741H292Q310 741 328 733T359 710T379 671T378 617L339 434Q334 411 338 393T352 363T375 343T403 336L389 268Q374 268 358 261T326 242T300 211T283 170L244 -13Q238 -44 222 -67T186 -105T145 -129T105 -137H27L39 -79H92Q123 -79 137 -56T158 -5L198 183Q205 215 220 237T253 272T287 292T314 301V303Q305 304 291 311T265 331T247 367T248 421L288 609Q291 622 292 635T290 659T278 676T254 683H201L214 741Z"  />
<glyph unicode="~" horiz-adv-x="600" d="M121 243Q153 289 189 310T265 332Q291 332 319 321T374 297T424 273T463 262Q485 262 509 279T566 332L587 263Q547 216 513 195T443 174Q413 174 391 184T345 209Q323 223 299 233T241 244Q189 244 142 174L121 243Z"  />
<glyph unicode="&#xA0;" horiz-adv-x="370" />
<glyph unicode="&#xA1;" horiz-adv-x="518" d="M294 359H376L277 -187H161L294 359ZM318 535H428L404 425H294L318 535Z"  />
<glyph unicode="&#xA2;" horiz-adv-x="740" d="M253 1Q180 30 153 94T146 250Q159 313 190 363T268 449T372 502T499 521Q523 521 543 518L598 617L646 597L596 508Q653 492 687 452T716 342H612Q615 377 601 401T557 439L343 56Q364 49 394 49Q463 49 513 79T577 162H681Q667 114 636 80T562 24T472 -8T375 -19Q337 -19 304 -13L248 -115L200 -95L253 1ZM506 452Q501 453 496 453T485 453Q445 453 408 440T339 402T284 338T250 250Q239 196 250 151T297 79L506 452Z"  />
<glyph unicode="&#xA3;" horiz-adv-x="740" d="M153 418H256L274 502Q286 560 317 605T391 680T487 725T593 741Q648 741 692 729T766 690T805 624T804 528H700Q711 594 677 626T576 659Q546 659 515 650T455 620T406 570T376 496L360 418H572L556 344H344L288 82H684L667 0H64L81 82H184L240 344H137L153 418Z"  />
<glyph unicode="&#xA4;" horiz-adv-x="740" d="M146 142L214 198Q197 229 192 266T196 346Q204 388 225 425T276 494L233 549L295 601L339 545Q374 568 414 581T496 594Q538 594 573 581T634 544L702 601L741 549L674 493Q691 462 695 425T692 346Q683 304 662 266T610 198L654 142L593 91L548 148Q513 124 473 111T391 98Q349 98 315 111T254 147L186 91L146 142ZM479 512Q446 512 414 500T356 465T311 412T284 346Q276 311 282 281T305 228T348 193T408 180Q441 180 473 192T531 227T577 280T604 346Q611 381 605 411T582 464T539 499T479 512Z"  />
<glyph unicode="&#xA5;" horiz-adv-x="740" d="M352 159H163L177 227H366L388 329H199L213 397H355L204 722H326L454 397L720 722H842L553 397H695L681 329H492L470 227H659L645 159H456L422 0H318L352 159Z"  />
<glyph unicode="&#xA6;" horiz-adv-x="474" d="M347 751V362H279V751H347ZM347 194V-194H279V194H347Z"  />
<glyph unicode="&#xA7;" horiz-adv-x="592" d="M109 87Q146 67 196 52T294 36Q353 36 389 55T431 104Q435 121 432 132T416 154T379 174T317 198Q260 218 225 235T172 270T149 305T149 345Q152 361 160 376T186 408T233 442T308 478Q278 492 260 506T232 534T222 565T224 599Q238 660 298 700T457 741Q498 741 543 733T636 711L617 623Q573 646 527 656T444 667Q391 667 363 648T329 601Q323 575 343 558T395 527T465 500T534 470T584 429T595 370Q587 335 551 301T440 244L439 242Q499 222 522 188T537 112Q529 75 506 47T449 0T373 -28T283 -38Q265 -38 240 -35T189 -27T137 -15T91 -1L109 87ZM371 451Q309 430 282 405T250 358Q246 340 258 323T303 294L373 269Q439 293 464 315T494 356Q499 379 486 394T431 427L371 451Z"  />
<glyph unicode="&#xA8;" horiz-adv-x="296" d="M149 722H247L226 622H128L149 722ZM355 722H453L432 622H334L355 722Z"  />
<glyph unicode="&#xA9;" horiz-adv-x="800" d="M658 292Q645 255 623 226T572 176T510 145T443 134Q393 134 356 151T297 199T269 271T272 361Q282 410 305 451T363 523T441 571T536 588Q572 588 601 578T650 548T681 499T688 431H614Q613 469 588 491T521 514Q490 514 464 503T417 471T382 422T360 361Q353 329 356 302T372 253T407 220T459 208Q502 208 536 230T584 292H658ZM97 361Q113 440 158 509T265 629T403 711T558 741Q637 741 699 711T802 630T858 509T857 361Q840 282 796 213T689 93T551 11T396 -19Q317 -19 254 11T151 92T95 213T97 361ZM185 361Q171 298 181 244T221 150T299 86T413 63Q478 63 536 86T642 149T722 244T769 361Q782 424 772 478T732 572T654 636T540 659Q475 659 417 636T311 573T231 478T185 361Z"  />
<glyph unicode="&#xAA;" horiz-adv-x="434" d="M416 440H414Q382 406 347 397T266 387Q199 387 166 415T142 487Q152 537 200 563T352 590H443L444 594Q452 629 429 644T363 659Q333 659 307 648T273 616H191Q200 644 219 662T265 692T321 707T381 711Q453 711 492 686T520 604L489 456Q486 442 484 426T480 397H406L416 440ZM432 538H381Q309 538 270 529T224 490Q222 482 225 473T237 457T260 444T294 439Q351 439 386 462T430 528L432 538Z"  />
<glyph unicode="&#xAB;" horiz-adv-x="593" d="M308 461H390L231 267L308 73H220L133 267L308 461ZM512 461H594L435 267L512 73H424L337 267L512 461Z"  />
<glyph unicode="&#xAC;" horiz-adv-x="600" d="M532 314H114L132 402H638L576 107H488L532 314Z"  />
<glyph unicode="&#xAD;" horiz-adv-x="444" d="M120 311H456L437 223H101L120 311Z"  />
<glyph unicode="&#xAE;" horiz-adv-x="800" d="M373 573H536Q617 573 652 545T673 449Q661 392 624 366T538 334L612 147H518L450 334H404L364 147H282L373 573ZM488 392Q504 392 520 394T549 402T572 422T587 457Q591 476 585 487T568 505T543 513T515 515H442L416 392H488ZM97 361Q113 440 158 509T265 629T403 711T558 741Q637 741 699 711T802 630T858 509T857 361Q840 282 796 213T689 93T551 11T396 -19Q317 -19 254 11T151 92T95 213T97 361ZM185 361Q171 298 181 244T221 150T299 86T413 63Q478 63 536 86T642 149T722 244T769 361Q782 424 772 478T732 572T654 636T540 659Q475 659 417 636T311 573T231 478T185 361Z"  />
<glyph unicode="&#xAF;" horiz-adv-x="296" d="M125 705H471L456 637H110L125 705Z"  />
<glyph unicode="&#xB0;" horiz-adv-x="400" d="M178 568Q184 598 201 624T241 669T293 700T351 711Q381 711 404 700T443 670T464 624T464 568Q458 538 441 512T401 467T349 436T290 425Q260 425 237 436T198 466T178 512T178 568ZM230 568Q222 530 242 504T301 477Q320 477 338 484T371 503T397 532T412 568Q420 606 399 632T340 659Q321 659 303 652T270 633T245 604T230 568Z"  />
<glyph unicode="&#xB1;" horiz-adv-x="600" d="M364 506H452L420 359H629L611 271H402L370 124H282L314 271H105L123 359H332L364 506ZM66 88H572L553 0H47L66 88Z"  />
<glyph unicode="&#xB2;" horiz-adv-x="481" d="M115 353Q288 429 374 483T468 575Q474 603 448 623T379 643Q329 643 295 620T252 559H164Q182 636 243 673T390 711Q440 711 474 701T527 673T552 632T552 583Q541 532 464 474T241 355V353H516L502 285H101L115 353Z"  />
<glyph unicode="&#xB3;" horiz-adv-x="481" d="M206 414Q203 396 209 383T230 360T263 347T305 342Q362 342 402 357T448 400Q455 430 421 447T311 465H280L294 533H324Q402 533 436 551T476 591Q478 600 472 609T452 625T421 638T380 643Q359 643 338 640T300 629T270 609T254 579H172Q179 612 198 636T246 677T308 702T380 711Q485 711 527 679T558 594Q551 562 523 536T442 504V502Q497 490 517 463T529 397Q516 337 455 306T286 274Q189 274 150 308T124 414H206Z"  />
<glyph unicode="&#xB4;" horiz-adv-x="296" d="M325 722H447L264 582H182L325 722Z"  />
<glyph unicode="&#xB5;" horiz-adv-x="740" d="M199 502H297L237 222Q219 137 254 93T361 49Q396 49 434 60T506 97T567 164T606 265L657 502H755L672 114Q666 85 662 58T652 0H560Q562 19 565 41T575 89H573Q518 31 459 6T331 -19Q297 -19 259 -7T197 31L149 -192H51L199 502Z"  />
<glyph unicode="&#xB6;" horiz-adv-x="600" d="M326 425Q226 425 177 464T141 571Q158 651 222 686T409 722H680L523 -19H435L577 648H462L320 -19H232L326 425Z"  />
<glyph unicode="&#xB7;" horiz-adv-x="370" d="M184 310Q190 338 213 357T265 377Q293 377 308 358T318 310Q312 282 289 263T237 243Q209 243 194 262T184 310Z"  />
<glyph unicode="&#xB8;" horiz-adv-x="296" d="M131 9H183L112 -63L113 -65Q124 -61 136 -60T156 -58Q199 -58 222 -77T238 -127Q233 -148 219 -163T185 -187T140 -201T91 -206Q61 -206 31 -200T-22 -185L1 -144Q17 -150 38 -155T79 -160Q105 -160 125 -152T150 -127Q153 -113 143 -105T106 -96Q99 -96 89 -97T62 -104L48 -81L131 9Z"  />
<glyph unicode="&#xB9;" horiz-adv-x="481" d="M359 626Q327 603 292 587T212 558L227 632Q270 645 310 663T381 700H457L369 285H287L359 626Z"  />
<glyph unicode="&#xBA;" horiz-adv-x="481" d="M146 549Q163 627 224 669T392 711Q497 711 541 669T569 549Q552 471 490 429T323 387Q217 387 173 429T146 549ZM226 541Q217 498 248 469T334 439Q361 439 386 447T432 468T466 501T485 541Q497 598 467 628T381 659Q324 659 281 629T226 541Z"  />
<glyph unicode="&#xBB;" horiz-adv-x="593" d="M476 267L399 461H487L574 267L399 73H317L476 267ZM272 267L195 461H283L370 267L195 73H113L272 267Z"  />
<glyph unicode="&#xBC;" horiz-adv-x="1110" d="M841 89H561L578 168L889 415H992L937 157H1037L1023 89H923L904 0H822L841 89ZM896 347L649 157H855L896 347ZM399 626Q367 603 332 587T252 558L267 632Q310 645 350 663T421 700H497L409 285H327L399 626ZM137 -61L938 753H1012L211 -61H137Z"  />
<glyph unicode="&#xBD;" horiz-adv-x="1110" d="M399 626Q367 603 332 587T252 558L267 632Q310 645 350 663T421 700H497L409 285H327L399 626ZM633 68Q805 144 892 198T987 290Q993 318 967 338T897 358Q847 358 813 335T770 274H682Q701 351 762 388T909 426Q959 426 992 416T1045 388T1070 347T1070 298Q1059 247 983 189T760 70L759 68H1034L1020 0H619L633 68ZM938 753H1012L211 -61H137L938 753Z"  />
<glyph unicode="&#xBE;" horiz-adv-x="1110" d="M914 89H634L651 168L962 415H1065L1010 157H1110L1096 89H996L977 0H895L914 89ZM969 347L722 157H928L969 347ZM344 533H374Q452 533 486 551T526 591Q528 600 522 609T502 625T471 638T430 643Q409 643 388 640T350 629T320 609T304 579H222Q229 612 248 636T296 677T358 702T430 711Q535 711 577 679T608 594Q601 562 573 536T492 504V502Q547 490 567 463T579 397Q566 337 505 306T336 274Q239 274 200 308T174 414H256Q253 396 259 383T280 360T313 347T355 342Q412 342 452 357T498 400Q505 430 471 447T361 465H330L344 533ZM237 -61L1038 753H1112L311 -61H237Z"  />
<glyph unicode="&#xBF;" horiz-adv-x="593" d="M373 366H455L436 277Q431 251 415 230T370 188L238 93Q204 69 186 40T161 -18Q149 -75 187 -103T306 -132Q349 -132 393 -124T478 -105L460 -187Q413 -194 363 -200T268 -206Q224 -206 181 -198T107 -169T60 -112T57 -20Q62 3 72 24T100 68T146 113T215 165L319 236Q338 248 345 261T357 292L373 366ZM395 535H505L481 425H371L395 535Z"  />
<glyph unicode="&#xC0;" horiz-adv-x="888" d="M704 188H261L128 0H12L536 722H658L876 0H757L704 188ZM681 270L579 634L320 270H681ZM491 909H613L698 769H616L491 909Z"  />
<glyph unicode="&#xC1;" horiz-adv-x="888" d="M704 188H261L128 0H12L536 722H658L876 0H757L704 188ZM681 270L579 634L320 270H681ZM660 909H782L599 769H517L660 909Z"  />
<glyph unicode="&#xC2;" horiz-adv-x="888" d="M704 188H261L128 0H12L536 722H658L876 0H757L704 188ZM681 270L579 634L320 270H681ZM628 871L512 769H430L578 909H694L784 769H702L628 871Z"  />
<glyph unicode="&#xC3;" horiz-adv-x="888" d="M704 188H261L128 0H12L536 722H658L876 0H757L704 188ZM681 270L579 634L320 270H681ZM814 909Q789 799 698 799Q678 799 655 804T611 817T570 829T540 835Q524 835 512 823T494 793H436Q449 851 478 880Q507 909 547 909Q565 909 588 903T633 888T674 874T702 867Q719 867 734 877T756 909H814Z"  />
<glyph unicode="&#xC4;" horiz-adv-x="888" d="M704 188H261L128 0H12L536 722H658L876 0H757L704 188ZM681 270L579 634L320 270H681ZM485 909H583L562 809H464L485 909ZM691 909H789L768 809H670L691 909Z"  />
<glyph unicode="&#xC5;" horiz-adv-x="888" d="M704 188H261L128 0H12L536 722H658L876 0H757L704 188ZM681 270L579 634L320 270H681ZM521 843Q525 864 537 882T566 915T603 937T644 945Q665 945 682 937T710 915T725 883T725 843Q720 822 708 804T680 771T643 749T601 741Q580 741 563 749T536 771T521 803T521 843ZM567 843Q562 820 575 804T611 787Q634 787 654 803T679 843Q684 866 671 882T635 899Q612 899 592 883T567 843Z"  />
<glyph unicode="&#xC6;" horiz-adv-x="1333" d="M761 198H329L137 0H12L716 722H1384L1366 634H880L870 412H1292L1274 330H871L860 82H1260L1243 0H752L761 198ZM776 640H761L410 280H761L776 640Z"  />
<glyph unicode="&#xC7;" horiz-adv-x="888" d="M431 -18Q345 -12 288 21T200 107T163 224T171 361Q180 404 198 449T246 536T314 615T405 681T519 725T658 741Q722 741 774 726T861 683T913 617T924 532H808Q809 567 796 591T758 631T702 652T632 659Q570 659 514 641T411 586T331 493T281 361Q265 285 274 229T315 136T394 81T505 63Q542 63 579 71T649 97T708 140T748 201H864Q843 143 805 102T717 34T606 -5T481 -19L437 -63L438 -65Q449 -61 461 -60T481 -58Q524 -58 547 -77T563 -127Q558 -148 544 -163T510 -187T465 -201T416 -206Q386 -206 356 -200T303 -185L326 -144Q342 -150 363 -155T404 -160Q430 -160 450 -152T475 -127Q478 -113 468 -105T431 -96Q424 -96 414 -97T387 -104L373 -81L431 -18Z"  />
<glyph unicode="&#xC8;" horiz-adv-x="740" d="M261 722H801L784 640H348L300 412H708L690 330H282L229 82H677L660 0H108L261 722ZM429 909H551L636 769H554L429 909Z"  />
<glyph unicode="&#xC9;" horiz-adv-x="740" d="M261 722H801L784 640H348L300 412H708L690 330H282L229 82H677L660 0H108L261 722ZM598 909H720L537 769H455L598 909Z"  />
<glyph unicode="&#xCA;" horiz-adv-x="740" d="M261 722H801L784 640H348L300 412H708L690 330H282L229 82H677L660 0H108L261 722ZM566 871L450 769H368L516 909H632L722 769H640L566 871Z"  />
<glyph unicode="&#xCB;" horiz-adv-x="740" d="M261 722H801L784 640H348L300 412H708L690 330H282L229 82H677L660 0H108L261 722ZM423 909H521L500 809H402L423 909ZM629 909H727L706 809H608L629 909Z"  />
<glyph unicode="&#xCC;" horiz-adv-x="296" d="M249 722H353L200 0H96L249 722ZM195 909H317L402 769H320L195 909Z"  />
<glyph unicode="&#xCD;" horiz-adv-x="296" d="M249 722H353L200 0H96L249 722ZM364 909H486L303 769H221L364 909Z"  />
<glyph unicode="&#xCE;" horiz-adv-x="296" d="M249 722H353L200 0H96L249 722ZM332 871L216 769H134L282 909H398L488 769H406L332 871Z"  />
<glyph unicode="&#xCF;" horiz-adv-x="296" d="M249 722H353L200 0H96L249 722ZM189 909H287L266 809H168L189 909ZM395 909H493L472 809H374L395 909Z"  />
<glyph unicode="&#xD0;" horiz-adv-x="888" d="M175 344H88L104 418H191L255 722H536Q656 722 733 698T851 626T899 509T888 352Q853 185 731 93T398 0H102L175 344ZM342 640L295 418H521L505 344H279L223 82H419Q508 82 571 106T677 169T744 258T780 361Q795 431 789 483T752 570T663 622T513 640H342Z"  />
<glyph unicode="&#xD1;" horiz-adv-x="888" d="M838 722H942L789 0H647L336 616H334L203 0H99L252 722H394L706 106H708L838 722ZM814 909Q789 799 698 799Q678 799 655 804T611 817T570 829T540 835Q524 835 512 823T494 793H436Q449 851 478 880Q507 909 547 909Q565 909 588 903T633 888T674 874T702 867Q719 867 734 877T756 909H814Z"  />
<glyph unicode="&#xD2;" horiz-adv-x="962" d="M152 361Q161 404 179 449T227 536T295 615T386 681T500 725T639 741Q715 741 771 725T866 681T928 616T963 536T974 449T964 361Q950 296 915 229T821 107T676 16T477 -19Q363 -19 293 16T187 106T145 229T152 361ZM262 361Q248 294 257 239T298 145T378 85T494 63Q560 63 619 84T725 145T806 239T854 361Q868 428 858 483T818 577T737 637T621 659Q555 659 496 638T390 577T310 483T262 361ZM528 909H650L735 769H653L528 909Z"  />
<glyph unicode="&#xD3;" horiz-adv-x="962" d="M152 361Q161 404 179 449T227 536T295 615T386 681T500 725T639 741Q715 741 771 725T866 681T928 616T963 536T974 449T964 361Q950 296 915 229T821 107T676 16T477 -19Q363 -19 293 16T187 106T145 229T152 361ZM262 361Q248 294 257 239T298 145T378 85T494 63Q560 63 619 84T725 145T806 239T854 361Q868 428 858 483T818 577T737 637T621 659Q555 659 496 638T390 577T310 483T262 361ZM697 909H819L636 769H554L697 909Z"  />
<glyph unicode="&#xD4;" horiz-adv-x="962" d="M152 361Q161 404 179 449T227 536T295 615T386 681T500 725T639 741Q715 741 771 725T866 681T928 616T963 536T974 449T964 361Q950 296 915 229T821 107T676 16T477 -19Q363 -19 293 16T187 106T145 229T152 361ZM262 361Q248 294 257 239T298 145T378 85T494 63Q560 63 619 84T725 145T806 239T854 361Q868 428 858 483T818 577T737 637T621 659Q555 659 496 638T390 577T310 483T262 361ZM665 871L549 769H467L615 909H731L821 769H739L665 871Z"  />
<glyph unicode="&#xD5;" horiz-adv-x="962" d="M152 361Q161 404 179 449T227 536T295 615T386 681T500 725T639 741Q715 741 771 725T866 681T928 616T963 536T974 449T964 361Q950 296 915 229T821 107T676 16T477 -19Q363 -19 293 16T187 106T145 229T152 361ZM262 361Q248 294 257 239T298 145T378 85T494 63Q560 63 619 84T725 145T806 239T854 361Q868 428 858 483T818 577T737 637T621 659Q555 659 496 638T390 577T310 483T262 361ZM851 909Q826 799 735 799Q715 799 692 804T648 817T607 829T577 835Q561 835 549 823T531 793H473Q486 851 515 880Q544 909 584 909Q602 909 625 903T670 888T711 874T739 867Q756 867 771 877T793 909H851Z"  />
<glyph unicode="&#xD6;" horiz-adv-x="962" d="M152 361Q161 404 179 449T227 536T295 615T386 681T500 725T639 741Q715 741 771 725T866 681T928 616T963 536T974 449T964 361Q950 296 915 229T821 107T676 16T477 -19Q363 -19 293 16T187 106T145 229T152 361ZM262 361Q248 294 257 239T298 145T378 85T494 63Q560 63 619 84T725 145T806 239T854 361Q868 428 858 483T818 577T737 637T621 659Q555 659 496 638T390 577T310 483T262 361ZM522 909H620L599 809H501L522 909ZM728 909H826L805 809H707L728 909Z"  />
<glyph unicode="&#xD7;" horiz-adv-x="600" d="M341 192L134 21L86 83L292 253L158 423L233 485L367 314L573 485L622 423L416 253L550 83L474 21L341 192Z"  />
<glyph unicode="&#xD8;" horiz-adv-x="962" d="M792 603Q730 659 621 659Q555 659 496 638T390 577T310 483T262 361Q248 296 256 243T293 152L792 603ZM324 120Q389 63 494 63Q560 63 619 84T725 145T806 239T854 361Q868 425 860 477T822 570L324 120ZM110 -13L210 77Q184 105 169 139T148 210T142 285T152 361Q161 404 179 449T227 536T295 615T386 681T500 725T639 741Q719 741 776 724T871 675L974 768L1005 736L905 645Q931 616 946 582T968 511T974 436T964 361Q950 296 915 229T821 107T676 16T477 -19Q397 -19 340 -2T243 47L139 -46L110 -13Z"  />
<glyph unicode="&#xD9;" horiz-adv-x="888" d="M829 722H933L842 291Q825 214 788 156T698 59T579 1T440 -19Q366 -19 309 0T215 59T166 156T170 291L261 722H365L273 286Q250 182 297 123T457 63Q569 63 641 122T737 286L829 722ZM491 909H613L698 769H616L491 909Z"  />
<glyph unicode="&#xDA;" horiz-adv-x="888" d="M829 722H933L842 291Q825 214 788 156T698 59T579 1T440 -19Q366 -19 309 0T215 59T166 156T170 291L261 722H365L273 286Q250 182 297 123T457 63Q569 63 641 122T737 286L829 722ZM660 909H782L599 769H517L660 909Z"  />
<glyph unicode="&#xDB;" horiz-adv-x="888" d="M829 722H933L842 291Q825 214 788 156T698 59T579 1T440 -19Q366 -19 309 0T215 59T166 156T170 291L261 722H365L273 286Q250 182 297 123T457 63Q569 63 641 122T737 286L829 722ZM628 871L512 769H430L578 909H694L784 769H702L628 871Z"  />
<glyph unicode="&#xDC;" horiz-adv-x="888" d="M829 722H933L842 291Q825 214 788 156T698 59T579 1T440 -19Q366 -19 309 0T215 59T166 156T170 291L261 722H365L273 286Q250 182 297 123T457 63Q569 63 641 122T737 286L829 722ZM485 909H583L562 809H464L485 909ZM691 909H789L768 809H670L691 909Z"  />
<glyph unicode="&#xDD;" horiz-adv-x="814" d="M355 0L419 301L165 722H299L489 387L821 722H955L523 301L459 0H355ZM656 909H778L595 769H513L656 909Z"  />
<glyph unicode="&#xDE;" horiz-adv-x="814" d="M514 257Q605 257 653 288T714 379Q727 442 690 470T563 498H331L280 257H514ZM274 722H378L348 580H582Q728 580 786 529T824 379Q814 334 791 297T729 232T640 190T522 175H262L225 0H121L274 722Z"  />
<glyph unicode="&#xDF;" horiz-adv-x="814" d="M185 403Q201 480 229 542T302 649T413 717T570 741Q627 741 669 730T737 699T774 654T778 599Q771 566 754 542T714 500T668 467T623 439T587 413T569 384Q564 363 579 351T632 322L726 284Q756 272 773 255T798 220T806 182T803 147Q793 100 767 69T703 18T622 -10T533 -19Q494 -19 459 -12T398 14T360 65T357 146H461Q452 92 480 71T557 49Q617 49 656 75T704 142Q711 172 693 191T646 224T582 250T518 278T473 318T464 380Q469 406 487 427T529 466T579 499T629 529T668 559T689 591Q697 632 661 657T559 683Q499 683 454 664T375 610T321 530T288 429L197 0H99L185 403Z"  />
<glyph unicode="&#xE0;" horiz-adv-x="666" d="M171 371Q185 416 215 445T285 491T368 514T453 521Q505 521 547 511T616 479T655 424T656 343L603 96Q597 67 593 44T587 0H495Q497 17 499 35T506 70H504Q477 42 450 25T395 -2T335 -15T266 -19Q218 -19 182 -7T122 28T89 80T87 145Q104 225 174 266T380 311Q437 313 477 313T552 313L555 327Q562 363 557 387T534 426T488 447T424 453Q372 453 330 433T275 371H171ZM537 245Q512 245 475 245T380 242Q342 240 310 236T254 221T213 193T191 148Q187 129 191 112T209 80T246 58T306 49Q397 49 454 90T532 222L537 245ZM346 722H468L553 582H471L346 722Z"  />
<glyph unicode="&#xE1;" horiz-adv-x="666" d="M171 371Q185 416 215 445T285 491T368 514T453 521Q505 521 547 511T616 479T655 424T656 343L603 96Q597 67 593 44T587 0H495Q497 17 499 35T506 70H504Q477 42 450 25T395 -2T335 -15T266 -19Q218 -19 182 -7T122 28T89 80T87 145Q104 225 174 266T380 311Q437 313 477 313T552 313L555 327Q562 363 557 387T534 426T488 447T424 453Q372 453 330 433T275 371H171ZM537 245Q512 245 475 245T380 242Q342 240 310 236T254 221T213 193T191 148Q187 129 191 112T209 80T246 58T306 49Q397 49 454 90T532 222L537 245ZM516 722H638L455 582H373L516 722Z"  />
<glyph unicode="&#xE2;" horiz-adv-x="666" d="M171 371Q185 416 215 445T285 491T368 514T453 521Q505 521 547 511T616 479T655 424T656 343L603 96Q597 67 593 44T587 0H495Q497 17 499 35T506 70H504Q477 42 450 25T395 -2T335 -15T266 -19Q218 -19 182 -7T122 28T89 80T87 145Q104 225 174 266T380 311Q437 313 477 313T552 313L555 327Q562 363 557 387T534 426T488 447T424 453Q372 453 330 433T275 371H171ZM537 245Q512 245 475 245T380 242Q342 240 310 236T254 221T213 193T191 148Q187 129 191 112T209 80T246 58T306 49Q397 49 454 90T532 222L537 245ZM484 684L368 582H286L434 722H550L640 582H558L484 684Z"  />
<glyph unicode="&#xE3;" horiz-adv-x="666" d="M171 371Q185 416 215 445T285 491T368 514T453 521Q505 521 547 511T616 479T655 424T656 343L603 96Q597 67 593 44T587 0H495Q497 17 499 35T506 70H504Q477 42 450 25T395 -2T335 -15T266 -19Q218 -19 182 -7T122 28T89 80T87 145Q104 225 174 266T380 311Q437 313 477 313T552 313L555 327Q562 363 557 387T534 426T488 447T424 453Q372 453 330 433T275 371H171ZM537 245Q512 245 475 245T380 242Q342 240 310 236T254 221T213 193T191 148Q187 129 191 112T209 80T246 58T306 49Q397 49 454 90T532 222L537 245ZM669 722Q644 612 553 612Q533 612 510 617T466 630T425 642T395 648Q379 648 367 636T349 606H291Q304 664 333 693Q362 722 402 722Q420 722 443 716T488 701T529 687T557 680Q574 680 589 690T611 722H669Z"  />
<glyph unicode="&#xE4;" horiz-adv-x="666" d="M171 371Q185 416 215 445T285 491T368 514T453 521Q505 521 547 511T616 479T655 424T656 343L603 96Q597 67 593 44T587 0H495Q497 17 499 35T506 70H504Q477 42 450 25T395 -2T335 -15T266 -19Q218 -19 182 -7T122 28T89 80T87 145Q104 225 174 266T380 311Q437 313 477 313T552 313L555 327Q562 363 557 387T534 426T488 447T424 453Q372 453 330 433T275 371H171ZM537 245Q512 245 475 245T380 242Q342 240 310 236T254 221T213 193T191 148Q187 129 191 112T209 80T246 58T306 49Q397 49 454 90T532 222L537 245ZM340 722H438L417 622H319L340 722ZM546 722H644L623 622H525L546 722Z"  />
<glyph unicode="&#xE5;" horiz-adv-x="666" d="M171 371Q185 416 215 445T285 491T368 514T453 521Q505 521 547 511T616 479T655 424T656 343L603 96Q597 67 593 44T587 0H495Q497 17 499 35T506 70H504Q477 42 450 25T395 -2T335 -15T266 -19Q218 -19 182 -7T122 28T89 80T87 145Q104 225 174 266T380 311Q437 313 477 313T552 313L555 327Q562 363 557 387T534 426T488 447T424 453Q372 453 330 433T275 371H171ZM537 245Q512 245 475 245T380 242Q342 240 310 236T254 221T213 193T191 148Q187 129 191 112T209 80T246 58T306 49Q397 49 454 90T532 222L537 245ZM379 667Q383 688 395 706T424 739T461 761T502 769Q523 769 540 761T568 739T583 707T583 667Q578 646 566 628T538 595T501 573T459 565Q438 565 421 573T394 595T379 627T379 667ZM425 667Q420 644 433 628T469 611Q492 611 512 627T537 667Q542 690 529 706T493 723Q470 723 450 707T425 667Z"  />
<glyph unicode="&#xE6;" horiz-adv-x="1110" d="M578 315Q592 382 556 417T439 453Q366 453 328 428T271 358H167Q181 402 210 433T277 483T358 512T445 521Q531 521 581 499T652 417Q702 473 763 497T894 521Q963 521 1009 499T1080 436T1110 342T1102 225H647Q641 189 647 157T672 101T720 63T790 49Q818 49 845 55T896 73T939 105T969 151H1073Q1054 101 1020 68T945 16T861 -11T782 -19Q697 -19 643 16T573 102Q546 65 513 42T444 5T370 -14T292 -19Q241 -19 199 -8T130 23T90 73T85 138Q103 221 180 257T385 293H573L578 315ZM374 225Q282 225 237 199T183 136Q179 118 187 102T211 75T252 56T306 49Q348 49 388 57T461 86T520 140T559 225H374ZM1006 293Q1015 336 1006 366T977 416T928 444T868 453Q799 453 744 411T661 293H1006Z"  />
<glyph unicode="&#xE7;" horiz-adv-x="666" d="M310 -18Q248 -14 204 7T135 63T104 145T109 250Q122 313 153 363T231 449T335 502T462 521Q507 521 548 512T620 481T666 425T679 342H575Q580 397 545 425T448 453Q408 453 371 440T302 402T247 338T213 250Q204 210 208 174T229 110T278 66T357 49Q426 49 476 79T540 162H644Q631 117 602 84T534 29T450 -5T359 -19L315 -63L316 -65Q327 -61 339 -60T359 -58Q402 -58 425 -77T441 -127Q436 -148 422 -163T388 -187T343 -201T294 -206Q264 -206 234 -200T181 -185L204 -144Q220 -150 241 -155T282 -160Q308 -160 328 -152T353 -127Q356 -113 346 -105T309 -96Q302 -96 292 -97T265 -104L251 -81L310 -18Z"  />
<glyph unicode="&#xE8;" horiz-adv-x="666" d="M575 293Q584 336 575 366T546 416T497 444T435 453Q359 453 301 415T213 293H575ZM665 225H195Q190 186 197 154T223 99T272 62T343 49Q370 49 397 55T450 73T497 104T533 151H637Q619 101 585 68T509 16T422 -11T334 -19Q265 -19 215 -1T135 51T96 133T100 241Q115 310 146 362T222 449T326 503T452 521Q586 521 642 452T671 255L665 225ZM352 722H474L559 582H477L352 722Z"  />
<glyph unicode="&#xE9;" horiz-adv-x="666" d="M575 293Q584 336 575 366T546 416T497 444T435 453Q359 453 301 415T213 293H575ZM665 225H195Q190 186 197 154T223 99T272 62T343 49Q370 49 397 55T450 73T497 104T533 151H637Q619 101 585 68T509 16T422 -11T334 -19Q265 -19 215 -1T135 51T96 133T100 241Q115 310 146 362T222 449T326 503T452 521Q586 521 642 452T671 255L665 225ZM522 722H644L461 582H379L522 722Z"  />
<glyph unicode="&#xEA;" horiz-adv-x="666" d="M575 293Q584 336 575 366T546 416T497 444T435 453Q359 453 301 415T213 293H575ZM665 225H195Q190 186 197 154T223 99T272 62T343 49Q370 49 397 55T450 73T497 104T533 151H637Q619 101 585 68T509 16T422 -11T334 -19Q265 -19 215 -1T135 51T96 133T100 241Q115 310 146 362T222 449T326 503T452 521Q586 521 642 452T671 255L665 225ZM490 684L374 582H292L440 722H556L646 582H564L490 684Z"  />
<glyph unicode="&#xEB;" horiz-adv-x="666" d="M575 293Q584 336 575 366T546 416T497 444T435 453Q359 453 301 415T213 293H575ZM665 225H195Q190 186 197 154T223 99T272 62T343 49Q370 49 397 55T450 73T497 104T533 151H637Q619 101 585 68T509 16T422 -11T334 -19Q265 -19 215 -1T135 51T96 133T100 241Q115 310 146 362T222 449T326 503T452 521Q586 521 642 452T671 255L665 225ZM346 722H444L423 622H325L346 722ZM552 722H650L629 622H531L552 722Z"  />
<glyph unicode="&#xEC;" horiz-adv-x="296" d="M206 502H304L197 0H99L206 502ZM155 722H277L362 582H280L155 722Z"  />
<glyph unicode="&#xED;" horiz-adv-x="296" d="M206 502H304L197 0H99L206 502ZM325 722H447L264 582H182L325 722Z"  />
<glyph unicode="&#xEE;" horiz-adv-x="296" d="M206 502H304L197 0H99L206 502ZM293 684L177 582H95L243 722H359L449 582H367L293 684Z"  />
<glyph unicode="&#xEF;" horiz-adv-x="296" d="M206 502H304L197 0H99L206 502ZM149 722H247L226 622H128L149 722ZM355 722H453L432 622H334L355 722Z"  />
<glyph unicode="&#xF0;" horiz-adv-x="740" d="M315 585L413 637Q391 649 369 658T324 675L407 731Q434 720 460 708T507 685L627 750L661 711L551 655Q674 577 718 474T737 251Q710 121 615 51T366 -19Q212 -19 147 51T109 251Q120 302 148 348T218 428T316 482T437 502Q496 502 542 489T625 440L627 442Q615 466 597 490T557 537T511 577T465 609L349 546L315 585ZM211 239Q202 196 209 161T239 101T298 63T380 49Q426 49 467 62T542 101T598 161T631 239Q642 291 632 328T597 388T535 423T454 434Q411 434 371 421T299 383T244 322T211 239Z"  />
<glyph unicode="&#xF1;" horiz-adv-x="740" d="M174 388Q181 417 185 444T195 502H287Q284 483 281 461T272 413H274Q329 471 388 496T516 521Q569 521 610 506T678 462T712 388T709 285L648 0H550L610 280Q627 365 592 409T485 453Q450 453 412 442T340 405T280 338T240 237L190 0H92L174 388ZM700 722Q675 612 584 612Q564 612 541 617T497 630T456 642T426 648Q410 648 398 636T380 606H322Q335 664 364 693Q393 722 433 722Q451 722 474 716T519 701T560 687T588 680Q605 680 620 690T642 722H700Z"  />
<glyph unicode="&#xF2;" horiz-adv-x="740" d="M737 251Q710 121 615 51T366 -19Q212 -19 147 51T109 251Q122 312 152 362T229 447T339 501T481 521Q635 521 700 451T737 251ZM466 453Q415 453 373 438T298 395T244 331T213 251Q204 208 209 171T236 107T293 65T380 49Q431 49 474 64T549 107T602 171T633 251Q642 294 637 331T610 395T553 437T466 453ZM377 722H499L584 582H502L377 722Z"  />
<glyph unicode="&#xF3;" horiz-adv-x="740" d="M737 251Q710 121 615 51T366 -19Q212 -19 147 51T109 251Q122 312 152 362T229 447T339 501T481 521Q635 521 700 451T737 251ZM466 453Q415 453 373 438T298 395T244 331T213 251Q204 208 209 171T236 107T293 65T380 49Q431 49 474 64T549 107T602 171T633 251Q642 294 637 331T610 395T553 437T466 453ZM547 722H669L486 582H404L547 722Z"  />
<glyph unicode="&#xF4;" horiz-adv-x="740" d="M737 251Q710 121 615 51T366 -19Q212 -19 147 51T109 251Q122 312 152 362T229 447T339 501T481 521Q635 521 700 451T737 251ZM466 453Q415 453 373 438T298 395T244 331T213 251Q204 208 209 171T236 107T293 65T380 49Q431 49 474 64T549 107T602 171T633 251Q642 294 637 331T610 395T553 437T466 453ZM515 684L399 582H317L465 722H581L671 582H589L515 684Z"  />
<glyph unicode="&#xF5;" horiz-adv-x="740" d="M737 251Q710 121 615 51T366 -19Q212 -19 147 51T109 251Q122 312 152 362T229 447T339 501T481 521Q635 521 700 451T737 251ZM466 453Q415 453 373 438T298 395T244 331T213 251Q204 208 209 171T236 107T293 65T380 49Q431 49 474 64T549 107T602 171T633 251Q642 294 637 331T610 395T553 437T466 453ZM700 722Q675 612 584 612Q564 612 541 617T497 630T456 642T426 648Q410 648 398 636T380 606H322Q335 664 364 693Q393 722 433 722Q451 722 474 716T519 701T560 687T588 680Q605 680 620 690T642 722H700Z"  />
<glyph unicode="&#xF6;" horiz-adv-x="740" d="M737 251Q710 121 615 51T366 -19Q212 -19 147 51T109 251Q122 312 152 362T229 447T339 501T481 521Q635 521 700 451T737 251ZM466 453Q415 453 373 438T298 395T244 331T213 251Q204 208 209 171T236 107T293 65T380 49Q431 49 474 64T549 107T602 171T633 251Q642 294 637 331T610 395T553 437T466 453ZM371 722H469L448 622H350L371 722ZM577 722H675L654 622H556L577 722Z"  />
<glyph unicode="&#xF7;" horiz-adv-x="600" d="M110 297H616L597 209H91L110 297ZM233 43Q240 75 266 97T325 119Q357 119 374 97T385 43Q378 11 352 -11T293 -33Q261 -33 244 -11T233 43ZM322 463Q329 495 356 517T415 539Q447 539 464 517T474 463Q467 431 441 409T382 387Q350 387 333 409T322 463Z"  />
<glyph unicode="&#xF8;" horiz-adv-x="740" d="M263 82Q285 66 314 58T380 49Q431 49 474 64T549 107T602 171T633 251Q642 293 637 329T612 393L263 82ZM584 420Q540 453 466 453Q415 453 373 438T298 395T244 331T213 251Q195 163 236 108L584 420ZM160 40Q80 110 109 251Q122 312 152 362T229 447T339 501T481 521Q589 521 656 484L747 565L771 536L688 461Q767 394 737 251Q710 121 615 51T366 -19Q257 -19 192 18L98 -65L76 -35L160 40Z"  />
<glyph unicode="&#xF9;" horiz-adv-x="740" d="M672 114Q666 85 662 58T652 0H560Q562 19 565 41T575 89H573Q518 31 459 6T331 -19Q278 -19 237 -4T169 40T135 114T138 217L199 502H297L237 222Q219 137 254 93T361 49Q396 49 434 60T506 97T567 164T606 265L657 502H755L672 114ZM377 722H499L584 582H502L377 722Z"  />
<glyph unicode="&#xFA;" horiz-adv-x="740" d="M672 114Q666 85 662 58T652 0H560Q562 19 565 41T575 89H573Q518 31 459 6T331 -19Q278 -19 237 -4T169 40T135 114T138 217L199 502H297L237 222Q219 137 254 93T361 49Q396 49 434 60T506 97T567 164T606 265L657 502H755L672 114ZM547 722H669L486 582H404L547 722Z"  />
<glyph unicode="&#xFB;" horiz-adv-x="740" d="M672 114Q666 85 662 58T652 0H560Q562 19 565 41T575 89H573Q518 31 459 6T331 -19Q278 -19 237 -4T169 40T135 114T138 217L199 502H297L237 222Q219 137 254 93T361 49Q396 49 434 60T506 97T567 164T606 265L657 502H755L672 114ZM515 684L399 582H317L465 722H581L671 582H589L515 684Z"  />
<glyph unicode="&#xFC;" horiz-adv-x="740" d="M672 114Q666 85 662 58T652 0H560Q562 19 565 41T575 89H573Q518 31 459 6T331 -19Q278 -19 237 -4T169 40T135 114T138 217L199 502H297L237 222Q219 137 254 93T361 49Q396 49 434 60T506 97T567 164T606 265L657 502H755L672 114ZM371 722H469L448 622H350L371 722ZM577 722H675L654 622H556L577 722Z"  />
<glyph unicode="&#xFD;" horiz-adv-x="666" d="M763 502L252 -192H142L287 0L117 502H233L360 94L659 502H763ZM550 722H672L489 582H407L550 722Z"  />
<glyph unicode="&#xFE;" horiz-adv-x="740" d="M239 722H337L276 431Q324 475 386 498T515 521Q571 521 618 502T695 447T738 362T737 251Q724 190 691 140T612 55T511 1T400 -19Q340 -19 287 -2T198 66L143 -192H45L239 722ZM237 251Q227 203 233 166T261 102T315 63T392 49Q436 49 475 62T546 102T600 165T633 251Q643 299 637 336T610 400T556 439T478 453Q434 453 395 440T324 400T270 337T237 251Z"  />
<glyph unicode="&#xFF;" horiz-adv-x="666" d="M763 502L252 -192H142L287 0L117 502H233L360 94L659 502H763ZM334 722H432L411 622H313L334 722ZM540 722H638L617 622H519L540 722Z"  />
<glyph unicode="&#x131;" horiz-adv-x="296" d="M206 502H304L197 0H99L206 502Z"  />
<glyph unicode="&#x152;" horiz-adv-x="1333" d="M813 640Q782 642 751 644T686 646Q499 646 392 571T256 363Q242 297 253 244T300 154T398 96T550 76Q588 76 625 77T694 82L813 640ZM1243 0H802Q744 0 686 -3Q629 -6 571 -6Q497 -6 441 0T340 21T260 59T195 114Q155 157 146 222T151 357Q160 398 175 437T213 513T269 582T345 640Q392 668 435 685T525 712T628 725T755 728Q774 728 800 727T850 725Q937 722 990 722H1380L1363 640H917L869 412H1284L1266 330H851L798 82H1260L1243 0Z"  />
<glyph unicode="&#x153;" horiz-adv-x="1184" d="M1152 151Q1134 101 1100 68T1024 16T937 -11T850 -19Q769 -19 715 8T640 91Q585 29 514 5T363 -19Q209 -19 144 51T106 251Q119 312 149 362T226 447T336 501T478 521Q524 521 564 512T636 486T687 450T713 407Q748 456 814 488T971 521Q1040 521 1086 499T1157 436T1187 342T1179 225H713Q710 186 716 154T741 99T787 62T857 49Q884 49 912 55T965 73T1012 104T1048 151H1152ZM210 251Q201 208 206 171T233 107T290 65T377 49Q428 49 471 64T546 107T599 171T630 251Q639 294 634 331T607 395T550 437T463 453Q412 453 370 438T295 395T241 331T210 251ZM1083 293Q1092 336 1083 366T1054 416T1006 444T947 453Q875 453 817 415T727 293H1083Z"  />
<glyph unicode="&#x160;" horiz-adv-x="814" d="M727 530Q731 568 717 593T674 632T607 653T524 659Q485 659 449 650T383 624T333 582T306 528Q303 513 305 499T317 472T347 450T399 434L658 388Q743 373 774 326T792 212Q780 158 748 115T665 43T547 -3T400 -19Q246 -19 172 39T113 216H223Q216 180 227 152T265 104T331 74T423 63Q479 63 525 73T604 102T659 146T686 201Q694 238 675 259T619 293T535 311T436 323T338 340T256 372T205 429T201 522Q212 574 242 615T319 684T427 726T563 741Q619 741 672 732T765 698T825 633T837 530H727ZM423 909H505L579 807L695 909H777L629 769H513L423 909Z"  />
<glyph unicode="&#x161;" horiz-adv-x="666" d="M200 143Q198 117 207 99T235 70T281 54T342 49Q425 49 471 72T525 136Q530 158 515 171T474 192T412 206T340 218T269 234T209 260T172 301T167 364Q176 406 201 435T263 484T346 512T445 521Q484 521 525 515T597 493T646 447T657 372H562Q562 396 553 411T526 436T486 449T434 453Q401 453 373 448T322 432T286 408T268 377Q263 351 284 334T360 306L519 275Q588 261 615 231T630 143Q613 62 537 22T317 -19Q267 -19 224 -10T150 18T105 68T96 143H200ZM309 722H391L465 620L581 722H663L515 582H399L309 722Z"  />
<glyph unicode="&#x178;" horiz-adv-x="814" d="M355 0L419 301L165 722H299L489 387L821 722H955L523 301L459 0H355ZM448 909H546L525 809H427L448 909ZM654 909H752L731 809H633L654 909Z"  />
<glyph unicode="&#x17D;" horiz-adv-x="740" d="M56 94L714 640H194L211 722H841L818 612L181 82H721L704 0H36L56 94ZM386 909H468L542 807L658 909H740L592 769H476L386 909Z"  />
<glyph unicode="&#x17E;" horiz-adv-x="593" d="M170 502H642L624 420L192 74H561L545 0H48L65 82L497 428H154L170 502ZM273 722H355L429 620L545 722H627L479 582H363L273 722Z"  />
<glyph unicode="&#x192;" horiz-adv-x="740" d="M37 -114Q47 -116 57 -117T74 -118Q108 -118 136 -112T188 -88T233 -34T275 61L412 445H240L266 513H433Q457 582 483 626T541 695T609 731T693 741Q723 741 751 739T800 730L774 655Q759 660 741 663T705 667Q673 667 649 659T606 633T570 586T537 513H724L698 445H513L378 64Q352 -10 326 -59T265 -137T187 -179T82 -192Q50 -192 13 -184L37 -114Z"  />
<glyph unicode="&#x2C6;" horiz-adv-x="296" d="M293 684L177 582H95L243 722H359L449 582H367L293 684Z"  />
<glyph unicode="&#x2C7;" horiz-adv-x="296" d="M124 722H206L280 620L396 722H478L330 582H214L124 722Z"  />
<glyph unicode="&#x2DA;" horiz-adv-x="296" d="M188 667Q192 688 204 706T233 739T270 761T311 769Q332 769 349 761T377 739T392 707T392 667Q387 646 375 628T347 595T310 573T268 565Q247 565 230 573T203 595T188 627T188 667ZM234 667Q229 644 242 628T278 611Q301 611 321 627T346 667Q351 690 338 706T302 723Q279 723 259 707T234 667Z"  />
<glyph unicode="&#x2DC;" horiz-adv-x="296" d="M478 722Q453 612 362 612Q342 612 319 617T275 630T234 642T204 648Q188 648 176 636T158 606H100Q113 664 142 693Q171 722 211 722Q229 722 252 716T297 701T338 687T366 680Q383 680 398 690T420 722H478Z"  />
<glyph unicode="&#x2013;" horiz-adv-x="500" d="M65 308H565L548 226H48L65 308Z"  />
<glyph unicode="&#x2014;" horiz-adv-x="1000" d="M65 308H1065L1048 226H48L65 308Z"  />
<glyph unicode="&#x2018;" horiz-adv-x="370" d="M347 722H429L318 508H202L347 722Z"  />
<glyph unicode="&#x2019;" horiz-adv-x="370" d="M313 722H429L284 508H202L313 722Z"  />
<glyph unicode="&#x201A;" horiz-adv-x="370" d="M171 52H287L142 -162H60L171 52Z"  />
<glyph unicode="&#x201C;" horiz-adv-x="593" d="M570 722H652L541 508H425L570 722ZM347 722H429L318 508H202L347 722Z"  />
<glyph unicode="&#x201D;" horiz-adv-x="593" d="M313 722H429L284 508H202L313 722ZM536 722H652L507 508H425L536 722Z"  />
<glyph unicode="&#x201E;" horiz-adv-x="593" d="M171 52H287L142 -162H60L171 52ZM394 52H510L365 -162H283L394 52Z"  />
<glyph unicode="&#x2020;" horiz-adv-x="592" d="M344 456H142L159 538H361L400 722H498L459 538H661L644 456H442L345 0H247L344 456Z"  />
<glyph unicode="&#x2021;" horiz-adv-x="592" d="M281 158H79L96 240H298L349 482H147L165 564H367L400 722H498L465 564H667L649 482H447L396 240H598L581 158H379L345 0H247L281 158Z"  />
<glyph unicode="&#x2022;" horiz-adv-x="500" d="M146 361Q154 398 175 431T226 489T291 528T365 542Q402 542 432 528T481 489T508 431T508 361Q500 323 479 291T427 233T361 194T288 180Q250 180 221 194T172 233T145 290T146 361Z"  />
<glyph unicode="&#x2026;" horiz-adv-x="1000" d="M135 110H245L222 0H112L135 110ZM468 110H578L555 0H445L468 110ZM801 110H911L888 0H778L801 110Z"  />
<glyph unicode="&#x2030;" horiz-adv-x="1333" d="M527 169Q545 255 601 306T744 357Q831 357 865 306T881 169Q863 83 807 32T664 -19Q577 -19 543 32T527 169ZM601 169Q586 100 610 70T676 39Q719 39 755 69T807 169Q821 238 798 268T732 299Q711 299 691 292T653 269T622 228T601 169ZM934 169Q952 255 1008 306T1151 357Q1238 357 1272 306T1288 169Q1270 83 1214 32T1071 -19Q984 -19 950 32T934 169ZM1008 169Q993 100 1017 70T1083 39Q1126 39 1162 69T1214 169Q1228 238 1205 268T1139 299Q1118 299 1098 292T1060 269T1029 228T1008 169ZM180 523Q198 609 254 660T397 711Q484 711 518 660T534 523Q516 437 460 386T317 335Q230 335 196 386T180 523ZM254 523Q247 488 250 464T264 424T292 401T330 393Q373 393 409 423T460 523Q475 592 452 622T385 653Q343 653 306 623T254 523ZM823 721H905L239 -29H157L823 721Z"  />
<glyph unicode="&#x2039;" horiz-adv-x="370" d="M108 267L283 461H365L206 267L283 73H195L108 267Z"  />
<glyph unicode="&#x203A;" horiz-adv-x="370" d="M278 267L201 461H289L376 267L201 73H119L278 267Z"  />
<glyph unicode="&#x20AC;" horiz-adv-x="740" d="M739 192Q720 135 687 95T612 30T519 -7T417 -19Q355 -19 311 1T238 55T196 137T183 239H100L138 312H189Q191 320 192 328T196 346L201 370H130L169 443H225Q246 494 279 542T359 628T464 688T596 711Q647 711 688 696T756 655T796 591T801 510H689Q691 543 683 565T658 602T618 623T568 629Q495 629 432 584T329 443H655L617 370H305L300 346Q298 337 297 329T293 312H585L547 239H288Q289 148 332 106T446 63Q473 63 500 71T552 94T596 134T628 192H739Z"  />
<glyph unicode="&#x2122;" horiz-adv-x="990" d="M287 654H165L179 722H511L497 654H375L302 310H214L287 654ZM964 622H962L779 310H717L666 622H664L598 310H516L603 722H727L776 441L943 722H1067L980 310H898L964 622Z"  />

</font>
</defs>
</svg>
