<?xml  version="1.0" encoding="UTF-8"?>
<!DOCTYPE svg PUBLIC "-//W3C//DTD SVG 1.0//EN" "http://www.w3.org/TR/2001/REC-SVG-20010904/DTD/svg10.dtd" >
<svg xmlns="http://www.w3.org/2000/svg" >
<metadata>
<version>1.0</version>
<id><![CDATA[Bembo MT W01 Italic]]></id>
<vendor>Monotype Imaging Inc.</vendor>
<credits>
<name>Fonts.com WebFonts</name>
<URL>http://webfonts.fonts.com</URL>
<role>Home of the Web fonts</role>
</credits>
<license>
<URL>http://webfonts.fonts.com/Legal</URL>
</license>
<copyright><![CDATA[Font software Copyright 1990, 2002 Adobe Systems Incorporated. Type design Copyright 1990, 2002 The Monotype Corporation. All rights reserved.]]></copyright>
<trademark><![CDATA[Bembo is a registered trademark of The Monotype Corporation in the United States and/or other countries; MT is a trademark of Monotype Imaging; Inc. Registered in U.S. Patent & Trademark Office and may be registered in certain other jurisdictions.]]></trademark>
<licensee>
<name></name>
</licensee>
</metadata>
<defs >
<font horiz-adv-x="508" id="1f53f4dc-ca15-462e-b829-98f0c696e1ad">
<font-face font-family="" panose-1="2 2 5 3 5 4 5 9 3 4" ascent="900" descent="-233" units-per-em="1000" alphabetic="0">
</font-face>
<missing-glyph horiz-adv-x="0" />

<glyph unicode="&#xA;" />
<glyph unicode="&#xD;" horiz-adv-x="0" />
<glyph unicode=" " horiz-adv-x="278" />
<glyph unicode="!" horiz-adv-x="292" d="M228 616Q230 629 236 633T251 637H286Q304 637 308 628T308 602L184 165H165L228 616ZM155 90Q175 90 184 78T194 46Q194 23 182 6T145 -12Q123 -12 115 3T107 33Q107 55 119 72T155 90Z"  />
<glyph unicode="&quot;" horiz-adv-x="417" d="M193 637Q215 637 228 622T242 584Q242 564 238 539T230 496L205 352H181L156 496Q153 514 149 539T144 584Q144 607 157 622T193 637ZM371 637Q393 637 406 622T420 584Q420 564 416 539T408 496L383 352H359L334 496Q331 514 327 539T322 584Q322 607 335 622T371 637Z"  />
<glyph unicode="#" horiz-adv-x="668" d="M268 464L310 667H353L311 464H532L575 667H618L575 464H679V421H566L525 223H679V180H517L474 -23H431L474 180H251L208 -23H165L208 180H104V223H217L258 421H104V464H268ZM260 223H482L523 421H301L260 223Z"  />
<glyph unicode="$" horiz-adv-x="459" d="M372 642H394L381 579Q421 569 444 541T467 471Q467 425 438 425Q425 425 418 434T410 460Q410 469 412 483T415 509Q415 526 406 539T377 559L323 292Q371 241 390 207T409 136Q409 74 369 34T261 -12L245 -87H224L239 -12Q227 -12 216 -11T197 -8L181 -87H159L176 -4Q136 10 112 38T88 101Q88 121 97 132T122 144Q136 144 144 135T153 111Q153 102 151 92T149 67Q149 49 159 36T180 16L236 289Q201 325 185 358T169 432Q169 493 202 532T296 583L308 642H330L317 583Q338 584 360 583L372 642ZM356 564Q335 565 314 564L268 346Q279 333 285 327T304 309L356 564ZM290 234Q284 240 273 251T254 269L201 9Q207 7 220 6T242 5L290 234ZM265 8Q303 16 327 45T351 114Q351 140 342 162T307 214L265 8ZM291 561Q256 550 236 522T215 458Q215 435 223 414T252 366L291 561Z"  />
<glyph unicode="%" horiz-adv-x="823" d="M566 103Q566 148 580 189T617 261T672 312T736 331Q782 331 806 302T831 215Q831 171 817 131T780 60T726 11T662 -8Q618 -8 592 22T566 103ZM618 70Q618 43 630 26T663 9Q690 9 711 35T748 98T771 176T779 248Q779 314 734 314Q715 314 700 301T671 267T648 220T632 166T622 114T618 70ZM114 409Q114 454 128 495T165 567T220 618T284 637Q330 637 354 608T379 521Q379 477 365 437T328 366T274 317T210 298Q166 298 140 328T114 409ZM166 376Q166 349 178 332T211 315Q238 315 259 341T296 404T319 482T327 554Q327 620 282 620Q263 620 248 607T219 573T196 526T180 472T170 420T166 376ZM139 -27L760 654H804L183 -27H139Z"  />
<glyph unicode="&amp;" horiz-adv-x="708" d="M179 199Q179 168 189 136T224 78T287 35T383 18Q444 18 488 37T560 83T601 141T615 194Q615 235 587 259T511 283Q481 283 459 275T436 255Q436 249 439 245T447 237T456 228T460 215Q460 205 452 199T433 192Q418 192 409 201T400 224Q400 237 407 254T432 288T476 316T544 328Q554 328 571 328T605 327T638 327T661 326Q688 326 705 333T723 352Q723 362 715 369T706 388Q706 396 713 402T730 408Q741 408 749 399T757 378Q757 355 744 338T708 307T655 288T591 281V279Q640 244 640 195Q640 164 621 127T566 59T475 6T351 -16Q274 -16 224 5T145 56T104 121T92 180Q92 212 107 242T148 297T210 339T289 360V362Q233 376 204 405T175 475Q175 503 189 532T233 584T304 622T403 637Q457 637 491 624T544 595T569 563T576 541Q576 530 567 522T544 513Q526 513 519 521T508 542T501 567T487 590Q476 601 458 607T408 613Q362 613 333 596T286 556T262 506T255 462Q255 417 276 394T323 371Q335 371 340 372T354 373Q368 373 373 369T379 358Q379 341 348 341Q337 341 328 342T302 343Q279 343 257 334T218 306T190 260T179 199Z"  />
<glyph unicode="&apos;" horiz-adv-x="219" d="M180 637Q202 637 215 622T229 584Q229 564 225 539T217 496L192 352H168L143 496Q140 514 136 539T131 584Q131 607 144 622T180 637Z"  />
<glyph unicode="(" horiz-adv-x="281" d="M396 658Q340 599 296 525T219 371T170 209T153 50Q153 -23 165 -87T205 -226L189 -233Q145 -135 123 -50T100 116Q100 198 123 275T187 421T279 554T388 672L396 658Z"  />
<glyph unicode=")" horiz-adv-x="281" d="M-42 -219Q13 -160 58 -86T135 68T184 230T201 389Q201 462 189 526T149 665L165 672Q209 574 231 489T254 323Q254 240 231 164T167 18T75 -115T-34 -233L-42 -219Z"  />
<glyph unicode="*" horiz-adv-x="500" d="M156 256L135 279L239 419L105 531L119 557L284 502L351 661L381 655L377 483L550 470L553 440L387 389L430 219L400 207L301 345L156 256Z"  />
<glyph unicode="+" horiz-adv-x="667" d="M654 342V298H413V57H369V298H129V342H369V582H413V342H654Z"  />
<glyph unicode="&#x2c;" horiz-adv-x="292" d="M43 -156Q92 -123 112 -97T133 -45Q133 -30 128 -20T118 0T107 20T102 45Q102 65 114 78T144 91Q165 91 179 71T194 20Q194 -37 160 -84T51 -173L43 -156H43Z"  />
<glyph unicode="-" horiz-adv-x="333" d="M75 229H300L287 167H62L75 229Z"  />
<glyph unicode="." horiz-adv-x="292" d="M149 90Q169 90 178 78T188 46Q188 23 176 6T139 -12Q117 -12 109 3T101 33Q101 55 113 72T149 90Z"  />
<glyph unicode="/" horiz-adv-x="458" d="M479 637L156 -14H113L436 637H479Z"  />
<glyph unicode="0" horiz-adv-x="510" d="M99 197Q99 279 121 358T182 499T270 599T377 637Q450 637 489 580T528 417Q528 333 505 255T444 118T356 22T252 -14Q217 -14 189 1T141 43T110 110T99 197ZM168 134Q168 77 192 42T254 7Q291 7 321 34T374 104T413 201T439 306T454 405T459 479Q459 545 437 580T371 616Q332 616 302 587T250 511T212 409T187 300T173 202T168 134Z"  />
<glyph unicode="1" horiz-adv-x="510" d="M442 637L329 84Q325 65 326 53T334 33T358 21T400 16L396 0H158L162 16H192Q209 16 219 18T237 26T248 44T256 76L351 545Q333 530 311 515T267 486T221 461T178 443L184 470Q250 497 307 540T405 637H442Z"  />
<glyph unicode="2" horiz-adv-x="510" d="M419 0H54L55 16Q152 111 222 182T338 309T405 411T427 500Q427 542 400 567T326 593Q219 593 173 470H153Q161 508 178 539T220 591T276 625T344 637Q380 637 410 627T461 598T494 553T506 495Q506 449 477 405T397 310T280 201T136 67H371Q395 67 404 75T419 113L422 128H441L419 0Z"  />
<glyph unicode="3" horiz-adv-x="510" d="M201 543Q229 588 268 612T355 637Q408 637 442 610T476 540Q476 454 324 400L326 398Q356 400 379 392T418 367T442 327T451 276Q451 221 423 169T348 76T245 11T131 -14Q102 -14 82 -3T61 25Q61 39 70 49T93 59Q102 59 112 54T135 42T163 30T198 24Q235 24 267 46T322 103T358 177T371 252Q371 296 347 323T285 351Q269 351 252 345T202 322L207 346Q308 406 353 449T398 531Q398 560 377 580T324 600Q294 600 269 585T214 531L201 543Z"  />
<glyph unicode="4" horiz-adv-x="510" d="M337 189H100V225L473 637H500L420 243H512L501 189H409L367 -14H295L337 189ZM348 243L405 524L403 526L150 243H348Z"  />
<glyph unicode="5" horiz-adv-x="510" d="M281 622Q307 622 334 622T387 621T432 619T462 618Q478 618 488 619T503 622T510 629T516 639H533L516 555Q505 552 477 552T414 553T345 554T287 551L249 408Q271 416 285 419T314 422Q342 422 367 411T410 379T438 330T449 269Q449 215 425 164T360 74T266 10T157 -14Q119 -14 98 -3T77 28Q77 40 87 50T109 60Q121 60 133 54T157 40T183 26T212 20Q235 20 264 36T318 80T361 149T379 239Q379 292 353 323T282 354Q262 354 245 349T203 332L281 622Z"  />
<glyph unicode="6" horiz-adv-x="510" d="M557 611Q448 590 363 506T222 281L224 279Q265 319 300 337T373 355Q399 355 421 345T460 316T485 272T494 216Q494 171 475 130T425 56T353 5T268 -14Q199 -14 160 34T120 164Q120 251 159 331T261 476T403 582T562 637L557 611ZM213 248Q207 233 202 215T192 178T185 141T182 109Q182 65 205 36T266 7Q302 7 330 30T379 88T410 164T421 244Q421 282 402 303T350 324Q332 324 312 316T273 296T238 271T213 248Z"  />
<glyph unicode="7" horiz-adv-x="510" d="M174 622H533V597L247 -14H200L483 555H228Q195 555 183 548T165 518L152 467H135L174 622Z"  />
<glyph unicode="8" horiz-adv-x="510" d="M352 343Q404 289 430 247T457 160Q457 124 442 92T402 37T342 0T269 -14Q234 -14 204 -3T151 27T115 72T102 128Q102 160 116 187T154 237T209 281T275 320Q230 364 210 402T189 480Q189 514 202 543T240 593T297 625T369 637Q446 637 482 605T518 520Q518 466 474 424T352 343ZM336 360Q394 401 424 444T454 531Q454 569 431 592T368 616Q344 616 324 607T287 583T262 548T253 505Q253 470 272 437T336 360ZM290 304Q230 262 199 213T167 111Q167 66 193 38T264 10Q290 10 313 20T353 47T380 87T390 136Q390 222 290 304Z"  />
<glyph unicode="9" horiz-adv-x="510" d="M79 9Q139 22 187 49T277 117T352 212T418 336L416 338Q369 296 335 282T268 267Q243 267 222 278T185 307T160 352T151 408Q151 452 170 493T220 566T291 617T374 637Q445 637 484 589T524 458Q524 395 503 336T446 226T364 132T268 58T168 8T74 -14L79 9ZM430 373Q436 394 442 412T452 448T458 484T461 522Q461 564 439 590T381 616Q344 616 316 591T268 530T238 453T227 382Q227 344 245 322T293 299Q329 299 362 320T430 373Z"  />
<glyph unicode=":" horiz-adv-x="292" d="M212 407Q232 407 241 395T251 363Q251 340 239 323T202 305Q180 305 172 320T164 350Q164 372 176 389T212 407ZM149 90Q169 90 178 78T188 46Q188 23 176 6T139 -12Q117 -12 109 3T101 33Q101 55 113 72T149 90Z"  />
<glyph unicode=";" horiz-adv-x="292" d="M43 -156Q92 -123 112 -97T133 -45Q133 -30 128 -20T118 0T107 20T102 45Q102 65 114 78T144 91Q165 91 179 71T194 20Q194 -37 160 -84T51 -173L43 -156ZM212 407Q232 407 241 395T251 363Q251 340 239 323T202 305Q180 305 172 320T164 350Q164 372 176 389T212 407Z"  />
<glyph unicode="&lt;" horiz-adv-x="667" d="M129 340L653 562V512L189 320L653 128V78L129 300V340Z"  />
<glyph unicode="=" horiz-adv-x="667" d="M654 457V413H129V457H654ZM654 276V232H129V276H654Z"  />
<glyph unicode="&gt;" horiz-adv-x="667" d="M654 300L130 78V128L594 320L130 512V562L654 340V300Z"  />
<glyph unicode="?" horiz-adv-x="396" d="M163 164Q171 241 183 280T215 339Q231 355 256 368T306 397T347 432T364 485Q364 519 339 541T276 564Q246 564 226 557T193 549Q182 549 175 559T168 586Q168 598 176 607T196 623T225 633T257 637Q320 637 358 595T396 484Q396 419 377 384T331 328T276 296T230 266Q214 250 202 226T182 164H163ZM151 90Q171 90 180 78T190 46Q190 23 178 6T141 -12Q119 -12 111 3T103 33Q103 55 115 72T151 90Z"  />
<glyph unicode="@" horiz-adv-x="917" d="M655 170Q638 113 639 82T677 51Q711 51 747 75T814 142T863 243T882 369Q882 435 859 490T793 586T693 648T566 671Q468 671 391 631T259 524T176 375T147 205Q147 119 175 47T254 -77T375 -157T530 -186Q664 -186 765 -117T922 84H950Q930 18 890 -37T793 -132T669 -194T527 -216Q435 -216 357 -184T222 -93T133 44T101 217Q101 317 137 404T235 556T382 658T563 695Q641 695 705 671T815 602T886 497T912 360Q912 306 896 245T846 133T762 49T643 15Q568 15 568 82Q568 98 569 112T576 152L574 154Q523 87 476 51T384 15Q365 15 349 24T321 48T302 83T295 128Q295 166 307 206T340 285T388 356T445 415T505 455T564 470Q577 470 591 467T616 455T636 434T648 403H650L665 457L742 467L655 170ZM570 446Q547 446 524 430T478 389T437 330T402 264T379 199T370 143Q370 114 387 94T427 74Q458 74 493 100T559 169T610 266T631 376Q631 407 614 426T570 446Z"  />
<glyph unicode="A" horiz-adv-x="698" d="M581 637V77Q581 47 598 33T665 19L661 0H395L399 19Q458 19 480 36T503 93V271H278L147 102Q132 82 130 67T134 41T157 25T194 19H213L209 0H-8L-4 19Q35 22 63 47T120 110L525 637H581ZM306 307H503V567H501L306 307Z"  />
<glyph unicode="B" horiz-adv-x="615" d="M435 622Q525 622 574 587T623 489Q623 461 612 437T580 395T530 364T464 348V346Q530 329 568 286T606 185Q606 150 593 117T550 58T475 16T365 0H47L51 19Q96 21 114 40T142 105L227 521Q243 603 173 603H151L154 622H435ZM275 365H378Q423 365 453 376T503 405T531 448T540 497Q540 541 513 569T419 597H322L275 365ZM226 125Q215 72 242 49T342 25Q393 25 427 41T482 83T511 138T520 196Q520 263 475 301T349 340H270L226 125Z"  />
<glyph unicode="C" horiz-adv-x="729" d="M708 443Q714 478 707 509T680 563T625 599T538 613Q486 613 426 592T315 526T230 415T196 257Q196 200 211 154T256 76T325 26T417 8Q494 8 561 47T676 159H696L644 0H637Q627 5 620 6T602 8Q590 8 570 4T525 -4T470 -12T408 -16Q333 -16 277 8T183 72T127 162T108 267Q108 345 142 412T235 530T374 608T546 637Q672 637 765 592L727 443H708Z"  />
<glyph unicode="D" horiz-adv-x="760" d="M438 622Q512 622 573 602T677 546T743 459T767 345Q767 285 742 224T669 113T548 32T380 0H32L35 19Q60 20 77 24T105 36T122 57T133 91L222 527Q230 567 216 585T163 603H135L139 622H438ZM219 121Q213 92 214 73T227 43T262 28T323 24Q375 24 414 31T483 50T536 79T581 117Q632 168 654 229T676 350Q676 398 661 442T611 521T524 576T396 597H316L219 121Z"  />
<glyph unicode="E" horiz-adv-x="625" d="M540 218H523Q525 245 521 261T504 287T472 299T423 302H255L214 102Q210 82 211 68T220 44T246 30T292 25H380Q413 25 444 33T502 56T550 91T585 134H602L559 0H29L33 19Q83 19 104 38T134 97L221 527Q228 562 217 582T161 603H136L140 622H653L625 484H609Q615 548 588 572T502 597H315L260 327H456Q497 327 519 340T558 394H576L540 218Z"  />
<glyph unicode="F" horiz-adv-x="563" d="M517 218H499Q499 267 484 284T427 302H258L217 101Q209 61 221 40T283 19H302L298 0H37L41 19Q86 21 106 36T134 89L224 528Q233 571 216 587T164 603H146L150 622H624L596 486H580Q581 519 577 540T561 574T532 592T487 597H318L263 327H439Q475 327 497 343T536 399H554L517 218Z"  />
<glyph unicode="G" horiz-adv-x="781" d="M760 453Q741 528 682 570T535 613Q457 613 396 582T292 501T227 388T204 261Q204 210 219 165T266 84T350 29T474 8Q495 8 520 11T568 22T607 45T629 81L641 139Q647 169 632 185T575 201L579 219H800L796 201Q758 196 743 184T720 139L704 64Q698 39 738 37L735 19Q673 2 602 -7T467 -16Q368 -16 301 12T193 84T134 178T116 274Q116 349 149 415T240 531T375 608T540 637Q594 637 655 625T773 589L777 453H760Z"  />
<glyph unicode="H" horiz-adv-x="760" d="M254 299L212 96Q204 55 220 37T279 19H302L298 0H20L24 19H43Q87 19 106 41T134 106L220 528Q228 568 213 585T162 603H136L140 622H407L404 603H390Q347 603 328 585T301 533L260 332H620L661 532Q667 563 655 583T601 603H584L588 622H837L833 603Q785 603 766 583T739 521L652 93Q644 54 662 37T720 19H732L728 0H462L466 19H477Q523 19 543 36T573 98L614 299H254Z"  />
<glyph unicode="I" horiz-adv-x="323" d="M218 104Q208 56 224 38T283 19H298L294 0H36L40 19Q66 20 83 25T111 39T127 63T137 97L225 530Q233 566 219 584T165 603H152L156 622H406L402 603H394Q353 603 334 587T306 534L218 104Z"  />
<glyph unicode="J" horiz-adv-x="302" d="M198 28Q190 -21 175 -62T123 -140Q95 -168 64 -186T3 -214T-54 -229T-102 -233Q-131 -233 -153 -228T-176 -208Q-176 -202 -173 -194T-163 -177T-149 -164T-132 -158Q-121 -158 -109 -162T-83 -170T-53 -179T-17 -183Q3 -183 21 -178T56 -160T83 -126T101 -71L207 530Q220 603 144 603H125L129 622H382L378 603Q336 603 315 586T286 525L198 28Z"  />
<glyph unicode="K" horiz-adv-x="708" d="M256 281L219 99Q210 55 227 37T286 19H299L295 0H36L40 19Q89 19 110 37T140 102L227 530Q235 568 221 585T163 603L167 622H409L405 603Q363 603 340 589T308 534L264 317L594 549Q604 556 608 565T610 583T594 597T559 603L563 622H790L786 603L740 593Q711 586 671 565T570 501L359 353L589 84Q616 52 643 36T711 19L707 0H559L297 310L256 281Z"  />
<glyph unicode="L" horiz-adv-x="583" d="M568 0H34L38 19Q64 19 81 24T110 41T129 71T142 115L227 539Q234 571 218 587T166 603H147L151 622H412L408 603H395Q352 603 332 583T304 525L223 127Q214 83 223 58T271 32H383Q420 32 449 37T504 55T551 88T596 137H614L568 0Z"  />
<glyph unicode="M" horiz-adv-x="854" d="M276 560H274L154 132Q140 84 155 53T223 19L219 0H18L22 19Q47 23 64 31T95 56T119 101T142 174L237 515Q251 564 234 583T175 603H153L156 622H341L432 90L777 622H940L937 603H928Q884 603 865 584T836 519L749 89Q741 51 762 35T818 19H833L829 0H568L572 19Q620 19 641 37T670 91L764 554L762 556L402 0H369L276 560Z"  />
<glyph unicode="N" horiz-adv-x="771" d="M283 622L656 98L737 496Q748 547 733 573T657 603L661 622H864L860 603Q815 596 793 572T760 496L657 -11H634L252 537L173 140Q167 108 166 87T171 52T194 31T240 20L248 19L244 0H37L41 19Q60 23 76 29T106 49T129 84T146 139L232 567Q220 585 200 593T145 603L149 622H283Z"  />
<glyph unicode="O" horiz-adv-x="792" d="M803 345Q803 276 775 211T695 95T573 15T417 -16Q350 -16 295 8T199 72T137 166T115 277Q115 343 143 407T223 523T344 605T498 637Q562 637 617 615T714 553T779 460T803 345ZM715 374Q715 426 699 470T655 546T588 595T502 613Q446 613 403 595T326 548T269 481T231 403T210 323T203 252Q203 196 218 151T261 74T328 25T417 8Q486 8 541 39T635 122T694 239T715 374Z"  />
<glyph unicode="P" horiz-adv-x="563" d="M217 99Q209 58 222 39T283 19H297L293 0H45L49 19Q91 21 110 40T138 105L226 538Q233 573 215 588T164 603H152L155 622H403Q457 622 496 609T562 573T600 518T613 451Q613 422 602 386T561 318T482 265T358 243Q341 243 326 244T299 247L303 265Q312 264 320 264T336 263Q396 263 434 285T493 340T521 406T529 465Q529 530 495 563T392 597H318L217 99Z"  />
<glyph unicode="Q" horiz-adv-x="792" d="M798 -132Q775 -152 741 -163T669 -174Q625 -174 580 -157T488 -109L339 -8Q291 3 250 30T179 95T132 179T115 277Q115 349 145 414T228 529T349 608T494 637Q560 637 616 615T713 553T778 461T802 345Q802 279 777 219T709 110T606 30T477 -12Q520 -43 555 -65T619 -102T673 -123T722 -130Q756 -130 788 -118L798 -132ZM714 375Q714 427 699 471T655 546T587 595T502 613Q445 613 401 595T324 547T268 479T231 400T210 322T203 252Q203 196 218 152T261 75T328 26T417 9Q468 9 510 25T585 69T642 133T682 210T706 293T714 375Z"  />
<glyph unicode="R" horiz-adv-x="698" d="M432 622Q517 622 564 579T612 469Q612 399 560 350T414 283Q432 261 448 236T481 183T517 129T561 78Q581 58 596 46T628 27T663 17T712 13L709 -3Q697 -8 687 -9T659 -10Q589 -10 546 14T470 77T407 168T334 273Q327 272 315 272T291 272T268 272T251 273L214 94Q199 19 281 19H300L297 0H24L27 19H39Q84 19 105 36T134 94L222 524Q231 568 216 585T163 603H146L150 622H432ZM256 299H288Q365 299 411 317T483 364T517 426T526 489Q526 540 492 568T390 597H317L256 299Z"  />
<glyph unicode="S" horiz-adv-x="531" d="M524 458H506Q506 527 470 565T368 604Q309 604 273 575T236 502Q236 473 256 448T307 398T373 348T439 295T489 235T510 165Q510 125 494 92T448 34T376 -3T283 -16Q232 -16 173 1T66 48L99 190H116Q111 145 122 111T157 54T213 20T286 8Q320 8 349 16T398 40T429 78T441 126Q441 159 421 186T372 238T308 286T244 337T194 395T174 467Q174 500 189 529T231 581T292 615T368 628Q414 628 444 619T495 609Q513 609 526 622H546L524 458Z"  />
<glyph unicode="T" horiz-adv-x="656" d="M384 93Q376 56 391 38T451 19H471L468 0H195L199 19H209Q251 19 273 36T305 98L406 597H290Q260 597 237 592T197 574T166 540T140 488H123L156 649H173Q186 632 198 627T240 622H630Q655 622 671 623T699 626T718 634T735 649H754L721 488H703Q703 521 699 542T688 576T669 592T642 597H486L384 93Z"  />
<glyph unicode="U" horiz-adv-x="729" d="M665 218Q653 153 628 109T565 37T480 -3T375 -16Q300 -16 253 4T177 54T139 116T128 173Q128 191 131 209T140 260L194 528Q201 562 190 582T134 603H117L121 622H375L371 603Q327 603 305 589T275 533L219 257Q213 226 210 204T207 161Q207 126 220 98T258 50T317 19T394 8Q488 8 553 59T639 219L690 504Q700 559 675 581T602 603L606 622H812L808 603Q769 598 747 572T715 492L665 218Z"  />
<glyph unicode="V" horiz-adv-x="698" d="M242 539Q243 565 228 584T168 603L172 622H414L410 603H397Q355 603 338 577T318 514L303 78L305 76L667 506Q702 548 694 575T631 603L635 622H826L822 603Q791 592 764 570T705 511L258 -16H225L242 539Z"  />
<glyph unicode="W" horiz-adv-x="958" d="M217 542Q218 556 216 567T205 586T183 598T147 603L151 622H377L373 603Q349 600 334 595T309 578T297 550T292 507L271 91L273 89L582 507V543Q582 601 505 603L509 622H745L741 603Q717 601 702 596T678 581T666 556T661 519L650 91L652 89L939 498Q955 520 961 539T963 572T943 595T899 603L903 622H1084L1080 603Q1054 595 1034 577T986 519L607 -16H571L582 461L580 463L225 -16H192L217 542Z"  />
<glyph unicode="X" horiz-adv-x="688" d="M446 354L587 100Q600 77 610 62T632 38T658 24T695 16L691 0H452L456 16Q483 17 498 22T519 35T523 54T514 78L391 297L206 113Q164 71 174 45T240 16L236 0H14L18 16Q43 18 61 24T94 39T121 61T149 89L379 319L249 549Q241 563 232 573T210 589T180 599T137 603L141 622H407L403 603Q352 603 338 589T343 540L434 376L583 527Q618 563 605 583T537 603L541 622H767L763 602Q721 601 685 580T608 517L446 354Z"  />
<glyph unicode="Y" horiz-adv-x="625" d="M366 91Q359 56 375 38T434 19H460L456 0H171L175 19H193Q238 19 259 37T287 91L319 254L193 531Q177 566 162 584T114 603L117 622H325L322 603Q276 600 269 582T279 525L392 284L600 525Q626 556 619 578T560 603L564 622H735L732 603Q705 593 687 579T645 536L399 254L366 91Z"  />
<glyph unicode="Z" horiz-adv-x="688" d="M645 0H63V19L632 597H403Q331 597 288 564T218 456H199L237 622H745V602L175 25H468Q504 25 531 31T582 55T628 100T675 173H693L645 0Z"  />
<glyph unicode="[" horiz-adv-x="302" d="M133 -164Q128 -187 131 -194T156 -202H251L249 -219H60L237 655H425L422 638H331Q310 638 302 631T288 600L133 -164Z"  />
<glyph unicode="\" horiz-adv-x="219" d="M282 -16H239L63 637H106L282 -16Z"  />
<glyph unicode="]" horiz-adv-x="302" d="M254 600Q259 623 256 630T231 638H136L138 655H327L150 -219H-38L-35 -202H56Q77 -202 85 -195T99 -164L254 600Z"  />
<glyph unicode="^" horiz-adv-x="427" d="M488 323H442L271 609L101 323H55L264 673H279L488 323Z"  />
<glyph unicode="_" horiz-adv-x="500" d="M-8 -125V-75H508V-125H-8Z"  />
<glyph unicode="`" horiz-adv-x="333" d="M224 665L327 448H309L153 665H224Z"  />
<glyph unicode="a" horiz-adv-x="406" d="M329 89Q324 66 325 56T334 46Q339 46 346 51T361 64T378 80T393 97V74Q379 57 364 42T335 14T309 -5T289 -12Q273 -12 267 1T260 35T264 79T275 127L273 129Q264 118 242 95T194 48T144 6T105 -12Q94 -12 84 -3T66 20T53 52T48 91Q48 149 77 206T155 309T266 382T393 408L329 89ZM321 357Q273 354 239 340T180 301Q165 286 153 264T130 217T115 164T109 111Q109 78 119 58T143 38Q154 38 186 66T281 157L321 357Z"  />
<glyph unicode="b" horiz-adv-x="406" d="M157 269L159 267Q182 292 209 317T261 363T305 395T333 408Q342 408 352 396T369 364T382 320T387 272Q387 209 365 157T308 67T233 9T156 -12Q114 -12 88 12T61 78Q61 100 68 134L163 600Q167 617 157 617Q152 617 143 613T120 601L112 615L189 657Q196 661 205 667T226 673Q233 673 235 670T237 661T235 651T233 643L157 269ZM130 134Q126 117 124 98T122 68Q122 42 135 26T171 9Q205 9 233 33T281 93T312 171T323 252Q323 272 321 290T314 323T303 345T289 354Q272 354 236 320T151 237L130 134Z"  />
<glyph unicode="c" horiz-adv-x="271" d="M270 79Q234 37 194 13T121 -12Q83 -12 60 16T36 91Q36 134 52 189T98 292T168 374T256 408Q280 408 293 399T307 372Q307 358 300 350T282 341Q270 341 261 345T243 354T226 363T207 367Q191 367 177 352T150 313T129 260T112 200T102 144T98 100Q98 65 113 45T156 25Q179 25 206 42T257 89L270 79Z"  />
<glyph unicode="d" horiz-adv-x="438" d="M412 97Q398 75 381 56T347 21T315 -3T289 -12Q260 -12 272 50L291 142L289 144Q264 109 239 81T191 32T150 0T120 -12Q95 -12 79 21T63 107Q63 168 86 222T144 318T214 384T276 408Q313 408 338 374L383 599Q386 616 377 616Q374 616 369 614T354 607L313 585L304 599L413 659Q421 664 433 668T450 673Q458 673 458 664T455 647L338 71Q335 54 337 50T343 45Q349 45 365 62T399 106L412 97ZM327 321Q304 379 262 379Q240 379 216 355T172 291T138 205T125 113Q125 78 134 57T160 36Q169 36 184 47T218 79T258 127T299 185L327 321Z"  />
<glyph unicode="e" horiz-adv-x="344" d="M314 64Q269 29 225 9T148 -12Q127 -12 109 -2T78 27T57 70T49 124Q49 171 66 221T112 313T182 381T269 408Q308 408 329 392T350 343Q350 314 331 291T280 247T207 211T122 182Q114 150 114 122T122 72T147 38T190 25Q234 25 305 78L314 64ZM292 344Q292 387 255 387Q210 387 179 340T126 201Q178 215 211 231T257 260Q276 279 284 301T292 344Z"  />
<glyph unicode="f" horiz-adv-x="229" d="M56 363L59 382Q77 384 95 387T132 395Q143 457 167 517T233 619Q259 645 290 659T351 673Q380 673 401 659T422 625Q422 613 414 605T394 596Q382 596 371 602T348 616T327 630T305 637Q276 637 254 607T220 527L193 396H279L269 363H187L136 71Q121 -13 94 -71T33 -165T-38 -217T-111 -233Q-143 -233 -165 -220T-188 -187Q-188 -175 -178 -166T-155 -157Q-141 -157 -130 -164T-108 -179T-86 -194T-60 -201Q-28 -201 1 -172Q20 -153 33 -116T54 -40T67 31T74 73L125 363H56Z"  />
<glyph unicode="g" horiz-adv-x="375" d="M267 -165Q267 -153 255 -142T221 -117T172 -83T111 -34Q42 -64 11 -93T-20 -145Q-20 -158 -12 -170T12 -193T53 -210T112 -217Q143 -217 171 -213T220 -203T254 -187T267 -165ZM389 354L332 360Q341 340 347 318T353 275Q353 243 343 211T303 150Q273 120 243 103T188 74T149 55T134 36Q134 24 148 11T183 -16T228 -46T273 -77T308 -109T322 -141Q322 -161 306 -178T261 -207T193 -226T108 -233Q16 -233 -32 -209T-80 -154Q-80 -135 -58 -115T-7 -77T53 -44T100 -20Q88 -7 88 9Q88 27 103 41T135 64Q97 82 75 117T53 195Q53 225 70 262T116 331T186 386T272 408Q301 408 331 406T389 400V354ZM227 382Q199 382 178 358T144 300T124 235T117 186Q117 146 135 120T180 93Q200 93 219 109T253 153T277 214T287 285Q287 327 271 354T227 382Z"  />
<glyph unicode="h" horiz-adv-x="458" d="M109 609L218 668Q225 672 227 672T233 673Q249 673 244 650L153 201L155 199Q179 231 209 268T270 336T330 387T380 408Q397 408 407 392T418 350Q418 338 415 320T408 287L351 67Q347 51 349 46T356 40Q374 40 434 107L445 97Q427 74 408 54T371 20T338 -3T312 -12Q286 -12 286 27Q286 38 288 55T294 86L346 287Q350 301 352 317T354 342Q354 363 339 363Q325 363 301 342T248 290T192 224T145 160L114 8Q110 -12 95 -12H67Q54 -12 52 -8T52 10L173 604Q176 615 166 615Q163 615 159 614T145 608L118 594L109 609Z"  />
<glyph unicode="i" horiz-adv-x="240" d="M56 311Q71 329 88 346T121 377T152 399T176 408Q188 408 193 396T192 347L136 73Q133 57 133 49T142 40Q150 40 167 58T205 101L218 90Q202 71 185 53T151 20T120 -3T94 -12Q67 -12 67 23Q67 31 68 42T71 61L127 335Q130 349 123 349Q114 349 102 336L66 299L56 311ZM173 546Q173 561 177 574T187 598T202 615T220 622Q231 622 238 613T246 590Q246 578 243 565T234 541T219 522T198 515Q173 515 173 546Z"  />
<glyph unicode="j" horiz-adv-x="240" d="M58 303Q103 354 137 381T189 408Q198 408 202 402T208 387T209 365T204 340L141 29Q131 -21 112 -68T65 -151T4 -210T-70 -233Q-105 -233 -122 -221T-140 -188Q-140 -175 -132 -167T-111 -159Q-99 -159 -89 -165T-69 -180T-49 -195T-25 -202Q10 -202 30 -157T66 -32L139 329Q142 344 132 344Q121 344 98 321L70 293L58 303ZM184 546Q184 561 188 574T198 598T213 615T231 622Q242 622 249 613T257 590Q257 578 254 565T245 541T230 522T209 515Q184 515 184 546Z"  />
<glyph unicode="k" horiz-adv-x="458" d="M365 -12Q341 -12 323 -3T282 30Q265 47 251 67T223 108T193 150T155 192L115 1Q113 -7 110 -9T95 -12H67Q51 -12 54 1L176 603Q178 611 178 613T171 616Q168 616 157 612T141 604L125 596L117 610L215 664Q222 668 228 670T239 673Q253 673 248 652L166 249L168 247Q194 272 227 300T292 353T351 392T392 408Q415 408 432 384T449 329Q449 264 388 230T222 193Q249 171 266 147T300 101T338 63T393 39L439 83L450 72L365 -12ZM201 208Q259 208 295 220T353 249T382 287T390 325Q390 342 381 353T357 364Q345 364 322 351T272 316T215 269T160 218L158 208H201Z"  />
<glyph unicode="l" horiz-adv-x="229" d="M217 77Q181 35 150 12T97 -12Q81 -12 73 0T64 33Q64 41 65 50T68 68L175 596Q179 616 169 616Q163 616 110 588L102 603L198 657Q212 665 220 669T239 673Q253 673 247 643L127 56Q125 45 126 36T136 27Q144 27 164 46T205 88L217 77Z"  />
<glyph unicode="m" horiz-adv-x="677" d="M57 301Q76 324 94 343T129 377T159 400T182 408Q190 408 195 401T197 376L157 182L159 180Q187 228 220 270T284 342T343 390T387 408Q414 408 414 365Q414 351 411 334T403 289L383 191L385 189Q413 235 445 275T509 344T567 391T608 408Q622 408 628 396T635 364Q634 350 633 342T630 325L576 55Q574 43 579 43Q584 43 591 49T608 64T627 85T646 108L659 98Q647 82 630 63T595 27T561 -1T532 -12Q514 -12 510 3T511 43L570 332Q576 359 567 359Q559 359 540 346T502 313Q490 301 470 278T428 226T389 166T366 108L345 5Q343 -7 341 -9T330 -12H294Q280 -12 283 3L351 337Q353 349 352 354T343 360Q327 360 291 324Q275 308 252 282T206 224T165 162T142 105L121 2Q117 -12 107 -12H76Q64 -12 61 -8T60 8L123 316Q128 339 120 339Q112 339 99 326T67 289L57 301Z"  />
<glyph unicode="n" horiz-adv-x="469" d="M164 194Q197 237 230 276T293 344T348 390T392 408Q412 408 422 391T431 349Q431 335 430 323T423 292L361 59Q358 47 358 39T367 30Q372 30 381 38T403 59T427 86T451 113L462 104Q451 86 433 66T396 29T357 0T324 -12Q307 -12 299 7T300 61L366 318Q372 342 366 352T351 362Q343 362 330 354T296 324Q284 312 269 295T235 255T196 209T155 158L124 5Q121 -12 107 -12H76Q67 -12 64 -8T62 7L125 312Q130 335 121 335Q116 335 102 320T68 275L55 285Q69 306 87 328T123 367T157 396T182 408Q189 408 195 401T198 373L162 194H164Z"  />
<glyph unicode="o" horiz-adv-x="396" d="M52 146Q52 207 80 255T146 338T224 390T286 408Q297 408 312 400T342 375T367 329T377 261Q377 214 363 175T327 106T277 53T223 17T175 -5T141 -12Q123 -12 107 1T79 36T60 86T52 146ZM313 247Q313 273 307 296T291 335T266 361T235 371Q211 371 190 351T152 298T126 227T116 150Q116 87 138 56T186 25Q216 25 239 46T279 101T304 173T313 247Z"  />
<glyph unicode="p" horiz-adv-x="438" d="M40 284Q60 310 81 332T121 372T156 398T182 408Q199 408 199 380Q199 370 197 353T192 321L177 250L179 248Q200 279 225 308T275 359T320 394T354 408Q366 408 378 396T399 363T415 316T421 263Q421 210 401 161T347 73T270 12T181 -12Q151 -12 126 -3L98 -137Q94 -157 94 -172T100 -196T124 -210T174 -215L170 -233H-65L-61 -215Q-34 -214 -17 -210T10 -196T28 -166T41 -115L125 299Q130 321 130 331T125 342Q116 342 98 324T53 272L40 284ZM134 37Q150 23 164 18T198 12Q229 12 258 32T309 87T344 166T358 258Q358 300 346 329T313 358Q305 358 289 346T253 312T211 265T169 210L134 37Z"  />
<glyph unicode="q" horiz-adv-x="417" d="M329 356Q275 354 243 343T185 306Q163 284 149 258T126 206T114 157T110 116Q110 39 145 39Q154 39 168 48T201 73T242 112T289 160L329 356ZM291 -137Q287 -157 287 -172T293 -196T317 -210T367 -215L362 -233H127L131 -215Q158 -214 175 -210T203 -196T221 -166T234 -115L283 125L281 127Q255 98 228 73T176 29T133 -1T105 -12Q93 -12 82 -3T63 21T51 57T46 101Q46 149 72 203T144 302T248 378T374 408Q390 408 394 404T397 388L291 -137Z"  />
<glyph unicode="r" horiz-adv-x="271" d="M50 300Q90 348 119 378T165 408Q187 408 187 376Q187 363 183 334T171 270T154 198T134 132Q130 121 133 117T143 130L193 263Q201 284 212 309T238 356T268 393T300 408Q312 408 318 400T325 377Q325 363 318 347T294 330Q290 330 285 331T271 333Q262 333 253 325T234 302T217 271T201 235Q193 215 184 192T167 146T152 105T143 76L125 1Q122 -12 107 -12H76Q68 -12 66 -8T66 3L120 306Q122 320 122 330T113 341Q104 341 93 326T61 288L50 300Z"  />
<glyph unicode="s" horiz-adv-x="302" d="M210 71Q210 97 192 122T152 172T112 223T93 276Q93 298 106 321T139 364T184 395T233 408Q257 408 275 392T293 353Q293 339 286 330T266 321Q254 321 248 330T235 349T222 369T199 378Q188 378 178 372T159 356T145 335T139 311Q139 287 156 266T194 221T232 172T249 113Q249 55 207 22T91 -12Q55 -12 35 0T15 33Q15 47 23 55T46 63Q59 63 71 56T96 41T123 26T154 19Q177 19 193 34T210 71Z"  />
<glyph unicode="t" horiz-adv-x="260" d="M276 363H198L137 61Q133 41 134 33T144 25Q153 25 177 44T239 101L249 88Q229 67 209 49T169 17T133 -4T106 -12Q91 -12 82 -2T73 28Q73 39 75 57T81 90L136 363H85L89 380Q130 398 164 431T236 525H252Q237 496 225 462T206 396H284L276 363Z"  />
<glyph unicode="u" horiz-adv-x="469" d="M372 68Q369 56 379 56Q394 56 441 115L453 104Q436 82 417 62T379 25T347 -2T324 -12Q305 -12 305 25Q305 36 307 54T314 92L339 219H336Q298 165 267 131T221 83Q203 65 185 48T152 18T123 -4T102 -12Q74 -12 74 43Q74 57 76 71T82 105L123 307Q127 327 127 333T121 339Q109 339 69 289L57 296Q72 318 89 338T122 374T153 399T177 408Q194 408 196 390T191 337L142 95Q139 81 139 71Q139 49 151 49Q159 49 175 62T213 97Q234 118 258 146T304 204T340 260T359 307L375 389Q379 408 400 408H422Q434 408 437 404T437 386L372 68Z"  />
<glyph unicode="v" horiz-adv-x="406" d="M40 297Q55 318 73 337T109 373T141 398T164 408Q186 408 186 376Q186 368 184 351T179 315L141 84Q138 66 138 51T148 35Q154 35 171 47T211 80T258 129T303 190T337 256T351 325Q351 329 347 332T338 339T328 348T324 364Q324 369 328 376T339 391T355 403T373 408Q392 408 404 390T417 346Q417 318 399 280T351 203T286 125T216 56T152 7T105 -12Q81 -12 81 35Q81 45 81 57T83 82T85 106T88 124L119 313Q121 327 119 333T111 340Q103 340 88 325T52 285L40 297Z"  />
<glyph unicode="w" horiz-adv-x="604" d="M36 289Q50 310 68 331T103 369T136 397T162 408Q181 408 181 378Q181 367 180 354T176 324L141 90Q136 58 136 45T148 32Q160 32 185 54T238 107T292 173T335 233L357 383Q359 397 365 402T379 408H398Q409 408 413 401T414 372L369 84Q364 55 365 43T376 30Q384 30 401 43T440 78T485 130T527 191T558 258T570 323Q570 333 567 338T559 347T551 355T547 366Q547 381 561 394T591 408Q609 408 621 393T633 354Q633 299 592 232T475 90Q415 30 382 9T331 -12Q320 -12 313 -2T305 26Q305 37 307 56T311 90L327 191L325 193Q294 149 264 112T205 47T152 4T108 -12Q94 -12 86 -1T78 30Q78 43 80 66T84 106L110 284Q113 306 115 321T107 337Q100 337 87 325T49 278L36 289Z"  />
<glyph unicode="x" horiz-adv-x="490" d="M65 292Q84 325 99 347T128 382T154 402T178 408Q198 408 211 394T242 332L279 236L333 308Q365 352 393 380T448 408Q466 408 478 394T490 359Q490 348 489 339T483 312H465Q463 352 427 352Q407 352 387 338T343 292L287 218L330 108Q344 72 353 58T374 44Q387 44 399 59T432 116L447 108Q438 87 426 66T400 27T372 -1T344 -12Q315 -12 298 31L245 163L200 108Q147 44 113 16T53 -12Q24 -12 24 22Q24 51 47 111H65Q65 81 74 69T98 56Q121 56 144 76T191 126L238 184L187 312Q176 339 169 348T151 358Q137 358 122 342T82 282L65 292Z"  />
<glyph unicode="y" horiz-adv-x="438" d="M47 301Q85 355 114 381T162 408Q174 408 187 379T213 299T233 180T241 33H243Q263 67 286 112T329 201T362 281T375 332Q375 339 373 342T367 349T362 357T359 370Q359 385 370 396T398 408Q416 408 427 395T438 359Q438 324 415 281T360 190T296 93T246 -1L205 -104Q194 -133 182 -158T170 -191Q170 -203 184 -206T234 -211L227 -227H20L27 -211Q56 -211 71 -207T91 -198Q96 -193 111 -166T144 -99T174 -17T188 65Q188 91 185 123T176 188T165 252T151 307T139 345T129 360Q117 360 103 346T59 293L47 301Z"  />
<glyph unicode="z" horiz-adv-x="500" d="M90 322Q123 366 155 386T223 407Q251 407 273 397T318 375Q339 363 359 353T402 343Q431 343 443 353T460 375T468 398T481 408Q495 408 495 393Q495 378 482 355T445 309Q411 275 359 243T254 182T156 126T90 75L92 73Q116 86 136 91T180 96Q211 96 234 87T278 67Q299 56 318 47T359 37Q401 37 436 89L450 80Q422 41 389 15T324 -12Q302 -12 277 0T226 26Q200 40 174 51T121 63Q105 63 96 60T81 51T74 40T71 26Q70 19 70 12T67 0T60 -8T46 -12Q41 -12 37 -8T32 3Q32 14 46 40T86 92Q128 134 184 167T293 229T390 284T451 338L449 340Q420 324 394 317T344 310Q318 310 295 318T251 336Q231 346 212 354T176 362Q155 362 139 351T102 313L90 322Z"  />
<glyph unicode="{" horiz-adv-x="396" d="M122 229Q171 238 202 266T233 329Q233 346 230 364T221 401Q216 421 213 441T210 485Q210 518 223 550T261 608T319 651T394 673V655Q367 652 346 641T310 614T289 578T281 539Q281 516 283 497T290 460Q294 442 297 424T300 382Q300 359 291 335T264 289T220 249T161 221V219Q194 209 220 191T263 152T290 106T300 58Q300 35 297 17T290 -19Q286 -37 284 -56T281 -99Q281 -118 288 -137T310 -173T345 -201T394 -215V-233Q353 -229 320 -212T262 -168T224 -110T210 -45Q210 -22 213 -1T221 39Q226 59 229 76T233 111Q233 146 202 174T122 211V229Z"  />
<glyph unicode="|" horiz-adv-x="510" d="M334 637V-233H291V637H334Z"  />
<glyph unicode="}" horiz-adv-x="396" d="M395 211Q346 202 315 174T284 111Q284 94 287 77T296 39Q301 20 304 -1T307 -45Q307 -78 294 -110T256 -168T197 -211T123 -233V-215Q150 -212 171 -201T207 -174T228 -138T236 -99Q236 -76 234 -57T227 -19Q223 -1 220 17T217 58Q217 81 226 105T253 151T297 191T356 219V221Q323 231 297 249T254 288T227 334T217 382Q217 405 220 423T227 460Q231 478 233 497T236 539Q236 558 229 577T207 613T172 641T123 655V673Q163 669 197 652T255 608T293 550T307 485Q307 462 304 442T296 401Q291 382 288 364T284 329Q284 294 315 266T395 229V211H395Z"  />
<glyph unicode="~" horiz-adv-x="542" d="M593 387Q590 313 556 276T464 238Q430 238 391 251T314 282Q275 299 240 312T177 326Q109 326 93 238H65Q67 314 102 350T194 387Q224 387 260 374T339 343Q380 326 418 312T483 297Q518 297 539 321T565 387H593Z"  />
<glyph unicode="&#xA0;" horiz-adv-x="278" />
<glyph unicode="&#xA1;" horiz-adv-x="292" d="M140 -212Q138 -225 132 -229T117 -233H82Q64 -233 60 -224T60 -198L184 239H203L140 -212ZM213 314Q193 314 184 326T174 358Q174 381 186 398T223 416Q245 416 253 401T261 371Q261 349 249 332T213 314Z"  />
<glyph unicode="&#xA2;" horiz-adv-x="271" d="M121 -12Q81 -10 59 18T36 92Q36 134 50 184T91 280Q115 323 139 348T199 394L248 647H271L224 404Q234 407 241 407Q246 408 255 408Q307 408 307 372Q307 358 300 350T281 341Q269 341 251 349L235 358L217 366L151 25H157Q179 25 206 42T258 89L271 79Q254 58 236 43T193 11Q179 2 169 -2T143 -9L103 -224H81L121 -12ZM194 364Q181 359 172 348T151 316Q139 293 129 265T113 209T102 152T98 101Q98 51 130 31L194 364Z"  />
<glyph unicode="&#xA3;" horiz-adv-x="729" d="M125 85H264Q306 192 344 276T416 426T482 537T543 612Q575 644 609 658T679 673Q715 673 739 657T764 616Q764 602 755 593T730 584Q713 584 705 592T690 611T672 631T642 640Q631 640 613 633T580 611Q553 584 525 526T464 395T397 240T320 85H486L481 60H307Q276 5 252 -33T198 -105L200 -107Q218 -102 232 -101T268 -99Q320 -99 356 -113T422 -146T481 -178T548 -193Q580 -193 601 -173T623 -123Q623 -107 619 -97T611 -78T602 -62T598 -42Q598 -28 606 -19T626 -9Q646 -9 658 -26T670 -73Q670 -105 657 -133T622 -184T572 -220T512 -233Q459 -233 423 -215T353 -177T280 -140T182 -126Q167 -147 152 -166T122 -200T96 -224T73 -233Q63 -233 56 -226T49 -209Q49 -197 58 -183T82 -156T118 -133T160 -116Q192 -73 214 -28T254 60H120L125 85Z"  />
<glyph unicode="&#xA4;" horiz-adv-x="667" d="M533 549L563 518L502 458Q529 421 540 391T551 320Q551 282 540 252T502 183L563 122L533 92L472 153Q453 139 437 130T404 114T370 106T334 103Q295 103 264 114T196 152L135 92L105 122L166 182Q139 220 128 250T117 320Q117 359 128 390T166 458L105 518L135 549L196 489Q234 516 264 526T334 537Q373 537 403 527T472 488L533 549ZM160 320Q160 284 173 253T211 198T266 160T334 146Q370 146 401 160T456 197T494 252T508 320Q508 356 494 387T457 443T402 480T334 494Q298 494 267 481T211 443T174 388T160 320Z"  />
<glyph unicode="&#xA5;" horiz-adv-x="500" d="M479 457L538 525Q564 556 557 578T498 603L502 622H673L670 603Q643 593 626 579T583 536L514 457H631L625 424H485L348 267H607L602 234H333L304 91Q297 56 313 38T372 19H398L394 0H109L113 19H131Q176 19 197 37T225 91L253 234H18L24 267H251L180 424H41L47 457H165L131 531Q115 566 100 584T52 603L55 622H263L260 603Q214 600 207 582T217 525L249 457H479ZM264 424L330 284L451 424H264Z"  />
<glyph unicode="&#xA6;" horiz-adv-x="510" d="M334 136V-233H291V136H334ZM334 637V268H291V637H334Z"  />
<glyph unicode="&#xA7;" horiz-adv-x="479" d="M-36 -186Q-36 -170 -26 -156T-3 -141Q9 -141 22 -149T51 -167T83 -185T120 -193Q149 -193 169 -178T203 -139T222 -90T228 -43Q228 9 210 53T171 140T132 228T114 330Q114 393 142 454T217 564T322 643T441 673Q478 673 505 660T533 628Q533 608 523 594T499 580Q485 580 473 588T447 607T416 625T375 634Q338 634 314 600T290 510Q290 454 307 404T346 306T384 208T402 104Q402 55 386 11T341 -70T277 -138T203 -189T127 -221T56 -233Q15 -233 -10 -220T-36 -186ZM158 339Q158 284 175 240T212 154T250 70T267 -22Q267 -76 245 -118L247 -120Q360 -31 360 97Q360 150 343 196T306 287T268 381T251 489Q251 507 253 523T262 560L260 562Q158 449 158 339Z"  />
<glyph unicode="&#xA8;" horiz-adv-x="333" d="M174 561Q189 561 200 550T211 524Q211 509 200 498T174 487Q159 487 148 498T137 524Q137 539 148 550T174 561ZM333 561Q348 561 359 550T370 524Q370 509 359 498T333 487Q318 487 307 498T296 524Q296 539 307 550T333 561Z"  />
<glyph unicode="&#xA9;" horiz-adv-x="760" d="M560 417H541Q506 533 393 533Q321 533 279 482T236 343Q236 288 249 250T284 187T335 152T398 141Q493 141 550 220L569 211Q501 112 381 112Q333 112 292 128T220 174T173 242T155 328Q155 376 173 417T224 489T301 536T398 554Q421 554 438 551T468 543T490 536T508 532Q518 532 523 538T531 554H550L560 417ZM380 677Q452 677 515 650T625 576T699 466T726 331Q726 259 699 196T625 86T515 12T380 -15Q308 -15 245 12T135 86T61 196T34 331Q34 403 61 466T135 576T245 650T380 677ZM380 647Q314 647 257 622T157 555T89 455T64 331Q64 265 89 208T156 108T256 40T380 15Q446 15 503 40T603 107T671 207T696 331Q696 397 671 454T604 554T504 622T380 647Z"  />
<glyph unicode="&#xAA;" horiz-adv-x="260" d="M285 495L281 477Q279 470 279 468T279 463Q279 460 281 460L283 462L293 470L314 490L323 500V473Q297 444 280 432T250 419Q227 419 227 450Q227 456 228 464T232 488L230 490Q158 419 134 419Q117 419 104 437T91 482Q91 516 110 550T159 611T227 656T303 673H318L324 672L285 495ZM265 637Q242 634 228 630T200 616Q174 599 158 565T142 495Q142 481 146 468T156 455Q162 455 182 471T236 520L240 523L265 637Z"  />
<glyph unicode="&#xAB;" horiz-adv-x="438" d="M420 382H440L334 219L364 58H341L265 219L420 382ZM288 404H308L165 219L225 35H202L96 219L288 404Z"  />
<glyph unicode="&#xAC;" horiz-adv-x="667" d="M654 462V180H609V418H129V462H654Z"  />
<glyph unicode="&#xAD;" horiz-adv-x="333" d="M75 229H300L287 167H62L75 229Z"  />
<glyph unicode="&#xAE;" horiz-adv-x="760" d="M376 544Q442 544 482 514T522 434Q522 353 413 326L515 180Q532 156 544 148T574 137V121H484L340 319H304V175Q304 155 316 146T361 137V121H182V137Q210 137 221 148T233 180V484Q233 504 225 515T188 526V544H376ZM323 340Q346 340 367 345T406 360T433 388T443 429Q443 469 415 495T344 522Q333 522 325 521T304 515V340H323ZM380 677Q452 677 515 650T625 576T699 466T726 331Q726 259 699 196T625 86T515 12T380 -15Q308 -15 245 12T135 86T61 196T34 331Q34 403 61 466T135 576T245 650T380 677ZM380 647Q314 647 257 622T157 555T89 455T64 331Q64 265 89 208T156 108T256 40T380 15Q446 15 503 40T603 107T671 207T696 331Q696 397 671 454T604 554T504 622T380 647Z"  />
<glyph unicode="&#xAF;" horiz-adv-x="333" d="M405 549L398 501H115L122 549H405Z"  />
<glyph unicode="&#xB0;" horiz-adv-x="396" d="M385 489Q385 511 377 531T353 566T318 589T276 598Q253 598 234 590T199 566T176 531T167 489Q167 466 175 447T199 412T233 389T276 380Q298 380 318 388T353 412T376 446T385 489ZM426 489Q426 458 414 431T382 383T335 351T276 339Q245 339 218 351T170 383T138 430T126 489Q126 520 138 547T170 595T217 627T276 639Q307 639 334 627T382 595T414 548T426 489Z"  />
<glyph unicode="&#xB1;" horiz-adv-x="667" d="M654 26V-18H129V26H654ZM654 421V377H413V136H369V377H129V421H369V661H413V421H654Z"  />
<glyph unicode="&#xB2;" horiz-adv-x="313" d="M330 411H104V422L159 468Q214 514 246 546T296 601T318 640T324 670Q324 674 323 681T315 696T299 709T270 714Q248 714 233 706T207 688T192 667T185 651H162Q171 696 205 719T281 742Q301 742 319 737T352 723T374 699T383 667Q383 659 381 650T372 630T352 604T317 570Q310 564 293 551T258 523T222 495T199 477L168 451H297Q310 451 313 456T322 482H345L330 411Z"  />
<glyph unicode="&#xB3;" horiz-adv-x="313" d="M190 691Q210 720 237 731T287 742Q322 742 343 727T364 690Q364 671 348 654T288 619Q315 616 332 600T350 557Q350 526 332 498T285 449T223 416T158 403Q135 403 121 409T107 426Q107 434 113 440T130 447Q135 447 142 445T158 438Q166 435 175 432T195 429Q213 429 230 439T261 466T283 502T291 542Q291 565 279 577T246 590Q236 590 225 586T189 571L194 592Q209 599 228 609T266 632T296 657T308 684Q308 699 297 708T270 717Q247 717 232 705T205 679L190 691Z"  />
<glyph unicode="&#xB4;" horiz-adv-x="333" d="M198 448H180L283 665H354L198 448Z"  />
<glyph unicode="&#xB5;" horiz-adv-x="500" d="M217 396L179 182Q179 182 178 173T174 149T171 120T169 91Q169 71 184 53T229 35Q245 35 266 47T308 81T345 130T368 192L405 396H467L422 149Q417 118 414 102T411 71Q411 51 415 43T434 35Q449 35 467 50T502 106H520Q510 68 495 45T465 9T436 -8T416 -12Q387 -12 370 9T352 63L354 98L352 100Q330 65 307 43T263 9T225 -7T198 -12Q169 -12 151 0T119 42Q111 19 108 3T104 -30T101 -70T98 -132Q95 -177 81 -195T45 -214Q29 -214 22 -203T15 -175Q15 -171 15 -165T19 -148T31 -120T53 -78Q82 -22 97 65L104 106L155 396H217Z"  />
<glyph unicode="&#xB6;" horiz-adv-x="448" d="M455 -233H419V595H328V-233H292V253Q230 253 186 266T114 304T72 363T58 438Q58 525 116 573T278 622H519V595H455V-233Z"  />
<glyph unicode="&#xB7;" horiz-adv-x="292" d="M207 360Q228 360 242 346T257 310Q257 289 243 275T207 260Q186 260 172 274T157 310Q157 331 171 345T207 360Z"  />
<glyph unicode="&#xB8;" horiz-adv-x="333" d="M47 -173Q101 -177 128 -160T155 -113Q155 -76 105 -74L140 -5H156L145 -27Q170 -28 186 -46T202 -93Q202 -144 159 -169T44 -189L47 -173Z"  />
<glyph unicode="&#xB9;" horiz-adv-x="313" d="M340 742L272 455Q267 435 276 431T315 424L312 411H159L163 424H186Q205 424 209 430T218 454L271 681Q254 671 242 664T219 652T197 642T171 634L176 655Q188 659 204 666T238 684T274 709T308 742H340Z"  />
<glyph unicode="&#xBA;" horiz-adv-x="260" d="M108 516Q108 549 127 582T182 639Q204 654 226 663T264 673Q277 673 288 666T309 647T323 618T328 583Q328 502 248 449Q227 435 206 427T171 419Q158 419 147 427T127 448T113 478T108 516ZM275 575Q275 604 263 624T231 645Q214 645 197 626Q179 606 170 580T161 518Q161 488 172 468T200 447Q214 447 227 458T251 487T268 528T275 575Z"  />
<glyph unicode="&#xBB;" horiz-adv-x="438" d="M85 57H65L171 220L141 381H164L240 220L85 57ZM217 35H197L340 220L280 404H303L409 220L217 35Z"  />
<glyph unicode="&#xBC;" horiz-adv-x="823" d="M615 97H476V118L699 331H724L676 130H731L724 97H670L645 -7H590L615 97ZM623 130L653 254L651 256L521 130H623ZM106 -27L727 654H771L150 -27H106ZM320 637L252 349Q247 329 257 325T295 320L292 306H140L143 320H166Q182 320 187 324T198 349L252 576Q234 565 222 558T198 546T176 537T151 529L156 550Q235 578 288 637H320Z"  />
<glyph unicode="&#xBD;" horiz-adv-x="823" d="M732 0H505L507 11Q558 54 598 89T666 154T710 209T725 258Q725 278 711 290T671 302Q612 302 586 240H564Q572 282 604 306T683 331Q728 331 756 310T784 256Q784 232 769 211T726 166T658 112T569 40H698Q710 40 714 44T721 62L723 71H746L732 0ZM106 -27L727 654H771L150 -27H106ZM320 637L252 349Q247 329 257 325T295 320L292 306H140L143 320H166Q182 320 187 324T198 349L252 576Q234 565 222 558T198 546T176 537T151 529L156 550Q235 578 288 637H320Z"  />
<glyph unicode="&#xBE;" horiz-adv-x="823" d="M627 97H488V118L711 331H736L688 130H743L736 97H682L657 -7H602L627 97ZM634 130L664 254L662 256L532 130H634ZM118 -27L739 654H783L162 -27H118ZM193 585Q228 637 289 637Q323 637 345 622T367 584Q367 564 349 548T291 516V514Q320 510 336 494T353 451Q353 424 336 397T292 348T230 313T161 299Q135 299 123 306T110 322Q110 330 116 336T136 342Q150 342 163 333T198 324Q216 324 233 334T263 360T285 396T293 438Q293 459 281 472T249 485Q239 485 229 482T193 466L197 487Q259 519 285 540T311 580Q311 594 301 603T273 613Q256 613 242 605T208 574L193 585Z"  />
<glyph unicode="&#xBF;" horiz-adv-x="396" d="M288 240Q280 163 268 124T236 65Q219 48 194 35T145 7T104 -29T87 -81Q87 -115 112 -137T175 -160Q205 -160 225 -153T258 -145Q269 -145 276 -155T283 -182Q283 -194 275 -203T255 -219T226 -229T194 -233Q131 -233 93 -191T55 -80Q55 -15 74 20T120 76T175 108T221 138Q237 154 249 178T269 240H288ZM300 314Q280 314 271 326T261 358Q261 381 273 398T310 416Q332 416 340 401T348 371Q348 349 336 332T300 314Z"  />
<glyph unicode="&#xC0;" horiz-adv-x="698" d="M581 637V77Q581 47 598 33T665 19L661 0H395L399 19Q458 19 480 36T503 93V271H278L147 102Q132 82 130 67T134 41T157 25T194 19H213L209 0H-8L-4 19Q35 22 63 47T120 110L525 637H581ZM306 307H503V567H501L306 307ZM554 892L657 675H639L483 892H554Z"  />
<glyph unicode="&#xC1;" horiz-adv-x="698" d="M581 637V77Q581 47 598 33T665 19L661 0H395L399 19Q458 19 480 36T503 93V271H278L147 102Q132 82 130 67T134 41T157 25T194 19H213L209 0H-8L-4 19Q35 22 63 47T120 110L525 637H581ZM306 307H503V567H501L306 307ZM528 683H510L613 900H684L528 683Z"  />
<glyph unicode="&#xC2;" horiz-adv-x="698" d="M581 637V77Q581 47 598 33T665 19L661 0H395L399 19Q458 19 480 36T503 93V271H278L147 102Q132 82 130 67T134 41T157 25T194 19H213L209 0H-8L-4 19Q35 22 63 47T120 110L525 637H581ZM306 307H503V567H501L306 307ZM619 892H674V674H651L619 814L477 674H454L619 892Z"  />
<glyph unicode="&#xC3;" horiz-adv-x="698" d="M581 637V77Q581 47 598 33T665 19L661 0H395L399 19Q458 19 480 36T503 93V271H278L147 102Q132 82 130 67T134 41T157 25T194 19H213L209 0H-8L-4 19Q35 22 63 47T120 110L525 637H581ZM306 307H503V567H501L306 307ZM436 736Q439 782 461 807Q482 833 518 833Q541 833 560 824T597 803Q614 792 631 783T666 773Q713 773 715 832H728Q728 787 707 762T649 736Q626 736 605 745T565 766Q546 777 529 786T496 796Q475 796 464 782T449 736H436Z"  />
<glyph unicode="&#xC4;" horiz-adv-x="698" d="M581 637V77Q581 47 598 33T665 19L661 0H395L399 19Q458 19 480 36T503 93V271H278L147 102Q132 82 130 67T134 41T157 25T194 19H213L209 0H-8L-4 19Q35 22 63 47T120 110L525 637H581ZM306 307H503V567H501L306 307ZM504 792Q519 792 530 781T541 755Q541 740 530 729T504 718Q489 718 478 729T467 755Q467 770 478 781T504 792ZM663 792Q678 792 689 781T700 755Q700 740 689 729T663 718Q648 718 637 729T626 755Q626 770 637 781T663 792Z"  />
<glyph unicode="&#xC5;" horiz-adv-x="698" d="M581 637V77Q581 47 598 33T665 19L661 0H395L399 19Q458 19 480 36T503 93V271H278L147 102Q132 82 130 67T134 41T157 25T194 19H213L209 0H-8L-4 19Q35 22 63 47T120 110L525 637H581ZM306 307H503V567H501L306 307ZM569 871Q607 871 633 845T659 781Q659 743 633 717T569 691Q531 691 505 717T479 781Q479 819 505 845T569 871ZM569 847Q542 847 523 828T503 781Q503 754 522 735T569 715Q596 715 615 734T635 781Q635 808 616 827T569 847Z"  />
<glyph unicode="&#xC6;" horiz-adv-x="948" d="M541 597H537L279 273H475L541 597ZM959 622L931 484H915Q921 548 894 572T808 597H621L566 327H762Q803 327 825 340T864 394H882L846 218H829Q831 245 827 261T810 287T778 299T729 302H561L520 102Q516 82 517 68T526 44T552 30T598 25H686Q719 25 750 33T808 56T856 91T891 134H908L865 0H335L339 19Q389 19 410 37T440 97L470 248H259L141 100Q113 65 121 42T189 19L185 0H-20L-16 19Q5 20 24 29T62 53T95 85T124 119L484 569Q494 582 487 590T456 600L416 603L423 622H959Z"  />
<glyph unicode="&#xC7;" horiz-adv-x="729" d="M644 0H637Q627 5 620 6T602 8Q590 8 570 4T525 -4T470 -12T408 -16H393L385 -32Q410 -33 426 -51T442 -98Q442 -149 399 -174T284 -194L287 -178Q341 -182 368 -165T395 -118Q395 -81 345 -79L378 -14Q310 -9 260 16T175 81T125 168T108 267Q108 345 142 412T235 530T374 608T546 637Q672 637 765 592L727 443H708Q714 478 707 509T680 563T625 599T538 613Q486 613 426 592T315 526T230 415T196 257Q196 200 211 154T256 76T325 26T417 8Q494 8 561 47T676 159H696L644 0Z"  />
<glyph unicode="&#xC8;" horiz-adv-x="625" d="M540 218H523Q525 245 521 261T504 287T472 299T423 302H255L214 102Q210 82 211 68T220 44T246 30T292 25H380Q413 25 444 33T502 56T550 91T585 134H602L559 0H29L33 19Q83 19 104 38T134 97L221 527Q228 562 217 582T161 603H136L140 622H653L625 484H609Q615 548 588 572T502 597H315L260 327H456Q497 327 519 340T558 394H576L540 218ZM429 892L532 675H514L358 892H429Z"  />
<glyph unicode="&#xC9;" horiz-adv-x="625" d="M540 218H523Q525 245 521 261T504 287T472 299T423 302H255L214 102Q210 82 211 68T220 44T246 30T292 25H380Q413 25 444 33T502 56T550 91T585 134H602L559 0H29L33 19Q83 19 104 38T134 97L221 527Q228 562 217 582T161 603H136L140 622H653L625 484H609Q615 548 588 572T502 597H315L260 327H456Q497 327 519 340T558 394H576L540 218ZM403 675H385L488 892H559L403 675Z"  />
<glyph unicode="&#xCA;" horiz-adv-x="625" d="M540 218H523Q525 245 521 261T504 287T472 299T423 302H255L214 102Q210 82 211 68T220 44T246 30T292 25H380Q413 25 444 33T502 56T550 91T585 134H602L559 0H29L33 19Q83 19 104 38T134 97L221 527Q228 562 217 582T161 603H136L140 622H653L625 484H609Q615 548 588 572T502 597H315L260 327H456Q497 327 519 340T558 394H576L540 218ZM494 896H549V678H526L494 818L352 678H329L494 896Z"  />
<glyph unicode="&#xCB;" horiz-adv-x="625" d="M540 218H523Q525 245 521 261T504 287T472 299T423 302H255L214 102Q210 82 211 68T220 44T246 30T292 25H380Q413 25 444 33T502 56T550 91T585 134H602L559 0H29L33 19Q83 19 104 38T134 97L221 527Q228 562 217 582T161 603H136L140 622H653L625 484H609Q615 548 588 572T502 597H315L260 327H456Q497 327 519 340T558 394H576L540 218ZM379 788Q394 788 405 777T416 751Q416 736 405 725T379 714Q364 714 353 725T342 751Q342 766 353 777T379 788ZM538 788Q553 788 564 777T575 751Q575 736 564 725T538 714Q523 714 512 725T501 751Q501 766 512 777T538 788Z"  />
<glyph unicode="&#xCC;" horiz-adv-x="323" d="M218 104Q208 56 224 38T283 19H298L294 0H36L40 19Q66 20 83 25T111 39T127 63T137 97L225 530Q233 566 219 584T165 603H152L156 622H406L402 603H394Q353 603 334 587T306 534L218 104ZM278 892L381 675H363L207 892H278Z"  />
<glyph unicode="&#xCD;" horiz-adv-x="323" d="M218 104Q208 56 224 38T283 19H298L294 0H36L40 19Q66 20 83 25T111 39T127 63T137 97L225 530Q233 566 219 584T165 603H152L156 622H406L402 603H394Q353 603 334 587T306 534L218 104ZM252 675H234L337 892H408L252 675Z"  />
<glyph unicode="&#xCE;" horiz-adv-x="323" d="M218 104Q208 56 224 38T283 19H298L294 0H36L40 19Q66 20 83 25T111 39T127 63T137 97L225 530Q233 566 219 584T165 603H152L156 622H406L402 603H394Q353 603 334 587T306 534L218 104ZM343 896H398V678H375L343 818L201 678H178L343 896Z"  />
<glyph unicode="&#xCF;" horiz-adv-x="323" d="M218 104Q208 56 224 38T283 19H298L294 0H36L40 19Q66 20 83 25T111 39T127 63T137 97L225 530Q233 566 219 584T165 603H152L156 622H406L402 603H394Q353 603 334 587T306 534L218 104ZM228 788Q243 788 254 777T265 751Q265 736 254 725T228 714Q213 714 202 725T191 751Q191 766 202 777T228 788ZM387 788Q402 788 413 777T424 751Q424 736 413 725T387 714Q372 714 361 725T350 751Q350 766 361 777T387 788Z"  />
<glyph unicode="&#xD0;" horiz-adv-x="760" d="M437 622Q511 622 572 602T676 546T742 459T766 345Q766 285 741 224T668 113T547 32T379 0H31L34 19Q59 20 76 24T104 36T121 57T132 91L173 293H71L78 329H180L221 527Q229 567 215 585T162 603H134L138 622H437ZM260 329H439L432 293H253L218 121Q212 92 213 73T226 43T261 28T322 24Q374 24 413 31T482 50T535 79T580 117Q631 168 653 229T675 350Q675 398 660 442T610 521T523 576T395 597H315L260 329Z"  />
<glyph unicode="&#xD1;" horiz-adv-x="771" d="M283 622L656 98L737 496Q748 547 733 573T657 603L661 622H864L860 603Q815 596 793 572T760 496L657 -11H634L252 537L173 140Q167 108 166 87T171 52T194 31T240 20L248 19L244 0H37L41 19Q60 23 76 29T106 49T129 84T146 139L232 567Q220 585 200 593T145 603L149 622H283ZM384 732Q387 778 409 803Q430 829 466 829Q489 829 508 820T545 799Q562 788 579 779T614 769Q661 769 663 828H676Q676 783 655 758T597 732Q574 732 553 741T513 762Q494 773 477 782T444 792Q423 792 412 778T397 732H384Z"  />
<glyph unicode="&#xD2;" horiz-adv-x="792" d="M803 345Q803 276 775 211T695 95T573 15T417 -16Q350 -16 295 8T199 72T137 166T115 277Q115 343 143 407T223 523T344 605T498 637Q562 637 617 615T714 553T779 460T803 345ZM715 374Q715 426 699 470T655 546T588 595T502 613Q446 613 403 595T326 548T269 481T231 403T210 323T203 252Q203 196 218 151T261 74T328 25T417 8Q486 8 541 39T635 122T694 239T715 374ZM513 892L616 675H598L442 892H513Z"  />
<glyph unicode="&#xD3;" horiz-adv-x="792" d="M803 345Q803 276 775 211T695 95T573 15T417 -16Q350 -16 295 8T199 72T137 166T115 277Q115 343 143 407T223 523T344 605T498 637Q562 637 617 615T714 553T779 460T803 345ZM715 374Q715 426 699 470T655 546T588 595T502 613Q446 613 403 595T326 548T269 481T231 403T210 323T203 252Q203 196 218 151T261 74T328 25T417 8Q486 8 541 39T635 122T694 239T715 374ZM487 683H469L572 900H643L487 683Z"  />
<glyph unicode="&#xD4;" horiz-adv-x="792" d="M803 345Q803 276 775 211T695 95T573 15T417 -16Q350 -16 295 8T199 72T137 166T115 277Q115 343 143 407T223 523T344 605T498 637Q562 637 617 615T714 553T779 460T803 345ZM715 374Q715 426 699 470T655 546T588 595T502 613Q446 613 403 595T326 548T269 481T231 403T210 323T203 252Q203 196 218 151T261 74T328 25T417 8Q486 8 541 39T635 122T694 239T715 374ZM578 896H633V678H610L578 818L436 678H413L578 896Z"  />
<glyph unicode="&#xD5;" horiz-adv-x="792" d="M803 345Q803 276 775 211T695 95T573 15T417 -16Q350 -16 295 8T199 72T137 166T115 277Q115 343 143 407T223 523T344 605T498 637Q562 637 617 615T714 553T779 460T803 345ZM715 374Q715 426 699 470T655 546T588 595T502 613Q446 613 403 595T326 548T269 481T231 403T210 323T203 252Q203 196 218 151T261 74T328 25T417 8Q486 8 541 39T635 122T694 239T715 374ZM395 732Q398 778 420 803Q441 829 477 829Q500 829 519 820T556 799Q573 788 590 779T625 769Q672 769 674 828H687Q687 783 666 758T608 732Q585 732 564 741T524 762Q505 773 488 782T455 792Q434 792 423 778T408 732H395Z"  />
<glyph unicode="&#xD6;" horiz-adv-x="792" d="M803 345Q803 276 775 211T695 95T573 15T417 -16Q350 -16 295 8T199 72T137 166T115 277Q115 343 143 407T223 523T344 605T498 637Q562 637 617 615T714 553T779 460T803 345ZM715 374Q715 426 699 470T655 546T588 595T502 613Q446 613 403 595T326 548T269 481T231 403T210 323T203 252Q203 196 218 151T261 74T328 25T417 8Q486 8 541 39T635 122T694 239T715 374ZM459 788Q474 788 485 777T496 751Q496 736 485 725T459 714Q444 714 433 725T422 751Q422 766 433 777T459 788ZM618 788Q633 788 644 777T655 751Q655 736 644 725T618 714Q603 714 592 725T581 751Q581 766 592 777T618 788Z"  />
<glyph unicode="&#xD7;" horiz-adv-x="667" d="M185 83L153 115L359 321L153 527L185 559L391 353L598 560L631 527L424 320L630 114L598 82L391 289L185 83Z"  />
<glyph unicode="&#xD8;" horiz-adv-x="792" d="M692 572Q744 531 773 473T803 345Q803 276 775 211T695 95T573 15T417 -16Q362 -16 315 0T230 45L146 -51L128 -37L213 60Q166 102 141 158T115 277Q115 343 143 407T223 523T344 605T498 637Q548 637 592 624T673 585L736 657L755 643L692 572ZM259 78Q287 44 326 26T417 8Q486 8 541 39T635 122T694 239T715 374Q715 473 662 538L259 78ZM646 555Q617 583 581 598T502 613Q446 613 403 595T326 548T269 481T231 403T210 323T203 252Q203 160 246 97L646 555Z"  />
<glyph unicode="&#xD9;" horiz-adv-x="729" d="M665 218Q653 153 628 109T565 37T480 -3T375 -16Q300 -16 253 4T177 54T139 116T128 173Q128 191 131 209T140 260L194 528Q201 562 190 582T134 603H117L121 622H375L371 603Q327 603 305 589T275 533L219 257Q213 226 210 204T207 161Q207 126 220 98T258 50T317 19T394 8Q488 8 553 59T639 219L690 504Q700 559 675 581T602 603L606 622H812L808 603Q769 598 747 572T715 492L665 218ZM481 892L584 675H566L410 892H481Z"  />
<glyph unicode="&#xDA;" horiz-adv-x="729" d="M665 218Q653 153 628 109T565 37T480 -3T375 -16Q300 -16 253 4T177 54T139 116T128 173Q128 191 131 209T140 260L194 528Q201 562 190 582T134 603H117L121 622H375L371 603Q327 603 305 589T275 533L219 257Q213 226 210 204T207 161Q207 126 220 98T258 50T317 19T394 8Q488 8 553 59T639 219L690 504Q700 559 675 581T602 603L606 622H812L808 603Q769 598 747 572T715 492L665 218ZM455 675H437L540 892H611L455 675Z"  />
<glyph unicode="&#xDB;" horiz-adv-x="729" d="M665 218Q653 153 628 109T565 37T480 -3T375 -16Q300 -16 253 4T177 54T139 116T128 173Q128 191 131 209T140 260L194 528Q201 562 190 582T134 603H117L121 622H375L371 603Q327 603 305 589T275 533L219 257Q213 226 210 204T207 161Q207 126 220 98T258 50T317 19T394 8Q488 8 553 59T639 219L690 504Q700 559 675 581T602 603L606 622H812L808 603Q769 598 747 572T715 492L665 218ZM546 896H601V678H578L546 818L404 678H381L546 896Z"  />
<glyph unicode="&#xDC;" horiz-adv-x="729" d="M665 218Q653 153 628 109T565 37T480 -3T375 -16Q300 -16 253 4T177 54T139 116T128 173Q128 191 131 209T140 260L194 528Q201 562 190 582T134 603H117L121 622H375L371 603Q327 603 305 589T275 533L219 257Q213 226 210 204T207 161Q207 126 220 98T258 50T317 19T394 8Q488 8 553 59T639 219L690 504Q700 559 675 581T602 603L606 622H812L808 603Q769 598 747 572T715 492L665 218ZM431 788Q446 788 457 777T468 751Q468 736 457 725T431 714Q416 714 405 725T394 751Q394 766 405 777T431 788ZM590 788Q605 788 616 777T627 751Q627 736 616 725T590 714Q575 714 564 725T553 751Q553 766 564 777T590 788Z"  />
<glyph unicode="&#xDD;" horiz-adv-x="625" d="M366 91Q359 56 375 38T434 19H460L456 0H171L175 19H193Q238 19 259 37T287 91L319 254L193 531Q177 566 162 584T114 603L117 622H325L322 603Q276 600 269 582T279 525L392 284L600 525Q626 556 619 578T560 603L564 622H735L732 603Q705 593 687 579T645 536L399 254L366 91ZM403 675H385L488 892H559L403 675Z"  />
<glyph unicode="&#xDE;" horiz-adv-x="563" d="M228 154Q238 150 250 148T275 144T297 142T311 141Q371 141 409 163T468 218T496 284T504 343Q504 408 470 441T367 475H293L228 154ZM217 99Q209 57 222 38T283 19H297L293 0H45L49 19Q91 21 110 40T138 105L226 538Q233 573 215 588T164 603H152L155 622H394L389 604Q357 602 335 586T303 525L298 500H378Q431 500 470 487T536 451T575 396T588 329Q588 300 576 264T535 196T457 143T333 121Q296 121 271 123T224 134L217 99Z"  />
<glyph unicode="&#xDF;" horiz-adv-x="438" d="M258 396Q294 400 321 416T366 456T393 508T403 565Q403 603 384 627T332 652Q298 652 274 631T232 575T203 495T182 400L137 144Q122 60 101 -9T50 -128T-16 -205T-98 -233Q-134 -233 -159 -218T-185 -181Q-185 -170 -177 -162T-156 -154Q-140 -154 -129 -161T-107 -177T-85 -193T-56 -201Q-32 -201 -15 -183T16 -137T37 -72T52 0L123 399Q132 451 152 500T201 587T268 649T353 673Q377 673 397 664T433 638T456 600T465 553Q465 528 456 504T428 458T378 419T306 392V390Q361 370 387 333T413 235Q413 190 396 146T352 66T291 10T220 -12Q196 -12 182 -2T167 26Q167 37 174 45T193 53Q204 53 211 47T226 34T239 21T256 15Q276 15 292 32T320 78T338 143T344 218Q344 272 323 316T255 381L258 396Z"  />
<glyph unicode="&#xE0;" horiz-adv-x="406" d="M329 89Q324 66 325 56T334 46Q339 46 346 51T361 64T378 80T393 97V74Q379 57 364 42T335 14T309 -5T289 -12Q273 -12 267 1T260 35T264 79T275 127L273 129Q264 118 242 95T194 48T144 6T105 -12Q94 -12 84 -3T66 20T53 52T48 91Q48 149 77 206T155 309T266 382T393 408L329 89ZM321 357Q273 354 239 340T180 301Q165 286 153 264T130 217T115 164T109 111Q109 78 119 58T143 38Q154 38 186 66T281 157L321 357ZM261 661L364 444H346L190 661H261Z"  />
<glyph unicode="&#xE1;" horiz-adv-x="406" d="M329 89Q324 66 325 56T334 46Q339 46 346 51T361 64T378 80T393 97V74Q379 57 364 42T335 14T309 -5T289 -12Q273 -12 267 1T260 35T264 79T275 127L273 129Q264 118 242 95T194 48T144 6T105 -12Q94 -12 84 -3T66 20T53 52T48 91Q48 149 77 206T155 309T266 382T393 408L329 89ZM321 357Q273 354 239 340T180 301Q165 286 153 264T130 217T115 164T109 111Q109 78 119 58T143 38Q154 38 186 66T281 157L321 357ZM235 448H217L320 665H391L235 448Z"  />
<glyph unicode="&#xE2;" horiz-adv-x="406" d="M329 89Q324 66 325 56T334 46Q339 46 346 51T361 64T378 80T393 97V74Q379 57 364 42T335 14T309 -5T289 -12Q273 -12 267 1T260 35T264 79T275 127L273 129Q264 118 242 95T194 48T144 6T105 -12Q94 -12 84 -3T66 20T53 52T48 91Q48 149 77 206T155 309T266 382T393 408L329 89ZM321 357Q273 354 239 340T180 301Q165 286 153 264T130 217T115 164T109 111Q109 78 119 58T143 38Q154 38 186 66T281 157L321 357ZM326 661H381V443H358L326 583L184 443H161L326 661Z"  />
<glyph unicode="&#xE3;" horiz-adv-x="406" d="M329 89Q324 66 325 56T334 46Q339 46 346 51T361 64T378 80T393 97V74Q379 57 364 42T335 14T309 -5T289 -12Q273 -12 267 1T260 35T264 79T275 127L273 129Q264 118 242 95T194 48T144 6T105 -12Q94 -12 84 -3T66 20T53 52T48 91Q48 149 77 206T155 309T266 382T393 408L329 89ZM321 357Q273 354 239 340T180 301Q165 286 153 264T130 217T115 164T109 111Q109 78 119 58T143 38Q154 38 186 66T281 157L321 357ZM143 505Q146 551 168 576Q189 602 225 602Q248 602 267 593T304 572Q321 561 338 552T373 542Q420 542 422 601H435Q435 556 414 531T356 505Q333 505 312 514T272 535Q253 546 236 555T203 565Q182 565 171 551T156 505H143Z"  />
<glyph unicode="&#xE4;" horiz-adv-x="406" d="M329 89Q324 66 325 56T334 46Q339 46 346 51T361 64T378 80T393 97V74Q379 57 364 42T335 14T309 -5T289 -12Q273 -12 267 1T260 35T264 79T275 127L273 129Q264 118 242 95T194 48T144 6T105 -12Q94 -12 84 -3T66 20T53 52T48 91Q48 149 77 206T155 309T266 382T393 408L329 89ZM321 357Q273 354 239 340T180 301Q165 286 153 264T130 217T115 164T109 111Q109 78 119 58T143 38Q154 38 186 66T281 157L321 357ZM211 559Q226 559 237 548T248 522Q248 507 237 496T211 485Q196 485 185 496T174 522Q174 537 185 548T211 559ZM370 559Q385 559 396 548T407 522Q407 507 396 496T370 485Q355 485 344 496T333 522Q333 537 344 548T370 559Z"  />
<glyph unicode="&#xE5;" horiz-adv-x="406" d="M329 89Q324 66 325 56T334 46Q339 46 346 51T361 64T378 80T393 97V74Q379 57 364 42T335 14T309 -5T289 -12Q273 -12 267 1T260 35T264 79T275 127L273 129Q264 118 242 95T194 48T144 6T105 -12Q94 -12 84 -3T66 20T53 52T48 91Q48 149 77 206T155 309T266 382T393 408L329 89ZM321 357Q273 354 239 340T180 301Q165 286 153 264T130 217T115 164T109 111Q109 78 119 58T143 38Q154 38 186 66T281 157L321 357ZM296 639Q334 639 360 613T386 549Q386 511 360 485T296 459Q258 459 232 485T206 549Q206 587 232 613T296 639ZM296 615Q269 615 250 596T230 549Q230 522 249 503T296 483Q323 483 342 502T362 549Q362 576 343 595T296 615Z"  />
<glyph unicode="&#xE6;" horiz-adv-x="573" d="M379 349L381 347Q414 380 442 394T503 408Q539 408 562 389T585 340Q585 308 565 284T512 242T437 209T349 183Q345 161 344 147T342 117Q342 76 362 50T415 24Q437 24 461 34T528 72L537 60Q430 -12 368 -12Q349 -12 332 -2T301 25T281 67T276 122Q249 95 222 71T172 29T130 -1T103 -12Q91 -12 79 -3T58 22T44 56T38 97Q38 154 65 209T141 309T253 380T391 408L379 349ZM325 364Q258 358 215 332T146 269T111 194T101 125Q101 86 111 63T138 39Q151 39 172 53T214 85T254 122T282 149L325 364ZM353 201Q438 224 484 256T531 339Q531 360 518 373T485 387Q440 387 407 340T353 201Z"  />
<glyph unicode="&#xE7;" horiz-adv-x="271" d="M103 -10Q72 -4 54 23T36 91Q36 134 52 189T98 292T168 374T256 408Q280 408 293 399T307 372Q307 358 300 350T282 341Q270 341 261 345T243 354T226 363T207 367Q191 367 177 352T150 313T129 260T112 200T102 144T98 100Q98 65 113 45T156 25Q179 25 206 42T257 89L270 79Q234 37 194 13T118 -12L110 -27Q135 -28 151 -46T167 -93Q167 -144 124 -169T9 -189L12 -173Q66 -177 93 -160T120 -113Q120 -76 70 -74L103 -10Z"  />
<glyph unicode="&#xE8;" horiz-adv-x="344" d="M314 64Q269 29 225 9T148 -12Q127 -12 109 -2T78 27T57 70T49 124Q49 171 66 221T112 313T182 381T269 408Q308 408 329 392T350 343Q350 314 331 291T280 247T207 211T122 182Q114 150 114 122T122 72T147 38T190 25Q234 25 305 78L314 64ZM292 344Q292 387 255 387Q210 387 179 340T126 201Q178 215 211 231T257 260Q276 279 284 301T292 344ZM230 665L333 448H315L159 665H230Z"  />
<glyph unicode="&#xE9;" horiz-adv-x="344" d="M314 64Q269 29 225 9T148 -12Q127 -12 109 -2T78 27T57 70T49 124Q49 171 66 221T112 313T182 381T269 408Q308 408 329 392T350 343Q350 314 331 291T280 247T207 211T122 182Q114 150 114 122T122 72T147 38T190 25Q234 25 305 78L314 64ZM292 344Q292 387 255 387Q210 387 179 340T126 201Q178 215 211 231T257 260Q276 279 284 301T292 344ZM204 448H186L289 665H360L204 448Z"  />
<glyph unicode="&#xEA;" horiz-adv-x="344" d="M314 64Q269 29 225 9T148 -12Q127 -12 109 -2T78 27T57 70T49 124Q49 171 66 221T112 313T182 381T269 408Q308 408 329 392T350 343Q350 314 331 291T280 247T207 211T122 182Q114 150 114 122T122 72T147 38T190 25Q234 25 305 78L314 64ZM292 344Q292 387 255 387Q210 387 179 340T126 201Q178 215 211 231T257 260Q276 279 284 301T292 344ZM295 661H350V443H327L295 583L153 443H130L295 661Z"  />
<glyph unicode="&#xEB;" horiz-adv-x="344" d="M314 64Q269 29 225 9T148 -12Q127 -12 109 -2T78 27T57 70T49 124Q49 171 66 221T112 313T182 381T269 408Q308 408 329 392T350 343Q350 314 331 291T280 247T207 211T122 182Q114 150 114 122T122 72T147 38T190 25Q234 25 305 78L314 64ZM292 344Q292 387 255 387Q210 387 179 340T126 201Q178 215 211 231T257 260Q276 279 284 301T292 344ZM180 561Q195 561 206 550T217 524Q217 509 206 498T180 487Q165 487 154 498T143 524Q143 539 154 550T180 561ZM339 561Q354 561 365 550T376 524Q376 509 365 498T339 487Q324 487 313 498T302 524Q302 539 313 550T339 561Z"  />
<glyph unicode="&#xEC;" horiz-adv-x="240" d="M56 311Q71 329 88 346T121 377T152 399T176 408Q188 408 193 396T192 347L136 73Q133 57 133 49T142 40Q150 40 167 58T205 101L218 90Q202 71 185 53T151 20T120 -3T94 -12Q67 -12 67 23Q67 31 68 42T71 61L127 335Q130 349 122 349Q114 349 102 336L66 299L56 311ZM179 665L282 448H264L108 665H179Z"  />
<glyph unicode="&#xED;" horiz-adv-x="240" d="M56 311Q71 329 88 346T121 377T152 399T176 408Q188 408 193 396T192 347L136 73Q133 57 133 49T142 40Q150 40 167 58T205 101L218 90Q202 71 185 53T151 20T120 -3T94 -12Q67 -12 67 23Q67 31 68 42T71 61L127 335Q130 349 122 349Q114 349 102 336L66 299L56 311ZM153 448H135L238 665H309L153 448Z"  />
<glyph unicode="&#xEE;" horiz-adv-x="240" d="M56 311Q71 329 88 346T121 377T152 399T176 408Q188 408 193 396T192 347L136 73Q133 57 133 49T142 40Q150 40 167 58T205 101L218 90Q202 71 185 53T151 20T120 -3T94 -12Q67 -12 67 23Q67 31 68 42T71 61L127 335Q130 349 122 349Q114 349 102 336L66 299L56 311ZM244 661H299V443H276L244 583L102 443H79L244 661Z"  />
<glyph unicode="&#xEF;" horiz-adv-x="240" d="M56 311Q71 329 88 346T121 377T152 399T176 408Q188 408 193 396T192 347L136 73Q133 57 133 49T142 40Q150 40 167 58T205 101L218 90Q202 71 185 53T151 20T120 -3T94 -12Q67 -12 67 23Q67 31 68 42T71 61L127 335Q130 349 122 349Q114 349 102 336L66 299L56 311ZM98 559Q113 559 124 548T135 522Q135 507 124 496T98 485Q83 485 72 496T61 522Q61 537 72 548T98 559ZM257 559Q272 559 283 548T294 522Q294 507 283 496T257 485Q242 485 231 496T220 522Q220 537 231 548T257 559Z"  />
<glyph unicode="&#xF0;" horiz-adv-x="417" d="M120 149Q120 95 139 60T191 25Q217 25 241 49T285 108T317 182T329 252Q329 306 308 338T245 371Q219 371 196 353T156 303T130 232T120 149ZM334 552Q352 526 363 498T380 443T389 391T392 348Q392 251 371 188T315 87Q291 61 266 43T217 12T176 -6T147 -12Q128 -12 112 0T83 33T63 81T55 141Q55 183 68 219T103 285T150 337T201 376T249 400T285 408Q296 408 306 405T327 390Q326 422 318 460T292 533L171 480L164 497L283 549Q259 594 219 622L230 639Q260 627 283 609T323 567L440 618L447 601L334 552Z"  />
<glyph unicode="&#xF1;" horiz-adv-x="469" d="M164 194Q197 237 230 276T293 344T348 390T392 408Q412 408 422 391T431 349Q431 335 430 323T423 292L361 59Q358 47 358 39T367 30Q372 30 381 38T403 59T427 86T451 113L462 104Q451 86 433 66T396 29T357 0T324 -12Q307 -12 299 7T300 61L366 318Q372 342 366 352T351 362Q343 362 330 354T296 324Q284 312 269 295T235 255T196 209T155 158L124 5Q121 -12 107 -12H76Q67 -12 64 -8T62 7L125 312Q130 335 121 335Q116 335 102 320T68 275L55 285Q69 306 87 328T123 367T157 396T182 408Q189 408 195 401T198 373L162 194H164ZM174 505Q177 551 199 576Q220 602 256 602Q279 602 298 593T335 572Q352 561 369 552T404 542Q451 542 453 601H466Q466 556 445 531T387 505Q364 505 343 514T303 535Q284 546 267 555T234 565Q213 565 202 551T187 505H174Z"  />
<glyph unicode="&#xF2;" horiz-adv-x="396" d="M52 146Q52 207 80 255T146 338T224 390T286 408Q297 408 312 400T342 375T367 329T377 261Q377 214 363 175T327 106T277 53T223 17T175 -5T141 -12Q123 -12 107 1T79 36T60 86T52 146ZM313 247Q313 273 307 296T291 335T266 361T235 371Q211 371 190 351T152 298T126 227T116 150Q116 87 138 56T186 25Q216 25 239 46T279 101T304 173T313 247ZM256 665L359 448H341L185 665H256Z"  />
<glyph unicode="&#xF3;" horiz-adv-x="396" d="M52 146Q52 207 80 255T146 338T224 390T286 408Q297 408 312 400T342 375T367 329T377 261Q377 214 363 175T327 106T277 53T223 17T175 -5T141 -12Q123 -12 107 1T79 36T60 86T52 146ZM313 247Q313 273 307 296T291 335T266 361T235 371Q211 371 190 351T152 298T126 227T116 150Q116 87 138 56T186 25Q216 25 239 46T279 101T304 173T313 247ZM230 448H212L315 665H386L230 448Z"  />
<glyph unicode="&#xF4;" horiz-adv-x="396" d="M52 146Q52 207 80 255T146 338T224 390T286 408Q297 408 312 400T342 375T367 329T377 261Q377 214 363 175T327 106T277 53T223 17T175 -5T141 -12Q123 -12 107 1T79 36T60 86T52 146ZM313 247Q313 273 307 296T291 335T266 361T235 371Q211 371 190 351T152 298T126 227T116 150Q116 87 138 56T186 25Q216 25 239 46T279 101T304 173T313 247ZM321 661H376V443H353L321 583L179 443H156L321 661Z"  />
<glyph unicode="&#xF5;" horiz-adv-x="396" d="M52 146Q52 207 80 255T146 338T224 390T286 408Q297 408 312 400T342 375T367 329T377 261Q377 214 363 175T327 106T277 53T223 17T175 -5T141 -12Q123 -12 107 1T79 36T60 86T52 146ZM313 247Q313 273 307 296T291 335T266 361T235 371Q211 371 190 351T152 298T126 227T116 150Q116 87 138 56T186 25Q216 25 239 46T279 101T304 173T313 247ZM138 505Q141 551 163 576Q184 602 220 602Q243 602 262 593T299 572Q316 561 333 552T368 542Q415 542 417 601H430Q430 556 409 531T351 505Q328 505 307 514T267 535Q248 546 231 555T198 565Q177 565 166 551T151 505H138Z"  />
<glyph unicode="&#xF6;" horiz-adv-x="396" d="M52 146Q52 207 80 255T146 338T224 390T286 408Q297 408 312 400T342 375T367 329T377 261Q377 214 363 175T327 106T277 53T223 17T175 -5T141 -12Q123 -12 107 1T79 36T60 86T52 146ZM313 247Q313 273 307 296T291 335T266 361T235 371Q211 371 190 351T152 298T126 227T116 150Q116 87 138 56T186 25Q216 25 239 46T279 101T304 173T313 247ZM206 559Q221 559 232 548T243 522Q243 507 232 496T206 485Q191 485 180 496T169 522Q169 537 180 548T206 559ZM365 559Q380 559 391 548T402 522Q402 507 391 496T365 485Q350 485 339 496T328 522Q328 537 339 548T365 559Z"  />
<glyph unicode="&#xF7;" horiz-adv-x="667" d="M654 342V298H129V342H654ZM392 557Q405 557 414 547T424 524Q424 511 415 502T392 492Q379 492 369 501T359 524Q359 537 369 547T392 557ZM392 148Q405 148 414 139T424 116Q424 103 415 93T392 83Q379 83 369 93T359 116Q359 129 369 138T392 148Z"  />
<glyph unicode="&#xF8;" horiz-adv-x="396" d="M72 50Q52 93 52 146Q52 207 80 255T146 338T224 390T286 408Q297 408 314 400T348 367L385 410L401 396L359 348Q369 326 373 307T377 261Q377 214 363 175T327 106T277 53T223 17T175 -5T141 -12Q124 -12 110 -2T82 31L44 -13L28 0L72 50ZM301 313Q279 369 235 371Q211 371 190 351T152 298T126 227T116 150Q116 138 117 129T120 106L301 313ZM126 82Q135 55 151 40T186 25Q216 25 239 46T279 101T304 173T313 247Q313 258 312 267T308 290L126 82Z"  />
<glyph unicode="&#xF9;" horiz-adv-x="469" d="M372 68Q369 56 379 56Q394 56 441 115L453 104Q436 82 417 62T379 25T347 -2T324 -12Q305 -12 305 25Q305 36 307 54T314 92L339 219H336Q298 165 267 131T221 83Q203 65 185 48T152 18T123 -4T102 -12Q74 -12 74 43Q74 57 76 71T82 105L123 307Q127 327 127 333T121 339Q109 339 69 289L57 296Q72 318 89 338T122 374T153 399T177 408Q194 408 196 390T191 337L142 95Q139 81 139 71Q139 49 151 49Q159 49 175 62T213 97Q234 118 258 146T304 204T340 260T359 307L375 389Q379 408 400 408H422Q434 408 437 404T437 386L372 68ZM292 665L395 448H377L221 665H292Z"  />
<glyph unicode="&#xFA;" horiz-adv-x="469" d="M372 68Q369 56 379 56Q394 56 441 115L453 104Q436 82 417 62T379 25T347 -2T324 -12Q305 -12 305 25Q305 36 307 54T314 92L339 219H336Q298 165 267 131T221 83Q203 65 185 48T152 18T123 -4T102 -12Q74 -12 74 43Q74 57 76 71T82 105L123 307Q127 327 127 333T121 339Q109 339 69 289L57 296Q72 318 89 338T122 374T153 399T177 408Q194 408 196 390T191 337L142 95Q139 81 139 71Q139 49 151 49Q159 49 175 62T213 97Q234 118 258 146T304 204T340 260T359 307L375 389Q379 408 400 408H422Q434 408 437 404T437 386L372 68ZM266 448H248L351 665H422L266 448Z"  />
<glyph unicode="&#xFB;" horiz-adv-x="469" d="M372 68Q369 56 379 56Q394 56 441 115L453 104Q436 82 417 62T379 25T347 -2T324 -12Q305 -12 305 25Q305 36 307 54T314 92L339 219H336Q298 165 267 131T221 83Q203 65 185 48T152 18T123 -4T102 -12Q74 -12 74 43Q74 57 76 71T82 105L123 307Q127 327 127 333T121 339Q109 339 69 289L57 296Q72 318 89 338T122 374T153 399T177 408Q194 408 196 390T191 337L142 95Q139 81 139 71Q139 49 151 49Q159 49 175 62T213 97Q234 118 258 146T304 204T340 260T359 307L375 389Q379 408 400 408H422Q434 408 437 404T437 386L372 68ZM357 661H412V443H389L357 583L215 443H192L357 661Z"  />
<glyph unicode="&#xFC;" horiz-adv-x="469" d="M372 68Q369 56 379 56Q394 56 441 115L453 104Q436 82 417 62T379 25T347 -2T324 -12Q305 -12 305 25Q305 36 307 54T314 92L339 219H336Q298 165 267 131T221 83Q203 65 185 48T152 18T123 -4T102 -12Q74 -12 74 43Q74 57 76 71T82 105L123 307Q127 327 127 333T121 339Q109 339 69 289L57 296Q72 318 89 338T122 374T153 399T177 408Q194 408 196 390T191 337L142 95Q139 81 139 71Q139 49 151 49Q159 49 175 62T213 97Q234 118 258 146T304 204T340 260T359 307L375 389Q379 408 400 408H422Q434 408 437 404T437 386L372 68ZM242 561Q257 561 268 550T279 524Q279 509 268 498T242 487Q227 487 216 498T205 524Q205 539 216 550T242 561ZM401 561Q416 561 427 550T438 524Q438 509 427 498T401 487Q386 487 375 498T364 524Q364 539 375 550T401 561Z"  />
<glyph unicode="&#xFD;" horiz-adv-x="438" d="M47 301Q85 355 114 381T162 408Q174 408 187 379T213 299T233 180T241 33H243Q263 67 286 112T329 201T362 281T375 332Q375 339 373 342T367 349T362 357T359 370Q359 385 370 396T398 408Q416 408 427 395T438 359Q438 324 415 281T360 190T296 93T246 -1L205 -104Q194 -133 182 -158T170 -191Q170 -203 184 -206T234 -211L227 -227H20L27 -211Q56 -211 71 -207T91 -198Q96 -193 111 -166T144 -99T174 -17T188 65Q188 91 185 123T176 188T165 252T151 307T139 345T129 360Q117 360 103 346T59 293L47 301ZM251 448H233L336 665H407L251 448Z"  />
<glyph unicode="&#xFE;" horiz-adv-x="438" d="M134 37Q150 23 164 18T198 12Q229 12 258 32T309 87T344 166T358 258Q358 300 346 329T313 358Q305 358 289 346T253 312T211 265T169 210L134 37ZM179 248Q200 279 225 308T275 359T320 394T354 408Q366 408 378 396T399 363T415 316T421 263Q421 210 401 161T347 73T270 12T181 -12Q151 -12 126 -3L98 -137Q94 -157 94 -172T100 -196T124 -210T174 -215L170 -233H-65L-61 -215Q-34 -214 -17 -210T10 -196T28 -166T41 -115L186 600Q188 609 188 613T180 617Q173 617 143 601L135 615L222 662Q230 667 237 670T249 673Q255 673 257 670T259 661T258 651T256 642L177 248H179Z"  />
<glyph unicode="&#xFF;" horiz-adv-x="438" d="M47 301Q85 355 114 381T162 408Q174 408 187 379T213 299T233 180T241 33H243Q263 67 286 112T329 201T362 281T375 332Q375 339 373 342T367 349T362 357T359 370Q359 385 370 396T398 408Q416 408 427 395T438 359Q438 324 415 281T360 190T296 93T246 -1L205 -104Q194 -133 182 -158T170 -191Q170 -203 184 -206T234 -211L227 -227H20L27 -211Q56 -211 71 -207T91 -198Q96 -193 111 -166T144 -99T174 -17T188 65Q188 91 185 123T176 188T165 252T151 307T139 345T129 360Q117 360 103 346T59 293L47 301ZM227 559Q242 559 253 548T264 522Q264 507 253 496T227 485Q212 485 201 496T190 522Q190 537 201 548T227 559ZM386 559Q401 559 412 548T423 522Q423 507 412 496T386 485Q371 485 360 496T349 522Q349 537 360 548T386 559Z"  />
<glyph unicode="&#x131;" horiz-adv-x="240" d="M56 311Q71 329 88 346T121 377T152 399T176 408Q188 408 193 396T192 347L136 73Q133 57 133 49T142 40Q150 40 167 58T205 101L218 90Q202 71 185 53T151 20T120 -3T94 -12Q67 -12 67 23Q67 31 68 42T71 61L127 335Q130 349 122 349Q114 349 102 336L66 299L56 311Z"  />
<glyph unicode="&#x152;" horiz-adv-x="1031" d="M1036 622L1008 484H992Q998 548 971 572T885 597H710L655 327H839Q880 327 902 340T941 394H959L923 218H906Q908 245 904 261T887 287T855 299T806 302H650L609 102Q605 82 606 68T615 44T641 30T687 25H763Q796 25 827 33T885 56T933 91T968 134H985L942 0H518Q504 0 491 0T463 -2Q449 -3 432 -3T393 -4Q307 -4 250 22T157 88T107 179T92 277Q92 316 102 357T133 437T188 510T266 571T371 612T504 627Q542 627 577 625T639 622H1036ZM613 491Q618 516 616 536T602 571T564 594T496 602Q417 602 358 569T259 484T199 372T179 256Q179 209 191 167T229 92T296 40T398 20Q423 20 446 25T487 42T519 74T539 127L613 491Z"  />
<glyph unicode="&#x153;" horiz-adv-x="583" d="M552 62Q506 27 462 8T384 -12Q350 -12 326 12T290 83Q275 63 255 46T213 16T170 -4T134 -12Q116 -12 100 -1T72 30T53 76T46 132Q46 196 71 247T133 334T207 389T272 408Q333 408 355 310Q412 408 509 408Q547 408 570 389T593 338Q593 307 572 284T517 242T440 209T351 181Q348 161 347 149T346 122Q346 73 366 48T424 22Q475 22 543 74L552 62ZM298 258Q298 282 293 303T280 340T261 365T236 374Q209 374 186 356T145 306T119 234T109 148Q109 93 129 60T184 26Q210 26 231 48T267 104T290 179T298 258ZM355 199Q444 219 492 254T540 335Q540 358 526 372T488 387Q435 387 404 338T355 199Z"  />
<glyph unicode="&#x160;" horiz-adv-x="531" d="M524 458H506Q506 527 470 565T368 604Q309 604 273 575T236 502Q236 473 256 448T307 398T373 348T439 295T489 235T510 165Q510 125 494 92T448 34T376 -3T283 -16Q232 -16 173 1T66 48L99 190H116Q111 145 122 111T157 54T213 20T286 8Q320 8 349 16T398 40T429 78T441 126Q441 159 421 186T372 238T308 286T244 337T194 395T174 467Q174 500 189 529T231 581T292 615T368 628Q414 628 444 619T495 609Q513 609 526 622H546L524 458ZM421 678H366V896H389L421 756L563 896H586L421 678Z"  />
<glyph unicode="&#x161;" horiz-adv-x="302" d="M210 71Q210 97 192 122T152 172T112 223T93 276Q93 298 106 321T139 364T184 395T233 408Q257 408 275 392T293 353Q293 339 286 330T266 321Q254 321 248 330T235 349T222 369T199 378Q188 378 178 372T159 356T145 335T139 311Q139 287 156 266T194 221T232 172T249 113Q249 55 207 22T91 -12Q55 -12 35 0T15 33Q15 47 23 55T46 63Q59 63 71 56T96 41T123 26T154 19Q177 19 193 34T210 71ZM249 443H194V661H217L249 521L391 661H414L249 443Z"  />
<glyph unicode="&#x178;" horiz-adv-x="625" d="M366 91Q359 56 375 38T434 19H460L456 0H171L175 19H193Q238 19 259 37T287 91L319 254L193 531Q177 566 162 584T114 603L117 622H325L322 603Q276 600 269 582T279 525L392 284L600 525Q626 556 619 578T560 603L564 622H735L732 603Q705 593 687 579T645 536L399 254L366 91ZM379 788Q394 788 405 777T416 751Q416 736 405 725T379 714Q364 714 353 725T342 751Q342 766 353 777T379 788ZM538 788Q553 788 564 777T575 751Q575 736 564 725T538 714Q523 714 512 725T501 751Q501 766 512 777T538 788Z"  />
<glyph unicode="&#x17D;" horiz-adv-x="688" d="M645 0H63V19L632 597H403Q331 597 288 564T218 456H199L237 622H745V602L175 25H468Q504 25 531 31T582 55T628 100T675 173H693L645 0ZM500 678H445V896H468L500 756L642 896H665L500 678Z"  />
<glyph unicode="&#x17E;" horiz-adv-x="500" d="M90 322Q123 366 155 386T223 407Q251 407 273 397T318 375Q339 363 359 353T402 343Q431 343 443 353T460 375T468 398T481 408Q495 408 495 393Q495 378 482 355T445 309Q411 275 359 243T254 182T156 126T90 75L92 73Q116 86 136 91T180 96Q211 96 234 87T278 67Q299 56 318 47T359 37Q401 37 436 89L450 80Q422 41 389 15T324 -12Q302 -12 277 0T226 26Q200 40 174 51T121 63Q105 63 96 60T81 51T74 40T71 26Q70 19 70 12T67 0T60 -8T46 -12Q41 -12 37 -8T32 3Q32 14 46 40T86 92Q128 134 184 167T293 229T390 284T451 338L449 340Q420 324 394 317T344 310Q318 310 295 318T251 336Q231 346 212 354T176 362Q155 362 139 351T102 313L90 322ZM347 443H292V661H315L347 521L489 661H512L347 443Z"  />
<glyph unicode="&#x192;" horiz-adv-x="500" d="M189 363L192 382Q210 384 228 387T265 395Q276 457 300 517T366 619Q392 645 423 659T484 673Q513 673 534 659T555 625Q555 613 547 605T527 596Q515 596 504 602T481 616T460 630T438 637Q409 637 387 607T353 527L326 396H412L402 363H320L269 71Q254 -13 227 -71T166 -165T95 -217T22 -233Q-10 -233 -32 -220T-55 -187Q-55 -175 -45 -166T-22 -157Q-8 -157 3 -164T25 -179T47 -194T73 -201Q105 -201 134 -172Q153 -153 166 -116T187 -40T200 31T207 73L258 363H189Z"  />
<glyph unicode="&#x2C6;" horiz-adv-x="333" d="M289 661H344V443H321L289 583L147 443H124L289 661Z"  />
<glyph unicode="&#x2DC;" horiz-adv-x="333" d="M106 505Q109 551 131 576Q152 602 188 602Q211 602 230 593T267 572Q284 561 301 552T336 542Q383 542 385 601H398Q398 556 377 531T319 505Q296 505 275 514T235 535Q216 546 199 555T166 565Q145 565 134 551T119 505H106Z"  />
<glyph unicode="&#x2013;" horiz-adv-x="500" d="M506 273V227H-6V273H506Z"  />
<glyph unicode="&#x2014;" horiz-adv-x="1000" d="M1006 273V227H-6V273H1006Z"  />
<glyph unicode="&#x2018;" horiz-adv-x="292" d="M356 620Q307 587 287 561T266 509Q266 494 271 484T281 464T292 444T297 419Q297 399 285 386T255 373Q234 373 220 393T205 444Q205 501 239 548T348 637L356 620Z"  />
<glyph unicode="&#x2019;" horiz-adv-x="292" d="M122 390Q171 423 191 449T212 501Q212 516 207 526T197 546T186 566T181 591Q181 611 193 624T223 637Q244 637 258 617T273 566Q273 509 239 462T130 373L122 390Z"  />
<glyph unicode="&#x201A;" horiz-adv-x="292" d="M72 -156Q121 -123 141 -97T162 -45Q162 -30 157 -20T147 0T136 20T131 45Q131 65 143 78T173 91Q194 91 208 71T223 20Q223 -37 189 -84T80 -173L72 -156H72Z"  />
<glyph unicode="&#x201C;" horiz-adv-x="500" d="M557 620Q508 587 488 561T467 509Q467 494 472 484T482 464T493 444T498 419Q498 399 486 386T456 373Q435 373 421 393T406 444Q406 501 440 548T549 637L557 620ZM351 620Q302 587 282 561T261 509Q261 494 266 484T276 464T287 444T292 419Q292 399 280 386T250 373Q229 373 215 393T200 444Q200 501 234 548T343 637L351 620Z"  />
<glyph unicode="&#x201D;" horiz-adv-x="500" d="M335 390Q384 423 404 449T425 501Q425 516 420 526T410 546T399 566T394 591Q394 611 406 624T436 637Q457 637 471 617T486 566Q486 509 452 462T343 373L335 390ZM129 390Q178 423 198 449T219 501Q219 516 214 526T204 546T193 566T188 591Q188 611 200 624T230 637Q251 637 265 617T280 566Q280 509 246 462T137 373L129 390Z"  />
<glyph unicode="&#x201E;" horiz-adv-x="500" d="M249 -156Q298 -123 318 -97T339 -45Q339 -30 334 -20T324 0T313 20T308 45Q308 65 320 78T350 91Q371 91 385 71T400 20Q400 -37 366 -84T257 -173L249 -156ZM43 -156Q92 -123 112 -97T133 -45Q133 -30 128 -20T118 0T107 20T102 45Q102 65 114 78T144 91Q165 91 179 71T194 20Q194 -37 160 -84T51 -173L43 -156Z"  />
<glyph unicode="&#x2020;" horiz-adv-x="479" d="M148 355Q131 353 124 358T118 372L125 412Q127 426 134 429T152 431L317 406L340 636Q342 657 348 665T363 673H393Q418 673 422 665T423 644L346 406L506 431Q521 433 526 428T530 412L522 371Q520 360 515 357T498 355L340 378L255 -204Q252 -223 246 -228T224 -233H187Q154 -233 160 -209L311 378L148 355Z"  />
<glyph unicode="&#x2021;" horiz-adv-x="500" d="M267 -9L423 17Q454 22 447 -9L441 -38Q439 -49 431 -53T412 -56L262 -36L251 -204Q249 -221 245 -227T224 -233H203Q172 -233 180 -208L235 -37L69 -56Q55 -58 48 -52T43 -29L48 -2Q51 12 59 16T79 18L241 -9L259 222L325 448L170 424Q138 418 144 449L149 471Q153 488 160 492T183 495L330 476L338 642Q339 659 345 666T370 673H385Q402 673 407 665T409 645L355 476L515 495Q534 497 542 493T547 470L543 444Q540 420 519 423L350 448L336 222L267 -9Z"  />
<glyph unicode="&#x2022;" horiz-adv-x="354" d="M236 434Q261 434 283 425T322 399T348 360T358 312Q358 286 349 264T323 225T284 199T236 189Q210 189 188 198T149 225T123 264T113 312Q113 337 122 359T149 398T188 424T236 434Z"  />
<glyph unicode="&#x2026;" horiz-adv-x="1000" d="M833 82Q854 82 869 70T884 35Q884 12 869 0T833 -12Q811 -12 797 1T782 35Q782 56 796 69T833 82ZM500 82Q521 82 536 70T551 35Q551 12 536 0T500 -12Q478 -12 464 1T449 35Q449 56 463 69T500 82ZM167 82Q188 82 203 70T218 35Q218 12 203 0T167 -12Q145 -12 131 1T116 35Q116 56 130 69T167 82Z"  />
<glyph unicode="&#x2030;" horiz-adv-x="1000" d="M740 103Q740 148 754 189T791 261T846 312T910 331Q956 331 980 302T1005 215Q1005 171 991 131T954 60T900 11T836 -8Q792 -8 766 22T740 103ZM792 70Q792 43 804 26T837 9Q864 9 885 35T922 98T945 176T953 248Q953 314 908 314Q890 314 874 301T845 267T822 220T806 166T796 114T792 70ZM445 103Q445 148 459 189T496 261T551 312T615 331Q661 331 685 302T710 215Q710 171 696 131T659 60T605 11T541 -8Q497 -8 471 22T445 103ZM497 70Q497 43 509 26T542 9Q569 9 590 35T627 98T650 176T658 248Q658 314 613 314Q595 314 579 301T550 267T527 220T511 166T501 114T497 70ZM111 409Q111 454 125 495T162 567T217 618T281 637Q327 637 351 608T376 521Q376 477 362 437T325 366T271 317T207 298Q163 298 137 328T111 409ZM163 376Q163 349 175 332T208 315Q235 315 256 341T293 404T316 482T324 554Q324 620 279 620Q261 620 245 607T216 573T193 526T177 472T167 420T163 376ZM78 -27L699 654H743L122 -27H78Z"  />
<glyph unicode="&#x2039;" horiz-adv-x="333" d="M315 404H335L192 219L252 35H229L123 219L315 404Z"  />
<glyph unicode="&#x203A;" horiz-adv-x="333" d="M85 35H65L208 220L148 404H171L277 220L85 35Z"  />
<glyph unicode="&#x20AC;" horiz-adv-x="521" d="M513 463Q513 481 511 506T500 556T469 596T410 613Q373 613 340 594T281 540T235 461T208 363H507L501 339H204Q202 322 202 312T200 293H491L486 269H200Q200 153 232 88T345 23Q380 23 414 37T494 91L509 74Q482 49 460 32T416 5T373 -9T330 -14Q282 -14 245 6T181 63T140 152T126 269H73L79 293H127L131 339H88L93 363H135Q144 410 166 458T223 547T306 612T416 637Q444 637 466 632T506 620T536 606T557 592L535 463H513Z"  />
<glyph unicode="&#x2122;" horiz-adv-x="979" d="M380 662L391 564H374Q368 602 348 617T280 633H245V349Q245 329 246 317T253 298T268 289T295 285V268H112V285Q128 287 138 289T153 299T160 317T162 349V633H123Q78 633 59 618T31 564H14L24 662H380ZM698 382L827 662H963V644Q945 644 935 642T919 632T912 612T910 577V349Q910 328 911 316T918 298T934 289T963 285V268H768V285Q787 285 798 287T816 297T825 316T827 349V589H825L677 268H661L512 585H510V349Q510 309 519 297T557 285H575V268H424V285Q442 285 453 287T470 296T478 315T480 349V577Q480 599 478 612T470 633T453 642T424 644V662H565L698 382Z"  />

</font>
</defs>
</svg>
