<?xml  version="1.0" encoding="UTF-8"?>
<!DOCTYPE svg PUBLIC "-//W3C//DTD SVG 1.0//EN" "http://www.w3.org/TR/2001/REC-SVG-20010904/DTD/svg10.dtd" >
<svg xmlns="http://www.w3.org/2000/svg" >
<metadata>
<version>1.0</version>
<id><![CDATA[Swiss 721 W01 Extended]]></id>
<vendor>Monotype Imaging Inc.</vendor>
<credits>
<name>Fonts.com WebFonts</name>
<URL>http://webfonts.fonts.com</URL>
<role>Home of the Web fonts</role>
</credits>
<license>
<URL>http://webfonts.fonts.com/Legal</URL>
</license>
<copyright><![CDATA[Copyright 1990-2003 Bitstream Inc. All rights reserved.]]></copyright>
<trademark></trademark>
<licensee>
<name></name>
</licensee>
</metadata>
<defs >
<font horiz-adv-x="1312" id="235b21c3-0f4b-4c05-8298-c66d23376f10">
<font-face font-family="" panose-1="2 11 6 5 2 2 2 2 2 4" ascent="1956" descent="-483" units-per-em="2048" alphabetic="0">
</font-face>
<missing-glyph horiz-adv-x="0" />

<glyph unicode="&#xA;" />
<glyph unicode="&#xD;" horiz-adv-x="0" />
<glyph unicode=" " horiz-adv-x="682" />
<glyph unicode="!" horiz-adv-x="664" d="M209 0V246H455V0H209ZM270 369L223 940V1479H440V946L393 369H270Z"  />
<glyph unicode="&quot;" horiz-adv-x="614" d="M524 1436V881H385V1436H524ZM229 1436V881H90V1436H229Z"  />
<glyph unicode="#" horiz-adv-x="1575" d="M969 858H709L616 594H877L969 858ZM924 1458L762 1004H1018L1182 1458H1346L1186 1004H1487L1436 858H1133L1040 596H1362L1311 449H989L827 -4H662L823 449H565L403 -4H238L397 449H88L141 596H451L543 858H213L264 1004H596L758 1458H924Z"  />
<glyph unicode="$" horiz-adv-x="1366" d="M627 842V1280Q479 1272 398 1215T317 1061Q317 969 392 916T627 842ZM745 170Q917 176 1002 232T1087 397Q1087 496 1013 549T745 635V170ZM68 457H279Q286 325 374 252T627 170V657Q354 698 232 792T109 1055Q109 1225 246 1328T627 1442V1599H745L746 1444Q982 1435 1120 1331T1268 1051H1059Q1043 1155 966 1209T745 1272V817Q1051 766 1173 674T1296 410Q1296 221 1154 116T745 2V-172H627V2Q368 8 218 130T68 457Z"  />
<glyph unicode="%" horiz-adv-x="1759" d="M1108 354Q1108 221 1161 153T1317 84Q1420 84 1472 151T1524 354Q1524 489 1472 557T1317 625Q1214 625 1161 557T1108 354ZM961 354Q961 545 1053 646T1317 748Q1489 748 1581 647T1673 354Q1673 164 1581 63T1317 -39Q1145 -39 1053 62T961 354ZM338 -39L1270 1479H1419L487 -39H338ZM233 1087Q233 953 285 885T440 817Q544 817 596 885T649 1087Q649 1221 597 1288T440 1356Q337 1356 285 1289T233 1087ZM86 1087Q86 1278 177 1378T440 1479Q613 1479 705 1378T797 1087Q797 897 705 796T440 694Q268 694 177 795T86 1087Z"  />
<glyph unicode="&amp;" horiz-adv-x="1612" d="M686 926Q796 975 845 1029T895 1155Q895 1230 846 1272T709 1315Q628 1315 576 1272T524 1163Q524 1110 558 1059T686 926ZM1087 303L621 739Q453 661 385 590T317 426Q317 303 428 220T711 137Q816 137 911 179T1087 303ZM1686 0H1411L1217 182Q1111 69 975 15T659 -39Q417 -39 262 83T106 389Q106 546 207 662T506 850Q413 930 371 1005T328 1161Q328 1306 432 1393T711 1481Q885 1481 985 1399T1085 1176Q1085 1062 1016 973T807 819L1194 459Q1225 511 1241 568T1262 690H1444Q1444 590 1416 500T1331 332L1686 0Z"  />
<glyph unicode="&apos;" horiz-adv-x="317" d="M229 1436V881H90V1436H229Z"  />
<glyph unicode="(" horiz-adv-x="664" d="M657 1479Q496 1261 417 1031T338 545Q338 289 417 59T657 -389H506Q306 -148 213 78T119 545Q119 786 212 1011T506 1479H657Z"  />
<glyph unicode=")" horiz-adv-x="664" d="M6 -389Q168 -172 247 58T326 545Q326 800 247 1030T6 1479H158Q358 1237 451 1012T545 545Q545 304 452 78T158 -389H6Z"  />
<glyph unicode="*" horiz-adv-x="1065" d="M459 1241V1518H606V1241L868 1327L913 1188L651 1102L813 879L694 793L532 1016L371 793L252 879L412 1102L152 1188L197 1327L459 1241Z"  />
<glyph unicode="+" horiz-adv-x="1706" d="M924 1221V680H1452V541H924V0H782V541H254V680H782V1221H924Z"  />
<glyph unicode="&#x2c;" horiz-adv-x="682" d="M209 0V246H455V0Q455 -140 400 -215T209 -340V-207Q273 -182 301 -141T330 -31Q330 -26 329 -16T328 0H209Z"  />
<glyph unicode="-" horiz-adv-x="948" d="M98 457V637H850V457H98Z"  />
<glyph unicode="." horiz-adv-x="682" d="M217 0V246H465V0H217Z"  />
<glyph unicode="/" horiz-adv-x="569" d="M113 -190H-23L537 1518H672L113 -190Z"  />
<glyph unicode="0" horiz-adv-x="1366" d="M303 721Q303 435 397 294T684 152Q876 152 969 292T1063 721Q1063 1009 970 1149T684 1290Q492 1290 398 1149T303 721ZM90 721Q90 1085 243 1282T682 1479Q967 1479 1121 1283T1276 721Q1276 355 1122 158T682 -39Q398 -39 244 158T90 721Z"  />
<glyph unicode="1" horiz-adv-x="1366" d="M641 0V1040H201V1210H233Q455 1210 563 1274T686 1479H842V0H641Z"  />
<glyph unicode="2" horiz-adv-x="1366" d="M90 0V27Q90 184 178 302T481 543Q528 570 682 648T913 786Q967 828 996 888T1026 1016Q1026 1139 930 1217T682 1296Q516 1296 428 1208T336 955L115 954V969Q115 1214 262 1346T684 1479Q942 1479 1091 1355T1241 1018Q1241 943 1219 876T1151 750Q1066 638 817 510L813 508Q776 488 705 453Q422 311 350 199H1217V0H90Z"  />
<glyph unicode="3" horiz-adv-x="1366" d="M102 459H309Q311 303 402 223T672 143Q849 143 950 214T1051 410Q1051 539 950 602T643 666Q608 666 590 666T555 664V833Q571 832 587 832T635 831Q817 831 906 885T995 1049Q995 1160 912 1225T684 1290Q524 1290 435 1212T346 993V985H133V999Q133 1228 276 1353T680 1479Q918 1479 1064 1367T1210 1075Q1210 955 1143 875T946 762Q1104 747 1188 661T1272 428Q1272 213 1113 87T680 -39Q388 -39 245 81T102 449V459Z"  />
<glyph unicode="4" horiz-adv-x="1366" d="M831 0V362H80V557L852 1460H1044V543H1288V362H1044V0H831ZM283 543H831L844 1241L283 543Z"  />
<glyph unicode="5" horiz-adv-x="1366" d="M94 397H305Q325 276 412 214T651 152Q826 152 934 244T1042 483Q1042 627 937 717T662 807Q551 807 469 768T338 651H133L262 1442H1149V1255H420L350 848Q416 913 508 946T719 979Q814 979 895 958T1042 893Q1145 827 1202 723T1260 498Q1260 259 1093 110T653 -39Q413 -39 265 76T94 397Z"  />
<glyph unicode="6" horiz-adv-x="1366" d="M303 731Q389 845 506 900T776 956Q1009 956 1152 824T1296 479Q1296 249 1129 105T692 -39Q398 -39 240 147T82 680Q82 1065 249 1273T727 1481Q938 1481 1070 1386T1231 1118H1022Q993 1209 918 1256T727 1303Q515 1303 409 1160T303 731ZM330 463Q330 326 430 242T696 158Q873 158 979 243T1085 467Q1085 608 981 694T707 780Q541 780 436 691T330 463Z"  />
<glyph unicode="7" horiz-adv-x="1366" d="M389 0Q477 396 641 714T1036 1251H106V1442H1214V1245Q976 959 831 650T629 0H389Z"  />
<glyph unicode="8" horiz-adv-x="1366" d="M999 1090Q999 1191 918 1247T690 1303Q533 1303 450 1248T367 1090Q367 987 452 927T684 866Q830 866 914 926T999 1090ZM1057 436Q1057 562 958 632T680 702Q499 702 400 633T301 436Q301 306 401 230T674 154Q855 154 956 228T1057 436ZM418 793Q289 826 221 902T152 1090Q152 1270 297 1374T698 1479Q934 1479 1075 1373T1217 1090Q1217 979 1148 903T950 793Q1112 759 1193 665T1274 418Q1274 205 1117 83T684 -39Q410 -39 251 84T92 418Q92 570 176 667T418 793Z"  />
<glyph unicode="9" horiz-adv-x="1366" d="M1042 979Q1042 1115 942 1199T676 1284Q499 1284 392 1199T285 975Q285 834 389 748T666 662Q832 662 937 750T1042 979ZM1067 711Q981 597 865 541T596 485Q363 485 220 616T76 961Q76 1070 115 1163T229 1325Q312 1400 422 1439T662 1479Q971 1479 1130 1297T1290 762Q1290 377 1122 168T643 -41Q433 -41 301 55T141 324H348Q378 232 453 185T645 137Q855 137 961 279T1067 702V711Z"  />
<glyph unicode=":" horiz-adv-x="664" d="M209 0V246H455V0H209ZM209 848V1096H455V848H209Z"  />
<glyph unicode=";" horiz-adv-x="664" d="M201 848V1096H449V848H201ZM201 0V246H449V0Q449 -139 394 -214T201 -340V-207Q265 -182 293 -141T322 -31Q322 -26 321 -16T319 0H201Z"  />
<glyph unicode="&lt;" horiz-adv-x="1706" d="M1442 1006L473 610L1442 217V63L264 547V676L1442 1159V1006Z"  />
<glyph unicode="=" horiz-adv-x="1706" d="M1452 481V342H254V481H1452ZM1452 879V739H254V879H1452Z"  />
<glyph unicode="&gt;" horiz-adv-x="1706" d="M1442 676V547L264 63V217L1235 610L264 1006V1159L1442 676Z"  />
<glyph unicode="?" horiz-adv-x="1214" d="M461 387Q461 393 460 405T459 424Q459 508 490 568T612 702Q636 721 706 771T815 856Q863 898 888 951T913 1065Q913 1186 828 1257T596 1329Q442 1329 359 1249T272 1016H53Q61 1252 210 1385T618 1518Q849 1518 991 1395T1133 1071Q1133 1004 1115 943T1061 831Q1000 745 833 635Q787 604 764 588Q713 551 691 511T668 416Q668 410 669 401T670 387H461ZM444 0V246H682V0H444Z"  />
<glyph unicode="@" horiz-adv-x="2048" d="M1284 854L1341 969H1473L1327 393Q1323 377 1321 362T1319 334Q1319 288 1344 264T1419 240Q1467 240 1521 266T1628 342Q1708 418 1753 528T1798 762Q1798 1021 1608 1182T1108 1343Q975 1343 862 1315T651 1229Q460 1115 355 930T250 520Q250 343 311 212T504 -18Q604 -95 740 -136T1028 -178Q1197 -178 1356 -129T1649 12L1704 -70Q1556 -181 1390 -237T1040 -293Q850 -293 692 -246T412 -106Q258 12 182 168T106 522Q106 687 158 835T309 1104Q455 1282 660 1374T1116 1466Q1279 1466 1426 1421T1679 1294Q1809 1194 1876 1063T1944 780Q1944 605 1881 465T1696 229Q1628 175 1547 146T1380 117Q1281 117 1231 156T1180 274V293Q1125 204 1051 162T879 119Q726 119 646 204T565 451Q565 686 703 845T1042 1004Q1127 1004 1187 967T1284 854ZM1190 475L1249 711Q1232 799 1181 847T1051 895Q913 895 819 765T725 446Q725 341 773 284T911 227Q1008 227 1085 296T1190 475Z"  />
<glyph unicode="A" horiz-adv-x="1571" d="M494 614H1075L793 1245L494 614ZM-12 0L690 1479H909L1567 0H1350L1161 422H406L209 0H-12Z"  />
<glyph unicode="B" horiz-adv-x="1591" d="M954 672H379V201H924Q1110 201 1193 254T1276 424Q1276 553 1199 612T954 672ZM950 1292H379V864H905Q1086 864 1159 913T1233 1079Q1233 1191 1166 1241T950 1292ZM993 1479Q1209 1479 1325 1382T1442 1106Q1442 988 1384 908T1208 780Q1349 753 1423 663T1497 430Q1497 211 1369 106T973 0H170V1479H993Z"  />
<glyph unicode="C" horiz-adv-x="1720" d="M1647 571Q1617 293 1414 127T897 -39Q524 -39 306 171T88 739Q88 1097 306 1307T899 1518Q1206 1518 1406 1360T1630 942H1413Q1382 1120 1245 1220T897 1321Q618 1321 462 1167T305 739Q305 466 462 312T899 158Q1114 158 1258 270T1430 571H1647Z"  />
<glyph unicode="D" horiz-adv-x="1751" d="M821 1479Q1076 1479 1199 1448T1417 1341Q1538 1247 1600 1094T1663 739Q1663 537 1601 385T1417 137Q1322 63 1199 32T821 0H170V1479H821ZM889 1294H379V186H889Q1036 186 1127 210T1280 289Q1357 355 1401 475T1446 741Q1446 887 1402 1006T1280 1192Q1218 1246 1127 1270T889 1294Z"  />
<glyph unicode="E" horiz-adv-x="1456" d="M170 0V1479H1346V1290H379V854H1286V659H379V199H1360V0H170Z"  />
<glyph unicode="F" horiz-adv-x="1321" d="M170 0V1479H1298V1290H379V854H1196V653H379V0H170Z"  />
<glyph unicode="G" horiz-adv-x="1763" d="M1360 1012Q1318 1160 1187 1240T856 1321Q598 1321 449 1165T299 739Q299 472 448 315T850 158Q1078 158 1225 277T1393 598H924V793H1587V0H1442L1421 248Q1335 107 1189 34T848 -39Q504 -39 296 174T88 739Q88 1099 299 1308T872 1518Q1158 1518 1354 1375T1573 1012H1360Z"  />
<glyph unicode="H" horiz-adv-x="1659" d="M170 0V1479H379V883H1280V1479H1489V0H1280V688H379V0H170Z"  />
<glyph unicode="I" horiz-adv-x="578" d="M184 0V1479H393V0H184Z"  />
<glyph unicode="J" horiz-adv-x="1165" d="M39 500H250V467Q250 302 316 228T530 154Q630 154 690 184T786 281Q803 311 810 373T817 569V1479H1028V500Q1028 348 1009 271T944 135Q876 47 777 4T543 -39Q291 -39 165 79T39 436V500Z"  />
<glyph unicode="K" horiz-adv-x="1518" d="M170 0V1479H379V719L1243 1479H1511L809 864L1513 0H1268L668 739L379 492V0H170Z"  />
<glyph unicode="L" horiz-adv-x="1313" d="M170 0V1479H379V199H1284V0H170Z"  />
<glyph unicode="M" horiz-adv-x="2124" d="M170 0V1479H485L1057 190L1642 1479H1954V0H1749L1761 1325L1163 0H950L362 1325L375 0H170Z"  />
<glyph unicode="N" horiz-adv-x="1759" d="M170 0V1479H453L1384 217V1479H1587V0H1305L375 1262V0H170Z"  />
<glyph unicode="O" horiz-adv-x="1796" d="M305 739Q305 465 462 312T899 158Q1178 158 1334 312T1491 739Q1491 1013 1334 1167T897 1321Q618 1321 462 1167T305 739ZM88 739Q88 1097 306 1307T899 1518Q1272 1518 1490 1308T1708 739Q1708 381 1490 171T897 -39Q524 -39 306 171T88 739Z"  />
<glyph unicode="P" horiz-adv-x="1460" d="M379 780H768Q1004 780 1095 838T1186 1036Q1186 1178 1098 1236T782 1294H379V780ZM170 0V1479H852Q1128 1479 1261 1372T1395 1042Q1395 821 1262 714T852 606H379V0H170Z"  />
<glyph unicode="Q" horiz-adv-x="1796" d="M1128 190L973 315L1087 461L1305 285Q1395 356 1443 473T1491 739Q1491 1013 1334 1167T897 1321Q618 1321 462 1167T305 739Q305 462 463 310T911 158Q981 158 1033 166T1128 190ZM1303 45Q1225 1 1129 -19T897 -39Q524 -39 306 171T88 739Q88 1097 306 1307T899 1518Q1272 1518 1490 1308T1708 739Q1708 556 1646 405T1466 152L1667 -8L1550 -158L1303 45Z"  />
<glyph unicode="R" horiz-adv-x="1616" d="M848 1300H377V817H866Q1088 817 1176 872T1264 1059Q1264 1193 1177 1246T848 1300ZM170 0V1479H948Q1205 1479 1339 1376T1473 1075Q1473 933 1410 843T1219 713Q1331 696 1383 631T1446 432L1464 193Q1471 110 1483 71T1518 0H1274Q1263 25 1257 60T1247 154L1229 373Q1216 526 1154 580T932 635H377V0H170Z"  />
<glyph unicode="S" horiz-adv-x="1518" d="M103 500H324Q330 325 444 241T788 156Q984 156 1091 221T1198 406Q1198 493 1140 541T944 614L578 680Q355 719 253 813T150 1071Q150 1285 312 1401T774 1518Q1057 1518 1209 1397T1364 1049H1155Q1144 1190 1048 1257T758 1325Q570 1325 471 1265T371 1090Q371 1007 427 963T633 889L958 825Q1214 776 1315 686T1417 424Q1417 204 1250 83T776 -39Q446 -39 277 96T103 500Z"  />
<glyph unicode="T" horiz-adv-x="1313" d="M760 1286V0H551V1286H-10V1479H1323V1286H760Z"  />
<glyph unicode="U" horiz-adv-x="1647" d="M1473 1479V551Q1473 262 1307 112T819 -39Q498 -39 332 111T166 551V1479H375V639Q375 394 483 278T819 162Q1048 162 1156 277T1264 639V1479H1473Z"  />
<glyph unicode="V" horiz-adv-x="1518" d="M635 0L-12 1479H211L758 188L1303 1479H1530L877 0H635Z"  />
<glyph unicode="W" horiz-adv-x="2329" d="M504 0L6 1479H227L639 184L1042 1479H1284L1688 184L2099 1479H2320L1823 0H1575L1161 1276L752 0H504Z"  />
<glyph unicode="X" horiz-adv-x="1473" d="M10 0L618 758L70 1479H332L745 918L1192 1479H1444L866 760L1460 0H1194L735 608L279 0H10Z"  />
<glyph unicode="Y" horiz-adv-x="1464" d="M631 0V616L-31 1479H223L733 791L1247 1479H1497L840 616V0H631Z"  />
<glyph unicode="Z" horiz-adv-x="1413" d="M35 0V205L1098 1290H102V1479H1360V1272L311 205H1378V0H35Z"  />
<glyph unicode="[" horiz-adv-x="664" d="M135 -389V1479H623V1319H332V-227H623V-389H135Z"  />
<glyph unicode="\" horiz-adv-x="569" d="M457 -190L-102 1518H33L592 -190H457Z"  />
<glyph unicode="]" horiz-adv-x="664" d="M528 1479V-389H41V-227H332V1319H41V1479H528Z"  />
<glyph unicode="^" horiz-adv-x="2048" d="M1116 1458L1626 901H1446L1024 1321L600 901H420L930 1458H1116Z"  />
<glyph unicode="_" horiz-adv-x="1024" d="M1024 -340V-483H0V-340H1024Z"  />
<glyph unicode="`" horiz-adv-x="1024" d="M508 1243L221 1548H471L653 1243H508Z"  />
<glyph unicode="a" horiz-adv-x="1374" d="M987 170Q913 74 795 24T526 -27Q324 -27 213 60T102 303Q102 388 141 454T260 569Q299 593 372 609T612 643Q641 646 696 652Q977 679 977 795Q977 882 910 921T692 961Q521 961 443 910T356 746L150 745Q160 938 292 1035T678 1133Q953 1133 1066 1051T1180 768V326Q1180 234 1201 199T1278 164Q1290 164 1304 165T1335 170V10Q1296 5 1257 3T1182 0Q1095 0 1049 40T987 170ZM981 563Q940 539 861 521T649 487Q435 463 377 426T319 311Q319 231 382 186T559 141Q741 141 861 216T981 399V563Z"  />
<glyph unicode="b" horiz-adv-x="1434" d="M350 543Q350 360 458 255T752 150Q938 150 1044 254T1151 543Q1151 726 1045 831T752 936Q566 936 458 831T350 543ZM152 1479H350V928Q435 1024 537 1070T772 1116Q1034 1116 1197 957T1360 543Q1360 287 1197 127T774 -33Q642 -33 537 14T350 160V0H152V1479Z"  />
<glyph unicode="c" horiz-adv-x="1313" d="M1008 733Q978 834 893 891T688 948Q500 948 391 840T281 547Q281 366 389 257T674 147Q809 147 901 218T1014 410H1223Q1187 201 1038 81T666 -39Q403 -39 239 124T74 547Q74 808 239 970T670 1133Q885 1133 1032 1025T1214 733H1008Z"  />
<glyph unicode="d" horiz-adv-x="1434" d="M1083 543Q1083 725 976 830T682 936Q495 936 389 831T283 543Q283 359 389 255T682 150Q868 150 975 255T1083 543ZM1284 1479V0H1083V160Q1001 62 897 15T659 -33Q400 -33 237 127T74 543Q74 798 236 957T662 1116Q794 1116 896 1070T1083 928V1479H1284Z"  />
<glyph unicode="e" horiz-adv-x="1374" d="M301 649H1073Q1050 789 948 868T688 948Q532 948 429 869T301 649ZM295 508V500Q295 344 404 246T688 147Q818 147 910 199T1036 342H1268Q1209 162 1057 62T688 -39Q414 -39 250 120T86 547Q86 814 250 973T688 1133Q968 1133 1127 977T1286 547V508H295Z"  />
<glyph unicode="f" horiz-adv-x="668" d="M227 0V924H35V1096H227V1210Q227 1351 295 1415T512 1479Q565 1479 609 1475T694 1462V1284Q659 1291 626 1294T563 1298Q486 1298 456 1270T426 1169V1096H694V924H426V0H227Z"  />
<glyph unicode="g" horiz-adv-x="1430" d="M283 547Q283 360 391 254T690 147Q880 147 990 254T1100 547Q1100 733 990 840T690 948Q501 948 392 841T283 547ZM1284 141Q1284 -137 1139 -263T672 -389Q434 -389 299 -298T147 -35H371Q386 -124 461 -167T674 -211Q895 -211 989 -134T1083 125V162Q999 65 897 19T662 -27Q399 -27 237 132T74 547Q74 802 237 962T659 1122Q803 1122 910 1070T1083 918V1096H1284V141Z"  />
<glyph unicode="h" horiz-adv-x="1352" d="M145 0V1479H342V907Q432 1017 544 1070T795 1124Q903 1124 986 1093T1124 999Q1171 945 1190 870T1210 629V0H1012V637Q1012 811 952 883T750 956Q570 956 457 846T344 557V0H145Z"  />
<glyph unicode="i" horiz-adv-x="516" d="M358 1239H160V1479H358V1239ZM160 0V1096H358V0H160Z"  />
<glyph unicode="j" horiz-adv-x="516" d="M160 1096H358V-61Q358 -246 280 -318T2 -391Q-32 -391 -50 -391T-84 -389V-203Q-71 -205 -57 -206T-16 -207Q73 -207 116 -169T160 -53V1096ZM358 1239H160V1479H358V1239Z"  />
<glyph unicode="k" horiz-adv-x="1214" d="M160 0V1479H358V616L934 1096H1229L709 678L1268 0H999L561 557L358 395V0H160Z"  />
<glyph unicode="l" horiz-adv-x="516" d="M160 0V1479H358V0H160Z"  />
<glyph unicode="m" horiz-adv-x="2210" d="M342 907Q432 1017 544 1070T795 1124Q948 1124 1050 1063T1186 889Q1283 1011 1396 1067T1655 1124Q1763 1124 1847 1093T1985 999Q2031 945 2051 870T2071 629V0H1872V637Q1872 811 1812 883T1610 956Q1430 956 1317 846T1204 557V0H1012V637Q1012 811 952 883T750 956Q570 956 457 846T344 557V0H145V1096H342V907Z"  />
<glyph unicode="n" horiz-adv-x="1352" d="M145 0V1096H342V907Q432 1017 544 1070T795 1124Q903 1124 986 1093T1124 999Q1171 945 1190 870T1210 629V0H1012V637Q1012 811 952 883T750 956Q570 956 457 846T344 557V0H145Z"  />
<glyph unicode="o" horiz-adv-x="1374" d="M281 547Q281 362 390 255T688 147Q876 147 985 254T1094 547Q1094 733 985 840T688 948Q500 948 391 840T281 547ZM74 547Q74 813 241 973T688 1133Q968 1133 1134 974T1300 547Q1300 280 1134 121T688 -39Q408 -39 241 120T74 547Z"  />
<glyph unicode="p" horiz-adv-x="1434" d="M348 547Q348 364 456 259T750 154Q936 154 1043 258T1151 547Q1151 730 1044 835T750 940Q564 940 456 835T348 547ZM150 -389V1096H348V932Q428 1028 533 1075T772 1122Q1033 1122 1196 962T1360 547Q1360 291 1196 132T770 -27Q638 -27 536 19T348 162V-389H150Z"  />
<glyph unicode="q" horiz-adv-x="1434" d="M1083 547Q1083 729 976 834T682 940Q495 940 389 835T283 547Q283 363 389 259T682 154Q868 154 975 259T1083 547ZM1284 -389H1083V162Q999 65 897 19T662 -27Q399 -27 237 132T74 547Q74 803 237 962T659 1122Q793 1122 897 1076T1083 932V1096H1284V-389Z"  />
<glyph unicode="r" horiz-adv-x="817" d="M145 0V1096H342V911Q417 1019 520 1076T745 1133Q775 1133 795 1129T834 1114V905Q794 917 760 922T692 928Q545 928 445 817T344 537V0H145Z"  />
<glyph unicode="s" horiz-adv-x="1210" d="M63 356H281Q295 251 378 194T602 137Q764 137 854 181T944 303Q944 360 902 389T745 438L500 481Q274 519 195 585T115 782Q115 954 240 1043T608 1133Q851 1133 979 1041T1108 774V766H915Q905 867 827 916T598 965Q460 965 388 927T315 817Q315 754 359 723T561 664L799 625Q996 592 1072 523T1149 315Q1149 145 1008 53T602 -39Q347 -39 215 58T63 356Z"  />
<glyph unicode="t" horiz-adv-x="764" d="M461 270Q461 200 491 171T594 141Q621 141 653 145T727 160V-20Q656 -31 617 -35T545 -39Q400 -39 330 23T260 213V924H70V1096H260V1374H461V1096H727V924H461V270Z"  />
<glyph unicode="u" horiz-adv-x="1352" d="M1210 1096V0H1014V186Q923 76 812 23T561 -31Q454 -31 370 1T231 96Q185 150 165 225T145 467V1096H344V459Q344 285 404 212T606 139Q786 139 899 249T1012 539V1096H1210Z"  />
<glyph unicode="v" horiz-adv-x="1165" d="M477 0L-20 1096H217L590 172L954 1096H1186L698 0H477Z"  />
<glyph unicode="w" horiz-adv-x="1810" d="M410 0L-4 1096H238L520 186L797 1096H1026L1286 186L1581 1096H1815L1391 0H1165L907 899L637 0H410Z"  />
<glyph unicode="x" horiz-adv-x="1214" d="M-8 0L479 557L39 1096H309L618 678L942 1096H1208L739 557L1229 0H952L618 428L252 0H-8Z"  />
<glyph unicode="y" horiz-adv-x="1165" d="M700 8Q634 -143 587 -219T496 -328Q454 -358 393 -373T252 -389Q225 -389 190 -387T115 -381V-195Q155 -201 183 -204T231 -207Q337 -207 390 -163T477 0L-20 1096H217L590 172L954 1096H1186L700 8Z"  />
<glyph unicode="z" horiz-adv-x="1214" d="M66 0V197L881 922H109V1096H1128V922L328 176H1149V0H66Z"  />
<glyph unicode="{" horiz-adv-x="1024" d="M866 1327H825Q705 1327 664 1283T623 1098V856Q623 696 579 628T422 530Q535 502 579 434T623 205V-37Q623 -178 664 -222T827 -266H866V-414H823Q715 -414 654 -403T551 -365Q496 -331 474 -268T451 -57V188Q451 337 397 398T211 459Q204 459 190 458T168 457V606Q176 606 191 605T213 604Q343 604 397 664T451 872V1118Q451 1266 473 1328T551 1425Q596 1453 659 1465T829 1477H866V1327Z"  />
<glyph unicode="|" horiz-adv-x="1024" d="M588 1565V-483H438V1565H588Z"  />
<glyph unicode="}" horiz-adv-x="1024" d="M575 1118V872Q575 725 629 665T813 604Q820 604 835 605T858 606V457Q851 457 836 458T815 459Q683 459 629 399T575 188V-57Q575 -205 553 -268T475 -365Q433 -391 372 -402T203 -414H160V-266H199Q319 -266 361 -221T403 -35V205Q403 365 447 433T604 530Q492 560 448 628T403 856V1098Q403 1238 361 1282T199 1327H160V1477H197Q304 1477 368 1465T475 1425Q530 1391 552 1329T575 1118Z"  />
<glyph unicode="~" horiz-adv-x="1706" d="M1530 614Q1426 542 1331 508T1141 473Q1048 473 885 531Q863 539 851 543L836 548Q660 608 563 608Q479 608 388 571T178 451V606Q284 678 380 714T565 750Q627 750 692 737T856 688Q872 683 903 671Q1062 614 1143 614Q1231 614 1322 651T1530 770V614Z"  />
<glyph unicode="&#xA0;" horiz-adv-x="1366" />
<glyph unicode="&#xA1;" horiz-adv-x="664" d="M455 1479V1233H209V1479H455ZM393 1110L440 539V0H223V532L270 1110H393Z"  />
<glyph unicode="&#xA2;" horiz-adv-x="1366" d="M616 186V981Q457 958 369 854T281 584Q281 418 367 315T616 186ZM1223 446Q1189 250 1057 134T717 2V-201H616V2Q374 14 224 174T74 584Q74 832 220 989T616 1167V1356H717V1170Q913 1160 1044 1055T1214 770H1008Q978 867 904 921T717 983V186Q841 202 919 270T1014 446H1223Z"  />
<glyph unicode="&#xA3;" horiz-adv-x="1366" d="M86 643V780H227Q192 850 175 911T158 1024Q158 1087 180 1148T246 1268Q328 1374 456 1426T764 1479Q1018 1479 1157 1355T1305 995H1102Q1091 1148 1004 1226T758 1305Q590 1305 485 1219T379 999Q379 956 394 901T440 780H899V643H502Q520 603 529 566T539 494Q539 413 497 338T367 188Q428 209 481 219T582 229Q640 229 759 199T942 168Q1027 168 1103 192T1249 266L1317 80Q1259 22 1175 -7T985 -37Q896 -37 727 4T475 45Q405 45 338 25T203 -39L86 141Q197 172 260 253T324 449Q324 490 312 538T276 643H86Z"  />
<glyph unicode="&#xA4;" horiz-adv-x="1366" d="M16 530L63 635H192Q191 651 191 668T190 721Q190 759 190 777T192 811H23L68 915H201Q240 1192 390 1335T793 1479Q1014 1479 1152 1366T1321 1049H1106Q1090 1160 1008 1225T795 1290Q623 1290 529 1198T414 915H1126L1079 811H406Q404 795 404 777T403 721Q403 684 403 667T406 635H1006L961 530H414Q433 340 527 246T793 152Q927 152 1003 212T1108 399H1323Q1279 193 1141 77T791 -39Q539 -39 389 106T201 530H16Z"  />
<glyph unicode="&#xA5;" horiz-adv-x="1366" d="M1421 1442L1065 973H1337V868H983L864 711H1337V606H780V0H590V606H37V711H506L385 868H37V973H305L-57 1442H190L688 770L1188 1442H1421Z"  />
<glyph unicode="&#xA6;" horiz-adv-x="1024" d="M588 408V-350H438V408H588ZM588 1432V674H438V1432H588Z"  />
<glyph unicode="&#xA7;" horiz-adv-x="1360" d="M961 315Q1020 349 1050 396T1081 502Q1081 564 1044 605T920 678L521 829Q510 833 431 870L408 881Q341 844 311 804T281 711Q281 639 330 590T506 494L827 373Q853 364 884 351T961 315ZM160 57H371V49Q371 -51 451 -104T684 -158Q819 -158 885 -116T952 12Q952 47 938 76T897 125Q848 160 707 205Q627 231 584 248Q452 298 364 336T242 397Q151 457 118 515T84 664Q84 766 137 837T301 956Q251 1002 228 1054T205 1176Q205 1328 334 1423T676 1518Q905 1518 1029 1423T1153 1151V1139H948Q946 1240 877 1287T664 1335Q541 1335 478 1295T414 1178Q414 1072 781 939L801 932Q833 920 890 900Q1075 833 1114 809Q1203 752 1239 689T1276 530Q1276 435 1224 364T1067 246Q1119 202 1143 149T1167 25Q1167 -149 1037 -243T668 -338Q429 -338 298 -236T160 57Z"  />
<glyph unicode="&#xA8;" horiz-adv-x="1024" d="M852 1282H653V1509H852V1282ZM371 1282H172V1509H371V1282Z"  />
<glyph unicode="&#xA9;" horiz-adv-x="1706" d="M1053 907Q1040 984 987 1025T848 1067Q743 1067 683 977T623 727Q623 570 685 483T858 395Q940 395 994 442T1063 571H1208Q1199 441 1101 360T852 279Q670 279 567 399T463 733Q463 933 572 1055T858 1178Q1000 1178 1094 1103T1200 907H1053ZM1493 727Q1493 857 1446 973T1309 1180Q1216 1272 1100 1320T854 1368Q725 1368 611 1321T406 1184Q313 1091 263 973T213 727Q213 601 262 485T403 276Q495 185 610 137T854 88Q979 88 1096 137T1309 279Q1399 367 1446 481T1493 727ZM852 1464Q1004 1464 1137 1410T1376 1249Q1480 1146 1535 1011T1591 727Q1591 578 1537 446T1378 211Q1268 104 1133 47T852 -10Q707 -10 574 46T334 209Q228 314 173 447T117 727Q117 874 173 1008T336 1251Q440 1355 572 1409T852 1464Z"  />
<glyph unicode="&#xAA;" horiz-adv-x="1030" d="M741 831Q686 765 597 730T395 694Q244 694 161 754T78 926Q78 985 107 1031T195 1112Q225 1129 282 1140T458 1163Q480 1165 520 1169Q733 1188 733 1270Q733 1330 683 1357T520 1384Q391 1384 332 1349T268 1235H113Q120 1370 219 1437T508 1505Q715 1505 800 1448T885 1251V940Q885 877 901 852T958 827Q969 827 996 831Q999 831 1001 831V721Q971 717 941 715T887 713Q822 713 787 741T741 831ZM735 1108Q704 1090 644 1077T487 1055Q324 1036 282 1010T240 930Q240 875 288 843T420 811Q556 811 645 864T735 993V1108Z"  />
<glyph unicode="&#xAB;" horiz-adv-x="1139" d="M618 668L985 950V733L745 547L985 362V145L618 428V668ZM143 668L512 950V733L272 547L512 362V145L143 428V668Z"  />
<glyph unicode="&#xAC;" horiz-adv-x="1706" d="M1452 860V358H1315V721H254V860H1452Z"  />
<glyph unicode="&#xAD;" horiz-adv-x="948" d="M98 457V637H850V457H98Z"  />
<glyph unicode="&#xAE;" horiz-adv-x="1706" d="M844 1057H715V780H848Q961 780 1010 811T1059 913Q1059 989 1008 1023T844 1057ZM872 1159Q1046 1159 1133 1102T1221 930Q1221 841 1171 782T1030 705L1217 324H1040L870 680H715V324H557V1159H872ZM1493 721Q1493 855 1447 972T1311 1178Q1219 1271 1103 1319T854 1368Q724 1368 609 1321T408 1186Q314 1091 264 972T213 727Q213 602 261 487T401 279Q491 187 607 138T848 88Q978 88 1094 136T1307 276Q1397 364 1445 478T1493 721ZM852 1464Q1003 1464 1138 1408T1378 1245Q1481 1141 1536 1007T1591 727Q1591 576 1536 444T1376 209Q1267 103 1132 47T852 -10Q705 -10 572 46T332 211Q227 317 172 449T117 727Q117 873 174 1009T340 1255Q441 1358 571 1411T852 1464Z"  />
<glyph unicode="&#xAF;" horiz-adv-x="1024" d="M905 1319H119V1473H905V1319Z"  />
<glyph unicode="&#xB0;" horiz-adv-x="674" d="M530 1169Q530 1250 475 1306T338 1362Q257 1362 200 1306T143 1169Q143 1088 200 1031T338 973Q419 973 474 1030T530 1169ZM338 1456Q456 1456 540 1372T625 1167Q625 1048 541 965T336 881Q215 881 132 964T49 1167Q49 1287 133 1371T338 1456Z"  />
<glyph unicode="&#xB1;" horiz-adv-x="1706" d="M1452 170V29H254V170H1452ZM924 1192V852H1452V713H924V373H782V713H254V852H782V1192H924Z"  />
<glyph unicode="&#xB2;" horiz-adv-x="901" d="M59 575V592Q59 686 117 757T317 901Q349 918 450 964T602 1047Q639 1074 658 1110T678 1186Q678 1259 614 1306T451 1354Q342 1354 283 1301T221 1149H76V1157Q76 1304 173 1383T451 1462Q621 1462 720 1388T819 1186Q819 1141 804 1101T760 1026Q727 988 681 957T537 881Q514 870 469 849Q279 762 231 694H803V575H59Z"  />
<glyph unicode="&#xB3;" horiz-adv-x="901" d="M68 850H205Q205 758 265 710T442 662Q560 662 627 704T694 821Q694 899 627 937T424 975Q401 975 390 975T367 973V1075H420Q540 1075 598 1107T657 1204Q657 1272 602 1311T451 1350Q346 1350 288 1303T229 1171V1167H88V1176Q88 1312 182 1387T449 1462Q606 1462 702 1396T799 1221Q799 1148 755 1100T625 1032Q728 1023 784 971T840 831Q840 704 735 629T449 553Q256 553 162 625T68 844V850Z"  />
<glyph unicode="&#xB4;" horiz-adv-x="1024" d="M369 1243L551 1548H801L514 1243H369Z"  />
<glyph unicode="&#xB5;" horiz-adv-x="1151" d="M385 1071L256 471Q249 439 246 407T242 338Q242 239 294 185T442 131Q574 131 650 223T774 535L889 1071H1067L911 339Q910 333 907 319Q889 232 889 207Q889 170 905 155T961 139Q973 139 979 139T993 141L962 -2Q938 -7 912 -9T854 -12Q791 -12 757 17T705 117Q660 51 593 19T434 -14Q352 -14 291 13T178 102L68 -428H-113L205 1071H385Z"  />
<glyph unicode="&#xB6;" horiz-adv-x="1024" d="M958 1393H838V0H727V1393H551V0H438V782Q268 790 167 884T66 1130Q66 1287 173 1383T459 1479H958V1393Z"  />
<glyph unicode="&#xB7;" horiz-adv-x="682" d="M190 721Q190 784 234 827T342 870Q405 870 448 827T492 721Q492 658 449 614T342 569Q279 569 235 613T190 721Z"  />
<glyph unicode="&#xB8;" horiz-adv-x="1024" d="M250 -403L289 -317Q351 -336 398 -345T481 -354Q542 -354 573 -335T604 -276Q604 -241 582 -222T516 -203Q495 -203 475 -207T436 -219L391 -184L494 0H580L508 -127Q529 -120 548 -117T584 -113Q673 -113 724 -157T776 -279Q776 -365 715 -410T537 -455Q465 -455 394 -442T250 -403Z"  />
<glyph unicode="&#xB9;" horiz-adv-x="901" d="M424 575V1200H133V1303H156Q302 1303 373 1341T455 1462H557V575H424Z"  />
<glyph unicode="&#xBA;" horiz-adv-x="1030" d="M211 1096Q211 966 293 891T516 815Q658 815 739 890T821 1096Q821 1226 740 1301T516 1376Q375 1376 293 1301T211 1096ZM55 1096Q55 1282 180 1393T516 1505Q726 1505 850 1394T975 1096Q975 909 851 798T516 686Q306 686 181 798T55 1096Z"  />
<glyph unicode="&#xBB;" horiz-adv-x="1139" d="M520 428L152 145V362L391 547L152 733V950L520 668V428ZM993 428L627 145V362L866 547L627 733V950L993 668V428Z"  />
<glyph unicode="&#xBC;" horiz-adv-x="2157" d="M1821 0V203H1348V311L1833 817H1954V303H2107V203H1954V0H1821ZM1475 303H1821L1829 694L1475 303ZM430 -39L1567 1479H1726L590 -39H430ZM403 633V1214H125V1311H147Q286 1311 354 1347T432 1460H530V633H403Z"  />
<glyph unicode="&#xBD;" horiz-adv-x="2157" d="M1354 0V14Q1354 103 1409 169T1599 303Q1628 318 1725 362T1872 440Q1906 464 1925 497T1944 569Q1944 638 1883 681T1726 725Q1622 725 1567 677T1507 535H1368V543Q1368 679 1461 753T1726 827Q1889 827 1984 758T2079 569Q2079 529 2065 491T2021 420Q1969 357 1813 287L1809 285Q1785 274 1742 254Q1563 174 1518 111H2062V0H1354ZM430 -39L1567 1479H1726L590 -39H430ZM403 633V1214H125V1311H147Q286 1311 354 1347T432 1460H530V633H403Z"  />
<glyph unicode="&#xBE;" horiz-adv-x="2157" d="M1821 0V203H1348V311L1833 817H1954V303H2107V203H1954V0H1821ZM1475 303H1821L1829 694L1475 303ZM430 -39L1567 1479H1726L590 -39H430ZM66 889H194Q196 803 254 758T424 713Q535 713 598 753T662 862Q662 935 599 970T406 1006Q383 1006 372 1006T350 1004V1099Q359 1099 370 1099T399 1098Q514 1098 570 1128T627 1221Q627 1282 574 1319T430 1356Q330 1356 274 1312T217 1190V1184H84V1192Q84 1320 173 1390T428 1460Q578 1460 670 1398T762 1235Q762 1167 721 1123T596 1059Q695 1051 748 1003T801 872Q801 752 701 681T428 610Q244 610 155 678T66 885V889Z"  />
<glyph unicode="&#xBF;" horiz-adv-x="1214" d="M770 1092Q770 1085 771 1073T772 1055Q772 970 740 910T618 776Q595 757 525 707T416 623Q368 581 343 528T317 414Q317 292 402 221T635 150Q788 150 871 231T959 465H1178Q1170 228 1020 95T612 -39Q382 -39 240 85T98 410Q98 477 116 537T170 649Q230 734 394 842Q443 874 467 891Q518 927 540 968T563 1063Q563 1069 562 1078T561 1092H770ZM786 1479V1233H549V1479H786Z"  />
<glyph unicode="&#xC0;" horiz-adv-x="1571" d="M494 614H1075L793 1245L494 614ZM-12 0L690 1479H909L1567 0H1350L1161 422H406L209 0H-12ZM797 1628L510 1933H760L942 1628H797Z"  />
<glyph unicode="&#xC1;" horiz-adv-x="1571" d="M494 614H1075L793 1245L494 614ZM-12 0L690 1479H909L1567 0H1350L1161 422H406L209 0H-12ZM658 1628L840 1933H1090L803 1628H658Z"  />
<glyph unicode="&#xC2;" horiz-adv-x="1571" d="M494 614H1075L793 1245L494 614ZM-12 0L690 1479H909L1567 0H1350L1161 422H406L209 0H-12ZM801 1819L627 1628H416L690 1933H912L1186 1628H975L801 1819Z"  />
<glyph unicode="&#xC3;" horiz-adv-x="1571" d="M494 614H1075L793 1245L494 614ZM-12 0L690 1479H909L1567 0H1350L1161 422H406L209 0H-12ZM408 1657Q412 1770 472 1838T627 1907Q657 1907 692 1898T768 1872L862 1833Q869 1830 883 1824Q946 1796 973 1796Q1011 1796 1033 1822T1065 1904H1192Q1188 1791 1129 1723T975 1655Q944 1655 909 1663T832 1690L740 1728Q729 1733 711 1741Q654 1765 629 1765Q590 1765 567 1739T534 1657H408Z"  />
<glyph unicode="&#xC4;" horiz-adv-x="1571" d="M494 614H1075L793 1245L494 614ZM-12 0L690 1479H909L1567 0H1350L1161 422H406L209 0H-12ZM1141 1667H942V1894H1141V1667ZM660 1667H461V1894H660V1667Z"  />
<glyph unicode="&#xC5;" horiz-adv-x="1571" d="M696 1751Q696 1706 726 1679T807 1651Q857 1651 889 1679T922 1751Q922 1796 891 1822T807 1849Q756 1849 726 1823T696 1751ZM569 1751Q569 1846 632 1901T807 1956Q918 1956 981 1902T1044 1751Q1044 1655 981 1601T807 1546Q696 1546 633 1600T569 1751ZM494 614H1075L793 1245L494 614ZM-12 0L690 1479H909L1567 0H1350L1161 422H406L209 0H-12Z"  />
<glyph unicode="&#xC6;" horiz-adv-x="2365" d="M1075 614V1290H920L565 614H1075ZM27 0L793 1479H2251V1290H1284V854H2191V653H1284V199H2265V0H1075V422H467L246 0H27Z"  />
<glyph unicode="&#xC7;" horiz-adv-x="1720" d="M1647 571Q1617 293 1414 127T897 -39Q524 -39 306 171T88 739Q88 1097 306 1307T899 1518Q1206 1518 1406 1360T1630 942H1413Q1382 1120 1245 1220T897 1321Q618 1321 462 1167T305 739Q305 466 462 312T899 158Q1114 158 1258 270T1430 571H1647ZM621 -403L660 -317Q722 -336 769 -345T852 -354Q913 -354 944 -335T975 -276Q975 -241 953 -222T887 -203Q866 -203 846 -207T807 -219L762 -184L865 0H951L879 -127Q900 -120 919 -117T955 -113Q1044 -113 1095 -157T1147 -279Q1147 -365 1086 -410T908 -455Q836 -455 765 -442T621 -403Z"  />
<glyph unicode="&#xC8;" horiz-adv-x="1456" d="M170 0V1479H1346V1290H379V854H1286V659H379V199H1360V0H170ZM778 1628L491 1933H741L923 1628H778Z"  />
<glyph unicode="&#xC9;" horiz-adv-x="1456" d="M170 0V1479H1346V1290H379V854H1286V659H379V199H1360V0H170ZM639 1628L821 1933H1071L784 1628H639Z"  />
<glyph unicode="&#xCA;" horiz-adv-x="1456" d="M170 0V1479H1346V1290H379V854H1286V659H379V199H1360V0H170ZM782 1819L608 1628H397L671 1933H893L1167 1628H956L782 1819Z"  />
<glyph unicode="&#xCB;" horiz-adv-x="1456" d="M170 0V1479H1346V1290H379V854H1286V659H379V199H1360V0H170ZM1122 1667H923V1894H1122V1667ZM641 1667H442V1894H641V1667Z"  />
<glyph unicode="&#xCC;" horiz-adv-x="578" d="M184 0V1479H393V0H184ZM286 1628L-1 1933H249L431 1628H286Z"  />
<glyph unicode="&#xCD;" horiz-adv-x="578" d="M184 0V1479H393V0H184ZM147 1628L329 1933H579L292 1628H147Z"  />
<glyph unicode="&#xCE;" horiz-adv-x="578" d="M184 0V1479H393V0H184ZM290 1819L116 1628H-95L179 1933H401L675 1628H464L290 1819Z"  />
<glyph unicode="&#xCF;" horiz-adv-x="578" d="M184 0V1479H393V0H184ZM630 1667H431V1894H630V1667ZM149 1667H-50V1894H149V1667Z"  />
<glyph unicode="&#xD0;" horiz-adv-x="1761" d="M895 1294H389V854H895V721H389V186H895Q1043 186 1134 210T1288 289Q1366 355 1411 476T1456 741Q1456 886 1411 1005T1288 1192Q1226 1246 1135 1270T895 1294ZM831 1479Q1087 1479 1209 1448T1427 1341Q1549 1247 1611 1094T1673 739Q1673 537 1611 385T1427 137Q1332 63 1210 32T831 0H180V721H0V854H180V1479H831Z"  />
<glyph unicode="&#xD1;" horiz-adv-x="1759" d="M170 0V1479H453L1384 217V1479H1587V0H1305L375 1262V0H170ZM488 1657Q492 1770 552 1838T707 1907Q737 1907 772 1898T848 1872L942 1833Q949 1830 963 1824Q1026 1796 1053 1796Q1091 1796 1113 1822T1145 1904H1272Q1268 1791 1209 1723T1055 1655Q1024 1655 989 1663T912 1690L820 1728Q809 1733 791 1741Q734 1765 709 1765Q670 1765 647 1739T614 1657H488Z"  />
<glyph unicode="&#xD2;" horiz-adv-x="1796" d="M305 739Q305 465 462 312T899 158Q1178 158 1334 312T1491 739Q1491 1013 1334 1167T897 1321Q618 1321 462 1167T305 739ZM88 739Q88 1097 306 1307T899 1518Q1272 1518 1490 1308T1708 739Q1708 381 1490 171T897 -39Q524 -39 306 171T88 739ZM895 1628L608 1933H858L1040 1628H895Z"  />
<glyph unicode="&#xD3;" horiz-adv-x="1796" d="M305 739Q305 465 462 312T899 158Q1178 158 1334 312T1491 739Q1491 1013 1334 1167T897 1321Q618 1321 462 1167T305 739ZM88 739Q88 1097 306 1307T899 1518Q1272 1518 1490 1308T1708 739Q1708 381 1490 171T897 -39Q524 -39 306 171T88 739ZM756 1628L938 1933H1188L901 1628H756Z"  />
<glyph unicode="&#xD4;" horiz-adv-x="1796" d="M305 739Q305 465 462 312T899 158Q1178 158 1334 312T1491 739Q1491 1013 1334 1167T897 1321Q618 1321 462 1167T305 739ZM88 739Q88 1097 306 1307T899 1518Q1272 1518 1490 1308T1708 739Q1708 381 1490 171T897 -39Q524 -39 306 171T88 739ZM899 1819L725 1628H514L788 1933H1010L1284 1628H1073L899 1819Z"  />
<glyph unicode="&#xD5;" horiz-adv-x="1796" d="M305 739Q305 465 462 312T899 158Q1178 158 1334 312T1491 739Q1491 1013 1334 1167T897 1321Q618 1321 462 1167T305 739ZM88 739Q88 1097 306 1307T899 1518Q1272 1518 1490 1308T1708 739Q1708 381 1490 171T897 -39Q524 -39 306 171T88 739ZM506 1657Q510 1770 570 1838T725 1907Q755 1907 790 1898T866 1872L960 1833Q967 1830 981 1824Q1044 1796 1071 1796Q1109 1796 1131 1822T1163 1904H1290Q1286 1791 1227 1723T1073 1655Q1042 1655 1007 1663T930 1690L838 1728Q827 1733 809 1741Q752 1765 727 1765Q688 1765 665 1739T632 1657H506Z"  />
<glyph unicode="&#xD6;" horiz-adv-x="1796" d="M305 739Q305 465 462 312T899 158Q1178 158 1334 312T1491 739Q1491 1013 1334 1167T897 1321Q618 1321 462 1167T305 739ZM88 739Q88 1097 306 1307T899 1518Q1272 1518 1490 1308T1708 739Q1708 381 1490 171T897 -39Q524 -39 306 171T88 739ZM1239 1667H1040V1894H1239V1667ZM758 1667H559V1894H758V1667Z"  />
<glyph unicode="&#xD7;" horiz-adv-x="1706" d="M860 709L1329 1178L1427 1079L958 610L1427 141L1329 45L860 512L391 45L293 141L762 610L293 1079L391 1178L860 709Z"  />
<glyph unicode="&#xD8;" horiz-adv-x="1796" d="M420 362L1296 1200Q1230 1260 1130 1290T897 1321Q618 1321 462 1167T305 739Q305 624 335 527T420 362ZM1374 1118L498 283Q562 218 662 186T897 154Q1173 154 1332 310T1491 739Q1491 851 1462 946T1374 1118ZM270 213Q181 318 135 451T88 739Q88 1097 306 1307T899 1518Q1079 1518 1218 1474T1448 1343L1632 1522L1710 1444L1526 1266Q1615 1166 1661 1032T1708 739Q1708 381 1490 171T897 -39Q722 -39 586 4T348 135L166 -39L90 41L270 213Z"  />
<glyph unicode="&#xD9;" horiz-adv-x="1647" d="M1473 1479V551Q1473 262 1307 112T819 -39Q498 -39 332 111T166 551V1479H375V639Q375 394 483 278T819 162Q1048 162 1156 277T1264 639V1479H1473ZM819 1628L532 1933H782L964 1628H819Z"  />
<glyph unicode="&#xDA;" horiz-adv-x="1647" d="M1473 1479V551Q1473 262 1307 112T819 -39Q498 -39 332 111T166 551V1479H375V639Q375 394 483 278T819 162Q1048 162 1156 277T1264 639V1479H1473ZM680 1628L862 1933H1112L825 1628H680Z"  />
<glyph unicode="&#xDB;" horiz-adv-x="1647" d="M1473 1479V551Q1473 262 1307 112T819 -39Q498 -39 332 111T166 551V1479H375V639Q375 394 483 278T819 162Q1048 162 1156 277T1264 639V1479H1473ZM823 1819L649 1628H438L712 1933H934L1208 1628H997L823 1819Z"  />
<glyph unicode="&#xDC;" horiz-adv-x="1647" d="M1473 1479V551Q1473 262 1307 112T819 -39Q498 -39 332 111T166 551V1479H375V639Q375 394 483 278T819 162Q1048 162 1156 277T1264 639V1479H1473ZM1163 1667H964V1894H1163V1667ZM682 1667H483V1894H682V1667Z"  />
<glyph unicode="&#xDD;" horiz-adv-x="1464" d="M631 0V616L-31 1479H223L733 791L1247 1479H1497L840 616V0H631ZM590 1628L772 1933H1022L735 1628H590Z"  />
<glyph unicode="&#xDE;" horiz-adv-x="1460" d="M379 492H768Q1004 492 1095 549T1186 748Q1186 889 1098 947T782 1006H379V492ZM170 0V1479H379V1190H852Q1128 1190 1261 1083T1395 754Q1395 532 1262 425T852 317H379V0H170Z"  />
<glyph unicode="&#xDF;" horiz-adv-x="1311" d="M145 0V1024Q145 1251 270 1365T643 1479Q895 1479 1030 1384T1165 1114Q1165 998 1109 920T942 805Q1089 777 1162 684T1235 432Q1235 231 1095 103T733 -25Q690 -25 644 -19T547 0V166Q586 158 624 154T698 150Q855 150 942 226T1030 440Q1030 583 939 647T637 711H559V881H688Q823 881 893 935T963 1094Q963 1197 885 1253T664 1309Q484 1309 414 1235T344 956V0H145Z"  />
<glyph unicode="&#xE0;" horiz-adv-x="1374" d="M987 170Q913 74 795 24T526 -27Q324 -27 213 60T102 303Q102 388 141 454T260 569Q299 593 372 609T612 643Q641 646 696 652Q977 679 977 795Q977 882 910 921T692 961Q521 961 443 910T356 746L150 745Q160 938 292 1035T678 1133Q953 1133 1066 1051T1180 768V326Q1180 234 1201 199T1278 164Q1290 164 1304 165T1335 170V10Q1296 5 1257 3T1182 0Q1095 0 1049 40T987 170ZM981 563Q940 539 861 521T649 487Q435 463 377 426T319 311Q319 231 382 186T559 141Q741 141 861 216T981 399V563ZM682 1243L395 1548H645L827 1243H682Z"  />
<glyph unicode="&#xE1;" horiz-adv-x="1374" d="M987 170Q913 74 795 24T526 -27Q324 -27 213 60T102 303Q102 388 141 454T260 569Q299 593 372 609T612 643Q641 646 696 652Q977 679 977 795Q977 882 910 921T692 961Q521 961 443 910T356 746L150 745Q160 938 292 1035T678 1133Q953 1133 1066 1051T1180 768V326Q1180 234 1201 199T1278 164Q1290 164 1304 165T1335 170V10Q1296 5 1257 3T1182 0Q1095 0 1049 40T987 170ZM981 563Q940 539 861 521T649 487Q435 463 377 426T319 311Q319 231 382 186T559 141Q741 141 861 216T981 399V563ZM543 1243L725 1548H975L688 1243H543Z"  />
<glyph unicode="&#xE2;" horiz-adv-x="1374" d="M987 170Q913 74 795 24T526 -27Q324 -27 213 60T102 303Q102 388 141 454T260 569Q299 593 372 609T612 643Q641 646 696 652Q977 679 977 795Q977 882 910 921T692 961Q521 961 443 910T356 746L150 745Q160 938 292 1035T678 1133Q953 1133 1066 1051T1180 768V326Q1180 234 1201 199T1278 164Q1290 164 1304 165T1335 170V10Q1296 5 1257 3T1182 0Q1095 0 1049 40T987 170ZM981 563Q940 539 861 521T649 487Q435 463 377 426T319 311Q319 231 382 186T559 141Q741 141 861 216T981 399V563ZM686 1434L512 1243H301L575 1548H797L1071 1243H860L686 1434Z"  />
<glyph unicode="&#xE3;" horiz-adv-x="1374" d="M987 170Q913 74 795 24T526 -27Q324 -27 213 60T102 303Q102 388 141 454T260 569Q299 593 372 609T612 643Q641 646 696 652Q977 679 977 795Q977 882 910 921T692 961Q521 961 443 910T356 746L150 745Q160 938 292 1035T678 1133Q953 1133 1066 1051T1180 768V326Q1180 234 1201 199T1278 164Q1290 164 1304 165T1335 170V10Q1296 5 1257 3T1182 0Q1095 0 1049 40T987 170ZM981 563Q940 539 861 521T649 487Q435 463 377 426T319 311Q319 231 382 186T559 141Q741 141 861 216T981 399V563ZM293 1272Q297 1385 357 1453T512 1522Q542 1522 577 1513T653 1487L747 1448Q754 1445 768 1439Q831 1411 858 1411Q896 1411 918 1437T950 1519H1077Q1073 1406 1014 1338T860 1270Q829 1270 794 1278T717 1305L625 1343Q614 1348 596 1356Q539 1380 514 1380Q475 1380 452 1354T419 1272H293Z"  />
<glyph unicode="&#xE4;" horiz-adv-x="1374" d="M987 170Q913 74 795 24T526 -27Q324 -27 213 60T102 303Q102 388 141 454T260 569Q299 593 372 609T612 643Q641 646 696 652Q977 679 977 795Q977 882 910 921T692 961Q521 961 443 910T356 746L150 745Q160 938 292 1035T678 1133Q953 1133 1066 1051T1180 768V326Q1180 234 1201 199T1278 164Q1290 164 1304 165T1335 170V10Q1296 5 1257 3T1182 0Q1095 0 1049 40T987 170ZM981 563Q940 539 861 521T649 487Q435 463 377 426T319 311Q319 231 382 186T559 141Q741 141 861 216T981 399V563ZM1026 1282H827V1509H1026V1282ZM545 1282H346V1509H545V1282Z"  />
<glyph unicode="&#xE5;" horiz-adv-x="1374" d="M586 1405Q586 1360 616 1333T696 1305Q746 1305 777 1333T809 1405Q809 1450 779 1476T696 1503Q645 1503 616 1477T586 1405ZM459 1405Q459 1500 522 1555T696 1610Q808 1610 871 1556T934 1405Q934 1309 871 1255T696 1200Q585 1200 522 1254T459 1405ZM987 170Q913 74 795 24T526 -27Q324 -27 213 60T102 303Q102 388 141 454T260 569Q299 593 372 609T612 643Q641 646 696 652Q977 679 977 795Q977 882 910 921T692 961Q521 961 443 910T356 746L150 745Q160 938 292 1035T678 1133Q953 1133 1066 1051T1180 768V326Q1180 234 1201 199T1278 164Q1290 164 1304 165T1335 170V10Q1296 5 1257 3T1182 0Q1095 0 1049 40T987 170ZM981 563Q940 539 861 521T649 487Q435 463 377 426T319 311Q319 231 382 186T559 141Q741 141 861 216T981 399V563Z"  />
<glyph unicode="&#xE6;" horiz-adv-x="2269" d="M1196 649H1966Q1943 789 1841 868T1581 948Q1423 948 1318 867T1196 649ZM995 563Q955 539 876 521T664 487Q449 463 392 426T334 311Q334 232 396 189T573 145Q756 145 875 218T995 399V563ZM1075 205Q981 85 851 28T541 -29Q343 -29 231 59T119 301Q119 385 158 451T276 565Q319 591 394 607T627 639Q649 641 693 645Q993 674 993 793Q993 879 926 917T709 956Q538 956 459 905T373 742L166 741Q178 937 313 1035T707 1133Q879 1133 991 1090T1151 965Q1233 1052 1335 1092T1581 1133Q1713 1133 1815 1098T1997 991Q2086 911 2134 803T2183 575Q2183 556 2180 518Q2179 511 2179 508H1190V500Q1190 343 1299 244T1581 145Q1710 145 1802 197T1929 342H2161Q2102 162 1950 62T1581 -39Q1412 -39 1288 20T1075 205Z"  />
<glyph unicode="&#xE7;" horiz-adv-x="1313" d="M1008 733Q978 834 893 891T688 948Q500 948 391 840T281 547Q281 366 389 257T674 147Q809 147 901 218T1014 410H1223Q1187 201 1038 81T666 -39Q403 -39 239 124T74 547Q74 808 239 970T670 1133Q885 1133 1032 1025T1214 733H1008ZM383 -403L422 -317Q484 -336 531 -345T614 -354Q675 -354 706 -335T737 -276Q737 -241 715 -222T649 -203Q628 -203 608 -207T569 -219L524 -184L627 0H713L641 -127Q662 -120 681 -117T717 -113Q806 -113 857 -157T909 -279Q909 -365 848 -410T670 -455Q598 -455 527 -442T383 -403Z"  />
<glyph unicode="&#xE8;" horiz-adv-x="1374" d="M301 649H1073Q1050 789 948 868T688 948Q532 948 429 869T301 649ZM295 508V500Q295 344 404 246T688 147Q818 147 910 199T1036 342H1268Q1209 162 1057 62T688 -39Q414 -39 250 120T86 547Q86 814 250 973T688 1133Q968 1133 1127 977T1286 547V508H295ZM715 1243L428 1548H678L860 1243H715Z"  />
<glyph unicode="&#xE9;" horiz-adv-x="1374" d="M301 649H1073Q1050 789 948 868T688 948Q532 948 429 869T301 649ZM295 508V500Q295 344 404 246T688 147Q818 147 910 199T1036 342H1268Q1209 162 1057 62T688 -39Q414 -39 250 120T86 547Q86 814 250 973T688 1133Q968 1133 1127 977T1286 547V508H295ZM576 1243L758 1548H1008L721 1243H576Z"  />
<glyph unicode="&#xEA;" horiz-adv-x="1374" d="M301 649H1073Q1050 789 948 868T688 948Q532 948 429 869T301 649ZM295 508V500Q295 344 404 246T688 147Q818 147 910 199T1036 342H1268Q1209 162 1057 62T688 -39Q414 -39 250 120T86 547Q86 814 250 973T688 1133Q968 1133 1127 977T1286 547V508H295ZM719 1434L545 1243H334L608 1548H830L1104 1243H893L719 1434Z"  />
<glyph unicode="&#xEB;" horiz-adv-x="1374" d="M301 649H1073Q1050 789 948 868T688 948Q532 948 429 869T301 649ZM295 508V500Q295 344 404 246T688 147Q818 147 910 199T1036 342H1268Q1209 162 1057 62T688 -39Q414 -39 250 120T86 547Q86 814 250 973T688 1133Q968 1133 1127 977T1286 547V508H295ZM1059 1282H860V1509H1059V1282ZM578 1282H379V1509H578V1282Z"  />
<glyph unicode="&#xEC;" horiz-adv-x="516" d="M160 0V1096H358V0H160ZM255 1243L-32 1548H218L400 1243H255Z"  />
<glyph unicode="&#xED;" horiz-adv-x="516" d="M160 0V1096H358V0H160ZM116 1243L298 1548H548L261 1243H116Z"  />
<glyph unicode="&#xEE;" horiz-adv-x="516" d="M160 0V1096H358V0H160ZM259 1434L85 1243H-126L148 1548H370L644 1243H433L259 1434Z"  />
<glyph unicode="&#xEF;" horiz-adv-x="516" d="M160 0V1096H358V0H160ZM599 1282H400V1509H599V1282ZM118 1282H-81V1509H118V1282Z"  />
<glyph unicode="&#xF0;" horiz-adv-x="1374" d="M920 989Q884 1046 841 1103T745 1219L367 1069L328 1167L666 1307Q641 1334 611 1362T543 1423L653 1536Q699 1500 745 1459T842 1366L1116 1479L1157 1376L922 1284Q1118 1059 1209 870T1300 500Q1300 254 1135 108T688 -39Q407 -39 241 107T74 500Q74 738 235 883T662 1028Q731 1028 795 1019T920 989ZM281 500Q281 336 390 242T688 147Q877 147 985 241T1094 500Q1094 664 985 759T688 854Q500 854 391 759T281 500Z"  />
<glyph unicode="&#xF1;" horiz-adv-x="1352" d="M145 0V1096H342V907Q432 1017 544 1070T795 1124Q903 1124 986 1093T1124 999Q1171 945 1190 870T1210 629V0H1012V637Q1012 811 952 883T750 956Q570 956 457 846T344 557V0H145ZM283 1272Q287 1385 347 1453T502 1522Q532 1522 567 1513T643 1487L737 1448Q744 1445 758 1439Q821 1411 848 1411Q886 1411 908 1437T940 1519H1067Q1063 1406 1004 1338T850 1270Q819 1270 784 1278T707 1305L615 1343Q604 1348 586 1356Q529 1380 504 1380Q465 1380 442 1354T409 1272H283Z"  />
<glyph unicode="&#xF2;" horiz-adv-x="1374" d="M281 547Q281 362 390 255T688 147Q876 147 985 254T1094 547Q1094 733 985 840T688 948Q500 948 391 840T281 547ZM74 547Q74 813 241 973T688 1133Q968 1133 1134 974T1300 547Q1300 280 1134 121T688 -39Q408 -39 241 120T74 547ZM684 1243L397 1548H647L829 1243H684Z"  />
<glyph unicode="&#xF3;" horiz-adv-x="1374" d="M281 547Q281 362 390 255T688 147Q876 147 985 254T1094 547Q1094 733 985 840T688 948Q500 948 391 840T281 547ZM74 547Q74 813 241 973T688 1133Q968 1133 1134 974T1300 547Q1300 280 1134 121T688 -39Q408 -39 241 120T74 547ZM545 1243L727 1548H977L690 1243H545Z"  />
<glyph unicode="&#xF4;" horiz-adv-x="1374" d="M281 547Q281 362 390 255T688 147Q876 147 985 254T1094 547Q1094 733 985 840T688 948Q500 948 391 840T281 547ZM74 547Q74 813 241 973T688 1133Q968 1133 1134 974T1300 547Q1300 280 1134 121T688 -39Q408 -39 241 120T74 547ZM688 1434L514 1243H303L577 1548H799L1073 1243H862L688 1434Z"  />
<glyph unicode="&#xF5;" horiz-adv-x="1374" d="M281 547Q281 362 390 255T688 147Q876 147 985 254T1094 547Q1094 733 985 840T688 948Q500 948 391 840T281 547ZM74 547Q74 813 241 973T688 1133Q968 1133 1134 974T1300 547Q1300 280 1134 121T688 -39Q408 -39 241 120T74 547ZM295 1272Q299 1385 359 1453T514 1522Q544 1522 579 1513T655 1487L749 1448Q756 1445 770 1439Q833 1411 860 1411Q898 1411 920 1437T952 1519H1079Q1075 1406 1016 1338T862 1270Q831 1270 796 1278T719 1305L627 1343Q616 1348 598 1356Q541 1380 516 1380Q477 1380 454 1354T421 1272H295Z"  />
<glyph unicode="&#xF6;" horiz-adv-x="1374" d="M281 547Q281 362 390 255T688 147Q876 147 985 254T1094 547Q1094 733 985 840T688 948Q500 948 391 840T281 547ZM74 547Q74 813 241 973T688 1133Q968 1133 1134 974T1300 547Q1300 280 1134 121T688 -39Q408 -39 241 120T74 547ZM1028 1282H829V1509H1028V1282ZM547 1282H348V1509H547V1282Z"  />
<glyph unicode="&#xF7;" horiz-adv-x="1706" d="M854 367Q905 367 942 330T979 242Q979 190 943 154T854 117Q801 117 765 153T729 242Q729 293 766 330T854 367ZM1452 680V541H254V680H1452ZM854 1106Q905 1106 942 1069T979 979Q979 928 943 891T854 854Q802 854 766 890T729 979Q729 1031 766 1068T854 1106Z"  />
<glyph unicode="&#xF8;" horiz-adv-x="1374" d="M342 313L950 872Q899 910 833 929T688 948Q500 948 390 838T279 541Q279 478 294 422T342 313ZM1026 788L418 231Q467 190 536 169T688 147Q876 147 986 256T1096 553Q1096 618 1079 676T1026 788ZM195 174Q135 244 105 339T74 547Q74 813 241 973T688 1133Q818 1133 919 1102T1096 1008L1253 1153L1329 1073L1174 930Q1235 857 1267 759T1300 547Q1300 280 1134 121T688 -39Q560 -39 457 -6T272 96L125 -43L51 41L195 174Z"  />
<glyph unicode="&#xF9;" horiz-adv-x="1352" d="M1210 1096V0H1014V186Q923 76 812 23T561 -31Q454 -31 370 1T231 96Q185 150 165 225T145 467V1096H344V459Q344 285 404 212T606 139Q786 139 899 249T1012 539V1096H1210ZM672 1243L385 1548H635L817 1243H672Z"  />
<glyph unicode="&#xFA;" horiz-adv-x="1352" d="M1210 1096V0H1014V186Q923 76 812 23T561 -31Q454 -31 370 1T231 96Q185 150 165 225T145 467V1096H344V459Q344 285 404 212T606 139Q786 139 899 249T1012 539V1096H1210ZM533 1243L715 1548H965L678 1243H533Z"  />
<glyph unicode="&#xFB;" horiz-adv-x="1352" d="M1210 1096V0H1014V186Q923 76 812 23T561 -31Q454 -31 370 1T231 96Q185 150 165 225T145 467V1096H344V459Q344 285 404 212T606 139Q786 139 899 249T1012 539V1096H1210ZM676 1434L502 1243H291L565 1548H787L1061 1243H850L676 1434Z"  />
<glyph unicode="&#xFC;" horiz-adv-x="1352" d="M1210 1096V0H1014V186Q923 76 812 23T561 -31Q454 -31 370 1T231 96Q185 150 165 225T145 467V1096H344V459Q344 285 404 212T606 139Q786 139 899 249T1012 539V1096H1210ZM1016 1282H817V1509H1016V1282ZM535 1282H336V1509H535V1282Z"  />
<glyph unicode="&#xFD;" horiz-adv-x="1165" d="M700 8Q634 -143 587 -219T496 -328Q454 -358 393 -373T252 -389Q225 -389 190 -387T115 -381V-195Q155 -201 183 -204T231 -207Q337 -207 390 -163T477 0L-20 1096H217L590 172L954 1096H1186L700 8ZM441 1243L623 1548H873L586 1243H441Z"  />
<glyph unicode="&#xFE;" horiz-adv-x="1434" d="M348 547Q348 364 456 259T750 154Q936 154 1043 258T1151 547Q1151 730 1044 835T750 940Q564 940 456 835T348 547ZM150 -389V1479H348V934Q434 1030 537 1076T772 1122Q1033 1122 1196 962T1360 547Q1360 291 1196 132T770 -27Q638 -27 536 19T348 162V-389H150Z"  />
<glyph unicode="&#xFF;" horiz-adv-x="1165" d="M700 8Q634 -143 587 -219T496 -328Q454 -358 393 -373T252 -389Q225 -389 190 -387T115 -381V-195Q155 -201 183 -204T231 -207Q337 -207 390 -163T477 0L-20 1096H217L590 172L954 1096H1186L700 8ZM924 1282H725V1509H924V1282ZM443 1282H244V1509H443V1282Z"  />
<glyph unicode="&#x131;" horiz-adv-x="516" d="M160 0V1096H358V0H160Z"  />
<glyph unicode="&#x152;" horiz-adv-x="2595" d="M1315 1479H2484V1290H1518V854H2425V653H1518V199H2499V0H1315V170Q1259 70 1135 16T840 -39Q496 -39 292 172T88 739Q88 1088 293 1303T834 1518Q1004 1518 1123 1466T1315 1309V1479ZM1315 422V1057Q1247 1187 1137 1253T877 1319Q612 1319 459 1164T305 739Q305 471 458 316T877 160Q1027 160 1137 225T1315 422Z"  />
<glyph unicode="&#x153;" horiz-adv-x="2372" d="M1292 508V500Q1292 343 1401 245T1683 147Q1813 147 1905 199T2032 342H2263Q2204 162 2052 62T1683 -39Q1514 -39 1387 20T1190 190Q1112 77 986 19T688 -39Q408 -39 241 120T74 547Q74 813 241 973T688 1133Q861 1133 984 1077T1192 905Q1269 1018 1393 1075T1683 1133Q1815 1133 1917 1098T2099 991Q2188 911 2237 803T2286 575Q2286 557 2282 517Q2282 511 2281 508H1292ZM1298 649H2068Q2045 789 1943 868T1683 948Q1527 948 1425 869T1298 649ZM281 547Q281 362 390 255T688 147Q876 147 985 254T1094 547Q1094 733 985 840T688 948Q500 948 391 840T281 547Z"  />
<glyph unicode="&#x160;" horiz-adv-x="1518" d="M104 500H325Q331 325 445 241T789 156Q985 156 1092 221T1199 406Q1199 493 1141 541T945 614L579 680Q356 719 254 813T151 1071Q151 1285 313 1401T775 1518Q1058 1518 1210 1397T1365 1049H1156Q1145 1190 1049 1257T759 1325Q571 1325 472 1265T372 1090Q372 1007 428 963T634 889L959 825Q1215 776 1316 686T1418 424Q1418 204 1251 83T777 -39Q447 -39 278 96T104 500ZM760 1743L934 1933H1145L871 1628H649L375 1933H586L760 1743Z"  />
<glyph unicode="&#x161;" horiz-adv-x="1210" d="M63 356H281Q295 251 378 194T602 137Q764 137 854 181T944 303Q944 360 902 389T745 438L500 481Q274 519 195 585T115 782Q115 954 240 1043T608 1133Q851 1133 979 1041T1108 774V766H915Q905 867 827 916T598 965Q460 965 388 927T315 817Q315 754 359 723T561 664L799 625Q996 592 1072 523T1149 315Q1149 145 1008 53T602 -39Q347 -39 215 58T63 356ZM606 1358L780 1548H991L717 1243H495L221 1548H432L606 1358Z"  />
<glyph unicode="&#x178;" horiz-adv-x="1464" d="M631 0V616L-31 1479H223L733 791L1247 1479H1497L840 616V0H631ZM1073 1667H874V1894H1073V1667ZM592 1667H393V1894H592V1667Z"  />
<glyph unicode="&#x17D;" horiz-adv-x="1413" d="M35 0V205L1098 1290H102V1479H1360V1272L311 205H1378V0H35ZM707 1743L881 1933H1092L818 1628H596L322 1933H533L707 1743Z"  />
<glyph unicode="&#x17E;" horiz-adv-x="1214" d="M66 0V197L881 922H109V1096H1128V922L328 176H1149V0H66ZM608 1358L782 1548H993L719 1243H497L223 1548H434L608 1358Z"  />
<glyph unicode="&#x192;" horiz-adv-x="1366" d="M569 639H348L375 778H596L670 1145Q711 1345 778 1413T989 1481Q1024 1481 1065 1477T1157 1462L1122 1282Q1073 1290 1046 1293T999 1296Q945 1296 918 1271T879 1178L801 778H1038L1012 639H772L631 -76Q592 -274 523 -344T311 -414Q281 -414 241 -409T144 -393L178 -215Q215 -221 245 -224T301 -227Q356 -227 382 -202T422 -109L569 639Z"  />
<glyph unicode="&#x2C6;" horiz-adv-x="1024" d="M512 1434L338 1243H127L401 1548H623L897 1243H686L512 1434Z"  />
<glyph unicode="&#x2C7;" horiz-adv-x="1024" d="M512 1358L686 1548H897L623 1243H401L127 1548H338L512 1358Z"  />
<glyph unicode="&#x2DC;" horiz-adv-x="1024" d="M119 1272Q123 1385 183 1453T338 1522Q368 1522 403 1513T479 1487L573 1448Q580 1445 594 1439Q657 1411 684 1411Q722 1411 744 1437T776 1519H903Q899 1406 840 1338T686 1270Q655 1270 620 1278T543 1305L451 1343Q440 1348 422 1356Q365 1380 340 1380Q301 1380 278 1354T245 1272H119Z"  />
<glyph unicode="&#x2013;" horiz-adv-x="1024" d="M0 481V612H1024V481H0Z"  />
<glyph unicode="&#x2014;" horiz-adv-x="2048" d="M2048 612V481H0V612H2048Z"  />
<glyph unicode="&#x2018;" horiz-adv-x="616" d="M438 1178V932H193V1178Q193 1318 247 1393T438 1518V1384Q375 1360 346 1319T317 1208Q317 1204 318 1194T319 1178H438Z"  />
<glyph unicode="&#x2019;" horiz-adv-x="616" d="M178 1233V1479H424V1233Q424 1093 369 1018T178 893V1026Q242 1050 270 1092T299 1202Q299 1206 298 1217T297 1233H178Z"  />
<glyph unicode="&#x201A;" horiz-adv-x="616" d="M178 0V246H424V0Q424 -140 369 -215T178 -340V-207Q242 -182 270 -141T299 -31Q299 -26 298 -16T297 0H178Z"  />
<glyph unicode="&#x201C;" horiz-adv-x="1010" d="M838 1178V932H590V1178Q590 1317 645 1392T838 1518V1384Q774 1360 746 1319T717 1208Q717 1204 718 1194T719 1178H838ZM438 1178V932H193V1178Q193 1318 247 1393T438 1518V1384Q375 1360 346 1319T317 1208Q317 1204 318 1194T319 1178H438Z"  />
<glyph unicode="&#x201D;" horiz-adv-x="1010" d="M571 1233V1479H817V1233Q817 1093 763 1018T571 893V1026Q635 1050 663 1092T692 1202Q692 1206 691 1217T690 1233H571ZM178 1233V1479H424V1233Q424 1093 369 1018T178 893V1026Q242 1050 270 1092T299 1202Q299 1206 298 1217T297 1233H178Z"  />
<glyph unicode="&#x201E;" horiz-adv-x="1010" d="M571 0V246H817V0Q817 -140 763 -215T571 -340V-207Q636 -182 664 -141T692 -31Q692 -25 691 -15T690 0H571ZM178 0V246H424V0Q424 -140 369 -215T178 -340V-207Q242 -182 270 -141T299 -31Q299 -26 298 -16T297 0H178Z"  />
<glyph unicode="&#x2020;" horiz-adv-x="1360" d="M584 829H121V1010H584V1479H778V1010H1239V829H778V-379H584V829Z"  />
<glyph unicode="&#x2021;" horiz-adv-x="1360" d="M586 860H121V1044H586V1479H774V1044H1239V860H774V240H1239V55H774V-379H586V55H121V240H586V860Z"  />
<glyph unicode="&#x2022;" horiz-adv-x="1208" d="M307 762Q307 885 394 971T604 1057Q726 1057 812 971T899 762Q899 640 812 553T602 465Q479 465 393 552T307 762Z"  />
<glyph unicode="&#x2026;" horiz-adv-x="2048" d="M217 0V246H465V0H217ZM899 0V246H1147V0H899ZM1583 0V246H1831V0H1583Z"  />
<glyph unicode="&#x2030;" horiz-adv-x="2589" d="M1939 354Q1939 220 1991 152T2146 84Q2250 84 2302 152T2355 354Q2355 488 2303 556T2146 625Q2044 625 1992 557T1939 354ZM1792 354Q1792 545 1883 646T2146 748Q2318 748 2410 647T2503 354Q2503 164 2411 63T2146 -39Q1974 -39 1883 62T1792 354ZM1108 354Q1108 221 1161 153T1317 84Q1420 84 1472 151T1524 354Q1524 489 1472 557T1317 625Q1214 625 1161 557T1108 354ZM961 354Q961 545 1053 646T1317 748Q1489 748 1581 647T1673 354Q1673 164 1581 63T1317 -39Q1145 -39 1053 62T961 354ZM338 -39L1270 1479H1419L487 -39H338ZM233 1087Q233 953 285 885T440 817Q544 817 596 885T649 1087Q649 1221 597 1288T440 1356Q337 1356 285 1289T233 1087ZM86 1087Q86 1278 177 1378T440 1479Q613 1479 705 1378T797 1087Q797 897 705 796T440 694Q268 694 177 795T86 1087Z"  />
<glyph unicode="&#x2039;" horiz-adv-x="664" d="M143 668L512 950V733L272 547L512 362V145L143 428V668Z"  />
<glyph unicode="&#x203A;" horiz-adv-x="664" d="M520 428L152 145V362L391 547L152 733V950L520 668V428Z"  />
<glyph unicode="&#x20AC;" horiz-adv-x="657" d="M31 452H97Q108 515 132 566T193 653T274 709T374 729Q425 729 466 714T538 671T588 606T614 523H520Q508 581 472 614T373 647Q298 647 255 595T197 452H400V395H191Q190 385 190 375T190 355Q190 344 190 334T191 314H400V257H198Q214 163 261 115T381 67Q450 67 488 112T534 226H624Q622 176 605 132T556 56T480 4T382 -15Q328 -15 281 3T197 56T134 141T97 257H31V314H90Q89 324 89 334T89 355Q89 365 89 375T90 395H31V452Z"  />
<glyph unicode="&#x2122;" horiz-adv-x="1706" d="M963 1458L1114 1073L1255 1458H1405V920H1307V1364L1141 920H1085L911 1364V920H813V1458H963ZM694 1458V1378H522V920H414V1378H242V1458H694Z"  />

</font>
</defs>
</svg>
