<?xml  version="1.0" encoding="UTF-8"?>
<!DOCTYPE svg PUBLIC "-//W3C//DTD SVG 1.0//EN" "http://www.w3.org/TR/2001/REC-SVG-20010904/DTD/svg10.dtd" >
<svg xmlns="http://www.w3.org/2000/svg" >
<metadata>
<version>1.0</version>
<id><![CDATA[Univers LT W01 39 Thin Ultra Cn]]></id>
<vendor>Monotype Imaging Inc.</vendor>
<credits>
<name>Fonts.com WebFonts</name>
<URL>http://webfonts.fonts.com</URL>
<role>Home of the Web fonts</role>
</credits>
<license>
<URL>http://webfonts.fonts.com/Legal</URL>
</license>
<copyright><![CDATA[Copyright © 2009 Linotype Corp., www.linotype.com. All rights reserved. This font software may not be reproduced, modified, disclosed or transferred without the express written approval of Linotype Corp. Univers is a trademark of Linotype Corp. registered in the U.S. Patent and Trademark Office and may be registered in certain other jurisdictions in the name of Linotype Corp. or its licensee Linotype GmbH. This typeface is original artwork of Adrian Frutiger. The design may be protected in certain jurisdictions.]]></copyright>
<trademark><![CDATA[Univers is a trademark of Linotype Corp. registered in the U.S. Patent and Trademark Office and may be registered in certain other jurisdictions in the name of Linotype Corp. or its licensee Linotype GmbH.]]></trademark>
<licensee>
<name></name>
</licensee>
</metadata>
<defs >
<font horiz-adv-x="227" id="37f470a6-d151-4f0c-81aa-b715fdb67e7b">
<font-face font-family="" panose-1="2 11 2 8 3 7 2 6 2 4" ascent="863" descent="-214" units-per-em="1000" alphabetic="0">
</font-face>
<missing-glyph horiz-adv-x="0" />

<glyph unicode="&#xA;" />
<glyph unicode="&#xD;" horiz-adv-x="0" />
<glyph unicode=" " horiz-adv-x="112" />
<glyph unicode="!" horiz-adv-x="167" d="M98 166H70L58 722H110L98 166ZM62 0V52H106V0H62Z"  />
<glyph unicode="&quot;" horiz-adv-x="167" d="M141 545H116L111 722H145L141 545ZM52 545H27L22 722H56L52 545Z"  />
<glyph unicode="#" horiz-adv-x="224" d="M182 454L157 268H206V238H153L122 0H92L123 238H68L37 0H7L38 238H-10V268H42L67 454H18V484H71L102 722H132L101 484H156L187 722H217L186 484H234V454H182ZM97 454L72 268H127L152 454H97Z"  />
<glyph unicode="$" horiz-adv-x="224" d="M197 60Q197 30 181 16T125 -4V-85H95V-4Q56 1 42 15T27 63V201H63V73Q63 47 74 37T114 26Q161 26 161 73V196Q161 226 156 247T140 289L51 447Q40 467 34 493T27 546V663Q27 717 95 726V806H125V726Q163 724 180 709T197 661V530H161V649Q161 675 150 685T110 696Q63 696 63 649V541Q63 501 79 472L167 315Q181 290 189 261T197 206V60H197Z"  />
<glyph unicode="%" horiz-adv-x="278" d="M105 388Q105 348 59 348Q15 348 15 388V686Q15 726 61 726Q81 726 93 715T105 686V388ZM85 -35H57L192 757H220L85 -35ZM263 36Q263 -4 217 -4Q173 -4 173 36V334Q173 374 219 374Q239 374 251 363T263 334V36ZM79 683Q79 704 60 704Q41 704 41 683V391Q41 370 60 370Q79 370 79 391V683ZM237 331Q237 352 218 352Q199 352 199 331V39Q199 18 218 18Q237 18 237 39V331Z"  />
<glyph unicode="&amp;" horiz-adv-x="241" d="M214 0L195 62Q190 76 188 88T184 111H182V88Q182 -4 101 -4Q58 -4 40 24T22 121V251Q22 278 25 301T36 339L74 420L47 508Q36 544 36 599V655Q36 688 53 707T102 726Q133 726 150 709T168 662V594Q168 576 166 551T155 509L109 412L155 267Q163 243 165 223T170 171H172V420H202V272Q202 243 201 213T198 154L244 0H214ZM132 657Q132 675 124 685T101 696Q88 696 80 686T72 659V567Q72 551 73 537T80 509L96 455L119 506Q125 519 128 538T132 577V657ZM160 139L88 378L73 348Q66 335 62 312T58 266V111Q58 66 69 46T105 26Q160 26 160 114V139Z"  />
<glyph unicode="&apos;" horiz-adv-x="112" d="M69 545H44L39 722H73L69 545Z"  />
<glyph unicode="(" horiz-adv-x="130" d="M84 -156Q76 -119 71 -92T62 -41T55 6T48 60Q36 174 36 283Q36 392 48 506Q51 536 54 559T61 607T70 658T84 722H110Q105 695 102 676T97 639T93 605T89 567Q82 499 79 430T76 283Q76 131 88 -1Q90 -22 92 -38T96 -72T101 -109T110 -156H84Z"  />
<glyph unicode=")" horiz-adv-x="130" d="M94 283Q94 174 82 60Q79 31 76 7T69 -41T60 -92T46 -156H20Q24 -129 27 -109T33 -72T37 -39T41 -1Q48 66 51 136T54 283Q54 359 52 430T42 567Q40 588 38 604T34 638T29 675T20 722H46Q54 685 59 658T68 606T75 559T82 506Q94 392 94 283Z"  />
<glyph unicode="*" horiz-adv-x="222" d="M126 621L174 553L144 536L110 612L77 536L47 553L96 621L12 612V647L96 638L47 707L77 722L110 647L144 722L174 707L126 638L210 647V612L126 621Z"  />
<glyph unicode="+" horiz-adv-x="600" d="M315 238V0H285V238H47V268H285V506H315V268H553V238H315Z"  />
<glyph unicode="&#x2c;" horiz-adv-x="112" d="M54 -78H24L44 52H88L54 -78Z"  />
<glyph unicode="-" horiz-adv-x="111" d="M9 238V264H102V238H9Z"  />
<glyph unicode="." horiz-adv-x="112" d="M34 0V52H78V0H34Z"  />
<glyph unicode="/" horiz-adv-x="204" d="M44 -65H14L160 787H190L44 -65Z"  />
<glyph unicode="0" horiz-adv-x="224" d="M190 65Q190 -4 110 -4Q73 -4 54 14T34 65V661Q34 692 54 709T112 726Q150 726 170 708T190 657V65ZM154 652Q154 696 112 696Q70 696 70 652V70Q70 26 113 26Q154 26 154 70V652Z"  />
<glyph unicode="1" horiz-adv-x="224" d="M103 0V662H101L60 594V648L109 722H139V0H103Z"  />
<glyph unicode="2" horiz-adv-x="224" d="M34 0V46L138 459Q143 478 145 496T147 537V652Q147 696 109 696Q89 696 82 684T74 642V550H38V647Q38 726 110 726Q183 726 183 650V541Q183 509 181 486T170 435L64 30H190V0H34Z"  />
<glyph unicode="3" horiz-adv-x="224" d="M190 65Q190 -4 110 -4Q74 -4 54 14T34 65V182H70V70Q70 26 111 26Q154 26 154 70V302Q154 333 144 343T103 354H90V384H101Q128 384 138 397T149 443V652Q149 696 109 696Q73 696 73 652V552H37V658Q37 726 112 726Q185 726 185 657V432Q185 406 175 393T140 371V369Q167 364 178 349T190 302V65H190Z"  />
<glyph unicode="4" horiz-adv-x="224" d="M171 193V0H135V193H21V242L115 722H171V223H213V193H171ZM135 692H133Q129 661 126 639T118 589L51 223H135V692Z"  />
<glyph unicode="5" horiz-adv-x="224" d="M190 80Q190 -4 111 -4Q34 -4 34 86V183H70V75Q70 26 113 26Q154 26 154 82V403Q154 450 119 450Q103 450 94 442T79 423T72 397T70 371V321H34V722H177V692H70V443Q78 463 91 471T126 480Q190 480 190 406V80H190Z"  />
<glyph unicode="6" horiz-adv-x="224" d="M190 65Q190 32 170 14T111 -4Q73 -4 54 14T34 65V657Q34 690 53 708T111 726Q148 726 167 708T187 657V534H151V652Q151 696 111 696Q70 696 70 652V440H72Q84 473 127 473Q190 473 190 399V65ZM154 397Q154 419 144 431T115 443Q96 443 83 427T70 387V70Q70 49 82 38T115 26Q154 26 154 70V397Z"  />
<glyph unicode="7" horiz-adv-x="224" d="M106 0H66L154 692H34V722H190V689L106 0Z"  />
<glyph unicode="8" horiz-adv-x="224" d="M190 65Q190 32 169 14T110 -4Q73 -4 54 14T34 65V340Q34 390 77 397V399Q40 406 40 460V661Q40 726 113 726Q184 726 184 661V460Q184 431 176 417T147 399V397Q190 390 190 340V65ZM148 659Q148 679 140 687T111 696Q76 696 76 659V450Q76 413 113 413Q148 413 148 450V659ZM154 339Q154 363 144 373T110 383Q88 383 79 373T70 339V70Q70 46 79 36T112 26Q135 26 144 36T154 70V339Z"  />
<glyph unicode="9" horiz-adv-x="224" d="M190 65Q190 32 171 14T113 -4Q76 -4 57 14T37 65V188H73V70Q73 26 113 26Q154 26 154 70V282H152Q141 249 97 249Q34 249 34 323V657Q34 690 54 708T113 726Q150 726 170 708T190 657V65ZM154 652Q154 672 142 684T109 696Q70 696 70 652V325Q70 279 108 279Q128 279 141 295T154 335V652Z"  />
<glyph unicode=":" horiz-adv-x="112" d="M34 450V502H78V450H34ZM34 0V52H78V0H34Z"  />
<glyph unicode=";" horiz-adv-x="112" d="M44 450V502H88V450H44ZM54 -78H24L44 52H88L54 -78Z"  />
<glyph unicode="&lt;" horiz-adv-x="600" d="M47 243V273L553 518V488L77 258L553 26V-4L47 243Z"  />
<glyph unicode="=" horiz-adv-x="600" d="M47 335V365H553V335H47ZM47 141V171H553V141H47Z"  />
<glyph unicode="&gt;" horiz-adv-x="600" d="M47 -4V26L523 258L47 488V518L553 273V243L47 -4Z"  />
<glyph unicode="?" horiz-adv-x="222" d="M190 545Q190 495 170 435L152 381Q147 367 144 357T139 338Q135 327 134 312T132 282V166H96V306Q96 328 102 352T125 419Q141 461 147 487T154 532V652Q154 696 116 696Q97 696 89 686T81 651V554H45V654Q45 726 119 726Q157 726 173 707T190 641V545ZM94 0V52H138V0H94Z"  />
<glyph unicode="@" horiz-adv-x="800" d="M430 -82Q343 -82 269 -55T139 22T53 144T21 308Q21 402 54 479T144 611T278 696T442 726Q517 726 579 707T685 648T754 551T779 414Q779 360 762 309T715 217T646 153T561 129Q522 129 498 149T467 201Q447 169 416 149T350 129Q320 129 300 139T269 166T252 206T247 254Q247 281 251 310T264 369T283 424T308 471Q326 497 354 514T420 531Q445 531 470 521T509 480L520 527H558L502 269Q497 246 497 230Q497 194 517 178T566 162Q600 162 631 184T688 241T728 322T743 414Q743 484 721 536T659 623T564 675T441 692Q361 692 291 664T169 585T87 464T57 308Q57 223 86 157T166 46T285 -24T430 -48Q514 -48 581 -26T717 40L735 10Q663 -37 591 -59T430 -82ZM355 162Q384 162 405 179T440 223T464 282T479 346V352Q483 372 485 389T488 420Q488 452 475 475T423 498Q393 498 373 484T338 447Q327 429 318 406T303 358T293 305T289 254Q289 237 292 221T302 191T322 170T355 162Z"  />
<glyph unicode="A" horiz-adv-x="204" d="M172 0L149 211H50L28 0H-8L73 722H129L212 0H172ZM121 478Q120 490 119 496T118 509T116 526T113 557T108 610T101 696H99Q94 641 90 587T80 478L54 241H146L121 478Z"  />
<glyph unicode="B" horiz-adv-x="241" d="M208 77Q208 40 188 20T130 0H33V722H119Q203 722 203 645V435Q203 380 140 374V372Q177 369 192 354T208 305V77ZM163 647Q163 673 153 682T114 692H73V386H116Q163 386 163 437V647ZM168 304Q168 356 116 356H73V30H114Q143 30 155 40T168 74V304Z"  />
<glyph unicode="C" horiz-adv-x="204" d="M185 74Q185 -4 103 -4Q63 -4 41 16T19 74V648Q19 685 41 705T104 726Q143 726 164 706T185 648V529H145V642Q145 696 103 696Q83 696 71 684T59 651V71Q59 50 71 38T105 26Q127 26 136 38T145 80V203H185V74H185Z"  />
<glyph unicode="D" horiz-adv-x="241" d="M208 77Q208 0 118 0H33V722H118Q208 722 208 645V77ZM168 648Q168 692 114 692H73V30H114Q168 30 168 74V648Z"  />
<glyph unicode="E" horiz-adv-x="185" d="M33 0V722H170V692H73V386H164V356H73V30H177V0H33Z"  />
<glyph unicode="F" horiz-adv-x="167" d="M73 692V386H166V356H73V0H33V722H170V692H73Z"  />
<glyph unicode="G" horiz-adv-x="241" d="M208 18Q188 6 166 1T121 -4Q79 -4 56 16T33 74V648Q33 686 56 706T121 726Q163 726 185 706T208 648V531H168V643Q168 666 155 681T121 696Q100 696 87 681T73 643V71Q73 51 86 39T122 26Q145 26 168 38V318H128V348H208V18H208Z"  />
<glyph unicode="H" horiz-adv-x="241" d="M168 0V356H73V0H33V722H73V386H168V722H208V0H168Z"  />
<glyph unicode="I" horiz-adv-x="112" d="M36 0V722H76V0H36Z"  />
<glyph unicode="J" horiz-adv-x="185" d="M152 70Q152 36 132 16T77 -4Q43 -4 23 16T2 70V193H42V71Q42 47 50 37T78 26Q96 26 104 36T112 71V722H152V70H152Z"  />
<glyph unicode="K" horiz-adv-x="204" d="M178 0L73 382L172 722H208L109 382L218 0H178ZM33 0V722H73V0H33Z"  />
<glyph unicode="L" horiz-adv-x="185" d="M33 0V722H73V30H178V0H33Z"  />
<glyph unicode="M" horiz-adv-x="333" d="M257 0V448Q257 509 258 570T261 692H259L231 406L191 0H141L100 402Q98 424 95 450T89 510T82 589T74 692H72Q73 631 74 565T76 438V0H36V722H102L146 287Q160 157 164 30H166Q170 95 174 159T185 287L231 722H297V0H257Z"  />
<glyph unicode="N" horiz-adv-x="259" d="M166 0L96 460L73 646L68 692H66Q68 642 68 606T71 544Q72 521 72 506T73 482V0H33V722H93L194 30H196L194 70L186 262V722H226V0H166Z"  />
<glyph unicode="O" horiz-adv-x="241" d="M208 74Q208 36 186 16T121 -4Q79 -4 56 16T33 74V648Q33 686 56 706T122 726Q164 726 186 706T208 648V74ZM168 647Q168 696 121 696Q98 696 86 683T73 647V75Q73 52 85 39T121 26Q168 26 168 75V647Z"  />
<glyph unicode="P" horiz-adv-x="222" d="M205 417Q205 385 183 367T123 348H73V0H33V722H123Q205 722 205 653V417ZM165 647Q165 692 116 692H73V378H116Q165 378 165 421V647Z"  />
<glyph unicode="Q" horiz-adv-x="241" d="M168 0L121 -4H114Q77 -4 55 17T33 74V648Q33 686 56 706T121 726Q163 726 185 706T208 648V90Q208 64 203 52T182 28V26Q193 28 203 29T225 30H236V0H168ZM168 648Q168 671 156 683T121 696Q98 696 86 684T73 648V75Q73 52 85 39T121 26Q168 26 168 75V648Z"  />
<glyph unicode="R" horiz-adv-x="241" d="M165 0V304Q165 328 151 342T110 356H73V0H33V722H123Q161 722 183 705T205 655V442Q205 406 192 391T143 371V369Q205 362 205 304V0H165ZM165 647Q165 692 116 692H73V386H112Q165 386 165 434V647Z"  />
<glyph unicode="S" horiz-adv-x="209" d="M190 70Q190 -4 101 -4Q19 -4 19 73V201H55V70Q55 47 66 37T103 26Q150 26 150 72V196Q150 221 145 246T129 289L45 448Q33 471 26 497T19 546V651Q19 686 41 706T105 726Q184 726 184 659V530H148V655Q148 696 106 696Q86 696 74 685T62 653V541Q62 523 66 505T78 472L160 315Q174 287 182 260T190 206V70H190Z"  />
<glyph unicode="T" horiz-adv-x="168" d="M104 692V0H64V692H-7V722H175V692H104Z"  />
<glyph unicode="U" horiz-adv-x="241" d="M208 74Q208 36 186 16T121 -4Q79 -4 56 16T33 74V722H73V75Q73 52 85 39T121 26Q168 26 168 75V722H208V74H208Z"  />
<glyph unicode="V" horiz-adv-x="204" d="M129 0H75L-3 722H37L85 246Q90 192 93 138T102 30H104Q109 84 112 138T121 246L168 722H207L129 0Z"  />
<glyph unicode="W" horiz-adv-x="333" d="M276 0H225L183 458L168 624L165 692H163L154 565L147 456L107 0H54L3 722H39L68 280Q71 239 73 181T81 30H83Q86 66 88 104T91 176T94 237T98 280L137 722H193L231 280Q236 217 241 155T248 30H250Q253 93 255 159T262 280L295 722H330L276 0Z"  />
<glyph unicode="X" horiz-adv-x="204" d="M169 0L104 348H102L31 0H-5L76 376L2 722H42L102 404H104L168 722H204L128 376L209 0H169Z"  />
<glyph unicode="Y" horiz-adv-x="204" d="M122 285V0H82V285L-1 722H39L101 331H103L165 722H205L122 285Z"  />
<glyph unicode="Z" horiz-adv-x="167" d="M0 0V40L122 692H11V722H158V682L36 30H167V0H0Z"  />
<glyph unicode="[" horiz-adv-x="167" d="M45 -156V722H147V692H81V-126H147V-156H45Z"  />
<glyph unicode="\" horiz-adv-x="204" d="M160 -65L14 787H44L190 -65H160Z"  />
<glyph unicode="]" horiz-adv-x="167" d="M20 -156V-126H86V692H20V722H122V-156H20Z"  />
<glyph unicode="^" horiz-adv-x="600" d="M449 313L300 691L151 313H119L283 722H317L481 313H449Z"  />
<glyph unicode="_" horiz-adv-x="500" d="M0 -105V-75H500V-105H0Z"  />
<glyph unicode="`" horiz-adv-x="94" d="M-12 688H32L72 592H46L-12 688Z"  />
<glyph unicode="a" horiz-adv-x="185" d="M124 0V25H122Q114 8 104 2T73 -4Q25 -4 25 41V232Q25 269 44 285T108 302H124V447Q124 476 93 476Q61 476 61 447V359H25V455Q25 481 42 493T97 506Q160 506 160 455V0H124ZM124 272H114Q85 272 73 262T61 226V49Q61 26 86 26Q103 26 113 41T124 81V272Z"  />
<glyph unicode="b" horiz-adv-x="204" d="M171 59Q171 -4 114 -4Q97 -4 89 0T72 19H69V0H33V722H69V481H71Q86 506 119 506Q171 506 171 447V59ZM135 442Q135 476 104 476Q89 476 79 463T69 430V61Q69 46 79 36T106 26Q135 26 135 61V442Z"  />
<glyph unicode="c" horiz-adv-x="167" d="M148 56Q148 -4 82 -4Q19 -4 19 56V446Q19 506 86 506Q148 506 148 446V345H112V442Q112 476 83 476Q55 476 55 442V55Q55 26 85 26Q112 26 112 53V168H148V56H148Z"  />
<glyph unicode="d" horiz-adv-x="204" d="M135 0V19H132Q124 5 116 1T90 -4Q62 -4 48 12T33 59V447Q33 506 85 506Q117 506 133 481H135V722H171V0H135ZM135 430Q135 450 125 463T99 476Q69 476 69 442V61Q69 26 98 26Q114 26 124 36T135 61V430Z"  />
<glyph unicode="e" horiz-adv-x="185" d="M160 56Q160 27 142 12T91 -4Q60 -4 43 12T25 56V446Q25 506 94 506Q126 506 143 491T160 446V244H61V60Q61 26 93 26Q124 26 124 60V167H160V56ZM124 442Q124 476 92 476Q61 476 61 442V274H124V442Z"  />
<glyph unicode="f" horiz-adv-x="111" d="M69 472V0H33V472H5V502H33V673Q33 722 83 722H106V692H90Q69 692 69 664V502H106V472H69Z"  />
<glyph unicode="g" horiz-adv-x="204" d="M171 -118Q171 -156 156 -172T102 -188Q38 -188 38 -129V-57H74V-120Q74 -141 81 -149T105 -158Q135 -158 135 -116V30H133Q127 18 118 13T91 7Q33 7 33 74V447Q33 506 85 506Q117 506 133 481H135V502H171V-118ZM135 430Q135 450 125 463T99 476Q69 476 69 442V74Q69 33 101 33Q135 33 135 86V430Z"  />
<glyph unicode="h" horiz-adv-x="204" d="M135 0V434Q135 457 129 466T107 476Q90 476 80 461T69 421V0H33V722H69V475H71Q87 506 121 506Q171 506 171 447V0H135Z"  />
<glyph unicode="i" horiz-adv-x="94" d="M25 636V688H69V636H25ZM29 0V502H65V0H29Z"  />
<glyph unicode="j" horiz-adv-x="94" d="M25 636V688H69V636H25ZM65 -139Q65 -160 55 -172T28 -184H1V-158H9Q20 -158 24 -152T29 -131V502H65V-139Z"  />
<glyph unicode="k" horiz-adv-x="185" d="M33 0V722H69V0H33ZM147 0L69 288L144 502H180L107 291L183 0H147Z"  />
<glyph unicode="l" horiz-adv-x="94" d="M29 0V722H65V0H29Z"  />
<glyph unicode="m" horiz-adv-x="296" d="M232 0V434Q232 457 226 466T204 476Q187 476 177 461T166 421V0H130V439Q130 476 102 476Q85 476 75 460T64 416V0H28V502H64V475H66Q82 506 116 506Q153 506 160 473H162Q177 506 217 506Q268 506 268 447V0H232Z"  />
<glyph unicode="n" horiz-adv-x="204" d="M135 0V434Q135 457 129 466T107 476Q90 476 80 461T69 421V0H33V502H69V475H71Q87 506 121 506Q171 506 171 447V0H135Z"  />
<glyph unicode="o" horiz-adv-x="204" d="M171 61Q171 32 153 14T102 -4Q70 -4 52 14T33 61V441Q33 473 51 489T102 506Q135 506 153 490T171 441V61ZM135 441Q135 476 102 476Q69 476 69 441V61Q69 26 102 26Q135 26 135 61V441Z"  />
<glyph unicode="p" horiz-adv-x="204" d="M171 59Q171 29 157 13T116 -4Q85 -4 71 19H69V-184H33V502H69V481H71Q86 506 119 506Q171 506 171 447V59ZM135 442Q135 476 104 476Q89 476 79 463T69 430V61Q69 46 79 36T106 26Q135 26 135 61V442Z"  />
<glyph unicode="q" horiz-adv-x="204" d="M135 -184V19H133Q124 5 115 1T89 -4Q62 -4 48 12T33 59V447Q33 506 85 506Q117 506 133 481H135V502H171V-184H135ZM135 430Q135 450 125 463T99 476Q69 476 69 442V61Q69 26 98 26Q114 26 124 36T135 61V430Z"  />
<glyph unicode="r" horiz-adv-x="130" d="M121 476Q69 473 69 421V0H33V502H69V475H71Q86 505 121 506V476H121Z"  />
<glyph unicode="s" horiz-adv-x="167" d="M149 55Q149 27 132 12T82 -4Q52 -4 35 10T18 49V167H54V56Q54 26 84 26Q113 26 113 56V142Q113 168 111 181T101 206L31 322Q24 334 21 347T18 379V450Q18 476 35 491T84 506Q147 506 147 448V361H111V442Q111 476 83 476Q54 476 54 442V374Q54 358 57 348T68 324L133 220Q149 195 149 155V55H149Z"  />
<glyph unicode="t" horiz-adv-x="130" d="M89 -4Q39 -4 39 45V472H8V502H39V591L75 611V502H119V472H75V54Q75 26 96 26H119V-4H89Z"  />
<glyph unicode="u" horiz-adv-x="204" d="M135 0V27H133Q115 -4 83 -4Q33 -4 33 55V502H69V68Q69 45 75 36T97 26Q114 26 124 41T135 81V502H171V0H135Z"  />
<glyph unicode="v" horiz-adv-x="168" d="M109 0H59L7 502H43L83 22H85L125 502H161L109 0Z"  />
<glyph unicode="w" horiz-adv-x="278" d="M228 0H183L142 472H140L95 0H50L10 502H46L70 30H72L119 502H165L206 30H208L232 502H268L228 0Z"  />
<glyph unicode="x" horiz-adv-x="167" d="M125 0L84 234H82L36 0H6L59 259L6 502H42L82 291H84L126 502H156L106 259L161 0H125Z"  />
<glyph unicode="y" horiz-adv-x="167" d="M76 -184H46L67 -4L5 502H41L83 68H85L126 502H162L76 -184Z"  />
<glyph unicode="z" horiz-adv-x="130" d="M3 0V40L92 472H9V502H127V458L38 30H127V0H3Z"  />
<glyph unicode="{" horiz-adv-x="222" d="M156 -156Q121 -156 107 -131T93 -43V201Q93 229 77 247T34 268V298Q60 300 76 318T93 365V609Q93 672 107 697T156 722H188V692H162Q144 692 137 674T129 609V373Q129 337 114 314T70 284V282Q98 276 113 253T129 193V-43Q129 -89 136 -107T162 -126H188V-156H156Z"  />
<glyph unicode="|" horiz-adv-x="222" d="M96 -214V786H126V-214H96Z"  />
<glyph unicode="}" horiz-adv-x="222" d="M188 268Q162 266 146 248T129 201V-43Q129 -105 115 -130T66 -156H34V-126H60Q78 -126 85 -107T93 -43V193Q93 229 108 252T152 282V284Q124 290 109 313T93 373V609Q93 654 86 673T60 692H34V722H66Q101 722 115 697T129 609V365Q129 337 145 319T188 298V268H188Z"  />
<glyph unicode="~" horiz-adv-x="600" d="M557 310Q552 288 543 268T519 233T486 208T441 199Q424 199 398 205T343 221T289 239T247 254Q230 260 204 267T160 275Q125 275 102 252T69 192H44Q48 214 57 234T80 269T114 294T159 303Q169 303 181 301T212 293T255 280T313 261Q324 258 340 252T375 241T410 231T440 227Q477 227 500 251T533 310H557H557Z"  />
<glyph unicode="&#xA0;" horiz-adv-x="112" />
<glyph unicode="&#xA1;" horiz-adv-x="167" d="M70 372H98L110 -184H58L70 372ZM62 538H106V486H62V538Z"  />
<glyph unicode="&#xA2;" horiz-adv-x="224" d="M140 442Q140 457 135 466T113 476Q96 476 90 467T84 442V55Q84 44 90 35T113 26Q130 26 135 34T140 53V167H176V56Q176 21 160 9T124 -4V-68H98V-4Q73 -4 60 17Q48 36 48 66V446Q48 464 53 475T67 494T83 503T98 506V563H124V506Q148 506 162 490Q176 474 176 452V343H140V442Z"  />
<glyph unicode="&#xA3;" horiz-adv-x="224" d="M22 0V30H47V366H15V396H47V645Q47 726 132 726Q217 726 217 645V598H181V645Q181 672 169 684T130 696Q83 696 83 645V396H134V366H83V30H217V0H22Z"  />
<glyph unicode="&#xA4;" horiz-adv-x="224" d="M111 249Q69 249 41 273L11 243L-7 261L23 291Q-1 318 -1 361Q-1 401 23 431L-7 461L11 479L41 449Q71 473 111 473Q152 473 181 449L211 479L229 461L199 431Q223 399 223 361Q223 324 198 291L229 261L211 243L180 273Q166 262 149 256T111 249ZM30 361Q30 327 53 304T111 280Q144 280 168 303T192 361Q192 394 168 418T111 442Q77 442 54 418T30 361Z"  />
<glyph unicode="&#xA5;" horiz-adv-x="224" d="M94 281L92 291H21V321H86L9 722H49L111 331H113L175 722H215L138 321H203V291H132L130 281V221H203V191H130V0H94V191H21V221H94V281Z"  />
<glyph unicode="&#xA6;" horiz-adv-x="222" d="M96 411V661H126V411H96ZM96 -89V161H126V-89H96Z"  />
<glyph unicode="&#xA7;" horiz-adv-x="222" d="M194 81Q194 35 172 16T95 -4Q77 -4 63 -3T32 0V30Q42 29 46 29T55 28Q63 27 74 27T93 26Q158 26 158 87V133Q158 151 153 163T133 189L46 269Q28 285 28 334V404Q28 431 44 449T103 486L72 509Q48 526 38 546T28 595V639Q28 681 51 703T115 726Q132 726 149 725T183 722V692L174 693Q157 695 143 695T118 696Q92 696 78 681T64 638V597Q64 556 92 535L155 488Q194 459 194 421V333Q194 298 179 280T122 245L161 212Q175 200 184 179T194 136V81ZM158 407Q158 429 152 441T123 471Q105 463 94 456T76 443T67 428T64 410V330Q64 310 73 295T105 262Q138 278 148 288T158 319V407Z"  />
<glyph unicode="&#xA8;" horiz-adv-x="94" d="M-22 688H22V636H-22V688ZM72 688H116V636H72V688Z"  />
<glyph unicode="&#xA9;" horiz-adv-x="800" d="M400 -4Q324 -4 258 24T142 102T63 218T34 360Q34 436 63 502T141 618T257 697T400 726Q476 726 542 697T658 619T737 503T766 360Q766 284 738 218T660 103T543 25T400 -4ZM400 33Q468 33 527 58T631 128T701 232T727 360Q727 428 702 488T632 593T528 664T400 690Q332 690 273 664T169 593T98 488T72 360Q72 292 98 233T168 129T272 59T400 33ZM407 147Q362 147 326 164T264 211T224 279T210 361Q210 403 223 441T260 509T319 555T399 573Q430 573 459 563T511 534T550 488T567 427H531Q522 478 487 507T401 537Q365 537 337 523T290 484T260 429T250 363Q250 328 260 296T291 239T341 198T407 183Q453 183 488 210T535 283H572Q567 252 552 227T515 184T464 157T407 147Z"  />
<glyph unicode="&#xAA;" horiz-adv-x="120" d="M47 425Q13 425 13 454V564Q13 587 26 597T70 608H75V689Q75 703 60 703Q44 703 44 689V634H13V694Q13 726 62 726Q107 726 107 694V427H75V440Q71 434 64 430T47 425ZM55 449Q75 449 75 477V584H73Q56 584 50 579T44 561V458Q44 449 55 449Z"  />
<glyph unicode="&#xAB;" horiz-adv-x="185" d="M140 0L86 251L140 502H166L122 251L166 0H140ZM73 0L19 251L73 502H99L55 251L99 0H73Z"  />
<glyph unicode="&#xAC;" horiz-adv-x="600" d="M523 108V335H47V365H553V108H523Z"  />
<glyph unicode="&#xAD;" horiz-adv-x="111" d="M9 238V264H102V238H9Z"  />
<glyph unicode="&#xAE;" horiz-adv-x="400" d="M384 542Q384 504 370 471T330 413T272 374T200 359Q162 359 129 373T71 412T32 470T17 542Q17 580 31 613T70 672T128 711T200 726Q238 726 271 712T330 672T369 614T384 542ZM364 542Q364 576 351 606T316 658T264 693T200 706Q166 706 137 693T85 658T49 606T36 542Q36 508 49 479T84 427T136 391T200 378Q234 378 263 391T315 426T351 478T364 542ZM263 445Q257 457 258 471T256 498T241 520T196 529H153V445H133V643L203 642Q245 642 263 631T282 585Q282 568 273 556T246 538Q264 530 270 518T278 492T279 466T285 445H263ZM261 587Q261 600 256 607T243 618T224 622T204 623H153V548H203Q213 548 223 549T242 555T255 566T261 587Z"  />
<glyph unicode="&#xAF;" horiz-adv-x="94" d="M-18 660H112V630H-18V660Z"  />
<glyph unicode="&#xB0;" horiz-adv-x="286" d="M243 626Q243 584 214 555T143 526Q123 526 105 534T73 555T51 586T43 624V626Q43 647 51 665T72 697T104 718T143 726Q185 726 214 697T243 626ZM217 625Q217 657 196 678T143 700Q112 700 91 679T69 626Q69 595 90 574T143 552Q173 552 195 573T217 625Z"  />
<glyph unicode="&#xB1;" horiz-adv-x="600" d="M315 282V88H285V282H47V312H285V506H315V312H553V282H315ZM47 0V30H553V0H47Z"  />
<glyph unicode="&#xB2;" horiz-adv-x="146" d="M18 292V323L87 565Q93 587 93 610V677Q93 702 71 702Q61 702 57 695T52 671V616H21V676Q21 726 73 726Q96 726 110 714T124 678V613Q124 593 122 579T115 549L47 318H128V292H18Z"  />
<glyph unicode="&#xB3;" horiz-adv-x="146" d="M127 330Q127 288 71 288Q45 288 31 299T17 330V402H49V335Q49 312 72 312Q96 312 96 335V470Q96 487 90 493T67 499H54V523H66Q81 523 87 530T93 557V678Q93 702 70 702Q51 702 51 678V618H19V684Q19 726 72 726Q124 726 124 683V549Q124 535 118 527T98 512Q127 503 127 471V330H127Z"  />
<glyph unicode="&#xB4;" horiz-adv-x="94" d="M62 688H106L48 592H22L62 688Z"  />
<glyph unicode="&#xB5;" horiz-adv-x="204" d="M135 0V27H133Q125 10 117 3T94 -4Q77 -4 65 8H63Q64 1 64 -2T65 -17Q67 -35 68 -48T69 -72V-184H33V502H69V78Q69 49 75 38T97 26Q114 26 124 41T135 81V502H171V0H135Z"  />
<glyph unicode="&#xB6;" horiz-adv-x="320" d="M254 0V692H194V0H158V431Q103 435 72 473T40 577Q40 646 78 684T188 722H290V0H254Z"  />
<glyph unicode="&#xB7;" horiz-adv-x="112" d="M34 238V290H78V238H34Z"  />
<glyph unicode="&#xB8;" horiz-adv-x="94" d="M8 -86Q14 -88 19 -88T33 -89Q63 -89 63 -66Q63 -49 42 -49Q29 -49 22 -52L18 -49L24 4H43L39 -34Q46 -31 58 -31Q71 -31 80 -39T89 -64Q89 -83 75 -95T34 -107Q16 -107 6 -103L8 -86Z"  />
<glyph unicode="&#xB9;" horiz-adv-x="146" d="M61 292V673L34 632V676L67 722H93V292H61Z"  />
<glyph unicode="&#xBA;" horiz-adv-x="144" d="M72 425Q51 425 38 436T24 465V686Q24 706 37 716T72 726Q120 726 120 686V465Q120 447 107 436T72 425ZM72 449Q89 449 89 465V686Q89 703 72 703Q55 703 55 686V465Q55 449 72 449Z"  />
<glyph unicode="&#xBB;" horiz-adv-x="185" d="M112 0H86L130 251L86 502H112L166 251L112 0ZM45 0H19L63 251L19 502H45L99 251L45 0Z"  />
<glyph unicode="&#xBC;" horiz-adv-x="360" d="M55 292V673L28 632V676L61 722H87V292H55ZM217 757H245L110 -35H82L217 757ZM271 107H196V142L258 430H302V133H330V107H302V0H271V107ZM271 133V356L224 133H271Z"  />
<glyph unicode="&#xBD;" horiz-adv-x="360" d="M45 292V673L18 632V676L51 722H77V292H45ZM207 757H235L100 -35H72L207 757ZM218 0V31L287 273Q293 295 293 318V385Q293 410 271 410Q261 410 257 403T252 379V324H221V384Q221 434 273 434Q296 434 310 422T324 386V321Q324 301 322 287T315 257L247 26H328V0H218Z"  />
<glyph unicode="&#xBE;" horiz-adv-x="360" d="M129 330Q129 288 73 288Q47 288 33 299T19 330V402H51V335Q51 312 74 312Q98 312 98 335V470Q98 487 92 493T69 499H56V523H68Q83 523 89 530T95 557V678Q95 702 72 702Q53 702 53 678V618H21V684Q21 726 74 726Q126 726 126 683V549Q126 535 120 527T100 512Q129 503 129 471V330ZM235 757H263L128 -35H100L235 757ZM269 107H194V142L256 430H300V133H328V107H300V0H269V107ZM269 133V356L222 133H269Z"  />
<glyph unicode="&#xBF;" horiz-adv-x="222" d="M103 -188Q65 -188 49 -169T32 -103V-7Q32 43 52 103L70 157Q75 171 78 181T83 200Q87 211 88 226T90 256V372H126V232Q126 210 120 186T97 119Q81 77 75 51T68 6V-114Q68 -158 106 -158Q125 -158 133 -148T141 -113V-16H177V-116Q177 -188 103 -188ZM84 538H128V486H84V538Z"  />
<glyph unicode="&#xC0;" horiz-adv-x="204" d="M172 0L149 211H50L28 0H-8L73 722H129L212 0H172ZM121 478Q120 490 119 496T118 509T116 526T113 557T108 610T101 696H99Q94 641 90 587T80 478L54 241H146L121 478ZM30 863H74L114 767H88L30 863Z"  />
<glyph unicode="&#xC1;" horiz-adv-x="204" d="M172 0L149 211H50L28 0H-8L73 722H129L212 0H172ZM121 478Q120 490 119 496T118 509T116 526T113 557T108 610T101 696H99Q94 641 90 587T80 478L54 241H146L121 478ZM130 863H174L116 767H90L130 863Z"  />
<glyph unicode="&#xC2;" horiz-adv-x="204" d="M172 0L149 211H50L28 0H-8L73 722H129L212 0H172ZM121 478Q120 490 119 496T118 509T116 526T113 557T108 610T101 696H99Q94 641 90 587T80 478L54 241H146L121 478ZM87 863H117L163 767H133L102 833L71 767H41L87 863Z"  />
<glyph unicode="&#xC3;" horiz-adv-x="204" d="M172 0L149 211H50L28 0H-8L73 722H129L212 0H172ZM121 478Q120 490 119 496T118 509T116 526T113 557T108 610T101 696H99Q94 641 90 587T80 478L54 241H146L121 478ZM27 792Q27 799 28 808T34 826T45 841T63 847Q71 847 80 843T100 832Q111 827 119 822T136 817Q147 817 151 826T155 843V847H177V842Q177 835 176 826T170 808T159 793T141 787Q131 787 121 792T101 802Q91 808 83 812T66 817Q56 817 53 808T49 791V787H27V792Z"  />
<glyph unicode="&#xC4;" horiz-adv-x="204" d="M172 0L149 211H50L28 0H-8L73 722H129L212 0H172ZM121 478Q120 490 119 496T118 509T116 526T113 557T108 610T101 696H99Q94 641 90 587T80 478L54 241H146L121 478ZM33 863H77V811H33V863ZM127 863H171V811H127V863Z"  />
<glyph unicode="&#xC5;" horiz-adv-x="204" d="M172 0L149 211H50L28 0H-8L73 722H129L212 0H172ZM121 478Q120 490 119 496T118 509T116 526T113 557T108 610T101 696H99Q94 641 90 587T80 478L54 241H146L121 478ZM102 754Q79 754 64 769T48 808Q48 831 63 847T102 863Q125 863 140 847T156 808Q156 785 141 770T102 754ZM102 776Q116 776 125 785T134 808Q134 822 125 831T102 841Q88 841 79 832T70 808Q70 794 79 785T102 776Z"  />
<glyph unicode="&#xC6;" horiz-adv-x="315" d="M128 722H302V692H185L201 386H293V356H201L217 30H302V0H184L174 211H72L36 0H0L128 722ZM170 241L156 692H154L76 241H170Z"  />
<glyph unicode="&#xC7;" horiz-adv-x="204" d="M70 -86Q76 -88 81 -88T95 -89Q125 -89 125 -66Q125 -49 104 -49Q91 -49 84 -52L80 -49L85 -2Q53 2 36 22T19 74V648Q19 685 41 705T104 726Q143 726 164 706T185 648V529H145V642Q145 696 103 696Q83 696 71 684T59 651V71Q59 50 71 38T105 26Q127 26 136 38T145 80V203H185V74Q185 36 164 17T104 -4L101 -34Q108 -31 120 -31Q133 -31 142 -39T151 -64Q151 -83 137 -95T96 -107Q78 -107 68 -103L70 -86Z"  />
<glyph unicode="&#xC8;" horiz-adv-x="185" d="M33 0V722H170V692H73V386H164V356H73V30H177V0H33ZM40 863H84L124 767H98L40 863Z"  />
<glyph unicode="&#xC9;" horiz-adv-x="185" d="M33 0V722H170V692H73V386H164V356H73V30H177V0H33ZM110 863H154L96 767H70L110 863Z"  />
<glyph unicode="&#xCA;" horiz-adv-x="185" d="M33 0V722H170V692H73V386H164V356H73V30H177V0H33ZM87 863H117L163 767H133L102 833L71 767H41L87 863Z"  />
<glyph unicode="&#xCB;" horiz-adv-x="185" d="M33 0V722H170V692H73V386H164V356H73V30H177V0H33ZM28 863H72V811H28V863ZM122 863H166V811H122V863Z"  />
<glyph unicode="&#xCC;" horiz-adv-x="112" d="M36 0V722H76V0H36ZM-11 863H33L73 767H47L-11 863Z"  />
<glyph unicode="&#xCD;" horiz-adv-x="112" d="M36 0V722H76V0H36ZM84 863H128L70 767H44L84 863Z"  />
<glyph unicode="&#xCE;" horiz-adv-x="112" d="M36 0V722H76V0H36ZM41 863H71L117 767H87L56 833L25 767H-5L41 863Z"  />
<glyph unicode="&#xCF;" horiz-adv-x="112" d="M36 0V722H76V0H36ZM-13 863H31V811H-13V863ZM81 863H125V811H81V863Z"  />
<glyph unicode="&#xD0;" horiz-adv-x="241" d="M33 356H0V386H33V722H118Q163 722 185 704T208 645V77Q208 36 186 18T118 0H33V356ZM114 30Q168 30 168 74V648Q168 692 114 692H73V386H128V356H73V30H114Z"  />
<glyph unicode="&#xD1;" horiz-adv-x="259" d="M166 0L96 460L73 646L68 692H66Q68 642 68 606T71 544Q72 521 72 506T73 482V0H33V722H93L194 30H196L194 70L186 262V722H226V0H166ZM54 792Q54 799 55 808T61 826T72 841T90 847Q98 847 107 843T127 832Q138 827 146 822T163 817Q174 817 178 826T182 843V847H204V842Q204 835 203 826T197 808T186 793T168 787Q158 787 148 792T128 802Q118 808 110 812T93 817Q83 817 80 808T76 791V787H54V792Z"  />
<glyph unicode="&#xD2;" horiz-adv-x="241" d="M208 74Q208 36 186 16T121 -4Q79 -4 56 16T33 74V648Q33 686 56 706T122 726Q164 726 186 706T208 648V74ZM168 647Q168 696 121 696Q98 696 86 683T73 647V75Q73 52 85 39T121 26Q168 26 168 75V647ZM58 863H102L142 767H116L58 863Z"  />
<glyph unicode="&#xD3;" horiz-adv-x="241" d="M208 74Q208 36 186 16T121 -4Q79 -4 56 16T33 74V648Q33 686 56 706T122 726Q164 726 186 706T208 648V74ZM168 647Q168 696 121 696Q98 696 86 683T73 647V75Q73 52 85 39T121 26Q168 26 168 75V647ZM148 863H192L134 767H108L148 863Z"  />
<glyph unicode="&#xD4;" horiz-adv-x="241" d="M208 74Q208 36 186 16T121 -4Q79 -4 56 16T33 74V648Q33 686 56 706T122 726Q164 726 186 706T208 648V74ZM168 647Q168 696 121 696Q98 696 86 683T73 647V75Q73 52 85 39T121 26Q168 26 168 75V647ZM105 863H135L181 767H151L120 833L89 767H59L105 863Z"  />
<glyph unicode="&#xD5;" horiz-adv-x="241" d="M208 74Q208 36 186 16T121 -4Q79 -4 56 16T33 74V648Q33 686 56 706T122 726Q164 726 186 706T208 648V74ZM168 647Q168 696 121 696Q98 696 86 683T73 647V75Q73 52 85 39T121 26Q168 26 168 75V647ZM45 792Q45 799 46 808T52 826T63 841T81 847Q89 847 98 843T118 832Q129 827 137 822T154 817Q165 817 169 826T173 843V847H195V842Q195 835 194 826T188 808T177 793T159 787Q149 787 139 792T119 802Q109 808 101 812T84 817Q74 817 71 808T67 791V787H45V792Z"  />
<glyph unicode="&#xD6;" horiz-adv-x="241" d="M208 74Q208 36 186 16T121 -4Q79 -4 56 16T33 74V648Q33 686 56 706T122 726Q164 726 186 706T208 648V74ZM168 647Q168 696 121 696Q98 696 86 683T73 647V75Q73 52 85 39T121 26Q168 26 168 75V647ZM51 863H95V811H51V863ZM145 863H189V811H145V863Z"  />
<glyph unicode="&#xD7;" horiz-adv-x="600" d="M278 253L79 451L101 474L300 276L498 474L521 451L322 253L521 54L498 32L300 230L101 32L79 54L278 253Z"  />
<glyph unicode="&#xD8;" horiz-adv-x="241" d="M73 244L168 617V647Q168 671 156 683T121 696Q99 696 86 684T73 647V306Q73 290 73 275T71 244H73ZM33 101V648Q33 686 56 706T121 726Q170 726 193 698L209 756L241 748L208 626V74Q208 36 186 16T121 -4Q67 -4 45 30L25 -39L-3 -31L33 101ZM73 75Q73 51 86 39T121 26Q143 26 155 38T168 75V422Q168 439 168 455T170 488H168L73 121V75Z"  />
<glyph unicode="&#xD9;" horiz-adv-x="241" d="M208 74Q208 36 186 16T121 -4Q79 -4 56 16T33 74V722H73V75Q73 52 85 39T121 26Q168 26 168 75V722H208V74H208ZM58 863H102L142 767H116L58 863Z"  />
<glyph unicode="&#xDA;" horiz-adv-x="241" d="M208 74Q208 36 186 16T121 -4Q79 -4 56 16T33 74V722H73V75Q73 52 85 39T121 26Q168 26 168 75V722H208V74H208ZM148 863H192L134 767H108L148 863Z"  />
<glyph unicode="&#xDB;" horiz-adv-x="241" d="M208 74Q208 36 186 16T121 -4Q79 -4 56 16T33 74V722H73V75Q73 52 85 39T121 26Q168 26 168 75V722H208V74H208ZM105 863H135L181 767H151L120 833L89 767H59L105 863Z"  />
<glyph unicode="&#xDC;" horiz-adv-x="241" d="M208 74Q208 36 186 16T121 -4Q79 -4 56 16T33 74V722H73V75Q73 52 85 39T121 26Q168 26 168 75V722H208V74H208ZM51 863H95V811H51V863ZM145 863H189V811H145V863Z"  />
<glyph unicode="&#xDD;" horiz-adv-x="204" d="M122 285V0H82V285L-1 722H39L101 331H103L165 722H205L122 285ZM130 863H174L116 767H90L130 863Z"  />
<glyph unicode="&#xDE;" horiz-adv-x="222" d="M33 722H73V585H123Q164 585 184 562T205 506V290Q205 258 185 235T123 211H73V0H33V722ZM116 241Q138 241 151 250T165 286V510Q165 533 152 544T116 555H73V241H116Z"  />
<glyph unicode="&#xDF;" horiz-adv-x="222" d="M28 655Q28 689 44 707T97 726Q133 726 149 708T166 655V501Q147 486 139 473T130 438Q130 421 133 406T143 376L192 263Q202 241 204 222T207 182V63Q207 23 190 10T150 -4Q116 -4 104 9T91 52V147H121V57Q121 41 126 34T146 26Q161 26 166 34T171 57V186Q171 212 165 229T151 267L111 359Q103 376 99 394T94 432Q94 453 103 471T130 513V659Q130 676 123 686T97 696Q78 696 71 686T64 659V0H28V655Z"  />
<glyph unicode="&#xE0;" horiz-adv-x="185" d="M124 0V25H122Q114 8 104 2T73 -4Q25 -4 25 41V232Q25 269 44 285T108 302H124V447Q124 476 93 476Q61 476 61 447V359H25V455Q25 481 42 493T97 506Q160 506 160 455V0H124ZM124 272H114Q85 272 73 262T61 226V49Q61 26 86 26Q103 26 113 41T124 81V272ZM30 688H74L114 592H88L30 688Z"  />
<glyph unicode="&#xE1;" horiz-adv-x="185" d="M124 0V25H122Q114 8 104 2T73 -4Q25 -4 25 41V232Q25 269 44 285T108 302H124V447Q124 476 93 476Q61 476 61 447V359H25V455Q25 481 42 493T97 506Q160 506 160 455V0H124ZM124 272H114Q85 272 73 262T61 226V49Q61 26 86 26Q103 26 113 41T124 81V272ZM110 688H154L96 592H70L110 688Z"  />
<glyph unicode="&#xE2;" horiz-adv-x="185" d="M124 0V25H122Q114 8 104 2T73 -4Q25 -4 25 41V232Q25 269 44 285T108 302H124V447Q124 476 93 476Q61 476 61 447V359H25V455Q25 481 42 493T97 506Q160 506 160 455V0H124ZM124 272H114Q85 272 73 262T61 226V49Q61 26 86 26Q103 26 113 41T124 81V272ZM77 688H107L153 592H123L92 658L61 592H31L77 688Z"  />
<glyph unicode="&#xE3;" horiz-adv-x="185" d="M124 0V25H122Q114 8 104 2T73 -4Q25 -4 25 41V232Q25 269 44 285T108 302H124V447Q124 476 93 476Q61 476 61 447V359H25V455Q25 481 42 493T97 506Q160 506 160 455V0H124ZM124 272H114Q85 272 73 262T61 226V49Q61 26 86 26Q103 26 113 41T124 81V272ZM17 617Q17 624 18 633T24 651T35 666T53 672Q61 672 70 668T90 657Q101 652 109 647T126 642Q137 642 141 651T145 668V672H167V667Q167 660 166 651T160 633T149 618T131 612Q121 612 111 617T91 627Q81 633 73 637T56 642Q46 642 43 633T39 616V612H17V617Z"  />
<glyph unicode="&#xE4;" horiz-adv-x="185" d="M124 0V25H122Q114 8 104 2T73 -4Q25 -4 25 41V232Q25 269 44 285T108 302H124V447Q124 476 93 476Q61 476 61 447V359H25V455Q25 481 42 493T97 506Q160 506 160 455V0H124ZM124 272H114Q85 272 73 262T61 226V49Q61 26 86 26Q103 26 113 41T124 81V272ZM23 688H67V636H23V688ZM117 688H161V636H117V688Z"  />
<glyph unicode="&#xE5;" horiz-adv-x="185" d="M124 0V25H122Q114 8 104 2T73 -4Q25 -4 25 41V232Q25 269 44 285T108 302H124V447Q124 476 93 476Q61 476 61 447V359H25V455Q25 481 42 493T97 506Q160 506 160 455V0H124ZM124 272H114Q85 272 73 262T61 226V49Q61 26 86 26Q103 26 113 41T124 81V272ZM92 579Q69 579 54 594T38 633Q38 656 53 672T92 688Q115 688 130 672T146 633Q146 610 131 595T92 579ZM92 601Q106 601 115 610T124 633Q124 647 115 656T92 666Q78 666 69 657T60 633Q60 619 69 610T92 601Z"  />
<glyph unicode="&#xE6;" horiz-adv-x="278" d="M23 226Q23 252 40 269T106 287H121V442Q121 458 115 467T91 476Q59 476 59 442V359H23V455Q23 484 43 495T91 506Q125 506 142 484Q158 506 188 506Q223 506 239 490T255 446V257H157V60Q157 45 163 36T188 26Q206 26 212 35T219 60V167H255V56Q255 30 239 13T188 -4Q152 -4 136 24Q127 7 112 2T83 -4Q57 -4 40 5T23 41V226ZM121 257H112Q88 257 74 249T59 215V54Q59 26 84 26Q101 26 111 42T121 81V257ZM219 287V442Q219 457 212 466T188 476Q171 476 164 467T157 442V287H219Z"  />
<glyph unicode="&#xE7;" horiz-adv-x="167" d="M148 56Q148 -4 82 -4Q19 -4 19 56V446Q19 506 86 506Q148 506 148 446V345H112V442Q112 476 83 476Q55 476 55 442V55Q55 26 85 26Q112 26 112 53V168H148V56ZM54 -86Q60 -88 65 -88T79 -89Q109 -89 109 -66Q109 -49 88 -49Q75 -49 68 -52L64 -49L70 4H89L85 -34Q92 -31 104 -31Q117 -31 126 -39T135 -64Q135 -83 121 -95T80 -107Q62 -107 52 -103L54 -86Z"  />
<glyph unicode="&#xE8;" horiz-adv-x="185" d="M160 56Q160 27 142 12T91 -4Q60 -4 43 12T25 56V446Q25 506 94 506Q126 506 143 491T160 446V244H61V60Q61 26 93 26Q124 26 124 60V167H160V56ZM124 442Q124 476 92 476Q61 476 61 442V274H124V442ZM30 688H74L114 592H88L30 688Z"  />
<glyph unicode="&#xE9;" horiz-adv-x="185" d="M160 56Q160 27 142 12T91 -4Q60 -4 43 12T25 56V446Q25 506 94 506Q126 506 143 491T160 446V244H61V60Q61 26 93 26Q124 26 124 60V167H160V56ZM124 442Q124 476 92 476Q61 476 61 442V274H124V442ZM110 688H154L96 592H70L110 688Z"  />
<glyph unicode="&#xEA;" horiz-adv-x="185" d="M160 56Q160 27 142 12T91 -4Q60 -4 43 12T25 56V446Q25 506 94 506Q126 506 143 491T160 446V244H61V60Q61 26 93 26Q124 26 124 60V167H160V56ZM124 442Q124 476 92 476Q61 476 61 442V274H124V442ZM77 688H107L153 592H123L92 658L61 592H31L77 688Z"  />
<glyph unicode="&#xEB;" horiz-adv-x="185" d="M160 56Q160 27 142 12T91 -4Q60 -4 43 12T25 56V446Q25 506 94 506Q126 506 143 491T160 446V244H61V60Q61 26 93 26Q124 26 124 60V167H160V56ZM124 442Q124 476 92 476Q61 476 61 442V274H124V442ZM23 688H67V636H23V688ZM117 688H161V636H117V688Z"  />
<glyph unicode="&#xEC;" horiz-adv-x="94" d="M29 502H65V0H29V502ZM-14 688H30L70 592H44L-14 688Z"  />
<glyph unicode="&#xED;" horiz-adv-x="94" d="M29 502H65V0H29V502ZM75 688H119L61 592H35L75 688Z"  />
<glyph unicode="&#xEE;" horiz-adv-x="94" d="M29 502H65V0H29V502ZM32 688H62L108 592H78L47 658L16 592H-14L32 688Z"  />
<glyph unicode="&#xEF;" horiz-adv-x="94" d="M29 502H65V0H29V502ZM-22 688H22V636H-22V688ZM72 688H116V636H72V688Z"  />
<glyph unicode="&#xF0;" horiz-adv-x="204" d="M33 441Q33 474 51 490T99 506Q121 506 138 495Q137 517 135 540T126 587Q120 608 112 626T94 656L50 626L34 650L77 678Q58 698 38 710L62 726Q70 721 81 713T101 696L144 726L160 702L119 674Q133 657 144 631T162 574Q168 542 169 510T171 442V61Q171 32 153 14T102 -4Q70 -4 52 14T33 61V441ZM135 441Q135 457 128 466T102 476Q85 476 77 467T69 441V61Q69 47 77 37T102 26Q121 26 128 36T135 61V441Z"  />
<glyph unicode="&#xF1;" horiz-adv-x="204" d="M135 0V434Q135 457 129 466T107 476Q90 476 80 461T69 421V0H33V502H69V475H71Q87 506 121 506Q171 506 171 447V0H135ZM27 617Q27 624 28 633T34 651T45 666T63 672Q71 672 80 668T100 657Q111 652 119 647T136 642Q147 642 151 651T155 668V672H177V667Q177 660 176 651T170 633T159 618T141 612Q131 612 121 617T101 627Q91 633 83 637T66 642Q56 642 53 633T49 616V612H27V617Z"  />
<glyph unicode="&#xF2;" horiz-adv-x="204" d="M171 61Q171 32 153 14T102 -4Q70 -4 52 14T33 61V441Q33 473 51 489T102 506Q135 506 153 490T171 441V61ZM135 441Q135 476 102 476Q69 476 69 441V61Q69 26 102 26Q135 26 135 61V441ZM40 688H84L124 592H98L40 688Z"  />
<glyph unicode="&#xF3;" horiz-adv-x="204" d="M171 61Q171 32 153 14T102 -4Q70 -4 52 14T33 61V441Q33 473 51 489T102 506Q135 506 153 490T171 441V61ZM135 441Q135 476 102 476Q69 476 69 441V61Q69 26 102 26Q135 26 135 61V441ZM120 688H164L106 592H80L120 688Z"  />
<glyph unicode="&#xF4;" horiz-adv-x="204" d="M171 61Q171 32 153 14T102 -4Q70 -4 52 14T33 61V441Q33 473 51 489T102 506Q135 506 153 490T171 441V61ZM135 441Q135 476 102 476Q69 476 69 441V61Q69 26 102 26Q135 26 135 61V441ZM87 688H117L163 592H133L102 658L71 592H41L87 688Z"  />
<glyph unicode="&#xF5;" horiz-adv-x="204" d="M171 61Q171 32 153 14T102 -4Q70 -4 52 14T33 61V441Q33 473 51 489T102 506Q135 506 153 490T171 441V61ZM135 441Q135 476 102 476Q69 476 69 441V61Q69 26 102 26Q135 26 135 61V441ZM27 617Q27 624 28 633T34 651T45 666T63 672Q71 672 80 668T100 657Q111 652 119 647T136 642Q147 642 151 651T155 668V672H177V667Q177 660 176 651T170 633T159 618T141 612Q131 612 121 617T101 627Q91 633 83 637T66 642Q56 642 53 633T49 616V612H27V617Z"  />
<glyph unicode="&#xF6;" horiz-adv-x="204" d="M171 61Q171 32 153 14T102 -4Q70 -4 52 14T33 61V441Q33 473 51 489T102 506Q135 506 153 490T171 441V61ZM135 441Q135 476 102 476Q69 476 69 441V61Q69 26 102 26Q135 26 135 61V441ZM33 688H77V636H33V688ZM127 688H171V636H127V688Z"  />
<glyph unicode="&#xF7;" horiz-adv-x="600" d="M278 430V482H322V430H278ZM47 238V268H553V238H47ZM278 27V79H322V27H278Z"  />
<glyph unicode="&#xF8;" horiz-adv-x="204" d="M71 167L135 431V441Q135 457 128 466T102 476Q85 476 77 467T69 441V167H71ZM69 61Q69 47 77 37T102 26Q121 26 128 36T135 61V339H133L69 81V61ZM34 49Q33 54 33 61V441Q33 474 51 490T102 506Q133 506 151 491L164 542L192 534L170 455Q171 450 171 447T171 441V61Q171 32 153 14T102 -4Q68 -4 51 15L36 -40L12 -33L34 49Z"  />
<glyph unicode="&#xF9;" horiz-adv-x="204" d="M135 0V27H133Q115 -4 83 -4Q33 -4 33 55V502H69V68Q69 45 75 36T97 26Q114 26 124 41T135 81V502H171V0H135ZM40 688H84L124 592H98L40 688Z"  />
<glyph unicode="&#xFA;" horiz-adv-x="204" d="M135 0V27H133Q115 -4 83 -4Q33 -4 33 55V502H69V68Q69 45 75 36T97 26Q114 26 124 41T135 81V502H171V0H135ZM120 688H164L106 592H80L120 688Z"  />
<glyph unicode="&#xFB;" horiz-adv-x="204" d="M135 0V27H133Q115 -4 83 -4Q33 -4 33 55V502H69V68Q69 45 75 36T97 26Q114 26 124 41T135 81V502H171V0H135ZM87 688H117L163 592H133L102 658L71 592H41L87 688Z"  />
<glyph unicode="&#xFC;" horiz-adv-x="204" d="M135 0V27H133Q115 -4 83 -4Q33 -4 33 55V502H69V68Q69 45 75 36T97 26Q114 26 124 41T135 81V502H171V0H135ZM33 688H77V636H33V688ZM127 688H171V636H127V688Z"  />
<glyph unicode="&#xFD;" horiz-adv-x="167" d="M76 -184H46L67 -4L5 502H41L83 68H85L126 502H162L76 -184ZM101 688H145L87 592H61L101 688Z"  />
<glyph unicode="&#xFE;" horiz-adv-x="204" d="M33 722H69V481H71Q84 506 118 506Q171 506 171 447V59Q171 30 157 13T116 -4Q99 -4 88 2T71 19H69V-184H33V722ZM135 442Q135 476 103 476Q86 476 78 461T69 430V61Q69 43 81 35T106 26Q135 26 135 61V442Z"  />
<glyph unicode="&#xFF;" horiz-adv-x="167" d="M76 -184H46L67 -4L5 502H41L83 68H85L126 502H162L76 -184ZM14 688H58V636H14V688ZM108 688H152V636H108V688Z"  />
<glyph unicode="&#x131;" horiz-adv-x="94" d="M29 502H65V0H29V502Z"  />
<glyph unicode="&#x152;" horiz-adv-x="333" d="M33 648Q33 671 41 686T61 710T88 722T117 726Q128 726 137 726T157 724Q166 723 175 723T193 722H305V692H209V386H300V356H209V30H312V0H188Q180 0 172 0T154 -2Q145 -3 136 -3T118 -4Q78 -4 56 16T33 74V648ZM169 690Q163 692 152 694T125 696Q73 696 73 640V75Q73 51 86 39T121 26Q135 26 148 27T169 33V690Z"  />
<glyph unicode="&#x153;" horiz-adv-x="278" d="M21 441Q21 474 39 490T90 506Q105 506 117 501T140 480Q148 495 160 500T190 506Q225 506 241 490T257 446V244H159V60Q159 45 165 36T190 26Q208 26 214 35T221 60V167H257V56Q257 30 241 13T190 -4Q172 -4 160 2T139 23Q121 -4 90 -4Q58 -4 40 14T21 61V441ZM123 441Q123 457 116 466T90 476Q72 476 65 467T57 441V62Q57 46 64 36T90 26Q109 26 116 36T123 62V441ZM221 274V442Q221 457 214 466T190 476Q173 476 166 467T159 442V274H221Z"  />
<glyph unicode="&#x160;" horiz-adv-x="209" d="M190 70Q190 -4 101 -4Q19 -4 19 73V201H55V70Q55 47 66 37T103 26Q150 26 150 72V196Q150 221 145 246T129 289L45 448Q33 471 26 497T19 546V651Q19 686 41 706T105 726Q184 726 184 659V530H148V655Q148 696 106 696Q86 696 74 685T62 653V541Q62 523 66 505T78 472L160 315Q174 287 182 260T190 206V70H190ZM43 863H73L104 797L135 863H165L119 767H89L43 863Z"  />
<glyph unicode="&#x161;" horiz-adv-x="167" d="M149 55Q149 27 132 12T82 -4Q52 -4 35 10T18 49V167H54V56Q54 26 84 26Q113 26 113 56V142Q113 168 111 181T101 206L31 322Q24 334 21 347T18 379V450Q18 476 35 491T84 506Q147 506 147 448V361H111V442Q111 476 83 476Q54 476 54 442V374Q54 358 57 348T68 324L133 220Q149 195 149 155V55H149ZM22 688H52L83 622L114 688H144L98 592H68L22 688Z"  />
<glyph unicode="&#x178;" horiz-adv-x="204" d="M122 285V0H82V285L-1 722H39L101 331H103L165 722H205L122 285ZM33 863H77V811H33V863ZM127 863H171V811H127V863Z"  />
<glyph unicode="&#x17D;" horiz-adv-x="167" d="M0 0V40L122 692H11V722H158V682L36 30H167V0H0ZM22 863H52L83 797L114 863H144L98 767H68L22 863Z"  />
<glyph unicode="&#x17E;" horiz-adv-x="130" d="M3 0V40L92 472H9V502H127V458L38 30H127V0H3ZM4 688H34L65 622L96 688H126L80 592H50L4 688Z"  />
<glyph unicode="&#x192;" horiz-adv-x="224" d="M165 696Q151 696 147 686T140 647L130 448H169L168 418H130L108 -58Q106 -87 93 -98T48 -110H32V-80H40Q71 -80 72 -55L94 418H54L55 448H94L104 657Q106 697 120 711T170 726H179V696H165Z"  />
<glyph unicode="&#x2C6;" horiz-adv-x="94" d="M32 688H62L108 592H78L47 658L16 592H-14L32 688Z"  />
<glyph unicode="&#x2C7;" horiz-adv-x="94" d="M-14 688H16L47 622L78 688H108L62 592H32L-14 688Z"  />
<glyph unicode="&#x2DA;" horiz-adv-x="94" d="M47 579Q24 579 9 594T-7 633Q-7 656 8 672T47 688Q70 688 85 672T101 633Q101 610 86 595T47 579ZM47 601Q61 601 70 610T79 633Q79 647 70 656T47 666Q33 666 24 657T15 633Q15 619 24 610T47 601Z"  />
<glyph unicode="&#x2DC;" horiz-adv-x="94" d="M-28 617Q-28 624 -27 633T-21 651T-10 666T8 672Q16 672 25 668T45 657Q56 652 64 647T81 642Q92 642 96 651T100 668V672H122V667Q122 660 121 651T115 633T104 618T86 612Q76 612 66 617T46 627Q36 633 28 637T11 642Q1 642 -2 633T-6 616V612H-28V617Z"  />
<glyph unicode="&#x2013;" horiz-adv-x="500" d="M0 238V264H500V238H0Z"  />
<glyph unicode="&#x2014;" horiz-adv-x="1000" d="M0 238V264H1000V238H0Z"  />
<glyph unicode="&#x2018;" horiz-adv-x="112" d="M66 566H22L60 722H90L66 566Z"  />
<glyph unicode="&#x2019;" horiz-adv-x="112" d="M52 566H22L46 722H90L52 566Z"  />
<glyph unicode="&#x201A;" horiz-adv-x="112" d="M52 -104H22L46 52H90L52 -104Z"  />
<glyph unicode="&#x201C;" horiz-adv-x="167" d="M133 566H89L127 722H157L133 566ZM54 566H10L48 722H78L54 566Z"  />
<glyph unicode="&#x201D;" horiz-adv-x="167" d="M119 566H89L113 722H157L119 566ZM40 566H10L34 722H78L40 566Z"  />
<glyph unicode="&#x201E;" horiz-adv-x="167" d="M119 -104H89L113 52H157L119 -104ZM40 -104H10L34 52H78L40 -104Z"  />
<glyph unicode="&#x2020;" horiz-adv-x="222" d="M126 578V0H96V578H6V608H96V722H126V608H216V578H126Z"  />
<glyph unicode="&#x2021;" horiz-adv-x="222" d="M126 134V0H96V134H6V164H96V574H6V604H96V722H126V604H216V574H126V164H216V134H126Z"  />
<glyph unicode="&#x2022;" horiz-adv-x="500" d="M431 361Q431 323 417 291T378 233T320 194T250 180Q213 180 180 194T123 232T84 289T69 358Q69 397 83 430T121 488T179 527T250 542Q287 542 320 528T378 489T417 431T431 361Z"  />
<glyph unicode="&#x2026;" horiz-adv-x="1000" d="M811 0V52H855V0H811ZM478 0V52H522V0H478ZM145 0V52H189V0H145Z"  />
<glyph unicode="&#x2030;" horiz-adv-x="407" d="M105 388Q105 348 59 348Q15 348 15 388V686Q15 726 61 726Q81 726 93 715T105 686V388ZM392 36Q392 -4 346 -4Q302 -4 302 36V334Q302 374 348 374Q368 374 380 363T392 334V36ZM86 -35H58L193 757H221L86 -35ZM263 36Q263 -4 217 -4Q173 -4 173 36V334Q173 374 219 374Q239 374 251 363T263 334V36ZM79 683Q79 704 60 704Q41 704 41 683V391Q41 370 60 370Q79 370 79 391V683ZM366 331Q366 352 347 352Q328 352 328 331V39Q328 18 347 18Q366 18 366 39V331ZM237 331Q237 352 218 352Q199 352 199 331V39Q199 18 218 18Q237 18 237 39V331Z"  />
<glyph unicode="&#x2039;" horiz-adv-x="112" d="M70 0L16 251L70 502H96L52 251L96 0H70Z"  />
<glyph unicode="&#x203A;" horiz-adv-x="112" d="M42 0H16L60 251L16 502H42L96 251L42 0Z"  />
<glyph unicode="&#x20AC;" horiz-adv-x="224" d="M216 654Q214 661 208 670T188 687Q178 693 169 694T151 696Q140 696 130 694T111 685Q101 677 100 669T98 651V436H178L172 406H98V336H160L154 306H98V71Q98 62 102 53T111 38Q119 30 130 28T152 26Q161 26 170 27T191 35Q207 44 218 59V19Q212 14 205 10T191 3Q180 -2 170 -3T151 -4Q124 -4 110 1T91 10Q72 23 67 40T62 74V306H0L6 336H62V406H0L6 436H62V648Q62 664 65 679T86 708Q102 721 120 723T151 726Q162 726 173 724T197 716Q207 711 213 705T224 692L216 654Z"  />
<glyph unicode="&#x2122;" horiz-adv-x="990" d="M765 366V692L636 366H611L483 692V366H458V722H498L624 401L751 722H790V366H765ZM255 697V366H228V697H98V722H384V697H255Z"  />

</font>
</defs>
</svg>
