<svg xmlns="http://www.w3.org/2000/svg">
<defs>
<font horiz-adv-x="723" id="3a3fa643-fe37-47d2-bcbc-b3442fc9c037">
<font-face font-family="" panose-1="2 11 10 5 3 5 2 3 2 4" ascent="939" descent="-211" units-per-em="1000" alphabetic="0">
</font-face>
<missing-glyph horiz-adv-x="0" />

<glyph unicode="&#xA;" />
<glyph unicode="&#xD;" horiz-adv-x="0" />
<glyph unicode=" " horiz-adv-x="370" />
<glyph unicode="!" horiz-adv-x="520" d="M339 213H181L149 722H371L339 213ZM167 154H353V0H167V154Z"  />
<glyph unicode="&quot;" horiz-adv-x="667" d="M365 722H487V482H365V722ZM180 722H302V482H180V722Z"  />
<glyph unicode="#" horiz-adv-x="740" d="M119 303H207L220 395H148V511H236L262 698H384L358 511H427L453 698H575L549 511H621V395H533L520 303H592V187H504L478 0H356L382 187H313L287 0H165L191 187H119V303ZM411 395H342L329 303H398L411 395Z"  />
<glyph unicode="$" horiz-adv-x="740" d="M330 -19Q230 -16 169 6T75 64T30 143T18 234H228Q229 175 253 151T330 121V287L277 297Q232 306 189 319T111 356T55 415T33 502Q33 564 58 608T124 680T219 723T330 741V810H402V741Q489 738 546 722T639 677T689 608T707 516H503Q501 540 492 555T470 581T439 595T402 601V449L483 432Q532 422 576 408T652 369T703 309T722 219Q722 150 694 106T619 35T516 -4T402 -19V-97H330V-19ZM402 121Q438 124 459 132T492 151T508 174T512 197Q512 229 484 245T402 272V121ZM330 601Q284 593 264 574T243 530Q243 503 267 489T330 465V601Z"  />
<glyph unicode="%" horiz-adv-x="1185" d="M86 527Q86 622 141 669T297 717Q397 717 452 670T508 527Q508 428 453 383T297 337Q197 337 142 382T86 527ZM677 171Q677 266 732 313T888 361Q988 361 1043 314T1099 171Q1099 72 1044 27T888 -19Q788 -19 733 26T677 171ZM808 722H924L378 -24H262L808 722ZM220 527Q220 507 223 487T236 452T260 427T297 417Q319 417 334 426T358 451T370 486T374 526Q374 547 371 566T358 602T334 627T297 637Q275 637 260 628T236 603T224 567T220 527ZM811 171Q811 151 814 131T827 96T851 71T888 61Q910 61 925 70T949 95T961 130T965 170Q965 191 962 210T949 246T925 271T888 281Q866 281 851 272T827 247T815 211T811 171Z"  />
<glyph unicode="&amp;" horiz-adv-x="1037" d="M691 48Q634 10 561 -4T399 -19Q301 -19 236 1T130 53T74 122T57 192Q57 233 68 264T103 320T164 362T252 397Q210 428 184 469T158 561Q158 601 176 634T230 691T316 728T431 741Q492 741 539 727T617 687T665 630T681 564Q681 530 668 502T635 451T589 410T537 379L697 259Q712 274 725 295T748 342T764 393T772 444H958Q956 406 947 364T920 282T879 209T825 154L1019 0H741L691 48ZM368 304Q351 298 332 290T298 269T272 240T261 203Q261 180 273 164T306 137T354 121T413 115Q459 115 493 123T565 146L368 304ZM350 551Q350 522 372 499T422 456Q438 464 454 473T482 493T503 519T511 551Q511 585 486 599T425 613Q386 613 368 595T350 551Z"  />
<glyph unicode="&apos;" horiz-adv-x="370" d="M124 722H246V482H124V722Z"  />
<glyph unicode="(" horiz-adv-x="444" d="M389 741Q361 701 335 649T288 538T256 419T243 302Q243 243 256 183T289 65T336 -44T389 -137H243Q207 -86 176 -31T122 80T86 192T73 302Q73 364 88 423T127 537T181 644T243 741H389Z"  />
<glyph unicode=")" horiz-adv-x="444" d="M55 -137Q83 -97 109 -45T156 66T188 185T201 302Q201 361 188 421T155 539T108 648T55 741H201Q237 690 268 635T322 524T358 412T371 302Q371 240 356 181T317 67T263 -40T201 -137H55Z"  />
<glyph unicode="*" horiz-adv-x="519" d="M287 574L289 572L394 672L453 572L316 529V527L453 484L394 384L289 484L287 482L319 334H200L232 482L230 484L125 384L66 484L203 527V529L66 572L125 672L230 572L232 574L200 722H319L287 574Z"  />
<glyph unicode="+" horiz-adv-x="600" d="M233 186H47V320H233V506H367V320H553V186H367V0H233V186Z"  />
<glyph unicode="&#x2c;" horiz-adv-x="370" d="M111 154H315L180 -121H26L111 154Z"  />
<glyph unicode="-" horiz-adv-x="444" d="M66 331H378V203H66V331Z"  />
<glyph unicode="." horiz-adv-x="370" d="M92 154H278V0H92V154Z"  />
<glyph unicode="/" horiz-adv-x="444" d="M291 741H437L153 -19H7L291 741Z"  />
<glyph unicode="0" horiz-adv-x="740" d="M40 349Q40 435 62 503T126 619T229 692T370 717Q449 717 510 692T614 620T678 504T700 349Q700 263 678 195T614 79T511 6T370 -19Q291 -19 230 6T126 78T62 194T40 349ZM244 349Q244 294 250 250T272 174T311 126T370 109Q405 109 429 126T468 174T489 249T496 349Q496 404 490 448T468 524T429 572T370 589Q335 589 311 572T272 524T251 449T244 349Z"  />
<glyph unicode="1" horiz-adv-x="740" d="M329 510Q302 492 279 480T234 458T186 440T130 421V588Q162 597 194 610T257 639T314 669T363 698H527V0H329V510Z"  />
<glyph unicode="2" horiz-adv-x="740" d="M57 148Q126 191 200 233T336 318T436 404T476 495Q476 517 468 533T447 561T416 577T379 583Q321 583 297 555T271 482H73Q73 544 94 588T153 661T246 703T369 717Q441 717 498 703T596 660T658 590T680 494Q680 451 662 412T613 339T543 274T463 219T381 175T308 142V140H683V0H57V148Z"  />
<glyph unicode="3" horiz-adv-x="740" d="M309 422H353Q388 422 410 431T444 452T461 479T466 506Q466 529 457 545T433 570T399 584T360 589Q345 589 329 585T300 571T276 548T264 514H66Q69 574 95 613T162 676T255 708T362 717Q444 717 502 701T598 657T653 595T670 523Q670 451 627 414T501 360V358Q539 355 572 344T631 311T670 260T685 189Q685 130 658 90T587 26T485 -8T366 -19Q295 -19 236 -9T134 27T68 96T43 205H247Q247 179 256 161T280 131T317 114T362 109Q383 109 404 113T443 129T470 158T481 202Q481 230 470 248T441 276T399 290T352 294H309V422Z"  />
<glyph unicode="4" horiz-adv-x="740" d="M403 145H25V311L361 698H589V273H715V145H589V0H403V145ZM403 570H401L171 275V273H403V570Z"  />
<glyph unicode="5" horiz-adv-x="740" d="M95 698H628V558H266L255 393Q287 425 331 443T431 462Q481 462 527 448T608 404T664 330T685 225Q685 156 657 109T584 34T481 -7T366 -19Q304 -19 248 -10T149 22T81 86T55 191H253Q257 153 284 131T356 109Q390 109 415 118T456 143T479 177T487 218Q487 270 456 302T368 334Q330 334 304 319T264 271H72L95 698Z"  />
<glyph unicode="6" horiz-adv-x="740" d="M473 522Q466 558 441 573T377 589Q304 589 272 541T240 407Q277 435 325 450T426 466Q476 466 524 452T609 407T669 331T692 223Q692 159 664 113T592 38T491 -5T379 -19Q308 -19 256 -5T167 36T107 97T71 172T53 257T48 346Q48 431 66 499T124 616T226 691T379 717Q470 717 525 700T612 655T655 592T671 522H473ZM488 219Q488 248 479 269T453 304T416 325T370 332Q347 332 326 326T289 306T262 273T252 225Q252 175 283 145T370 115Q426 115 457 142T488 219Z"  />
<glyph unicode="7" horiz-adv-x="740" d="M469 550H57V698H667V544L357 0H124L469 550Z"  />
<glyph unicode="8" horiz-adv-x="740" d="M40 185Q40 228 54 258T92 309T150 341T221 360V362Q188 366 159 378T108 410T72 458T59 521Q59 583 90 621T169 681T270 709T370 717Q415 717 469 710T571 681T649 622T681 521Q681 486 668 458T633 410T581 378T519 362V360Q557 353 590 341T647 309T686 259T700 185Q700 121 669 82T589 20T482 -11T370 -19Q316 -19 258 -11T152 19T72 81T40 185ZM238 204Q238 178 249 160T278 131T320 115T370 109Q396 109 420 114T462 131T491 160T502 204Q502 229 491 247T462 277T420 293T370 299Q344 299 320 294T278 277T249 248T238 204ZM257 505Q257 461 288 441T370 421Q420 421 451 441T483 505Q483 549 452 569T370 589Q320 589 289 569T257 505Z"  />
<glyph unicode="9" horiz-adv-x="740" d="M271 185Q272 164 279 151T301 129Q315 121 332 118T370 115Q391 115 411 120T449 140T478 180T494 247L500 305Q458 275 409 264T306 252Q255 252 209 267T126 312T69 382T48 473Q48 536 74 582T144 658T242 702T353 717Q459 717 525 688T629 610T679 496T692 359Q692 273 675 204T618 85T516 8T362 -19Q310 -19 258 -10T164 22T95 84T67 185H271ZM252 481Q252 456 261 438T286 409T322 392T367 386Q424 386 453 413T483 483Q483 510 474 529T448 560T410 577T363 583Q343 583 324 578T288 561T262 530T252 481Z"  />
<glyph unicode=":" horiz-adv-x="370" d="M92 154H278V0H92V154ZM92 502H278V348H92V502Z"  />
<glyph unicode=";" horiz-adv-x="370" d="M111 154H315L180 -121H26L111 154ZM92 502H278V348H92V502Z"  />
<glyph unicode="&lt;" horiz-adv-x="600" d="M553 380L217 253L553 126V-8L47 189V317L553 514V380Z"  />
<glyph unicode="=" horiz-adv-x="600" d="M47 442H553V308H47V442ZM47 198H553V64H47V198Z"  />
<glyph unicode="&gt;" horiz-adv-x="600" d="M47 126L383 253L47 380V514L553 317V189L47 -8V126Z"  />
<glyph unicode="?" horiz-adv-x="741" d="M139 717Q154 720 177 724T229 732T290 738T354 741Q415 741 474 732T579 699T654 638T682 541Q682 509 670 482T639 431T593 388T539 352Q510 336 490 324T458 297T439 264T432 213H252Q256 258 258 284T269 330T299 366T361 413Q373 421 393 434T431 462T464 496T478 532Q478 552 465 566T430 590T381 603T323 607Q302 607 278 605T228 599T180 590T139 577V717ZM249 154H435V0H249V154Z"  />
<glyph unicode="@" horiz-adv-x="800" d="M529 544H625L580 301Q578 295 576 282T574 263Q574 256 577 251T588 246Q600 246 615 255T643 283T666 332T676 406Q676 466 656 509T600 581T517 623T416 637Q354 637 302 616T211 558T152 470T130 360Q130 296 152 245T214 159T304 104T412 85Q485 85 533 100T619 143H735Q681 62 602 22T412 -19Q328 -19 257 9T133 87T50 207T20 360Q20 451 51 522T135 642T262 716T419 741Q503 741 569 718T683 654T755 558T780 438Q780 380 765 336T724 257T669 200T609 163T555 143T515 136Q490 136 475 149T457 188H455Q441 165 416 151T352 136Q312 136 280 151T226 192T192 251T180 321Q180 371 196 415T240 491T308 543T395 562Q433 562 464 548T519 502L529 544ZM314 337Q314 308 330 286T386 264Q406 264 423 272T454 293T474 324T482 361Q482 392 463 413T409 434Q387 434 370 426T340 405T321 374T314 337Z"  />
<glyph unicode="A" horiz-adv-x="1037" d="M397 722H648L1023 0H788L720 143H300L230 0H14L397 722ZM513 582L365 277H656L513 582Z"  />
<glyph unicode="B" horiz-adv-x="889" d="M100 722H525Q597 722 648 707T731 668T779 611T794 544Q794 482 753 437T641 375V373Q683 369 717 355T775 319T812 266T825 202Q825 165 811 129T762 65T670 18T526 0H100V722ZM304 134H492Q517 134 538 138T575 151T600 176T609 216Q609 238 600 254T575 280T541 294T502 299H304V134ZM304 427H435Q503 427 540 446T578 508Q578 553 546 570T452 588H304V427Z"  />
<glyph unicode="C" horiz-adv-x="889" d="M628 485Q624 515 611 535T576 569T529 587T472 593Q421 593 383 576T319 529T282 456T269 365Q269 317 280 274T314 199T375 148T466 129Q496 129 524 134T573 153T609 189T626 245H848Q845 165 812 114T725 34T599 -7T445 -19Q364 -19 293 2T168 69T84 187T53 360Q53 462 83 534T169 652T303 719T479 741Q548 741 613 728T729 685T811 606T844 485H628Z"  />
<glyph unicode="D" horiz-adv-x="963" d="M100 722H501Q573 722 639 710T761 662Q829 617 869 542T910 368Q910 272 878 202T795 87Q748 47 673 24T486 0H100V722ZM310 140H405Q469 140 522 147T613 177T672 245T694 364Q694 428 676 470T625 537T545 572T440 582H310V140Z"  />
<glyph unicode="E" horiz-adv-x="815" d="M100 722H720V574H310V440H698V292H310V148H729V0H100V722Z"  />
<glyph unicode="F" horiz-adv-x="741" d="M94 722H679V568H304V418H658V270H304V0H94V722Z"  />
<glyph unicode="G" horiz-adv-x="963" d="M483 397H866V15Q778 1 690 -9T512 -19Q414 -19 331 0T185 63T88 176T53 347Q53 450 85 524T175 647T315 718T497 741Q565 741 631 729T751 689T839 613T876 493H660Q659 523 646 543T611 576T560 595T498 601Q435 601 392 583T321 532T281 458T269 366Q269 246 333 184T525 121Q563 121 602 126T674 139V263H483V397Z"  />
<glyph unicode="H" horiz-adv-x="963" d="M94 722H304V435H659V722H869V0H659V287H304V0H94V722Z"  />
<glyph unicode="I" horiz-adv-x="370" d="M80 722H290V0H80V722Z"  />
<glyph unicode="J" horiz-adv-x="741" d="M647 274Q647 193 626 138T564 47T463 -3T325 -19Q253 -19 194 -4T94 42T31 122T8 237V252H218Q221 193 243 161T327 129Q351 129 371 136T406 160T429 205T437 275V722H647V274Z"  />
<glyph unicode="K" horiz-adv-x="889" d="M100 722H310V403L602 722H855L539 398L878 0H606L312 372H310V0H100V722Z"  />
<glyph unicode="L" horiz-adv-x="741" d="M100 722H310V148H718V0H100V722Z"  />
<glyph unicode="M" horiz-adv-x="1259" d="M92 722H416L629 186L854 722H1167V0H969V588H967L728 0H512L272 588H270V0H92V722Z"  />
<glyph unicode="N" horiz-adv-x="963" d="M85 722H361L690 202H692V722H878V0H600L273 520H271V0H85V722Z"  />
<glyph unicode="O" horiz-adv-x="964" d="M53 361Q53 443 77 512T154 633T287 712T482 741Q595 741 676 713T810 633T886 513T911 361Q911 279 887 210T810 89T677 10T482 -19Q369 -19 288 9T154 89T78 209T53 361ZM269 361Q269 313 280 271T315 198T381 148T482 129Q542 129 583 147T648 197T684 271T695 361Q695 409 684 451T649 524T583 574T482 593Q422 593 381 575T316 525T280 451T269 361Z"  />
<glyph unicode="P" horiz-adv-x="815" d="M94 722H497Q558 722 610 708T700 665T759 592T781 485Q781 431 764 388T709 316T613 272T473 256H304V0H94V722ZM304 396H433Q463 396 487 400T528 414T555 443T565 488Q565 535 536 558T449 582H304V396Z"  />
<glyph unicode="Q" horiz-adv-x="963" d="M957 0H800Q743 0 698 -2T614 -9Q576 -13 544 -16T482 -19Q369 -19 288 9T154 89T78 209T53 361Q53 443 77 512T154 633T287 712T482 741Q595 741 676 711T810 630T886 517T911 390Q911 299 874 227T769 110L771 108Q804 122 837 131T916 140H957V0ZM269 361Q269 313 280 271T315 198T381 148T482 129Q542 129 583 147T648 197T684 271T695 361Q695 409 684 451T649 524T583 574T482 593Q422 593 381 575T316 525T280 451T269 361Z"  />
<glyph unicode="R" horiz-adv-x="889" d="M100 722H541Q672 722 743 675T814 533Q814 498 801 470T763 419T705 381T631 358V356Q677 353 716 340T773 293Q786 268 794 230T809 150T823 68T842 0H619Q610 26 606 57T598 119T590 177T579 224Q569 249 541 261T450 274H310V0H100V722ZM310 414H477Q549 414 576 435T604 499Q604 525 594 541T564 567T515 579T448 582H310V414Z"  />
<glyph unicode="S" horiz-adv-x="815" d="M265 234Q266 199 274 178T300 143T343 126T407 121Q453 121 481 128T525 147T545 171T550 197Q550 233 515 249T417 277L314 297Q269 306 226 319T148 356T92 415T70 502Q70 568 98 614T172 688T278 728T399 741Q498 741 563 726T668 683T725 612T745 516H541Q539 544 528 560T498 586T458 598T412 601Q343 601 312 581T280 530Q280 512 291 500T322 479T368 464T423 452L520 432Q569 422 613 408T689 369T741 309T760 219Q760 144 726 97T638 25T521 -10T395 -19Q286 -19 219 2T116 59T67 140T55 234H265Z"  />
<glyph unicode="T" horiz-adv-x="816" d="M303 574H25V722H791V574H513V0H303V574Z"  />
<glyph unicode="U" horiz-adv-x="963" d="M872 330Q872 236 847 170T772 62T649 1T482 -19Q387 -19 315 -1T192 55T117 155T91 302V722H301V317Q301 219 347 174T482 129Q534 129 568 144T624 188T653 256T662 343V722H872V330Z"  />
<glyph unicode="V" horiz-adv-x="889" d="M571 0H319L14 722H242L452 134L671 722H875L571 0Z"  />
<glyph unicode="W" horiz-adv-x="1259" d="M1035 0H781L634 568H632L476 0H218L14 722H234L353 148H355L519 722H772L916 148H918L1047 722H1245L1035 0Z"  />
<glyph unicode="X" horiz-adv-x="963" d="M347 376L37 722H314L496 492L674 722H924L614 376L949 0H665L468 252L272 0H14L347 376Z"  />
<glyph unicode="Y" horiz-adv-x="888" d="M339 257L14 722H272L457 414L640 722H874L549 257V0H339V257Z"  />
<glyph unicode="Z" horiz-adv-x="815" d="M51 186L502 574H81V722H753V530L307 148H764V0H51V186Z"  />
<glyph unicode="[" horiz-adv-x="444" d="M93 741H375V625H245V-21H375V-137H93V741Z"  />
<glyph unicode="\" horiz-adv-x="444" d="M437 -19H291L7 741H153L437 -19Z"  />
<glyph unicode="]" horiz-adv-x="444" d="M351 -137H69V-21H199V625H69V741H351V-137Z"  />
<glyph unicode="^" horiz-adv-x="600" d="M239 698H361L535 333H401L300 558L199 333H65L239 698Z"  />
<glyph unicode="_" horiz-adv-x="500" d="M0 -75H500V-125H0V-75Z"  />
<glyph unicode="`" horiz-adv-x="370" d="M294 582H136L-28 722H182L294 582Z"  />
<glyph unicode="a" horiz-adv-x="741" d="M67 354Q71 403 98 435T166 487T256 513T356 521Q429 521 486 511T583 476T643 410T664 304V112Q664 84 665 56T668 0H482Q480 13 479 37T478 81H476Q459 52 435 33T383 3T323 -14T259 -19Q151 -19 92 23T32 144Q32 233 111 275T332 317H472Q472 377 444 397T359 417Q306 417 286 399T265 354H67ZM392 219Q344 219 314 213T266 197T242 173T236 143Q236 120 257 106T319 91Q366 91 395 103T442 135T465 177T472 219H392Z"  />
<glyph unicode="b" horiz-adv-x="815" d="M81 722H273V436Q288 451 307 466T353 493T412 513T487 521Q550 521 602 503T691 450T750 366T771 254Q771 189 750 139T692 53T603 0T492 -19Q445 -19 410 -11T349 12T303 45T267 83Q267 62 266 42T263 0H77Q79 20 80 40T81 83V722ZM567 254Q567 287 557 314T527 362T481 394T422 405Q389 405 362 394T315 363T284 313T273 247Q273 214 284 186T315 139T362 108T422 97Q459 97 486 110T532 145T558 195T567 254Z"  />
<glyph unicode="c" horiz-adv-x="741" d="M697 188Q690 127 659 87T582 24T480 -9T369 -19Q313 -19 256 -6T151 39T74 122T44 249Q44 324 72 376T148 460T256 507T382 521Q433 521 485 512T581 481T654 420T691 324H493Q485 371 457 391T382 411Q317 411 283 366T248 252Q248 219 255 190T279 139T321 104T382 91Q430 91 460 115T493 188H697Z"  />
<glyph unicode="d" horiz-adv-x="815" d="M734 83Q734 60 735 40T738 0H552Q550 21 549 41T548 83Q531 63 512 45T466 13T405 -10T323 -19Q263 -19 212 -1T124 53T65 138T44 254Q44 316 64 365T122 449T212 502T328 521Q370 521 403 514T462 494T507 466T542 436V722H734V83ZM248 254Q248 224 256 196T283 145T328 110T393 97Q426 97 453 108T500 138T531 186T542 247Q542 283 531 312T500 362T453 394T393 405Q361 405 335 394T289 363T259 315T248 254Z"  />
<glyph unicode="e" horiz-adv-x="741" d="M242 204Q245 145 278 115T373 85Q404 85 424 91T455 106T472 128T482 153H686Q671 93 640 59T566 8T473 -14T370 -19Q305 -19 246 -6T142 37T71 118T44 243Q44 316 70 368T141 455T243 505T367 521Q459 521 522 499T623 436T679 336T697 204H242ZM493 308Q492 339 482 359T456 393T417 411T369 417Q336 417 314 408T277 382T256 347T245 308H493Z"  />
<glyph unicode="f" horiz-adv-x="519" d="M139 380H23V502H139Q139 575 156 619T206 688T291 720T412 728Q428 728 454 726T496 722V608Q485 610 472 611T444 612Q416 612 396 608T362 592T341 559T334 502H485V380H331V0H139V380Z"  />
<glyph unicode="g" horiz-adv-x="815" d="M542 109H540Q523 82 498 63T443 31T381 13T316 7Q256 7 206 27T119 81T63 163T43 264Q43 324 63 371T120 452T207 503T320 521Q395 521 451 496T546 422H548Q548 445 549 465T552 502H738Q736 487 735 466T734 422V76Q734 -13 708 -68T633 -156T519 -199T373 -211Q270 -211 211 -195T120 -154T78 -97T65 -33H269Q274 -56 284 -69T309 -89Q325 -97 343 -99T382 -101Q422 -101 452 -93T502 -66T532 -13T542 70V109ZM247 264Q247 206 285 168T392 129Q464 129 503 166T542 264Q542 296 530 321T498 363T450 390T390 399Q320 399 284 361T247 264Z"  />
<glyph unicode="h" horiz-adv-x="815" d="M81 722H273V416Q296 443 319 463T367 496T421 515T485 521Q552 521 599 503T677 453T720 378T734 286V0H542V257Q542 317 514 355T420 393Q390 393 364 382T317 349T285 295T273 221V0H81V722Z"  />
<glyph unicode="i" horiz-adv-x="370" d="M89 502H281V0H89V502ZM290 582H80V722H290V582Z"  />
<glyph unicode="j" horiz-adv-x="370" d="M-46 -70H-37Q2 -70 26 -67T65 -50T84 -10T89 62V502H281V34Q281 -29 267 -72T225 -142T151 -180T45 -192Q33 -192 19 -192T-9 -191T-32 -190T-46 -189V-70ZM290 582H80V722H290V582Z"  />
<glyph unicode="k" horiz-adv-x="815" d="M89 722H281V288L521 502H762L515 287L794 0H529L281 273V0H89V722Z"  />
<glyph unicode="l" horiz-adv-x="370" d="M89 722H281V0H89V722Z"  />
<glyph unicode="m" horiz-adv-x="1186" d="M81 399Q81 423 80 449T77 502H263Q265 479 266 457T267 412H269Q305 466 354 493T476 521Q533 521 581 495T656 408Q688 459 740 490T868 521Q908 521 950 512T1026 477T1083 405T1105 285V0H913V263Q913 291 907 315T889 356T856 383T806 393Q782 393 761 384T724 358T699 318T689 267V0H497V257Q497 285 493 310T478 353T446 382T393 393Q368 393 346 382T308 351T283 303T273 240V0H81V399Z"  />
<glyph unicode="n" horiz-adv-x="815" d="M81 399Q81 423 80 449T77 502H263Q265 479 266 457T267 412H269Q307 463 361 492T482 521Q551 521 599 503T677 453T720 378T734 286V0H542V257Q542 317 514 355T420 393Q390 393 364 382T317 349T285 295T273 221V0H81V399Z"  />
<glyph unicode="o" horiz-adv-x="816" d="M44 251Q44 296 61 343T120 430T232 495T408 521Q514 521 584 496T696 431T755 344T772 251Q772 206 755 159T696 72T584 7T408 -19Q302 -19 232 6T120 71T61 158T44 251ZM248 251Q248 212 260 183T294 133T345 102T408 91Q442 91 471 101T521 132T555 182T568 251Q568 290 556 319T522 369T471 400T408 411Q374 411 345 401T295 370T261 320T248 251Z"  />
<glyph unicode="p" horiz-adv-x="815" d="M81 419Q81 442 80 462T77 502H263Q265 481 266 461T267 419Q283 438 303 456T349 489T410 512T492 521Q552 521 603 503T691 449T750 363T771 248Q771 186 750 137T692 53T602 0T487 -19Q445 -19 412 -12T353 8T308 36T273 66V-192H81V419ZM567 248Q567 278 559 306T532 357T487 392T422 405Q389 405 362 394T315 364T284 316T273 255Q273 219 284 190T315 140T362 108T422 97Q454 97 480 108T526 139T556 187T567 248Z"  />
<glyph unicode="q" horiz-adv-x="815" d="M734 -192H542V66Q527 51 508 36T462 9T403 -11T328 -19Q265 -19 213 -1T123 52T65 136T44 248Q44 312 65 363T123 449T212 502T323 521Q370 521 405 513T466 490T511 457T548 419Q548 440 549 460T552 502H738Q736 482 735 462T734 419V-192ZM248 248Q248 215 258 188T288 140T334 108T393 97Q426 97 453 108T500 139T531 189T542 255Q542 288 531 316T500 363T453 394T393 405Q356 405 329 392T283 357T257 307T248 248Z"  />
<glyph unicode="r" horiz-adv-x="519" d="M81 399Q81 423 80 449T77 502H263Q265 475 266 448T267 394H269Q287 430 306 452T352 487T412 504T494 509V345Q483 347 472 348T443 349Q365 349 319 308T273 190V0H81V399Z"  />
<glyph unicode="s" horiz-adv-x="667" d="M240 157Q240 119 264 100Q275 91 291 88T327 85Q342 85 359 86T392 94T417 111T427 140Q427 153 420 162T400 177T373 187T343 193L210 214Q138 225 98 259T58 353Q58 407 85 440T154 491T243 515T332 521Q414 521 467 510T553 477T598 424T613 353H421Q419 373 412 385T396 404Q385 411 366 414T328 417Q316 417 304 415T281 407T263 393T256 373Q256 359 264 351T284 336T313 327T344 321L474 300Q557 286 591 250T625 150Q625 93 593 59T514 8T415 -14T320 -19Q226 -19 172 -2T90 41T54 98T42 157H240Z"  />
<glyph unicode="t" horiz-adv-x="519" d="M16 502H139V604L331 674V502H493V380H331V223Q331 197 333 177T345 144T371 123T417 116Q431 116 450 117T493 122V0Q479 -2 444 -7T364 -12Q253 -12 196 31T139 167V380H16V502Z"  />
<glyph unicode="u" horiz-adv-x="815" d="M734 103Q734 79 735 53T738 0H552Q550 23 549 45T548 90H546Q508 39 454 10T333 -19Q264 -19 216 -1T138 49T95 124T81 216V502H273V245Q273 185 301 147T395 109Q425 109 451 120T498 153T530 207T542 281V502H734V103Z"  />
<glyph unicode="v" horiz-adv-x="741" d="M489 0H252L15 502H231L384 110L540 502H726L489 0Z"  />
<glyph unicode="w" horiz-adv-x="1185" d="M958 0H733L593 386H591L452 0H227L15 502H231L350 128H352L484 502H721L855 128H857L986 502H1170L958 0Z"  />
<glyph unicode="x" horiz-adv-x="741" d="M240 265L43 502H291L382 359L484 502H706L506 265L726 0H478L359 176L231 0H15L240 265Z"  />
<glyph unicode="y" horiz-adv-x="741" d="M273 0L15 502H239L383 157L537 502H726L368 -192H164L273 0Z"  />
<glyph unicode="z" horiz-adv-x="667" d="M52 148L354 384V386H77V502H590V368L275 118V116H615V0H52V148Z"  />
<glyph unicode="{" horiz-adv-x="444" d="M41 360Q50 360 65 362T96 370T122 390T133 426V612Q133 646 145 670T176 710T220 733T268 741H378V625H343Q309 625 297 611T285 564V398Q285 371 273 353T244 325T208 309T175 303V301Q189 300 208 295T244 280T273 251T285 206V40Q285 8 297 -6T343 -21H378V-137H268Q244 -137 220 -130T177 -107T145 -67T133 -8V178Q133 200 122 213T96 233T66 242T41 244V360Z"  />
<glyph unicode="|" horiz-adv-x="222" d="M44 741H178V-19H44V741Z"  />
<glyph unicode="}" horiz-adv-x="444" d="M403 244Q394 244 379 242T348 234T322 214T311 178V-8Q311 -42 299 -66T268 -106T224 -129T176 -137H66V-21H101Q135 -21 147 -7T159 40V206Q159 233 171 251T200 279T236 295T269 301V303Q255 304 236 309T200 324T171 353T159 398V564Q159 596 147 610T101 625H66V741H176Q200 741 224 734T267 710T299 670T311 612V426Q311 403 322 390T348 371T378 362T403 360V244Z"  />
<glyph unicode="~" horiz-adv-x="600" d="M531 239Q520 223 508 208T481 180T448 159T406 151Q378 151 354 161T304 186Q280 200 252 210T189 221Q172 221 160 215T137 198T119 175T105 149L69 267Q77 283 88 298T115 326T149 347T194 355Q220 355 248 345T305 321Q333 309 360 297T407 285Q422 285 434 291T457 308T477 331T495 357L531 239Z"  />
<glyph unicode="&#xA0;" horiz-adv-x="370" />
<glyph unicode="&#xA1;" horiz-adv-x="520" d="M181 317H339L371 -192H149L181 317ZM167 530H353V376H167V530Z"  />
<glyph unicode="&#xA2;" horiz-adv-x="740" d="M258 -6Q216 4 177 24T109 75T62 149T44 249Q44 324 72 376T148 460T256 507T382 521Q394 521 406 521T431 519L469 633H527L487 512Q525 504 560 490T622 454T668 399T691 324H493Q484 374 449 396L349 95Q362 91 382 91Q430 91 460 115T493 188H697Q690 127 659 87T582 24T480 -9T369 -19Q340 -19 312 -16L274 -131H216L258 -6ZM395 410Q392 411 389 411T382 411Q317 411 283 366T248 252Q248 210 260 176T299 119L395 410Z"  />
<glyph unicode="&#xA3;" horiz-adv-x="740" d="M67 140H149V308H52V442H149V487Q149 560 166 608T220 686T310 728T438 741Q484 741 531 734T618 707T684 651T712 556H508Q507 590 487 608Q469 625 433 625Q415 625 400 618T372 595T354 553T347 486V442H514V308H347V140H706V0H67V140Z"  />
<glyph unicode="&#xA4;" horiz-adv-x="740" d="M169 206Q146 235 134 272T122 349Q122 388 134 424T169 492L109 549L168 608L228 549Q257 572 293 584T370 597Q410 597 446 585T512 549L572 608L631 549L571 492Q594 461 606 425T618 349Q618 309 606 272T571 206L631 149L572 90L512 149Q483 126 447 114T370 101Q330 101 294 113T228 149L168 90L109 149L169 206ZM244 349Q244 321 253 296T278 252T318 222T370 211Q398 211 421 222T461 252T487 296T496 349Q496 377 487 402T462 446T422 476T370 487Q342 487 319 476T279 446T253 402T244 349Z"  />
<glyph unicode="&#xA5;" horiz-adv-x="740" d="M282 127H98V225H282V257L259 296H98V394H202L12 722H228L380 414L533 722H728L538 394H642V296H481L458 257V225H642V127H458V0H282V127Z"  />
<glyph unicode="&#xA6;" horiz-adv-x="222" d="M44 274H178V-19H44V274ZM44 741H178V448H44V741Z"  />
<glyph unicode="&#xA7;" horiz-adv-x="741" d="M621 557Q598 568 566 579T500 599T433 613T374 619Q339 619 324 610T309 584Q309 573 318 565T341 550T371 538T404 528L505 499Q529 492 559 482T615 456T658 418T676 363Q676 333 664 313T632 277T587 252T538 234V232Q560 229 582 217T621 186T650 146T661 100Q661 48 634 18T567 -29T480 -49T394 -54Q317 -54 243 -39T98 0V140Q125 127 158 114T228 91T299 75T364 68Q406 68 428 75T451 109Q451 131 431 141T389 156L265 186Q238 192 204 202T139 230T87 273T65 334Q65 362 76 383T108 421T157 450T219 474V476Q197 484 176 494T137 518T110 551T99 598Q99 647 124 675T188 718T271 737T351 741Q428 741 494 726T621 691V557ZM269 361Q269 350 276 342T292 327T313 316T332 309Q340 307 351 304T374 297T396 292T411 290Q412 290 421 294T442 305T462 324T472 349Q472 370 453 380T413 399Q411 400 400 403T376 410T352 417T339 420Q335 420 324 416T300 403T279 384T269 361Z"  />
<glyph unicode="&#xA8;" horiz-adv-x="370" d="M-27 722H131V582H-27V722ZM239 722H397V582H239V722Z"  />
<glyph unicode="&#xA9;" horiz-adv-x="800" d="M20 361Q20 440 50 509T131 629T252 711T400 741Q479 741 548 711T668 630T750 509T780 361Q780 282 750 213T669 93T548 11T400 -19Q321 -19 252 11T132 92T50 213T20 361ZM148 361Q148 307 167 260T220 178T300 123T400 103Q454 103 500 123T579 178T632 260T652 361Q652 415 633 462T580 544T500 599T400 619Q346 619 300 599T221 544T168 462T148 361ZM588 307Q581 268 564 239T523 190T468 160T405 150Q359 150 322 166T257 210T216 277T201 361Q201 406 215 445T255 512T318 556T403 572Q472 572 520 534T582 421H484Q472 480 406 480Q361 480 339 448T317 361Q317 310 341 276T405 242Q437 242 458 257T484 307H588Z"  />
<glyph unicode="&#xAA;" horiz-adv-x="482" d="M306 446H304Q284 412 245 400T164 387Q135 387 109 392T62 410T31 440T19 484Q19 523 40 545T92 578T161 591T232 594H306Q306 626 287 637T234 649Q203 649 191 640T177 619H43Q45 647 62 666T107 696Q135 708 167 712T232 717Q280 717 318 711T384 690T425 650T440 586V463Q440 428 443 397H306V446ZM272 526Q206 526 183 518T159 490Q159 476 170 468T211 460Q239 460 257 467T287 484T302 505T306 526H272Z"  />
<glyph unicode="&#xAB;" horiz-adv-x="667" d="M219 267L336 72H170L48 267L170 462H336L219 267ZM478 267L595 72H429L307 267L429 462H595L478 267Z"  />
<glyph unicode="&#xAC;" horiz-adv-x="600" d="M419 308H47V442H553V126H419V308Z"  />
<glyph unicode="&#xAD;" horiz-adv-x="444" d="M66 331H378V203H66V331Z"  />
<glyph unicode="&#xAE;" horiz-adv-x="800" d="M20 361Q20 440 50 509T131 629T252 711T400 741Q479 741 548 711T668 630T750 509T780 361Q780 282 750 213T669 93T548 11T400 -19Q321 -19 252 11T132 92T50 213T20 361ZM148 361Q148 307 167 260T220 178T300 123T400 103Q454 103 500 123T579 178T632 260T652 361Q652 415 633 462T580 544T500 599T400 619Q346 619 300 599T221 544T168 462T148 361ZM250 564H399Q481 564 525 538T570 442Q570 414 562 395T542 363T515 344T484 336L564 178H465L388 331H342V178H250V564ZM342 405H413Q442 405 457 415T472 448Q472 471 455 480T406 490H342V405Z"  />
<glyph unicode="&#xAF;" horiz-adv-x="370" d="M-29 701H399V603H-29V701Z"  />
<glyph unicode="&#xB0;" horiz-adv-x="400" d="M57 574Q57 604 68 630T98 675T144 706T200 717Q230 717 256 706T301 676T332 630T343 574Q343 544 332 518T302 473T256 442T200 431Q170 431 144 442T99 472T68 518T57 574ZM119 574Q119 540 142 517T200 493Q234 493 257 516T281 574Q281 608 258 631T200 655Q166 655 143 632T119 574Z"  />
<glyph unicode="&#xB1;" horiz-adv-x="600" d="M233 506H367V400H553V266H367V160H233V266H47V400H233V506ZM47 134H553V0H47V134Z"  />
<glyph unicode="&#xB2;" horiz-adv-x="481" d="M36 377Q81 402 128 426T215 476T280 527T305 580Q305 605 288 618T245 631Q209 631 194 615T177 576H43Q43 650 97 683T239 717Q285 717 323 708T388 682T430 640T445 583Q445 544 419 511T356 451T279 406T212 379V377H445V285H36V377Z"  />
<glyph unicode="&#xB3;" horiz-adv-x="481" d="M203 545H231Q253 545 267 549T288 561T299 576T302 591Q302 612 283 621T236 631Q213 631 197 621T177 589H43Q44 628 61 652T106 691T167 711T237 717Q291 717 329 708T393 682T430 644T442 601Q442 577 433 560T407 532T371 515T328 504V502Q352 500 374 494T414 475T441 443T451 398Q451 363 433 339T386 301T318 280T240 274Q193 274 155 280T89 303T46 346T30 414H170Q170 386 187 372Q203 360 237 360Q264 360 287 371T311 406Q311 423 305 433T287 449T262 457T230 459H203V545Z"  />
<glyph unicode="&#xB4;" horiz-adv-x="370" d="M188 722H398L234 582H76L188 722Z"  />
<glyph unicode="&#xB5;" horiz-adv-x="815" d="M734 103Q734 79 735 53T738 0H552Q550 23 549 45T548 90H546Q508 39 459 10T366 -19Q331 -19 308 -8T275 20H273V-192H81V502H273V245Q273 185 301 147T395 109Q425 109 451 120T498 153T530 207T542 281V502H734V103Z"  />
<glyph unicode="&#xB6;" horiz-adv-x="620" d="M241 373Q132 373 75 418T18 544Q18 598 37 632T89 687T167 714T264 722H578V-35H444V618H375V-35H241V373Z"  />
<glyph unicode="&#xB7;" horiz-adv-x="370" d="M65 241Q65 266 74 287T100 325T138 351T185 361Q210 361 231 352T269 326T295 288T305 241Q305 216 296 195T270 157T232 131T185 121Q160 121 139 130T101 156T75 194T65 241Z"  />
<glyph unicode="&#xB8;" horiz-adv-x="370" d="M64 -139Q87 -147 111 -151T159 -155Q166 -155 174 -154T189 -150T201 -140T206 -124Q206 -108 190 -101T156 -94Q130 -94 112 -100L88 -71L168 9H242L175 -55L177 -57Q196 -50 221 -50Q242 -50 261 -55T295 -71T319 -96T328 -129Q328 -154 314 -170T278 -195T227 -207T170 -211Q162 -211 148 -211T116 -208T79 -202T42 -192L64 -139Z"  />
<glyph unicode="&#xB9;" horiz-adv-x="481" d="M205 589Q187 578 172 571T143 558T112 547T76 536V640Q118 651 158 670T228 706H339V285H205V589Z"  />
<glyph unicode="&#xBA;" horiz-adv-x="530" d="M26 552Q26 580 37 609T75 662T149 701T265 717Q335 717 381 702T454 663T493 611T504 555Q504 525 493 495T455 441T381 402T265 387Q195 387 149 402T76 441T37 494T26 552ZM166 552Q166 505 195 483T265 461Q306 461 335 483T364 552Q364 598 336 620T265 643Q223 643 195 621T166 552Z"  />
<glyph unicode="&#xBB;" horiz-adv-x="667" d="M448 267L331 462H497L619 267L497 72H331L448 267ZM189 267L72 462H238L360 267L238 72H72L189 267Z"  />
<glyph unicode="&#xBC;" horiz-adv-x="1111" d="M845 83H601V188L813 421H973V169H1049V83H973V0H845V83ZM675 753H785L343 -55H233L675 753ZM191 589Q173 578 158 571T129 558T98 547T62 536V640Q104 651 144 670T214 706H325V285H191V589ZM845 335H843L699 171V169H845V335Z"  />
<glyph unicode="&#xBD;" horiz-adv-x="1111" d="M631 92Q676 117 723 141T810 191T875 242T900 295Q900 320 883 333T840 346Q804 346 789 330T772 291H638Q638 365 692 398T834 432Q880 432 918 423T983 397T1025 355T1040 298Q1040 259 1014 226T951 166T874 121T807 94V92H1040V0H631V92ZM654 753H764L322 -55H212L654 753ZM200 589Q182 578 167 571T138 558T107 547T71 536V640Q113 651 153 670T223 706H334V285H200V589Z"  />
<glyph unicode="&#xBE;" horiz-adv-x="1111" d="M868 83H624V188L836 421H996V169H1072V83H996V0H868V83ZM212 545H240Q262 545 276 549T297 561T308 576T311 591Q311 612 292 621T245 631Q222 631 206 621T186 589H52Q53 628 70 652T115 691T176 711T246 717Q300 717 338 708T402 682T439 644T451 601Q451 577 442 560T416 532T380 515T337 504V502Q361 500 383 494T423 475T450 443T460 398Q460 363 442 339T395 301T327 280T249 274Q202 274 164 280T98 303T55 346T39 414H179Q179 386 196 372Q212 360 246 360Q273 360 296 371T320 406Q320 423 314 433T296 449T271 457T239 459H212V545ZM738 753H848L406 -55H296L738 753ZM868 335H866L722 171V169H868V335Z"  />
<glyph unicode="&#xBF;" horiz-adv-x="741" d="M602 -187Q587 -190 564 -194T512 -202T451 -208T387 -211Q325 -211 267 -202T162 -169T87 -108T59 -11Q59 20 71 48T102 99T148 142T202 178Q231 194 251 206T283 233T302 266T309 317H489Q485 272 483 246T472 200T442 163T380 117Q368 109 348 96T310 68T277 34T263 -2Q263 -22 276 -36T311 -60T360 -73T418 -77Q439 -77 463 -75T513 -69T561 -60T602 -47V-187ZM492 376H306V530H492V376Z"  />
<glyph unicode="&#xC0;" horiz-adv-x="1037" d="M397 722H648L1023 0H788L720 143H300L230 0H14L397 722ZM513 582L365 277H656L513 582ZM628 773H470L306 913H516L628 773Z"  />
<glyph unicode="&#xC1;" horiz-adv-x="1037" d="M397 722H648L1023 0H788L720 143H300L230 0H14L397 722ZM513 582L365 277H656L513 582ZM522 913H732L568 773H410L522 913Z"  />
<glyph unicode="&#xC2;" horiz-adv-x="1037" d="M397 722H648L1023 0H788L720 143H300L230 0H14L397 722ZM513 582L365 277H656L513 582ZM415 913H622L752 773H594L519 851L444 773H286L415 913Z"  />
<glyph unicode="&#xC3;" horiz-adv-x="1037" d="M397 722H648L1023 0H788L720 143H300L230 0H14L397 722ZM749 913Q746 851 718 812T622 773Q600 773 572 779T515 791T462 804T423 810Q398 810 389 801T369 773H289Q292 835 320 874T416 913Q438 913 466 907T523 895T576 882T615 876Q640 876 649 885T669 913H749ZM513 582L365 277H656L513 582Z"  />
<glyph unicode="&#xC4;" horiz-adv-x="1037" d="M397 722H648L1023 0H788L720 143H300L230 0H14L397 722ZM513 582L365 277H656L513 582ZM307 913H465V773H307V913ZM573 913H731V773H573V913Z"  />
<glyph unicode="&#xC5;" horiz-adv-x="1037" d="M397 722H648L1023 0H788L720 143H300L230 0H14L397 722ZM377 834Q377 864 388 884T419 916T464 934T519 939Q547 939 573 934T618 917T649 884T661 834Q661 802 650 782T619 750T573 734T519 729Q490 729 465 733T420 749T389 781T377 834ZM513 582L365 277H656L513 582ZM463 834Q463 811 478 795T519 779Q544 779 559 795T575 834Q575 857 560 873T519 889Q494 889 479 873T463 834Z"  />
<glyph unicode="&#xC6;" horiz-adv-x="1333" d="M486 722H1231V574H789L827 440H1207V292H870L908 148H1247V0H736L698 148H331L243 0H14L486 722ZM588 594L423 288H659L588 594Z"  />
<glyph unicode="&#xC7;" horiz-adv-x="889" d="M424 -19Q347 -16 279 7T161 76T82 192T53 360Q53 462 83 534T169 652T303 719T479 741Q548 741 613 728T729 685T811 606T844 485H628Q624 515 611 535T576 569T529 587T472 593Q421 593 383 576T319 529T282 456T269 365Q269 317 280 274T314 199T375 148T466 129Q496 129 524 134T573 153T609 189T626 245H848Q845 171 817 122T742 43T632 -1T497 -18L458 -55L460 -57Q479 -50 504 -50Q525 -50 544 -55T578 -71T602 -96T611 -129Q611 -154 597 -170T561 -195T510 -207T453 -211Q445 -211 431 -211T399 -208T362 -202T325 -192L347 -139Q370 -147 394 -151T442 -155Q449 -155 457 -154T472 -150T484 -140T489 -124Q489 -108 473 -101T439 -94Q413 -94 395 -100L371 -71L424 -19Z"  />
<glyph unicode="&#xC8;" horiz-adv-x="815" d="M100 722H720V574H310V440H698V292H310V148H729V0H100V722ZM523 773H365L201 913H411L523 773Z"  />
<glyph unicode="&#xC9;" horiz-adv-x="815" d="M100 722H720V574H310V440H698V292H310V148H729V0H100V722ZM417 913H627L463 773H305L417 913Z"  />
<glyph unicode="&#xCA;" horiz-adv-x="815" d="M100 722H720V574H310V440H698V292H310V148H729V0H100V722ZM310 913H517L647 773H489L414 851L339 773H181L310 913Z"  />
<glyph unicode="&#xCB;" horiz-adv-x="815" d="M100 722H720V574H310V440H698V292H310V148H729V0H100V722ZM468 913H626V773H468V913ZM202 913H360V773H202V913Z"  />
<glyph unicode="&#xCC;" horiz-adv-x="370" d="M80 722H290V0H80V722ZM294 773H136L-28 913H182L294 773Z"  />
<glyph unicode="&#xCD;" horiz-adv-x="370" d="M80 722H290V0H80V722ZM188 913H398L234 773H76L188 913Z"  />
<glyph unicode="&#xCE;" horiz-adv-x="370" d="M80 722H290V0H80V722ZM81 913H288L418 773H260L185 851L110 773H-48L81 913Z"  />
<glyph unicode="&#xCF;" horiz-adv-x="370" d="M80 722H290V0H80V722ZM239 913H397V773H239V913ZM-27 913H131V773H-27V913Z"  />
<glyph unicode="&#xD0;" horiz-adv-x="963" d="M100 299H18V427H100V722H501Q573 722 639 710T761 662Q829 617 869 542T910 368Q910 272 878 202T795 87Q748 47 673 24T486 0H100V299ZM310 427H484V299H310V140H405Q469 140 522 147T613 177T672 245T694 364Q694 428 676 470T625 537T545 572T440 582H310V427Z"  />
<glyph unicode="&#xD1;" horiz-adv-x="963" d="M85 722H361L690 202H692V722H878V0H600L273 520H271V0H85V722ZM712 913Q709 851 681 812T585 773Q563 773 535 779T478 791T425 804T386 810Q361 810 352 801T332 773H252Q255 835 283 874T379 913Q401 913 429 907T486 895T539 882T578 876Q603 876 612 885T632 913H712Z"  />
<glyph unicode="&#xD2;" horiz-adv-x="964" d="M53 361Q53 443 77 512T154 633T287 712T482 741Q595 741 676 713T810 633T886 513T911 361Q911 279 887 210T810 89T677 10T482 -19Q369 -19 288 9T154 89T78 209T53 361ZM269 361Q269 313 280 271T315 198T381 148T482 129Q542 129 583 147T648 197T684 271T695 361Q695 409 684 451T649 524T583 574T482 593Q422 593 381 575T316 525T280 451T269 361ZM591 773H433L269 913H479L591 773Z"  />
<glyph unicode="&#xD3;" horiz-adv-x="964" d="M53 361Q53 443 77 512T154 633T287 712T482 741Q595 741 676 713T810 633T886 513T911 361Q911 279 887 210T810 89T677 10T482 -19Q369 -19 288 9T154 89T78 209T53 361ZM269 361Q269 313 280 271T315 198T381 148T482 129Q542 129 583 147T648 197T684 271T695 361Q695 409 684 451T649 524T583 574T482 593Q422 593 381 575T316 525T280 451T269 361ZM485 913H695L531 773H373L485 913Z"  />
<glyph unicode="&#xD4;" horiz-adv-x="964" d="M53 361Q53 443 77 512T154 633T287 712T482 741Q595 741 676 713T810 633T886 513T911 361Q911 279 887 210T810 89T677 10T482 -19Q369 -19 288 9T154 89T78 209T53 361ZM269 361Q269 313 280 271T315 198T381 148T482 129Q542 129 583 147T648 197T684 271T695 361Q695 409 684 451T649 524T583 574T482 593Q422 593 381 575T316 525T280 451T269 361ZM378 913H585L715 773H557L482 851L407 773H249L378 913Z"  />
<glyph unicode="&#xD5;" horiz-adv-x="964" d="M53 361Q53 443 77 512T154 633T287 712T482 741Q595 741 676 713T810 633T886 513T911 361Q911 279 887 210T810 89T677 10T482 -19Q369 -19 288 9T154 89T78 209T53 361ZM269 361Q269 313 280 271T315 198T381 148T482 129Q542 129 583 147T648 197T684 271T695 361Q695 409 684 451T649 524T583 574T482 593Q422 593 381 575T316 525T280 451T269 361ZM712 913Q709 851 681 812T585 773Q563 773 535 779T478 791T425 804T386 810Q361 810 352 801T332 773H252Q255 835 283 874T379 913Q401 913 429 907T486 895T539 882T578 876Q603 876 612 885T632 913H712Z"  />
<glyph unicode="&#xD6;" horiz-adv-x="964" d="M53 361Q53 443 77 512T154 633T287 712T482 741Q595 741 676 713T810 633T886 513T911 361Q911 279 887 210T810 89T677 10T482 -19Q369 -19 288 9T154 89T78 209T53 361ZM269 361Q269 313 280 271T315 198T381 148T482 129Q542 129 583 147T648 197T684 271T695 361Q695 409 684 451T649 524T583 574T482 593Q422 593 381 575T316 525T280 451T269 361ZM270 913H428V773H270V913ZM536 913H694V773H536V913Z"  />
<glyph unicode="&#xD7;" horiz-adv-x="600" d="M207 253L58 401L152 495L300 346L448 495L542 401L393 253L542 105L448 11L300 160L152 11L58 105L207 253Z"  />
<glyph unicode="&#xD8;" horiz-adv-x="964" d="M176 70Q112 121 83 195T53 361Q53 443 77 512T154 633T287 712T482 741Q558 741 619 728T728 691L822 796L873 748L788 652Q852 601 881 527T911 361Q911 279 887 210T810 89T677 10T482 -19Q406 -19 345 -6T236 32L142 -74L91 -26L176 70ZM353 163Q376 147 408 138T482 129Q542 129 583 147T648 197T684 271T695 361Q695 403 687 440T659 508L353 163ZM611 559Q562 593 482 593Q422 593 381 575T316 525T280 451T269 361Q269 319 277 282T305 215L611 559Z"  />
<glyph unicode="&#xD9;" horiz-adv-x="963" d="M872 330Q872 236 847 170T772 62T649 1T482 -19Q387 -19 315 -1T192 55T117 155T91 302V722H301V317Q301 219 347 174T482 129Q534 129 568 144T624 188T653 256T662 343V722H872V330ZM591 773H433L269 913H479L591 773Z"  />
<glyph unicode="&#xDA;" horiz-adv-x="963" d="M872 330Q872 236 847 170T772 62T649 1T482 -19Q387 -19 315 -1T192 55T117 155T91 302V722H301V317Q301 219 347 174T482 129Q534 129 568 144T624 188T653 256T662 343V722H872V330ZM485 913H695L531 773H373L485 913Z"  />
<glyph unicode="&#xDB;" horiz-adv-x="963" d="M872 330Q872 236 847 170T772 62T649 1T482 -19Q387 -19 315 -1T192 55T117 155T91 302V722H301V317Q301 219 347 174T482 129Q534 129 568 144T624 188T653 256T662 343V722H872V330ZM378 913H585L715 773H557L482 851L407 773H249L378 913Z"  />
<glyph unicode="&#xDC;" horiz-adv-x="963" d="M872 330Q872 236 847 170T772 62T649 1T482 -19Q387 -19 315 -1T192 55T117 155T91 302V722H301V317Q301 219 347 174T482 129Q534 129 568 144T624 188T653 256T662 343V722H872V330ZM536 913H694V773H536V913ZM270 913H428V773H270V913Z"  />
<glyph unicode="&#xDD;" horiz-adv-x="888" d="M339 257L14 722H272L457 414L640 722H874L549 257V0H339V257ZM447 913H657L493 773H335L447 913Z"  />
<glyph unicode="&#xDE;" horiz-adv-x="815" d="M94 722H304V604H497Q558 604 610 590T700 547T759 474T781 367Q781 313 764 270T709 198T613 154T473 138H304V0H94V722ZM304 278H433Q463 278 487 282T528 296T555 325T565 370Q565 417 536 440T449 464H304V278Z"  />
<glyph unicode="&#xDF;" horiz-adv-x="889" d="M75 0V390Q75 480 101 546T178 655T300 720T464 741Q573 741 637 721T735 672T779 614T789 567Q789 530 773 506T733 466T680 440T628 420T587 401T571 376Q571 358 592 346T644 323T712 299T780 267T832 219T853 149Q853 92 828 59T763 9T675 -14T581 -19Q492 -19 442 -3T366 39T334 93T327 148H519Q522 115 538 99Q552 85 587 85Q624 85 639 100T655 135Q655 160 635 174T584 199T517 220T451 248T400 293T379 367Q379 408 395 435T437 479T491 506T545 525T586 544T603 572Q603 595 571 610T473 625Q415 625 376 607T312 557T278 478T267 377V0H75Z"  />
<glyph unicode="&#xE0;" horiz-adv-x="741" d="M67 354Q71 403 98 435T166 487T256 513T356 521Q429 521 486 511T583 476T643 410T664 304V112Q664 84 665 56T668 0H482Q480 13 479 37T478 81H476Q459 52 435 33T383 3T323 -14T259 -19Q151 -19 92 23T32 144Q32 233 111 275T332 317H472Q472 377 444 397T359 417Q306 417 286 399T265 354H67ZM480 582H322L158 722H368L480 582ZM392 219Q344 219 314 213T266 197T242 173T236 143Q236 120 257 106T319 91Q366 91 395 103T442 135T465 177T472 219H392Z"  />
<glyph unicode="&#xE1;" horiz-adv-x="741" d="M67 354Q71 403 98 435T166 487T256 513T356 521Q429 521 486 511T583 476T643 410T664 304V112Q664 84 665 56T668 0H482Q480 13 479 37T478 81H476Q459 52 435 33T383 3T323 -14T259 -19Q151 -19 92 23T32 144Q32 233 111 275T332 317H472Q472 377 444 397T359 417Q306 417 286 399T265 354H67ZM374 722H584L420 582H262L374 722ZM392 219Q344 219 314 213T266 197T242 173T236 143Q236 120 257 106T319 91Q366 91 395 103T442 135T465 177T472 219H392Z"  />
<glyph unicode="&#xE2;" horiz-adv-x="741" d="M67 354Q71 403 98 435T166 487T256 513T356 521Q429 521 486 511T583 476T643 410T664 304V112Q664 84 665 56T668 0H482Q480 13 479 37T478 81H476Q459 52 435 33T383 3T323 -14T259 -19Q151 -19 92 23T32 144Q32 233 111 275T332 317H472Q472 377 444 397T359 417Q306 417 286 399T265 354H67ZM267 722H474L604 582H446L371 660L296 582H138L267 722ZM392 219Q344 219 314 213T266 197T242 173T236 143Q236 120 257 106T319 91Q366 91 395 103T442 135T465 177T472 219H392Z"  />
<glyph unicode="&#xE3;" horiz-adv-x="741" d="M67 354Q71 403 98 435T166 487T256 513T356 521Q429 521 486 511T583 476T643 410T664 304V112Q664 84 665 56T668 0H482Q480 13 479 37T478 81H476Q459 52 435 33T383 3T323 -14T259 -19Q151 -19 92 23T32 144Q32 233 111 275T332 317H472Q472 377 444 397T359 417Q306 417 286 399T265 354H67ZM601 722Q598 660 570 621T474 582Q452 582 424 588T367 600T314 613T275 619Q250 619 241 610T221 582H141Q144 644 172 683T268 722Q290 722 318 716T375 704T428 691T467 685Q492 685 501 694T521 722H601ZM392 219Q344 219 314 213T266 197T242 173T236 143Q236 120 257 106T319 91Q366 91 395 103T442 135T465 177T472 219H392Z"  />
<glyph unicode="&#xE4;" horiz-adv-x="741" d="M67 354Q71 403 98 435T166 487T256 513T356 521Q429 521 486 511T583 476T643 410T664 304V112Q664 84 665 56T668 0H482Q480 13 479 37T478 81H476Q459 52 435 33T383 3T323 -14T259 -19Q151 -19 92 23T32 144Q32 233 111 275T332 317H472Q472 377 444 397T359 417Q306 417 286 399T265 354H67ZM392 219Q344 219 314 213T266 197T242 173T236 143Q236 120 257 106T319 91Q366 91 395 103T442 135T465 177T472 219H392ZM159 722H317V582H159V722ZM425 722H583V582H425V722Z"  />
<glyph unicode="&#xE5;" horiz-adv-x="741" d="M67 354Q71 403 98 435T166 487T256 513T356 521Q429 521 486 511T583 476T643 410T664 304V112Q664 84 665 56T668 0H482Q480 13 479 37T478 81H476Q459 52 435 33T383 3T323 -14T259 -19Q151 -19 92 23T32 144Q32 233 111 275T332 317H472Q472 377 444 397T359 417Q306 417 286 399T265 354H67ZM229 650Q229 680 240 700T271 732T316 750T371 755Q399 755 425 750T470 733T501 700T513 650Q513 618 502 598T471 566T425 550T371 545Q342 545 317 549T272 565T241 597T229 650ZM392 219Q344 219 314 213T266 197T242 173T236 143Q236 120 257 106T319 91Q366 91 395 103T442 135T465 177T472 219H392ZM315 650Q315 627 330 611T371 595Q396 595 411 611T427 650Q427 673 412 689T371 705Q346 705 331 689T315 650Z"  />
<glyph unicode="&#xE6;" horiz-adv-x="1185" d="M686 213Q690 146 726 116T825 85Q852 85 872 91T905 108T925 130T935 154H1133Q1128 100 1096 67T1020 14T926 -12T834 -19Q746 -19 678 3T576 79Q532 24 459 3T299 -19Q231 -19 183 -6T104 29T59 81T44 144Q44 233 123 275T344 317H496Q496 347 487 366T461 397T421 412T369 417Q317 417 298 399T277 354H79Q83 403 110 435T177 487T267 513T366 521Q436 521 494 504T591 440Q617 464 642 479T695 504T753 517T820 521Q903 521 963 499T1063 437T1122 339T1141 213H686ZM391 212Q312 212 280 197T248 149Q248 126 270 109T341 91Q384 91 413 103T461 133T488 172T496 212H391ZM941 317Q935 362 902 389T817 417Q784 417 761 408T722 385T699 353T688 317H941Z"  />
<glyph unicode="&#xE7;" horiz-adv-x="741" d="M339 -17Q286 -14 233 1T138 48T70 129T44 249Q44 324 72 376T148 460T256 507T382 521Q433 521 485 512T581 481T654 420T691 324H493Q485 371 457 391T382 411Q317 411 283 366T248 252Q248 219 255 190T279 139T321 104T382 91Q430 91 460 115T493 188H697Q691 133 665 95T599 33T512 -2T412 -17L373 -55L375 -57Q394 -50 419 -50Q440 -50 459 -55T493 -71T517 -96T526 -129Q526 -154 512 -170T476 -195T425 -207T368 -211Q360 -211 346 -211T314 -208T277 -202T240 -192L262 -139Q285 -147 309 -151T357 -155Q364 -155 372 -154T387 -150T399 -140T404 -124Q404 -108 388 -101T354 -94Q328 -94 310 -100L286 -71L339 -17Z"  />
<glyph unicode="&#xE8;" horiz-adv-x="741" d="M242 204Q245 145 278 115T373 85Q404 85 424 91T455 106T472 128T482 153H686Q671 93 640 59T566 8T473 -14T370 -19Q305 -19 246 -6T142 37T71 118T44 243Q44 316 70 368T141 455T243 505T367 521Q459 521 522 499T623 436T679 336T697 204H242ZM492 582H334L170 722H380L492 582ZM493 308Q492 339 482 359T456 393T417 411T369 417Q336 417 314 408T277 382T256 347T245 308H493Z"  />
<glyph unicode="&#xE9;" horiz-adv-x="741" d="M242 204Q245 145 278 115T373 85Q404 85 424 91T455 106T472 128T482 153H686Q671 93 640 59T566 8T473 -14T370 -19Q305 -19 246 -6T142 37T71 118T44 243Q44 316 70 368T141 455T243 505T367 521Q459 521 522 499T623 436T679 336T697 204H242ZM386 722H596L432 582H274L386 722ZM493 308Q492 339 482 359T456 393T417 411T369 417Q336 417 314 408T277 382T256 347T245 308H493Z"  />
<glyph unicode="&#xEA;" horiz-adv-x="741" d="M242 204Q245 145 278 115T373 85Q404 85 424 91T455 106T472 128T482 153H686Q671 93 640 59T566 8T473 -14T370 -19Q305 -19 246 -6T142 37T71 118T44 243Q44 316 70 368T141 455T243 505T367 521Q459 521 522 499T623 436T679 336T697 204H242ZM279 722H486L616 582H458L383 660L308 582H150L279 722ZM493 308Q492 339 482 359T456 393T417 411T369 417Q336 417 314 408T277 382T256 347T245 308H493Z"  />
<glyph unicode="&#xEB;" horiz-adv-x="741" d="M242 204Q245 145 278 115T373 85Q404 85 424 91T455 106T472 128T482 153H686Q671 93 640 59T566 8T473 -14T370 -19Q305 -19 246 -6T142 37T71 118T44 243Q44 316 70 368T141 455T243 505T367 521Q459 521 522 499T623 436T679 336T697 204H242ZM437 722H595V582H437V722ZM171 722H329V582H171V722ZM493 308Q492 339 482 359T456 393T417 411T369 417Q336 417 314 408T277 382T256 347T245 308H493Z"  />
<glyph unicode="&#xEC;" horiz-adv-x="370" d="M89 502H281V0H89V502ZM294 582H136L-28 722H182L294 582Z"  />
<glyph unicode="&#xED;" horiz-adv-x="370" d="M89 502H281V0H89V502ZM188 722H398L234 582H76L188 722Z"  />
<glyph unicode="&#xEE;" horiz-adv-x="370" d="M89 502H281V0H89V502ZM81 722H288L418 582H260L185 660L110 582H-48L81 722Z"  />
<glyph unicode="&#xEF;" horiz-adv-x="370" d="M89 502H281V0H89V502ZM239 722H397V582H239V722ZM-27 722H131V582H-27V722Z"  />
<glyph unicode="&#xF0;" horiz-adv-x="816" d="M634 728L510 671Q555 645 601 607T686 519T748 406T772 268Q772 187 743 132T663 44T545 -4T402 -19Q318 -19 252 1T139 56T69 138T44 239Q44 304 69 353T138 435T236 485T351 502Q403 502 443 490T520 452L522 454Q507 475 482 497T430 537T377 570T333 589L194 525L136 571L244 621Q221 629 188 636T126 646L261 756Q306 748 352 738T438 710L576 774L634 728ZM248 239Q248 207 260 180T293 133T344 102T408 91Q444 91 473 102T524 132T556 179T568 239Q568 273 557 301T524 349T474 381T408 392Q373 392 344 381T294 350T260 301T248 239Z"  />
<glyph unicode="&#xF1;" horiz-adv-x="815" d="M81 399Q81 423 80 449T77 502H263Q265 479 266 457T267 412H269Q307 463 361 492T482 521Q551 521 599 503T677 453T720 378T734 286V0H542V257Q542 317 514 355T420 393Q390 393 364 382T317 349T285 295T273 221V0H81V399ZM638 722Q635 660 607 621T511 582Q489 582 461 588T404 600T351 613T312 619Q287 619 278 610T258 582H178Q181 644 209 683T305 722Q327 722 355 716T412 704T465 691T504 685Q529 685 538 694T558 722H638Z"  />
<glyph unicode="&#xF2;" horiz-adv-x="816" d="M44 251Q44 296 61 343T120 430T232 495T408 521Q514 521 584 496T696 431T755 344T772 251Q772 206 755 159T696 72T584 7T408 -19Q302 -19 232 6T120 71T61 158T44 251ZM248 251Q248 212 260 183T294 133T345 102T408 91Q442 91 471 101T521 132T555 182T568 251Q568 290 556 319T522 369T471 400T408 411Q374 411 345 401T295 370T261 320T248 251ZM517 582H359L195 722H405L517 582Z"  />
<glyph unicode="&#xF3;" horiz-adv-x="816" d="M44 251Q44 296 61 343T120 430T232 495T408 521Q514 521 584 496T696 431T755 344T772 251Q772 206 755 159T696 72T584 7T408 -19Q302 -19 232 6T120 71T61 158T44 251ZM248 251Q248 212 260 183T294 133T345 102T408 91Q442 91 471 101T521 132T555 182T568 251Q568 290 556 319T522 369T471 400T408 411Q374 411 345 401T295 370T261 320T248 251ZM411 722H621L457 582H299L411 722Z"  />
<glyph unicode="&#xF4;" horiz-adv-x="816" d="M44 251Q44 296 61 343T120 430T232 495T408 521Q514 521 584 496T696 431T755 344T772 251Q772 206 755 159T696 72T584 7T408 -19Q302 -19 232 6T120 71T61 158T44 251ZM248 251Q248 212 260 183T294 133T345 102T408 91Q442 91 471 101T521 132T555 182T568 251Q568 290 556 319T522 369T471 400T408 411Q374 411 345 401T295 370T261 320T248 251ZM304 722H511L641 582H483L408 660L333 582H175L304 722Z"  />
<glyph unicode="&#xF5;" horiz-adv-x="816" d="M44 251Q44 296 61 343T120 430T232 495T408 521Q514 521 584 496T696 431T755 344T772 251Q772 206 755 159T696 72T584 7T408 -19Q302 -19 232 6T120 71T61 158T44 251ZM248 251Q248 212 260 183T294 133T345 102T408 91Q442 91 471 101T521 132T555 182T568 251Q568 290 556 319T522 369T471 400T408 411Q374 411 345 401T295 370T261 320T248 251ZM638 722Q635 660 607 621T511 582Q489 582 461 588T404 600T351 613T312 619Q287 619 278 610T258 582H178Q181 644 209 683T305 722Q327 722 355 716T412 704T465 691T504 685Q529 685 538 694T558 722H638Z"  />
<glyph unicode="&#xF6;" horiz-adv-x="816" d="M44 251Q44 296 61 343T120 430T232 495T408 521Q514 521 584 496T696 431T755 344T772 251Q772 206 755 159T696 72T584 7T408 -19Q302 -19 232 6T120 71T61 158T44 251ZM248 251Q248 212 260 183T294 133T345 102T408 91Q442 91 471 101T521 132T555 182T568 251Q568 290 556 319T522 369T471 400T408 411Q374 411 345 401T295 370T261 320T248 251ZM196 722H354V582H196V722ZM462 722H620V582H462V722Z"  />
<glyph unicode="&#xF7;" horiz-adv-x="600" d="M47 320H553V186H47V320ZM211 465Q211 502 237 528T300 554Q337 554 363 528T389 465Q389 428 363 402T300 376Q263 376 237 402T211 465ZM211 41Q211 78 237 104T300 130Q337 130 363 104T389 41Q389 4 363 -22T300 -48Q263 -48 237 -22T211 41Z"  />
<glyph unicode="&#xF8;" horiz-adv-x="816" d="M170 34Q135 55 111 80T72 134T51 193T44 251Q44 296 61 343T120 430T232 495T408 521Q511 521 583 495L666 588L715 545L646 468Q681 447 705 421T744 367T765 309T772 251Q772 206 755 159T696 72T584 7T408 -19Q354 -19 311 -12T233 7L150 -86L101 -43L170 34ZM326 111Q363 91 408 91Q442 91 471 101T521 132T555 182T568 251Q568 281 561 305T539 349L326 111ZM490 392Q454 411 408 411Q374 411 345 401T295 370T261 320T248 251Q248 191 277 153L490 392Z"  />
<glyph unicode="&#xF9;" horiz-adv-x="815" d="M734 103Q734 79 735 53T738 0H552Q550 23 549 45T548 90H546Q508 39 454 10T333 -19Q264 -19 216 -1T138 49T95 124T81 216V502H273V245Q273 185 301 147T395 109Q425 109 451 120T498 153T530 207T542 281V502H734V103ZM517 582H359L195 722H405L517 582Z"  />
<glyph unicode="&#xFA;" horiz-adv-x="815" d="M734 103Q734 79 735 53T738 0H552Q550 23 549 45T548 90H546Q508 39 454 10T333 -19Q264 -19 216 -1T138 49T95 124T81 216V502H273V245Q273 185 301 147T395 109Q425 109 451 120T498 153T530 207T542 281V502H734V103ZM411 722H621L457 582H299L411 722Z"  />
<glyph unicode="&#xFB;" horiz-adv-x="815" d="M734 103Q734 79 735 53T738 0H552Q550 23 549 45T548 90H546Q508 39 454 10T333 -19Q264 -19 216 -1T138 49T95 124T81 216V502H273V245Q273 185 301 147T395 109Q425 109 451 120T498 153T530 207T542 281V502H734V103ZM304 722H511L641 582H483L408 660L333 582H175L304 722Z"  />
<glyph unicode="&#xFC;" horiz-adv-x="815" d="M734 103Q734 79 735 53T738 0H552Q550 23 549 45T548 90H546Q508 39 454 10T333 -19Q264 -19 216 -1T138 49T95 124T81 216V502H273V245Q273 185 301 147T395 109Q425 109 451 120T498 153T530 207T542 281V502H734V103ZM462 722H620V582H462V722ZM196 722H354V582H196V722Z"  />
<glyph unicode="&#xFD;" horiz-adv-x="741" d="M273 0L15 502H239L383 157L537 502H726L368 -192H164L273 0ZM374 722H584L420 582H262L374 722Z"  />
<glyph unicode="&#xFE;" horiz-adv-x="815" d="M81 722H273V425H275Q291 446 311 463T357 493T416 513T492 521Q552 521 603 503T691 449T750 363T771 248Q771 186 750 137T692 53T602 0T487 -19Q445 -19 412 -12T353 8T308 36T273 66V-192H81V722ZM567 248Q567 278 559 306T532 357T487 392T422 405Q389 405 362 394T315 364T284 316T273 255Q273 219 284 190T315 140T362 108T422 97Q454 97 480 108T526 139T556 187T567 248Z"  />
<glyph unicode="&#xFF;" horiz-adv-x="741" d="M273 0L15 502H239L383 157L537 502H726L368 -192H164L273 0ZM425 722H583V582H425V722ZM159 722H317V582H159V722Z"  />
<glyph unicode="&#x152;" horiz-adv-x="1333" d="M1231 574H848V440H1210V292H848V148H1247V0H759Q732 0 697 0T626 -3Q590 -5 556 -5T498 -6Q446 -6 393 0T291 23T198 66T122 134T72 231T53 362Q53 455 86 524T176 638T311 706T476 728Q498 728 525 727T582 725Q611 724 638 723T688 722H1231V574ZM644 574Q636 575 621 576T589 578T557 579T535 580Q474 580 425 568T342 528T288 457T269 353Q269 300 290 261T343 195T415 156T492 142Q529 142 572 143T644 148V574Z"  />
<glyph unicode="&#x153;" horiz-adv-x="1185" d="M696 213Q700 148 734 117T827 85Q854 85 873 91T905 108T925 130T935 154H1133Q1128 100 1097 67T1022 14T932 -12T848 -19Q759 -19 702 5T613 66Q567 20 507 1T368 -19Q297 -19 238 0T135 54T68 139T44 251Q44 313 68 363T135 448T237 502T368 521Q406 521 437 517T495 504T549 479T603 442Q644 480 697 500T820 521Q903 521 963 499T1063 437T1122 339T1141 213H696ZM248 251Q248 218 256 189T282 138T324 104T384 91Q418 91 443 103T486 138T511 189T520 251Q520 284 512 313T486 364T444 398T384 411Q350 411 325 399T282 364T257 313T248 251ZM941 317Q935 362 902 389T816 417Q789 417 768 408T731 383T708 351T698 317H941Z"  />
<glyph unicode="&#x160;" horiz-adv-x="815" d="M265 234Q266 199 274 178T300 143T343 126T407 121Q453 121 481 128T525 147T545 171T550 197Q550 233 515 249T417 277L314 297Q269 306 226 319T148 356T92 415T70 502Q70 568 98 614T172 688T278 728T399 741Q498 741 563 726T668 683T725 612T745 516H541Q539 544 528 560T498 586T458 598T412 601Q343 601 312 581T280 530Q280 512 291 500T322 479T368 464T423 452L520 432Q569 422 613 408T689 369T741 309T760 219Q760 144 726 97T638 25T521 -10T395 -19Q286 -19 219 2T116 59T67 140T55 234H265ZM512 773H305L175 913H333L408 835L483 913H641L512 773Z"  />
<glyph unicode="&#x161;" horiz-adv-x="667" d="M240 157Q240 119 264 100Q275 91 291 88T327 85Q342 85 359 86T392 94T417 111T427 140Q427 153 420 162T400 177T373 187T343 193L210 214Q138 225 98 259T58 353Q58 407 85 440T154 491T243 515T332 521Q414 521 467 510T553 477T598 424T613 353H421Q419 373 412 385T396 404Q385 411 366 414T328 417Q316 417 304 415T281 407T263 393T256 373Q256 359 264 351T284 336T313 327T344 321L474 300Q557 286 591 250T625 150Q625 93 593 59T514 8T415 -14T320 -19Q226 -19 172 -2T90 41T54 98T42 157H240ZM438 582H231L101 722H259L334 644L409 722H567L438 582Z"  />
<glyph unicode="&#x178;" horiz-adv-x="888" d="M339 257L14 722H272L457 414L640 722H874L549 257V0H339V257ZM498 913H656V773H498V913ZM232 913H390V773H232V913Z"  />
<glyph unicode="&#x17D;" horiz-adv-x="815" d="M51 186L502 574H81V722H753V530L307 148H764V0H51V186ZM512 773H305L175 913H333L408 835L483 913H641L512 773Z"  />
<glyph unicode="&#x17E;" horiz-adv-x="667" d="M52 148L354 384V386H77V502H590V368L275 118V116H615V0H52V148ZM438 582H231L101 722H259L334 644L409 722H567L438 582Z"  />
<glyph unicode="&#x192;" horiz-adv-x="740" d="M644 621Q641 621 634 621T618 623T600 624T582 625Q555 625 537 619T508 600T491 572T482 535L478 502H634L617 380H460L398 0Q390 -50 376 -86T335 -145T264 -180T153 -192Q144 -192 129 -192T96 -190T62 -188T30 -185L49 -76Q100 -76 129 -72T174 -55T197 -16T211 54L262 380H113L131 502H280L288 560Q296 617 314 652T361 707T432 734T530 741Q545 741 562 740T597 738T632 734T663 731L644 621Z"  />
<glyph unicode="&#x2C6;" horiz-adv-x="370" d="M81 722H288L418 582H260L185 660L110 582H-48L81 722Z"  />
<glyph unicode="&#x2DC;" horiz-adv-x="370" d="M415 722Q412 660 384 621T288 582Q266 582 238 588T181 600T128 613T89 619Q64 619 55 610T35 582H-45Q-42 644 -14 683T82 722Q104 722 132 716T189 704T242 691T281 685Q306 685 315 694T335 722H415Z"  />
<glyph unicode="&#x2013;" horiz-adv-x="500" d="M0 325H500V209H0V325Z"  />
<glyph unicode="&#x2014;" horiz-adv-x="1000" d="M0 325H1000V209H0V325Z"  />
<glyph unicode="&#x2018;" horiz-adv-x="370" d="M240 482H48L176 722H322L240 482Z"  />
<glyph unicode="&#x2019;" horiz-adv-x="370" d="M130 722H322L194 482H48L130 722Z"  />
<glyph unicode="&#x201A;" horiz-adv-x="370" d="M130 154H322L194 -86H48L130 154Z"  />
<glyph unicode="&#x201C;" horiz-adv-x="667" d="M263 482H71L199 722H345L263 482ZM514 482H322L450 722H596L514 482Z"  />
<glyph unicode="&#x201D;" horiz-adv-x="667" d="M153 722H345L217 482H71L153 722ZM404 722H596L468 482H322L404 722Z"  />
<glyph unicode="&#x201E;" horiz-adv-x="667" d="M153 154H345L217 -86H71L153 154ZM404 154H596L468 -86H322L404 154Z"  />
<glyph unicode="&#x2020;" horiz-adv-x="668" d="M238 418H51V558H238V722H430V558H617V418H430V0H238V418Z"  />
<glyph unicode="&#x2021;" horiz-adv-x="668" d="M241 722H427V578H617V444H427V278H617V144H427V0H241V144H51V278H241V444H51V578H241V722Z"  />
<glyph unicode="&#x2022;" horiz-adv-x="500" d="M69 361Q69 398 83 431T122 489T179 528T250 542Q287 542 320 528T378 489T417 431T431 361Q431 323 417 291T378 233T320 194T250 180Q212 180 180 194T122 233T83 290T69 361Z"  />
<glyph unicode="&#x2026;" horiz-adv-x="1000" d="M74 154H260V0H74V154ZM740 154H926V0H740V154ZM407 154H593V0H407V154Z"  />
<glyph unicode="&#x2030;" horiz-adv-x="1333" d="M468 164Q468 257 520 302T669 347Q766 347 818 302T870 164Q870 118 855 84T814 27T750 -7T669 -19Q625 -19 588 -8T525 26T483 83T468 164ZM918 164Q918 257 970 302T1119 347Q1216 347 1268 302T1320 164Q1320 118 1305 84T1264 27T1200 -7T1119 -19Q1075 -19 1038 -8T975 26T933 83T918 164ZM13 534Q13 627 65 672T214 717Q311 717 363 672T415 534Q415 488 400 454T359 397T295 363T214 351Q170 351 133 362T70 396T28 453T13 534ZM655 722H771L225 -24H109L655 722ZM590 164Q590 55 669 55Q748 55 748 164Q748 222 729 247T669 273Q628 273 609 248T590 164ZM1040 164Q1040 55 1119 55Q1198 55 1198 164Q1198 222 1179 247T1119 273Q1078 273 1059 248T1040 164ZM135 534Q135 425 214 425Q293 425 293 534Q293 592 274 617T214 643Q173 643 154 618T135 534Z"  />
<glyph unicode="&#x2039;" horiz-adv-x="370" d="M205 267L322 72H156L34 267L156 462H322L205 267Z"  />
<glyph unicode="&#x203A;" horiz-adv-x="370" d="M165 267L48 462H214L336 267L214 72H48L165 267Z"  />
<glyph unicode="&#x20AC;" horiz-adv-x="740" d="M524 510Q521 528 511 540T487 560T457 571T423 575Q371 575 341 548T297 470H537L502 381H283V328H481L446 239H295Q303 188 336 156T423 124Q440 124 457 128T489 141T512 164T524 197H727Q724 131 698 89T627 23T524 -10T399 -19Q343 -19 293 -5T201 41T131 122T89 239H1L36 328H79V348Q79 356 79 364T80 381H1L36 470H91Q105 535 134 582T207 659T306 703T428 717Q485 717 538 707T633 672T700 608T727 510H524Z"  />
<glyph unicode="&#x2122;" horiz-adv-x="1000" d="M839 540H837L762 310H658L583 540H581V310H459V722H629L709 483H711L791 722H961V310H839V540ZM132 630H27V722H371V630H266V310H132V630Z"  />

</font>
</defs>
</svg>
