<?xml  version="1.0" encoding="UTF-8"?>
<!DOCTYPE svg PUBLIC "-//W3C//DTD SVG 1.0//EN" "http://www.w3.org/TR/2001/REC-SVG-20010904/DTD/svg10.dtd" >
<svg xmlns="http://www.w3.org/2000/svg" >
<metadata>
<version>1.0</version>
<id><![CDATA[Univers LT W01 85 Extra Black]]></id>
<vendor>Monotype Imaging Inc.</vendor>
<credits>
<name>Fonts.com WebFonts</name>
<URL>http://webfonts.fonts.com</URL>
<role>Home of the Web fonts</role>
</credits>
<license>
<URL>http://webfonts.fonts.com/Legal</URL>
</license>
<copyright><![CDATA[Copyright © 2009 Linotype Corp., www.linotype.com. All rights reserved. This font software may not be reproduced, modified, disclosed or transferred without the express written approval of Linotype Corp. Univers is a trademark of Linotype Corp. registered in the U.S. Patent and Trademark Office and may be registered in certain other jurisdictions in the name of Linotype Corp. or its licensee Linotype GmbH. This typeface is original artwork of Adrian Frutiger. The design may be protected in certain jurisdictions.]]></copyright>
<trademark><![CDATA[Univers is a trademark of Linotype Corp. registered in the U.S. Patent and Trademark Office and may be registered in certain other jurisdictions in the name of Linotype Corp. or its licensee Linotype GmbH.]]></trademark>
<licensee>
<name></name>
</licensee>
</metadata>
<defs >
<font horiz-adv-x="608" id="6054f584-27b3-440f-b6e1-31c4af1f277a">
<font-face font-family="" panose-1="2 11 10 4 4 7 2 2 2 4" ascent="1017" descent="-244" units-per-em="1000" alphabetic="0">
</font-face>
<missing-glyph horiz-adv-x="0" />

<glyph unicode="&#xA;" />
<glyph unicode="&#xD;" horiz-adv-x="0" />
<glyph unicode=" " horiz-adv-x="352" />
<glyph unicode="!" horiz-adv-x="370" d="M285 213H84L41 722H329L285 213ZM66 0V164H304V0H66Z"  />
<glyph unicode="&quot;" horiz-adv-x="592" d="M477 422H355L325 722H507L477 422ZM237 422H115L85 722H267L237 422Z"  />
<glyph unicode="#" horiz-adv-x="704" d="M516 410L503 312H575V194H487L461 0H337L363 194H296L270 0H146L172 194H100V312H188L202 410H130V528H218L243 722H367L342 528H409L434 722H558L532 528H604V410H516ZM325 410L312 312H379L392 410H325Z"  />
<glyph unicode="$" horiz-adv-x="704" d="M695 230Q695 92 579 27Q544 7 506 -3T418 -19V-120H269V-17Q221 -11 175 3T93 45T35 112T13 209V225H285V216Q285 142 358 142Q388 142 408 159T428 203Q428 219 420 229T399 245T366 257T324 269L233 296Q185 310 147 326T82 366T41 422T26 503Q26 601 88 659T269 735V833H418V739Q468 735 514 722T595 684T652 618T673 519H418Q416 554 402 568T354 582Q324 582 307 569T289 534Q289 518 299 508T328 491T371 479T423 466L513 442Q607 417 651 364T695 230Z"  />
<glyph unicode="%" horiz-adv-x="1056" d="M1031 229Q1031 175 1020 131T983 54T918 4T820 -14Q766 -14 728 3T666 51T631 124T620 217Q620 336 675 399T835 463Q890 463 928 446T988 397T1021 322T1031 229ZM389 0H266L670 722H790L389 0ZM435 502Q435 448 424 404T387 327T322 277T224 259Q170 259 132 276T70 324T35 397T24 490Q24 609 79 672T239 736Q294 736 332 719T392 670T425 595T435 502ZM864 222Q864 244 864 265T860 304T849 331T829 342Q808 342 799 317T790 231Q790 158 798 131T829 103Q839 103 845 108T856 127T862 164T864 222ZM268 495Q268 517 268 538T264 577T253 604T233 615Q212 615 203 590T194 504Q194 431 202 404T233 376Q243 376 249 381T260 400T266 437T268 495Z"  />
<glyph unicode="&amp;" horiz-adv-x="888" d="M616 0L574 43Q522 9 458 -6T332 -21Q261 -21 203 -6T104 38T41 107T19 197Q19 240 34 271T75 325T134 362T203 390Q86 471 86 563Q86 601 100 628T137 676T190 708T252 728T318 738T380 741Q446 741 498 730T586 696T642 643T662 572Q662 538 649 509T616 455T569 410T517 373L607 286Q642 330 648 398H854V397Q854 365 846 331T823 263T788 202T745 154L892 0H616ZM442 564Q442 586 425 598T377 611Q345 611 328 599T310 565Q310 552 316 541T332 519T353 500T375 485Q442 530 442 564ZM336 273Q304 264 283 242T262 194Q262 179 269 165T288 140T316 123T349 116Q370 116 398 126T456 154L336 273Z"  />
<glyph unicode="&apos;" horiz-adv-x="352" d="M237 422H115L85 722H267L237 422Z"  />
<glyph unicode="(" horiz-adv-x="388" d="M181 -146Q168 -115 159 -91T141 -45T125 1T108 57Q85 131 76 184T66 288Q66 337 76 394T107 523Q116 553 123 575T138 620T157 666T181 722H366Q355 683 347 655T333 603T323 557T312 506Q288 383 288 293Q288 247 294 192T313 70Q319 39 324 15T335 -33T348 -83T367 -146H181Z"  />
<glyph unicode=")" horiz-adv-x="388" d="M323 287Q323 237 313 181T282 53Q273 23 266 1T251 -44T232 -90T208 -146H23Q34 -106 42 -78T56 -26T66 20T77 70Q101 191 101 281Q101 327 95 383T76 506Q70 537 65 561T54 609T41 659T22 722H208Q221 690 230 667T248 621T263 575T281 519Q303 445 313 391T323 287Z"  />
<glyph unicode="*" horiz-adv-x="388" d="M264 535L309 456L235 417L193 494L149 417L76 457L120 535H32V616H120L76 694L149 736L193 657L235 735L309 693L264 616H354V535H264Z"  />
<glyph unicode="+" horiz-adv-x="600" d="M368 185V0H232V185H47V321H232V506H368V321H553V185H368Z"  />
<glyph unicode="&#x2c;" horiz-adv-x="352" d="M214 -97H10L75 211H321L214 -97Z"  />
<glyph unicode="-" horiz-adv-x="407" d="M29 182V349H378V182H29Z"  />
<glyph unicode="." horiz-adv-x="352" d="M54 0V208H297V0H54Z"  />
<glyph unicode="/" horiz-adv-x="370" d="M131 -14H-21L241 722H391L131 -14Z"  />
<glyph unicode="0" horiz-adv-x="704" d="M680 360Q680 273 660 203T598 84T491 8T336 -19Q24 -19 24 356Q24 441 42 512T100 634T203 713T355 741Q449 741 511 715T611 639T664 519T680 360ZM414 358Q414 398 413 426T410 474T405 509T397 535Q386 563 354 563Q335 563 323 553T303 519T292 454T289 352Q289 317 290 290T295 237Q303 160 353 160Q386 160 398 191Q402 203 405 216T410 249T413 294T414 358Z"  />
<glyph unicode="1" horiz-adv-x="704" d="M241 0V472Q205 443 164 422T86 393V598Q113 607 142 619T200 646T253 681T297 722H516V0H241Z"  />
<glyph unicode="2" horiz-adv-x="704" d="M35 0V188L196 290Q232 312 267 339T332 396T378 454T396 512Q396 537 382 551T341 565Q279 565 279 484H28Q28 560 54 608T124 685T227 725T350 736Q503 736 585 678T668 513Q668 452 641 404T573 318T483 248T388 188H669V0H35Z"  />
<glyph unicode="3" horiz-adv-x="704" d="M668 210Q668 161 649 119T593 46Q553 14 489 -3T344 -20Q305 -20 264 -16T183 0T110 33T53 90Q31 124 25 154T19 225H263Q263 146 334 146Q402 146 402 214Q402 256 374 273T279 290Q274 290 269 290T252 289V442Q264 441 269 441T283 441Q345 441 370 457T395 515Q395 575 331 575Q299 575 285 557T270 498H30V499Q30 541 37 570T63 626Q135 738 344 738Q494 738 574 686T654 535Q654 498 642 471T608 424T559 394T497 377Q534 373 565 363T619 333T655 283T668 210Z"  />
<glyph unicode="4" horiz-adv-x="704" d="M604 116V0H341V116H12V321L255 722H604V299H690V116H604ZM347 546L211 299H347V546Z"  />
<glyph unicode="5" horiz-adv-x="704" d="M668 256Q668 196 647 145T585 57Q542 17 484 -1T345 -20Q200 -20 121 36T38 199H293Q295 144 339 144Q368 144 383 165Q391 178 394 196T398 250Q398 303 386 322T342 341Q318 341 305 326T289 285H53L66 722H623V551H294L284 435Q316 462 350 474T432 486Q486 486 529 470T604 424T651 352T668 256Z"  />
<glyph unicode="6" horiz-adv-x="704" d="M677 246Q677 184 655 135T592 51T493 -2T360 -21Q271 -21 209 6T108 82T50 200T32 351Q32 436 52 507T114 630T221 709T376 738Q433 738 482 727T568 691T625 625T646 523H412V529Q412 579 363 579Q331 579 315 555Q301 533 295 499T287 410Q316 441 350 454T434 468Q485 468 529 454T606 411T658 341T677 246ZM431 240Q431 285 416 305T366 325Q297 325 297 229Q297 142 363 142Q431 142 431 240Z"  />
<glyph unicode="7" horiz-adv-x="704" d="M383 0H91L362 529H42V722H653V566L383 0Z"  />
<glyph unicode="8" horiz-adv-x="704" d="M679 195Q679 89 592 35T337 -20Q286 -20 231 -11T131 23T56 88T26 192Q26 261 64 306T171 365Q105 382 75 420T44 521Q44 627 126 682T363 738Q506 738 582 683T658 522Q658 461 626 421T535 366Q604 352 641 308T679 195ZM404 516Q404 550 393 564T353 578Q301 578 301 514Q301 478 313 462T352 446Q381 446 392 462T404 516ZM414 213Q414 246 403 267T354 288Q289 288 289 213Q289 142 350 142Q414 142 414 213Z"  />
<glyph unicode="9" horiz-adv-x="704" d="M669 366Q669 281 650 210T588 88T481 8T326 -21Q269 -21 220 -10T134 26T77 92T56 194H289V189Q289 139 338 139Q372 139 386 162Q400 185 406 219T414 308Q385 277 351 264T267 250Q216 250 172 264T95 307T43 377T24 472Q24 534 46 583T109 666T208 719T341 738Q431 738 493 711T595 636T651 519T669 366ZM404 489Q404 575 338 575Q271 575 271 478Q271 433 286 413T335 392Q404 392 404 489Z"  />
<glyph unicode=":" horiz-adv-x="352" d="M55 308V516H298V308H55ZM55 0V208H298V0H55Z"  />
<glyph unicode=";" horiz-adv-x="352" d="M72 308V516H313V308H72ZM214 -97H9L72 211H319L214 -97Z"  />
<glyph unicode="&lt;" horiz-adv-x="600" d="M43 171V334L558 538V372L216 252L558 134V-33L43 171Z"  />
<glyph unicode="=" horiz-adv-x="600" d="M42 295V443H558V295H42ZM42 63V212H558V63H42Z"  />
<glyph unicode="&gt;" horiz-adv-x="600" d="M43 -33V134L386 252L43 372V538L558 334V171L43 -33Z"  />
<glyph unicode="?" horiz-adv-x="537" d="M517 536Q517 503 507 476T479 427T438 385T390 346L374 334Q361 324 352 314T338 291T330 261T327 222V208H91V243Q91 272 94 293T105 332T127 366T165 403L180 416Q197 430 215 452T233 497Q233 544 161 544Q112 544 30 519V708Q86 724 140 732T242 741Q293 741 342 731T430 697T493 634T517 536ZM93 0V164H333V0H93Z"  />
<glyph unicode="@" horiz-adv-x="912" d="M444 182Q471 182 491 200T523 244T542 301T548 355Q548 426 495 426Q468 426 449 408T416 364T397 308T391 254Q391 219 404 201T444 182ZM661 286Q660 280 657 265T654 234T660 205T684 192Q691 192 705 197T734 220T759 271T770 358Q770 428 747 479T684 563T590 613T472 629Q402 629 343 605T241 537T173 434T148 304Q148 229 174 169T244 68T343 4T457 -19Q506 -19 542 -14T607 1T659 24T705 56L767 -25Q738 -52 707 -72T637 -105T552 -124T446 -131Q353 -131 275 -97T140 -4T52 135T20 305Q20 395 54 474T147 613T286 707T456 741Q561 741 642 715T778 642T863 531T892 393Q892 325 876 275T835 190T777 133T712 97T650 80T600 75Q554 75 536 95T521 150Q503 130 487 116T455 92T421 79T381 75Q340 75 312 88T267 126T243 182T235 251Q235 307 250 358T294 448T366 510T462 533Q484 533 500 530T530 519T555 500T578 472L589 521H709L661 286Z"  />
<glyph unicode="A" horiz-adv-x="796" d="M518 0L490 116H282L253 0H-19L213 722H584L816 0H518ZM389 563L325 292H448L389 563Z"  />
<glyph unicode="B" horiz-adv-x="758" d="M734 206Q734 141 698 94T603 24Q584 17 567 13T531 5T490 1T438 0H53V722H469Q591 722 651 675T712 536Q712 499 703 473T676 429T633 399T576 377Q652 366 693 321T734 206ZM444 502Q444 537 421 552T342 568H319V432H345Q396 432 420 449T444 502ZM457 226Q457 264 431 280T346 297H319V152H342Q363 152 383 153T420 162T447 185T457 226Z"  />
<glyph unicode="C" horiz-adv-x="758" d="M736 265Q736 199 713 146T645 57T538 1T393 -19Q305 -19 237 6T121 80T49 199T24 361Q24 450 49 520T121 638T237 711T394 737Q467 737 529 721T636 670T706 581T731 450V449H468Q464 501 448 523T400 546Q372 546 356 532T333 492T323 434T321 363Q321 323 323 288T332 227T356 185T401 170Q433 170 449 192T468 266H736V265H736Z"  />
<glyph unicode="D" horiz-adv-x="796" d="M774 366Q774 321 766 276T741 191T696 116T627 56Q535 0 400 0H49V722H373Q415 722 445 720T500 714T547 703T594 686Q636 669 669 639T726 567T761 474T774 366ZM477 370Q477 406 475 439T460 499T424 542T356 558H331V166H353Q398 166 423 183T460 229T474 295T477 370Z"  />
<glyph unicode="E" horiz-adv-x="630" d="M51 0V722H600V534H326V456H579V269H326V188H609V0H51Z"  />
<glyph unicode="F" horiz-adv-x="610" d="M333 534V449H583V264H333V0H49V722H602V534H333Z"  />
<glyph unicode="G" horiz-adv-x="814" d="M773 28Q734 17 690 9T600 -7T507 -17T416 -21Q326 -21 254 3T131 74T54 193T27 358Q27 452 55 523T135 641T260 713T425 737Q491 737 551 727T658 691T731 617T759 494V493H493Q490 552 423 552Q386 552 365 536T334 492T321 423T318 335Q318 299 320 268T333 213T364 175T420 161Q440 161 461 165T498 176V266H400V410H773V28H773Z"  />
<glyph unicode="H" horiz-adv-x="796" d="M458 0V266H338V0H52V722H338V475H458V722H744V0H458Z"  />
<glyph unicode="I" horiz-adv-x="388" d="M51 0V722H336V0H51Z"  />
<glyph unicode="J" horiz-adv-x="666" d="M620 267Q620 239 619 217T615 177T607 144T595 114Q580 83 553 58T487 16T401 -11T301 -21Q232 -21 176 -5T81 40T20 112T-2 206V238H240Q239 233 239 227Q239 168 285 168Q302 168 312 175T327 195T333 221T335 249V722H620V267H620Z"  />
<glyph unicode="K" horiz-adv-x="796" d="M502 0L333 324V0H53V722H333V412L484 722H784L591 382L811 0H502Z"  />
<glyph unicode="L" horiz-adv-x="610" d="M51 0V722H338V194H600V0H51Z"  />
<glyph unicode="M" horiz-adv-x="1056" d="M766 0V518L657 0H400L291 518V0H55V722H455L529 292L612 722H1002V0H766Z"  />
<glyph unicode="N" horiz-adv-x="832" d="M438 0L282 442V0H51V722H400L549 287V722H780V0H438Z"  />
<glyph unicode="O" horiz-adv-x="796" d="M771 361Q771 272 745 202T671 82T554 6T397 -21Q310 -21 241 5T124 79T51 198T25 356Q25 447 50 519T124 640T244 715T406 741Q493 741 560 716T675 642T746 522T771 361ZM474 377Q474 416 472 448T463 503T440 538T400 551Q352 551 336 502T320 353Q320 312 323 279T334 221T357 184T395 170Q417 170 432 180T457 215T470 278T474 377Z"  />
<glyph unicode="P" horiz-adv-x="740" d="M728 485Q728 449 719 415T691 353T647 302T586 266Q568 259 552 255T517 248T475 244T420 243H338V0H51V722H456Q482 722 502 721T538 716T570 708T602 696Q660 672 694 615T728 485ZM453 489Q453 527 431 544T362 561H338V407H354Q405 407 429 426T453 489Z"  />
<glyph unicode="Q" horiz-adv-x="796" d="M652 0Q637 0 626 0T603 0T578 -2T544 -4Q533 -5 526 -5T513 -7Q486 -14 458 -17T397 -21Q310 -21 241 5T124 79T51 198T25 356Q25 447 50 519T124 640T244 715T406 741Q493 741 560 716T675 642T746 522T771 361Q771 255 735 176H795V0H652ZM474 377Q474 416 472 448T463 503T440 538T400 551Q352 551 336 502T320 353Q320 312 323 279T334 221T357 184T395 170Q417 170 432 180T457 215T470 278T474 377Z"  />
<glyph unicode="R" horiz-adv-x="758" d="M470 0Q468 8 465 22T459 52T454 82T450 105L445 138Q440 168 438 186T433 215T427 232T418 244Q405 260 355 260H331V0H49V722H478Q520 722 553 717T617 701Q668 684 695 642T723 537Q723 498 714 471T686 423T642 390T581 366Q619 360 643 350T681 322T701 278T713 212L721 144Q726 109 732 72T750 0H470ZM450 496Q450 531 427 545T347 560H329V420H350Q402 420 426 438T450 496Z"  />
<glyph unicode="S" horiz-adv-x="722" d="M702 230Q702 159 673 110T584 27Q538 1 484 -10T354 -21Q291 -21 231 -10T124 29T49 104T20 223V225H292V216Q292 142 365 142Q395 142 415 159T435 203Q435 219 426 229T401 247T368 259T331 269L240 296Q193 309 155 325T90 364T48 420T33 503Q33 618 119 679T367 741Q424 741 480 732T580 698T652 630T680 520V519H425Q423 554 409 568T361 582Q331 582 314 569T296 534Q296 517 307 507T337 490T380 478T430 466L520 442Q702 390 702 230Z"  />
<glyph unicode="T" horiz-adv-x="648" d="M467 527V0H180V527H3V722H645V527H467Z"  />
<glyph unicode="U" horiz-adv-x="778" d="M733 270Q733 172 703 117Q685 85 654 60T581 16T488 -11T380 -21Q339 -21 296 -15T211 5T135 43T78 106Q61 135 54 166T46 243V722H333V257Q333 176 392 176Q421 176 436 196T452 253V722H733V270H733Z"  />
<glyph unicode="V" horiz-adv-x="759" d="M565 0H195L-9 722H284L385 160L493 722H769L565 0Z"  />
<glyph unicode="W" horiz-adv-x="1036" d="M898 0H589L521 468L452 0H139L-14 722H242L304 267L372 722H670L737 267L801 722H1051L898 0Z"  />
<glyph unicode="X" horiz-adv-x="778" d="M492 0L384 220L272 0H-14L221 369L2 722H302L398 519L495 722H784L561 369L792 0H492Z"  />
<glyph unicode="Y" horiz-adv-x="740" d="M513 250V0H228V250L-18 722H278L381 419L482 722H758L513 250Z"  />
<glyph unicode="Z" horiz-adv-x="685" d="M23 0V174L324 534H32V722H655V549L354 188H662V0H23Z"  />
<glyph unicode="[" horiz-adv-x="481" d="M81 -146V722H447V560H292V14H447V-146H81Z"  />
<glyph unicode="\" horiz-adv-x="370" d="M239 -14L-21 722H129L391 -14H239Z"  />
<glyph unicode="]" horiz-adv-x="481" d="M35 -146V14H190V560H35V722H400V-146H35Z"  />
<glyph unicode="^" horiz-adv-x="600" d="M395 359L300 582L205 359H65L229 722H371L535 359H395Z"  />
<glyph unicode="_" horiz-adv-x="500" d="M0 -125V-75H500V-125H0Z"  />
<glyph unicode="`" horiz-adv-x="278" d="M75 552L-79 722H156L252 552H75Z"  />
<glyph unicode="a" horiz-adv-x="592" d="M341 0L337 53Q308 18 274 3T191 -13Q107 -13 61 27T15 141Q15 196 41 231T106 285T194 311T287 318Q295 318 306 318T332 317V360Q332 400 286 400Q262 400 251 389T239 352H40V353Q40 376 48 399T71 440Q128 513 295 513Q361 513 407 504T489 475Q510 463 522 448T541 413T550 373T553 330V0H341ZM335 223Q327 224 323 224T313 225Q224 225 224 163Q224 115 279 115Q309 115 322 133T335 197V223Z"  />
<glyph unicode="b" horiz-adv-x="666" d="M637 259Q637 129 581 57T424 -16Q375 -16 340 2T275 58L267 0H39V722H285V456Q315 489 351 503T432 517Q529 517 583 449T637 259ZM390 250Q390 274 389 296T383 335T366 362T335 373Q315 373 304 364T287 337T281 296T280 243Q280 221 280 200T286 163T302 138T333 128Q365 128 377 155T390 250Z"  />
<glyph unicode="c" horiz-adv-x="630" d="M607 206Q607 141 584 99T521 31T431 -5T325 -15Q258 -15 203 -1T109 45T48 128T26 253Q26 315 46 364T105 447T199 499T325 517Q456 517 529 461T603 302V301H380Q379 349 368 369T327 390Q305 390 294 379T277 345T270 293T269 225Q269 206 269 186T275 149T292 121T327 110Q345 110 355 120T371 144T378 175T380 206H607H607Z"  />
<glyph unicode="d" horiz-adv-x="666" d="M397 0L389 58Q361 20 325 2T240 -16Q140 -16 84 56T28 259Q28 380 81 448T231 517Q277 517 313 504T380 456V722H625V0H397ZM384 260Q384 279 383 299T377 336T361 362T329 373Q309 373 298 364T282 338T276 299T274 250Q274 182 287 155T332 128Q353 128 363 139T378 167T383 206T384 249V260Z"  />
<glyph unicode="e" horiz-adv-x="630" d="M258 208V207V185Q258 151 272 129T325 106Q380 106 388 164H598Q598 152 594 139T583 112T568 86T553 65Q517 23 459 4T312 -16Q245 -16 192 0T102 50T45 135T25 255Q25 326 48 376T112 459T209 505T331 520Q403 520 455 501T540 444T589 355T605 235V208H258ZM388 315Q388 333 386 348T377 374T358 391T324 398Q304 398 291 392T271 375T261 348T258 315H388Z"  />
<glyph unicode="f" horiz-adv-x="388" d="M398 574Q387 575 374 575T348 576Q322 576 311 566T300 530V500H389V352H300V0H61V352H2V500H61V532Q61 583 72 616T110 676Q136 702 176 716T265 730Q274 730 290 729T324 726T362 721T398 715V574H398Z"  />
<glyph unicode="g" horiz-adv-x="666" d="M625 66Q625 34 624 13T621 -25T613 -56T600 -87Q574 -146 502 -175T316 -204Q246 -204 197 -193T112 -156Q83 -136 67 -102T50 -32H286Q288 -73 337 -73Q372 -73 385 -52T398 23V74Q353 9 246 9Q190 9 149 27T81 78T41 155T27 253Q27 305 39 352T79 435T147 492T245 513Q344 513 391 447L399 500H625V66ZM388 262Q388 277 388 296T383 332T367 360T334 372Q312 372 301 360T284 329T278 286T277 237Q277 222 277 206T283 177T298 154T329 145Q352 145 364 154T381 180T387 217T388 262Z"  />
<glyph unicode="h" horiz-adv-x="648" d="M370 0V307Q370 366 326 366Q311 366 303 360T289 344T283 323T281 299V0H37V722H281V433Q307 477 343 496T437 516Q493 516 527 500T580 455T605 390T612 313V0H370Z"  />
<glyph unicode="i" horiz-adv-x="314" d="M38 569V722H276V569H38ZM38 0V500H276V0H38Z"  />
<glyph unicode="j" horiz-adv-x="314" d="M37 569V722H275V569H37ZM275 -10Q275 -72 262 -105T217 -160Q202 -170 186 -176T147 -187T93 -192T19 -194Q-16 -194 -50 -191V-65Q-45 -65 -40 -65T-29 -66Q11 -66 23 -51Q37 -34 37 13V500H275V-10Z"  />
<glyph unicode="k" horiz-adv-x="630" d="M377 0L275 262V0H35V722H275V308L369 500H630L491 287L641 0H377Z"  />
<glyph unicode="l" horiz-adv-x="314" d="M38 0V722H276V0H38Z"  />
<glyph unicode="m" horiz-adv-x="980" d="M703 0V309Q703 366 660 366Q638 366 626 350T614 303V0H372V307Q372 366 328 366Q301 366 292 348T283 302V0H39V500H272L277 426Q307 475 344 495T440 516Q501 516 539 494T604 420Q657 516 769 516Q855 516 898 470T942 343V0H703Z"  />
<glyph unicode="n" horiz-adv-x="648" d="M370 0V307Q370 366 326 366Q298 366 290 346T281 303V0H37V500H270L275 426Q303 474 341 495T437 516Q518 516 562 475Q581 458 591 438T605 396T611 351T612 303V0H370Z"  />
<glyph unicode="o" horiz-adv-x="666" d="M640 252Q640 176 616 125T548 43T446 -2T318 -16Q255 -16 202 0T109 50T47 134T25 251Q25 320 48 371T111 455T207 504T327 521Q393 521 450 506T550 459T616 375T640 252ZM389 259Q389 328 376 357T334 387Q317 387 306 378T289 352T281 312T279 259Q279 224 280 198T287 153T303 126T332 117Q352 117 363 129T380 160T387 205T389 259Z"  />
<glyph unicode="p" horiz-adv-x="666" d="M637 241Q637 120 583 52T433 -17Q385 -17 351 -4T285 44V-192H39V500H267L275 442Q330 516 424 516Q524 516 580 444T637 241ZM390 250Q390 318 377 345T332 372Q314 372 304 364T288 340T281 302T280 251Q280 227 281 205T287 166T303 138T335 127Q356 127 367 138T383 168T389 208T390 250Z"  />
<glyph unicode="q" horiz-adv-x="666" d="M380 -192V44Q351 11 315 -3T232 -17Q135 -17 82 51T28 241Q28 372 84 444T240 516Q289 516 324 498T389 442L397 500H625V-192H380ZM384 257Q384 279 384 299T379 336T363 362T332 372Q313 372 302 363T284 338T276 299T274 250Q274 229 274 208T280 168T296 139T329 127Q352 127 363 139T379 170T384 212T384 257Z"  />
<glyph unicode="r" horiz-adv-x="444" d="M442 306Q419 311 397 315T351 319Q315 319 299 302T282 244V0H37V500H270L275 447Q295 469 320 488T378 507Q391 507 409 503T442 493V306H442Z"  />
<glyph unicode="s" horiz-adv-x="592" d="M569 159Q569 117 555 87T509 33Q472 5 421 -7T286 -19Q236 -19 189 -12T105 16T45 71T22 162H243Q243 94 298 94Q349 94 349 139Q349 165 322 174T242 191L219 194Q118 207 75 243T31 345Q31 400 56 434T120 487T206 512T297 519Q425 519 489 477T554 351V350H346V355Q346 383 334 395T295 407Q246 407 246 368Q246 344 268 338T343 322L391 314Q422 309 458 298T515 273Q541 258 555 228T569 159Z"  />
<glyph unicode="t" horiz-adv-x="426" d="M308 352V204Q308 171 317 158T349 145Q361 145 378 147T412 153V5Q373 -4 334 -10T254 -16Q170 -16 120 19Q87 42 80 74T72 145V352H5V500H71V583L308 667V500H421V352H308Z"  />
<glyph unicode="u" horiz-adv-x="648" d="M378 0L373 74Q345 26 307 5T211 -16Q130 -16 86 25Q67 42 57 62T43 104T37 149T36 197V500H278V193Q278 134 322 134Q337 134 345 139T359 154T365 174T367 198V500H611V0H378Z"  />
<glyph unicode="v" horiz-adv-x="630" d="M481 0H151L0 500H250L317 191L383 500H630L481 0Z"  />
<glyph unicode="w" horiz-adv-x="944" d="M820 0H526L462 319L403 0H107L-2 500H229L273 174L335 500H600L659 174L712 500H946L820 0Z"  />
<glyph unicode="x" horiz-adv-x="630" d="M389 0L315 150L254 0H-13L140 267L2 500H260L312 368L358 500H615L488 267L643 0H389Z"  />
<glyph unicode="y" horiz-adv-x="630" d="M396 -192H135L201 -15L-3 500H255L325 226L393 500H634L396 -192Z"  />
<glyph unicode="z" horiz-adv-x="536" d="M25 0V139L200 340H39V500H495V343L336 162H512V0H25Z"  />
<glyph unicode="{" horiz-adv-x="481" d="M270 -146Q237 -146 211 -135T167 -106T140 -66T131 -20V151Q131 170 123 181T101 198T71 205T37 207V371Q54 371 70 372T100 380T122 397T131 427V596Q131 619 140 641T167 682T211 711T270 722H436V560H401Q370 560 357 546T343 500V383Q343 356 331 339T302 312T265 297T231 290V288Q246 286 265 281T301 266T331 239T343 195V74Q343 42 356 28T401 14H436V-146H270Z"  />
<glyph unicode="|" horiz-adv-x="222" d="M33 -19V741H189V-19H33Z"  />
<glyph unicode="}" horiz-adv-x="481" d="M444 207Q427 207 411 206T381 198T359 181T350 151V-20Q350 -43 341 -65T314 -106T270 -135T211 -146H45V14H80Q111 14 124 28T138 74V195Q138 222 150 239T179 266T216 281T250 288V290Q235 292 216 297T180 312T150 339T138 383V500Q138 532 125 546T80 560H45V722H211Q244 722 270 711T314 682T341 642T350 596V427Q350 408 358 397T380 380T410 373T444 371V207H444Z"  />
<glyph unicode="~" horiz-adv-x="600" d="M582 358Q580 326 571 288T544 218T498 163T430 141Q413 141 389 146T338 158T287 173T248 185Q231 190 210 195T171 201Q146 201 134 186T119 148H17Q17 180 27 217T56 287T105 340T171 362Q184 362 202 359T239 352T275 342T306 332Q335 323 366 313T429 303Q457 303 466 319T480 358H582H582Z"  />
<glyph unicode="&#xA0;" horiz-adv-x="352" />
<glyph unicode="&#xA1;" horiz-adv-x="370" d="M85 326H285L328 -185H42L85 326ZM64 537H306V373H64V537Z"  />
<glyph unicode="&#xA2;" horiz-adv-x="704" d="M293 -15Q245 -9 204 8T131 58Q99 90 81 138T63 254Q63 314 83 359T135 437T208 489T293 517V625H435V517Q523 506 579 451T641 296H417Q415 344 406 368T365 393Q350 393 339 388T320 367T309 322T305 244Q305 202 307 176T316 135T333 115T361 109Q392 109 402 132T417 203H641Q641 150 626 113T583 50T517 9T435 -15V-123H293V-15Z"  />
<glyph unicode="&#xA3;" horiz-adv-x="704" d="M447 507Q444 560 407 560Q359 560 359 472V449H498V282H359V192H676V0H37V192H109V282H16V449H109V484Q109 554 131 602T194 682T290 727T411 741Q465 741 516 731T606 696T669 630T693 525V507H447Z"  />
<glyph unicode="&#xA4;" horiz-adv-x="704" d="M88 174L143 229Q124 257 114 290T104 361Q104 399 115 434T146 498L88 556L161 629L221 570Q280 609 352 609Q427 609 483 570L543 629L616 556L558 498Q578 469 589 434T600 361Q600 324 590 291T561 229L616 174L543 101L489 155Q460 135 425 124T352 113Q314 113 279 124T215 155L161 101L88 174ZM234 361Q234 337 243 316T269 278T306 253T352 243Q376 243 397 252T435 278T460 315T470 361Q470 385 461 406T435 444T398 469T352 479Q328 479 307 470T269 444T244 407T234 361Z"  />
<glyph unicode="&#xA5;" horiz-adv-x="704" d="M217 82H68V218H217V250L203 277H68V413H136L-15 722H265L360 419H362L457 722H719L566 413H634V277H499L485 250V218H634V82H485V0H217V82Z"  />
<glyph unicode="&#xA6;" horiz-adv-x="222" d="M33 447V741H189V447H33ZM33 -19V275H189V-19H33Z"  />
<glyph unicode="&#xA7;" horiz-adv-x="704" d="M622 382Q622 274 508 235Q581 203 581 128Q581 80 557 51T497 7T417 -14T337 -19Q278 -19 216 -12T102 9V144Q153 127 194 118T262 109Q283 109 295 118T307 143Q307 161 289 170T229 197L192 212Q169 221 149 233T114 261T91 298T82 347Q82 396 113 431T196 478Q154 491 132 520T109 591Q109 642 135 671T200 715T283 734T366 738Q416 738 465 732T563 718V590Q548 594 530 598T494 605T460 609T431 611Q391 611 391 589Q391 579 403 572T455 548L511 525Q571 501 596 468T622 382ZM427 365Q427 385 406 399T332 429Q306 415 295 402T284 375Q284 357 304 341T377 304Q400 315 413 331T427 365Z"  />
<glyph unicode="&#xA8;" horiz-adv-x="278" d="M-63 722H101V552H-63V722ZM177 722H341V552H177V722Z"  />
<glyph unicode="&#xA9;" horiz-adv-x="800" d="M780 361Q780 282 750 213T669 93T548 11T400 -19Q321 -19 252 11T132 92T50 213T20 361Q20 440 50 509T131 629T252 711T400 741Q479 741 548 711T668 630T750 509T780 361ZM662 361Q662 415 642 463T586 546T502 602T400 623Q346 623 298 603T215 547T159 463T138 361Q138 307 158 259T214 176T298 120T400 99Q454 99 502 119T585 175T641 259T662 361ZM584 306Q579 267 563 238T522 189T468 159T405 149Q359 149 322 165T257 209T216 276T201 360Q201 406 215 444T255 511T318 556T403 572Q472 572 521 534T584 421H478Q472 451 452 464T400 478Q358 478 336 447T313 362Q313 309 337 276T399 243Q431 243 452 257T478 306H584Z"  />
<glyph unicode="&#xAA;" horiz-adv-x="388" d="M127 411Q73 411 43 436T13 508Q13 563 57 591T189 620Q193 620 198 620T212 619V642Q212 663 187 663Q173 663 167 657T161 633H29Q29 739 193 739Q235 739 264 733T317 715Q340 703 349 682T359 623V453V433Q359 426 360 419H218L216 446Q196 426 178 419T127 411ZM182 496Q214 496 214 532V555H205Q152 555 152 522Q152 496 182 496Z"  />
<glyph unicode="&#xAB;" horiz-adv-x="648" d="M437 0L286 250L437 500H632L522 250L632 0H437ZM157 0L6 250L157 500H352L242 250L352 0H157Z"  />
<glyph unicode="&#xAC;" horiz-adv-x="600" d="M417 307H47V443H553V126H417V307Z"  />
<glyph unicode="&#xAD;" horiz-adv-x="407" d="M29 352H378V182H29V352Z"  />
<glyph unicode="&#xAE;" horiz-adv-x="400" d="M383 557Q383 519 369 486T330 428T272 389T200 374Q162 374 129 388T70 427T31 485T16 557Q16 595 30 628T70 687T128 726T200 741Q238 741 271 727T329 687T368 629T383 557ZM342 557Q342 587 331 613T301 658T255 689T200 700Q170 700 144 689T99 659T68 613T57 557Q57 527 68 502T98 457T144 426T200 415Q229 415 255 426T300 456T331 502T342 557ZM230 454Q225 468 226 480T226 502T217 517T190 523H182V454H119V660H200Q216 660 232 658T261 650T281 631T289 598Q289 560 254 548Q272 539 278 529T285 507T287 482T291 454H230ZM226 593Q226 607 216 610T195 614H182V570H195Q206 570 216 574T226 593Z"  />
<glyph unicode="&#xAF;" horiz-adv-x="278" d="M-75 699H353V581H-75V699Z"  />
<glyph unicode="&#xB0;" horiz-adv-x="400" d="M57 598Q57 628 68 654T98 699T144 730T200 741Q230 741 256 730T301 700T332 654T343 598Q343 568 332 542T302 497T256 466T200 455Q170 455 144 466T99 496T68 542T57 598ZM145 598Q145 575 161 559T200 543Q223 543 239 559T255 598Q255 621 239 637T200 653Q177 653 161 637T145 598Z"  />
<glyph unicode="&#xB1;" horiz-adv-x="600" d="M232 506H368V401H553V265H368V160H232V265H47V401H232V506ZM47 136H553V0H47V136Z"  />
<glyph unicode="&#xB2;" horiz-adv-x="444" d="M25 405L125 467Q151 484 170 498T209 530Q228 549 236 563T245 594Q245 622 216 622Q181 622 181 578V574H21V579Q21 730 217 730Q315 730 361 696T408 595Q408 533 360 488Q346 474 336 466T315 449T289 432T247 407H409V289H25V405Z"  />
<glyph unicode="&#xB3;" horiz-adv-x="444" d="M217 277Q15 277 15 424V429H171Q171 382 211 382Q249 382 249 419Q249 441 233 450T179 460Q175 460 170 460T158 459V557Q166 557 170 557T180 556Q216 556 230 565T245 596Q245 628 209 628Q191 628 184 619T176 586V582H22V587Q22 659 71 695T217 732Q311 732 360 700T410 608Q410 573 388 548Q377 536 367 530T333 516Q358 510 370 504T394 485Q418 459 418 417Q418 350 366 314T217 277Z"  />
<glyph unicode="&#xB4;" horiz-adv-x="278" d="M114 722H346L192 552H16L114 722Z"  />
<glyph unicode="&#xB5;" horiz-adv-x="648" d="M370 502H612V0H376L370 76H368Q356 46 345 29T325 1T308 -12T294 -15Q284 -15 278 -11V-192H36V502H278V187Q278 161 290 147T322 133Q342 133 356 146T370 189V502Z"  />
<glyph unicode="&#xB6;" horiz-adv-x="620" d="M432 -192V596H362V-192H210V239Q113 251 65 305T16 463Q16 526 36 574T91 655T175 705T283 722H584V-192H432Z"  />
<glyph unicode="&#xB7;" horiz-adv-x="352" d="M54 182V390H297V182H54Z"  />
<glyph unicode="&#xB8;" horiz-adv-x="278" d="M106 0H188L156 -56H158Q163 -54 171 -54T187 -53Q226 -53 254 -75T282 -138Q282 -163 271 -183T240 -216T193 -237T135 -244Q96 -244 59 -237T-4 -216L23 -152Q46 -163 69 -169T112 -176Q132 -176 148 -167T164 -142Q164 -128 151 -122T124 -115Q112 -115 93 -122L55 -92L106 0Z"  />
<glyph unicode="&#xB9;" horiz-adv-x="444" d="M151 562Q122 542 101 533T56 519V647Q84 656 104 664T138 682T164 700T187 722H326V289H151V562Z"  />
<glyph unicode="&#xBA;" horiz-adv-x="434" d="M210 406Q120 406 70 450T20 572Q20 652 71 696T214 741Q311 741 363 698T415 573Q415 492 364 449T210 406ZM217 494Q235 494 242 512T249 577Q249 618 243 634T219 651Q210 651 204 648T195 636T189 611T187 567Q187 525 193 510T217 494Z"  />
<glyph unicode="&#xBB;" horiz-adv-x="648" d="M491 0H296L406 250L296 500H491L642 250L491 0ZM211 0H16L126 250L16 500H211L362 250L211 0Z"  />
<glyph unicode="&#xBC;" horiz-adv-x="1055" d="M147 562Q118 542 97 533T52 519V647Q80 656 100 664T134 682T160 700T183 722H322V289H147V562ZM667 747H773L370 -25H264L667 747ZM823 68H619V193L769 433H986V184H1040V68H986V0H823V68ZM823 184V310Q804 278 787 247T752 184H823Z"  />
<glyph unicode="&#xBD;" horiz-adv-x="1055" d="M147 562Q118 542 97 533T52 519V647Q80 656 100 664T134 682T160 700T183 722H322V289H147V562ZM658 747H764L361 -25H255L658 747ZM636 116L736 178Q762 195 781 209T820 241Q839 260 847 274T856 305Q856 333 827 333Q792 333 792 289V285H632V290Q632 441 828 441Q926 441 972 407T1019 306Q1019 244 971 199Q957 185 947 177T926 160T900 143T858 118H1020V0H636V116Z"  />
<glyph unicode="&#xBE;" horiz-adv-x="1055" d="M217 277Q15 277 15 424V429H171Q171 382 211 382Q249 382 249 419Q249 441 233 450T179 460Q175 460 170 460T158 459V557Q166 557 170 557T180 556Q216 556 230 565T245 596Q245 628 209 628Q191 628 184 619T176 586V582H22V587Q22 659 71 695T217 732Q311 732 360 700T410 608Q410 573 388 548Q377 536 367 530T333 516Q358 510 370 504T394 485Q418 459 418 417Q418 350 366 314T217 277ZM679 747H785L382 -25H276L679 747ZM807 68H603V193L753 433H970V184H1024V68H970V0H807V68ZM807 184V310Q788 278 771 247T736 184H807Z"  />
<glyph unicode="&#xBF;" horiz-adv-x="537" d="M204 329H446V265Q446 233 435 210T402 165L329 91Q315 76 310 62T304 39Q304 15 322 3T374 -10Q402 -10 437 -2T507 20V-168Q481 -177 452 -184T395 -195T342 -202T297 -204Q240 -204 190 -193T102 -157T42 -95T20 -6Q20 47 37 79T86 139L170 211Q187 225 195 240T204 280V329ZM204 537H446V373H204V537Z"  />
<glyph unicode="&#xC0;" horiz-adv-x="796" d="M518 0L490 116H282L253 0H-19L213 722H584L816 0H518ZM389 563L325 292H448L389 563ZM181 942H413L511 772H335L181 942Z"  />
<glyph unicode="&#xC1;" horiz-adv-x="796" d="M518 0L490 116H282L253 0H-19L213 722H584L816 0H518ZM389 563L325 292H448L389 563ZM373 942H605L451 772H275L373 942Z"  />
<glyph unicode="&#xC2;" horiz-adv-x="796" d="M518 0L490 116H282L253 0H-19L213 722H584L816 0H518ZM389 563L325 292H448L389 563ZM391 848L347 772H165L279 942H503L617 772H435L391 848Z"  />
<glyph unicode="&#xC3;" horiz-adv-x="796" d="M518 0L490 116H282L253 0H-19L213 722H584L816 0H518ZM389 563L325 292H448L389 563ZM607 936Q607 858 576 815T468 772Q450 772 428 777T385 789T346 800T318 806Q299 806 299 778H175V797Q175 860 208 901T301 942Q322 942 346 937T392 925T432 914T460 908Q469 908 475 915T483 936H607Z"  />
<glyph unicode="&#xC4;" horiz-adv-x="796" d="M518 0L490 116H282L253 0H-19L213 722H584L816 0H518ZM389 563L325 292H448L389 563ZM189 942H353V772H189V942ZM429 942H593V772H429V942Z"  />
<glyph unicode="&#xC5;" horiz-adv-x="796" d="M518 0L490 116H282L253 0H-19L213 722H584L816 0H518ZM389 563L325 292H448L389 563ZM260 886Q260 913 270 937T298 978T340 1006T391 1017Q418 1017 442 1007T483 979T511 937T522 886Q522 859 512 835T484 794T442 766T391 755Q364 755 340 765T299 793T271 835T260 886ZM348 886Q348 868 360 856T391 843Q409 843 421 855T434 886Q434 904 422 916T391 929Q373 929 361 917T348 886Z"  />
<glyph unicode="&#xC6;" horiz-adv-x="1000" d="M975 532H720L727 451H956V271H748L757 185H981V0H513L501 116H289L247 0H-22L283 722H975V532ZM481 292L456 572L354 292H481Z"  />
<glyph unicode="&#xC7;" horiz-adv-x="758" d="M337 -16Q186 -1 105 96T24 361Q24 450 49 520T121 638T237 711T394 737Q467 737 529 721T636 670T706 581T731 450V449H468Q464 501 448 523T400 546Q372 546 356 532T333 492T323 434T321 363Q321 323 323 288T332 227T356 185T401 170Q433 170 449 192T468 266H736V265Q736 201 715 150T652 63T551 6T417 -18L396 -56H398Q403 -54 411 -54T427 -53Q466 -53 494 -75T522 -138Q522 -163 511 -183T480 -216T433 -237T375 -244Q336 -244 299 -237T236 -216L263 -152Q286 -163 309 -169T352 -176Q372 -176 388 -167T404 -142Q404 -128 391 -122T364 -115Q352 -115 333 -122L295 -92L337 -16Z"  />
<glyph unicode="&#xC8;" horiz-adv-x="630" d="M51 0V722H600V534H326V456H579V269H326V188H609V0H51ZM98 942H330L428 772H252L98 942Z"  />
<glyph unicode="&#xC9;" horiz-adv-x="630" d="M51 0V722H600V534H326V456H579V269H326V188H609V0H51ZM290 942H522L368 772H192L290 942Z"  />
<glyph unicode="&#xCA;" horiz-adv-x="630" d="M51 0V722H600V534H326V456H579V269H326V188H609V0H51ZM315 848L271 772H89L203 942H427L541 772H359L315 848Z"  />
<glyph unicode="&#xCB;" horiz-adv-x="630" d="M51 0V722H600V534H326V456H579V269H326V188H609V0H51ZM113 942H277V772H113V942ZM353 942H517V772H353V942Z"  />
<glyph unicode="&#xCC;" horiz-adv-x="388" d="M51 0V722H336V0H51ZM-23 942H209L307 772H131L-23 942Z"  />
<glyph unicode="&#xCD;" horiz-adv-x="388" d="M51 0V722H336V0H51ZM169 942H401L247 772H71L169 942Z"  />
<glyph unicode="&#xCE;" horiz-adv-x="388" d="M51 0V722H336V0H51ZM194 848L150 772H-32L82 942H306L420 772H238L194 848Z"  />
<glyph unicode="&#xCF;" horiz-adv-x="388" d="M51 0V722H336V0H51ZM-8 942H156V772H-8V942ZM232 942H396V772H232V942Z"  />
<glyph unicode="&#xD0;" horiz-adv-x="796" d="M49 428V722H373Q415 722 445 720T500 714T547 703T594 686Q636 669 669 639T726 567T761 474T774 366Q774 321 766 276T741 191T696 116T627 56Q535 0 400 0H49V306H-7V428H49ZM477 370Q477 406 475 439T460 499T424 542T356 558H331V428H413V306H331V166H353Q398 166 423 183T460 229T474 295T477 370Z"  />
<glyph unicode="&#xD1;" horiz-adv-x="832" d="M438 0L282 442V0H51V722H400L549 287V722H780V0H438ZM633 936Q633 858 602 815T494 772Q476 772 454 777T411 789T372 800T344 806Q325 806 325 778H201V797Q201 860 234 901T327 942Q348 942 372 937T418 925T458 914T486 908Q495 908 501 915T509 936H633Z"  />
<glyph unicode="&#xD2;" horiz-adv-x="796" d="M771 361Q771 272 745 202T671 82T554 6T397 -21Q310 -21 241 5T124 79T51 198T25 356Q25 447 50 519T124 640T244 715T406 741Q493 741 560 716T675 642T746 522T771 361ZM474 377Q474 416 472 448T463 503T440 538T400 551Q352 551 336 502T320 353Q320 312 323 279T334 221T357 184T395 170Q417 170 432 180T457 215T470 278T474 377ZM182 942H414L512 772H336L182 942Z"  />
<glyph unicode="&#xD3;" horiz-adv-x="796" d="M771 361Q771 272 745 202T671 82T554 6T397 -21Q310 -21 241 5T124 79T51 198T25 356Q25 447 50 519T124 640T244 715T406 741Q493 741 560 716T675 642T746 522T771 361ZM474 377Q474 416 472 448T463 503T440 538T400 551Q352 551 336 502T320 353Q320 312 323 279T334 221T357 184T395 170Q417 170 432 180T457 215T470 278T474 377ZM374 942H606L452 772H276L374 942Z"  />
<glyph unicode="&#xD4;" horiz-adv-x="796" d="M771 361Q771 272 745 202T671 82T554 6T397 -21Q310 -21 241 5T124 79T51 198T25 356Q25 447 50 519T124 640T244 715T406 741Q493 741 560 716T675 642T746 522T771 361ZM474 377Q474 416 472 448T463 503T440 538T400 551Q352 551 336 502T320 353Q320 312 323 279T334 221T357 184T395 170Q417 170 432 180T457 215T470 278T474 377ZM399 848L355 772H173L287 942H511L625 772H443L399 848Z"  />
<glyph unicode="&#xD5;" horiz-adv-x="796" d="M771 361Q771 272 745 202T671 82T554 6T397 -21Q310 -21 241 5T124 79T51 198T25 356Q25 447 50 519T124 640T244 715T406 741Q493 741 560 716T675 642T746 522T771 361ZM474 377Q474 416 472 448T463 503T440 538T400 551Q352 551 336 502T320 353Q320 312 323 279T334 221T357 184T395 170Q417 170 432 180T457 215T470 278T474 377ZM615 936Q615 858 584 815T476 772Q458 772 436 777T393 789T354 800T326 806Q307 806 307 778H183V797Q183 860 216 901T309 942Q330 942 354 937T400 925T440 914T468 908Q477 908 483 915T491 936H615Z"  />
<glyph unicode="&#xD6;" horiz-adv-x="796" d="M771 361Q771 272 745 202T671 82T554 6T397 -21Q310 -21 241 5T124 79T51 198T25 356Q25 447 50 519T124 640T244 715T406 741Q493 741 560 716T675 642T746 522T771 361ZM474 377Q474 416 472 448T463 503T440 538T400 551Q352 551 336 502T320 353Q320 312 323 279T334 221T357 184T395 170Q417 170 432 180T457 215T470 278T474 377ZM197 942H361V772H197V942ZM437 942H601V772H437V942Z"  />
<glyph unicode="&#xD7;" horiz-adv-x="600" d="M58 105L207 253L58 401L152 495L300 347L448 495L542 401L393 253L542 105L448 11L300 159L152 11L58 105Z"  />
<glyph unicode="&#xD8;" horiz-adv-x="796" d="M44 -32L123 80Q24 182 24 356Q24 447 49 518T123 639T242 715T401 741Q446 741 493 734T576 709L647 809L736 745L668 648Q719 597 744 525T770 362Q770 273 744 203T670 82T553 6T398 -21Q354 -21 305 -12T219 14L139 -100L44 -32ZM342 187Q359 170 397 170Q423 170 441 180T470 214T485 277T490 374Q490 379 490 384T489 394V396L342 187ZM452 536Q443 543 428 547T396 551Q347 551 329 513Q318 490 312 450T305 361Q305 353 305 348T306 335V333L452 536Z"  />
<glyph unicode="&#xD9;" horiz-adv-x="778" d="M733 270Q733 172 703 117Q685 85 654 60T581 16T488 -11T380 -21Q339 -21 296 -15T211 5T135 43T78 106Q61 135 54 166T46 243V722H333V257Q333 176 392 176Q421 176 436 196T452 253V722H733V270H733ZM172 942H404L502 772H326L172 942Z"  />
<glyph unicode="&#xDA;" horiz-adv-x="778" d="M733 270Q733 172 703 117Q685 85 654 60T581 16T488 -11T380 -21Q339 -21 296 -15T211 5T135 43T78 106Q61 135 54 166T46 243V722H333V257Q333 176 392 176Q421 176 436 196T452 253V722H733V270H733ZM384 942H616L462 772H286L384 942Z"  />
<glyph unicode="&#xDB;" horiz-adv-x="778" d="M733 270Q733 172 703 117Q685 85 654 60T581 16T488 -11T380 -21Q339 -21 296 -15T211 5T135 43T78 106Q61 135 54 166T46 243V722H333V257Q333 176 392 176Q421 176 436 196T452 253V722H733V270H733ZM389 848L345 772H163L277 942H501L615 772H433L389 848Z"  />
<glyph unicode="&#xDC;" horiz-adv-x="778" d="M733 270Q733 172 703 117Q685 85 654 60T581 16T488 -11T380 -21Q339 -21 296 -15T211 5T135 43T78 106Q61 135 54 166T46 243V722H333V257Q333 176 392 176Q421 176 436 196T452 253V722H733V270H733ZM187 942H351V772H187V942ZM427 942H591V772H427V942Z"  />
<glyph unicode="&#xDD;" horiz-adv-x="740" d="M513 250V0H228V250L-18 722H278L381 419L482 722H758L513 250ZM365 942H597L443 772H267L365 942Z"  />
<glyph unicode="&#xDE;" horiz-adv-x="740" d="M51 722H338V609H456Q482 609 502 608T538 604T570 597T602 585Q660 561 694 504T728 374Q728 273 665 208Q629 172 586 156Q568 149 552 145T517 137T475 133T420 132H338V0H51V722ZM352 296Q406 296 429 314T453 376Q453 414 432 432T363 450H338V296H352Z"  />
<glyph unicode="&#xDF;" horiz-adv-x="758" d="M35 506Q35 567 53 611T111 685T213 728T361 742Q512 742 594 697T676 568Q676 550 674 537T665 512T646 485T611 451Q597 438 589 430T576 417T570 407T568 398Q568 393 570 388T582 376T607 357T651 328Q704 295 727 262T751 179Q751 135 735 99T686 36T605 -4T495 -19Q393 -19 346 23T298 155V169H471V164Q471 120 502 120Q532 120 532 160Q532 166 531 172T524 186T506 205T469 232L418 265Q370 296 351 323T331 386Q331 416 342 438T376 479Q406 504 424 523T442 565Q442 588 424 602T374 617Q327 617 302 582T276 480V0H35V506Z"  />
<glyph unicode="&#xE0;" horiz-adv-x="592" d="M341 0L337 53Q308 18 274 3T191 -13Q107 -13 61 27T15 141Q15 196 41 231T106 285T194 311T287 318Q295 318 306 318T332 317V360Q332 400 286 400Q262 400 251 389T239 352H40V353Q40 376 48 399T71 440Q128 513 295 513Q361 513 407 504T489 475Q510 463 522 448T541 413T550 373T553 330V0H341ZM335 223Q327 224 323 224T313 225Q224 225 224 163Q224 115 279 115Q309 115 322 133T335 197V223ZM242 552L88 722H323L419 552H242Z"  />
<glyph unicode="&#xE1;" horiz-adv-x="592" d="M341 0L337 53Q308 18 274 3T191 -13Q107 -13 61 27T15 141Q15 196 41 231T106 285T194 311T287 318Q295 318 306 318T332 317V360Q332 400 286 400Q262 400 251 389T239 352H40V353Q40 376 48 399T71 440Q128 513 295 513Q361 513 407 504T489 475Q510 463 522 448T541 413T550 373T553 330V0H341ZM335 223Q327 224 323 224T313 225Q224 225 224 163Q224 115 279 115Q309 115 322 133T335 197V223ZM281 722H513L359 552H183L281 722Z"  />
<glyph unicode="&#xE2;" horiz-adv-x="592" d="M341 0L337 53Q308 18 274 3T191 -13Q107 -13 61 27T15 141Q15 196 41 231T106 285T194 311T287 318Q295 318 306 318T332 317V360Q332 400 286 400Q262 400 251 389T239 352H40V353Q40 376 48 399T71 440Q128 513 295 513Q361 513 407 504T489 475Q510 463 522 448T541 413T550 373T553 330V0H341ZM335 223Q327 224 323 224T313 225Q224 225 224 163Q224 115 279 115Q309 115 322 133T335 197V223ZM289 628L245 552H63L177 722H401L515 552H333L289 628Z"  />
<glyph unicode="&#xE3;" horiz-adv-x="592" d="M341 0L337 53Q308 18 274 3T191 -13Q107 -13 61 27T15 141Q15 196 41 231T106 285T194 311T287 318Q295 318 306 318T332 317V360Q332 400 286 400Q262 400 251 389T239 352H40V353Q40 376 48 399T71 440Q128 513 295 513Q361 513 407 504T489 475Q510 463 522 448T541 413T550 373T553 330V0H341ZM335 223Q327 224 323 224T313 225Q224 225 224 163Q224 115 279 115Q309 115 322 133T335 197V223ZM505 716Q505 638 474 595T366 552Q348 552 326 557T283 569T244 580T216 586Q197 586 197 558H73V577Q73 640 106 681T199 722Q220 722 244 717T290 705T330 694T358 688Q367 688 373 695T381 716H505Z"  />
<glyph unicode="&#xE4;" horiz-adv-x="592" d="M341 0L337 53Q308 18 274 3T191 -13Q107 -13 61 27T15 141Q15 196 41 231T106 285T194 311T287 318Q295 318 306 318T332 317V360Q332 400 286 400Q262 400 251 389T239 352H40V353Q40 376 48 399T71 440Q128 513 295 513Q361 513 407 504T489 475Q510 463 522 448T541 413T550 373T553 330V0H341ZM335 223Q327 224 323 224T313 225Q224 225 224 163Q224 115 279 115Q309 115 322 133T335 197V223ZM87 722H251V552H87V722ZM327 722H491V552H327V722Z"  />
<glyph unicode="&#xE5;" horiz-adv-x="592" d="M341 0L337 53Q308 18 274 3T191 -13Q107 -13 61 27T15 141Q15 196 41 231T106 285T194 311T287 318Q295 318 306 318T332 317V360Q332 400 286 400Q262 400 251 389T239 352H40V353Q40 376 48 399T71 440Q128 513 295 513Q361 513 407 504T489 475Q510 463 522 448T541 413T550 373T553 330V0H341ZM335 223Q327 224 323 224T313 225Q224 225 224 163Q224 115 279 115Q309 115 322 133T335 197V223ZM168 681Q168 708 178 732T206 773T248 801T299 812Q326 812 350 802T391 774T419 732T430 681Q430 654 420 630T392 589T350 561T299 550Q272 550 248 560T207 588T179 630T168 681ZM256 681Q256 663 268 651T299 638Q317 638 329 650T342 681Q342 699 330 711T299 724Q281 724 269 712T256 681Z"  />
<glyph unicode="&#xE6;" horiz-adv-x="906" d="M873 163Q868 118 847 84T791 28T710 -6T609 -17Q480 -17 422 54Q387 15 343 -1T228 -17Q126 -17 69 26T12 145Q12 180 26 210T67 263Q87 280 111 290T165 305T234 312T323 314H331Q332 325 332 331T332 345Q332 382 321 395T283 409Q239 409 238 353H40Q42 432 102 476T267 520Q326 520 375 506T453 463Q520 520 620 520Q681 520 730 501T813 445T865 357T884 241Q884 234 884 228T882 207H535V195Q535 104 602 104Q629 104 646 119T665 163H873ZM667 321Q667 358 650 378T603 399Q572 399 555 379T537 320V314H667V321ZM334 221Q326 222 322 222T312 222Q265 222 244 209T223 166Q223 142 237 128T277 113Q308 113 321 133T334 199V221Z"  />
<glyph unicode="&#xE7;" horiz-adv-x="630" d="M272 -13Q216 -8 171 9T93 58T44 139T26 253Q26 315 46 364T105 447T199 499T325 517Q456 517 529 461T603 302V301H380Q379 349 368 369T327 390Q305 390 294 379T277 345T270 293T269 225Q269 206 269 186T275 149T292 121T327 110Q345 110 355 120T371 144T378 175T380 206H607Q607 145 587 104T531 38T450 0T353 -14L329 -56H331Q336 -54 344 -54T360 -53Q399 -53 427 -75T455 -138Q455 -163 444 -183T413 -216T366 -237T308 -244Q269 -244 232 -237T169 -216L196 -152Q219 -163 242 -169T285 -176Q305 -176 321 -167T337 -142Q337 -128 324 -122T297 -115Q285 -115 266 -122L228 -92L272 -13Z"  />
<glyph unicode="&#xE8;" horiz-adv-x="630" d="M258 208V207V185Q258 151 272 129T325 106Q380 106 388 164H598Q598 152 594 139T583 112T568 86T553 65Q517 23 459 4T312 -16Q245 -16 192 0T102 50T45 135T25 255Q25 326 48 376T112 459T209 505T331 520Q403 520 455 501T540 444T589 355T605 235V208H258ZM388 315Q388 333 386 348T377 374T358 391T324 398Q304 398 291 392T271 375T261 348T258 315H388ZM251 552L97 722H332L428 552H251Z"  />
<glyph unicode="&#xE9;" horiz-adv-x="630" d="M258 208V207V185Q258 151 272 129T325 106Q380 106 388 164H598Q598 152 594 139T583 112T568 86T553 65Q517 23 459 4T312 -16Q245 -16 192 0T102 50T45 135T25 255Q25 326 48 376T112 459T209 505T331 520Q403 520 455 501T540 444T589 355T605 235V208H258ZM388 315Q388 333 386 348T377 374T358 391T324 398Q304 398 291 392T271 375T261 348T258 315H388ZM290 722H522L368 552H192L290 722Z"  />
<glyph unicode="&#xEA;" horiz-adv-x="630" d="M258 208V207V185Q258 151 272 129T325 106Q380 106 388 164H598Q598 152 594 139T583 112T568 86T553 65Q517 23 459 4T312 -16Q245 -16 192 0T102 50T45 135T25 255Q25 326 48 376T112 459T209 505T331 520Q403 520 455 501T540 444T589 355T605 235V208H258ZM388 315Q388 333 386 348T377 374T358 391T324 398Q304 398 291 392T271 375T261 348T258 315H388ZM321 628L277 552H95L209 722H433L547 552H365L321 628Z"  />
<glyph unicode="&#xEB;" horiz-adv-x="630" d="M258 208V207V185Q258 151 272 129T325 106Q380 106 388 164H598Q598 152 594 139T583 112T568 86T553 65Q517 23 459 4T312 -16Q245 -16 192 0T102 50T45 135T25 255Q25 326 48 376T112 459T209 505T331 520Q403 520 455 501T540 444T589 355T605 235V208H258ZM388 315Q388 333 386 348T377 374T358 391T324 398Q304 398 291 392T271 375T261 348T258 315H388ZM119 722H283V552H119V722ZM359 722H523V552H359V722Z"  />
<glyph unicode="&#xEC;" horiz-adv-x="314" d="M36 500H278V0H36V500ZM93 552L-61 722H174L270 552H93Z"  />
<glyph unicode="&#xED;" horiz-adv-x="314" d="M36 500H278V0H36V500ZM132 722H364L210 552H34L132 722Z"  />
<glyph unicode="&#xEE;" horiz-adv-x="314" d="M36 500H278V0H36V500ZM157 628L113 552H-69L45 722H269L383 552H201L157 628Z"  />
<glyph unicode="&#xEF;" horiz-adv-x="314" d="M36 500H278V0H36V500ZM-45 722H119V552H-45V722ZM195 722H359V552H195V722Z"  />
<glyph unicode="&#xF0;" horiz-adv-x="666" d="M183 613Q175 617 169 620T155 627T136 635T107 645L213 769Q236 762 253 756T285 743T317 727T357 705L469 763L551 700L449 648Q543 580 586 493T630 286Q630 217 612 161T557 65T463 4T329 -18Q261 -18 206 -1T113 49T55 128T34 233Q34 286 52 330T104 407T182 458T280 477Q309 477 331 472T376 450Q366 482 345 507T280 562L175 506L82 562L183 613ZM329 115Q359 115 372 143T385 243Q385 302 375 324T336 346Q306 346 293 321T279 226Q279 161 289 138T329 115Z"  />
<glyph unicode="&#xF1;" horiz-adv-x="648" d="M370 0V307Q370 366 326 366Q298 366 290 346T281 303V0H37V500H270L275 426Q303 474 341 495T437 516Q518 516 562 475Q581 458 591 438T605 396T611 351T612 303V0H370ZM541 716Q541 638 510 595T402 552Q384 552 362 557T319 569T280 580T252 586Q233 586 233 558H109V577Q109 640 142 681T235 722Q256 722 280 717T326 705T366 694T394 688Q403 688 409 695T417 716H541Z"  />
<glyph unicode="&#xF2;" horiz-adv-x="666" d="M640 252Q640 176 616 125T548 43T446 -2T318 -16Q255 -16 202 0T109 50T47 134T25 251Q25 320 48 371T111 455T207 504T327 521Q393 521 450 506T550 459T616 375T640 252ZM389 259Q389 328 376 357T334 387Q317 387 306 378T289 352T281 312T279 259Q279 224 280 198T287 153T303 126T332 117Q352 117 363 129T380 160T387 205T389 259ZM259 552L105 722H340L436 552H259Z"  />
<glyph unicode="&#xF3;" horiz-adv-x="666" d="M640 252Q640 176 616 125T548 43T446 -2T318 -16Q255 -16 202 0T109 50T47 134T25 251Q25 320 48 371T111 455T207 504T327 521Q393 521 450 506T550 459T616 375T640 252ZM389 259Q389 328 376 357T334 387Q317 387 306 378T289 352T281 312T279 259Q279 224 280 198T287 153T303 126T332 117Q352 117 363 129T380 160T387 205T389 259ZM318 722H550L396 552H220L318 722Z"  />
<glyph unicode="&#xF4;" horiz-adv-x="666" d="M640 252Q640 176 616 125T548 43T446 -2T318 -16Q255 -16 202 0T109 50T47 134T25 251Q25 320 48 371T111 455T207 504T327 521Q393 521 450 506T550 459T616 375T640 252ZM389 259Q389 328 376 357T334 387Q317 387 306 378T289 352T281 312T279 259Q279 224 280 198T287 153T303 126T332 117Q352 117 363 129T380 160T387 205T389 259ZM333 628L289 552H107L221 722H445L559 552H377L333 628Z"  />
<glyph unicode="&#xF5;" horiz-adv-x="666" d="M640 252Q640 176 616 125T548 43T446 -2T318 -16Q255 -16 202 0T109 50T47 134T25 251Q25 320 48 371T111 455T207 504T327 521Q393 521 450 506T550 459T616 375T640 252ZM389 259Q389 328 376 357T334 387Q317 387 306 378T289 352T281 312T279 259Q279 224 280 198T287 153T303 126T332 117Q352 117 363 129T380 160T387 205T389 259ZM549 716Q549 638 518 595T410 552Q392 552 370 557T327 569T288 580T260 586Q241 586 241 558H117V577Q117 640 150 681T243 722Q264 722 288 717T334 705T374 694T402 688Q411 688 417 695T425 716H549Z"  />
<glyph unicode="&#xF6;" horiz-adv-x="666" d="M640 252Q640 176 616 125T548 43T446 -2T318 -16Q255 -16 202 0T109 50T47 134T25 251Q25 320 48 371T111 455T207 504T327 521Q393 521 450 506T550 459T616 375T640 252ZM389 259Q389 328 376 357T334 387Q317 387 306 378T289 352T281 312T279 259Q279 224 280 198T287 153T303 126T332 117Q352 117 363 129T380 160T387 205T389 259ZM131 722H295V552H131V722ZM371 722H535V552H371V722Z"  />
<glyph unicode="&#xF7;" horiz-adv-x="600" d="M47 321H553V185H47V321ZM209 46Q209 84 235 110T300 137Q338 137 364 111T391 46Q391 8 365 -18T300 -45Q262 -45 236 -19T209 46ZM209 460Q209 498 235 524T300 551Q338 551 364 525T391 460Q391 422 365 396T300 369Q262 369 236 395T209 460Z"  />
<glyph unicode="&#xF8;" horiz-adv-x="666" d="M53 -32L113 47Q24 119 24 251Q24 313 44 363T103 448T196 502T322 521Q403 521 469 501L536 585L609 531L550 457Q596 420 617 370T639 252Q639 124 561 54T319 -16Q250 -16 194 3L124 -89L53 -32ZM378 383Q361 397 335 397Q315 397 302 389T280 363T269 315T266 242V239L378 383ZM293 128Q308 116 331 116Q369 116 385 146T402 248V267L293 128Z"  />
<glyph unicode="&#xF9;" horiz-adv-x="648" d="M378 0L373 74Q345 26 307 5T211 -16Q130 -16 86 25Q67 42 57 62T43 104T37 149T36 197V500H278V193Q278 134 322 134Q337 134 345 139T359 154T365 174T367 198V500H611V0H378ZM240 552L86 722H321L417 552H240Z"  />
<glyph unicode="&#xFA;" horiz-adv-x="648" d="M378 0L373 74Q345 26 307 5T211 -16Q130 -16 86 25Q67 42 57 62T43 104T37 149T36 197V500H278V193Q278 134 322 134Q337 134 345 139T359 154T365 174T367 198V500H611V0H378ZM299 722H531L377 552H201L299 722Z"  />
<glyph unicode="&#xFB;" horiz-adv-x="648" d="M378 0L373 74Q345 26 307 5T211 -16Q130 -16 86 25Q67 42 57 62T43 104T37 149T36 197V500H278V193Q278 134 322 134Q337 134 345 139T359 154T365 174T367 198V500H611V0H378ZM324 628L280 552H98L212 722H436L550 552H368L324 628Z"  />
<glyph unicode="&#xFC;" horiz-adv-x="648" d="M378 0L373 74Q345 26 307 5T211 -16Q130 -16 86 25Q67 42 57 62T43 104T37 149T36 197V500H278V193Q278 134 322 134Q337 134 345 139T359 154T365 174T367 198V500H611V0H378ZM122 722H286V552H122V722ZM362 722H526V552H362V722Z"  />
<glyph unicode="&#xFD;" horiz-adv-x="630" d="M396 -192H135L201 -15L-3 500H255L325 226L393 500H634L396 -192ZM300 722H532L378 552H202L300 722Z"  />
<glyph unicode="&#xFE;" horiz-adv-x="666" d="M275 722V442Q328 516 424 516Q524 516 580 444T636 241Q636 120 583 52T433 -17Q385 -17 350 -4T284 44V-192H39V722H275ZM332 372Q317 372 307 368T291 350T283 313T280 251V240Q280 204 283 182T293 148T310 132T335 127Q349 127 359 132T376 150T386 188T390 250Q390 318 377 345T332 372Z"  />
<glyph unicode="&#xFF;" horiz-adv-x="630" d="M396 -192H135L201 -15L-3 500H255L325 226L393 500H634L396 -192ZM123 722H287V552H123V722ZM363 722H527V552H363V722Z"  />
<glyph unicode="&#x131;" horiz-adv-x="314" d="M36 500H278V0H36V500Z"  />
<glyph unicode="&#x152;" horiz-adv-x="962" d="M937 532H713V454H914V271H713V188H937V0H518Q503 0 480 -1T432 -2T387 -4T354 -5Q274 -5 213 21T109 97T46 213T24 364Q24 452 48 519T118 632T231 701T384 725Q387 725 402 725T439 724T489 723T544 722H937V532ZM442 543Q426 551 416 553T391 556Q367 556 351 547T324 515T308 453T303 354Q303 295 308 259T325 202T355 174T397 167Q410 167 420 169T442 179V543Z"  />
<glyph unicode="&#x153;" horiz-adv-x="944" d="M297 -19Q233 -19 182 -1T95 51T40 133T20 242Q20 303 39 354T95 442T185 500T307 521Q412 521 481 465Q515 494 556 507T653 521Q784 521 854 451T924 250Q924 242 924 231T923 206H577V181Q577 144 595 123T644 102Q670 102 686 117T706 162H916Q902 71 836 26T656 -19Q596 -19 555 -6T475 44Q444 11 400 -4T297 -19ZM316 118Q335 118 346 125T365 149T374 194T377 263Q377 333 365 360T320 387Q281 387 270 351T258 245Q258 179 271 149T316 118ZM707 313V324Q707 397 643 397Q612 397 596 377T579 321V313H707Z"  />
<glyph unicode="&#x160;" horiz-adv-x="722" d="M702 230Q702 159 673 110T584 27Q538 1 484 -10T354 -21Q291 -21 231 -10T124 29T49 104T20 223V225H292V216Q292 142 365 142Q395 142 415 159T435 203Q435 219 426 229T401 247T368 259T331 269L240 296Q193 309 155 325T90 364T48 420T33 503Q33 618 119 679T367 741Q424 741 480 732T580 698T652 630T680 520V519H425Q423 554 409 568T361 582Q331 582 314 569T296 534Q296 517 307 507T337 490T380 478T430 466L520 442Q702 390 702 230ZM133 942H315L359 866L403 942H585L471 772H247L133 942Z"  />
<glyph unicode="&#x161;" horiz-adv-x="592" d="M569 159Q569 117 555 87T509 33Q472 5 421 -7T286 -19Q236 -19 189 -12T105 16T45 71T22 162H243Q243 94 298 94Q349 94 349 139Q349 165 322 174T242 191L219 194Q118 207 75 243T31 345Q31 400 56 434T120 487T206 512T297 519Q425 519 489 477T554 351V350H346V355Q346 383 334 395T295 407Q246 407 246 368Q246 344 268 338T343 322L391 314Q422 309 458 298T515 273Q541 258 555 228T569 159ZM69 722H251L295 646L339 722H521L407 552H183L69 722Z"  />
<glyph unicode="&#x178;" horiz-adv-x="740" d="M513 250V0H228V250L-18 722H278L381 419L482 722H758L513 250ZM179 942H343V772H179V942ZM419 942H583V772H419V942Z"  />
<glyph unicode="&#x17D;" horiz-adv-x="685" d="M23 0V174L324 534H32V722H655V549L354 188H662V0H23ZM113 942H295L339 866L383 942H565L451 772H227L113 942Z"  />
<glyph unicode="&#x17E;" horiz-adv-x="536" d="M25 0V139L200 340H39V500H495V343L336 162H512V0H25ZM43 722H225L269 646L313 722H495L381 552H157L43 722Z"  />
<glyph unicode="&#x192;" horiz-adv-x="704" d="M613 567Q601 571 586 573T562 576Q545 576 535 566T521 531L504 428H608V262H474L425 -9Q421 -32 418 -48T410 -78T401 -102T390 -124Q367 -164 320 -186T209 -209Q146 -209 66 -181L89 -32Q96 -36 112 -39T137 -43Q153 -43 162 -37T176 -20T184 3T189 28L228 262H126V428H260L264 459Q272 512 279 548T294 611T312 655T336 688Q381 738 488 738Q512 738 534 736T592 727Q611 723 619 721T639 715L613 567Z"  />
<glyph unicode="&#x2C6;" horiz-adv-x="278" d="M139 628L95 552H-87L27 722H251L365 552H183L139 628Z"  />
<glyph unicode="&#x2C7;" horiz-adv-x="278" d="M-87 722H95L139 646L183 722H365L251 552H27L-87 722Z"  />
<glyph unicode="&#x2DA;" horiz-adv-x="278" d="M8 681Q8 708 18 732T46 773T88 801T139 812Q166 812 190 802T231 774T259 732T270 681Q270 654 260 630T232 589T190 561T139 550Q112 550 88 560T47 588T19 630T8 681ZM96 681Q96 663 108 651T139 638Q157 638 169 650T182 681Q182 699 170 711T139 724Q121 724 109 712T96 681Z"  />
<glyph unicode="&#x2DC;" horiz-adv-x="278" d="M355 716Q355 638 324 595T216 552Q198 552 176 557T133 569T94 580T66 586Q47 586 47 558H-77V577Q-77 640 -44 681T49 722Q70 722 94 717T140 705T180 694T208 688Q217 688 223 695T231 716H355Z"  />
<glyph unicode="&#x2013;" horiz-adv-x="500" d="M0 182V349H500V182H0Z"  />
<glyph unicode="&#x2014;" horiz-adv-x="1000" d="M0 182V349H1000V182H0Z"  />
<glyph unicode="&#x2018;" horiz-adv-x="352" d="M254 423H22L138 722H329L254 423Z"  />
<glyph unicode="&#x2019;" horiz-adv-x="352" d="M214 423H23L98 722H330L214 423Z"  />
<glyph unicode="&#x201A;" horiz-adv-x="352" d="M214 -90H23L98 208H330L214 -90Z"  />
<glyph unicode="&#x201C;" horiz-adv-x="592" d="M512 423H281L396 722H587L512 423ZM237 423H5L121 722H312L237 423Z"  />
<glyph unicode="&#x201D;" horiz-adv-x="592" d="M472 423H281L356 722H587L472 423ZM196 423H5L80 722H312L196 423Z"  />
<glyph unicode="&#x201E;" horiz-adv-x="592" d="M471 -90H280L355 208H586L471 -90ZM195 -90H4L79 208H311L195 -90Z"  />
<glyph unicode="&#x2020;" horiz-adv-x="704" d="M455 412V0H250V412H87V576H250V722H455V576H617V412H455Z"  />
<glyph unicode="&#x2021;" horiz-adv-x="704" d="M450 113V0H254V113H87V269H254V449H87V602H254V722H450V602H617V449H450V269H617V113H450Z"  />
<glyph unicode="&#x2022;" horiz-adv-x="500" d="M431 360Q431 322 417 290T378 232T320 193T250 179Q212 179 180 193T122 232T83 289T69 360Q69 397 83 430T122 488T179 527T250 541Q287 541 320 527T378 488T417 430T431 360Z"  />
<glyph unicode="&#x2026;" horiz-adv-x="1000" d="M46 206H288V0H46V206ZM379 206H621V0H379V206ZM712 206H954V0H712V206Z"  />
<glyph unicode="&#x2030;" horiz-adv-x="1166" d="M3 509Q3 563 13 606T44 679T98 725T180 741Q254 741 298 686T343 525Q343 471 333 428T302 355T248 309T166 293Q92 293 48 348T3 509ZM139 517Q139 480 140 457T146 421T156 404T173 399Q183 399 189 403T200 421T205 457T207 517Q207 554 206 577T200 613T190 630T173 635Q163 635 157 631T146 613T141 577T139 517ZM451 197Q451 251 461 294T492 367T546 413T628 429Q702 429 746 374T791 213Q791 159 781 116T750 43T696 -3T614 -19Q540 -19 496 36T451 197ZM587 205Q587 168 588 145T594 109T604 92T621 87Q631 87 637 91T648 109T653 145T655 205Q655 242 654 265T648 301T638 318T621 323Q611 323 605 319T594 301T589 265T587 205ZM823 197Q823 251 833 294T864 367T918 413T1000 429Q1074 429 1118 374T1163 213Q1163 159 1153 116T1122 43T1068 -3T986 -19Q912 -19 868 36T823 197ZM959 205Q959 168 960 145T966 109T976 92T993 87Q1003 87 1009 91T1020 109T1025 145T1027 205Q1027 242 1026 265T1020 301T1010 318T993 323Q983 323 977 319T966 301T961 265T959 205ZM544 747H650L247 -25H141L544 747Z"  />
<glyph unicode="&#x2039;" horiz-adv-x="352" d="M153 0L1 250L153 500H347L237 250L347 0H153Z"  />
<glyph unicode="&#x203A;" horiz-adv-x="352" d="M199 0H5L115 248L5 500H199L351 248L199 0Z"  />
<glyph unicode="&#x20AC;" horiz-adv-x="704" d="M697 209Q697 149 673 106T607 36T512 -5T398 -19Q330 -19 277 -2T185 49T120 129T82 234H10L36 327H70V381H10L36 474H82Q95 532 121 578T187 657T280 707T399 725Q459 725 513 714T608 676T673 608T697 505H449Q447 546 433 558T400 570Q374 570 362 545T344 474H509L483 381H341V327H467L441 234H345Q350 189 362 163T400 136Q421 136 434 151T449 209H697Z"  />
<glyph unicode="&#x2122;" horiz-adv-x="1000" d="M754 366V627L675 366H596L517 627V366H418V722H578L635 532L692 722H852V366H754ZM285 639V366H179V639H76V722H388V639H285Z"  />

</font>
</defs>
</svg>
