<?xml  version="1.0" encoding="UTF-8"?>
<!DOCTYPE svg PUBLIC "-//W3C//DTD SVG 1.0//EN" "http://www.w3.org/TR/2001/REC-SVG-20010904/DTD/svg10.dtd" >
<svg xmlns="http://www.w3.org/2000/svg" >
<metadata>
<version>1.0</version>
<id><![CDATA[Bembo Titling MT W01]]></id>
<vendor>Monotype Imaging Inc.</vendor>
<credits>
<name>Fonts.com WebFonts</name>
<URL>http://webfonts.fonts.com</URL>
<role>Home of the Web fonts</role>
</credits>
<license>
<URL>http://webfonts.fonts.com/Legal</URL>
</license>
<copyright><![CDATA[Font software Copyright 1994 Adobe Systems Incorporated. Typeface designs Copyright 1994 The Monotype Corporation. All rights reserved.]]></copyright>
<trademark><![CDATA[Bembo is a registered trademark of The Monotype Corporation in the United States and/or other countries.]]></trademark>
<licensee>
<name></name>
</licensee>
</metadata>
<defs >
<font horiz-adv-x="629" id="9796fa95-f361-4cab-ad4a-abf198fe5ed3">
<font-face font-family="" panose-1="2 3 5 3 5 2 6 2 2 4" ascent="962" descent="-243" units-per-em="1000" alphabetic="0">
</font-face>
<missing-glyph horiz-adv-x="333" />

<glyph unicode="&#xA;" />
<glyph unicode="&#xD;" />
<glyph unicode=" " horiz-adv-x="333" />
<glyph unicode="!" horiz-adv-x="248" d="M76 709Q75 723 81 727T108 732H134Q157 732 164 729T171 709L138 201H115L76 709ZM123 88Q147 88 163 74T179 36Q179 14 164 0T123 -14Q97 -14 83 0T69 37Q69 63 85 75T123 88Z"  />
<glyph unicode="&quot;" horiz-adv-x="365" d="M92 475L69 605Q58 670 58 684Q58 705 70 718T103 732Q122 732 134 719T147 684Q147 667 136 605L113 475H92ZM252 475L229 605Q219 670 219 684Q219 705 231 718T263 732Q282 732 294 719T307 684Q307 667 296 605L274 475H252Z"  />
<glyph unicode="#" horiz-adv-x="668" d="M46 464H210L252 667H295L253 464H474L517 667H560L517 464H621V421H508L467 223H621V180H459L416 -23H373L416 180H193L150 -23H107L150 180H46V223H159L200 421H46V464ZM243 421L202 223H424L465 421H243Z"  />
<glyph unicode="$" horiz-adv-x="505" d="M230 733H262V677Q302 675 333 663T387 635T422 599T434 563Q434 547 425 539T403 530Q386 530 379 540T360 571Q354 582 347 594T328 618T301 639T262 652V393Q315 360 352 333T413 280T448 226T459 165Q459 121 441 88T395 32T332 -2T262 -14V-72H230V-14Q195 -14 162 -2T104 30T62 75T46 124Q46 144 56 151T78 159Q98 159 106 144T122 109Q140 56 172 31T230 6V328Q179 358 147 384T97 433T73 478T67 522Q67 541 74 566T99 615T149 656T230 677V733ZM230 652Q195 649 173 637T139 608T123 574T119 545Q119 528 124 513T143 481T177 449T230 413V652ZM262 6Q286 6 310 16T354 44T386 88T399 146Q399 169 392 188T369 227T327 265T262 308V6Z"  />
<glyph unicode="%" horiz-adv-x="715" d="M394 188Q394 230 406 266T438 328T486 369T544 384Q571 384 597 371T645 333T680 272T693 188Q693 146 681 110T649 48T601 7T543 -8Q514 -8 487 6T440 46T407 108T394 188ZM464 188Q464 105 483 61T544 16Q587 16 605 60T623 189Q623 268 606 314T544 360Q500 360 482 316T464 188ZM22 536Q22 578 34 614T66 676T114 717T172 732Q199 732 225 719T273 681T308 620T321 536Q321 494 309 458T277 396T229 355T171 340Q142 340 115 354T68 394T35 456T22 536ZM92 536Q92 453 111 409T172 364Q215 364 233 408T251 537Q251 616 234 662T172 708Q128 708 110 664T92 536ZM101 -30L564 751H614L151 -30H101Z"  />
<glyph unicode="&amp;" horiz-adv-x="781" d="M771 494V479Q742 476 725 473T695 462T671 439T645 399Q609 340 588 307T554 253T532 221T510 191Q514 184 524 167T546 130T568 93T582 69Q592 53 602 44T622 31T638 27T651 26Q672 26 688 35T723 60L732 48Q713 31 698 19T668 0T640 -11T611 -14Q585 -14 566 -4T529 24T497 70T462 131Q445 114 423 90T371 42T306 3T231 -14Q187 -14 151 4T90 51T50 115T36 187Q36 258 78 307T218 393Q219 394 222 395T226 397Q212 408 198 423T172 457T153 497T145 542Q145 566 155 589T183 631T227 662T285 674Q315 674 340 665T383 640T411 602T421 555Q421 522 405 497T369 455T331 428T309 416Q326 402 347 384T392 341T442 285T496 213Q518 244 543 281T589 353T623 414T637 449Q637 463 620 468T577 479V494H771ZM289 432Q302 440 314 450T336 474T350 507T356 552Q356 601 337 624T285 648Q257 648 234 628T210 565Q210 543 217 524T237 488T263 457T289 432ZM449 153Q430 184 406 217T346 288Q341 294 327 307T296 334T265 362T244 381Q231 374 209 361T166 326T130 273T114 200Q114 167 125 138T155 88T202 55T260 42Q314 42 360 73T449 153Z"  />
<glyph unicode="&apos;" horiz-adv-x="159" d="M69 475L47 605Q36 670 36 684Q36 705 48 718T80 732Q99 732 111 719T124 684Q124 667 113 605L91 475H69Z"  />
<glyph unicode="(" horiz-adv-x="258" d="M236 -73Q189 -30 157 21T104 125T74 230T64 330Q64 376 73 428T103 534T156 638T236 732L246 723Q220 690 198 645T160 549T134 441T124 330Q124 230 152 128T246 -64L236 -73Z"  />
<glyph unicode=")" horiz-adv-x="258" d="M22 732Q68 688 101 638T154 534T184 429T194 329Q194 282 185 230T155 125T101 21T22 -73L12 -64Q38 -31 60 14T98 110T124 218T134 329Q134 429 106 531T12 723L22 732Z"  />
<glyph unicode="*" horiz-adv-x="413" d="M219 732L243 584L393 609L398 588L265 517L334 380L315 367L207 474L95 367L77 380L148 517L14 588L24 609L171 584L195 732H219Z"  />
<glyph unicode="+" horiz-adv-x="667" d="M355 342H596V298H355V57H311V298H71V342H311V582H355V342Z"  />
<glyph unicode="&#x2c;" horiz-adv-x="206" d="M103 -12Q98 -12 94 -13T85 -14Q68 -14 51 -2T33 37Q33 44 35 53T44 70T61 83T90 88Q125 88 144 66T164 14Q164 4 161 -12T145 -45T108 -80T41 -109V-95Q64 -86 77 -76T98 -55T108 -36T111 -22Q111 -20 110 -16T103 -12Z"  />
<glyph unicode="-" horiz-adv-x="402" d="M352 388V331H50V388H352Z"  />
<glyph unicode="." horiz-adv-x="206" d="M102 88Q126 88 142 74T158 36Q158 14 143 0T102 -14Q76 -14 62 0T48 37Q48 63 64 75T102 88Z"  />
<glyph unicode="/" horiz-adv-x="432" d="M413 732L65 -14H19L367 732H413Z"  />
<glyph unicode="0" horiz-adv-x="489" d="M244 732Q289 732 328 704T398 627T445 509T462 359Q462 281 446 213T401 95T333 15T247 -14Q197 -14 156 17T87 101T43 221T27 360Q27 423 40 489T81 609T149 697T244 732ZM241 706Q199 706 173 674T131 594T111 488T105 379Q105 368 105 337T107 264T117 179T139 97T180 36T243 12Q286 12 313 38T357 113T378 228T384 375Q384 448 376 509T351 614T307 682T241 706Z"  />
<glyph unicode="1" horiz-adv-x="394" d="M239 108Q239 81 244 64T262 36T295 21T348 15V0H50V15Q85 16 108 21T144 36T163 65T169 111V644Q146 627 129 614T94 590T59 569T19 545V561Q34 571 56 588T105 628T159 677T209 732H239V108Z"  />
<glyph unicode="2" horiz-adv-x="489" d="M438 0H21V23L153 184Q159 191 174 209T207 246T240 283T261 308Q275 325 292 348T325 399T350 460T361 533Q361 576 347 603T311 645T268 665T229 670Q195 670 169 658T122 625T87 574T65 509H51Q54 573 74 615T123 684T186 721T254 732Q297 732 331 718T389 678T426 617T439 538Q439 494 427 459T390 388T327 314T238 224Q197 183 157 143T79 60H335Q357 60 373 63T401 78T425 111T448 170H463L438 0Z"  />
<glyph unicode="3" horiz-adv-x="489" d="M65 565Q73 588 88 617T127 671T183 714T258 732Q320 732 357 696T394 602Q394 585 390 566T374 527T342 486T292 442Q319 444 346 434T396 402T433 343T448 258Q448 201 428 152T373 66T288 8T181 -14Q151 -14 124 -9T75 6T41 28T28 53Q28 62 36 73T63 85Q69 85 73 85T83 81T99 70T127 49Q153 29 175 23T218 16Q258 16 288 37T338 89T368 156T378 224Q378 259 370 289T346 340T310 374T263 387Q237 387 218 378T185 362L176 373Q203 396 230 421T280 473T316 527T330 584Q330 624 306 649T234 675Q203 675 179 664T136 637T103 601T79 565H65Z"  />
<glyph unicode="4" horiz-adv-x="489" d="M367 105Q367 82 368 66T380 40T411 23T471 15V0H193V15Q232 17 253 23T284 40T295 68T297 111V208H18V236L343 732H367V258H471V208H367V105ZM297 619L62 258H297V619Z"  />
<glyph unicode="5" horiz-adv-x="489" d="M323 719Q336 719 349 720T368 732H383L368 653H128L119 437Q156 456 186 459T226 462Q269 462 308 446T377 399T423 327T441 234Q441 192 427 148T381 68T303 9T188 -14Q155 -14 127 -8T79 8T47 30T36 54Q36 64 44 74T68 84Q91 84 112 66Q147 36 168 24T215 12Q245 12 273 27T323 68T358 131T371 210Q371 252 358 286T324 343T274 379T215 392Q183 392 154 380T100 347L92 354L106 719H323Z"  />
<glyph unicode="6" horiz-adv-x="489" d="M396 717Q361 700 322 676T245 614T177 520T130 387Q138 393 152 401T186 418T228 433T276 439Q306 439 336 426T392 386T434 318T450 222Q450 160 432 115T384 42T320 0T251 -14Q210 -14 172 4T104 59T57 152T39 285Q39 369 60 433T116 545T191 626T272 681T345 714T396 732V717ZM125 352Q122 338 120 317T117 262Q117 221 123 177T145 97T187 36T253 12Q276 12 297 22T335 55T362 118T372 215Q372 268 361 304T331 361T291 392T248 402Q210 402 179 385T125 352Z"  />
<glyph unicode="7" horiz-adv-x="489" d="M460 719V696L176 -14H125L403 653H111Q98 653 90 652T74 642T62 617T50 568H34L44 719H460Z"  />
<glyph unicode="8" horiz-adv-x="489" d="M184 365Q170 372 148 385T105 420T68 473T52 548Q52 575 61 607T91 667T148 713T236 732Q275 732 308 720T365 687T403 635T417 568Q417 551 412 529T394 483T358 437T300 396Q351 372 380 346T423 294T441 244T445 200Q445 154 431 115T390 47T327 2T245 -14Q201 -14 164 -1T101 36T59 93T44 168Q44 214 59 247T97 304T143 342T184 365ZM273 409Q284 416 298 428T324 458T345 503T354 564Q354 607 342 634T311 678T272 700T232 706Q206 706 184 697T146 671T121 630T111 577Q111 518 154 479T273 409ZM212 352Q191 340 172 324T138 285T116 235T107 169Q107 132 117 103T146 54T188 23T239 12Q272 12 298 25T343 61T371 112T381 171Q381 199 374 222T349 267T297 309T212 352Z"  />
<glyph unicode="9" horiz-adv-x="489" d="M93 1Q126 17 165 40T242 102T311 195T359 331Q331 312 295 296T213 279Q190 279 160 289T103 325T58 392T39 496Q39 559 58 604T106 677T170 719T238 732Q279 732 317 714T385 659T432 566T450 433Q450 349 429 285T373 173T298 92T217 37T144 3T93 -14V1ZM364 366Q367 380 369 401T372 456Q372 474 371 499T364 553T350 608T325 657T288 692T236 706Q200 706 177 688T141 640T122 574T117 503Q117 451 128 415T157 357T197 326T241 316Q276 316 306 331T364 366Z"  />
<glyph unicode=":" horiz-adv-x="206" d="M102 464Q126 464 142 450T158 412Q158 390 143 376T102 362Q76 362 62 376T48 413Q48 439 64 451T102 464ZM102 88Q126 88 142 74T158 36Q158 14 143 0T102 -14Q76 -14 62 0T48 37Q48 63 64 75T102 88Z"  />
<glyph unicode=";" horiz-adv-x="206" d="M103 -12Q98 -12 94 -13T85 -14Q68 -14 51 -2T33 37Q33 44 35 53T44 70T61 83T90 88Q125 88 144 66T164 14Q164 4 161 -12T145 -45T108 -80T41 -109V-95Q64 -86 77 -76T98 -55T108 -36T111 -22Q111 -20 110 -16T103 -12ZM87 464Q111 464 127 450T143 412Q143 386 127 374T87 362Q61 362 47 376T33 413Q33 439 49 451T87 464Z"  />
<glyph unicode="&lt;" horiz-adv-x="667" d="M71 300V340L595 562V512L131 320L595 128V78L71 300Z"  />
<glyph unicode="=" horiz-adv-x="667" d="M71 457H596V413H71V457ZM71 276H596V232H71V276Z"  />
<glyph unicode="&gt;" horiz-adv-x="667" d="M596 340V300L72 78V128L536 320L72 512V562L596 340Z"  />
<glyph unicode="?" horiz-adv-x="361" d="M149 193Q130 219 119 238T101 273T92 301T89 325Q89 390 180 421Q246 444 274 474T303 550Q303 567 297 585T276 619T239 645T181 655Q176 655 163 654T136 652T110 650T92 649Q73 649 58 658T42 687Q42 707 65 719T130 732Q176 732 213 717T276 674T316 611T330 534Q330 468 293 419T188 345Q165 337 147 327T129 291Q129 281 131 272T138 252T151 227T171 193H149ZM157 88Q181 88 197 74T213 36Q213 14 198 0T157 -14Q131 -14 117 0T103 37Q103 63 119 75T157 88Z"  />
<glyph unicode="@" horiz-adv-x="917" d="M688 467L601 170Q585 116 585 90Q585 51 623 51Q695 51 761 146T828 369Q828 501 739 586T512 671Q331 671 212 532T93 205Q93 33 200 -76T476 -186Q607 -186 709 -117T868 84H896Q854 -53 736 -134T473 -216Q290 -216 169 -93T47 217Q47 417 181 556T509 695Q665 695 761 602T858 360Q858 229 783 122T589 15Q514 15 514 82Q514 109 522 152L520 154Q415 15 330 15Q293 15 267 48T241 128Q241 241 334 355T510 470Q542 470 565 453T594 403H596L611 457L688 467ZM577 376Q577 407 560 426T516 446Q454 446 385 334T316 143Q316 115 333 95T373 74Q437 74 507 171T577 376Z"  />
<glyph unicode="A" horiz-adv-x="753" d="M608 137Q621 99 631 78T655 44T689 27T744 15V0H436V15Q472 19 494 23T528 32T545 46T550 65Q550 71 548 79T544 96T540 111T536 121L464 326H230L163 133Q153 104 148 84T151 49T189 27T276 15V0H9V15Q34 19 52 23T85 40T112 76T140 143L333 704L322 732H400L608 137ZM346 665L239 352H455L346 665Z"  />
<glyph unicode="B" horiz-adv-x="651" d="M11 719Q26 719 53 720T112 722T178 724T238 725T283 726T301 727Q393 727 447 707T528 660T564 605T572 560Q572 503 537 466T439 412Q487 400 520 379T574 331T604 276T614 219Q614 172 596 132T541 63T451 17T327 0H5V15Q53 18 79 25T117 47T131 86T133 149V595Q133 629 131 649T117 681T81 696T11 704V719ZM322 423Q369 423 401 433T454 460T484 502T494 554Q494 583 484 609T451 656T392 689T305 701Q277 701 251 699T207 695V423H322ZM207 397V151Q207 118 209 95T221 56T254 34T317 26Q378 26 418 43T483 87T516 147T526 213Q526 252 513 285T472 343T398 382T289 397H207Z"  />
<glyph unicode="C" horiz-adv-x="721" d="M689 518H674Q663 560 641 594T585 654T510 692T418 706Q349 706 295 681T202 611T144 507T124 380Q124 290 150 221T221 106T321 36T436 12Q493 12 537 29T613 73T667 130T701 186H717L641 8H627Q628 14 627 23T619 32Q612 32 611 32T605 28Q584 20 563 13T520 -1T472 -10T415 -14Q329 -14 260 13T140 88T63 204T36 350Q36 434 66 504T147 625T268 704T415 732Q450 732 479 728T535 715T584 697T632 676Q643 671 645 670T650 668Q661 668 666 697H681L689 518Z"  />
<glyph unicode="D" horiz-adv-x="821" d="M16 719Q55 720 108 721T213 724T303 726T353 727Q452 727 531 701T667 627T754 515T784 373Q784 316 767 263T718 165T640 84T536 27Q481 7 420 1T286 -5Q266 -5 226 -4T142 -3T63 -1T16 0V15Q60 19 83 25T118 45T131 84T133 154V582Q133 620 131 643T117 679T82 697T16 704V719ZM207 121Q207 95 208 77T218 46T248 28T310 22Q366 22 410 28T489 48T553 82T608 132Q650 177 672 236T694 367Q694 425 676 484T614 592T493 670T301 701Q266 701 244 700T207 696V121Z"  />
<glyph unicode="E" horiz-adv-x="600" d="M510 719L519 554H504Q496 605 488 633T464 674T418 690T340 693H207V383H360Q389 383 408 384T439 394T456 421T465 475H480V253H465Q462 286 457 306T442 338T413 353T366 357H207V134Q207 97 208 76T217 43T239 29T283 26H388Q426 26 452 29T496 46T527 91T551 177H566L548 0H8V15Q54 19 79 24T117 41T131 74T133 130V601Q133 628 131 646T118 677T82 695T12 704V719H510Z"  />
<glyph unicode="F" horiz-adv-x="549" d="M515 719V579H501Q495 622 488 645T466 678T424 691T353 693H207V399H367Q398 399 419 400T453 410T474 435T486 482H501V282H486Q481 314 476 332T460 359T430 370T379 373H207V125Q207 91 210 71T224 39T257 23T316 15V0H34V15Q71 17 91 23T120 42T131 74T133 121V625Q133 647 129 661T113 685T82 699T34 704V719H515Z"  />
<glyph unicode="G" horiz-adv-x="764" d="M755 305V290Q719 288 700 281T671 262T661 230T659 182V48Q644 41 619 31T561 10T488 -7T403 -14Q309 -14 240 20T126 107T58 225T36 351Q36 421 62 489T137 612T254 699T407 732Q450 732 493 722T585 688Q606 677 611 675T619 672Q626 672 629 682T636 704H651V513H636Q627 565 604 601T549 661T482 695T411 706Q351 706 299 682T208 612T147 504T124 364Q124 284 147 220T210 109T306 37T426 12Q481 12 522 26T585 52V188Q585 215 583 233T567 263T527 281T451 290V305H755Z"  />
<glyph unicode="H" horiz-adv-x="846" d="M314 719V704Q278 702 257 697T225 679T210 645T207 590V374H639V590Q639 623 637 644T624 679T589 697T520 704V719H822V704Q777 702 755 692T723 666T713 630T713 588V139Q713 102 716 79T730 43T762 24T822 15V0H511V15Q563 18 589 28T627 56T638 95T639 146V348H207V139Q207 103 210 81T224 45T255 26T308 15V0H25V15Q61 20 82 25T115 43T129 81T133 153V600Q133 627 131 645T119 676T87 694T25 704V719H314Z"  />
<glyph unicode="I" horiz-adv-x="340" d="M314 719V704Q273 701 252 695T220 677T208 643T206 589V127Q206 97 207 76T219 42T251 22T314 15V0H27V15Q65 15 86 19T117 35T130 70T132 130V576Q132 616 131 640T119 678T88 696T27 704V719H314Z"  />
<glyph unicode="J" horiz-adv-x="334" d="M317 719V704Q277 698 255 692T222 675T209 647T207 599V77Q207 56 207 34T202 -14T189 -68T161 -129Q133 -179 90 -203T6 -228Q-32 -228 -56 -212T-81 -178Q-81 -172 -78 -165T-70 -151T-57 -140T-40 -135Q-36 -135 -33 -136T-25 -140T-13 -148T5 -164Q21 -178 32 -182T53 -186Q66 -186 84 -175T114 -140Q122 -123 126 -108T131 -75T133 -32T133 29V590Q133 622 131 643T119 676T85 695T18 704V719H317Z"  />
<glyph unicode="K" horiz-adv-x="734" d="M310 719V704Q278 702 258 695T227 677T211 649T206 613V363Q224 363 237 365T265 377T299 407T351 465Q366 483 387 509T429 563T464 616T478 657Q478 670 469 679T446 693T413 700T375 704V719H669V704Q631 702 605 697T561 682T527 655T496 617Q467 578 446 549T404 494T362 443T310 385Q333 369 355 349T408 295T480 211T585 85Q603 63 620 50T655 29T689 18T725 15V0H405V15Q460 17 484 24T509 51Q509 55 507 62T491 89T448 143T365 238Q329 278 306 299T267 331T237 342T206 343V106Q206 83 208 67T222 40T254 22T314 15V0H20V15Q57 16 79 24T113 46T128 76T132 111V621Q132 644 130 657T116 678T83 692T20 704V719H310Z"  />
<glyph unicode="L" horiz-adv-x="605" d="M207 84Q207 64 211 53T224 35T244 28T271 26H383Q414 26 437 28T481 44T527 88T585 175H602L517 0H6V15Q56 17 82 26T119 50T132 86T133 133V604Q133 630 131 648T118 677T83 695T14 704V719H336V704Q289 701 263 694T225 674T210 642T207 595V84Z"  />
<glyph unicode="M" horiz-adv-x="927" d="M210 719L466 101L716 719H879V704Q848 704 829 699T800 683T786 657T784 621L816 96Q817 78 821 64T837 39T867 23T919 15V0H642V15Q679 17 700 24T730 42T741 67T741 97L708 631L452 0H429L166 631L139 129Q137 97 140 76T154 42T186 23T240 15V0H8V15Q39 19 59 25T90 42T106 73T113 122L140 614Q141 637 139 653T128 679T102 696T56 704V719H210Z"  />
<glyph unicode="N" horiz-adv-x="826" d="M196 719L674 113V584Q674 616 671 637T655 672T618 693T552 704V719H812V704Q779 698 758 692T724 672T706 637T700 578V-14H676L158 642V143Q158 112 161 90T178 51T216 27T285 15V0H24V15Q60 22 81 30T114 52T129 90T132 152V665Q120 675 98 685T24 704V719H196Z"  />
<glyph unicode="O" horiz-adv-x="825" d="M418 732Q491 732 558 705T676 628T757 511T788 361Q788 281 759 213T678 94T558 15T409 -14Q328 -14 260 15T142 95T64 212T36 355Q36 428 63 496T139 617T259 700T418 732ZM397 706Q343 706 294 685T207 622T147 519T124 378Q124 285 152 217T226 103T325 36T430 14Q480 14 528 33T615 93T676 194T700 337Q700 430 672 499T599 615T502 683T397 706Z"  />
<glyph unicode="P" horiz-adv-x="605" d="M206 126Q206 93 209 73T227 40T271 23T350 15V0H11V15Q54 19 78 24T115 41T129 75T132 139V600Q132 631 130 649T117 678T81 694T11 704V719Q92 721 164 724T306 727Q376 727 425 708T507 659T554 590T569 513Q569 483 559 447T520 378T438 324T300 302Q272 302 249 303T206 306V126ZM206 332Q225 330 240 329T273 328Q330 328 370 344T434 388T470 451T481 524Q481 560 471 592T439 648T381 686T297 701Q271 701 248 700T206 696V332Z"  />
<glyph unicode="Q" horiz-adv-x="825" d="M871 -209Q846 -217 822 -222T766 -228Q739 -228 712 -221T660 -202T616 -179T583 -155Q526 -108 493 -82T437 -41T398 -22T357 -10Q279 1 220 36T119 121T57 231T36 355Q36 432 64 500T143 620T262 702T414 732Q491 732 559 704T678 627T758 509T788 361Q788 299 769 241T714 135T627 52T511 0Q533 -11 550 -21T586 -45T623 -74T668 -113Q693 -136 714 -151T757 -175T806 -189T871 -193V-209ZM397 706Q343 706 294 685T207 622T147 519T124 378Q124 285 152 217T226 103T325 36T430 14Q480 14 528 33T615 93T676 194T700 337Q700 430 672 499T599 615T502 683T397 706Z"  />
<glyph unicode="R" horiz-adv-x="725" d="M722 -14Q668 -13 631 0T564 37T509 98T456 181Q429 225 413 251T387 293T371 318T359 336Q327 333 304 332T258 330H206V112Q206 86 207 69T221 42T260 25T337 15V0H19V15Q56 18 78 23T113 40T128 68T132 114V613Q132 629 131 645T121 673T88 694T19 704V719Q53 720 99 721T187 724T261 726T296 727Q371 727 424 710T510 665T559 602T574 530Q574 494 562 465T529 413T483 375T434 352Q437 346 447 330T468 296T489 262T502 241Q509 228 521 206T549 158T584 104T626 55T672 17T722 1V-14ZM206 355H262Q306 355 346 363T418 390T467 443T486 526Q486 559 477 590T444 646T384 686T291 701Q265 701 244 700T206 696V355Z"  />
<glyph unicode="S" horiz-adv-x="485" d="M36 192Q41 177 54 147T92 84Q107 64 126 51T165 29T204 18T238 14Q269 14 297 26T346 58T379 104T391 160Q391 190 379 215T345 262T290 307T215 354Q176 377 143 400T86 449T47 504T33 568Q33 596 45 625T80 678T138 717T219 732Q264 732 296 719T358 689Q362 687 366 685T374 683Q382 683 385 692T389 711H404L422 553H408Q400 580 383 607T343 655T289 690T223 704Q185 704 160 692T119 663T97 626T90 590Q90 564 101 543T134 502T189 460T265 412Q300 390 334 367T396 316T441 255T458 180Q458 147 443 113T399 50T332 4T245 -14Q213 -14 189 -7T134 13Q129 15 121 18T105 25T91 31T83 34Q74 34 70 25T63 8H52L23 192H36Z"  />
<glyph unicode="T" horiz-adv-x="640" d="M158 0V15Q205 20 230 28T267 50T281 84T283 136V693H107Q90 693 84 690T70 670Q68 666 64 655T56 632T47 610T41 595L27 559H16L34 743H46Q51 734 55 729T65 722T82 720T109 719H531Q548 719 558 719T574 722T585 729T594 743H606L624 559H613L599 595Q597 600 592 613T582 641T572 666T566 680Q561 690 553 691T515 693H357V136Q357 105 359 85T372 50T409 28T482 15V0H158Z"  />
<glyph unicode="U" horiz-adv-x="814" d="M797 704Q758 701 736 690T703 663T690 628T687 588V276Q687 198 666 143T607 53T517 2T404 -14Q333 -14 281 4T195 56T144 135T127 236V623Q127 643 125 657T113 680T80 695T17 704V719H311V704Q271 702 249 695T216 677T203 650T201 615V256Q201 143 257 81T428 19Q476 19 518 34T592 81T642 158T661 266V598Q661 628 657 647T640 678T605 695T546 704V719H797V704Z"  />
<glyph unicode="V" horiz-adv-x="776" d="M298 719V704Q249 703 226 697T198 675T203 632T230 560L419 79L627 620Q646 669 623 686T523 704V719H768V704Q741 702 724 699T693 682T667 645T638 579L409 -19H380L140 587Q123 629 112 652T87 686T55 701T8 704V719H298Z"  />
<glyph unicode="W" horiz-adv-x="1095" d="M274 719V704Q239 702 220 695T200 663Q200 654 204 638T215 606T227 575T235 555L441 72L543 327L403 636Q393 657 387 669T372 687T351 697T316 704V719H550V704Q539 704 526 703T500 699T480 691T471 675Q471 669 475 658T484 633T495 608T504 589L581 420L651 598Q659 618 666 637T673 666Q673 676 664 683T643 694T617 701T595 704V719H820V704Q784 699 763 694T726 674T697 633T666 562L595 387L739 72L925 564Q938 599 946 624T955 664Q955 683 927 692T861 704V719H1086V704Q1054 697 1036 691T1003 670T976 626T942 542L730 -19H700L558 294L431 -19H401L138 595Q122 633 110 654T84 685T53 699T9 704V719H274Z"  />
<glyph unicode="X" horiz-adv-x="827" d="M341 719V704Q327 704 311 703T279 697T254 686T244 667Q244 654 258 633T287 594L420 419L553 588Q577 619 589 636T601 665Q601 678 589 685T561 697T528 702T504 704V719H778V704Q739 701 715 696T672 679T633 646T586 588L436 398L616 161Q651 115 674 87T718 44T761 23T818 15V0H504V15Q518 16 533 17T562 21T585 32T594 51Q594 56 592 62T582 81T560 112T522 164L389 339L211 113Q208 109 202 102T191 85T181 68T176 53Q176 42 186 35T211 24T244 17T280 15V0H9V15Q44 17 67 22T110 42T154 83T212 155L373 360L204 583Q172 625 152 648T112 683T70 697T9 704V719H341Z"  />
<glyph unicode="Y" horiz-adv-x="775" d="M300 719V704Q258 702 233 696T207 672Q207 661 217 642T236 611L423 310L590 591Q606 617 615 635T625 665Q625 677 617 684T596 695T565 700T528 704V719H766V704Q738 700 720 695T686 679T657 648T621 593L434 279V124Q434 95 436 76T449 44T485 25T556 15V0H237V15Q283 18 308 24T344 43T358 75T360 126V272L160 595Q136 633 121 654T90 686T56 700T9 704V719H300Z"  />
<glyph unicode="Z" horiz-adv-x="660" d="M620 719V704L114 26H462Q499 26 526 29T573 51T606 106T628 212H643L626 0H17V18L522 693H244Q196 693 167 690T120 673T94 629T81 546H66L71 719H620Z"  />
<glyph unicode="[" horiz-adv-x="258" d="M242 -56H77V719H242V704Q206 704 187 700T159 685T149 661T147 627V26Q147 5 150 -8T164 -28T192 -38T242 -41V-56Z"  />
<glyph unicode="\" horiz-adv-x="458" d="M89 637L412 -14H369L46 637H89Z"  />
<glyph unicode="]" horiz-adv-x="258" d="M16 719H181V-56H16V-41Q52 -41 71 -37T99 -22T109 2T111 36V637Q111 656 108 669T96 690T67 701T16 704V719Z"  />
<glyph unicode="^" horiz-adv-x="469" d="M242 672L451 322H405L234 608L64 322H18L227 672H242Z"  />
<glyph unicode="_" horiz-adv-x="500" d="M506 -75V-125H-6V-75H506Z"  />
<glyph unicode="`" horiz-adv-x="333" d="M228 769L4 912H146L251 769H228Z"  />
<glyph unicode="a" horiz-adv-x="753" d="M608 137Q621 99 631 78T655 44T689 27T744 15V0H436V15Q472 19 494 23T528 32T545 46T550 65Q550 71 548 79T544 96T540 111T536 121L464 326H230L163 133Q153 104 148 84T151 49T189 27T276 15V0H9V15Q34 19 52 23T85 40T112 76T140 143L333 704L322 732H400L608 137ZM346 665L239 352H455L346 665Z"  />
<glyph unicode="b" horiz-adv-x="651" d="M11 719Q26 719 53 720T112 722T178 724T238 725T283 726T301 727Q393 727 447 707T528 660T564 605T572 560Q572 503 537 466T439 412Q487 400 520 379T574 331T604 276T614 219Q614 172 596 132T541 63T451 17T327 0H5V15Q53 18 79 25T117 47T131 86T133 149V595Q133 629 131 649T117 681T81 696T11 704V719ZM322 423Q369 423 401 433T454 460T484 502T494 554Q494 583 484 609T451 656T392 689T305 701Q277 701 251 699T207 695V423H322ZM207 397V151Q207 118 209 95T221 56T254 34T317 26Q378 26 418 43T483 87T516 147T526 213Q526 252 513 285T472 343T398 382T289 397H207Z"  />
<glyph unicode="c" horiz-adv-x="721" d="M689 518H674Q663 560 641 594T585 654T510 692T418 706Q349 706 295 681T202 611T144 507T124 380Q124 290 150 221T221 106T321 36T436 12Q493 12 537 29T613 73T667 130T701 186H717L641 8H627Q628 14 627 23T619 32Q612 32 611 32T605 28Q584 20 563 13T520 -1T472 -10T415 -14Q329 -14 260 13T140 88T63 204T36 350Q36 434 66 504T147 625T268 704T415 732Q450 732 479 728T535 715T584 697T632 676Q643 671 645 670T650 668Q661 668 666 697H681L689 518Z"  />
<glyph unicode="d" horiz-adv-x="821" d="M16 719Q55 720 108 721T213 724T303 726T353 727Q452 727 531 701T667 627T754 515T784 373Q784 316 767 263T718 165T640 84T536 27Q481 7 420 1T286 -5Q266 -5 226 -4T142 -3T63 -1T16 0V15Q60 19 83 25T118 45T131 84T133 154V582Q133 620 131 643T117 679T82 697T16 704V719ZM207 121Q207 95 208 77T218 46T248 28T310 22Q366 22 410 28T489 48T553 82T608 132Q650 177 672 236T694 367Q694 425 676 484T614 592T493 670T301 701Q266 701 244 700T207 696V121Z"  />
<glyph unicode="e" horiz-adv-x="600" d="M510 719L519 554H504Q496 605 488 633T464 674T418 690T340 693H207V383H360Q389 383 408 384T439 394T456 421T465 475H480V253H465Q462 286 457 306T442 338T413 353T366 357H207V134Q207 97 208 76T217 43T239 29T283 26H388Q426 26 452 29T496 46T527 91T551 177H566L548 0H8V15Q54 19 79 24T117 41T131 74T133 130V601Q133 628 131 646T118 677T82 695T12 704V719H510Z"  />
<glyph unicode="f" horiz-adv-x="549" d="M515 719V579H501Q495 622 488 645T466 678T424 691T353 693H207V399H367Q398 399 419 400T453 410T474 435T486 482H501V282H486Q481 314 476 332T460 359T430 370T379 373H207V125Q207 91 210 71T224 39T257 23T316 15V0H34V15Q71 17 91 23T120 42T131 74T133 121V625Q133 647 129 661T113 685T82 699T34 704V719H515Z"  />
<glyph unicode="g" horiz-adv-x="764" d="M755 305V290Q719 288 700 281T671 262T661 230T659 182V48Q644 41 619 31T561 10T488 -7T403 -14Q309 -14 240 20T126 107T58 225T36 351Q36 421 62 489T137 612T254 699T407 732Q450 732 493 722T585 688Q606 677 611 675T619 672Q626 672 629 682T636 704H651V513H636Q627 565 604 601T549 661T482 695T411 706Q351 706 299 682T208 612T147 504T124 364Q124 284 147 220T210 109T306 37T426 12Q481 12 522 26T585 52V188Q585 215 583 233T567 263T527 281T451 290V305H755Z"  />
<glyph unicode="h" horiz-adv-x="846" d="M314 719V704Q278 702 257 697T225 679T210 645T207 590V374H639V590Q639 623 637 644T624 679T589 697T520 704V719H822V704Q777 702 755 692T723 666T713 630T713 588V139Q713 102 716 79T730 43T762 24T822 15V0H511V15Q563 18 589 28T627 56T638 95T639 146V348H207V139Q207 103 210 81T224 45T255 26T308 15V0H25V15Q61 20 82 25T115 43T129 81T133 153V600Q133 627 131 645T119 676T87 694T25 704V719H314Z"  />
<glyph unicode="i" horiz-adv-x="340" d="M314 719V704Q273 701 252 695T220 677T208 643T206 589V127Q206 97 207 76T219 42T251 22T314 15V0H27V15Q65 15 86 19T117 35T130 70T132 130V576Q132 616 131 640T119 678T88 696T27 704V719H314Z"  />
<glyph unicode="j" horiz-adv-x="334" d="M317 719V704Q277 698 255 692T222 675T209 647T207 599V77Q207 56 207 34T202 -14T189 -68T161 -129Q133 -179 90 -203T6 -228Q-32 -228 -56 -212T-81 -178Q-81 -172 -78 -165T-70 -151T-57 -140T-40 -135Q-36 -135 -33 -136T-25 -140T-13 -148T5 -164Q21 -178 32 -182T53 -186Q66 -186 84 -175T114 -140Q122 -123 126 -108T131 -75T133 -32T133 29V590Q133 622 131 643T119 676T85 695T18 704V719H317Z"  />
<glyph unicode="k" horiz-adv-x="734" d="M310 719V704Q278 702 258 695T227 677T211 649T206 613V363Q224 363 237 365T265 377T299 407T351 465Q366 483 387 509T429 563T464 616T478 657Q478 670 469 679T446 693T413 700T375 704V719H669V704Q631 702 605 697T561 682T527 655T496 617Q467 578 446 549T404 494T362 443T310 385Q333 369 355 349T408 295T480 211T585 85Q603 63 620 50T655 29T689 18T725 15V0H405V15Q460 17 484 24T509 51Q509 55 507 62T491 89T448 143T365 238Q329 278 306 299T267 331T237 342T206 343V106Q206 83 208 67T222 40T254 22T314 15V0H20V15Q57 16 79 24T113 46T128 76T132 111V621Q132 644 130 657T116 678T83 692T20 704V719H310Z"  />
<glyph unicode="l" horiz-adv-x="605" d="M207 84Q207 64 211 53T224 35T244 28T271 26H383Q414 26 437 28T481 44T527 88T585 175H602L517 0H6V15Q56 17 82 26T119 50T132 86T133 133V604Q133 630 131 648T118 677T83 695T14 704V719H336V704Q289 701 263 694T225 674T210 642T207 595V84Z"  />
<glyph unicode="m" horiz-adv-x="927" d="M210 719L466 101L716 719H879V704Q848 704 829 699T800 683T786 657T784 621L816 96Q817 78 821 64T837 39T867 23T919 15V0H642V15Q679 17 700 24T730 42T741 67T741 97L708 631L452 0H429L166 631L139 129Q137 97 140 76T154 42T186 23T240 15V0H8V15Q39 19 59 25T90 42T106 73T113 122L140 614Q141 637 139 653T128 679T102 696T56 704V719H210Z"  />
<glyph unicode="n" horiz-adv-x="826" d="M196 719L674 113V584Q674 616 671 637T655 672T618 693T552 704V719H812V704Q779 698 758 692T724 672T706 637T700 578V-14H676L158 642V143Q158 112 161 90T178 51T216 27T285 15V0H24V15Q60 22 81 30T114 52T129 90T132 152V665Q120 675 98 685T24 704V719H196Z"  />
<glyph unicode="o" horiz-adv-x="825" d="M418 732Q491 732 558 705T676 628T757 511T788 361Q788 281 759 213T678 94T558 15T409 -14Q328 -14 260 15T142 95T64 212T36 355Q36 428 63 496T139 617T259 700T418 732ZM397 706Q343 706 294 685T207 622T147 519T124 378Q124 285 152 217T226 103T325 36T430 14Q480 14 528 33T615 93T676 194T700 337Q700 430 672 499T599 615T502 683T397 706Z"  />
<glyph unicode="p" horiz-adv-x="605" d="M206 126Q206 93 209 73T227 40T271 23T350 15V0H11V15Q54 19 78 24T115 41T129 75T132 139V600Q132 631 130 649T117 678T81 694T11 704V719Q92 721 164 724T306 727Q376 727 425 708T507 659T554 590T569 513Q569 483 559 447T520 378T438 324T300 302Q272 302 249 303T206 306V126ZM206 332Q225 330 240 329T273 328Q330 328 370 344T434 388T470 451T481 524Q481 560 471 592T439 648T381 686T297 701Q271 701 248 700T206 696V332Z"  />
<glyph unicode="q" horiz-adv-x="825" d="M871 -209Q846 -217 822 -222T766 -228Q739 -228 712 -221T660 -202T616 -179T583 -155Q526 -108 493 -82T437 -41T398 -22T357 -10Q279 1 220 36T119 121T57 231T36 355Q36 432 64 500T143 620T262 702T414 732Q491 732 559 704T678 627T758 509T788 361Q788 299 769 241T714 135T627 52T511 0Q533 -11 550 -21T586 -45T623 -74T668 -113Q693 -136 714 -151T757 -175T806 -189T871 -193V-209ZM397 706Q343 706 294 685T207 622T147 519T124 378Q124 285 152 217T226 103T325 36T430 14Q480 14 528 33T615 93T676 194T700 337Q700 430 672 499T599 615T502 683T397 706Z"  />
<glyph unicode="r" horiz-adv-x="725" d="M722 -14Q668 -13 631 0T564 37T509 98T456 181Q429 225 413 251T387 293T371 318T359 336Q327 333 304 332T258 330H206V112Q206 86 207 69T221 42T260 25T337 15V0H19V15Q56 18 78 23T113 40T128 68T132 114V613Q132 629 131 645T121 673T88 694T19 704V719Q53 720 99 721T187 724T261 726T296 727Q371 727 424 710T510 665T559 602T574 530Q574 494 562 465T529 413T483 375T434 352Q437 346 447 330T468 296T489 262T502 241Q509 228 521 206T549 158T584 104T626 55T672 17T722 1V-14ZM206 355H262Q306 355 346 363T418 390T467 443T486 526Q486 559 477 590T444 646T384 686T291 701Q265 701 244 700T206 696V355Z"  />
<glyph unicode="s" horiz-adv-x="485" d="M36 192Q41 177 54 147T92 84Q107 64 126 51T165 29T204 18T238 14Q269 14 297 26T346 58T379 104T391 160Q391 190 379 215T345 262T290 307T215 354Q176 377 143 400T86 449T47 504T33 568Q33 596 45 625T80 678T138 717T219 732Q264 732 296 719T358 689Q362 687 366 685T374 683Q382 683 385 692T389 711H404L422 553H408Q400 580 383 607T343 655T289 690T223 704Q185 704 160 692T119 663T97 626T90 590Q90 564 101 543T134 502T189 460T265 412Q300 390 334 367T396 316T441 255T458 180Q458 147 443 113T399 50T332 4T245 -14Q213 -14 189 -7T134 13Q129 15 121 18T105 25T91 31T83 34Q74 34 70 25T63 8H52L23 192H36Z"  />
<glyph unicode="t" horiz-adv-x="640" d="M158 0V15Q205 20 230 28T267 50T281 84T283 136V693H107Q90 693 84 690T70 670Q68 666 64 655T56 632T47 610T41 595L27 559H16L34 743H46Q51 734 55 729T65 722T82 720T109 719H531Q548 719 558 719T574 722T585 729T594 743H606L624 559H613L599 595Q597 600 592 613T582 641T572 666T566 680Q561 690 553 691T515 693H357V136Q357 105 359 85T372 50T409 28T482 15V0H158Z"  />
<glyph unicode="u" horiz-adv-x="814" d="M797 704Q758 701 736 690T703 663T690 628T687 588V276Q687 198 666 143T607 53T517 2T404 -14Q333 -14 281 4T195 56T144 135T127 236V623Q127 643 125 657T113 680T80 695T17 704V719H311V704Q271 702 249 695T216 677T203 650T201 615V256Q201 143 257 81T428 19Q476 19 518 34T592 81T642 158T661 266V598Q661 628 657 647T640 678T605 695T546 704V719H797V704Z"  />
<glyph unicode="v" horiz-adv-x="776" d="M298 719V704Q249 703 226 697T198 675T203 632T230 560L419 79L627 620Q646 669 623 686T523 704V719H768V704Q741 702 724 699T693 682T667 645T638 579L409 -19H380L140 587Q123 629 112 652T87 686T55 701T8 704V719H298Z"  />
<glyph unicode="w" horiz-adv-x="1095" d="M274 719V704Q239 702 220 695T200 663Q200 654 204 638T215 606T227 575T235 555L441 72L543 327L403 636Q393 657 387 669T372 687T351 697T316 704V719H550V704Q539 704 526 703T500 699T480 691T471 675Q471 669 475 658T484 633T495 608T504 589L581 420L651 598Q659 618 666 637T673 666Q673 676 664 683T643 694T617 701T595 704V719H820V704Q784 699 763 694T726 674T697 633T666 562L595 387L739 72L925 564Q938 599 946 624T955 664Q955 683 927 692T861 704V719H1086V704Q1054 697 1036 691T1003 670T976 626T942 542L730 -19H700L558 294L431 -19H401L138 595Q122 633 110 654T84 685T53 699T9 704V719H274Z"  />
<glyph unicode="x" horiz-adv-x="827" d="M341 719V704Q327 704 311 703T279 697T254 686T244 667Q244 654 258 633T287 594L420 419L553 588Q577 619 589 636T601 665Q601 678 589 685T561 697T528 702T504 704V719H778V704Q739 701 715 696T672 679T633 646T586 588L436 398L616 161Q651 115 674 87T718 44T761 23T818 15V0H504V15Q518 16 533 17T562 21T585 32T594 51Q594 56 592 62T582 81T560 112T522 164L389 339L211 113Q208 109 202 102T191 85T181 68T176 53Q176 42 186 35T211 24T244 17T280 15V0H9V15Q44 17 67 22T110 42T154 83T212 155L373 360L204 583Q172 625 152 648T112 683T70 697T9 704V719H341Z"  />
<glyph unicode="y" horiz-adv-x="775" d="M300 719V704Q258 702 233 696T207 672Q207 661 217 642T236 611L423 310L590 591Q606 617 615 635T625 665Q625 677 617 684T596 695T565 700T528 704V719H766V704Q738 700 720 695T686 679T657 648T621 593L434 279V124Q434 95 436 76T449 44T485 25T556 15V0H237V15Q283 18 308 24T344 43T358 75T360 126V272L160 595Q136 633 121 654T90 686T56 700T9 704V719H300Z"  />
<glyph unicode="z" horiz-adv-x="660" d="M620 719V704L114 26H462Q499 26 526 29T573 51T606 106T628 212H643L626 0H17V18L522 693H244Q196 693 167 690T120 673T94 629T81 546H66L71 719H620Z"  />
<glyph unicode="{" horiz-adv-x="470" d="M402 -172Q357 -165 324 -146T270 -101T239 -45T229 15Q229 24 230 39T239 87Q242 104 244 115T248 135T249 149T250 161Q250 184 241 202T215 233T178 256T135 270V290Q186 299 218 327T250 397Q250 411 248 424T239 473Q233 506 231 521T229 544Q229 573 239 603T270 660T324 705T402 732V709Q369 703 348 691T315 662T299 629T294 598Q294 590 294 583T296 568T300 548T305 520Q311 488 313 473T315 446Q315 435 312 415T295 372T254 324T178 280Q224 261 251 239T292 195T310 151T315 113Q315 103 313 88T305 40Q299 8 297 -7T294 -36Q294 -83 323 -111T402 -149V-172Z"  />
<glyph unicode="|" horiz-adv-x="510" d="M234 637H277V-233H234V637Z"  />
<glyph unicode="}" horiz-adv-x="470" d="M68 732Q113 725 145 707T199 663T231 607T241 545Q241 536 240 521T231 473Q228 456 226 445T222 425T221 411T220 399Q220 376 229 358T255 327T291 304T335 290V270Q284 261 252 233T220 163Q220 149 222 136T231 87Q237 54 239 39T241 16Q241 -13 231 -43T200 -100T146 -145T68 -172V-149Q101 -143 122 -131T155 -102T171 -69T176 -38Q176 -30 176 -23T174 -8T170 12T165 40Q159 72 157 87T155 114Q155 125 158 145T175 188T216 236T292 280Q246 299 219 321T178 365T159 409T155 447Q155 457 157 472T165 520Q171 552 173 567T176 596Q176 643 147 671T68 709V732Z"  />
<glyph unicode="~" horiz-adv-x="542" d="M507 387H535Q528 238 406 238Q358 238 255 282T119 326Q51 326 35 238H7Q11 387 136 387Q176 387 282 342T425 297Q498 297 507 387Z"  />
<glyph unicode="&#xA0;" horiz-adv-x="333" />
<glyph unicode="&#xA1;" horiz-adv-x="248" d="M172 9Q173 -5 167 -9T140 -14H114Q91 -14 84 -11T77 9L110 517H133L172 9ZM125 630Q101 630 85 644T69 682Q69 704 84 718T125 732Q151 732 165 718T179 681Q179 655 163 643T125 630Z"  />
<glyph unicode="&#xA2;" horiz-adv-x="455" d="M182 57Q191 50 211 39T266 28Q290 28 309 35T345 55T375 82T399 114L413 105Q384 56 340 21T231 -14Q206 -14 187 -9T160 0L93 -181H65L138 12Q113 28 96 52T67 102T51 155T46 206Q46 255 64 303T117 387T199 445T306 463L365 619H392L333 460Q360 454 375 445T397 426T405 409T406 400Q406 392 401 381T378 370Q360 370 347 380T313 407L182 57ZM292 424Q287 426 278 429T254 433Q229 433 203 419T156 378T122 314T108 231Q108 188 122 148T162 76L292 424Z"  />
<glyph unicode="&#xA3;" horiz-adv-x="505" d="M173 283Q173 292 172 302T169 327T162 363T149 414Q141 444 137 464T130 498T126 521T125 541Q125 564 133 597T162 660T220 711T316 732Q351 732 377 724T420 705T445 682T453 660Q453 646 443 638T420 630Q409 630 399 637T381 653Q363 675 343 690T291 706Q269 706 252 696T222 668T202 627T195 577Q195 568 195 560T198 540T204 513T214 474Q220 452 224 434T231 401T235 370T236 338Q236 317 235 305T232 283H351V257H226Q220 230 208 199T169 121Q184 125 195 127T222 129Q248 129 274 120T332 82Q363 53 377 41T406 29Q416 29 424 36T433 55Q433 63 431 69T418 91Q410 104 406 115T401 136Q401 139 402 144T406 155T416 163T432 167Q443 167 451 160T464 143T471 122T474 100Q474 71 464 50T439 14T407 -7T374 -14Q357 -14 332 -3T278 37Q259 56 247 67T224 85T204 94T181 96Q171 96 163 95T150 91Q139 71 125 51T90 9Q82 0 71 -7T52 -14Q41 -14 36 -9T30 10Q30 19 36 31T54 57T87 84T137 110Q154 146 163 184T173 257H56V283H173Z"  />
<glyph unicode="&#xA4;" horiz-adv-x="511" d="M439 144L373 209Q319 167 255 167Q231 167 200 176T138 209L71 144L42 174L109 237Q68 295 68 354Q68 415 109 471L42 535L71 565L138 500Q171 523 201 532T255 541Q282 541 313 531T372 500L439 565L468 535L402 471Q425 440 434 411T443 354Q443 296 402 237L468 174L439 144ZM402 355Q402 387 390 414T357 460T310 489T256 500Q224 500 198 489T152 457T121 411T110 355Q110 325 121 299T153 252T199 220T255 208Q285 208 311 219T358 251T390 298T402 355Z"  />
<glyph unicode="&#xA5;" horiz-adv-x="703" d="M86 150V176H324V271L317 284H86V310H304L159 595Q140 632 125 653T92 685T55 700T8 704V719H299V704Q271 703 254 701T227 694T214 685T210 674Q210 669 213 661T219 644T227 626T235 611L387 310L528 610Q535 624 539 632T545 647T549 658T550 670Q550 690 522 695T457 704V719H695V704Q673 701 654 698T618 683T583 649T547 588L414 310H617V284H401L398 277V176H617V150H398V124Q398 95 400 76T413 44T449 25T519 15V0H201V15Q247 18 272 24T308 43T322 75T324 126V150H86Z"  />
<glyph unicode="&#xA6;" horiz-adv-x="510" d="M234 637H277V268H234V637ZM234 136H277V-233H234V136Z"  />
<glyph unicode="&#xA7;" horiz-adv-x="469" d="M222 -120Q258 -120 285 -97T313 -42Q313 -21 297 12T196 162T82 352T52 478Q52 581 118 656T277 732Q325 732 365 711T405 667Q405 654 395 645T369 635Q350 635 322 663Q283 702 247 702Q210 702 183 678T156 621Q156 602 173 568T279 411T392 221T416 90Q416 -12 344 -80T188 -149Q140 -149 103 -130T65 -86Q65 -74 74 -64T97 -54Q116 -54 143 -81Q181 -120 222 -120ZM122 613Q89 560 89 488Q89 436 113 375T238 172T345 -31Q378 17 378 80Q378 158 353 212T264 360Q123 564 124 613H122Z"  />
<glyph unicode="&#xA8;" horiz-adv-x="333" d="M-9 822Q-9 845 6 860T44 875Q67 875 82 860T97 822Q97 800 82 785T44 769Q22 769 7 784T-9 822ZM236 822Q236 845 251 860T289 875Q312 875 327 859T342 822Q342 801 327 785T289 769Q267 769 252 784T236 822Z"  />
<glyph unicode="&#xA9;" horiz-adv-x="761" d="M544 457H527Q521 481 511 502T484 540T444 566T389 576Q354 576 328 560T283 518T255 456T245 383Q245 319 264 282T309 225T360 201T399 195Q426 195 448 203T488 223T519 251T542 280L555 270Q535 236 513 215T468 183T425 167T384 163Q340 163 303 178T237 222T193 290T177 378Q177 429 194 470T241 540T308 585T388 601Q405 601 423 597T457 589T484 580T498 576Q512 576 514 587T517 603H535L544 457ZM380 719Q451 719 514 692T623 619T697 509T724 375Q724 304 697 241T624 132T514 58T380 31Q309 31 246 58T137 131T63 241T36 375Q36 446 63 509T136 618T246 692T380 719ZM380 689Q315 689 258 665T158 597T91 497T66 375Q66 310 90 253T158 153T258 86T380 61Q445 61 502 85T602 153T669 253T694 375Q694 440 670 497T602 597T502 664T380 689Z"  />
<glyph unicode="&#xAA;" horiz-adv-x="277" d="M36 643Q34 651 34 653Q34 663 44 676T69 702T102 723T136 732Q154 732 171 725T196 710Q207 699 213 689T219 658V533Q219 503 222 491T239 479Q247 479 255 483T271 493L275 484Q272 481 264 475T245 462T225 451T206 446Q195 446 189 451T179 463T175 477T174 487L147 467Q139 461 126 454T91 446Q60 446 45 462T30 502Q30 510 32 518T41 535T61 551T98 565Q124 573 139 578T173 595V649Q173 663 171 675T159 696Q151 703 143 708T122 713Q111 713 102 708T87 695Q76 681 83 666L36 643ZM173 581Q169 579 161 576T143 568T126 560T114 555Q93 547 85 536T76 509Q76 492 87 481T115 470Q120 470 129 473T146 482Q154 488 157 490T163 494T167 497T173 500V581Z"  />
<glyph unicode="&#xAB;" horiz-adv-x="361" d="M207 566L102 359L207 153H179L26 359L179 566H207ZM329 553L241 359L329 166H303L167 359L303 553H329Z"  />
<glyph unicode="&#xAC;" horiz-adv-x="667" d="M71 462H596V180H551V418H71V462Z"  />
<glyph unicode="&#xAD;" horiz-adv-x="402" d="M352 388V331H50V388H352Z"  />
<glyph unicode="&#xAE;" horiz-adv-x="761" d="M323 254Q323 230 326 217T336 197T355 189T385 187V168H204V187Q224 187 236 189T254 198T261 218T263 254V502Q263 525 261 538T252 558T234 567T204 569V589H369Q435 589 477 561T519 479Q519 431 489 406T412 374L490 268Q511 240 524 224T549 201T571 191T597 187V168H495L355 363H323V254ZM323 387H353Q382 387 401 398T431 424T447 455T452 484Q452 527 426 546T364 565Q348 565 339 563T323 557V387ZM380 719Q451 719 514 692T623 619T697 509T724 375Q724 304 697 241T624 132T514 58T380 31Q309 31 246 58T137 131T63 241T36 375Q36 446 63 509T136 618T246 692T380 719ZM380 689Q315 689 258 665T158 597T91 497T66 375Q66 310 90 253T158 153T258 86T380 61Q445 61 502 85T602 153T669 253T694 375Q694 440 670 497T602 597T502 664T380 689Z"  />
<glyph unicode="&#xAF;" horiz-adv-x="333" d="M344 854V790H-11V854H344Z"  />
<glyph unicode="&#xB0;" horiz-adv-x="396" d="M48 489Q48 551 92 595T198 639Q260 639 304 595T348 489Q348 427 304 383T198 339Q136 339 92 383T48 489ZM307 489Q307 534 275 566T198 598Q153 598 121 566T89 489Q89 444 121 412T198 380Q243 380 275 412T307 489Z"  />
<glyph unicode="&#xB1;" horiz-adv-x="667" d="M355 421H596V377H355V136H311V377H71V421H311V661H355V421ZM71 26H596V-18H71V26Z"  />
<glyph unicode="&#xB2;" horiz-adv-x="300" d="M264 341H18V363Q23 368 34 381T57 408T81 434T97 451Q105 459 116 471T139 495T160 519T175 535Q195 559 202 583T209 622Q209 654 188 670T141 686Q118 686 103 678T79 657T64 630T54 603H34Q36 642 48 667T78 707T116 726T155 732Q208 732 236 702T265 625Q265 604 259 586T238 548T203 508T151 459Q130 440 112 424T74 387H200Q214 387 222 389T237 398T249 415T260 444H280L264 341Z"  />
<glyph unicode="&#xB3;" horiz-adv-x="300" d="M39 632Q46 650 56 668T80 700T114 723T157 732Q194 732 217 711T240 658Q240 645 233 626T196 582Q223 577 246 553T270 481Q270 446 257 419T223 373T173 344T115 334Q71 334 47 347T22 376Q22 384 28 392T49 400Q56 400 61 397T82 383Q95 374 106 369T135 364Q153 364 168 372T195 394T212 426T218 464Q218 502 202 521T162 540Q146 540 136 536T116 526L102 541Q136 567 163 593T191 649Q191 663 181 676T144 689Q126 689 113 684T90 670T73 651T61 632H39Z"  />
<glyph unicode="&#xB4;" horiz-adv-x="333" d="M187 912H329L105 769H82L187 912Z"  />
<glyph unicode="&#xB5;" horiz-adv-x="500" d="M57 396H124V180Q124 101 141 71T205 41Q276 41 335 111V396H402V95Q402 69 411 54T436 39Q466 39 475 99H496Q493 46 470 16T410 -14Q379 -14 358 11T335 79Q243 -14 169 -14Q122 -14 93 28Q92 16 92 2Q92 -30 103 -84T115 -163Q115 -185 102 -200T70 -216Q51 -216 39 -202T27 -163Q27 -142 42 -82T57 36V396Z"  />
<glyph unicode="&#xB6;" horiz-adv-x="561" d="M447 705V-123H411V705H320V-123H284V363Q169 363 110 411T50 548Q50 634 108 683T270 732H511V705H447Z"  />
<glyph unicode="&#xB7;" horiz-adv-x="206" d="M102 410Q126 410 142 396T158 358Q158 337 143 323T102 309Q76 309 62 323T48 359Q48 385 64 397T102 410Z"  />
<glyph unicode="&#xB8;" horiz-adv-x="333" d="M128 -199Q146 -205 164 -205Q189 -205 210 -191T232 -151Q232 -135 223 -125T191 -114Q174 -114 148 -121T99 -142L209 12H238L196 -47Q247 -50 271 -75T295 -134Q295 -159 285 -177T258 -208T221 -225T179 -231Q156 -231 142 -228T117 -220L128 -199Z"  />
<glyph unicode="&#xB9;" horiz-adv-x="300" d="M178 401Q178 392 179 385T185 372T203 365T239 361V341H60V361Q85 362 98 365T118 374T125 389T126 413V666Q114 658 106 653T90 643T70 632T43 617V641Q48 644 60 652T87 673T119 700T151 732H178V401Z"  />
<glyph unicode="&#xBA;" horiz-adv-x="344" d="M23 586Q23 623 36 650T71 696T118 723T172 732Q200 732 227 722T275 694T308 649T321 588Q321 555 308 529T275 484T228 456T174 446Q146 446 119 455T71 483T36 527T23 586ZM75 609Q75 581 82 555T104 508T138 475T182 462Q200 462 215 470T243 492T262 527T269 572Q269 596 262 621T241 668T207 702T162 716Q129 716 102 689T75 609Z"  />
<glyph unicode="&#xBB;" horiz-adv-x="361" d="M154 153L259 360L154 566H182L335 361L182 153H154ZM32 166L120 360L32 553H58L194 360L58 166H32Z"  />
<glyph unicode="&#xBC;" horiz-adv-x="719" d="M153 637H183V339Q183 322 202 322H238V306H78V322H119Q132 322 132 338V584Q90 556 62 546L53 559Q111 593 153 637ZM117 -27H76L562 654H603L117 -27ZM567 93V-6H516V93H365V108L541 332H567V125H626V93H567ZM516 125L517 267L407 125H516Z"  />
<glyph unicode="&#xBD;" horiz-adv-x="719" d="M153 637H183V339Q183 322 202 322H238V306H78V322H119Q132 322 132 338V584Q90 556 62 546L53 559Q111 593 153 637ZM117 -27H76L562 654H603L117 -27ZM642 78H663L651 0H404V12Q432 41 496 97T576 180T592 231Q592 259 572 277T520 296Q455 296 432 228H411Q417 275 451 303T536 332Q585 332 618 305T651 238Q651 202 632 181T556 118T460 36H597Q621 36 629 44T642 78Z"  />
<glyph unicode="&#xBE;" horiz-adv-x="719" d="M120 459L108 473Q191 527 191 561Q191 580 176 592T139 605Q92 605 63 553L43 560Q80 637 159 637Q194 637 218 620T242 577Q242 541 188 509V507Q230 503 253 480T277 421Q277 373 231 336T121 299Q83 299 55 311T27 338Q27 346 34 352T51 359Q65 359 93 339T142 319Q173 319 197 345T221 408Q221 437 204 456T162 476Q142 476 120 459ZM134 -27H93L579 654H620L134 -27ZM583 93V-6H533V93H382V108L558 332H583V125H643V93H583ZM533 125V267L424 125H533Z"  />
<glyph unicode="&#xBF;" horiz-adv-x="361" d="M212 525Q231 499 242 480T260 445T269 417T272 393Q272 328 181 297Q115 274 87 244T58 168Q58 151 64 133T85 99T122 73T180 63Q185 63 198 64T225 66T251 68T269 69Q288 69 303 60T319 31Q319 11 296 -1T231 -14Q184 -14 147 1T85 44T45 107T31 184Q31 250 68 299T173 373Q196 381 214 391T232 427Q232 437 230 446T223 466T210 491T190 525H212ZM204 630Q180 630 164 644T148 682Q148 704 163 718T204 732Q230 732 244 718T258 681Q258 655 242 643T204 630Z"  />
<glyph unicode="&#xC0;" horiz-adv-x="753" d="M608 137Q621 99 631 78T655 44T689 27T744 15V0H436V15Q472 19 494 23T528 32T545 46T550 65Q550 71 548 79T544 96T540 111T536 121L464 326H230L163 133Q153 104 148 84T151 49T189 27T276 15V0H9V15Q34 19 52 23T85 40T112 76T140 143L333 704L322 732H400L608 137ZM346 665L239 352H455L346 665ZM438 769L214 912H356L461 769H438Z"  />
<glyph unicode="&#xC1;" horiz-adv-x="753" d="M608 137Q621 99 631 78T655 44T689 27T744 15V0H436V15Q472 19 494 23T528 32T545 46T550 65Q550 71 548 79T544 96T540 111T536 121L464 326H230L163 133Q153 104 148 84T151 49T189 27T276 15V0H9V15Q34 19 52 23T85 40T112 76T140 143L333 704L322 732H400L608 137ZM346 665L239 352H455L346 665ZM397 912H539L315 769H292L397 912Z"  />
<glyph unicode="&#xC2;" horiz-adv-x="753" d="M608 137Q621 99 631 78T655 44T689 27T744 15V0H436V15Q472 19 494 23T528 32T545 46T550 65Q550 71 548 79T544 96T540 111T536 121L464 326H230L163 133Q153 104 148 84T151 49T189 27T276 15V0H9V15Q34 19 52 23T85 40T112 76T140 143L333 704L322 732H400L608 137ZM346 665L239 352H455L346 665ZM235 769H210L336 912H417L543 769H518L377 853L235 769Z"  />
<glyph unicode="&#xC3;" horiz-adv-x="753" d="M608 137Q621 99 631 78T655 44T689 27T744 15V0H436V15Q472 19 494 23T528 32T545 46T550 65Q550 71 548 79T544 96T540 111T536 121L464 326H230L163 133Q153 104 148 84T151 49T189 27T276 15V0H9V15Q34 19 52 23T85 40T112 76T140 143L333 704L322 732H400L608 137ZM346 665L239 352H455L346 665ZM202 773Q203 807 212 831T236 872T267 895T302 902Q326 902 348 894T399 872Q408 868 419 863T441 854T463 847T480 844Q486 844 494 845T510 853T524 870T532 902H553Q554 872 546 848T524 808T490 782T451 773Q441 773 431 775T409 781T379 794T338 813Q329 818 312 824T277 831Q254 831 240 817T223 773H202Z"  />
<glyph unicode="&#xC4;" horiz-adv-x="753" d="M608 137Q621 99 631 78T655 44T689 27T744 15V0H436V15Q472 19 494 23T528 32T545 46T550 65Q550 71 548 79T544 96T540 111T536 121L464 326H230L163 133Q153 104 148 84T151 49T189 27T276 15V0H9V15Q34 19 52 23T85 40T112 76T140 143L333 704L322 732H400L608 137ZM346 665L239 352H455L346 665ZM201 822Q201 845 216 860T254 875Q277 875 292 860T307 822Q307 800 292 785T254 769Q232 769 217 784T201 822ZM446 822Q446 845 461 860T499 875Q522 875 537 859T552 822Q552 801 537 785T499 769Q477 769 462 784T446 822Z"  />
<glyph unicode="&#xC5;" horiz-adv-x="753" d="M608 137Q621 99 631 78T655 44T689 27T744 15V0H436V15Q472 19 494 23T528 32T545 46T550 65Q550 71 548 79T544 96T540 111T536 121L464 326H230L163 133Q153 104 148 84T151 49T189 27T276 15V0H9V15Q34 19 52 23T85 40T112 76T140 143L333 704L322 732H400L608 137ZM346 665L239 352H455L346 665ZM277 862Q277 883 285 901T306 932T338 954T376 962Q397 962 415 954T446 933T468 901T476 862Q476 820 447 792T376 763Q356 763 338 770T307 791T285 823T277 862ZM310 862Q310 834 330 815T376 796Q403 796 423 815T443 862Q443 889 424 909T376 929Q348 929 329 909T310 862Z"  />
<glyph unicode="&#xC6;" horiz-adv-x="961" d="M880 554H865Q857 605 849 633T825 674T779 690T701 693H569V383H721Q750 383 769 384T800 394T817 421T826 475H841V253H826Q823 287 818 308T803 339T780 353T744 357H569V134Q569 97 570 76T578 43T600 29T644 26H749Q785 26 810 28T855 44T887 89T912 177H927L909 0H353V15Q403 18 431 24T473 41T490 71T494 117V268H257L178 127Q159 93 159 74T173 43T217 26T287 15V0H9V15Q41 19 61 27T98 52T130 95T169 162L427 628Q435 642 441 655T445 680T426 697T374 704V719H871L880 554ZM494 294V695L271 294H494Z"  />
<glyph unicode="&#xC7;" horiz-adv-x="721" d="M389 -47Q439 -49 463 -74T488 -134Q488 -165 475 -184T443 -213T405 -227T372 -231Q349 -231 335 -228T310 -220L322 -199Q332 -202 339 -203T357 -205Q390 -205 407 -188T425 -151Q425 -129 411 -122T384 -115Q364 -115 339 -122T292 -142L384 -14Q308 -8 244 20T134 95T62 206T36 350Q36 434 66 504T147 625T268 704T415 732Q450 732 479 728T535 715T584 697T632 676Q643 671 645 670T650 668Q661 668 666 697H681L689 518H674Q652 605 584 655T418 706Q353 706 299 682T206 614T146 511T124 380Q124 291 150 223T219 107T319 36T436 12Q493 12 537 29T613 73T667 130T701 186H717L641 8H627Q628 14 627 23T619 32Q612 32 612 31T605 28Q562 11 519 -1T413 -14L389 -47Z"  />
<glyph unicode="&#xC8;" horiz-adv-x="600" d="M510 719L519 554H504Q496 605 488 633T464 674T418 690T340 693H207V383H360Q389 383 408 384T439 394T456 421T465 475H480V253H465Q462 286 457 306T442 338T413 353T366 357H207V134Q207 97 208 76T217 43T239 29T283 26H388Q426 26 452 29T496 46T527 91T551 177H566L548 0H8V15Q54 19 79 24T117 41T131 74T133 130V601Q133 628 131 646T118 677T82 695T12 704V719H510ZM362 769L138 912H280L385 769H362Z"  />
<glyph unicode="&#xC9;" horiz-adv-x="600" d="M510 719L519 554H504Q496 605 488 633T464 674T418 690T340 693H207V383H360Q389 383 408 384T439 394T456 421T465 475H480V253H465Q462 286 457 306T442 338T413 353T366 357H207V134Q207 97 208 76T217 43T239 29T283 26H388Q426 26 452 29T496 46T527 91T551 177H566L548 0H8V15Q54 19 79 24T117 41T131 74T133 130V601Q133 628 131 646T118 677T82 695T12 704V719H510ZM321 912H463L239 769H216L321 912Z"  />
<glyph unicode="&#xCA;" horiz-adv-x="600" d="M510 719L519 554H504Q496 605 488 633T464 674T418 690T340 693H207V383H360Q389 383 408 384T439 394T456 421T465 475H480V253H465Q462 286 457 306T442 338T413 353T366 357H207V134Q207 97 208 76T217 43T239 29T283 26H388Q426 26 452 29T496 46T527 91T551 177H566L548 0H8V15Q54 19 79 24T117 41T131 74T133 130V601Q133 628 131 646T118 677T82 695T12 704V719H510ZM159 769H134L260 912H341L467 769H442L301 853L159 769Z"  />
<glyph unicode="&#xCB;" horiz-adv-x="600" d="M510 719L519 554H504Q496 605 488 633T464 674T418 690T340 693H207V383H360Q389 383 408 384T439 394T456 421T465 475H480V253H465Q462 286 457 306T442 338T413 353T366 357H207V134Q207 97 208 76T217 43T239 29T283 26H388Q426 26 452 29T496 46T527 91T551 177H566L548 0H8V15Q54 19 79 24T117 41T131 74T133 130V601Q133 628 131 646T118 677T82 695T12 704V719H510ZM125 822Q125 845 140 860T178 875Q201 875 216 860T231 822Q231 800 216 785T178 769Q156 769 141 784T125 822ZM370 822Q370 845 385 860T423 875Q446 875 461 859T476 822Q476 801 461 785T423 769Q401 769 386 784T370 822Z"  />
<glyph unicode="&#xCC;" horiz-adv-x="340" d="M314 719V704Q273 701 252 695T220 677T208 643T206 589V127Q206 97 207 76T219 42T251 22T314 15V0H27V15Q65 15 86 19T117 35T130 70T132 130V576Q132 616 131 640T119 678T88 696T27 704V719H314ZM232 769L8 912H150L255 769H232Z"  />
<glyph unicode="&#xCD;" horiz-adv-x="340" d="M314 719V704Q273 701 252 695T220 677T208 643T206 589V127Q206 97 207 76T219 42T251 22T314 15V0H27V15Q65 15 86 19T117 35T130 70T132 130V576Q132 616 131 640T119 678T88 696T27 704V719H314ZM191 912H333L109 769H86L191 912Z"  />
<glyph unicode="&#xCE;" horiz-adv-x="340" d="M314 719V704Q273 701 252 695T220 677T208 643T206 589V127Q206 97 207 76T219 42T251 22T314 15V0H27V15Q65 15 86 19T117 35T130 70T132 130V576Q132 616 131 640T119 678T88 696T27 704V719H314ZM29 769H4L130 912H211L337 769H312L171 853L29 769Z"  />
<glyph unicode="&#xCF;" horiz-adv-x="340" d="M314 719V704Q273 701 252 695T220 677T208 643T206 589V127Q206 97 207 76T219 42T251 22T314 15V0H27V15Q65 15 86 19T117 35T130 70T132 130V576Q132 616 131 640T119 678T88 696T27 704V719H314ZM-5 822Q-5 845 10 860T48 875Q71 875 86 860T101 822Q101 800 86 785T48 769Q26 769 11 784T-5 822ZM240 822Q240 845 255 860T293 875Q316 875 331 859T346 822Q346 801 331 785T293 769Q271 769 256 784T240 822Z"  />
<glyph unicode="&#xD0;" horiz-adv-x="821" d="M16 347V372H133V582Q133 619 131 642T117 678T83 696T16 704V719L158 723Q185 724 215 724T272 725T320 726T353 727Q452 727 531 701T667 627T754 515T784 373Q784 314 766 260T715 161T637 82T536 27Q513 18 489 12T436 3T368 -3T278 -5Q251 -5 219 -5T148 -3L16 0V15Q60 19 83 25T118 45T131 84T133 154V347H16ZM207 347V165Q207 157 207 144T207 116T208 88T210 69Q214 37 239 29T310 21Q388 21 439 32T525 64Q601 108 647 185T694 367Q694 393 690 427T671 499T629 573T557 639Q541 650 519 661T467 680T396 694T301 700Q266 700 246 699T207 696V372H377V347H207Z"  />
<glyph unicode="&#xD1;" horiz-adv-x="826" d="M196 719L674 113V584Q674 616 671 637T655 672T618 693T552 704V719H812V704Q779 698 758 692T724 672T706 637T700 578V-14H676L158 642V143Q158 112 161 90T178 51T216 27T285 15V0H24V15Q60 22 81 30T114 52T129 90T132 152V665Q120 675 98 685T24 704V719H196ZM239 773Q240 807 249 831T273 872T304 895T339 902Q363 902 385 894T436 872Q445 868 456 863T478 854T500 847T517 844Q523 844 531 845T547 853T561 870T569 902H590Q591 872 583 848T561 808T527 782T488 773Q478 773 468 775T446 781T416 794T375 813Q366 818 349 824T314 831Q291 831 277 817T260 773H239Z"  />
<glyph unicode="&#xD2;" horiz-adv-x="825" d="M418 732Q491 732 558 705T676 628T757 511T788 361Q788 281 759 213T678 94T558 15T409 -14Q328 -14 260 15T142 95T64 212T36 355Q36 428 63 496T139 617T259 700T418 732ZM397 706Q343 706 294 685T207 622T147 519T124 378Q124 285 152 217T226 103T325 36T430 14Q480 14 528 33T615 93T676 194T700 337Q700 430 672 499T599 615T502 683T397 706ZM474 769L250 912H392L497 769H474Z"  />
<glyph unicode="&#xD3;" horiz-adv-x="825" d="M418 732Q491 732 558 705T676 628T757 511T788 361Q788 281 759 213T678 94T558 15T409 -14Q328 -14 260 15T142 95T64 212T36 355Q36 428 63 496T139 617T259 700T418 732ZM397 706Q343 706 294 685T207 622T147 519T124 378Q124 285 152 217T226 103T325 36T430 14Q480 14 528 33T615 93T676 194T700 337Q700 430 672 499T599 615T502 683T397 706ZM433 912H575L351 769H328L433 912Z"  />
<glyph unicode="&#xD4;" horiz-adv-x="825" d="M418 732Q491 732 558 705T676 628T757 511T788 361Q788 281 759 213T678 94T558 15T409 -14Q328 -14 260 15T142 95T64 212T36 355Q36 428 63 496T139 617T259 700T418 732ZM397 706Q343 706 294 685T207 622T147 519T124 378Q124 285 152 217T226 103T325 36T430 14Q480 14 528 33T615 93T676 194T700 337Q700 430 672 499T599 615T502 683T397 706ZM271 769H246L372 912H453L579 769H554L413 853L271 769Z"  />
<glyph unicode="&#xD5;" horiz-adv-x="825" d="M418 732Q491 732 558 705T676 628T757 511T788 361Q788 281 759 213T678 94T558 15T409 -14Q328 -14 260 15T142 95T64 212T36 355Q36 428 63 496T139 617T259 700T418 732ZM397 706Q343 706 294 685T207 622T147 519T124 378Q124 285 152 217T226 103T325 36T430 14Q480 14 528 33T615 93T676 194T700 337Q700 430 672 499T599 615T502 683T397 706ZM238 773Q239 807 248 831T272 872T303 895T338 902Q362 902 384 894T435 872Q444 868 455 863T477 854T499 847T516 844Q522 844 530 845T546 853T560 870T568 902H589Q590 872 582 848T560 808T526 782T487 773Q477 773 467 775T445 781T415 794T374 813Q365 818 348 824T313 831Q290 831 276 817T259 773H238Z"  />
<glyph unicode="&#xD6;" horiz-adv-x="825" d="M418 732Q491 732 558 705T676 628T757 511T788 361Q788 281 759 213T678 94T558 15T409 -14Q328 -14 260 15T142 95T64 212T36 355Q36 428 63 496T139 617T259 700T418 732ZM397 706Q343 706 294 685T207 622T147 519T124 378Q124 285 152 217T226 103T325 36T430 14Q480 14 528 33T615 93T676 194T700 337Q700 430 672 499T599 615T502 683T397 706ZM237 822Q237 845 252 860T290 875Q313 875 328 860T343 822Q343 800 328 785T290 769Q268 769 253 784T237 822ZM482 822Q482 845 497 860T535 875Q558 875 573 859T588 822Q588 801 573 785T535 769Q513 769 498 784T482 822Z"  />
<glyph unicode="&#xD7;" horiz-adv-x="667" d="M333 289L127 83L95 115L301 321L95 527L127 559L333 353L540 560L573 527L366 320L572 114L540 82L333 289Z"  />
<glyph unicode="&#xD8;" horiz-adv-x="825" d="M91 -33L72 -17L157 81Q121 114 98 150T61 223T42 292T36 355Q36 432 64 500T143 620T262 702T415 732Q545 732 648 653L734 752L753 737L667 637Q725 583 756 512T788 361Q788 281 759 213T678 94T558 15T409 -14Q361 -14 324 -5T258 16T209 42T176 65L91 -33ZM217 113Q229 99 249 82T296 50T356 25T430 14Q480 14 528 33T615 93T676 193T700 336Q700 354 698 383T687 446T664 517T623 586L217 113ZM607 605Q577 637 548 657T491 688T439 702T397 706Q345 706 296 685T209 623T147 519T124 376Q124 310 142 248T201 132L607 605Z"  />
<glyph unicode="&#xD9;" horiz-adv-x="814" d="M797 704Q758 701 736 690T703 663T690 628T687 588V276Q687 198 666 143T607 53T517 2T404 -14Q333 -14 281 4T195 56T144 135T127 236V623Q127 643 125 657T113 680T80 695T17 704V719H311V704Q271 702 249 695T216 677T203 650T201 615V256Q201 143 257 81T428 19Q476 19 518 34T592 81T642 158T661 266V598Q661 628 657 647T640 678T605 695T546 704V719H797V704ZM469 769L245 912H387L492 769H469Z"  />
<glyph unicode="&#xDA;" horiz-adv-x="814" d="M797 704Q758 701 736 690T703 663T690 628T687 588V276Q687 198 666 143T607 53T517 2T404 -14Q333 -14 281 4T195 56T144 135T127 236V623Q127 643 125 657T113 680T80 695T17 704V719H311V704Q271 702 249 695T216 677T203 650T201 615V256Q201 143 257 81T428 19Q476 19 518 34T592 81T642 158T661 266V598Q661 628 657 647T640 678T605 695T546 704V719H797V704ZM428 912H570L346 769H323L428 912Z"  />
<glyph unicode="&#xDB;" horiz-adv-x="814" d="M797 704Q758 701 736 690T703 663T690 628T687 588V276Q687 198 666 143T607 53T517 2T404 -14Q333 -14 281 4T195 56T144 135T127 236V623Q127 643 125 657T113 680T80 695T17 704V719H311V704Q271 702 249 695T216 677T203 650T201 615V256Q201 143 257 81T428 19Q476 19 518 34T592 81T642 158T661 266V598Q661 628 657 647T640 678T605 695T546 704V719H797V704ZM266 769H241L367 912H448L574 769H549L408 853L266 769Z"  />
<glyph unicode="&#xDC;" horiz-adv-x="814" d="M797 704Q758 701 736 690T703 663T690 628T687 588V276Q687 198 666 143T607 53T517 2T404 -14Q333 -14 281 4T195 56T144 135T127 236V623Q127 643 125 657T113 680T80 695T17 704V719H311V704Q271 702 249 695T216 677T203 650T201 615V256Q201 143 257 81T428 19Q476 19 518 34T592 81T642 158T661 266V598Q661 628 657 647T640 678T605 695T546 704V719H797V704ZM232 822Q232 845 247 860T285 875Q308 875 323 860T338 822Q338 800 323 785T285 769Q263 769 248 784T232 822ZM477 822Q477 845 492 860T530 875Q553 875 568 859T583 822Q583 801 568 785T530 769Q508 769 493 784T477 822Z"  />
<glyph unicode="&#xDD;" horiz-adv-x="775" d="M300 719V704Q258 702 233 696T207 672Q207 661 217 642T236 611L423 310L590 591Q606 617 615 635T625 665Q625 677 617 684T596 695T565 700T528 704V719H766V704Q738 700 720 695T686 679T657 648T621 593L434 279V124Q434 95 436 76T449 44T485 25T556 15V0H237V15Q283 18 308 24T344 43T358 75T360 126V272L160 595Q136 633 121 654T90 686T56 700T9 704V719H300ZM408 912H550L326 769H303L408 912Z"  />
<glyph unicode="&#xDE;" horiz-adv-x="605" d="M313 719V704Q271 701 249 692T218 669T207 635T206 590V568Q226 570 247 571T294 573Q373 573 426 554T510 503T555 434T569 358Q569 318 556 281T512 214T434 166T315 148Q286 148 262 149T206 152V134Q206 99 209 77T226 42T269 23T350 15V0H11V15Q54 19 78 23T114 41T129 80T132 154V598Q132 629 130 648T117 679T81 695T11 704V719H313ZM206 178Q225 176 240 175T273 174Q330 174 370 190T434 234T470 297T481 370Q481 455 430 501T297 547Q274 547 248 546T206 542V178Z"  />
<glyph unicode="&#xDF;" horiz-adv-x="970" d="M521 192Q547 109 598 62T723 14Q754 14 782 26T831 58T864 104T876 160Q876 190 864 215T830 262T775 307T700 354Q661 377 628 400T571 449T532 504T518 568Q518 596 530 625T565 678T623 717T704 732Q749 732 781 719T843 689Q847 687 851 685T859 683Q867 683 870 692T874 711H889L907 553H893Q885 580 868 607T828 655T774 690T708 704Q670 704 645 692T604 663T582 626T575 590Q575 564 586 543T619 502T674 460T750 412Q785 390 819 367T881 316T926 255T943 180Q943 147 928 113T884 50T817 4T730 -14Q698 -14 674 -7T619 13Q614 15 606 18T590 25T576 31T568 34Q559 34 555 25T548 8H537L508 192H521ZM36 192Q65 104 115 59T238 14Q269 14 297 26T346 58T379 104T391 160Q391 190 379 215T345 262T290 307T215 354Q176 377 143 400T86 449T47 504T33 568Q33 596 45 625T80 678T138 717T219 732Q264 732 296 719T358 689Q362 687 366 685T374 683Q382 683 385 692T389 711H404L422 553H408Q400 580 383 607T343 655T289 690T223 704Q185 704 160 692T119 663T97 626T90 590Q90 564 101 543T134 502T189 460T265 412Q300 390 334 367T396 316T441 255T458 180Q458 147 443 113T399 50T332 4T245 -14Q213 -14 189 -7T134 13Q129 15 121 18T105 25T91 31T83 34Q74 34 70 25T63 8H52L23 192H36Z"  />
<glyph unicode="&#xE0;" horiz-adv-x="753" d="M608 137Q621 99 631 78T655 44T689 27T744 15V0H436V15Q472 19 494 23T528 32T545 46T550 65Q550 71 548 79T544 96T540 111T536 121L464 326H230L163 133Q153 104 148 84T151 49T189 27T276 15V0H9V15Q34 19 52 23T85 40T112 76T140 143L333 704L322 732H400L608 137ZM346 665L239 352H455L346 665ZM438 769L214 912H356L461 769H438Z"  />
<glyph unicode="&#xE1;" horiz-adv-x="753" d="M608 137Q621 99 631 78T655 44T689 27T744 15V0H436V15Q472 19 494 23T528 32T545 46T550 65Q550 71 548 79T544 96T540 111T536 121L464 326H230L163 133Q153 104 148 84T151 49T189 27T276 15V0H9V15Q34 19 52 23T85 40T112 76T140 143L333 704L322 732H400L608 137ZM346 665L239 352H455L346 665ZM397 912H539L315 769H292L397 912Z"  />
<glyph unicode="&#xE2;" horiz-adv-x="753" d="M608 137Q621 99 631 78T655 44T689 27T744 15V0H436V15Q472 19 494 23T528 32T545 46T550 65Q550 71 548 79T544 96T540 111T536 121L464 326H230L163 133Q153 104 148 84T151 49T189 27T276 15V0H9V15Q34 19 52 23T85 40T112 76T140 143L333 704L322 732H400L608 137ZM346 665L239 352H455L346 665ZM235 769H210L336 912H417L543 769H518L377 853L235 769Z"  />
<glyph unicode="&#xE3;" horiz-adv-x="753" d="M608 137Q621 99 631 78T655 44T689 27T744 15V0H436V15Q472 19 494 23T528 32T545 46T550 65Q550 71 548 79T544 96T540 111T536 121L464 326H230L163 133Q153 104 148 84T151 49T189 27T276 15V0H9V15Q34 19 52 23T85 40T112 76T140 143L333 704L322 732H400L608 137ZM346 665L239 352H455L346 665ZM202 773Q203 807 212 831T236 872T267 895T302 902Q326 902 348 894T399 872Q408 868 419 863T441 854T463 847T480 844Q486 844 494 845T510 853T524 870T532 902H553Q554 872 546 848T524 808T490 782T451 773Q441 773 431 775T409 781T379 794T338 813Q329 818 312 824T277 831Q254 831 240 817T223 773H202Z"  />
<glyph unicode="&#xE4;" horiz-adv-x="753" d="M608 137Q621 99 631 78T655 44T689 27T744 15V0H436V15Q472 19 494 23T528 32T545 46T550 65Q550 71 548 79T544 96T540 111T536 121L464 326H230L163 133Q153 104 148 84T151 49T189 27T276 15V0H9V15Q34 19 52 23T85 40T112 76T140 143L333 704L322 732H400L608 137ZM346 665L239 352H455L346 665ZM201 822Q201 845 216 860T254 875Q277 875 292 860T307 822Q307 800 292 785T254 769Q232 769 217 784T201 822ZM446 822Q446 845 461 860T499 875Q522 875 537 859T552 822Q552 801 537 785T499 769Q477 769 462 784T446 822Z"  />
<glyph unicode="&#xE5;" horiz-adv-x="753" d="M608 137Q621 99 631 78T655 44T689 27T744 15V0H436V15Q472 19 494 23T528 32T545 46T550 65Q550 71 548 79T544 96T540 111T536 121L464 326H230L163 133Q153 104 148 84T151 49T189 27T276 15V0H9V15Q34 19 52 23T85 40T112 76T140 143L333 704L322 732H400L608 137ZM346 665L239 352H455L346 665ZM277 862Q277 883 285 901T306 932T338 954T376 962Q397 962 415 954T446 933T468 901T476 862Q476 820 447 792T376 763Q356 763 338 770T307 791T285 823T277 862ZM310 862Q310 834 330 815T376 796Q403 796 423 815T443 862Q443 889 424 909T376 929Q348 929 329 909T310 862Z"  />
<glyph unicode="&#xE6;" horiz-adv-x="961" d="M880 554H865Q857 605 849 633T825 674T779 690T701 693H569V383H721Q750 383 769 384T800 394T817 421T826 475H841V253H826Q823 287 818 308T803 339T780 353T744 357H569V134Q569 97 570 76T578 43T600 29T644 26H749Q785 26 810 28T855 44T887 89T912 177H927L909 0H353V15Q403 18 431 24T473 41T490 71T494 117V268H257L178 127Q159 93 159 74T173 43T217 26T287 15V0H9V15Q41 19 61 27T98 52T130 95T169 162L427 628Q435 642 441 655T445 680T426 697T374 704V719H871L880 554ZM494 294V695L271 294H494Z"  />
<glyph unicode="&#xE7;" horiz-adv-x="721" d="M389 -47Q439 -49 463 -74T488 -134Q488 -165 475 -184T443 -213T405 -227T372 -231Q349 -231 335 -228T310 -220L322 -199Q332 -202 339 -203T357 -205Q390 -205 407 -188T425 -151Q425 -129 411 -122T384 -115Q364 -115 339 -122T292 -142L384 -14Q308 -8 244 20T134 95T62 206T36 350Q36 434 66 504T147 625T268 704T415 732Q450 732 479 728T535 715T584 697T632 676Q643 671 645 670T650 668Q661 668 666 697H681L689 518H674Q652 605 584 655T418 706Q353 706 299 682T206 614T146 511T124 380Q124 291 150 223T219 107T319 36T436 12Q493 12 537 29T613 73T667 130T701 186H717L641 8H627Q628 14 627 23T619 32Q612 32 612 31T605 28Q562 11 519 -1T413 -14L389 -47Z"  />
<glyph unicode="&#xE8;" horiz-adv-x="600" d="M510 719L519 554H504Q496 605 488 633T464 674T418 690T340 693H207V383H360Q389 383 408 384T439 394T456 421T465 475H480V253H465Q462 286 457 306T442 338T413 353T366 357H207V134Q207 97 208 76T217 43T239 29T283 26H388Q426 26 452 29T496 46T527 91T551 177H566L548 0H8V15Q54 19 79 24T117 41T131 74T133 130V601Q133 628 131 646T118 677T82 695T12 704V719H510ZM362 769L138 912H280L385 769H362Z"  />
<glyph unicode="&#xE9;" horiz-adv-x="600" d="M510 719L519 554H504Q496 605 488 633T464 674T418 690T340 693H207V383H360Q389 383 408 384T439 394T456 421T465 475H480V253H465Q462 286 457 306T442 338T413 353T366 357H207V134Q207 97 208 76T217 43T239 29T283 26H388Q426 26 452 29T496 46T527 91T551 177H566L548 0H8V15Q54 19 79 24T117 41T131 74T133 130V601Q133 628 131 646T118 677T82 695T12 704V719H510ZM321 912H463L239 769H216L321 912Z"  />
<glyph unicode="&#xEA;" horiz-adv-x="600" d="M510 719L519 554H504Q496 605 488 633T464 674T418 690T340 693H207V383H360Q389 383 408 384T439 394T456 421T465 475H480V253H465Q462 286 457 306T442 338T413 353T366 357H207V134Q207 97 208 76T217 43T239 29T283 26H388Q426 26 452 29T496 46T527 91T551 177H566L548 0H8V15Q54 19 79 24T117 41T131 74T133 130V601Q133 628 131 646T118 677T82 695T12 704V719H510ZM159 769H134L260 912H341L467 769H442L301 853L159 769Z"  />
<glyph unicode="&#xEB;" horiz-adv-x="600" d="M510 719L519 554H504Q496 605 488 633T464 674T418 690T340 693H207V383H360Q389 383 408 384T439 394T456 421T465 475H480V253H465Q462 286 457 306T442 338T413 353T366 357H207V134Q207 97 208 76T217 43T239 29T283 26H388Q426 26 452 29T496 46T527 91T551 177H566L548 0H8V15Q54 19 79 24T117 41T131 74T133 130V601Q133 628 131 646T118 677T82 695T12 704V719H510ZM125 822Q125 845 140 860T178 875Q201 875 216 860T231 822Q231 800 216 785T178 769Q156 769 141 784T125 822ZM370 822Q370 845 385 860T423 875Q446 875 461 859T476 822Q476 801 461 785T423 769Q401 769 386 784T370 822Z"  />
<glyph unicode="&#xEC;" horiz-adv-x="340" d="M314 719V704Q273 701 252 695T220 677T208 643T206 589V127Q206 97 207 76T219 42T251 22T314 15V0H27V15Q65 15 86 19T117 35T130 70T132 130V576Q132 616 131 640T119 678T88 696T27 704V719H314ZM232 769L8 912H150L255 769H232Z"  />
<glyph unicode="&#xED;" horiz-adv-x="340" d="M314 719V704Q273 701 252 695T220 677T208 643T206 589V127Q206 97 207 76T219 42T251 22T314 15V0H27V15Q65 15 86 19T117 35T130 70T132 130V576Q132 616 131 640T119 678T88 696T27 704V719H314ZM191 912H333L109 769H86L191 912Z"  />
<glyph unicode="&#xEE;" horiz-adv-x="340" d="M314 719V704Q273 701 252 695T220 677T208 643T206 589V127Q206 97 207 76T219 42T251 22T314 15V0H27V15Q65 15 86 19T117 35T130 70T132 130V576Q132 616 131 640T119 678T88 696T27 704V719H314ZM29 769H4L130 912H211L337 769H312L171 853L29 769Z"  />
<glyph unicode="&#xEF;" horiz-adv-x="340" d="M314 719V704Q273 701 252 695T220 677T208 643T206 589V127Q206 97 207 76T219 42T251 22T314 15V0H27V15Q65 15 86 19T117 35T130 70T132 130V576Q132 616 131 640T119 678T88 696T27 704V719H314ZM-5 822Q-5 845 10 860T48 875Q71 875 86 860T101 822Q101 800 86 785T48 769Q26 769 11 784T-5 822ZM240 822Q240 845 255 860T293 875Q316 875 331 859T346 822Q346 801 331 785T293 769Q271 769 256 784T240 822Z"  />
<glyph unicode="&#xF0;" horiz-adv-x="821" d="M16 347V372H133V582Q133 619 131 642T117 678T83 696T16 704V719L158 723Q185 724 215 724T272 725T320 726T353 727Q452 727 531 701T667 627T754 515T784 373Q784 314 766 260T715 161T637 82T536 27Q513 18 489 12T436 3T368 -3T278 -5Q251 -5 219 -5T148 -3L16 0V15Q60 19 83 25T118 45T131 84T133 154V347H16ZM207 347V165Q207 157 207 144T207 116T208 88T210 69Q214 37 239 29T310 21Q388 21 439 32T525 64Q601 108 647 185T694 367Q694 393 690 427T671 499T629 573T557 639Q541 650 519 661T467 680T396 694T301 700Q266 700 246 699T207 696V372H377V347H207Z"  />
<glyph unicode="&#xF1;" horiz-adv-x="826" d="M196 719L674 113V584Q674 616 671 637T655 672T618 693T552 704V719H812V704Q779 698 758 692T724 672T706 637T700 578V-14H676L158 642V143Q158 112 161 90T178 51T216 27T285 15V0H24V15Q60 22 81 30T114 52T129 90T132 152V665Q120 675 98 685T24 704V719H196ZM239 773Q240 807 249 831T273 872T304 895T339 902Q363 902 385 894T436 872Q445 868 456 863T478 854T500 847T517 844Q523 844 531 845T547 853T561 870T569 902H590Q591 872 583 848T561 808T527 782T488 773Q478 773 468 775T446 781T416 794T375 813Q366 818 349 824T314 831Q291 831 277 817T260 773H239Z"  />
<glyph unicode="&#xF2;" horiz-adv-x="825" d="M418 732Q491 732 558 705T676 628T757 511T788 361Q788 281 759 213T678 94T558 15T409 -14Q328 -14 260 15T142 95T64 212T36 355Q36 428 63 496T139 617T259 700T418 732ZM397 706Q343 706 294 685T207 622T147 519T124 378Q124 285 152 217T226 103T325 36T430 14Q480 14 528 33T615 93T676 194T700 337Q700 430 672 499T599 615T502 683T397 706ZM474 769L250 912H392L497 769H474Z"  />
<glyph unicode="&#xF3;" horiz-adv-x="825" d="M418 732Q491 732 558 705T676 628T757 511T788 361Q788 281 759 213T678 94T558 15T409 -14Q328 -14 260 15T142 95T64 212T36 355Q36 428 63 496T139 617T259 700T418 732ZM397 706Q343 706 294 685T207 622T147 519T124 378Q124 285 152 217T226 103T325 36T430 14Q480 14 528 33T615 93T676 194T700 337Q700 430 672 499T599 615T502 683T397 706ZM433 912H575L351 769H328L433 912Z"  />
<glyph unicode="&#xF4;" horiz-adv-x="825" d="M418 732Q491 732 558 705T676 628T757 511T788 361Q788 281 759 213T678 94T558 15T409 -14Q328 -14 260 15T142 95T64 212T36 355Q36 428 63 496T139 617T259 700T418 732ZM397 706Q343 706 294 685T207 622T147 519T124 378Q124 285 152 217T226 103T325 36T430 14Q480 14 528 33T615 93T676 194T700 337Q700 430 672 499T599 615T502 683T397 706ZM271 769H246L372 912H453L579 769H554L413 853L271 769Z"  />
<glyph unicode="&#xF5;" horiz-adv-x="825" d="M418 732Q491 732 558 705T676 628T757 511T788 361Q788 281 759 213T678 94T558 15T409 -14Q328 -14 260 15T142 95T64 212T36 355Q36 428 63 496T139 617T259 700T418 732ZM397 706Q343 706 294 685T207 622T147 519T124 378Q124 285 152 217T226 103T325 36T430 14Q480 14 528 33T615 93T676 194T700 337Q700 430 672 499T599 615T502 683T397 706ZM238 773Q239 807 248 831T272 872T303 895T338 902Q362 902 384 894T435 872Q444 868 455 863T477 854T499 847T516 844Q522 844 530 845T546 853T560 870T568 902H589Q590 872 582 848T560 808T526 782T487 773Q477 773 467 775T445 781T415 794T374 813Q365 818 348 824T313 831Q290 831 276 817T259 773H238Z"  />
<glyph unicode="&#xF6;" horiz-adv-x="825" d="M418 732Q491 732 558 705T676 628T757 511T788 361Q788 281 759 213T678 94T558 15T409 -14Q328 -14 260 15T142 95T64 212T36 355Q36 428 63 496T139 617T259 700T418 732ZM397 706Q343 706 294 685T207 622T147 519T124 378Q124 285 152 217T226 103T325 36T430 14Q480 14 528 33T615 93T676 194T700 337Q700 430 672 499T599 615T502 683T397 706ZM237 822Q237 845 252 860T290 875Q313 875 328 860T343 822Q343 800 328 785T290 769Q268 769 253 784T237 822ZM482 822Q482 845 497 860T535 875Q558 875 573 859T588 822Q588 801 573 785T535 769Q513 769 498 784T482 822Z"  />
<glyph unicode="&#xF7;" horiz-adv-x="667" d="M301 524Q301 537 311 547T334 557Q347 557 356 547T366 524Q366 511 357 502T334 492Q321 492 311 501T301 524ZM71 342H596V298H71V342ZM301 116Q301 128 311 138T334 148Q347 148 356 139T366 116Q366 103 357 93T334 83Q321 83 311 93T301 116Z"  />
<glyph unicode="&#xF8;" horiz-adv-x="825" d="M91 -33L72 -17L157 81Q121 114 98 150T61 223T42 292T36 355Q36 432 64 500T143 620T262 702T415 732Q545 732 648 653L734 752L753 737L667 637Q725 583 756 512T788 361Q788 281 759 213T678 94T558 15T409 -14Q361 -14 324 -5T258 16T209 42T176 65L91 -33ZM217 113Q229 99 249 82T296 50T356 25T430 14Q480 14 528 33T615 93T676 193T700 336Q700 354 698 383T687 446T664 517T623 586L217 113ZM607 605Q577 637 548 657T491 688T439 702T397 706Q345 706 296 685T209 623T147 519T124 376Q124 310 142 248T201 132L607 605Z"  />
<glyph unicode="&#xF9;" horiz-adv-x="814" d="M797 704Q758 701 736 690T703 663T690 628T687 588V276Q687 198 666 143T607 53T517 2T404 -14Q333 -14 281 4T195 56T144 135T127 236V623Q127 643 125 657T113 680T80 695T17 704V719H311V704Q271 702 249 695T216 677T203 650T201 615V256Q201 143 257 81T428 19Q476 19 518 34T592 81T642 158T661 266V598Q661 628 657 647T640 678T605 695T546 704V719H797V704ZM469 769L245 912H387L492 769H469Z"  />
<glyph unicode="&#xFA;" horiz-adv-x="814" d="M797 704Q758 701 736 690T703 663T690 628T687 588V276Q687 198 666 143T607 53T517 2T404 -14Q333 -14 281 4T195 56T144 135T127 236V623Q127 643 125 657T113 680T80 695T17 704V719H311V704Q271 702 249 695T216 677T203 650T201 615V256Q201 143 257 81T428 19Q476 19 518 34T592 81T642 158T661 266V598Q661 628 657 647T640 678T605 695T546 704V719H797V704ZM428 912H570L346 769H323L428 912Z"  />
<glyph unicode="&#xFB;" horiz-adv-x="814" d="M797 704Q758 701 736 690T703 663T690 628T687 588V276Q687 198 666 143T607 53T517 2T404 -14Q333 -14 281 4T195 56T144 135T127 236V623Q127 643 125 657T113 680T80 695T17 704V719H311V704Q271 702 249 695T216 677T203 650T201 615V256Q201 143 257 81T428 19Q476 19 518 34T592 81T642 158T661 266V598Q661 628 657 647T640 678T605 695T546 704V719H797V704ZM266 769H241L367 912H448L574 769H549L408 853L266 769Z"  />
<glyph unicode="&#xFC;" horiz-adv-x="814" d="M797 704Q758 701 736 690T703 663T690 628T687 588V276Q687 198 666 143T607 53T517 2T404 -14Q333 -14 281 4T195 56T144 135T127 236V623Q127 643 125 657T113 680T80 695T17 704V719H311V704Q271 702 249 695T216 677T203 650T201 615V256Q201 143 257 81T428 19Q476 19 518 34T592 81T642 158T661 266V598Q661 628 657 647T640 678T605 695T546 704V719H797V704ZM232 822Q232 845 247 860T285 875Q308 875 323 860T338 822Q338 800 323 785T285 769Q263 769 248 784T232 822ZM477 822Q477 845 492 860T530 875Q553 875 568 859T583 822Q583 801 568 785T530 769Q508 769 493 784T477 822Z"  />
<glyph unicode="&#xFD;" horiz-adv-x="775" d="M300 719V704Q258 702 233 696T207 672Q207 661 217 642T236 611L423 310L590 591Q606 617 615 635T625 665Q625 677 617 684T596 695T565 700T528 704V719H766V704Q738 700 720 695T686 679T657 648T621 593L434 279V124Q434 95 436 76T449 44T485 25T556 15V0H237V15Q283 18 308 24T344 43T358 75T360 126V272L160 595Q136 633 121 654T90 686T56 700T9 704V719H300ZM408 912H550L326 769H303L408 912Z"  />
<glyph unicode="&#xFE;" horiz-adv-x="605" d="M313 719V704Q271 701 249 692T218 669T207 635T206 590V568Q226 570 247 571T294 573Q373 573 426 554T510 503T555 434T569 358Q569 318 556 281T512 214T434 166T315 148Q286 148 262 149T206 152V134Q206 99 209 77T226 42T269 23T350 15V0H11V15Q54 19 78 23T114 41T129 80T132 154V598Q132 629 130 648T117 679T81 695T11 704V719H313ZM206 178Q225 176 240 175T273 174Q330 174 370 190T434 234T470 297T481 370Q481 455 430 501T297 547Q274 547 248 546T206 542V178Z"  />
<glyph unicode="&#xFF;" horiz-adv-x="775" d="M300 719V704Q258 702 233 696T207 672Q207 661 217 642T236 611L423 310L590 591Q606 617 615 635T625 665Q625 677 617 684T596 695T565 700T528 704V719H766V704Q738 700 720 695T686 679T657 648T621 593L434 279V124Q434 95 436 76T449 44T485 25T556 15V0H237V15Q283 18 308 24T344 43T358 75T360 126V272L160 595Q136 633 121 654T90 686T56 700T9 704V719H300ZM212 822Q212 845 227 860T265 875Q288 875 303 860T318 822Q318 800 303 785T265 769Q243 769 228 784T212 822ZM457 822Q457 845 472 860T510 875Q533 875 548 859T563 822Q563 801 548 785T510 769Q488 769 473 784T457 822Z"  />
<glyph unicode="&#x131;" horiz-adv-x="340" d="M314 719V704Q273 701 252 695T220 677T208 643T206 589V127Q206 97 207 76T219 42T251 22T314 15V0H27V15Q65 15 86 19T117 35T130 70T132 130V576Q132 616 131 640T119 678T88 696T27 704V719H314Z"  />
<glyph unicode="&#x152;" horiz-adv-x="993" d="M570 0Q561 0 540 0T493 -2Q469 -3 448 -4T418 -5Q321 -5 249 27T130 110T60 226T36 353Q36 434 64 503T143 621T259 699T403 727Q436 727 464 725T498 722Q567 719 613 719H904L913 554H898Q890 603 883 631T859 673T813 690T734 693H601V383H754Q788 383 807 387T837 401T851 429T858 475H873V253H858Q855 293 849 314T832 344T807 355T774 357H601V134Q601 98 602 77T611 44T633 29T676 26H781Q820 26 846 29T890 47T920 92T944 178H959L941 0H570ZM527 664Q498 681 466 691T396 701Q346 701 297 680T210 619T148 518T124 378Q124 287 153 220T225 109T319 43T413 21Q458 21 486 34T527 56V664Z"  />
<glyph unicode="&#x153;" horiz-adv-x="993" d="M570 0Q561 0 540 0T493 -2Q469 -3 448 -4T418 -5Q321 -5 249 27T130 110T60 226T36 353Q36 434 64 503T143 621T259 699T403 727Q436 727 464 725T498 722Q567 719 613 719H904L913 554H898Q890 603 883 631T859 673T813 690T734 693H601V383H754Q788 383 807 387T837 401T851 429T858 475H873V253H858Q855 293 849 314T832 344T807 355T774 357H601V134Q601 98 602 77T611 44T633 29T676 26H781Q820 26 846 29T890 47T920 92T944 178H959L941 0H570ZM527 664Q498 681 466 691T396 701Q346 701 297 680T210 619T148 518T124 378Q124 287 153 220T225 109T319 43T413 21Q458 21 486 34T527 56V664Z"  />
<glyph unicode="&#x160;" horiz-adv-x="485" d="M36 192Q41 177 54 147T92 84Q107 64 126 51T165 29T204 18T238 14Q269 14 297 26T346 58T379 104T391 160Q391 190 379 215T345 262T290 307T215 354Q176 377 143 400T86 449T47 504T33 568Q33 596 45 625T80 678T138 717T219 732Q264 732 296 719T358 689Q362 687 366 685T374 683Q382 683 385 692T389 711H404L422 553H408Q400 580 383 607T343 655T289 690T223 704Q185 704 160 692T119 663T97 626T90 590Q90 564 101 543T134 502T189 460T265 412Q300 390 334 367T396 316T441 255T458 180Q458 147 443 113T399 50T332 4T245 -14Q213 -14 189 -7T134 13Q129 15 121 18T105 25T91 31T83 34Q74 34 70 25T63 8H52L23 192H36ZM384 912H409L283 769H202L76 912H101L243 828L384 912Z"  />
<glyph unicode="&#x161;" horiz-adv-x="485" d="M36 192Q41 177 54 147T92 84Q107 64 126 51T165 29T204 18T238 14Q269 14 297 26T346 58T379 104T391 160Q391 190 379 215T345 262T290 307T215 354Q176 377 143 400T86 449T47 504T33 568Q33 596 45 625T80 678T138 717T219 732Q264 732 296 719T358 689Q362 687 366 685T374 683Q382 683 385 692T389 711H404L422 553H408Q400 580 383 607T343 655T289 690T223 704Q185 704 160 692T119 663T97 626T90 590Q90 564 101 543T134 502T189 460T265 412Q300 390 334 367T396 316T441 255T458 180Q458 147 443 113T399 50T332 4T245 -14Q213 -14 189 -7T134 13Q129 15 121 18T105 25T91 31T83 34Q74 34 70 25T63 8H52L23 192H36ZM384 912H409L283 769H202L76 912H101L243 828L384 912Z"  />
<glyph unicode="&#x178;" horiz-adv-x="775" d="M300 719V704Q258 702 233 696T207 672Q207 661 217 642T236 611L423 310L590 591Q606 617 615 635T625 665Q625 677 617 684T596 695T565 700T528 704V719H766V704Q738 700 720 695T686 679T657 648T621 593L434 279V124Q434 95 436 76T449 44T485 25T556 15V0H237V15Q283 18 308 24T344 43T358 75T360 126V272L160 595Q136 633 121 654T90 686T56 700T9 704V719H300ZM212 822Q212 845 227 860T265 875Q288 875 303 860T318 822Q318 800 303 785T265 769Q243 769 228 784T212 822ZM457 822Q457 845 472 860T510 875Q533 875 548 859T563 822Q563 801 548 785T510 769Q488 769 473 784T457 822Z"  />
<glyph unicode="&#x17D;" horiz-adv-x="660" d="M620 719V704L114 26H462Q499 26 526 29T573 51T606 106T628 212H643L626 0H17V18L522 693H244Q196 693 167 690T120 673T94 629T81 546H66L71 719H620ZM472 912H497L371 769H290L164 912H189L331 828L472 912Z"  />
<glyph unicode="&#x17E;" horiz-adv-x="660" d="M620 719V704L114 26H462Q499 26 526 29T573 51T606 106T628 212H643L626 0H17V18L522 693H244Q196 693 167 690T120 673T94 629T81 546H66L71 719H620ZM472 912H497L371 769H290L164 912H189L331 828L472 912Z"  />
<glyph unicode="&#x192;" horiz-adv-x="571" d="M446 500L441 469H341Q337 451 329 413T310 325T284 220T256 110T226 8T197 -74Q187 -99 172 -128T137 -183T90 -226T29 -243Q0 -243 -16 -226T-33 -186Q-33 -167 -22 -153T9 -138Q25 -138 34 -148T43 -169Q43 -176 38 -186Q34 -194 34 -196T33 -200Q33 -204 37 -208T52 -212Q70 -212 85 -198T112 -160T133 -106T150 -43Q162 13 171 55T188 133T203 202T218 273T238 358T265 469H164L171 500Q206 502 225 505T257 517T278 547T300 603Q316 647 331 682T366 741T407 779T460 792Q495 792 514 773T534 729Q534 706 521 696T495 685Q481 685 471 695T461 716Q461 721 466 734T471 752Q471 758 466 762T450 767Q407 767 389 721Q385 712 379 682T367 617T355 549T346 500H446Z"  />
<glyph unicode="&#x2C6;" horiz-adv-x="333" d="M25 769H0L126 912H207L333 769H308L167 853L25 769Z"  />
<glyph unicode="&#x2C7;" horiz-adv-x="333" d="M308 912H333L207 769H126L0 912H25L167 828L308 912Z"  />
<glyph unicode="&#x2DA;" horiz-adv-x="333" d="M67 862Q67 883 75 901T96 932T128 954T166 962Q187 962 205 954T236 933T258 901T266 862Q266 820 237 792T166 763Q146 763 128 770T97 791T75 823T67 862ZM100 862Q100 834 120 815T166 796Q193 796 213 815T233 862Q233 889 214 909T166 929Q138 929 119 909T100 862Z"  />
<glyph unicode="&#x2DC;" horiz-adv-x="333" d="M-8 773Q-7 807 2 831T26 872T57 895T92 902Q116 902 138 894T189 872Q198 868 209 863T231 854T253 847T270 844Q276 844 284 845T300 853T314 870T322 902H343Q344 872 336 848T314 808T280 782T241 773Q231 773 221 775T199 781T169 794T128 813Q119 818 102 824T67 831Q44 831 30 817T13 773H-8Z"  />
<glyph unicode="&#x2013;" horiz-adv-x="500" d="M506 380V339H-6V380H506Z"  />
<glyph unicode="&#x2014;" horiz-adv-x="1000" d="M1006 380V339H-6V380H1006Z"  />
<glyph unicode="&#x2018;" horiz-adv-x="206" d="M104 635Q109 635 113 636T122 637Q142 637 158 622T174 586Q174 578 172 570T163 553T146 540T117 535Q82 535 63 557T43 609Q43 619 46 635T62 668T99 703T166 732V718Q144 709 131 699T110 679T99 660T96 645Q96 643 97 639T104 635Z"  />
<glyph unicode="&#x2019;" horiz-adv-x="206" d="M103 632Q98 632 94 631T85 630Q63 630 48 645T33 681Q33 688 35 697T44 714T61 727T90 732Q120 732 142 713T164 658Q164 648 161 632T145 599T108 564T41 535V549Q64 558 77 568T98 589T108 608T111 622Q111 624 110 628T103 632Z"  />
<glyph unicode="&#x201A;" horiz-adv-x="206" d="M103 -12Q98 -12 94 -13T85 -14Q68 -14 51 -2T33 37Q33 44 35 53T44 70T61 83T90 88Q125 88 144 66T164 14Q164 4 161 -12T145 -45T108 -80T41 -109V-95Q64 -86 77 -76T98 -55T108 -36T111 -22Q111 -20 110 -16T103 -12Z"  />
<glyph unicode="&#x201C;" horiz-adv-x="367" d="M104 635Q109 635 113 636T122 637Q143 637 158 624T174 586Q174 578 172 570T163 553T146 540T117 535Q82 535 63 557T43 609Q43 619 46 635T62 668T99 703T166 732V718Q143 709 130 699T109 678T99 659T96 645Q96 643 97 639T104 635ZM264 635Q269 635 273 636T282 637Q304 637 319 622T334 586Q334 578 332 570T323 553T306 540T277 535Q247 535 225 554T203 609Q203 619 206 635T222 668T259 703T326 732V718Q303 709 290 699T269 678T259 659T256 645Q256 643 257 639T264 635Z"  />
<glyph unicode="&#x201D;" horiz-adv-x="367" d="M263 632Q258 632 254 631T245 630Q224 630 209 643T193 681Q193 688 195 697T204 714T221 727T250 732Q285 732 304 710T324 658Q324 648 321 632T305 599T268 564T201 535V549Q224 558 237 568T258 589T268 608T271 622Q271 624 270 628T263 632ZM103 632Q98 632 94 631T85 630Q63 630 48 645T33 681Q33 688 35 697T44 714T61 727T90 732Q120 732 142 713T164 658Q164 648 161 632T145 599T108 564T41 535V549Q64 558 77 568T98 589T108 608T111 622Q111 624 110 628T103 632Z"  />
<glyph unicode="&#x201E;" horiz-adv-x="367" d="M263 -12Q258 -12 254 -13T245 -14Q228 -14 211 -2T193 37Q193 44 195 53T204 70T221 83T250 88Q285 88 304 66T324 14Q324 4 321 -12T305 -45T268 -80T201 -109V-95Q224 -86 237 -76T258 -55T268 -36T271 -22Q271 -20 270 -16T263 -12ZM103 -12Q98 -12 94 -13T85 -14Q68 -14 51 -2T33 37Q33 44 35 53T44 70T61 83T90 88Q125 88 144 66T164 14Q164 4 161 -12T145 -45T108 -80T41 -109V-95Q64 -86 77 -76T98 -55T108 -36T111 -22Q111 -20 110 -16T103 -12Z"  />
<glyph unicode="&#x2020;" horiz-adv-x="500" d="M234 456L46 430Q27 427 27 451V500Q27 521 41 519L234 491L206 714Q203 733 222 733H267Q286 733 290 730T294 715L267 491L455 518Q468 520 471 514T474 494V453Q474 428 460 430L267 456L299 -112Q300 -132 286 -132H219Q201 -132 202 -111L234 456Z"  />
<glyph unicode="&#x2021;" horiz-adv-x="521" d="M298 301L279 114L459 139Q484 143 484 119V76Q484 49 466 52L279 78L304 -107Q307 -130 285 -130H237Q215 -130 218 -106L243 78L57 52Q37 49 37 70V119Q37 142 60 139L243 114L224 301L243 488L60 463Q37 460 37 483V532Q37 553 57 550L243 524L218 708Q214 732 237 732H285Q307 732 304 709L279 524L466 550Q478 552 481 546T484 526V483Q484 459 459 463L279 488L298 301Z"  />
<glyph unicode="&#x2022;" horiz-adv-x="279" d="M139 472Q162 472 182 463T218 439T243 404T252 359Q252 336 243 316T219 280T184 256T139 247Q116 247 96 256T60 280T36 315T27 359Q27 383 36 403T60 439T96 463T139 472Z"  />
<glyph unicode="&#x2026;" horiz-adv-x="1000" d="M499 88Q523 88 539 74T555 36Q555 14 540 0T499 -14Q473 -14 459 0T445 37Q445 63 461 75T499 88ZM832 88Q856 88 872 74T888 36Q888 14 873 0T832 -14Q806 -14 792 0T778 37Q778 63 794 75T832 88ZM165 88Q189 88 205 74T222 36Q222 14 207 0T166 -14Q139 -14 126 0T112 37Q112 63 128 75T165 88Z"  />
<glyph unicode="&#x2030;" horiz-adv-x="1075" d="M394 188Q394 230 406 266T438 328T486 369T544 384Q571 384 597 371T645 333T680 272T693 188Q693 146 681 110T649 48T601 7T543 -8Q514 -8 487 6T440 46T407 108T394 188ZM464 188Q464 105 483 61T544 16Q587 16 605 60T623 189Q623 268 606 314T544 360Q500 360 482 316T464 188ZM22 536Q22 578 34 614T66 676T114 717T172 732Q199 732 225 719T273 681T308 620T321 536Q321 494 309 458T277 396T229 355T171 340Q142 340 115 354T68 394T35 456T22 536ZM92 536Q92 453 111 409T172 364Q215 364 233 408T251 537Q251 616 234 662T172 708Q128 708 110 664T92 536ZM101 -30L564 751H614L151 -30H101ZM754 188Q754 230 766 266T798 328T846 369T904 384Q931 384 957 371T1005 333T1040 272T1053 188Q1053 146 1041 110T1009 48T961 7T903 -8Q874 -8 847 6T800 46T767 108T754 188ZM824 188Q824 105 843 61T904 16Q947 16 965 60T983 189Q983 268 966 314T904 360Q860 360 842 316T824 188Z"  />
<glyph unicode="&#x2039;" horiz-adv-x="240" d="M207 566L102 359L207 153H179L26 359L179 566H207Z"  />
<glyph unicode="&#x203A;" horiz-adv-x="240" d="M33 153L138 360L33 566H61L214 361L61 153H33Z"  />
<glyph unicode="&#x20AC;" horiz-adv-x="545" d="M130 394V380Q130 365 130 351T132 323H458L448 297H134Q141 227 160 174T205 85T263 31T329 12Q368 12 397 28T448 69T481 119T500 166H517Q508 135 491 103T449 45T390 3T315 -14Q263 -14 218 9T139 73T83 171T55 297H0L10 323H53V350Q53 361 53 372T54 394H0L10 420H57Q65 490 89 547T148 646T226 709T315 732Q362 732 392 716T455 677Q468 669 467 669Q475 669 478 698H493L498 519H483Q469 603 427 655T317 707Q275 707 242 685T185 624T148 533T131 420H478L468 394H130Z"  />
<glyph unicode="&#x2122;" horiz-adv-x="898" d="M95 344Q111 344 122 345T140 353T149 375T152 419V691H109Q92 691 79 689T57 680T43 659T34 623H18V719H348V623H332Q330 642 326 655T314 676T293 687T257 691H215V419Q215 393 217 378T225 356T242 346T271 344V324H95V344ZM497 719L638 414L776 719H888V699Q870 698 859 696T842 689T835 672T833 639V410Q833 389 834 376T841 356T857 347T888 344V324H718V344Q737 344 748 346T766 355T773 375T775 410V651L628 324H617L464 645V408Q464 385 465 373T471 354T488 346T521 344V324H379V344Q400 344 411 346T427 356T433 376T434 410V632Q434 651 433 663T427 682T411 693T379 699V719H497Z"  />

</font>
</defs>
</svg>
