<svg xmlns="http://www.w3.org/2000/svg">
<defs>
<font horiz-adv-x="593" id="9c690aa0-a742-4e11-b571-8a68302a8f24">
<font-face font-family="" panose-1="2 11 6 3 2 2 2 9 2 4" ascent="817" descent="-272" units-per-em="1000" alphabetic="0">
</font-face>
<missing-glyph horiz-adv-x="0" />

<glyph unicode="&#xA;" />
<glyph unicode="&#xD;" horiz-adv-x="0" />
<glyph unicode=" " horiz-adv-x="278" />
<glyph unicode="!" horiz-adv-x="389" d="M275 165H204L303 721H415L275 165ZM170 100H276L255 0H149L170 100Z"  />
<glyph unicode="&quot;" horiz-adv-x="400" d="M306 692L240 446H186L223 692H306ZM471 692L404 446H350L388 692H471Z"  />
<glyph unicode="#" horiz-adv-x="556" d="M63 266H175L234 415H134L149 484H262L344 692H425L342 484H464L546 692H627L544 484H644L629 415H516L458 266H557L542 197H430L351 0H271L349 197H228L149 0H69L147 197H47L63 266ZM377 266L436 415H314L256 266H377Z"  />
<glyph unicode="$" horiz-adv-x="556" d="M469 775L452 694Q463 694 482 693T524 686T569 671T608 642T632 597T633 530H528Q532 554 526 569T507 594T474 608T433 613L389 404Q425 393 462 380T528 343T569 285T572 198Q564 161 548 133T513 85T476 52T447 33Q427 22 407 15T368 4T331 -2T300 -5L279 -104H228L249 -5Q232 -5 213 -4T174 3T133 19T95 51Q79 69 72 86T62 122T62 157T68 190H170Q166 173 167 155T178 120T210 92T267 80L317 314Q259 332 223 350T167 391T145 443T150 512Q156 543 169 567T199 610T234 641T267 662Q286 672 305 678T342 688T375 692T400 693L418 775H469ZM382 613Q341 609 316 597T276 569T257 540T250 519Q245 494 252 477T273 449T305 431T341 419L382 613ZM320 80Q353 80 378 90T421 115T451 149T466 186Q472 214 464 233T441 266T405 287T367 301L320 80Z"  />
<glyph unicode="%" horiz-adv-x="889" d="M373 711Q416 711 442 696T482 657T496 600T491 534Q481 487 461 453T413 397T354 364T288 353Q255 353 228 363T184 394T160 449T164 528Q173 567 190 600T234 658T296 697T373 711ZM302 411Q333 411 353 427T386 463T403 502T411 530Q415 548 416 569T413 609T394 639T353 651Q321 651 300 636T267 599T249 558T241 529Q239 520 237 501T237 461T255 426T302 411ZM749 346Q759 346 773 345T802 338T832 324T858 298Q863 290 868 280T876 255T879 220T872 171Q855 89 804 39T672 -12Q624 -12 596 4T555 45T541 103T546 166Q556 211 576 245T624 301T683 335T749 346ZM684 47Q714 47 734 61T767 94T786 134T796 169Q799 181 801 201T799 241T781 275T738 290Q706 290 685 274T651 235T632 190T623 156Q620 143 619 125T622 89T641 59T684 47ZM177 -39L781 731H847L243 -39H177Z"  />
<glyph unicode="&amp;" horiz-adv-x="778" d="M791 468Q780 415 767 374T736 298T695 232T639 167L776 0H636L561 89Q500 39 432 11T288 -17Q230 -17 188 -1T122 44T89 110T90 191Q99 233 119 266T167 327T226 377T290 421Q281 431 270 446T251 482T239 529T243 587Q258 658 317 702T471 746Q505 746 529 742T568 732T594 717T611 701Q628 682 633 657T633 602Q624 562 602 530T552 474T497 432T451 404L591 229Q610 252 624 275T651 325T674 387T694 468H791ZM401 469Q411 475 430 487T468 516T504 553T525 598Q527 609 525 621T516 643T494 659T457 666Q416 666 387 644T351 592Q344 561 359 531T401 469ZM341 358Q269 312 237 274T195 194Q187 156 197 132T228 93T273 73T321 67Q355 67 384 76T437 98T479 125T509 149L341 358Z"  />
<glyph unicode="&apos;" horiz-adv-x="278" d="M328 692L261 446H207L245 692H328Z"  />
<glyph unicode="(" horiz-adv-x="333" d="M166 -123Q156 -73 147 -18T132 94T128 209T141 322Q154 382 178 440T232 555Q267 623 296 671T345 752H411Q391 715 365 664T307 540Q276 471 260 421T233 324Q222 271 218 221T214 119T219 7T231 -123H166Z"  />
<glyph unicode=")" horiz-adv-x="333" d="M301 752Q311 702 320 647T334 535T338 421T325 308Q313 248 289 190T235 75Q200 7 171 -42T122 -123H56Q76 -85 102 -34T160 90Q190 159 207 209T234 306Q245 359 249 408T253 510T247 622T236 752H301Z"  />
<glyph unicode="*" horiz-adv-x="556" d="M584 488L416 507L488 369L415 329L382 487L276 331L216 368L352 507L183 493L198 566L363 544L290 684L364 720L398 565L500 721L559 684L425 544L600 563L584 488Z"  />
<glyph unicode="+" horiz-adv-x="584" d="M249 213H36L37 290H250V503H334V290H547L546 213H333L334 0H250L249 213Z"  />
<glyph unicode="&#x2c;" horiz-adv-x="278" d="M255 120L90 -126H22L139 120H255Z"  />
<glyph unicode="-" horiz-adv-x="333" d="M106 301H357L341 225H90L106 301Z"  />
<glyph unicode="." horiz-adv-x="278" d="M107 120H218L192 0H81L107 120Z"  />
<glyph unicode="/" horiz-adv-x="278" d="M377 713H442L54 -16H-12L377 713Z"  />
<glyph unicode="0" horiz-adv-x="556" d="M116 338Q121 364 131 401T157 479T196 560T252 633T328 686T426 706Q478 706 511 689T565 644T593 579T601 503T596 425T583 354Q557 231 517 157T420 39Q398 22 377 12T336 -4T300 -12T271 -14Q236 -14 210 -5T163 20T130 57T110 101Q105 118 102 140T98 190T102 255T116 338ZM213 343Q201 285 197 235T199 148T229 90T290 69Q333 69 365 94T421 160T459 249T484 345Q497 407 502 459T500 548T471 605T410 626Q365 626 332 599T276 531T238 440T213 343Z"  />
<glyph unicode="1" horiz-adv-x="556" d="M395 583Q376 569 353 555T305 528T257 504T213 483L234 583Q288 609 339 638T425 692H514L367 0H271L395 583Z"  />
<glyph unicode="2" horiz-adv-x="556" d="M72 91L291 269Q326 297 360 326T423 388Q462 429 478 456T501 511Q504 524 504 543T498 580T471 611T414 624Q372 624 346 609T305 573T284 533T275 503H170Q173 516 178 534T194 572T222 614T266 655Q309 686 351 695T427 705Q467 705 503 694T564 659T599 597T598 503Q595 486 590 471T573 436T540 391T483 330Q474 321 452 301T404 260T357 220T326 194L181 79H510L493 0H53L72 91Z"  />
<glyph unicode="3" horiz-adv-x="556" d="M182 178Q171 128 196 97T285 65Q321 65 349 75T398 103T431 143T449 188Q460 243 436 272T375 310Q349 315 328 315T280 315L297 396Q322 394 355 396T419 411T474 449T508 516Q520 574 491 599T409 625Q389 625 368 620T326 603T288 569T260 516H159Q175 580 210 618T285 675T364 699T423 705Q480 705 519 690T580 648T610 588T609 518Q604 497 593 472T561 424T509 383T436 355Q490 347 515 322T548 269T553 216T549 187Q541 151 519 115T460 49T374 1T265 -17Q210 -17 163 0T91 55Q80 71 76 88T71 122T72 152T76 178H182Z"  />
<glyph unicode="4" horiz-adv-x="556" d="M372 150H60L85 269L477 701H585L485 231H586L569 150H468L436 0H340L372 150ZM392 231L470 596L153 231H392Z"  />
<glyph unicode="5" horiz-adv-x="556" d="M195 164Q190 138 197 120T218 89T250 72T289 66Q334 66 365 84T416 128T446 181T460 225Q475 296 448 335T360 374Q330 374 305 364T260 338Q240 322 231 307T216 280H125L230 692H619L602 611H299L238 387Q248 395 262 406T297 427T342 444T398 451Q450 451 485 432T539 382T562 309T556 223Q545 172 519 129T453 53T365 2T259 -16Q217 -16 183 -5T126 29T93 86T91 164H195Z"  />
<glyph unicode="6" horiz-adv-x="556" d="M519 528Q525 558 519 578T500 610T470 626T436 631Q361 631 312 566T226 361Q237 373 252 388T288 416T338 439T405 449Q447 449 482 435T540 393T571 324T567 227Q554 167 525 122T456 46T372 0T282 -15Q231 -15 189 4T127 60Q113 85 107 116T101 180T106 247T118 315Q126 353 139 396T171 483T217 567T279 638T358 687T457 706Q491 706 516 700T560 683T590 662T609 640Q628 609 627 579T622 528H519ZM302 61Q325 61 350 69T399 97T441 146T469 218Q473 236 474 262T468 313T438 355T373 372Q338 372 310 359T259 324T223 275T202 217Q195 183 199 155T216 105T251 73T302 61Z"  />
<glyph unicode="7" horiz-adv-x="556" d="M182 692H639L621 608L238 0H125L520 609H164L182 692Z"  />
<glyph unicode="8" horiz-adv-x="556" d="M268 365Q202 380 176 423T161 519Q166 542 182 574T229 636T309 687T425 708Q480 708 520 694T584 655T616 597T616 523Q611 497 597 472T562 426T510 389T442 366Q456 362 479 353T523 325T555 273T556 191Q548 155 527 119T472 54T388 7T274 -12Q252 -12 229 -10T184 -1T143 17T108 46Q85 72 77 108T76 185Q84 220 104 253T156 312Q186 337 214 347T268 365ZM520 521Q530 568 503 601T414 634Q358 634 314 604T259 521Q248 471 278 440T363 409Q391 409 417 417T464 439T499 474T520 521ZM179 194Q175 174 177 152T192 110T228 79T291 67Q333 67 362 80T411 112T442 154T457 197Q469 255 439 289T348 324Q316 324 288 314T238 287T200 245T179 194Z"  />
<glyph unicode="9" horiz-adv-x="556" d="M186 165Q176 120 196 92T275 63Q332 63 369 92T429 166T465 259T484 350Q446 299 399 281T311 263Q270 263 235 277T176 318T144 387T146 482Q159 542 187 584T253 653T332 692T416 705Q444 705 475 698T533 673T579 621T603 535Q604 519 604 502T602 462T595 412T583 349Q578 323 569 287T544 209T504 128T445 56T362 4T251 -16Q216 -16 181 -8T121 20T83 76T81 165H186ZM501 480Q509 517 504 545T484 592T447 620T400 630Q370 630 344 618T298 586T265 539T244 481Q230 413 259 376T345 339Q404 339 445 378T501 480Z"  />
<glyph unicode=":" horiz-adv-x="278" d="M191 507H302L277 389H166L191 507ZM108 118H219L194 0H83L108 118Z"  />
<glyph unicode=";" horiz-adv-x="278" d="M203 507H319L293 387H177L203 507ZM255 120L90 -126H22L139 120H255Z"  />
<glyph unicode="&lt;" horiz-adv-x="584" d="M36 292L547 492L546 406L140 251L547 97L546 10L37 210L36 292Z"  />
<glyph unicode="=" horiz-adv-x="584" d="M36 391H546L547 314H37L36 391ZM36 189H546L547 111H37L36 189Z"  />
<glyph unicode="&gt;" horiz-adv-x="584" d="M36 10L37 97L442 251L36 406L37 492L546 292L547 210L36 10Z"  />
<glyph unicode="?" horiz-adv-x="500" d="M226 715Q246 721 282 728T372 736Q435 736 479 721T546 674Q563 651 568 621T567 558Q561 528 549 505T517 460T469 414T403 358Q401 356 390 347T367 328T345 310T335 301Q328 293 325 287T320 270L298 164H214L236 270Q239 285 242 295T252 315T272 337T310 371Q345 401 371 424T416 468T445 508T461 549Q469 587 456 608T422 639T380 651T348 653Q337 653 300 650T207 625L226 715ZM193 102H297L275 0H171L193 102Z"  />
<glyph unicode="@" horiz-adv-x="1015" d="M839 549L734 343Q725 324 715 304T702 267Q699 253 702 245T712 233T725 227T737 226Q761 226 789 242T843 287T890 356T923 445Q936 509 923 556T876 635T794 681T689 697Q618 697 549 674T422 607T322 497T261 349Q245 275 258 216T308 114T402 50T534 27Q623 27 693 54T829 122L847 89Q770 41 693 12T521 -17Q437 -17 372 9T267 84T212 201T216 352Q236 447 286 520T402 642T546 716T699 741Q763 741 819 723T914 667T969 573T969 440Q956 379 927 331T861 248T784 195T708 176Q693 176 680 180T657 193T643 215T643 246Q645 255 648 262T653 274Q647 265 634 249T600 216T553 188T492 176Q433 176 405 216T391 327Q399 367 422 409T478 486T553 542T639 564Q662 564 685 557T722 531Q732 519 734 507T738 485L770 549H839ZM700 436Q705 459 701 474T687 499T666 511T644 515Q614 515 586 496T534 447T493 384T470 322Q462 282 473 254T523 226Q559 226 589 253T643 315T682 385T700 436Z"  />
<glyph unicode="A" horiz-adv-x="722" d="M466 722H573L712 0H603L565 188H230L112 0H9L466 722ZM279 269H552L494 623L279 269Z"  />
<glyph unicode="B" horiz-adv-x="667" d="M248 722H506Q572 722 611 712T677 669Q696 646 703 615T701 540Q691 495 671 466T627 419T581 392T544 377Q559 372 581 363T623 335T651 282T650 197Q642 160 626 132T592 84T556 52T528 33Q485 8 443 4T358 0H95L248 722ZM281 417H421Q434 417 459 419T512 431T562 465T595 531Q604 572 594 594T563 626T518 638T472 640H328L281 417ZM209 81H380Q440 81 487 112T549 206Q560 260 532 295T437 331H262L209 81Z"  />
<glyph unicode="C" horiz-adv-x="667" d="M635 527Q635 536 635 557T623 599T585 636T506 652Q441 652 395 623T316 548T266 451T237 354Q226 303 224 253T236 162T284 96T381 71Q414 71 446 80T507 114Q531 135 542 156T558 190H668Q651 137 618 99T542 37T451 1T356 -11Q293 -11 249 6T178 52T137 118T119 196T118 277T130 353Q138 391 152 434T190 519T244 599T317 667T410 714T527 732Q565 732 606 723T681 691T732 628T742 527H635Z"  />
<glyph unicode="D" horiz-adv-x="722" d="M241 722H450Q486 722 524 721T599 710T666 682T721 628Q758 571 763 501T752 355Q740 296 719 249T673 165T621 102T570 59Q538 37 506 25T439 8T368 1T291 0H88L241 722ZM205 82H303Q355 82 407 88T501 122Q541 148 567 181T610 246T634 307T645 351Q647 361 651 387T655 445T648 513T622 576Q596 614 553 626T444 639H324L205 82Z"  />
<glyph unicode="E" horiz-adv-x="611" d="M229 722H682L664 637H311L264 412H600L582 328H246L195 88H556L537 0H76L229 722Z"  />
<glyph unicode="F" horiz-adv-x="556" d="M248 722H678L660 637H332L285 412H594L576 328H267L197 0H95L248 722Z"  />
<glyph unicode="G" horiz-adv-x="778" d="M692 542Q694 593 661 624T553 655Q502 655 457 641T377 594Q348 568 327 538T290 478T266 417T251 362Q246 339 243 310T240 249T247 189T269 135Q282 115 301 101T343 79T393 68T446 64Q508 64 548 73T607 87L653 301H488L506 384H771L695 28Q678 23 652 16T591 1T516 -11T429 -16Q379 -16 341 -10T273 9T222 37T186 74Q144 128 136 200T143 349Q149 376 163 418T203 508T269 602T369 683Q399 701 431 711T492 726T544 733T581 734Q602 734 628 732T680 722T732 699T778 657Q790 640 796 624T803 593T804 565T801 542H692Z"  />
<glyph unicode="H" horiz-adv-x="722" d="M341 722L276 412H619L684 722H784L631 0H531L600 326H257L188 0H88L241 722H341Z"  />
<glyph unicode="I" horiz-adv-x="278" d="M241 722H341L188 0H88L241 722Z"  />
<glyph unicode="J" horiz-adv-x="556" d="M169 196Q165 177 163 156T168 117Q174 103 194 88T252 73Q283 73 312 85T362 124Q380 146 388 175T400 221L506 722H606L494 194Q483 144 457 106T395 42T315 3T227 -11Q213 -11 192 -9T149 2T105 24T71 64Q62 81 59 100T55 136T57 169T63 196H169Z"  />
<glyph unicode="K" horiz-adv-x="667" d="M246 722H345L278 406L646 722H783L392 399L665 0H525L273 383L192 0H93L246 722Z"  />
<glyph unicode="L" horiz-adv-x="556" d="M246 722H345L211 89H547L528 0H93L246 722Z"  />
<glyph unicode="M" horiz-adv-x="944" d="M243 722H420L498 127L833 722H998L845 0H747L885 650L510 0H415L324 646L187 0H90L243 722Z"  />
<glyph unicode="N" horiz-adv-x="778" d="M248 722H387L616 125L742 722H834L681 0H553L316 613L186 0H95L248 722Z"  />
<glyph unicode="O" horiz-adv-x="778" d="M135 356Q141 387 152 424T182 499T226 574T289 644Q323 674 359 693T429 722T495 737T551 741Q626 741 681 717T768 646T808 530T797 368Q782 296 751 227T670 104T549 16T381 -17Q289 -17 233 13T150 95T121 214T135 356ZM241 362Q228 302 228 242T256 134Q279 96 319 82T402 68Q447 68 492 82T576 134Q604 161 624 194T657 260T679 322T691 369Q704 430 704 483T688 574T633 635T534 657Q465 657 415 632T331 565T275 471T241 362Z"  />
<glyph unicode="P" horiz-adv-x="611" d="M241 722H483Q516 722 543 721T594 713T635 696T668 664Q689 636 694 601T691 524Q674 440 604 383Q587 369 567 358T520 338T458 326T373 321H256L188 0H88L241 722ZM274 405H393Q418 405 447 407T505 422T555 459T586 528Q595 570 585 593T554 626T508 639T464 641H324L274 405Z"  />
<glyph unicode="Q" horiz-adv-x="778" d="M754 0H634Q629 0 614 0T580 -1T539 -3T499 -5Q480 -7 461 -8T423 -11T390 -14T366 -15Q301 -15 249 7T165 74T123 190T134 356Q141 388 152 425T181 499T224 573T284 641Q341 692 409 715T547 739Q637 739 690 707T768 622T795 505T783 375Q777 349 766 311T733 231T675 145T586 65Q605 69 636 74T718 79H771L754 0ZM239 354Q230 309 229 258T242 164T292 92T392 63Q444 63 484 79T554 122T605 182T641 248T664 310T677 358Q707 498 667 577T520 656Q470 656 431 639T362 595T311 535T275 468T252 404T239 354Z"  />
<glyph unicode="R" horiz-adv-x="667" d="M239 722H497Q511 722 531 722T573 718T617 708T656 688Q691 662 702 624T705 541Q697 503 677 470T627 413Q598 390 574 381T532 366Q556 359 573 349T599 324T612 285T612 227Q609 195 607 167T604 112T604 58T609 0H502Q500 18 500 42T501 93T505 144T510 191Q514 230 511 256T494 297T453 319T380 326H254L185 0H86L239 722ZM270 411H428Q432 411 443 411T470 412T500 417T527 427Q533 430 542 436T562 454T582 482T596 521Q605 565 594 588T561 623T516 636T477 638H319L270 411Z"  />
<glyph unicode="S" horiz-adv-x="667" d="M205 211Q202 192 201 168T211 121T254 84T348 68Q404 68 441 83T500 119T532 161T545 197Q551 227 544 246T517 279T470 301T405 319Q366 329 337 337T287 352T250 366T222 383Q184 413 177 451T178 525Q190 580 222 620T298 685T394 723T497 736Q515 736 540 734T592 725T643 703T685 665Q697 648 702 631T707 598T707 568T703 542H599Q604 576 595 597T567 631T523 647T471 652Q396 652 347 621T286 535Q281 511 285 494T302 465T338 445T393 428Q454 411 490 401T549 384T583 369T610 352Q631 335 641 315T654 275T656 237T651 208Q641 160 614 119T544 48T444 0T318 -17Q297 -17 268 -15T210 -4T154 21T112 65Q101 85 97 105T92 145T95 181T101 211H205Z"  />
<glyph unicode="T" horiz-adv-x="611" d="M263 0L398 637H156L174 722H757L739 637H497L362 0H263Z"  />
<glyph unicode="U" horiz-adv-x="778" d="M346 722L251 275Q245 246 244 225T243 189T248 164T256 145Q268 122 286 109T324 87T366 77T406 74Q479 74 524 98T594 157T629 225T644 279L738 722H835L741 277Q738 262 733 241T716 194T686 140T641 85Q607 52 571 32T500 2T436 -12T387 -15Q361 -15 329 -11T264 6T203 41T156 100Q150 112 146 126T141 162T141 212T153 282L246 722H346Z"  />
<glyph unicode="V" horiz-adv-x="667" d="M381 0H271L167 722H278L352 105L699 722H800L381 0Z"  />
<glyph unicode="W" horiz-adv-x="1000" d="M268 722L298 128L596 722H720L756 123L1047 722H1145L778 0H667L631 617L321 0H213L161 722H268Z"  />
<glyph unicode="X" horiz-adv-x="722" d="M330 722L466 444L720 722H841L511 376L701 0H575L426 310L140 0H19L379 378L202 722H330Z"  />
<glyph unicode="Y" horiz-adv-x="667" d="M349 284L160 722H284L422 368L713 722H825L449 279L390 0H289L349 284Z"  />
<glyph unicode="Z" horiz-adv-x="611" d="M56 100L587 634H181L199 722H724L703 623L169 88H597L578 0H35L56 100Z"  />
<glyph unicode="[" horiz-adv-x="333" d="M261 750H434L423 697H329L166 -72H260L248 -125H75L261 750Z"  />
<glyph unicode="\" horiz-adv-x="278" d="M222 -16L143 713H209L287 -16H222Z"  />
<glyph unicode="]" horiz-adv-x="333" d="M45 -72H140L303 697H208L219 750H393L207 -125H33L45 -72Z"  />
<glyph unicode="^" horiz-adv-x="584" d="M253 692H329L502 271H416L289 589L168 271H82L253 692Z"  />
<glyph unicode="_" horiz-adv-x="500" d="M-16 -75H484L473 -125H-27L-16 -75Z"  />
<glyph unicode="`" horiz-adv-x="278" d="M272 740L326 596H264L159 740H272Z"  />
<glyph unicode="a" horiz-adv-x="556" d="M394 0Q392 19 394 37T401 75Q377 44 353 26T306 -1T263 -13T227 -16Q184 -16 153 -5T104 27T80 74T81 132Q84 147 91 166T112 204T147 243T200 279Q223 290 248 296T298 306T344 311T381 312Q399 312 413 312T449 309Q454 332 457 349T462 379T461 402T454 420Q449 429 440 435T419 446T396 451T374 453Q338 453 316 443T281 418T263 390T255 368H161Q168 388 178 412T216 463Q234 479 255 489T300 506T347 514T390 517Q417 517 443 513T492 499T530 476T552 443Q560 420 559 402T553 366L498 126Q497 123 495 110T489 79T483 40T479 0H394ZM435 244Q422 246 411 246T382 247Q368 247 338 246T275 235T215 204T179 145Q176 133 177 118T187 90T214 67T264 58Q335 58 383 112Q393 125 400 137T413 164T424 198T435 244Z"  />
<glyph unicode="b" horiz-adv-x="611" d="M273 429Q280 438 293 452T328 481T381 505T455 515Q474 515 494 513T533 503T570 483T601 451Q608 440 615 425T626 387T630 334T620 262Q604 189 581 147T533 79Q494 36 443 15T339 -7Q321 -7 291 -2T233 25Q215 39 208 52T195 76L177 0H86L107 90L241 722H335L273 429ZM519 256Q522 268 524 287T527 328T523 372T506 411T474 440T420 451Q384 451 357 439T309 407T275 363T253 317T240 277T233 251Q231 243 228 226T225 187T228 144T243 103T276 73T333 61Q376 61 408 80T463 128T499 191T519 256Z"  />
<glyph unicode="c" horiz-adv-x="500" d="M446 341Q447 350 448 367T443 402T420 433T369 446Q320 446 289 422T238 366T211 303T199 257Q191 218 189 183T194 119T222 75T281 58Q311 58 333 68T372 94T398 129T413 167H508Q498 130 477 98T424 41T353 2T267 -13Q254 -13 235 -11T194 -3T152 17T116 52Q107 65 100 82T90 122T87 175T97 244Q113 322 146 374T218 458T301 502T382 515Q394 515 413 513T452 505T491 486T523 453Q544 421 544 392T541 341H446Z"  />
<glyph unicode="d" horiz-adv-x="611" d="M589 721H683L547 80L534 0H440L455 80Q447 69 435 55T399 27Q364 6 329 -2T267 -10Q250 -10 229 -7T185 7T144 35T112 81T96 149T105 245Q120 317 150 368T218 453T301 503T390 519Q430 519 456 509T497 484T518 456T528 434L589 721ZM494 258Q505 313 501 345T486 398Q475 418 451 433T386 449Q351 449 325 437T280 405T247 362T226 316T213 275T206 248Q199 215 197 181T204 119T236 74T303 56Q358 56 394 82T451 142T481 210T494 258Z"  />
<glyph unicode="e" horiz-adv-x="556" d="M195 234Q186 195 187 162T200 105T236 67T300 53Q346 53 384 78T440 157H534Q528 138 515 110T469 52Q459 43 443 31T403 9T350 -8T282 -15Q223 -15 183 3T121 54T95 134T103 242Q111 279 122 313T151 376T194 431T253 478Q295 504 335 509T397 515Q453 515 488 500T542 461T568 406T573 344T567 283T556 234H195ZM474 300Q478 318 480 343T476 392T446 431T381 448Q358 448 333 441T284 416T241 370T213 300H474Z"  />
<glyph unicode="f" horiz-adv-x="333" d="M478 652Q466 653 452 653T423 654Q394 654 378 648T352 631T338 607T331 581L315 502H432L417 434H300L208 0H115L207 434H108L123 502H222L234 559Q239 585 244 603T254 635T265 659T280 679Q301 703 335 718T418 734Q438 734 458 732T494 727L478 652Z"  />
<glyph unicode="g" horiz-adv-x="611" d="M170 -39Q167 -60 169 -78T181 -109T212 -129T266 -137Q315 -137 345 -120T395 -73T425 0T448 94Q426 63 399 46T346 21T298 11T265 9Q248 9 228 11T189 20T153 39T124 71Q100 109 98 157T106 256Q120 320 147 367T212 446T293 493T383 509Q421 509 446 501T486 481T511 456T525 433L541 502H632L610 411L543 97Q533 52 525 19T509 -38T493 -79T474 -111Q452 -141 423 -159T364 -186T303 -198T246 -201Q196 -201 163 -194T109 -174T79 -146T66 -111T65 -75T70 -39H170ZM304 79Q346 79 374 92T424 129Q434 139 442 150T459 177T474 216T489 273Q499 321 495 349T477 398Q462 418 436 430T378 442Q333 442 302 422T251 374T220 314T204 258Q198 229 197 198T204 140T237 96T304 79Z"  />
<glyph unicode="h" horiz-adv-x="611" d="M241 721H336L274 428Q306 468 354 489T455 511Q475 511 497 507T539 494T574 470T596 431Q598 423 599 415T600 393T597 360T588 314L521 0H425L488 297Q492 314 495 338T494 384T469 423T410 439Q384 439 363 432T325 415T297 393T278 372Q261 351 253 320T240 266L183 0H88L241 721Z"  />
<glyph unicode="i" horiz-adv-x="278" d="M232 720H345L323 617H210L232 720ZM196 502H290L183 0H89L196 502Z"  />
<glyph unicode="j" horiz-adv-x="278" d="M235 720H349L327 616H213L235 720ZM-28 -126Q0 -127 18 -125T49 -112T69 -84T83 -36L198 502H292L175 -47Q171 -65 164 -90T139 -140T92 -180T15 -197Q6 -197 -8 -196T-42 -193L-28 -126Z"  />
<glyph unicode="k" horiz-adv-x="500" d="M236 727H329L237 297L469 502H592L334 289L498 0H375L232 271L174 0H81L236 727Z"  />
<glyph unicode="l" horiz-adv-x="278" d="M243 721H337L184 0H90L243 721Z"  />
<glyph unicode="m" horiz-adv-x="944" d="M179 435L192 502H287L271 429Q295 459 320 476T368 501T411 512T448 515Q490 515 516 506T558 482T581 452T592 421Q601 431 616 447T653 478T707 504T781 515Q808 515 838 508T893 482T928 427T928 337L856 0H761L829 322Q837 355 836 371T829 398Q820 415 799 428T742 442Q719 442 700 436T667 422T641 405T624 389Q613 377 605 362T592 332T584 303T579 281L519 0H424L495 332Q505 379 485 410T408 442Q384 442 364 436T329 420T302 402T286 387Q266 365 257 337T243 285L182 0H87L179 435Z"  />
<glyph unicode="n" horiz-adv-x="611" d="M185 444L197 502H291L274 421Q280 429 293 444T327 474T380 500T455 512Q472 512 501 507T557 485T597 433T600 341L528 0H432L500 319Q505 344 505 366T491 405Q477 422 455 430T409 439Q383 439 358 430T310 402T271 355T246 289L185 0H91L185 444Z"  />
<glyph unicode="o" horiz-adv-x="611" d="M103 245Q113 291 135 339T194 426T286 490T415 515Q465 515 500 503T559 471T594 423T610 367T613 308T606 252Q594 197 568 148T503 63T411 5T294 -17Q232 -17 190 3T125 59T96 142T103 245ZM202 251Q194 212 195 177T208 114T246 70T311 53Q338 53 367 63T423 97T472 159T506 255Q526 349 497 397T401 446Q378 446 349 438T292 408T239 348T202 251Z"  />
<glyph unicode="p" horiz-adv-x="611" d="M174 420Q176 428 177 435T179 451T183 472T189 502H284L268 419Q292 449 319 466T371 494T420 507T458 510Q498 510 533 496T591 450T621 369T614 250Q599 180 570 129T501 45T418 -3T328 -19Q273 -19 239 2T190 56L137 -193H44L174 420ZM225 236Q220 213 217 181T222 120T253 71T327 50Q336 50 349 51T378 58T411 72T443 99Q460 117 473 139T495 182T509 223T517 256Q524 290 525 323T517 382T484 424T419 440Q363 440 327 415T270 355T239 287T225 236Z"  />
<glyph unicode="q" horiz-adv-x="611" d="M636 502Q634 494 631 483T625 460T620 438T616 420L486 -193H391L444 56Q436 47 425 36T394 13Q358 -9 325 -14T274 -19Q228 -19 190 -3T128 47T96 132T103 253Q118 322 146 371T210 451T287 496T368 510Q406 510 432 501T476 478T504 448T520 419L541 502H636ZM486 241Q488 251 491 270T495 311T492 356T475 397T439 428T378 440Q327 440 295 417T243 364T214 304T202 259Q199 245 196 226T193 185T196 141T209 99Q220 75 246 63T307 50Q350 50 380 66T432 108T465 168T486 241Z"  />
<glyph unicode="r" horiz-adv-x="389" d="M178 400Q183 426 187 451T195 502H290L271 405Q283 431 300 449T337 478T376 496T412 504Q434 507 450 507T478 506L458 414Q452 416 441 418Q436 419 429 419T414 419Q372 419 343 408T295 376T264 327T245 267L188 0H93L178 400Z"  />
<glyph unicode="s" horiz-adv-x="500" d="M174 149Q171 135 171 119T181 90T210 67T264 58Q293 58 316 64T359 90Q380 111 385 137Q389 155 385 167T369 186T338 200T291 212Q253 221 221 231T165 257T132 298T130 362Q137 396 157 424T208 472T276 503T358 514Q382 514 408 510T457 497T498 473T523 436Q528 415 526 397T520 363H424Q431 391 425 407T405 432T375 443T345 445Q340 445 323 444T287 436T250 415T227 373Q224 356 229 345T243 326T264 316T285 309Q334 297 366 289T417 273T448 258T469 240Q486 220 489 196T487 147Q478 105 451 71T392 20Q355 0 315 -7T236 -14Q198 -14 164 -6T107 22T75 72T75 149H174Z"  />
<glyph unicode="t" horiz-adv-x="333" d="M118 504H207L229 609L329 639L300 504H412L397 435H285L221 134Q219 125 218 113T220 91T237 74T274 67Q288 67 301 68T320 72L305 -1Q291 -3 272 -5T226 -7Q194 -7 171 -2T135 15T119 48T121 100L192 435H103L118 504Z"  />
<glyph unicode="u" horiz-adv-x="611" d="M281 502L212 179Q208 161 207 141T213 105T240 79T295 68Q330 68 364 81T425 124Q446 147 454 173T466 218L527 502H624L537 94L520 0H422L438 86Q429 73 415 57T380 28T329 5T259 -5Q212 -5 181 7T132 42T110 96T113 165L185 502H281Z"  />
<glyph unicode="v" horiz-adv-x="556" d="M119 502H224L299 104L540 502H644L317 0H222L119 502Z"  />
<glyph unicode="w" horiz-adv-x="833" d="M222 502L258 102L470 502H593L623 106L833 502H930L646 0H538L508 413L289 0H178L119 502H222Z"  />
<glyph unicode="x" horiz-adv-x="556" d="M531 0H407L307 201L122 0H12L267 263L130 502H253L347 313L527 502H638L390 257L531 0Z"  />
<glyph unicode="y" horiz-adv-x="556" d="M313 -3L202 -190H105L221 2L119 502H225L298 106L542 502H644L313 -3Z"  />
<glyph unicode="z" horiz-adv-x="444" d="M51 97L390 431H136L151 502H512L495 422L144 73H421L405 0H30L51 97Z"  />
<glyph unicode="{" horiz-adv-x="334" d="M71 338Q76 338 87 339T111 345T140 355T170 370Q204 392 215 421T235 487L240 514Q249 554 260 594T298 668T371 723T494 750L484 699Q437 695 408 679T363 638T339 586T325 532L320 506Q314 478 305 447T278 388T229 340T146 313Q194 307 216 287T246 240T248 181T237 119L231 88Q225 63 222 36T224 -14T252 -54T319 -74L308 -125Q236 -121 200 -101T150 -50T140 20T153 104L160 138Q165 162 168 186T164 230T132 266T60 287L71 338Z"  />
<glyph unicode="|" horiz-adv-x="421" d="M321 817V-272H247V817H321Z"  />
<glyph unicode="}" horiz-adv-x="334" d="M396 287Q391 287 380 286T356 280T327 270T297 255Q280 244 269 232T252 204T241 173T232 138L227 111Q218 71 207 31T169 -43T96 -98T-28 -125L-17 -74Q30 -70 58 -54T103 -13T128 39T142 93L147 119Q153 147 162 178T189 237T239 285T322 313Q274 319 251 339T221 386T219 444T230 506L236 537Q241 562 245 589T242 639T214 679T148 699L158 750Q230 745 266 725T316 675T327 604T314 521L307 487Q302 463 299 439T303 395T335 359T407 338L396 287Z"  />
<glyph unicode="~" horiz-adv-x="584" d="M64 174Q75 206 88 231T127 281Q153 306 178 315T228 325Q241 325 251 324T275 319T309 308T365 289Q396 278 415 271T446 261T467 256T484 255Q507 255 531 270T573 328H627Q611 279 589 250T544 204T499 183T462 178Q447 178 428 182T387 192T346 206T310 219Q282 229 266 235T239 244T222 248T208 249Q188 249 162 233T119 174H64Z"  />
<glyph unicode="&#xA0;" horiz-adv-x="278" />
<glyph unicode="&#xA4;" horiz-adv-x="556" d="M152 222Q149 229 145 240T137 266T134 302T139 346Q153 414 205 471L154 536L213 585L265 520Q284 531 316 545T398 559Q443 559 470 545T513 519L591 584L630 535L551 470Q565 443 568 412T565 346Q560 322 551 302T532 267T513 240T498 223L549 157L490 108L439 173Q407 154 374 144T307 133Q238 133 192 173L112 108L73 157L152 222ZM381 485Q352 485 325 474T275 445T236 401T213 346Q207 317 212 292T232 248T270 218T322 207Q351 207 378 218T429 247T468 291T491 346Q497 375 491 400T470 444T432 474T381 485Z"  />
<glyph unicode="&#xA6;" horiz-adv-x="421" d="M321 735V354H247V735H321ZM321 190V-190H247V190H321Z"  />
<glyph unicode="&#xA7;" horiz-adv-x="556" d="M129 86Q141 79 172 67T255 54Q290 54 312 64T347 87T365 112T372 130Q375 147 371 159T357 179T334 193T308 204L245 225Q233 229 217 236T188 255T168 288T167 341Q174 374 192 397T231 435T272 458T304 471Q286 477 271 486T246 510T233 543T235 586Q249 654 306 689T444 725Q465 725 495 722T559 708L543 630Q518 641 494 649T438 658Q427 658 411 656T379 647T350 627T333 592Q329 575 332 565T342 547T359 536T381 527L440 506Q452 502 467 495T496 475T516 440T516 387Q505 335 472 304T387 259Q399 255 416 248T448 226T470 189T471 131Q464 99 445 71T395 23T323 -9T232 -21Q199 -21 170 -16T111 0L129 86ZM326 282Q336 285 352 291T383 308T412 333T430 370Q434 389 429 401T413 422T388 437T358 448Q345 443 330 437T300 420T275 396T259 360Q254 340 260 327T278 304T302 290T326 282Z"  />
<glyph unicode="&#xA9;" horiz-adv-x="822" d="M506 462Q505 468 502 480T490 505T462 527T413 537Q374 537 351 520T314 476T297 418T292 360Q292 330 297 300T315 246T352 207T413 192Q433 192 450 197T482 217Q494 230 498 242T503 262H569Q566 230 551 208T513 171T463 150T408 143Q351 143 316 165T262 220T235 290T228 359Q228 393 236 432T265 506T322 562T416 585Q438 585 464 580T512 560T551 523T570 462H506ZM410 741Q488 741 557 712T677 631T758 511T788 363Q788 283 758 214T677 94T556 13T410 -17Q333 -17 265 12T145 93T63 214T32 363Q32 442 62 511T145 631T265 711T410 741ZM410 696Q342 696 282 670T176 598T104 493T77 363Q77 292 103 231T175 125T281 53T410 27Q479 27 539 53T645 125T717 232T743 363Q743 430 718 490T647 596T541 669T410 696Z"  />
<glyph unicode="&#xAB;" horiz-adv-x="556" d="M205 53L136 249L288 443H367L229 249L285 53H205ZM401 53L332 249L484 443H563L425 249L481 53H401Z"  />
<glyph unicode="&#xAC;" horiz-adv-x="584" d="M36 391H546L547 111H467V314H37L36 391Z"  />
<glyph unicode="&#xAD;" horiz-adv-x="333" d="M106 301H357L341 225H90L106 301Z"  />
<glyph unicode="&#xAE;" horiz-adv-x="411" d="M135 655H207Q213 655 224 654T247 649T267 634T276 604Q276 602 276 596T272 582T260 567T238 555Q254 551 260 543T269 516Q271 497 273 482T281 452H252Q249 462 247 471T242 505Q240 528 232 536T198 544H163V452H135V655ZM163 568H207Q212 568 219 568T232 572T242 581T247 599Q247 611 243 617T233 627T220 630T207 631H163V568ZM204 741Q243 741 277 726T337 686T378 626T393 552Q393 512 378 478T337 418T277 377T204 362Q166 362 132 377T71 417T30 477T15 552Q15 592 30 626T72 686T132 726T204 741ZM204 719Q170 719 140 706T87 670T51 617T38 552Q38 517 51 486T86 433T139 397T204 384Q238 384 268 397T322 433T358 486T371 552Q371 586 358 616T323 669T270 705T204 719Z"  />
<glyph unicode="&#xB0;" horiz-adv-x="400" d="M350 706Q382 706 408 694T450 661T473 612T473 550Q466 518 448 490T405 440T348 407T284 394Q252 394 226 406T184 440T161 489T161 550Q168 583 186 611T230 661T287 694T350 706ZM335 637Q317 637 300 631T269 612T244 584T230 550Q226 532 229 516T242 489T265 470T298 463Q316 463 333 470T365 489T390 516T404 550Q411 586 391 611T335 637Z"  />
<glyph unicode="&#xB1;" horiz-adv-x="584" d="M249 270H36L37 347H250L249 515H333L334 347H547L546 270H333V104H249V270ZM37 64H547L546 -13H36L37 64Z"  />
<glyph unicode="&#xB5;" horiz-adv-x="611" d="M196 502H276L224 260Q221 243 217 224T211 185T210 147T216 114Q223 96 234 85T257 68T282 60T305 58Q332 58 365 71T428 121Q448 147 460 182T483 262L534 502H615L508 0H434L449 70Q440 60 426 46T393 20T348 -2T289 -11Q260 -11 242 -5T211 12T191 33T180 52L125 -209H45L196 502Z"  />
<glyph unicode="&#xB6;" horiz-adv-x="537" d="M612 658L436 -168H358L534 658H417L241 -168H162L254 264Q197 268 163 290T111 343T92 412T98 486Q106 522 126 563T183 640T275 699T407 722H679L666 658H612Z"  />
<glyph unicode="&#xB7;" horiz-adv-x="278" d="M156 352H267L241 231H130L156 352Z"  />
<glyph unicode="&#xBB;" horiz-adv-x="556" d="M255 443L325 248L172 53H93L232 248L175 443H255ZM450 443L521 248L367 53H289L428 248L371 443H450Z"  />
<glyph unicode="&#x401;" horiz-adv-x="611" d="M244 722H697L679 637H326L279 412H615L597 328H261L210 88H571L552 0H91L244 722ZM344 840L365 942H456L435 840H344ZM532 840L553 942H644L623 840H532Z"  />
<glyph unicode="&#x402;" horiz-adv-x="795" d="M471 37Q519 40 562 58T636 108T686 182T705 273Q705 383 563 383Q531 383 497 378T433 363L356 0H256L391 637H149L167 722H751L733 637H491L451 449Q523 469 589 469Q635 469 675 459T746 427T793 370T810 284Q810 207 781 145T703 39T588 -29T452 -54L471 37Z"  />
<glyph unicode="&#x403;" horiz-adv-x="540" d="M79 0L232 722H660L642 637H314L179 0H79ZM648 942L497 798H432L544 942H648Z"  />
<glyph unicode="&#x404;" horiz-adv-x="667" d="M634 527Q635 534 635 539T635 550Q635 577 624 596T595 628T554 646T505 652Q416 652 351 591T251 412H551L533 328H231Q227 305 225 284T223 243Q223 158 260 115T376 71Q439 71 486 101T557 190H667Q652 140 622 102T551 39T464 2T365 -11Q248 -11 182 53T115 235Q115 324 142 413T221 573T348 688T520 732Q563 732 603 723T675 695T726 645T745 571Q745 562 744 552T741 527H634Z"  />
<glyph unicode="&#x405;" horiz-adv-x="667" d="M205 213Q202 199 201 190T200 173Q200 141 212 121T243 89T288 74T341 70Q375 70 411 79T478 107T527 154T547 222Q547 249 533 265T498 292T452 309T405 321Q364 331 340 338T300 350T274 359T252 368Q214 385 194 421T174 499Q174 556 201 600T271 675T369 721T477 737Q522 737 563 730T637 707T689 662T708 592Q708 582 707 571T703 544H599Q600 550 600 555T601 566Q601 653 471 653Q439 653 406 646T345 622T301 579T283 515Q283 494 292 480T318 456T353 441T393 430Q398 429 418 424T474 408Q509 399 542 388T600 357T641 310T656 239Q656 177 628 130T553 51T447 2T328 -15Q289 -15 247 -8T171 18T114 68T91 146Q91 170 101 213H205Z"  />
<glyph unicode="&#x406;" horiz-adv-x="278" d="M241 722H341L188 0H88L241 722Z"  />
<glyph unicode="&#x407;" horiz-adv-x="278" d="M241 722H341L188 0H88L241 722ZM177 840L198 942H289L268 840H177ZM365 840L386 942H477L456 840H365Z"  />
<glyph unicode="&#x408;" horiz-adv-x="556" d="M167 192Q163 172 162 163T160 145Q160 111 183 90T244 69Q280 69 306 81T352 116T383 168T403 233L506 722H606L499 222Q473 102 407 44T235 -15Q199 -15 167 -7T109 20T68 65T53 131Q53 143 54 157T61 192H167Z"  />
<glyph unicode="&#x409;" horiz-adv-x="1053" d="M969 241Q969 285 939 308T851 332H684L631 86H798Q834 86 865 96T919 127T955 175T969 241ZM902 14Q855 0 775 0H513L648 637H400L349 394Q336 333 321 278T287 176T245 92T191 30Q165 9 133 1T67 -7Q53 -7 39 -5T15 2L34 88Q42 84 52 83T70 82Q108 82 136 109T186 183T224 291T254 418L318 722H766L702 418H866Q971 418 1024 376T1077 255Q1077 213 1065 175T1031 105T976 50T902 14Z"  />
<glyph unicode="&#x40A;" horiz-adv-x="1053" d="M1077 255Q1077 213 1065 175T1031 105T976 50T902 14Q855 0 775 0H513L584 332H261L190 0H90L243 722H343L279 418H602L666 722H766L702 418H866Q971 418 1024 376T1077 255ZM969 241Q969 285 939 308T851 332H684L631 86H798Q834 86 865 96T919 127T955 175T969 241Z"  />
<glyph unicode="&#x40B;" horiz-adv-x="799" d="M491 637L452 453Q459 454 474 457T508 462T547 467T585 469Q626 469 667 465T741 445T794 401T815 322Q815 296 810 264T796 188L756 0H656L701 212Q706 232 707 248T709 280Q709 314 698 334T668 366T622 380T567 384Q555 384 536 382T496 378T458 372T434 367L356 0H256L391 637H149L167 722H751L733 637H491Z"  />
<glyph unicode="&#x40C;" horiz-adv-x="667" d="M708 942L557 798H492L604 942H708ZM246 722H345L278 406L641 722H778L389 389L664 0H540L276 383H273L192 0H93L246 722Z"  />
<glyph unicode="&#x40E;" horiz-adv-x="667" d="M444 937Q444 866 520 866Q595 866 629 937H678Q660 871 615 835T504 799Q450 799 422 826T393 904Q393 919 396 937H444ZM185 722H292L395 309L683 722H799L289 0H178L323 207L185 722Z"  />
<glyph unicode="&#x40F;" horiz-adv-x="722" d="M90 0L243 722H343L208 86H551L686 722H786L633 0H417L383 -161H283L317 0H90Z"  />
<glyph unicode="&#x410;" horiz-adv-x="722" d="M564 269L502 623L285 269H564ZM235 188L120 0H9L466 722H573L712 0H611L578 188H235Z"  />
<glyph unicode="&#x411;" horiz-adv-x="667" d="M213 86H380Q416 86 447 96T501 127T537 175T551 241Q551 285 521 308T433 332H266L213 86ZM448 418Q659 418 659 245Q659 182 635 136T571 59T477 15T363 0H95L248 722H696L678 637H330L284 418H448Z"  />
<glyph unicode="&#x412;" horiz-adv-x="667" d="M380 81Q414 81 445 93T500 126T538 175T552 236Q552 281 522 306T437 331H262L209 81H380ZM421 417Q454 417 486 425T543 451T583 495T598 560Q598 590 587 606T557 629T517 638T472 640H328L281 417H421ZM248 722H506Q542 722 578 715T642 690T687 644T705 572Q705 497 661 448T544 377Q595 366 625 332T655 242Q655 186 633 142T574 66T486 17T378 0H95L248 722Z"  />
<glyph unicode="&#x413;" horiz-adv-x="520" d="M79 0L232 722H660L642 637H314L179 0H79Z"  />
<glyph unicode="&#x414;" horiz-adv-x="722" d="M661 637H426L399 511Q374 394 328 283T206 86H544L661 637ZM571 -161L605 0H111L77 -161H-23L29 86H85Q147 150 187 219T252 352T289 471T310 561L344 722H779L644 86H723L671 -161H571Z"  />
<glyph unicode="&#x415;" horiz-adv-x="611" d="M244 722H697L679 637H326L279 412H615L597 328H261L210 88H571L552 0H91L244 722Z"  />
<glyph unicode="&#x416;" horiz-adv-x="1050" d="M916 0L656 383L575 0H475L556 383L147 0H6L448 409L200 722H327L562 409L628 722H728L662 409L1023 722H1157L767 391L1044 0H916Z"  />
<glyph unicode="&#x417;" horiz-adv-x="667" d="M337 -15Q298 -15 256 -7T179 21T122 71T99 146Q99 157 100 171T107 205H212Q209 185 209 175Q209 146 222 126T256 94T302 77T352 71Q387 71 422 80T484 109T529 157T547 226Q547 276 509 302T399 329H378Q373 329 370 329T361 328L380 417H408Q442 417 478 425T543 450T591 496T610 565Q610 607 576 629T477 651Q414 651 367 628T298 542H193Q209 596 238 633T306 694T389 727T485 737Q598 737 657 694T717 569Q717 530 703 499T663 443T603 402T531 376L530 374Q590 366 622 326T654 230Q654 171 626 126T553 49T452 2T337 -15Z"  />
<glyph unicode="&#x418;" horiz-adv-x="722" d="M90 0L243 722H343L224 162H227L680 722H786L633 0H533L652 561H649L196 0H90Z"  />
<glyph unicode="&#x419;" horiz-adv-x="722" d="M90 0L243 722H343L224 162H227L680 722H786L633 0H533L652 561H649L196 0H90ZM475 937Q475 866 551 866Q626 866 660 937H709Q691 871 646 835T535 799Q481 799 453 826T424 904Q424 919 427 937H475Z"  />
<glyph unicode="&#x41A;" horiz-adv-x="667" d="M246 722H345L278 406L641 722H778L389 389L664 0H540L276 383H273L192 0H93L246 722Z"  />
<glyph unicode="&#x41B;" horiz-adv-x="722" d="M349 394Q336 333 321 278T287 176T245 92T191 30Q165 9 133 1T67 -7Q53 -7 39 -5T15 2L34 88Q42 84 52 83T70 82Q108 82 136 109T186 183T224 291T254 418L318 722H786L633 0H533L668 637H400L349 394Z"  />
<glyph unicode="&#x41C;" horiz-adv-x="944" d="M243 722H412L490 127L825 722H998L845 0H747L885 650L510 0H415L324 646L187 0H90L243 722Z"  />
<glyph unicode="&#x41D;" horiz-adv-x="722" d="M343 722L278 412H621L686 722H786L633 0H533L602 326H259L190 0H90L243 722H343Z"  />
<glyph unicode="&#x41E;" horiz-adv-x="778" d="M228 250Q228 159 268 115T396 70Q449 70 492 88T570 136T629 207T672 293T697 387T705 480Q705 569 664 611T537 653Q457 653 399 616T303 521T247 391T228 250ZM544 737Q672 737 741 670T811 480Q811 388 784 300T703 141T569 28T384 -15Q256 -15 188 53T120 243Q120 302 132 361T168 475T228 578T311 661T416 716T544 737Z"  />
<glyph unicode="&#x41F;" horiz-adv-x="722" d="M90 0L243 722H786L633 0H533L668 637H325L190 0H90Z"  />
<glyph unicode="&#x420;" horiz-adv-x="611" d="M393 405Q457 405 495 418Q540 434 565 474T590 562Q590 590 579 606T550 629T510 639T464 641H324L274 405H393ZM241 722H483Q522 722 560 718T629 699T678 653T697 572Q697 517 672 467T604 381Q583 364 560 353T510 334T449 324T373 321H256L188 0H88L241 722Z"  />
<glyph unicode="&#x421;" horiz-adv-x="667" d="M635 527Q636 534 636 539T636 550Q636 577 625 596T596 628T555 646T506 652Q457 652 417 633T346 583T292 510T254 423T232 331T224 243Q224 71 382 71Q445 71 490 101T558 190H668Q653 140 622 102T550 39T462 2T366 -11Q308 -11 262 7T183 58T134 138T116 245Q116 334 143 421T223 578T350 689T520 732Q559 732 599 724T672 696T724 645T745 567Q745 548 742 527H635Z"  />
<glyph unicode="&#x422;" horiz-adv-x="611" d="M256 0L391 637H149L167 722H750L732 637H490L355 0H256Z"  />
<glyph unicode="&#x423;" horiz-adv-x="667" d="M185 722H292L399 309L683 722H799L289 0H178L327 207L185 722Z"  />
<glyph unicode="&#x424;" horiz-adv-x="820" d="M484 585Q422 585 375 563T296 503T248 414T231 306Q231 237 270 195T393 153L484 585ZM747 442Q747 508 709 546T584 585L493 153Q553 153 600 177T680 242T730 334T747 442ZM460 0H360L376 74Q247 74 186 131T124 286Q124 368 151 437T228 555T347 632T500 660L513 722H613L600 660Q656 660 702 648T782 609T834 544T853 450Q853 368 826 299T748 180T629 102T476 74L460 0Z"  />
<glyph unicode="&#x425;" horiz-adv-x="722" d="M510 366L698 0H583L427 298L150 0H19L381 386L207 722H325L465 454L712 722H841L510 366Z"  />
<glyph unicode="&#x426;" horiz-adv-x="722" d="M571 -161L605 0H90L243 722H343L208 86H551L686 722H786L651 86H723L671 -161H571Z"  />
<glyph unicode="&#x427;" horiz-adv-x="667" d="M548 327Q510 316 463 310T375 304Q275 304 230 340T184 462Q184 512 199 583L228 722H328L300 588Q294 558 291 534T287 489Q287 434 314 412T404 390Q443 390 486 395T566 412L631 722H731L578 0H478L548 327H548Z"  />
<glyph unicode="&#x428;" horiz-adv-x="1075" d="M243 722H343L208 86H506L641 722H741L606 86H904L1039 722H1139L986 0H90L243 722Z"  />
<glyph unicode="&#x429;" horiz-adv-x="1075" d="M924 -161L958 0H90L243 722H343L208 86H506L641 722H741L606 86H904L1039 722H1139L1004 86H1076L1024 -161H924Z"  />
<glyph unicode="&#x42A;" horiz-adv-x="767" d="M500 86Q536 86 567 96T621 127T657 175T671 241Q671 285 641 308T553 332H386L333 86H500ZM149 637L167 722H468L404 418H568Q673 418 726 375T779 255Q779 185 748 129T659 38Q636 24 614 17T570 5T524 1T473 0H215L350 637H149Z"  />
<glyph unicode="&#x42B;" horiz-adv-x="900" d="M964 722L811 0H711L864 722H964ZM213 86H380Q416 86 447 96T501 127T537 175T551 241Q551 285 521 308T433 332H266L213 86ZM448 418Q553 418 606 375T659 255Q659 187 630 132T546 42Q499 12 454 6T353 0H95L248 722H348L284 418H448Z"  />
<glyph unicode="&#x42C;" horiz-adv-x="650" d="M213 86H380Q416 86 447 96T501 127T537 175T551 241Q551 285 521 308T433 332H266L213 86ZM448 418Q553 418 606 375T659 255Q659 187 630 132T546 42Q499 12 454 6T353 0H95L248 722H348L284 418H448Z"  />
<glyph unicode="&#x42D;" horiz-adv-x="667" d="M313 -11Q268 -11 226 -2T151 28T99 79T79 155Q79 163 79 171T81 190H191V184Q191 128 218 100T317 71Q414 71 479 135T576 328H275L293 412H592Q594 428 595 442T596 471Q596 560 557 606T441 652Q302 652 258 527H151Q166 578 195 616T263 680T350 719T451 732Q518 732 566 713T644 659T689 577T703 473Q703 424 695 374T672 275T632 184T576 104Q522 43 459 16T313 -11Z"  />
<glyph unicode="&#x42E;" horiz-adv-x="1028" d="M478 252Q478 70 652 70Q705 70 748 88T824 136T882 207T923 293T947 387T955 480Q955 569 912 611T784 653Q704 653 647 616T552 522T496 393T478 252ZM399 412Q446 569 548 653T796 737Q924 737 992 672T1061 483Q1061 393 1034 304T952 144T818 29T634 -15Q506 -15 438 50T370 237Q370 259 372 280T379 328H260L190 0H90L243 722H343L278 412H399Z"  />
<glyph unicode="&#x42F;" horiz-adv-x="667" d="M621 637H456Q421 637 391 628T340 601T306 556T293 492Q293 412 409 412H574L621 637ZM484 0L554 328H418Q395 328 378 326T348 320T324 310T302 293Q285 278 274 259T255 219T240 176T226 133Q215 99 202 66T172 0H61Q86 42 103 84T137 173L152 217Q163 249 173 273T199 314T237 344T294 365V367Q245 382 218 413T190 499Q190 560 215 602T282 671T374 710T479 722H737L584 0H484Z"  />
<glyph unicode="&#x430;" horiz-adv-x="556" d="M435 244Q420 246 408 246T382 247Q353 247 317 243T250 225T198 188T177 126Q177 94 200 76T264 58Q302 58 339 77T398 133Q409 150 414 168T428 218L435 244ZM394 0Q393 3 393 7T393 15Q393 27 394 40T398 63L401 75Q365 28 323 6T226 -16Q191 -16 164 -7T117 20T87 60T77 110Q77 170 106 209T180 271T278 303T381 312Q399 312 415 312T449 309L453 331Q457 351 459 364T462 389Q462 426 438 439T374 453Q330 453 299 434T255 368H161Q186 450 243 483T379 517Q410 517 442 512T500 495T542 462T559 408Q559 398 557 388T553 366L498 126Q491 95 487 64T479 0H394Z"  />
<glyph unicode="&#x431;" horiz-adv-x="611" d="M247 593Q287 637 334 656T446 688Q465 691 486 693T527 699T560 708T580 722H685Q680 704 673 688T649 658T607 634T537 617Q515 614 483 611T418 600T352 581T295 547Q282 535 270 517T246 479T226 439T211 401L213 400Q255 458 313 486T431 514Q479 514 514 500T572 461T607 402T618 326Q618 258 596 196T532 87T433 12T303 -16Q250 -16 213 -1T151 40T116 103T105 184Q105 230 116 287T146 402T191 509T247 593ZM200 182Q200 155 206 132T226 91T262 63T317 53Q368 53 405 79T468 144T506 231T519 323Q519 377 492 411T401 446Q351 446 313 421T250 358T213 272T200 182Z"  />
<glyph unicode="&#x432;" horiz-adv-x="556" d="M323 69Q345 69 365 75T402 94T427 125T436 168Q436 225 350 225H219L186 69H323ZM352 290Q374 290 393 295T427 312T450 341T459 382Q459 433 388 433H263L233 290H352ZM447 267Q488 259 512 235T536 166Q536 127 517 96T469 44T403 12T332 0H78L185 502H413Q481 502 520 475T559 397Q559 373 550 352T526 314T491 286T447 269V267Z"  />
<glyph unicode="&#x433;" horiz-adv-x="444" d="M182 0H87L194 502H525L510 431H274L182 0Z"  />
<glyph unicode="&#x434;" horiz-adv-x="611" d="M517 431H334Q323 385 313 341T287 254T249 165T193 73H441L517 431ZM464 -141L494 0H110L80 -141H-10L36 73H87Q125 116 149 155T189 236T216 323T240 425L257 502H627L536 73H600L554 -141H464Z"  />
<glyph unicode="&#x435;" horiz-adv-x="556" d="M472 300Q474 313 476 326T479 353Q479 399 454 423T379 448Q317 448 272 409T211 300H472ZM193 234Q189 217 187 201T184 168Q184 114 213 84T298 53Q349 53 385 79T438 157H532Q505 74 442 30T290 -15Q196 -15 144 29T92 168Q92 236 112 299T170 410T263 486T388 515Q480 515 526 474T572 351Q572 322 567 293T554 234H193Z"  />
<glyph unicode="&#x436;" horiz-adv-x="765" d="M634 0L484 248L482 247L429 0H334L387 247L385 248L133 0H10L294 273L137 502H253L390 272L392 273L441 502H536L487 273L489 272L720 502H847L581 258L751 0H634Z"  />
<glyph unicode="&#x437;" horiz-adv-x="500" d="M235 -17Q206 -17 177 -12T123 6T84 42T68 100Q68 107 68 114T70 133H170V131Q170 90 191 72T254 53Q276 53 299 60T340 80T369 112T381 156Q381 187 356 205T285 223H245L261 295H293Q316 295 339 300T380 318T410 348T422 394Q422 446 346 446Q298 446 272 428T229 367H130Q148 439 207 477T351 515Q439 515 480 486T521 405Q521 347 487 314T396 268V266Q481 254 481 165Q481 116 459 82T401 25T322 -7T235 -17Z"  />
<glyph unicode="&#x438;" horiz-adv-x="611" d="M87 0L194 502H286L206 126H209L526 502H631L524 0H432L512 377H509L192 0H87Z"  />
<glyph unicode="&#x439;" horiz-adv-x="611" d="M87 0L194 502H286L206 126H209L526 502H631L524 0H432L512 377H509L192 0H87ZM367 722Q369 651 443 651Q518 651 552 722H601Q584 656 539 620T428 584Q373 584 345 611T317 689Q317 697 317 705T319 722H367Z"  />
<glyph unicode="&#x43A;" horiz-adv-x="500" d="M79 0L186 502H281L233 277L235 276L465 502H590L326 261L499 0H382L230 252L228 251L174 0H79Z"  />
<glyph unicode="&#x43B;" horiz-adv-x="587" d="M38 74Q41 72 54 71T72 69Q96 69 116 84T154 135T188 229T223 374L250 502H607L500 0H405L497 431H330L308 327Q296 273 282 225T251 138T218 71T184 29Q167 15 138 4T85 -7Q80 -7 71 -7T53 -5T35 -3T22 0L38 74H38Z"  />
<glyph unicode="&#x43C;" horiz-adv-x="731" d="M553 0L639 405H637L405 0H326L266 405H264L178 0H87L194 502H334L387 116H388L605 502H751L644 0H553Z"  />
<glyph unicode="&#x43D;" horiz-adv-x="611" d="M182 0H87L194 502H289L245 295H492L536 502H631L524 0H429L477 225H230L182 0Z"  />
<glyph unicode="&#x43E;" horiz-adv-x="611" d="M198 185Q198 122 227 88T314 53Q363 53 401 79T465 144T504 231T517 321Q517 381 488 413T404 446Q353 446 315 422T250 360T211 276T198 185ZM408 515Q509 515 563 466T617 321Q617 256 595 195T531 87T432 12T304 -17Q256 -17 218 -3T153 38T112 100T98 180Q98 249 121 310T186 416T285 488T408 515Z"  />
<glyph unicode="&#x43F;" horiz-adv-x="611" d="M182 0H87L194 502H631L524 0H429L521 431H274L182 0Z"  />
<glyph unicode="&#x440;" horiz-adv-x="611" d="M217 167Q217 143 222 122T240 86T274 61T327 52Q378 52 415 79T477 147T514 236T526 329Q526 442 419 442Q366 442 328 416T265 350T229 261T217 167ZM174 420Q179 440 182 461T189 502H284L268 419Q303 463 352 487T458 512Q538 512 581 463T624 328Q624 265 604 203T546 92T453 13T328 -17Q277 -17 241 2T190 58L137 -193H44L174 420Z"  />
<glyph unicode="&#x441;" horiz-adv-x="500" d="M440 341Q442 348 442 354T442 367Q442 402 425 424T363 446Q313 446 279 418T223 348T192 258T182 168Q182 113 202 86T270 58Q319 58 357 87T407 167H502Q491 126 469 93T417 37T348 0T266 -13Q178 -13 130 36T81 171Q81 236 101 298T158 408T251 485T376 515Q451 515 494 480T538 374Q538 359 535 341H440Z"  />
<glyph unicode="&#x442;" horiz-adv-x="487" d="M565 431H383L291 0H196L288 431H106L121 502H580L565 431Z"  />
<glyph unicode="&#x443;" horiz-adv-x="556" d="M316 -3L205 -190H102L224 2L122 502H222L295 106L539 502H647L316 -3Z"  />
<glyph unicode="&#x444;" horiz-adv-x="804" d="M446 418Q426 448 377 448Q329 448 295 419T240 346T209 254T199 165Q199 51 293 51Q338 51 374 80L446 418ZM469 80Q494 51 538 51Q586 51 620 80T675 153T707 246T717 335Q717 448 621 448Q572 448 541 418L469 80ZM554 479Q571 497 598 507T655 517Q730 517 772 465T814 326Q814 268 796 208T744 98T659 17T543 -15Q488 -15 456 20L411 -192H316L361 20Q316 -15 260 -15Q182 -15 141 32T99 162Q99 219 118 281T172 396T259 483T374 517Q404 517 426 507T459 479L510 722H605L554 479Z"  />
<glyph unicode="&#x445;" horiz-adv-x="556" d="M392 243L533 0H423L322 192L137 0H19L279 267L142 502H251L352 317L524 502H645L392 243Z"  />
<glyph unicode="&#x446;" horiz-adv-x="620" d="M478 -141L508 0H87L194 502H289L198 73H445L536 502H631L540 73H614L568 -141H478Z"  />
<glyph unicode="&#x447;" horiz-adv-x="556" d="M489 502H584L477 0H382L428 215Q402 204 362 198T281 192Q209 192 171 223T133 313Q133 324 134 335T138 359L169 502H264L238 381Q233 358 233 342Q233 266 327 266Q357 266 390 271T442 284L489 502Z"  />
<glyph unicode="&#x448;" horiz-adv-x="855" d="M87 0L194 502H289L198 73H397L488 502H583L492 73H691L782 502H877L770 0H87Z"  />
<glyph unicode="&#x449;" horiz-adv-x="866" d="M724 -141L754 0H87L194 502H289L198 73H397L488 502H583L492 73H691L782 502H877L786 73H860L814 -141H724Z"  />
<glyph unicode="&#x44A;" horiz-adv-x="656" d="M425 70Q451 70 473 79T511 103T537 140T547 188Q547 255 458 255H339L300 70H425ZM494 325Q567 325 607 289T647 188Q647 147 631 113T585 53T518 14T434 0H190L282 432H111L126 502H392L354 325H494Z"  />
<glyph unicode="&#x44B;" horiz-adv-x="758" d="M778 502L671 0H576L683 502H778ZM325 70Q351 70 373 79T411 103T437 140T447 188Q447 255 358 255H239L200 70H325ZM197 502H292L254 325H394Q467 325 507 288T547 188Q547 148 531 114T485 55T418 15T334 0H90L197 502Z"  />
<glyph unicode="&#x44C;" horiz-adv-x="556" d="M325 70Q351 70 373 79T411 103T437 140T447 188Q447 255 358 255H239L200 70H325ZM197 502H292L254 325H394Q467 325 507 288T547 188Q547 148 531 114T485 55T418 15T334 0H90L197 502Z"  />
<glyph unicode="&#x44D;" horiz-adv-x="500" d="M244 -13Q155 -13 111 27T67 135Q67 143 67 151T69 167H164Q163 160 163 154T162 141Q162 102 185 80T250 58Q364 58 409 222H226L240 288H423Q427 311 427 333Q427 382 404 414T328 446Q275 446 247 416T205 341H110Q134 425 192 470T336 515Q423 515 473 465T524 332Q524 267 507 206T456 95T369 17T244 -13Z"  />
<glyph unicode="&#x44E;" horiz-adv-x="811" d="M720 321Q720 381 691 413T607 446Q556 446 518 422T453 360T414 276T401 185Q401 122 430 88T517 53Q567 53 605 78T668 143T707 230T720 321ZM230 225L182 0H87L194 502H289L245 295H323Q359 401 433 458T615 515Q716 515 768 465T820 329Q820 261 798 199T736 88T637 12T506 -17Q409 -17 355 32T301 170Q301 184 302 197T305 225H230Z"  />
<glyph unicode="&#x44F;" horiz-adv-x="556" d="M471 432H344Q321 432 301 426T265 407T240 377T231 334Q231 277 317 277H438L471 432ZM203 236Q173 246 152 271T131 338Q131 374 148 404T194 456T259 490T335 502H581L474 0H379L424 210H302Q273 210 259 206T230 190Q222 183 215 170T200 140T187 107T176 77Q167 51 160 35T145 0H43Q50 11 55 21T66 43T77 71T92 112L97 127Q104 149 112 166T133 197T162 219T203 235V236Z"  />
<glyph unicode="&#x451;" horiz-adv-x="556" d="M269 620L290 722H381L360 620H269ZM457 620L478 722H569L548 620H457ZM472 300Q474 313 476 326T479 353Q479 399 454 423T379 448Q317 448 272 409T211 300H472ZM193 234Q189 217 187 201T184 168Q184 114 213 84T298 53Q349 53 385 79T438 157H532Q505 74 442 30T290 -15Q196 -15 144 29T92 168Q92 236 112 299T170 410T263 486T388 515Q480 515 526 474T572 351Q572 322 567 293T554 234H193Z"  />
<glyph unicode="&#x452;" horiz-adv-x="598" d="M536 65Q515 -35 473 -95T368 -182Q343 -192 314 -196T255 -201H239L254 -128Q322 -128 372 -77T441 65L452 118Q456 135 458 150T460 179Q460 265 377 265Q346 265 319 254T269 224T231 176T208 113L185 0H90L182 431H101L116 502H197L243 722H338L292 502H505L490 431H277L240 256H242Q280 298 321 318T422 338Q491 338 526 306T562 214Q562 189 556 161L536 65H536Z"  />
<glyph unicode="&#x453;" horiz-adv-x="449" d="M519 722L368 578H303L415 722H519ZM185 0H90L197 502H519L504 432H277L185 0Z"  />
<glyph unicode="&#x454;" horiz-adv-x="500" d="M507 167Q496 126 474 93T422 37T353 0T271 -13Q183 -13 135 34T86 167Q86 228 106 290T163 402T256 483T381 515Q415 515 445 507T496 482T530 439T543 375Q543 357 540 341H445Q448 360 448 370Q448 407 427 426T368 446Q333 446 307 433T260 397T227 346T205 288H388L374 222H191Q189 207 188 194T187 168Q187 58 280 58Q329 58 364 87T412 167H507H507Z"  />
<glyph unicode="&#x455;" horiz-adv-x="500" d="M174 149Q171 137 171 127Q171 106 179 93T201 72T232 61T267 58Q288 58 309 63T348 81T376 110T387 152Q387 178 368 188T324 204Q292 212 260 220T197 240Q162 254 144 281T126 341Q126 383 146 415T198 470T270 503T348 514Q378 514 410 510T467 494T509 462T526 408Q526 397 524 386T520 363H424Q426 370 427 376T428 389Q428 445 345 445Q325 445 304 441T266 426T238 400T226 361Q226 334 250 321Q256 318 263 316T283 310T314 302T358 291Q385 284 409 277T451 256T479 221T490 167Q490 116 467 81T409 25T330 -5T246 -14Q165 -14 117 17T69 107Q69 122 74 144L75 149H174Z"  />
<glyph unicode="&#x456;" horiz-adv-x="278" d="M199 502H293L186 0H92L199 502ZM235 722H348L327 619H214L235 722Z"  />
<glyph unicode="&#x457;" horiz-adv-x="278" d="M196 502H290L183 0H89L196 502ZM130 620L151 722H242L221 620H130ZM318 620L339 722H430L409 620H318Z"  />
<glyph unicode="&#x458;" horiz-adv-x="278" d="M-28 -126Q-20 -127 -16 -127T-9 -127Q29 -127 48 -112Q61 -103 68 -87T83 -36L198 502H292L175 -47Q158 -125 121 -161T17 -197Q12 -197 7 -197T-4 -196Q-15 -195 -21 -195T-42 -193L-28 -126ZM235 722H349L327 618H213L235 722Z"  />
<glyph unicode="&#x459;" horiz-adv-x="819" d="M826 173Q826 134 809 103T763 48T696 13T616 0H392L484 431H330L308 327Q296 273 282 225T251 138T218 71T184 29Q167 15 138 4T85 -7Q80 -7 71 -7T53 -5T35 -3T22 0L38 74Q41 72 54 71T72 69Q96 69 116 84T154 135T188 229T223 374L250 502H594L550 295H670Q746 295 786 266T826 173ZM725 168Q725 225 634 225H535L502 70H607Q629 70 650 76T688 94T715 125T725 168Z"  />
<glyph unicode="&#x45A;" horiz-adv-x="837" d="M843 173Q843 134 826 103T780 48T713 13T633 0H409L457 225H230L182 0H87L194 502H289L245 295H472L516 502H611L567 295H687Q763 295 803 266T843 173ZM742 168Q742 225 651 225H552L519 70H624Q646 70 667 76T705 94T732 125T742 168Z"  />
<glyph unicode="&#x45B;" horiz-adv-x="611" d="M489 431H276L239 256H241Q279 298 320 318T421 338Q490 338 525 306T561 214Q561 189 555 161L522 0H427L451 118Q455 135 457 150T459 179Q459 265 376 265Q337 265 303 248T246 199Q223 169 216 140T201 79L185 0H90L181 431H100L115 502H196L243 722H338L291 502H504L489 431Z"  />
<glyph unicode="&#x45C;" horiz-adv-x="500" d="M418 578H353L465 722H569L418 578ZM326 261L499 0H382L230 252L228 251L174 0H79L186 502H281L233 277L235 276L465 502H590L326 261Z"  />
<glyph unicode="&#x45E;" horiz-adv-x="556" d="M346 722Q348 651 422 651Q497 651 531 722H580Q563 656 518 620T407 584Q352 584 324 611T296 689Q296 697 296 705T298 722H346ZM316 -3L205 -190H102L224 2L122 502H222L295 106L539 502H647L316 -3Z"  />
<glyph unicode="&#x45F;" horiz-adv-x="611" d="M359 0L325 -161H230L264 0H90L197 502H292L201 73H448L539 502H634L527 0H359Z"  />
<glyph unicode="&#x490;" horiz-adv-x="520" d="M642 637H314L179 0H79L232 722H560L587 846H687L642 637Z"  />
<glyph unicode="&#x491;" horiz-adv-x="444" d="M517 431H277L185 0H90L197 502H437L462 623H557L517 431Z"  />
<glyph unicode="&#x2013;" horiz-adv-x="500" d="M64 303H564L549 231H49L64 303Z"  />
<glyph unicode="&#x2014;" horiz-adv-x="1000" d="M194 303H934L919 231H179L194 303Z"  />
<glyph unicode="&#x2018;" horiz-adv-x="278" d="M147 476L314 722H381L262 476H147Z"  />
<glyph unicode="&#x2019;" horiz-adv-x="278" d="M380 722L216 476H148L265 722H380Z"  />
<glyph unicode="&#x201A;" horiz-adv-x="278" d="M247 100L87 -135H20L132 100H247Z"  />
<glyph unicode="&#x201C;" horiz-adv-x="556" d="M188 476L355 722H422L303 476H188ZM375 476L542 722H609L490 476H375Z"  />
<glyph unicode="&#x201D;" horiz-adv-x="556" d="M432 722L265 476H198L317 722H432ZM619 722L453 476H386L505 722H619Z"  />
<glyph unicode="&#x201E;" horiz-adv-x="556" d="M300 100L140 -135H73L185 100H300ZM486 100L326 -135H259L372 100H486Z"  />
<glyph unicode="&#x2020;" horiz-adv-x="556" d="M582 479H415L313 0H234L336 479H166L182 553H352L387 722H466L431 553H598L582 479Z"  />
<glyph unicode="&#x2021;" horiz-adv-x="556" d="M388 722H468L433 556H603L587 481H417L367 243H537L521 169H351L315 0H235L271 169H101L117 243H287L337 481H167L183 556H353L388 722Z"  />
<glyph unicode="&#x2022;" horiz-adv-x="350" d="M177 542Q214 542 247 528T304 489T343 431T358 361Q358 324 344 291T305 234T247 195T177 181Q139 181 107 195T50 233T12 291T-2 361Q-2 399 12 432T50 489T107 528T177 542Z"  />
<glyph unicode="&#x2026;" horiz-adv-x="1000" d="M152 120H263L237 0H126L152 120ZM471 120H582L556 0H445L471 120ZM790 120H901L875 0H764L790 120Z"  />
<glyph unicode="&#x2030;" horiz-adv-x="1000" d="M417 545Q410 511 396 480T360 424T306 385T231 370Q157 370 132 415T123 534Q125 546 133 575T162 634T217 688T307 712Q383 712 408 666T417 545ZM246 427Q270 427 286 438T314 467T332 505T343 544Q347 565 348 585T345 620T329 646T295 656Q269 656 252 644T224 613T206 575T196 538Q193 522 191 503T193 467T209 439T246 427ZM673 163Q666 129 652 98T616 42T561 3T486 -12Q412 -12 387 33T378 152Q381 163 389 192T418 252T473 306T563 330Q638 330 663 284T673 163ZM502 45Q526 45 542 56T570 85T587 123T598 162Q602 183 603 203T601 238T584 264T550 274Q525 274 508 262T479 231T462 193T451 156Q448 140 446 121T448 85T464 57T502 45ZM1020 163Q1013 129 999 98T963 42T908 3T833 -12Q759 -12 734 33T725 152Q728 163 736 192T765 252T820 306T910 330Q986 330 1011 284T1020 163ZM849 45Q873 45 889 56T917 85T934 123T945 162Q949 183 950 203T948 238T932 264T898 274Q872 274 855 262T827 231T809 193T799 156Q796 140 794 121T796 85T812 57T849 45ZM737 731L102 -37H40L674 731H737Z"  />
<glyph unicode="&#x2039;" horiz-adv-x="278" d="M171 53L102 249L254 443H332L194 249L251 53H171Z"  />
<glyph unicode="&#x203A;" horiz-adv-x="278" d="M203 443L273 248L120 53H41L180 248L123 443H203Z"  />
<glyph unicode="&#x20AC;" horiz-adv-x="556" d="M150 321L155 346Q157 355 160 368T167 391H107L133 447H185Q203 501 234 548T306 629T399 684T509 704Q575 704 613 688T666 646L620 558Q606 593 573 608T491 624Q449 624 416 610T357 572T312 516T280 447H583L557 391H262Q259 382 255 369T249 346L244 321H523L497 265H236Q231 225 235 189T254 126T295 82T363 65Q411 65 449 76T527 120L507 27Q475 5 430 -5T342 -15Q280 -15 239 6T174 65T143 154T143 265H78L104 321H150Z"  />
<glyph unicode="&#x2116;" horiz-adv-x="1120" d="M872 263Q872 196 939 196Q967 196 988 209T1022 242T1042 287T1049 337Q1049 403 983 403Q954 403 934 391T899 358T879 313T872 263ZM1057 0H746L759 63H1070L1057 0ZM992 459Q1058 459 1093 427T1128 338Q1128 295 1113 259T1072 196T1008 155T927 140Q863 140 828 172T793 260Q793 302 808 338T849 401T912 443T992 459ZM242 692H381L572 107L696 692H788L641 0H513L315 605L186 0H95L242 692Z"  />
<glyph unicode="&#x2122;" horiz-adv-x="1000" d="M562 722H645L679 425L841 722H919L843 361H797L866 685L685 361H640L601 685L532 361H486L562 722ZM272 361L339 679H237L246 722H497L488 679H383L316 361H272Z"  />

</font>
</defs>
</svg>
