<?xml  version="1.0" encoding="UTF-8"?>
<!DOCTYPE svg PUBLIC "-//W3C//DTD SVG 1.0//EN" "http://www.w3.org/TR/2001/REC-SVG-20010904/DTD/svg10.dtd" >
<svg xmlns="http://www.w3.org/2000/svg" >
<metadata>
<version>1.0</version>
<id><![CDATA[Univers LT W10 85 Extra Black]]></id>
<vendor>Monotype Imaging Inc.</vendor>
<credits>
<name>Fonts.com WebFonts</name>
<URL>http://webfonts.fonts.com</URL>
<role>Home of the Web fonts</role>
</credits>
<license>
<URL>http://webfonts.fonts.com/Legal</URL>
</license>
<copyright><![CDATA[Copyright © 2009 Linotype Corp., www.linotype.com. All rights reserved. This font software may not be reproduced, modified, disclosed or transferred without the express written approval of Linotype Corp. Univers is a trademark of Linotype Corp. registered in the U.S. Patent and Trademark Office and may be registered in certain other jurisdictions in the name of Linotype Corp. or its licensee Linotype GmbH. This typeface is original artwork of Adrian Frutiger. The design may be protected in certain jurisdictions.]]></copyright>
<trademark><![CDATA[Univers is a trademark of Linotype Corp. registered in the U.S. Patent and Trademark Office and may be registered in certain other jurisdictions in the name of Linotype Corp. or its licensee Linotype GmbH.]]></trademark>
<licensee>
<name></name>
</licensee>
</metadata>
<defs >
<font horiz-adv-x="669" id="b7ccfbfa-3100-47d1-b3fc-198b9e58f077">
<font-face font-family="" panose-1="2 11 10 4 4 7 2 2 2 4" ascent="800" descent="-200" units-per-em="1000" alphabetic="0">
</font-face>
<missing-glyph horiz-adv-x="0" />

<glyph unicode="&#xA;" />
<glyph unicode="&#xD;" horiz-adv-x="0" />
<glyph unicode=" " horiz-adv-x="352" />
<glyph unicode="!" horiz-adv-x="370" d="M285 213H84L41 722H329L285 213ZM66 0V164H304V0H66Z"  />
<glyph unicode="&quot;" horiz-adv-x="592" d="M477 422H355L325 722H507L477 422ZM237 422H115L85 722H267L237 422Z"  />
<glyph unicode="#" horiz-adv-x="704" d="M516 410L503 312H575V194H487L461 0H337L363 194H296L270 0H146L172 194H100V312H188L202 410H130V528H218L243 722H367L342 528H409L434 722H558L532 528H604V410H516ZM325 410L312 312H379L392 410H325Z"  />
<glyph unicode="$" horiz-adv-x="704" d="M695 230Q695 92 579 27Q544 7 506 -3T418 -19V-120H269V-17Q221 -11 175 3T93 45T35 112T13 209V225H285V216Q285 142 358 142Q388 142 408 159T428 203Q428 219 420 229T399 245T366 257T324 269L233 296Q185 310 147 326T82 366T41 422T26 503Q26 601 88 659T269 735V833H418V739Q468 735 514 722T595 684T652 618T673 519H418Q416 554 402 568T354 582Q324 582 307 569T289 534Q289 518 299 508T328 491T371 479T423 466L513 442Q607 417 651 364T695 230Z"  />
<glyph unicode="%" horiz-adv-x="1056" d="M1031 229Q1031 175 1020 131T983 54T918 4T820 -14Q766 -14 728 3T666 51T631 124T620 217Q620 336 675 399T835 463Q890 463 928 446T988 397T1021 322T1031 229ZM389 0H266L670 722H790L389 0ZM435 502Q435 448 424 404T387 327T322 277T224 259Q170 259 132 276T70 324T35 397T24 490Q24 609 79 672T239 736Q294 736 332 719T392 670T425 595T435 502ZM864 222Q864 244 864 265T860 304T849 331T829 342Q808 342 799 317T790 231Q790 158 798 131T829 103Q839 103 845 108T856 127T862 164T864 222ZM268 495Q268 517 268 538T264 577T253 604T233 615Q212 615 203 590T194 504Q194 431 202 404T233 376Q243 376 249 381T260 400T266 437T268 495Z"  />
<glyph unicode="&amp;" horiz-adv-x="888" d="M616 0L574 43Q522 9 458 -6T332 -21Q261 -21 203 -6T104 38T41 107T19 197Q19 240 34 271T75 325T134 362T203 390Q86 471 86 563Q86 601 100 628T137 676T190 708T252 728T318 738T380 741Q446 741 498 730T586 696T642 643T662 572Q662 538 649 509T616 455T569 410T517 373L607 286Q642 330 648 398H854V397Q854 365 846 331T823 263T788 202T745 154L892 0H616ZM442 564Q442 586 425 598T377 611Q345 611 328 599T310 565Q310 552 316 541T332 519T353 500T375 485Q442 530 442 564ZM336 273Q304 264 283 242T262 194Q262 179 269 165T288 140T316 123T349 116Q370 116 398 126T456 154L336 273Z"  />
<glyph unicode="&apos;" horiz-adv-x="352" d="M237 422H115L85 722H267L237 422Z"  />
<glyph unicode="(" horiz-adv-x="388" d="M181 -146Q168 -115 159 -91T141 -45T125 1T108 57Q85 131 76 184T66 288Q66 337 76 394T107 523Q116 553 123 575T138 620T157 666T181 722H366Q355 683 347 655T333 603T323 557T312 506Q288 383 288 293Q288 247 294 192T313 70Q319 39 324 15T335 -33T348 -83T367 -146H181Z"  />
<glyph unicode=")" horiz-adv-x="388" d="M323 287Q323 237 313 181T282 53Q273 23 266 1T251 -44T232 -90T208 -146H23Q34 -106 42 -78T56 -26T66 20T77 70Q101 191 101 281Q101 327 95 383T76 506Q70 537 65 561T54 609T41 659T22 722H208Q221 690 230 667T248 621T263 575T281 519Q303 445 313 391T323 287Z"  />
<glyph unicode="*" horiz-adv-x="388" d="M264 535L309 456L235 417L193 494L149 417L76 457L120 535H32V616H120L76 694L149 736L193 657L235 735L309 693L264 616H354V535H264Z"  />
<glyph unicode="+" horiz-adv-x="600" d="M368 185V0H232V185H47V321H232V506H368V321H553V185H368Z"  />
<glyph unicode="&#x2c;" horiz-adv-x="352" d="M214 -97H10L75 211H321L214 -97Z"  />
<glyph unicode="-" horiz-adv-x="407" d="M29 182V349H378V182H29Z"  />
<glyph unicode="." horiz-adv-x="352" d="M54 0V208H297V0H54Z"  />
<glyph unicode="/" horiz-adv-x="370" d="M131 -14H-21L241 722H391L131 -14Z"  />
<glyph unicode="0" horiz-adv-x="704" d="M680 360Q680 273 660 203T598 84T491 8T336 -19Q24 -19 24 356Q24 441 42 512T100 634T203 713T355 741Q449 741 511 715T611 639T664 519T680 360ZM414 358Q414 398 413 426T410 474T405 509T397 535Q386 563 354 563Q335 563 323 553T303 519T292 454T289 352Q289 317 290 290T295 237Q303 160 353 160Q386 160 398 191Q402 203 405 216T410 249T413 294T414 358Z"  />
<glyph unicode="1" horiz-adv-x="704" d="M241 0V472Q205 443 164 422T86 393V598Q113 607 142 619T200 646T253 681T297 722H516V0H241Z"  />
<glyph unicode="2" horiz-adv-x="704" d="M35 0V188L196 290Q232 312 267 339T332 396T378 454T396 512Q396 537 382 551T341 565Q279 565 279 484H28Q28 560 54 608T124 685T227 725T350 736Q503 736 585 678T668 513Q668 452 641 404T573 318T483 248T388 188H669V0H35Z"  />
<glyph unicode="3" horiz-adv-x="704" d="M668 210Q668 161 649 119T593 46Q553 14 489 -3T344 -20Q305 -20 264 -16T183 0T110 33T53 90Q31 124 25 154T19 225H263Q263 146 334 146Q402 146 402 214Q402 256 374 273T279 290Q274 290 269 290T252 289V442Q264 441 269 441T283 441Q345 441 370 457T395 515Q395 575 331 575Q299 575 285 557T270 498H30V499Q30 541 37 570T63 626Q135 738 344 738Q494 738 574 686T654 535Q654 498 642 471T608 424T559 394T497 377Q534 373 565 363T619 333T655 283T668 210Z"  />
<glyph unicode="4" horiz-adv-x="704" d="M604 116V0H341V116H12V321L255 722H604V299H690V116H604ZM347 546L211 299H347V546Z"  />
<glyph unicode="5" horiz-adv-x="704" d="M668 256Q668 196 647 145T585 57Q542 17 484 -1T345 -20Q200 -20 121 36T38 199H293Q295 144 339 144Q368 144 383 165Q391 178 394 196T398 250Q398 303 386 322T342 341Q318 341 305 326T289 285H53L66 722H623V551H294L284 435Q316 462 350 474T432 486Q486 486 529 470T604 424T651 352T668 256Z"  />
<glyph unicode="6" horiz-adv-x="704" d="M677 246Q677 184 655 135T592 51T493 -2T360 -21Q271 -21 209 6T108 82T50 200T32 351Q32 436 52 507T114 630T221 709T376 738Q433 738 482 727T568 691T625 625T646 523H412V529Q412 579 363 579Q331 579 315 555Q301 533 295 499T287 410Q316 441 350 454T434 468Q485 468 529 454T606 411T658 341T677 246ZM431 240Q431 285 416 305T366 325Q297 325 297 229Q297 142 363 142Q431 142 431 240Z"  />
<glyph unicode="7" horiz-adv-x="704" d="M383 0H91L362 529H42V722H653V566L383 0Z"  />
<glyph unicode="8" horiz-adv-x="704" d="M679 195Q679 89 592 35T337 -20Q286 -20 231 -11T131 23T56 88T26 192Q26 261 64 306T171 365Q105 382 75 420T44 521Q44 627 126 682T363 738Q506 738 582 683T658 522Q658 461 626 421T535 366Q604 352 641 308T679 195ZM404 516Q404 550 393 564T353 578Q301 578 301 514Q301 478 313 462T352 446Q381 446 392 462T404 516ZM414 213Q414 246 403 267T354 288Q289 288 289 213Q289 142 350 142Q414 142 414 213Z"  />
<glyph unicode="9" horiz-adv-x="704" d="M669 366Q669 281 650 210T588 88T481 8T326 -21Q269 -21 220 -10T134 26T77 92T56 194H289V189Q289 139 338 139Q372 139 386 162Q400 185 406 219T414 308Q385 277 351 264T267 250Q216 250 172 264T95 307T43 377T24 472Q24 534 46 583T109 666T208 719T341 738Q431 738 493 711T595 636T651 519T669 366ZM404 489Q404 575 338 575Q271 575 271 478Q271 433 286 413T335 392Q404 392 404 489Z"  />
<glyph unicode=":" horiz-adv-x="352" d="M55 308V516H298V308H55ZM55 0V208H298V0H55Z"  />
<glyph unicode=";" horiz-adv-x="352" d="M72 308V516H313V308H72ZM214 -97H9L72 211H319L214 -97Z"  />
<glyph unicode="&lt;" horiz-adv-x="600" d="M43 171V334L558 538V372L216 252L558 134V-33L43 171Z"  />
<glyph unicode="=" horiz-adv-x="600" d="M42 295V443H558V295H42ZM42 63V212H558V63H42Z"  />
<glyph unicode="&gt;" horiz-adv-x="600" d="M43 -33V134L386 252L43 372V538L558 334V171L43 -33Z"  />
<glyph unicode="?" horiz-adv-x="537" d="M517 536Q517 503 507 476T479 427T438 385T390 346L374 334Q361 324 352 314T338 291T330 261T327 222V208H91V243Q91 272 94 293T105 332T127 366T165 403L180 416Q197 430 215 452T233 497Q233 544 161 544Q112 544 30 519V708Q86 724 140 732T242 741Q293 741 342 731T430 697T493 634T517 536ZM93 0V164H333V0H93Z"  />
<glyph unicode="@" horiz-adv-x="912" d="M444 182Q471 182 491 200T523 244T542 301T548 355Q548 426 495 426Q468 426 449 408T416 364T397 308T391 254Q391 219 404 201T444 182ZM661 286Q660 280 657 265T654 234T660 205T684 192Q691 192 705 197T734 220T759 271T770 358Q770 428 747 479T684 563T590 613T472 629Q402 629 343 605T241 537T173 434T148 304Q148 229 174 169T244 68T343 4T457 -19Q506 -19 542 -14T607 1T659 24T705 56L767 -25Q738 -52 707 -72T637 -105T552 -124T446 -131Q353 -131 275 -97T140 -4T52 135T20 305Q20 395 54 474T147 613T286 707T456 741Q561 741 642 715T778 642T863 531T892 393Q892 325 876 275T835 190T777 133T712 97T650 80T600 75Q554 75 536 95T521 150Q503 130 487 116T455 92T421 79T381 75Q340 75 312 88T267 126T243 182T235 251Q235 307 250 358T294 448T366 510T462 533Q484 533 500 530T530 519T555 500T578 472L589 521H709L661 286Z"  />
<glyph unicode="A" horiz-adv-x="796" d="M518 0L490 116H282L253 0H-19L213 722H584L816 0H518ZM389 563L325 292H448L389 563Z"  />
<glyph unicode="B" horiz-adv-x="758" d="M734 206Q734 141 698 94T603 24Q584 17 567 13T531 5T490 1T438 0H53V722H469Q591 722 651 675T712 536Q712 499 703 473T676 429T633 399T576 377Q652 366 693 321T734 206ZM444 502Q444 537 421 552T342 568H319V432H345Q396 432 420 449T444 502ZM457 226Q457 264 431 280T346 297H319V152H342Q363 152 383 153T420 162T447 185T457 226Z"  />
<glyph unicode="C" horiz-adv-x="758" d="M736 265Q736 199 713 146T645 57T538 1T393 -19Q305 -19 237 6T121 80T49 199T24 361Q24 450 49 520T121 638T237 711T394 737Q467 737 529 721T636 670T706 581T731 450V449H468Q464 501 448 523T400 546Q372 546 356 532T333 492T323 434T321 363Q321 323 323 288T332 227T356 185T401 170Q433 170 449 192T468 266H736V265H736Z"  />
<glyph unicode="D" horiz-adv-x="796" d="M774 366Q774 321 766 276T741 191T696 116T627 56Q535 0 400 0H49V722H373Q415 722 445 720T500 714T547 703T594 686Q636 669 669 639T726 567T761 474T774 366ZM477 370Q477 406 475 439T460 499T424 542T356 558H331V166H353Q398 166 423 183T460 229T474 295T477 370Z"  />
<glyph unicode="E" horiz-adv-x="630" d="M51 0V722H600V534H326V456H579V269H326V188H609V0H51Z"  />
<glyph unicode="F" horiz-adv-x="610" d="M333 534V449H583V264H333V0H49V722H602V534H333Z"  />
<glyph unicode="G" horiz-adv-x="814" d="M773 28Q734 17 690 9T600 -7T507 -17T416 -21Q326 -21 254 3T131 74T54 193T27 358Q27 452 55 523T135 641T260 713T425 737Q491 737 551 727T658 691T731 617T759 494V493H493Q490 552 423 552Q386 552 365 536T334 492T321 423T318 335Q318 299 320 268T333 213T364 175T420 161Q440 161 461 165T498 176V266H400V410H773V28H773Z"  />
<glyph unicode="H" horiz-adv-x="796" d="M458 0V266H338V0H52V722H338V475H458V722H744V0H458Z"  />
<glyph unicode="I" horiz-adv-x="388" d="M51 0V722H336V0H51Z"  />
<glyph unicode="J" horiz-adv-x="666" d="M620 267Q620 239 619 217T615 177T607 144T595 114Q580 83 553 58T487 16T401 -11T301 -21Q232 -21 176 -5T81 40T20 112T-2 206V238H240Q239 233 239 227Q239 168 285 168Q302 168 312 175T327 195T333 221T335 249V722H620V267H620Z"  />
<glyph unicode="K" horiz-adv-x="796" d="M502 0L333 324V0H53V722H333V412L484 722H784L591 382L811 0H502Z"  />
<glyph unicode="L" horiz-adv-x="610" d="M51 0V722H338V194H600V0H51Z"  />
<glyph unicode="M" horiz-adv-x="1056" d="M766 0V518L657 0H400L291 518V0H55V722H455L529 292L612 722H1002V0H766Z"  />
<glyph unicode="N" horiz-adv-x="832" d="M438 0L282 442V0H51V722H400L549 287V722H780V0H438Z"  />
<glyph unicode="O" horiz-adv-x="796" d="M771 361Q771 272 745 202T671 82T554 6T397 -21Q310 -21 241 5T124 79T51 198T25 356Q25 447 50 519T124 640T244 715T406 741Q493 741 560 716T675 642T746 522T771 361ZM474 377Q474 416 472 448T463 503T440 538T400 551Q352 551 336 502T320 353Q320 312 323 279T334 221T357 184T395 170Q417 170 432 180T457 215T470 278T474 377Z"  />
<glyph unicode="P" horiz-adv-x="740" d="M728 485Q728 449 719 415T691 353T647 302T586 266Q568 259 552 255T517 248T475 244T420 243H338V0H51V722H456Q482 722 502 721T538 716T570 708T602 696Q660 672 694 615T728 485ZM453 489Q453 527 431 544T362 561H338V407H354Q405 407 429 426T453 489Z"  />
<glyph unicode="Q" horiz-adv-x="796" d="M652 0Q637 0 626 0T603 0T578 -2T544 -4Q533 -5 526 -5T513 -7Q486 -14 458 -17T397 -21Q310 -21 241 5T124 79T51 198T25 356Q25 447 50 519T124 640T244 715T406 741Q493 741 560 716T675 642T746 522T771 361Q771 255 735 176H795V0H652ZM474 377Q474 416 472 448T463 503T440 538T400 551Q352 551 336 502T320 353Q320 312 323 279T334 221T357 184T395 170Q417 170 432 180T457 215T470 278T474 377Z"  />
<glyph unicode="R" horiz-adv-x="758" d="M470 0Q468 8 465 22T459 52T454 82T450 105L445 138Q440 168 438 186T433 215T427 232T418 244Q405 260 355 260H331V0H49V722H478Q520 722 553 717T617 701Q668 684 695 642T723 537Q723 498 714 471T686 423T642 390T581 366Q619 360 643 350T681 322T701 278T713 212L721 144Q726 109 732 72T750 0H470ZM450 496Q450 531 427 545T347 560H329V420H350Q402 420 426 438T450 496Z"  />
<glyph unicode="S" horiz-adv-x="722" d="M702 230Q702 159 673 110T584 27Q538 1 484 -10T354 -21Q291 -21 231 -10T124 29T49 104T20 223V225H292V216Q292 142 365 142Q395 142 415 159T435 203Q435 219 426 229T401 247T368 259T331 269L240 296Q193 309 155 325T90 364T48 420T33 503Q33 618 119 679T367 741Q424 741 480 732T580 698T652 630T680 520V519H425Q423 554 409 568T361 582Q331 582 314 569T296 534Q296 517 307 507T337 490T380 478T430 466L520 442Q702 390 702 230Z"  />
<glyph unicode="T" horiz-adv-x="648" d="M467 527V0H180V527H3V722H645V527H467Z"  />
<glyph unicode="U" horiz-adv-x="778" d="M733 270Q733 172 703 117Q685 85 654 60T581 16T488 -11T380 -21Q339 -21 296 -15T211 5T135 43T78 106Q61 135 54 166T46 243V722H333V257Q333 176 392 176Q421 176 436 196T452 253V722H733V270H733Z"  />
<glyph unicode="V" horiz-adv-x="759" d="M565 0H195L-9 722H284L385 160L493 722H769L565 0Z"  />
<glyph unicode="W" horiz-adv-x="1036" d="M898 0H589L521 468L452 0H139L-14 722H242L304 267L372 722H670L737 267L801 722H1051L898 0Z"  />
<glyph unicode="X" horiz-adv-x="778" d="M492 0L384 220L272 0H-14L221 369L2 722H302L398 519L495 722H784L561 369L792 0H492Z"  />
<glyph unicode="Y" horiz-adv-x="740" d="M513 250V0H228V250L-18 722H278L381 419L482 722H758L513 250Z"  />
<glyph unicode="Z" horiz-adv-x="685" d="M23 0V174L324 534H32V722H655V549L354 188H662V0H23Z"  />
<glyph unicode="[" horiz-adv-x="481" d="M81 -146V722H447V560H292V14H447V-146H81Z"  />
<glyph unicode="\" horiz-adv-x="370" d="M239 -14L-21 722H129L391 -14H239Z"  />
<glyph unicode="]" horiz-adv-x="481" d="M35 -146V14H190V560H35V722H400V-146H35Z"  />
<glyph unicode="^" horiz-adv-x="600" d="M395 359L300 582L205 359H65L229 722H371L535 359H395Z"  />
<glyph unicode="_" horiz-adv-x="500" d="M0 -125V-75H500V-125H0Z"  />
<glyph unicode="`" horiz-adv-x="278" d="M75 552L-79 722H156L252 552H75Z"  />
<glyph unicode="a" horiz-adv-x="592" d="M341 0L337 53Q308 18 274 3T191 -13Q107 -13 61 27T15 141Q15 196 41 231T106 285T194 311T287 318Q295 318 306 318T332 317V360Q332 400 286 400Q262 400 251 389T239 352H40V353Q40 376 48 399T71 440Q128 513 295 513Q361 513 407 504T489 475Q510 463 522 448T541 413T550 373T553 330V0H341ZM335 223Q327 224 323 224T313 225Q224 225 224 163Q224 115 279 115Q309 115 322 133T335 197V223Z"  />
<glyph unicode="b" horiz-adv-x="666" d="M637 259Q637 129 581 57T424 -16Q375 -16 340 2T275 58L267 0H39V722H285V456Q315 489 351 503T432 517Q529 517 583 449T637 259ZM390 250Q390 274 389 296T383 335T366 362T335 373Q315 373 304 364T287 337T281 296T280 243Q280 221 280 200T286 163T302 138T333 128Q365 128 377 155T390 250Z"  />
<glyph unicode="c" horiz-adv-x="630" d="M607 206Q607 141 584 99T521 31T431 -5T325 -15Q258 -15 203 -1T109 45T48 128T26 253Q26 315 46 364T105 447T199 499T325 517Q456 517 529 461T603 302V301H380Q379 349 368 369T327 390Q305 390 294 379T277 345T270 293T269 225Q269 206 269 186T275 149T292 121T327 110Q345 110 355 120T371 144T378 175T380 206H607H607Z"  />
<glyph unicode="d" horiz-adv-x="666" d="M397 0L389 58Q361 20 325 2T240 -16Q140 -16 84 56T28 259Q28 380 81 448T231 517Q277 517 313 504T380 456V722H625V0H397ZM384 260Q384 279 383 299T377 336T361 362T329 373Q309 373 298 364T282 338T276 299T274 250Q274 182 287 155T332 128Q353 128 363 139T378 167T383 206T384 249V260Z"  />
<glyph unicode="e" horiz-adv-x="630" d="M258 208V207V185Q258 151 272 129T325 106Q380 106 388 164H598Q598 152 594 139T583 112T568 86T553 65Q517 23 459 4T312 -16Q245 -16 192 0T102 50T45 135T25 255Q25 326 48 376T112 459T209 505T331 520Q403 520 455 501T540 444T589 355T605 235V208H258ZM388 315Q388 333 386 348T377 374T358 391T324 398Q304 398 291 392T271 375T261 348T258 315H388Z"  />
<glyph unicode="f" horiz-adv-x="388" d="M398 574Q387 575 374 575T348 576Q322 576 311 566T300 530V500H389V352H300V0H61V352H2V500H61V532Q61 583 72 616T110 676Q136 702 176 716T265 730Q274 730 290 729T324 726T362 721T398 715V574H398Z"  />
<glyph unicode="g" horiz-adv-x="666" d="M625 66Q625 34 624 13T621 -25T613 -56T600 -87Q574 -146 502 -175T316 -204Q246 -204 197 -193T112 -156Q83 -136 67 -102T50 -32H286Q288 -73 337 -73Q372 -73 385 -52T398 23V74Q353 9 246 9Q190 9 149 27T81 78T41 155T27 253Q27 305 39 352T79 435T147 492T245 513Q344 513 391 447L399 500H625V66ZM388 262Q388 277 388 296T383 332T367 360T334 372Q312 372 301 360T284 329T278 286T277 237Q277 222 277 206T283 177T298 154T329 145Q352 145 364 154T381 180T387 217T388 262Z"  />
<glyph unicode="h" horiz-adv-x="648" d="M370 0V307Q370 366 326 366Q311 366 303 360T289 344T283 323T281 299V0H37V722H281V433Q307 477 343 496T437 516Q493 516 527 500T580 455T605 390T612 313V0H370Z"  />
<glyph unicode="i" horiz-adv-x="314" d="M38 569V722H276V569H38ZM38 0V500H276V0H38Z"  />
<glyph unicode="j" horiz-adv-x="314" d="M37 569V722H275V569H37ZM275 -10Q275 -72 262 -105T217 -160Q202 -170 186 -176T147 -187T93 -192T19 -194Q-16 -194 -50 -191V-65Q-45 -65 -40 -65T-29 -66Q11 -66 23 -51Q37 -34 37 13V500H275V-10Z"  />
<glyph unicode="k" horiz-adv-x="630" d="M377 0L275 262V0H35V722H275V308L369 500H630L491 287L641 0H377Z"  />
<glyph unicode="l" horiz-adv-x="314" d="M38 0V722H276V0H38Z"  />
<glyph unicode="m" horiz-adv-x="980" d="M703 0V309Q703 366 660 366Q638 366 626 350T614 303V0H372V307Q372 366 328 366Q301 366 292 348T283 302V0H39V500H272L277 426Q307 475 344 495T440 516Q501 516 539 494T604 420Q657 516 769 516Q855 516 898 470T942 343V0H703Z"  />
<glyph unicode="n" horiz-adv-x="648" d="M370 0V307Q370 366 326 366Q298 366 290 346T281 303V0H37V500H270L275 426Q303 474 341 495T437 516Q518 516 562 475Q581 458 591 438T605 396T611 351T612 303V0H370Z"  />
<glyph unicode="o" horiz-adv-x="666" d="M640 252Q640 176 616 125T548 43T446 -2T318 -16Q255 -16 202 0T109 50T47 134T25 251Q25 320 48 371T111 455T207 504T327 521Q393 521 450 506T550 459T616 375T640 252ZM389 259Q389 328 376 357T334 387Q317 387 306 378T289 352T281 312T279 259Q279 224 280 198T287 153T303 126T332 117Q352 117 363 129T380 160T387 205T389 259Z"  />
<glyph unicode="p" horiz-adv-x="666" d="M637 241Q637 120 583 52T433 -17Q385 -17 351 -4T285 44V-192H39V500H267L275 442Q330 516 424 516Q524 516 580 444T637 241ZM390 250Q390 318 377 345T332 372Q314 372 304 364T288 340T281 302T280 251Q280 227 281 205T287 166T303 138T335 127Q356 127 367 138T383 168T389 208T390 250Z"  />
<glyph unicode="q" horiz-adv-x="666" d="M380 -192V44Q351 11 315 -3T232 -17Q135 -17 82 51T28 241Q28 372 84 444T240 516Q289 516 324 498T389 442L397 500H625V-192H380ZM384 257Q384 279 384 299T379 336T363 362T332 372Q313 372 302 363T284 338T276 299T274 250Q274 229 274 208T280 168T296 139T329 127Q352 127 363 139T379 170T384 212T384 257Z"  />
<glyph unicode="r" horiz-adv-x="444" d="M442 306Q419 311 397 315T351 319Q315 319 299 302T282 244V0H37V500H270L275 447Q295 469 320 488T378 507Q391 507 409 503T442 493V306H442Z"  />
<glyph unicode="s" horiz-adv-x="592" d="M569 159Q569 117 555 87T509 33Q472 5 421 -7T286 -19Q236 -19 189 -12T105 16T45 71T22 162H243Q243 94 298 94Q349 94 349 139Q349 165 322 174T242 191L219 194Q118 207 75 243T31 345Q31 400 56 434T120 487T206 512T297 519Q425 519 489 477T554 351V350H346V355Q346 383 334 395T295 407Q246 407 246 368Q246 344 268 338T343 322L391 314Q422 309 458 298T515 273Q541 258 555 228T569 159Z"  />
<glyph unicode="t" horiz-adv-x="426" d="M308 352V204Q308 171 317 158T349 145Q361 145 378 147T412 153V5Q373 -4 334 -10T254 -16Q170 -16 120 19Q87 42 80 74T72 145V352H5V500H71V583L308 667V500H421V352H308Z"  />
<glyph unicode="u" horiz-adv-x="648" d="M378 0L373 74Q345 26 307 5T211 -16Q130 -16 86 25Q67 42 57 62T43 104T37 149T36 197V500H278V193Q278 134 322 134Q337 134 345 139T359 154T365 174T367 198V500H611V0H378Z"  />
<glyph unicode="v" horiz-adv-x="630" d="M481 0H151L0 500H250L317 191L383 500H630L481 0Z"  />
<glyph unicode="w" horiz-adv-x="944" d="M820 0H526L462 319L403 0H107L-2 500H229L273 174L335 500H600L659 174L712 500H946L820 0Z"  />
<glyph unicode="x" horiz-adv-x="630" d="M389 0L315 150L254 0H-13L140 267L2 500H260L312 368L358 500H615L488 267L643 0H389Z"  />
<glyph unicode="y" horiz-adv-x="630" d="M396 -192H135L201 -15L-3 500H255L325 226L393 500H634L396 -192Z"  />
<glyph unicode="z" horiz-adv-x="536" d="M25 0V139L200 340H39V500H495V343L336 162H512V0H25Z"  />
<glyph unicode="{" horiz-adv-x="481" d="M270 -146Q237 -146 211 -135T167 -106T140 -66T131 -20V151Q131 170 123 181T101 198T71 205T37 207V371Q54 371 70 372T100 380T122 397T131 427V596Q131 619 140 641T167 682T211 711T270 722H436V560H401Q370 560 357 546T343 500V383Q343 356 331 339T302 312T265 297T231 290V288Q246 286 265 281T301 266T331 239T343 195V74Q343 42 356 28T401 14H436V-146H270Z"  />
<glyph unicode="|" horiz-adv-x="222" d="M33 -19V741H189V-19H33Z"  />
<glyph unicode="}" horiz-adv-x="481" d="M444 207Q427 207 411 206T381 198T359 181T350 151V-20Q350 -43 341 -65T314 -106T270 -135T211 -146H45V14H80Q111 14 124 28T138 74V195Q138 222 150 239T179 266T216 281T250 288V290Q235 292 216 297T180 312T150 339T138 383V500Q138 532 125 546T80 560H45V722H211Q244 722 270 711T314 682T341 642T350 596V427Q350 408 358 397T380 380T410 373T444 371V207H444Z"  />
<glyph unicode="~" horiz-adv-x="600" d="M582 358Q580 326 571 288T544 218T498 163T430 141Q413 141 389 146T338 158T287 173T248 185Q231 190 210 195T171 201Q146 201 134 186T119 148H17Q17 180 27 217T56 287T105 340T171 362Q184 362 202 359T239 352T275 342T306 332Q335 323 366 313T429 303Q457 303 466 319T480 358H582H582Z"  />
<glyph unicode="&#xA0;" horiz-adv-x="352" />
<glyph unicode="&#xA4;" horiz-adv-x="704" d="M88 174L143 229Q124 257 114 290T104 361Q104 399 115 434T146 498L88 556L161 629L221 570Q280 609 352 609Q427 609 483 570L543 629L616 556L558 498Q578 469 589 434T600 361Q600 324 590 291T561 229L616 174L543 101L489 155Q460 135 425 124T352 113Q314 113 279 124T215 155L161 101L88 174ZM234 361Q234 337 243 316T269 278T306 253T352 243Q376 243 397 252T435 278T460 315T470 361Q470 385 461 406T435 444T398 469T352 479Q328 479 307 470T269 444T244 407T234 361Z"  />
<glyph unicode="&#xA6;" horiz-adv-x="222" d="M33 447V741H189V447H33ZM33 -19V275H189V-19H33Z"  />
<glyph unicode="&#xA7;" horiz-adv-x="704" d="M622 382Q622 274 508 235Q581 203 581 128Q581 80 557 51T497 7T417 -14T337 -19Q278 -19 216 -12T102 9V144Q153 127 194 118T262 109Q283 109 295 118T307 143Q307 161 289 170T229 197L192 212Q169 221 149 233T114 261T91 298T82 347Q82 396 113 431T196 478Q154 491 132 520T109 591Q109 642 135 671T200 715T283 734T366 738Q416 738 465 732T563 718V590Q548 594 530 598T494 605T460 609T431 611Q391 611 391 589Q391 579 403 572T455 548L511 525Q571 501 596 468T622 382ZM427 365Q427 385 406 399T332 429Q306 415 295 402T284 375Q284 357 304 341T377 304Q400 315 413 331T427 365Z"  />
<glyph unicode="&#xA9;" horiz-adv-x="800" d="M780 361Q780 282 750 213T669 93T548 11T400 -19Q321 -19 252 11T132 92T50 213T20 361Q20 440 50 509T131 629T252 711T400 741Q479 741 548 711T668 630T750 509T780 361ZM662 361Q662 415 642 463T586 546T502 602T400 623Q346 623 298 603T215 547T159 463T138 361Q138 307 158 259T214 176T298 120T400 99Q454 99 502 119T585 175T641 259T662 361ZM584 306Q579 267 563 238T522 189T468 159T405 149Q359 149 322 165T257 209T216 276T201 360Q201 406 215 444T255 511T318 556T403 572Q472 572 521 534T584 421H478Q472 451 452 464T400 478Q358 478 336 447T313 362Q313 309 337 276T399 243Q431 243 452 257T478 306H584Z"  />
<glyph unicode="&#xAB;" horiz-adv-x="648" d="M437 0L286 250L437 500H632L522 250L632 0H437ZM157 0L6 250L157 500H352L242 250L352 0H157Z"  />
<glyph unicode="&#xAC;" horiz-adv-x="600" d="M417 307H47V443H553V126H417V307Z"  />
<glyph unicode="&#xAD;" horiz-adv-x="407" d="M29 352H378V182H29V352Z"  />
<glyph unicode="&#xAE;" horiz-adv-x="400" d="M383 557Q383 519 369 486T330 428T272 389T200 374Q162 374 129 388T70 427T31 485T16 557Q16 595 30 628T70 687T128 726T200 741Q238 741 271 727T329 687T368 629T383 557ZM342 557Q342 587 331 613T301 658T255 689T200 700Q170 700 144 689T99 659T68 613T57 557Q57 527 68 502T98 457T144 426T200 415Q229 415 255 426T300 456T331 502T342 557ZM230 454Q225 468 226 480T226 502T217 517T190 523H182V454H119V660H200Q216 660 232 658T261 650T281 631T289 598Q289 560 254 548Q272 539 278 529T285 507T287 482T291 454H230ZM226 593Q226 607 216 610T195 614H182V570H195Q206 570 216 574T226 593Z"  />
<glyph unicode="&#xB0;" horiz-adv-x="400" d="M57 598Q57 628 68 654T98 699T144 730T200 741Q230 741 256 730T301 700T332 654T343 598Q343 568 332 542T302 497T256 466T200 455Q170 455 144 466T99 496T68 542T57 598ZM145 598Q145 575 161 559T200 543Q223 543 239 559T255 598Q255 621 239 637T200 653Q177 653 161 637T145 598Z"  />
<glyph unicode="&#xB1;" horiz-adv-x="600" d="M232 506H368V401H553V265H368V160H232V265H47V401H232V506ZM47 136H553V0H47V136Z"  />
<glyph unicode="&#xB5;" horiz-adv-x="648" d="M370 502H612V0H376L370 76H368Q356 46 345 29T325 1T308 -12T294 -15Q284 -15 278 -11V-192H36V502H278V187Q278 161 290 147T322 133Q342 133 356 146T370 189V502Z"  />
<glyph unicode="&#xB6;" horiz-adv-x="620" d="M432 -192V596H362V-192H210V239Q113 251 65 305T16 463Q16 526 36 574T91 655T175 705T283 722H584V-192H432Z"  />
<glyph unicode="&#xB7;" horiz-adv-x="352" d="M54 182V390H297V182H54Z"  />
<glyph unicode="&#xBB;" horiz-adv-x="648" d="M491 0H296L406 250L296 500H491L642 250L491 0ZM211 0H16L126 250L16 500H211L362 250L211 0Z"  />
<glyph unicode="&#x401;" horiz-adv-x="630" d="M51 722H600V534H326V456H579V269H326V188H609V0H51V722ZM113 942H277V772H113V942ZM353 942H517V772H353V942Z"  />
<glyph unicode="&#x402;" horiz-adv-x="890" d="M180 534H3V722H645V534H467V438Q477 442 517 447T606 452Q683 452 734 434T815 385T857 314T870 231Q870 180 856 136T808 58T723 6T594 -13Q552 -13 528 -12T492 -9V146Q497 145 508 145T524 144Q537 144 549 147T572 158T588 181T594 217Q594 245 579 265T523 286Q503 286 489 284T467 279V0H180V534Z"  />
<glyph unicode="&#x403;" horiz-adv-x="593" d="M51 722H590V527H337V0H51V722ZM269 942H501L347 772H171L269 942Z"  />
<glyph unicode="&#x404;" horiz-adv-x="758" d="M393 -19Q305 -19 237 6T121 80T49 199T24 361Q24 450 49 520T121 638T237 711T394 737Q463 737 523 722T629 675T701 592T731 469H467Q462 513 445 532T397 551Q354 551 338 521T319 432H475V291H318Q320 233 335 199T395 165Q426 165 444 185T467 252H736Q734 180 706 129T630 45T522 -3T393 -19Z"  />
<glyph unicode="&#x405;" horiz-adv-x="722" d="M354 -21Q291 -21 231 -10T124 29T49 104T20 223V225H292V216Q292 142 365 142Q395 142 415 159T435 203Q435 219 426 229T401 247T368 259T331 269L240 296Q193 309 155 325T90 364T48 420T33 503Q33 618 119 679T367 741Q424 741 480 732T580 698T652 630T680 520V519H425Q423 554 409 568T361 582Q331 582 314 569T296 534Q296 517 307 507T337 490T380 478T430 466L520 442Q702 390 702 230Q702 159 673 110T584 27Q538 1 484 -10T354 -21Z"  />
<glyph unicode="&#x406;" horiz-adv-x="388" d="M51 722H336V0H51V722Z"  />
<glyph unicode="&#x407;" horiz-adv-x="388" d="M51 722H336V0H51V722ZM-8 942H156V772H-8V942ZM232 942H396V772H232V942Z"  />
<glyph unicode="&#x408;" horiz-adv-x="666" d="M301 -21Q232 -21 176 -5T81 40T20 112T-2 206V238H240Q239 233 239 227Q239 168 285 168Q302 168 312 175T327 195T333 221T335 249V722H620V267Q620 239 619 217T615 177T607 144T595 114Q580 83 553 58T487 16T401 -11T301 -21Z"  />
<glyph unicode="&#x409;" horiz-adv-x="1163" d="M102 -9Q79 -9 49 -6T4 0V203Q8 201 15 201T28 201Q53 201 67 212T87 248T95 314T96 416V722H757V479H871Q947 479 999 462T1085 412T1132 336T1147 237Q1147 186 1130 143T1077 68T991 18T870 0H471V527H372V332Q372 268 361 207T319 98T237 21T102 -9ZM777 164Q833 164 853 185T873 243Q873 286 850 300T781 315H757V164H777Z"  />
<glyph unicode="&#x40A;" horiz-adv-x="1150" d="M52 722H338V479H458V722H744V479H858Q934 479 986 462T1072 412T1119 336T1134 237Q1134 186 1117 143T1064 68T978 18T857 0H458V315H338V0H52V722ZM764 164Q820 164 840 185T860 243Q860 286 837 300T768 315H744V164H764Z"  />
<glyph unicode="&#x40B;" horiz-adv-x="900" d="M180 534H3V722H645V534H467V436Q473 437 488 439T523 443T561 446T592 447Q665 447 717 434T802 392T850 317T866 206V0H585V181Q585 224 564 242T513 260Q493 260 484 258T467 253V0H180V534Z"  />
<glyph unicode="&#x40C;" horiz-adv-x="796" d="M53 722H333V412L484 722H784L591 382L811 0H502L333 324V0H53V722ZM371 942H603L449 772H273L371 942Z"  />
<glyph unicode="&#x40E;" horiz-adv-x="759" d="M249 203L-7 722H284L389 446L495 722H776L410 0H129L249 203ZM387 766Q349 766 314 776T251 807T207 862T190 942H338Q338 908 354 896T387 884Q404 884 420 897T437 942H584Q584 898 568 866T523 811T460 777T387 766Z"  />
<glyph unicode="&#x40F;" horiz-adv-x="796" d="M283 0H52V722H338V195H458V722H744V0H514V-142H283V0Z"  />
<glyph unicode="&#x410;" horiz-adv-x="796" d="M213 722H584L816 0H518L490 116H282L253 0H-19L213 722ZM448 292L389 563L325 292H448Z"  />
<glyph unicode="&#x411;" horiz-adv-x="751" d="M52 722H651V536H324V446H478Q532 446 578 433T658 392T712 321T732 217Q732 118 661 59T455 0H52V722ZM360 154Q413 154 435 169T458 225Q458 290 357 290H324V154H360Z"  />
<glyph unicode="&#x412;" horiz-adv-x="758" d="M53 722H469Q591 722 651 675T712 536Q712 499 703 473T676 429T633 399T576 377Q652 366 693 321T734 206Q734 141 698 94T603 24Q584 17 567 13T531 5T490 1T438 0H53V722ZM342 152Q363 152 383 153T420 162T447 185T457 226Q457 264 431 280T346 297H319V152H342ZM345 432Q396 432 420 449T444 502Q444 537 421 552T342 568H319V432H345Z"  />
<glyph unicode="&#x413;" horiz-adv-x="593" d="M51 722H590V527H337V0H51V722Z"  />
<glyph unicode="&#x414;" horiz-adv-x="841" d="M0 195H62Q88 245 101 298T119 406T125 516T125 626V722H761V195H841V-142H610V0H231V-142H0V195ZM480 195V534H389Q389 446 382 363T341 195H480Z"  />
<glyph unicode="&#x415;" horiz-adv-x="630" d="M51 722H600V534H326V456H579V269H326V188H609V0H51V722Z"  />
<glyph unicode="&#x416;" horiz-adv-x="1204" d="M204 382L11 722H313L460 410H462V722H742V410H744L891 722H1193L1000 382L1220 0H910L744 324H742V0H462V324H460L294 0H-16L204 382Z"  />
<glyph unicode="&#x417;" horiz-adv-x="722" d="M365 -21Q182 -21 101 44T19 235H290Q290 190 308 168T362 145Q396 145 413 164T430 215Q430 252 405 272T325 292Q314 292 301 292T277 290V444Q291 443 307 443T336 442Q380 442 401 461T423 513Q423 539 408 558T357 577Q327 577 309 556T291 503H33Q33 536 40 570T59 626Q78 660 109 682T180 718T268 736T366 741Q451 741 511 726T610 683T667 619T685 539Q685 481 648 436T535 380V378Q579 374 610 360T660 323T689 271T698 211Q698 96 619 38T365 -21Z"  />
<glyph unicode="&#x418;" horiz-adv-x="804" d="M52 722H309V356H312L446 722H752V0H495V354H492L358 0H52V722Z"  />
<glyph unicode="&#x419;" horiz-adv-x="804" d="M52 722H309V356H312L446 722H752V0H495V354H492L358 0H52V722ZM402 766Q364 766 329 776T266 807T222 862T205 942H353Q353 908 369 896T402 884Q419 884 435 897T452 942H599Q599 898 583 866T538 811T475 777T402 766Z"  />
<glyph unicode="&#x41A;" horiz-adv-x="796" d="M53 722H333V412L484 722H784L591 382L811 0H502L333 324V0H53V722Z"  />
<glyph unicode="&#x41B;" horiz-adv-x="809" d="M102 -9Q79 -9 49 -6T4 0V204Q7 202 14 202T28 201Q53 201 67 212T87 248T95 314T96 416V722H757V0H471V527H372V332Q372 268 361 207T319 98T237 21T102 -9Z"  />
<glyph unicode="&#x41C;" horiz-adv-x="1056" d="M55 722H455L529 292L612 722H1002V0H766V518L657 0H400L291 518V0H55V722Z"  />
<glyph unicode="&#x41D;" horiz-adv-x="796" d="M52 722H338V475H458V722H744V0H458V266H338V0H52V722Z"  />
<glyph unicode="&#x41E;" horiz-adv-x="796" d="M397 -21Q310 -21 241 5T124 79T51 198T25 356Q25 447 50 519T124 640T244 715T406 741Q493 741 560 716T675 642T746 522T771 361Q771 272 745 202T671 82T554 6T397 -21ZM395 170Q417 170 432 180T457 215T470 278T474 377Q474 416 472 448T463 503T440 538T400 551Q352 551 336 502T320 353Q320 312 323 279T334 221T357 184T395 170Z"  />
<glyph unicode="&#x41F;" horiz-adv-x="796" d="M52 722H744V0H458V527H338V0H52V722Z"  />
<glyph unicode="&#x420;" horiz-adv-x="740" d="M51 722H456Q482 722 502 721T538 716T570 708T602 696Q660 672 694 615T728 485Q728 449 719 415T691 353T647 302T586 266Q568 259 552 255T517 248T475 244T420 243H338V0H51V722ZM354 407Q405 407 429 426T453 489Q453 527 431 544T362 561H338V407H354Z"  />
<glyph unicode="&#x421;" horiz-adv-x="758" d="M393 -19Q305 -19 237 6T121 80T49 199T24 361Q24 450 49 520T121 638T237 711T394 737Q467 737 529 721T636 670T706 581T731 450V449H468Q464 501 448 523T400 546Q372 546 356 532T333 492T323 434T321 363Q321 323 323 288T332 227T356 185T401 170Q433 170 449 192T468 266H736V265Q736 199 713 146T645 57T538 1T393 -19Z"  />
<glyph unicode="&#x422;" horiz-adv-x="648" d="M180 527H3V722H645V527H467V0H180V527Z"  />
<glyph unicode="&#x423;" horiz-adv-x="759" d="M249 203L-7 722H284L389 446L495 722H776L410 0H129L249 203Z"  />
<glyph unicode="&#x424;" horiz-adv-x="1007" d="M367 65Q296 65 233 83T124 140T50 235T23 371Q23 449 50 506T123 602T232 658T367 677V738H640V677Q712 677 774 659T883 602T957 507T984 371Q984 293 957 236T884 140T774 84T640 65V-19H367V65ZM377 493Q354 493 340 482T319 452T309 413T306 371Q306 351 308 330T318 290T340 261T377 249V493ZM630 249Q653 249 667 260T688 290T698 329T701 371Q701 391 699 412T689 452T667 481T630 493V249Z"  />
<glyph unicode="&#x425;" horiz-adv-x="778" d="M221 369L2 722H302L398 519L495 722H784L561 369L792 0H492L384 220L272 0H-14L221 369Z"  />
<glyph unicode="&#x426;" horiz-adv-x="824" d="M593 0H52V722H338V195H458V722H744V195H824V-142H593V0Z"  />
<glyph unicode="&#x427;" horiz-adv-x="783" d="M445 242Q439 240 422 238T383 234T342 230T310 228Q236 228 186 244T105 293T60 375T46 489V722H327V509Q327 466 343 448T389 430Q409 430 423 432T445 437V722H731V0H445V242Z"  />
<glyph unicode="&#x428;" horiz-adv-x="1200" d="M52 722H336V195H458V722H742V195H864V722H1148V0H52V722Z"  />
<glyph unicode="&#x429;" horiz-adv-x="1227" d="M996 0H51V722H335V195H457V722H741V195H863V722H1147V195H1227V-142H996V0Z"  />
<glyph unicode="&#x42A;" horiz-adv-x="864" d="M172 534H3V722H458V479H572Q648 479 700 462T786 412T833 336T848 237Q848 186 831 143T778 68T692 18T571 0H172V534ZM478 164Q534 164 554 185T574 243Q574 286 551 300T482 315H458V164H478Z"  />
<glyph unicode="&#x42B;" horiz-adv-x="1116" d="M52 722H338V479H452Q528 479 580 462T666 412T713 336T728 237Q728 186 711 143T658 68T572 18T451 0H52V722ZM358 164Q414 164 434 185T454 243Q454 286 431 300T362 315H338V164H358ZM778 722H1064V0H778V722Z"  />
<glyph unicode="&#x42C;" horiz-adv-x="744" d="M52 722H338V479H452Q528 479 580 462T666 412T713 336T728 237Q728 186 711 143T658 68T572 18T451 0H52V722ZM358 164Q414 164 434 185T454 243Q454 286 431 300T362 315H338V164H358Z"  />
<glyph unicode="&#x42D;" horiz-adv-x="758" d="M365 -19Q297 -19 236 -4T128 44T53 128T22 252H291Q295 206 313 186T363 165Q407 165 422 199T440 291H283V432H439Q436 491 420 521T361 551Q331 551 314 532T291 469H27Q30 541 57 591T129 674T234 722T364 737Q452 737 520 712T636 638T709 520T734 361Q734 270 710 200T638 81T522 7T365 -19Z"  />
<glyph unicode="&#x42E;" horiz-adv-x="1144" d="M751 -21Q598 -21 505 57T391 276H334V0H52V722H334V465H395Q421 598 514 669T760 741Q847 741 913 716T1026 642T1095 522T1119 361Q1119 272 1094 202T1022 82T907 6T751 -21ZM749 170Q771 170 786 180T809 215T821 278T825 377Q825 416 824 448T815 503T794 538T754 551Q706 551 692 502T677 353Q677 312 679 279T690 221T712 184T749 170Z"  />
<glyph unicode="&#x42F;" horiz-adv-x="772" d="M19 0Q30 34 36 62T48 125L56 193Q60 225 67 249T90 290T129 317T188 334Q120 354 83 401T46 518Q46 581 67 620T125 682T212 713T319 722H720V0H438V246H414Q387 246 372 244T348 230T335 198T324 138L319 105Q318 97 316 83T310 52T304 22T299 0H19ZM440 406V562H422Q365 562 342 545T319 486Q319 447 345 427T419 406H440Z"  />
<glyph unicode="&#x430;" horiz-adv-x="592" d="M191 -13Q107 -13 61 27T15 141Q15 196 41 231T106 285T194 311T287 318Q295 318 306 318T332 317V360Q332 400 286 400Q262 400 251 389T239 352H40V353Q40 376 48 399T71 440Q128 513 295 513Q361 513 407 504T489 475Q510 463 522 448T541 413T550 373T553 330V0H341L337 53Q308 18 274 3T191 -13ZM279 115Q309 115 322 133T335 197V223Q327 224 323 224T313 225Q224 225 224 163Q224 115 279 115Z"  />
<glyph unicode="&#x431;" horiz-adv-x="660" d="M334 -15Q242 -15 177 14T76 102Q64 121 56 141T43 187T36 243T34 316Q34 388 44 447T72 551Q95 607 153 646T308 697Q320 698 341 700T383 705T419 713T436 728H624Q624 683 616 652T586 599T531 565T444 549Q376 543 330 535T255 512T212 471T192 407Q205 432 226 448T272 474T322 487T371 491Q432 491 480 474T563 426T615 348T634 244Q634 186 616 138T560 56T466 4T334 -15ZM334 116Q346 116 355 121T370 139T380 177T384 239Q384 277 381 301T371 338T355 357T334 362Q322 362 313 357T298 339T288 301T284 239Q284 201 287 177T297 140T313 121T334 116Z"  />
<glyph unicode="&#x432;" horiz-adv-x="611" d="M36 500H400Q569 500 569 372Q569 321 544 298T474 262Q527 254 555 223T584 143Q584 98 559 65T493 17Q467 7 443 4T378 0H36V500ZM307 108Q362 108 362 157Q362 186 344 194T291 202H260V108H307ZM295 313Q315 313 332 320T349 354Q349 369 338 381T297 394H260V313H295Z"  />
<glyph unicode="&#x433;" horiz-adv-x="480" d="M40 500H477V340H282V0H40V500Z"  />
<glyph unicode="&#x434;" horiz-adv-x="679" d="M0 160H45Q59 191 66 224T76 291T79 359T79 426V500H616V160H674V-112H472V0H202V-112H0V160ZM379 160V352H307Q307 303 303 256T283 160H379Z"  />
<glyph unicode="&#x435;" horiz-adv-x="630" d="M312 -16Q245 -16 192 0T102 50T45 135T25 255Q25 326 48 376T112 459T209 505T331 520Q403 520 455 501T540 444T589 355T605 235V208H258V207V185Q258 151 272 129T325 106Q380 106 388 164H598Q598 152 594 139T583 112T568 86T553 65Q517 23 459 4T312 -16ZM388 315Q388 333 386 348T377 374T358 391T324 398Q304 398 291 392T271 375T261 348T258 315H388Z"  />
<glyph unicode="&#x436;" horiz-adv-x="942" d="M138 268L-2 500H260L350 289H352V500H590V289H592L682 500H944L804 268L954 0H692L592 243H590V0H352V243H350L250 0H-12L138 268Z"  />
<glyph unicode="&#x437;" horiz-adv-x="597" d="M296 -18Q232 -18 182 -8T97 24T44 81T26 167H244Q244 124 259 109T299 94Q354 94 354 152Q354 184 336 193T283 202H232V315H287Q307 315 324 323T341 361Q341 378 332 392T292 406Q268 406 255 394T241 347H35Q35 396 55 429T112 482T198 510T306 518Q440 518 497 481T555 379Q555 353 547 334T528 302T504 281T480 270V268Q495 265 511 257T541 235T562 204T571 163Q571 122 558 89T513 32T428 -5T296 -18Z"  />
<glyph unicode="&#x438;" horiz-adv-x="660" d="M36 500H264V275L381 500H624V0H396V228L279 0H36V500Z"  />
<glyph unicode="&#x439;" horiz-adv-x="660" d="M36 500H264V275L381 500H624V0H396V228L279 0H36V500ZM330 548Q292 548 257 558T194 589T150 643T133 722H281Q281 688 297 676T330 664Q347 664 363 677T380 722H527Q527 678 511 646T466 592T403 559T330 548Z"  />
<glyph unicode="&#x43A;" horiz-adv-x="630" d="M36 500H278V284H280L370 500H632L492 263L642 0H380L280 238H278V0H36V500Z"  />
<glyph unicode="&#x43B;" horiz-adv-x="663" d="M98 -7Q86 -7 70 -7T39 -4Q21 -2 4 0V153Q5 153 7 152T14 151Q44 151 59 167T80 209T86 267T87 334V500H627V0H385V340H311V247Q311 171 297 122T255 45T188 5T98 -7Z"  />
<glyph unicode="&#x43C;" horiz-adv-x="834" d="M36 500H358L418 182H420L480 500H798V0H586V326H584L518 0H320L250 326H248V0H36V500Z"  />
<glyph unicode="&#x43D;" horiz-adv-x="648" d="M36 500H278V342H370V500H612V0H370V178H278V0H36V500Z"  />
<glyph unicode="&#x43E;" horiz-adv-x="666" d="M318 -16Q255 -16 202 0T109 50T47 134T25 251Q25 320 48 371T111 455T207 504T327 521Q393 521 450 506T550 459T616 375T640 252Q640 176 616 125T548 43T446 -2T318 -16ZM332 117Q352 117 363 129T380 160T387 205T389 259Q389 328 376 357T334 387Q317 387 306 378T289 352T281 312T279 259Q279 224 280 198T287 153T303 126T332 117Z"  />
<glyph unicode="&#x43F;" horiz-adv-x="648" d="M36 500H612V0H370V340H278V0H36V500Z"  />
<glyph unicode="&#x440;" horiz-adv-x="666" d="M39 500H267L275 442Q330 516 424 516Q524 516 580 444T637 241Q637 120 583 52T433 -17Q385 -17 351 -4T285 44V-192H39V500ZM335 127Q356 127 367 138T383 168T389 208T390 250Q390 318 377 345T332 372Q314 372 304 364T288 340T281 302T280 251Q280 227 281 205T287 166T303 138T335 127Z"  />
<glyph unicode="&#x441;" horiz-adv-x="630" d="M325 -15Q258 -15 203 -1T109 45T48 128T26 253Q26 315 46 364T105 447T199 499T325 517Q456 517 529 461T603 302V301H380Q379 349 368 369T327 390Q305 390 294 379T277 345T270 293T269 225Q269 206 269 186T275 149T292 121T327 110Q345 110 355 120T371 144T378 175T380 206H607Q607 141 584 99T521 31T431 -5T325 -15Z"  />
<glyph unicode="&#x442;" horiz-adv-x="526" d="M142 340H3V500H523V340H384V0H142V340Z"  />
<glyph unicode="&#x443;" horiz-adv-x="630" d="M201 -15L-3 500H255L325 226L393 500H634L396 -192H135L201 -15Z"  />
<glyph unicode="&#x444;" horiz-adv-x="944" d="M350 18Q338 9 310 -2T249 -13Q195 -13 154 6T84 61T41 147T26 259Q26 314 39 361T77 442T141 496T230 516Q270 516 303 504T350 478V722H594V478Q607 491 640 503T714 516Q764 516 802 497T866 443T905 361T918 259Q918 197 904 147T861 62T791 7T695 -13Q662 -13 634 -2T594 18V-192H350V18ZM324 123Q332 123 340 126T354 135V363Q349 369 341 372T325 376Q295 376 285 344T274 252Q274 227 275 204T282 163T297 134T324 123ZM620 123Q636 123 646 134T661 163T668 204T670 252Q670 312 660 344T619 376Q612 376 604 373T590 363V135Q595 130 603 127T620 123Z"  />
<glyph unicode="&#x445;" horiz-adv-x="630" d="M140 267L2 500H260L312 368L358 500H615L488 267L643 0H389L315 150L254 0H-13L140 267Z"  />
<glyph unicode="&#x446;" horiz-adv-x="670" d="M468 0H36V500H278V160H370V500H612V160H670V-112H468V0Z"  />
<glyph unicode="&#x447;" horiz-adv-x="634" d="M356 175Q334 164 292 155T199 145Q161 145 130 155T77 186T42 243T30 328V500H267V351Q267 293 308 293Q320 293 333 297T356 308V500H598V0H356V175Z"  />
<glyph unicode="&#x448;" horiz-adv-x="968" d="M36 500H276V160H364V500H604V160H692V500H932V0H36V500Z"  />
<glyph unicode="&#x449;" horiz-adv-x="990" d="M788 0H36V500H276V160H364V500H604V160H692V500H932V160H990V-112H788V0Z"  />
<glyph unicode="&#x44A;" horiz-adv-x="711" d="M136 340H3V500H372V333H504Q556 333 593 321T652 287T685 233T696 165Q696 129 684 99T647 47T587 13T503 0H136V340ZM412 124Q441 124 454 134T467 172Q467 204 449 213T396 222H372V124H412Z"  />
<glyph unicode="&#x44B;" horiz-adv-x="928" d="M36 500H272V333H404Q456 333 493 321T552 287T585 233T596 165Q596 129 584 99T547 47T487 13T403 0H36V500ZM312 124Q341 124 354 134T367 172Q367 204 349 213T296 222H272V124H312ZM650 500H892V0H650V500Z"  />
<glyph unicode="&#x44C;" horiz-adv-x="611" d="M36 500H272V333H404Q456 333 493 321T552 287T585 233T596 165Q596 129 584 99T547 47T487 13T403 0H36V500ZM312 124Q341 124 354 134T367 172Q367 204 349 213T296 222H272V124H312Z"  />
<glyph unicode="&#x44D;" horiz-adv-x="630" d="M305 -15Q252 -15 204 -6T117 25T54 85T24 180H250Q252 153 263 130T303 107Q321 107 332 112T350 129T359 159T363 204H240V313H362Q360 350 348 372T305 395Q280 395 268 381T252 337H29Q42 423 114 470T305 517Q375 517 430 499T524 447T583 364T604 253Q604 179 583 128T522 45T427 -1T305 -15Z"  />
<glyph unicode="&#x44E;" horiz-adv-x="958" d="M610 -16Q555 -16 507 -4T422 34T360 98T326 188H278V0H36V500H278V332H329Q354 428 432 474T619 521Q685 521 742 506T842 459T908 375T932 252Q932 176 908 125T840 43T738 -2T610 -16ZM624 117Q644 117 655 129T672 160T679 205T681 259Q681 328 668 357T626 387Q609 387 598 378T581 352T573 312T571 259Q571 224 572 198T579 153T595 126T624 117Z"  />
<glyph unicode="&#x44F;" horiz-adv-x="625" d="M15 0Q27 42 33 81T48 151Q56 178 74 197T126 218V221Q114 223 98 231T66 255T41 294T30 351Q30 378 38 405T68 453T124 487T212 500H589V0H353V164H323Q312 164 305 159T294 145T287 128T284 109Q282 91 276 59T265 0H15ZM353 276V376H329Q290 376 274 366T258 327Q258 300 276 288T327 276H353Z"  />
<glyph unicode="&#x451;" horiz-adv-x="630" d="M312 -16Q245 -16 192 0T102 50T45 135T25 255Q25 326 48 376T112 459T209 505T331 520Q403 520 455 501T540 444T589 355T605 235V208H258V207V185Q258 151 272 129T325 106Q380 106 388 164H598Q598 152 594 139T583 112T568 86T553 65Q517 23 459 4T312 -16ZM388 315Q388 333 386 348T377 374T358 391T324 398Q304 398 291 392T271 375T261 348T258 315H388ZM113 722H277V552H113V722ZM353 722H517V552H353V722Z"  />
<glyph unicode="&#x452;" horiz-adv-x="655" d="M304 -65Q309 -65 314 -65T325 -66Q361 -66 369 -47T377 13V291Q377 350 333 350Q318 350 310 344T296 328T290 307T288 283V0H44V532H-27V670H44V722H288V670H436V532H288V417Q314 461 350 480T444 500Q500 500 534 484T587 439T612 374T619 297V10Q619 -62 601 -102T551 -163T479 -189T394 -194Q385 -194 374 -194T349 -194T325 -193T304 -191V-65Z"  />
<glyph unicode="&#x453;" horiz-adv-x="480" d="M40 500H477V340H282V0H40V500ZM213 722H445L291 552H115L213 722Z"  />
<glyph unicode="&#x454;" horiz-adv-x="630" d="M325 -15Q258 -15 203 -1T109 45T48 128T26 253Q26 315 46 364T105 447T199 499T325 517Q444 517 516 470T601 337H378Q374 366 362 380T325 395Q294 395 282 373T268 313H390V204H267Q268 151 280 129T327 107Q356 107 367 130T380 180H606Q601 123 576 86T513 26T426 -6T325 -15Z"  />
<glyph unicode="&#x455;" horiz-adv-x="592" d="M286 -19Q236 -19 189 -12T105 16T45 71T22 162H243Q243 94 298 94Q349 94 349 139Q349 165 322 174T242 191L219 194Q118 207 75 243T31 345Q31 400 56 434T120 487T206 512T297 519Q425 519 489 477T554 351V350H346V355Q346 383 334 395T295 407Q246 407 246 368Q246 344 268 338T343 322L391 314Q422 309 458 298T515 273Q541 258 555 228T569 159Q569 117 555 87T509 33Q472 5 421 -7T286 -19Z"  />
<glyph unicode="&#x456;" horiz-adv-x="314" d="M38 500H276V0H38V500ZM38 722H276V569H38V722Z"  />
<glyph unicode="&#x457;" horiz-adv-x="314" d="M36 500H278V0H36V500ZM-45 722H119V552H-45V722ZM195 722H359V552H195V722Z"  />
<glyph unicode="&#x458;" horiz-adv-x="314" d="M-50 -65Q-45 -65 -40 -65T-29 -66Q11 -66 23 -51Q37 -34 37 13V500H275V-10Q275 -72 262 -105T217 -160Q202 -170 186 -176T147 -187T93 -192T19 -194Q-16 -194 -50 -191V-65ZM37 722H275V569H37V722Z"  />
<glyph unicode="&#x459;" horiz-adv-x="966" d="M98 -7Q86 -7 70 -7T39 -4Q21 -2 4 0V153Q5 153 7 152T14 151Q44 151 59 167T80 209T86 267T87 334V500H627V333H759Q811 333 848 321T907 287T940 233T951 165Q951 129 939 99T902 47T842 13T758 0H385V340H311V247Q311 171 297 122T255 45T188 5T98 -7ZM667 124Q696 124 709 134T722 172Q722 204 704 213T651 222H627V124H667Z"  />
<glyph unicode="&#x45A;" horiz-adv-x="951" d="M36 500H278V333H370V500H612V333H744Q796 333 833 321T892 287T925 233T936 165Q936 129 924 99T887 47T827 13T743 0H370V222H278V0H36V500ZM652 124Q681 124 694 134T707 172Q707 204 689 213T636 222H612V124H652Z"  />
<glyph unicode="&#x45B;" horiz-adv-x="655" d="M44 532H-27V670H44V722H288V670H436V532H288V417Q314 461 350 480T444 500Q500 500 534 484T587 439T612 374T619 297V0H377V291Q377 350 333 350Q318 350 310 344T296 328T290 307T288 283V0H44V532Z"  />
<glyph unicode="&#x45C;" horiz-adv-x="630" d="M36 500H278V284H280L370 500H632L492 263L642 0H380L280 238H278V0H36V500ZM288 722H520L366 552H190L288 722Z"  />
<glyph unicode="&#x45E;" horiz-adv-x="630" d="M201 -15L-3 500H255L325 226L393 500H634L396 -192H135L201 -15ZM330 548Q292 548 257 558T194 589T150 643T133 722H281Q281 688 297 676T330 664Q347 664 363 677T380 722H527Q527 678 511 646T466 592T403 559T330 548Z"  />
<glyph unicode="&#x45F;" horiz-adv-x="648" d="M223 0H36V500H278V160H370V500H612V0H425V-112H223V0Z"  />
<glyph unicode="&#x490;" horiz-adv-x="593" d="M51 722H369V862H590V527H337V0H51V722Z"  />
<glyph unicode="&#x491;" horiz-adv-x="480" d="M40 500H302V612H477V340H282V0H40V500Z"  />
<glyph unicode="&#x2013;" horiz-adv-x="500" d="M0 182V349H500V182H0Z"  />
<glyph unicode="&#x2014;" horiz-adv-x="1000" d="M0 182V349H1000V182H0Z"  />
<glyph unicode="&#x2018;" horiz-adv-x="352" d="M254 423H22L138 722H329L254 423Z"  />
<glyph unicode="&#x2019;" horiz-adv-x="352" d="M214 423H23L98 722H330L214 423Z"  />
<glyph unicode="&#x201A;" horiz-adv-x="352" d="M214 -90H23L98 208H330L214 -90Z"  />
<glyph unicode="&#x201C;" horiz-adv-x="592" d="M512 423H281L396 722H587L512 423ZM237 423H5L121 722H312L237 423Z"  />
<glyph unicode="&#x201D;" horiz-adv-x="592" d="M472 423H281L356 722H587L472 423ZM196 423H5L80 722H312L196 423Z"  />
<glyph unicode="&#x201E;" horiz-adv-x="592" d="M471 -90H280L355 208H586L471 -90ZM195 -90H4L79 208H311L195 -90Z"  />
<glyph unicode="&#x2020;" horiz-adv-x="704" d="M455 412V0H250V412H87V576H250V722H455V576H617V412H455Z"  />
<glyph unicode="&#x2021;" horiz-adv-x="704" d="M450 113V0H254V113H87V269H254V449H87V602H254V722H450V602H617V449H450V269H617V113H450Z"  />
<glyph unicode="&#x2022;" horiz-adv-x="500" d="M431 360Q431 322 417 290T378 232T320 193T250 179Q212 179 180 193T122 232T83 289T69 360Q69 397 83 430T122 488T179 527T250 541Q287 541 320 527T378 488T417 430T431 360Z"  />
<glyph unicode="&#x2026;" horiz-adv-x="1000" d="M46 206H288V0H46V206ZM379 206H621V0H379V206ZM712 206H954V0H712V206Z"  />
<glyph unicode="&#x2030;" horiz-adv-x="1166" d="M3 509Q3 563 13 606T44 679T98 725T180 741Q254 741 298 686T343 525Q343 471 333 428T302 355T248 309T166 293Q92 293 48 348T3 509ZM139 517Q139 480 140 457T146 421T156 404T173 399Q183 399 189 403T200 421T205 457T207 517Q207 554 206 577T200 613T190 630T173 635Q163 635 157 631T146 613T141 577T139 517ZM451 197Q451 251 461 294T492 367T546 413T628 429Q702 429 746 374T791 213Q791 159 781 116T750 43T696 -3T614 -19Q540 -19 496 36T451 197ZM587 205Q587 168 588 145T594 109T604 92T621 87Q631 87 637 91T648 109T653 145T655 205Q655 242 654 265T648 301T638 318T621 323Q611 323 605 319T594 301T589 265T587 205ZM823 197Q823 251 833 294T864 367T918 413T1000 429Q1074 429 1118 374T1163 213Q1163 159 1153 116T1122 43T1068 -3T986 -19Q912 -19 868 36T823 197ZM959 205Q959 168 960 145T966 109T976 92T993 87Q1003 87 1009 91T1020 109T1025 145T1027 205Q1027 242 1026 265T1020 301T1010 318T993 323Q983 323 977 319T966 301T961 265T959 205ZM544 747H650L247 -25H141L544 747Z"  />
<glyph unicode="&#x2039;" horiz-adv-x="352" d="M153 0L1 250L153 500H347L237 250L347 0H153Z"  />
<glyph unicode="&#x203A;" horiz-adv-x="352" d="M199 0H5L115 248L5 500H199L351 248L199 0Z"  />
<glyph unicode="&#x20AC;" horiz-adv-x="704" d="M697 209Q697 149 673 106T607 36T512 -5T398 -19Q330 -19 277 -2T185 49T120 129T82 234H10L36 327H70V381H10L36 474H82Q95 532 121 578T187 657T280 707T399 725Q459 725 513 714T608 676T673 608T697 505H449Q447 546 433 558T400 570Q374 570 362 545T344 474H509L483 381H341V327H467L441 234H345Q350 189 362 163T400 136Q421 136 434 151T449 209H697Z"  />
<glyph unicode="&#x2116;" horiz-adv-x="1310" d="M51 722H384L537 285H539V722H781V0H448L295 442H293V0H51V722ZM829 117H1280V0H829V117ZM1054 158Q995 158 953 169T883 202T842 252T829 318Q829 354 842 383T882 433T952 465T1054 477Q1114 477 1156 466T1226 433T1267 383T1280 318Q1280 246 1227 202T1054 158ZM1055 252Q1073 252 1082 266T1092 320Q1092 355 1083 369T1055 383Q1036 383 1027 368T1017 314Q1017 279 1026 266T1055 252Z"  />
<glyph unicode="&#x2122;" horiz-adv-x="1000" d="M754 366V627L675 366H596L517 627V366H418V722H578L635 532L692 722H852V366H754ZM285 639V366H179V639H76V722H388V639H285Z"  />

</font>
</defs>
</svg>
