<?xml  version="1.0" encoding="UTF-8"?>
<!DOCTYPE svg PUBLIC "-//W3C//DTD SVG 1.0//EN" "http://www.w3.org/TR/2001/REC-SVG-20010904/DTD/svg10.dtd" >
<svg xmlns="http://www.w3.org/2000/svg" >
<metadata>
<version>1.0</version>
<id><![CDATA[Bembo MT W01 Extra Bold Italic]]></id>
<vendor>Monotype Imaging Inc.</vendor>
<credits>
<name>Fonts.com WebFonts</name>
<URL>http://webfonts.fonts.com</URL>
<role>Home of the Web fonts</role>
</credits>
<license>
<URL>http://webfonts.fonts.com/Legal</URL>
</license>
<copyright><![CDATA[Font software Copyright 1990, 2002 Adobe Systems Incorporated. Type design Copyright 1990, 2002 The Monotype Corporation. All rights reserved.]]></copyright>
<trademark><![CDATA[Bembo is a registered trademark of The Monotype Corporation in the United States and/or other countries; MT is a trademark of Monotype Imaging; Inc. Registered in U.S. Patent & Trademark Office and may be registered in certain other jurisdictions.]]></trademark>
<licensee>
<name></name>
</licensee>
</metadata>
<defs >
<font horiz-adv-x="551" id="e14bc710-43e3-4765-a373-234cd8a889ce">
<font-face font-family="" panose-1="2 2 10 3 5 4 5 9 3 4" ascent="866" descent="-237" units-per-em="1000" alphabetic="0">
</font-face>
<missing-glyph horiz-adv-x="0" />

<glyph unicode="&#xA;" />
<glyph unicode="&#xD;" horiz-adv-x="0" />
<glyph unicode=" " horiz-adv-x="333" />
<glyph unicode="!" horiz-adv-x="333" d="M182 542Q184 576 186 594T195 622T215 632T252 634H302Q334 634 345 628T356 605Q356 599 353 585T344 558L203 190H161L182 542ZM75 64Q75 101 99 125T160 150Q195 150 216 128T238 71Q238 35 214 12T152 -12Q117 -12 96 9T75 64Z"  />
<glyph unicode="&quot;" horiz-adv-x="564" d="M423 500Q418 517 416 533T413 563Q413 595 433 616T485 638Q516 638 536 617T557 563Q557 550 555 534T547 500L497 313H473L423 500ZM187 500Q182 517 180 533T177 563Q177 595 197 616T249 638Q280 638 300 617T321 563Q321 550 319 534T311 500L261 313H237L187 500Z"  />
<glyph unicode="#" horiz-adv-x="668" d="M190 492L230 680H322L283 492H456L496 680H588L549 492H630V400H529L498 253H630V161H478L439 -25H347L386 161H212L173 -25H81L120 161H38V253H140L171 400H38V492H190ZM232 253H406L437 400H263L232 253Z"  />
<glyph unicode="$" horiz-adv-x="477" d="M332 671H375L365 622Q428 614 462 584T497 505Q497 472 479 452T431 431Q407 431 392 445T377 481Q377 495 379 508T382 530Q382 552 377 561T355 579L314 373Q358 330 383 300T422 246T440 202T444 158Q444 81 389 35T236 -12L218 -97H175L193 -12Q122 -5 84 26T45 103Q45 133 63 153T110 174Q136 174 154 156T172 110Q172 105 171 94T169 74Q169 57 178 46T201 29L245 245Q209 282 187 309T152 359T135 402T130 446Q130 480 142 512T179 568T239 607T322 622L332 671ZM313 579Q243 565 243 494Q243 472 251 453T279 411L313 579ZM244 29Q279 37 299 61T320 121Q320 144 312 162T280 207L244 29Z"  />
<glyph unicode="%" horiz-adv-x="739" d="M251 611Q240 611 230 593T207 523L189 451Q186 439 183 425T178 396T175 371T173 354Q173 326 189 326Q200 326 212 346T234 409L251 481Q259 514 264 541T269 583Q269 611 251 611ZM86 418Q86 460 100 500T138 570T192 619T256 638Q301 638 328 604T356 514Q356 474 341 436T302 367T248 318T186 299Q141 299 114 332T86 418ZM87 -37L633 638H718L172 -37H87ZM474 111Q474 153 488 193T526 263T580 312T644 331Q689 331 716 297T744 207Q744 167 729 129T690 60T636 11T574 -8Q529 -8 502 25T474 111ZM639 304Q628 304 618 286T595 216L577 144Q574 132 571 118T566 89T563 64T561 47Q561 19 577 19Q588 19 600 39T622 102L639 174Q647 207 652 234T657 276Q657 304 639 304Z"  />
<glyph unicode="&amp;" horiz-adv-x="784" d="M390 322Q379 322 360 324T332 326Q311 326 293 317T263 291T243 252T236 204Q236 182 243 155T269 104T322 64T409 48Q454 48 492 58T558 87T602 131T618 187Q618 229 590 251T522 274Q499 274 484 268T469 253Q469 248 477 244T494 233T511 218T519 195Q519 175 505 163T469 150Q441 150 422 172T403 227Q403 253 416 276T451 316T503 342T568 352Q596 352 615 350T650 344T676 338T698 335Q714 335 714 345Q714 352 709 357T699 367T688 381T683 402Q683 423 698 435T736 448Q763 448 780 431T797 385Q797 337 759 302T655 256Q666 235 670 220T674 187Q674 154 657 118T602 52T503 3T352 -16Q263 -16 208 5T122 56T81 120T70 180Q70 255 118 299T252 358V360Q201 371 175 396T148 463Q148 498 166 529T219 585T306 623T426 638Q518 638 565 611T613 534Q613 502 594 483T544 463Q527 463 517 468T499 480Q488 490 485 502T481 526T477 549T465 570Q461 574 450 580T419 586Q390 586 368 574T332 542T311 497T304 446Q304 384 353 384Q361 384 373 385T389 386Q417 386 417 357Q417 322 390 322Z"  />
<glyph unicode="&apos;" horiz-adv-x="297" d="M147 500Q142 517 140 533T137 563Q137 595 157 616T209 638Q240 638 260 617T281 563Q281 550 279 534T271 500L221 313H197L147 500Z"  />
<glyph unicode="(" horiz-adv-x="333" d="M224 -232Q149 -125 116 -26T82 160Q82 317 166 445T402 671L439 639Q367 577 322 499T252 340T217 183T208 48Q208 -20 223 -82T268 -207L224 -232Z"  />
<glyph unicode=")" horiz-adv-x="333" d="M162 671Q237 564 270 465T304 279Q304 121 220 -6T-16 -232L-53 -200Q19 -138 64 -60T134 99T169 256T178 391Q178 459 163 521T118 646L162 671Z"  />
<glyph unicode="*" horiz-adv-x="477" d="M353 222L256 345L125 267L92 299L182 430L69 531L92 571L238 526L302 671L347 663V504L498 489L506 447L360 393L395 238L353 222Z"  />
<glyph unicode="+" horiz-adv-x="667" d="M319 383V603H424V383H644V278H424V58H319V278H99V383H319Z"  />
<glyph unicode="&#x2c;" horiz-adv-x="333" d="M20 -134Q127 -99 127 -35Q127 -15 120 -1T105 27T90 52T83 80Q83 109 105 129T159 150Q200 150 225 120T251 43Q251 5 236 -29T192 -92T124 -140T37 -169L20 -134Z"  />
<glyph unicode="-" horiz-adv-x="397" d="M74 255H377L355 147H52L74 255Z"  />
<glyph unicode="." horiz-adv-x="333" d="M75 64Q75 101 99 125T161 150Q195 150 216 128T238 71Q238 35 214 12T152 -12Q117 -12 96 9T75 64Z"  />
<glyph unicode="/" horiz-adv-x="278" d="M123 -16H38L231 671H316L123 -16Z"  />
<glyph unicode="0" horiz-adv-x="523" d="M79 213Q79 303 105 380T171 515T262 605T359 638Q395 638 425 621T476 573T508 498T520 400Q520 324 496 250T432 116T343 21T242 -16Q206 -16 176 1T125 48T91 120T79 213ZM355 595Q342 595 330 586T307 554T285 494T263 403L238 283Q232 255 227 224T217 164T211 114T208 87Q211 27 245 27Q275 27 296 82T338 235L373 411Q376 424 379 441T384 477T389 510T391 534Q391 595 355 595Z"  />
<glyph unicode="1" horiz-adv-x="523" d="M150 449Q238 490 298 535T400 638H461L361 147Q358 133 356 114T353 87Q353 62 369 52T426 41L418 0H114L122 41Q144 42 159 47T184 64T202 96T216 147L282 470Q251 452 213 433T140 399L150 449Z"  />
<glyph unicode="2" horiz-adv-x="523" d="M409 0H32V44Q124 136 185 204T282 325T333 417T348 491Q348 567 283 567Q251 567 222 542T172 469H128Q149 550 203 594T336 638Q373 638 404 628T457 598T491 553T503 494Q503 465 493 438T459 381T400 317T313 240L180 128H294Q324 128 342 128T373 134T391 149T401 181H446L409 0Z"  />
<glyph unicode="3" horiz-adv-x="523" d="M194 360Q224 377 249 397T292 439T320 482T330 523Q330 542 318 553T286 564Q246 564 193 515L161 545Q199 590 245 614T348 638Q408 638 441 612T474 541Q474 502 441 468T330 405V403Q381 397 409 365T437 281Q437 225 410 172T339 77T239 10T124 -16Q34 -16 34 51Q34 77 50 95T87 114Q107 114 120 104T146 81T170 58T199 47Q217 47 233 61T260 101T277 162T284 238Q284 328 237 328Q229 328 215 323T183 306L194 360Z"  />
<glyph unicode="4" horiz-adv-x="523" d="M207 -16L239 145H73V263L410 638H474L394 249H494L473 145H373L341 -16H207ZM302 450L300 452L119 249H260L302 450Z"  />
<glyph unicode="5" horiz-adv-x="523" d="M521 638L492 497Q480 495 470 494T449 493Q431 493 401 494T345 495Q316 495 296 494T268 491L246 412Q261 416 276 418Q284 419 291 419T305 420Q333 420 357 410T398 382T424 338T434 281Q434 225 409 172T341 77T246 10T136 -16Q96 -16 73 1T50 48Q50 76 65 95T103 115Q122 115 137 105T166 83T190 60T214 50Q230 50 247 66T279 106T302 161T311 222Q311 255 295 275T252 296Q239 296 226 291T197 274L166 304L255 622Q262 622 272 622T293 623T315 623T334 624Q360 624 389 623T441 622Q457 622 465 626T479 638H521Z"  />
<glyph unicode="6" horiz-adv-x="523" d="M542 594Q494 582 453 555T378 492T321 418T282 342Q301 350 321 354T361 359Q414 359 448 324T483 226Q483 178 464 134T412 57T337 4T247 -16Q172 -16 129 34T85 170Q85 263 126 344T234 486T384 587T551 638L542 594ZM260 286Q250 259 242 227T227 164T218 109T215 70Q215 31 240 31Q253 31 265 46T288 86T308 140T324 195T334 242T338 271Q338 305 307 305Q290 305 260 286Z"  />
<glyph unicode="7" horiz-adv-x="523" d="M530 585L269 -16H158L426 496H234Q212 496 199 493T176 481T161 454T147 408H106L158 622H530V585Z"  />
<glyph unicode="8" horiz-adv-x="523" d="M221 306Q193 344 175 379T156 454Q156 494 171 527T214 585T278 624T359 638Q432 638 474 604T517 511Q517 480 504 455T469 410T421 376T370 352Q417 304 439 262T461 177Q461 136 444 101T398 40T328 -1T241 -16Q203 -16 172 -6T119 22T85 66T72 123Q72 145 78 164T100 204T145 249T221 306ZM342 383Q370 411 385 446T400 517Q400 552 384 573T342 595Q310 595 288 570T266 509Q266 483 284 454T342 383ZM251 273Q218 240 204 200T190 120Q190 75 207 51T255 27Q286 27 309 54T332 127Q332 144 329 159T316 192T292 228T251 273Z"  />
<glyph unicode="9" horiz-adv-x="523" d="M59 28Q107 40 148 67T223 130T280 204T319 280Q300 272 280 268T240 263Q187 263 153 298T118 396Q118 444 137 488T189 565T264 618T354 638Q429 638 472 588T516 452Q516 359 475 278T367 136T217 34T50 -16L59 28ZM341 336Q351 363 359 395T374 458T383 513T386 552Q386 591 361 591Q348 591 336 576T313 536T293 482T277 427T267 379T263 351Q263 317 294 317Q311 317 341 336Z"  />
<glyph unicode=":" horiz-adv-x="333" d="M130 334Q130 371 154 395T216 420Q250 420 271 398T293 341Q293 305 269 282T207 258Q172 258 151 279T130 334ZM75 64Q75 101 99 125T161 150Q195 150 216 128T238 71Q238 35 214 12T152 -12Q117 -12 96 9T75 64Z"  />
<glyph unicode=";" horiz-adv-x="333" d="M20 -134Q127 -99 127 -35Q127 -15 120 -1T105 27T90 52T83 80Q83 109 105 129T159 150Q200 150 225 120T251 43Q251 5 236 -29T192 -92T124 -140T37 -169L20 -134ZM130 334Q130 371 154 395T216 420Q250 420 271 398T293 341Q293 305 269 282T207 258Q172 258 151 279T130 334Z"  />
<glyph unicode="&lt;" horiz-adv-x="667" d="M100 377L643 599V490L243 330L643 170V61L100 283V377Z"  />
<glyph unicode="=" horiz-adv-x="667" d="M644 500V395H99V500H644ZM644 265V160H99V265H644Z"  />
<glyph unicode="&gt;" horiz-adv-x="667" d="M643 283L100 61V170L500 330L100 490V599L643 377V283Z"  />
<glyph unicode="?" horiz-adv-x="388" d="M143 191Q143 256 152 303T187 375Q206 394 229 406T273 427T311 441T337 457Q348 468 348 483Q348 499 338 509T310 519Q292 519 273 514T235 502T198 490T164 484Q135 484 118 501T100 546Q100 588 136 611T237 634Q319 634 363 592T407 469Q407 428 397 391T368 327Q351 301 327 287T278 262T231 242T195 220Q193 218 189 209T183 191H143ZM57 64Q57 101 81 125T142 150Q177 150 198 128T220 71Q220 35 196 12T134 -12Q99 -12 78 9T57 64Z"  />
<glyph unicode="@" horiz-adv-x="927" d="M758 502L659 168Q651 142 647 120T643 86Q643 68 655 56T687 43Q702 43 725 52T773 79T825 124T871 188T905 271T918 374Q918 449 893 511T823 617T714 686T574 711Q452 711 363 665T216 547T129 388T100 216Q100 123 131 46T217 -88T350 -176T519 -207Q592 -207 660 -187T787 -128T890 -34T960 89H992Q928 -69 807 -153T518 -237Q414 -237 327 -202T177 -105T79 44T43 234Q43 345 82 438T190 600T354 707T562 745Q661 745 733 715T853 634T924 518T948 382Q948 316 928 248T867 125T765 35T624 0Q574 0 546 25T517 95Q517 107 520 126T530 166L528 168Q486 91 441 46T345 0Q303 0 279 32T255 121Q255 173 268 222T303 316T353 397T413 460T474 502T532 517Q565 517 583 498T608 435H610L627 497L758 502ZM393 150Q393 128 401 114T424 99Q441 99 468 126T521 198T565 297T584 407Q584 439 574 459T546 479Q529 479 512 462T477 417T445 354T418 282T400 211T393 150Z"  />
<glyph unicode="A" horiz-adv-x="730" d="M696 0H355L365 49Q393 49 412 51T444 61T462 86T468 130L467 235H248L192 159Q178 141 170 123T162 94Q162 74 177 62T235 49L225 0H-36L-26 49Q-3 49 16 54T53 73T90 107T132 159L485 638H610L617 145Q617 115 620 97T633 68T659 53T706 49L696 0ZM464 526H462L296 300H466L464 526Z"  />
<glyph unicode="B" horiz-adv-x="679" d="M446 622Q565 622 620 587T675 487Q675 430 632 394T505 345V343Q650 302 650 194Q650 159 635 125T588 62T506 17T384 0H6L16 49Q40 51 57 55T86 70T106 102T123 161L186 466Q189 481 191 497T193 522Q193 551 175 562T106 573L116 622H446ZM316 375Q354 375 389 378T452 394T496 429T513 491Q513 519 501 535T468 558T419 568T356 570L316 375ZM272 163Q266 134 265 123T263 103Q263 78 282 65T337 52Q383 52 412 69T459 110T482 162T488 210Q488 272 445 297T305 323L272 163Z"  />
<glyph unicode="C" horiz-adv-x="730" d="M685 164L632 -10H591Q582 3 567 3Q556 3 537 0T493 -6T441 -13T389 -16Q321 -16 265 4T168 61T105 149T82 262Q82 300 92 343T123 427T179 507T263 574T378 621T528 638Q595 638 649 629T756 598L714 428H665Q663 499 625 542T507 586Q442 586 394 556T313 477T264 367T248 242Q248 141 292 89T421 36Q487 36 539 67T636 164H685Z"  />
<glyph unicode="D" horiz-adv-x="820" d="M415 622Q471 622 518 620T591 613Q698 594 757 525T817 344Q817 288 797 228T731 117T609 33T420 0H17L27 49Q51 49 68 53T98 70T119 105T135 161L197 466Q204 501 204 522Q204 551 186 562T118 573L127 622H415ZM284 163Q279 138 277 126T275 105Q275 52 355 52Q427 52 482 75T575 138T632 234T651 354Q651 398 639 437T600 506T528 553T417 570H366L284 163Z"  />
<glyph unicode="E" horiz-adv-x="676" d="M689 622L656 461H604Q608 522 579 546T487 570H366L318 340H425Q458 340 478 343T511 355T530 376T541 408H593L551 198H499Q505 228 503 246T489 273T459 285T410 288H308L279 146Q276 132 275 123T274 105Q274 76 294 64T361 52Q397 52 429 57T489 75T544 109T597 161H649L591 0H22L32 49Q56 50 72 55T99 73T118 107T133 161L195 467Q203 505 203 522Q203 551 184 562T114 573L124 622H689Z"  />
<glyph unicode="F" horiz-adv-x="613" d="M9 0L19 49Q44 49 61 52T92 68T113 101T130 159L192 464Q195 481 197 496T199 521Q199 554 179 563T109 573L119 622H680L648 463H596Q596 498 588 519T561 551T515 566T448 570H363L316 341H429Q460 341 480 344T513 356T533 376T544 408H596L554 201H502Q508 231 506 248T493 275T462 286T413 289H305L279 159Q275 141 273 125T271 99Q271 70 293 60T365 49L355 0H9Z"  />
<glyph unicode="G" horiz-adv-x="810" d="M539 264H825L815 215Q797 214 781 208T755 193Q748 186 742 174T731 147T724 117T721 89Q721 69 730 62T762 58L754 19Q722 11 685 5T609 -6T529 -13T452 -16Q346 -16 276 11T163 80T104 173T86 274Q86 329 108 392T182 510T317 601T521 638Q547 638 579 636T646 630T713 619T774 605L781 603L785 427H733Q713 502 655 544T516 586Q445 586 395 554T313 474T267 370T252 264Q252 217 262 176T296 103T357 54T449 36Q513 36 548 66T583 155Q583 184 571 198T529 215L539 264Z"  />
<glyph unicode="H" horiz-adv-x="820" d="M601 359L622 463Q625 477 627 494T629 521Q629 548 612 560T551 573L561 622H897L887 573Q859 573 840 569T808 552T787 519T771 463L709 159Q705 139 703 123T700 98Q700 75 718 63T781 49L771 0H435L445 49Q470 49 488 52T520 67T543 101T560 159L586 287H302L276 159Q272 139 270 123T267 98Q267 71 288 60T358 49L348 0H5L15 49Q46 50 65 56T96 76T114 109T127 159L189 463Q194 484 195 497T197 521Q197 548 180 560T113 573L123 622H463L453 573H447Q421 573 404 568T374 551T353 517T338 463L317 359H601Z"  />
<glyph unicode="I" horiz-adv-x="388" d="M456 622L446 573Q419 573 401 568T370 551T351 518T336 464L268 131Q263 108 264 92T276 67T307 53T359 49L349 0H-3L7 49Q39 49 59 55T92 74T112 108T125 159L187 464Q192 485 193 498T195 521Q195 550 177 561T114 573L124 622H456Z"  />
<glyph unicode="J" horiz-adv-x="388" d="M462 622L452 573Q424 573 405 570T373 554T352 521T337 464L265 55Q256 4 238 -47T183 -139T89 -206T-55 -232Q-72 -232 -89 -229T-121 -220T-145 -207T-154 -190Q-154 -180 -146 -163T-125 -129T-96 -100T-64 -87Q-52 -87 -37 -99T-7 -126T23 -153T52 -165Q67 -165 76 -143T96 -64L187 464Q189 479 190 493T192 518Q192 548 176 560T114 573L124 622H462Z"  />
<glyph unicode="K" horiz-adv-x="748" d="M761 0H544L347 300L303 272L280 159Q277 142 275 125T273 99Q273 73 292 62T356 49L346 0H15L25 49Q52 50 69 56T98 75T117 108T131 159L194 465Q197 480 199 496T201 521Q201 552 182 563T111 573L121 622H473L463 573Q434 573 415 570T382 555T359 523T343 465L318 343L513 465Q542 483 559 495T586 515T599 529T602 544Q602 558 592 565T556 573L566 622H859L849 573Q825 573 804 568T758 551T706 522T643 483L473 377L605 174Q629 137 648 113T686 76T725 56T771 49L761 0Z"  />
<glyph unicode="L" horiz-adv-x="613" d="M596 0H10L20 49Q47 49 65 54T96 71T116 105T131 161L193 464Q196 478 198 495T200 521Q200 534 197 544T184 560T157 570T111 573L121 622H479L469 573Q439 573 419 571T384 557T359 523T342 464L286 191Q283 177 281 163T276 135T273 113T271 100Q271 76 294 64T368 52Q408 52 440 57T498 73T548 104T595 151H647L596 0Z"  />
<glyph unicode="M" horiz-adv-x="910" d="M526 0L536 49Q567 51 585 58T615 79T632 113T643 159L710 482L708 484L397 0H337L260 504H258L177 199Q162 143 162 117Q162 87 184 68T241 49L231 0H0L10 49Q35 52 51 58T78 80T99 121T120 189L195 466Q206 508 206 526Q206 551 187 562T117 573L127 622H390L457 189L738 622H972L962 573Q937 572 920 567T890 549T870 517T855 466L792 159Q788 142 786 124T784 98Q784 70 804 60T875 49L865 0H526Z"  />
<glyph unicode="N" horiz-adv-x="775" d="M7 0L17 49Q42 50 58 57T86 81T106 122T122 186L190 520Q166 551 148 562T102 573L112 622H297L620 186L673 447Q676 464 678 481T681 506Q681 570 603 573L613 622H853L843 573Q818 570 800 563T767 540T742 497T722 425L635 -6H581L232 467L177 199Q172 172 170 156T166 124Q168 89 188 72T252 49L242 0H7Z"  />
<glyph unicode="O" horiz-adv-x="838" d="M88 281Q88 356 114 421T191 534T315 610T484 638Q562 638 625 617T732 556T801 460T825 335Q825 257 796 193T715 82T589 10T429 -16Q342 -16 278 8T172 74T109 168T88 281ZM250 238Q250 193 262 156T298 92T353 51T424 36Q468 36 502 53T563 98T609 163T640 236T657 311T663 377Q663 474 617 530T491 586Q428 586 383 551T308 464T264 351T250 238Z"  />
<glyph unicode="P" horiz-adv-x="652" d="M2 0L12 49Q44 50 64 56T96 74T115 107T128 159L191 466Q195 485 197 498T199 522Q199 551 181 562T114 573L124 622H449Q570 622 629 576T688 441Q688 393 669 352T616 280T536 232T438 214Q393 214 346 228L354 272Q364 268 380 268Q416 268 443 285T487 329T513 388T522 452Q522 516 487 543T383 570H361L277 159Q274 144 272 126T270 98Q270 72 290 61T357 49L347 0H2Z"  />
<glyph unicode="Q" horiz-adv-x="838" d="M557 -1Q613 -51 652 -70T722 -89Q761 -89 796 -63L822 -97Q786 -134 739 -154T640 -175Q562 -175 471 -129T281 8Q218 35 180 69T122 141T95 215T88 286Q88 364 117 428T198 539T324 612T484 638Q562 638 625 617T732 556T801 460T825 335Q825 275 806 221T753 123T669 48T560 0L557 -1ZM250 238Q250 193 262 156T298 92T353 51T424 36Q469 36 504 54T566 101T611 167T641 241T658 314T663 377Q663 474 617 530T491 586Q428 586 383 551T308 464T264 350T250 238Z"  />
<glyph unicode="R" horiz-adv-x="721" d="M693 -6H655Q618 -6 590 -3T538 9T494 31T454 65Q422 97 395 151T355 264H300L279 159Q275 139 273 123T270 99Q270 75 290 62T358 49L348 0H9L18 49Q49 51 68 58T100 78T118 111T130 159L192 466Q196 486 198 499T200 522Q200 550 184 560T125 573L135 622H449Q504 622 544 610T610 577T649 527T662 464Q662 340 502 287Q519 219 546 167T601 87Q629 59 662 50T724 42L693 -6ZM311 316Q359 314 393 326T451 359T485 408T496 467Q496 500 484 520T453 552T410 567T362 570L311 316Z"  />
<glyph unicode="S" horiz-adv-x="589" d="M135 206Q135 172 143 142T171 88T221 50T295 36Q346 36 376 58T406 119Q406 144 388 168T343 218T284 270T225 325T180 386T162 454Q162 482 173 514T211 574T277 620T377 638Q403 638 422 635T456 629T485 622T514 619Q536 619 551 634H598L570 439H512Q498 511 463 548T371 586Q333 586 309 566T285 516Q285 492 303 467T350 416T411 362T472 305T519 244T538 177Q538 135 520 100T468 39T388 -1T284 -16Q230 -16 167 -1T43 41L86 206H135Z"  />
<glyph unicode="T" horiz-adv-x="676" d="M775 660L736 472H684Q680 503 673 522T650 552T610 566T543 570H502L419 159Q416 144 414 127T411 100Q411 66 434 58T501 49L491 0H139L149 49Q183 49 204 55T238 75T257 109T270 159L353 570H312Q272 570 243 566T193 550T157 520T127 472H75L114 660H150Q152 637 169 630T211 622H582Q629 622 655 622T696 626T717 638T732 660H775Z"  />
<glyph unicode="U" horiz-adv-x="757" d="M443 622L433 573Q407 573 389 569T359 552T338 519T323 464L277 241Q273 222 271 203T269 173Q269 119 309 88T417 56Q468 56 505 71T567 111T608 167T630 232L673 447Q678 472 678 488Q678 568 588 573L598 622H843L833 573Q810 572 793 565T763 546T744 521T734 491L680 220Q669 166 644 123T581 48T493 1T382 -16Q324 -16 276 -2T194 38T140 99T121 178Q121 189 123 208T128 238L174 464Q177 478 179 494T181 521Q181 550 165 560T105 573L115 622H443Z"  />
<glyph unicode="V" horiz-adv-x="703" d="M820 573Q803 573 788 569T756 554T720 524T677 476L268 -16H185L201 482Q201 506 199 523T191 550T171 566T137 573L147 622H446L436 573Q410 572 393 568T366 552T352 520T346 467L336 148L338 146L601 466Q623 492 631 507T640 536Q640 553 628 561T584 573L594 622H830L820 573Z"  />
<glyph unicode="W" horiz-adv-x="1100" d="M1212 573Q1188 572 1172 568T1139 553T1105 523T1058 470L643 -16H568L599 390L597 392L256 -16H179L209 457Q211 490 210 512T200 547T177 567T138 573L148 622H461L451 573Q402 575 382 557T360 497L339 168L341 166L608 484Q617 569 547 573L557 622H853L843 573Q815 573 799 569T773 554T760 522T754 470L731 168L733 166L983 461Q1015 499 1015 525Q1015 548 1001 558T952 573L962 622H1222L1212 573Z"  />
<glyph unicode="X" horiz-adv-x="748" d="M656 102Q665 86 673 77T692 61T716 53T750 49L740 0H417L427 49Q484 50 484 83Q484 101 466 131L390 257L300 177Q262 144 249 125T235 89Q235 70 249 61T297 49L287 0H8L18 49Q56 53 88 68T157 117L363 302L257 479Q240 508 227 525T199 553T168 567T125 573L135 622H482L472 573Q405 572 405 537Q405 526 410 518L475 403L576 494Q594 510 601 520T608 541Q608 558 593 565T545 573L555 622H826L816 573Q796 573 779 569T742 555T701 529T649 487L501 357L656 102Z"  />
<glyph unicode="Y" horiz-adv-x="730" d="M802 573Q782 572 768 569T740 558T710 533T670 492L454 256L435 159Q430 138 429 128T428 110Q428 75 450 61T530 49L520 0H164L174 49Q205 51 224 57T256 77T274 110T286 159L305 256L194 504Q185 525 177 538T159 558T136 569T105 573L115 622H404L394 573Q365 572 353 567T340 547Q340 543 340 540T343 531T349 516T360 492L441 315L591 484Q615 511 615 532Q615 567 559 573L569 622H812L802 573Z"  />
<glyph unicode="Z" horiz-adv-x="721" d="M631 0H30V49L529 570H421Q375 570 343 563T287 541T245 501T206 442H160L197 622H744V584L238 52H382Q433 52 470 60T536 85T590 128T640 193H686L631 0Z"  />
<glyph unicode="[" horiz-adv-x="360" d="M295 -228H49L231 663H476L467 615Q430 615 407 612T368 598T344 563T327 501L220 -25Q217 -40 214 -56T208 -88T204 -115T202 -134Q202 -185 305 -180L295 -228Z"  />
<glyph unicode="\" horiz-adv-x="278" d="M108 671L301 -16H216L23 671H108Z"  />
<glyph unicode="]" horiz-adv-x="370" d="M112 663H358L176 -228H-69L-60 -180Q-23 -180 0 -177T39 -163T63 -128T80 -66L187 460Q190 475 193 491T199 523T203 550T205 569Q205 620 102 615L112 663Z"  />
<glyph unicode="^" horiz-adv-x="506" d="M271 671H312L510 320H436L291 570L147 320H73L271 671Z"  />
<glyph unicode="_" horiz-adv-x="500" d="M506 -75V-125H-6V-75H506Z"  />
<glyph unicode="`" horiz-adv-x="333" d="M219 479L123 643H261L310 479H219Z"  />
<glyph unicode="a" horiz-adv-x="504" d="M413 102Q407 70 419 70Q427 70 443 84T477 122L503 105Q487 85 466 65T423 27T377 -1T334 -12Q307 -12 292 1T277 41Q277 53 279 71T283 103L281 105Q248 72 224 50T181 14T148 -6T123 -12Q88 -12 64 19T40 97Q40 154 69 211T152 315T277 390T435 419H477L413 102ZM333 350Q295 350 265 336T215 296T183 235T172 160Q172 127 181 109T207 90Q218 90 237 104T294 160L333 350Z"  />
<glyph unicode="b" horiz-adv-x="478" d="M237 298Q275 340 301 363T344 400Q362 413 372 416T391 420Q406 420 419 409T442 379T458 334T464 279Q464 234 446 183T393 88T308 17T194 -12Q135 -12 103 15T71 92Q71 100 73 116T77 152T83 191T90 225L156 548Q161 574 159 582T145 590Q140 590 136 589T122 585L111 609L223 653Q227 654 235 657T253 663T271 668T284 671Q304 671 304 651Q304 642 301 626T296 602L235 298H237ZM203 142Q199 122 197 109T193 86T190 70T189 56Q190 18 220 18Q242 18 261 45T294 111T316 194T324 275Q324 298 322 308T311 318Q301 318 277 296T222 239L203 142Z"  />
<glyph unicode="c" horiz-adv-x="360" d="M365 82Q334 38 283 13T174 -12Q113 -12 80 20T47 111Q47 162 69 216T127 316T212 391T315 420Q349 420 370 403T392 358Q392 332 375 316T331 299Q310 299 298 308T277 328Q269 339 262 347T242 356Q228 356 218 336T199 286T187 223T183 163Q183 104 200 78T254 51Q300 51 350 102L365 82Z"  />
<glyph unicode="d" horiz-adv-x="496" d="M483 90Q446 44 405 16T333 -12Q308 -12 294 7T280 64Q280 78 281 93T285 117L283 119Q254 83 232 59T191 18T158 -5T129 -12Q94 -12 73 22T51 110Q51 165 74 220T134 319T214 392T298 420Q312 420 322 417T343 403L371 541Q377 571 377 579Q377 594 363 594Q358 594 356 594T348 591L341 588L338 587L334 622L444 656Q472 664 483 667T502 671Q522 671 522 653Q522 650 520 640L505 563L412 108Q407 85 409 79T419 72Q425 72 436 82T462 109L483 90ZM319 287Q312 322 299 343T269 365Q255 365 241 342T216 285T198 210T191 134Q191 104 195 97T206 90Q213 90 224 98T249 120T274 150T298 181L319 287Z"  />
<glyph unicode="e" horiz-adv-x="405" d="M392 77Q341 36 280 12T168 -12Q112 -12 79 22T46 115Q46 160 66 213T122 312T209 389T319 420Q362 420 388 398T415 339Q415 312 403 289T363 247T291 210T185 174Q183 164 183 157T182 141Q182 54 261 54Q287 54 316 66T375 99L392 77ZM191 203Q242 223 272 258T303 336Q303 357 295 370T274 383Q251 383 229 338T191 203Z"  />
<glyph unicode="f" horiz-adv-x="316" d="M66 384Q89 386 113 393T146 408Q155 465 175 513T227 596T301 651T393 671Q444 671 473 654T502 605Q502 581 486 566T447 550Q423 550 407 563T379 591T358 619T339 632Q319 632 310 587L275 408H348L337 355H265L211 45Q199 -24 173 -76T112 -162T33 -214T-58 -232Q-106 -232 -136 -213T-167 -162Q-167 -138 -149 -121T-104 -104Q-78 -104 -64 -117T-39 -146T-18 -175T8 -189Q18 -189 25 -183T40 -160T53 -117T66 -47L136 355H60L66 384Z"  />
<glyph unicode="g" horiz-adv-x="469" d="M486 335Q474 339 456 342T424 346Q443 309 443 269Q443 225 426 194T382 139T324 102T267 77T223 61T205 49Q205 42 220 31T257 7T305 -22T354 -55T391 -92T406 -132Q406 -161 388 -180T337 -210T256 -227T152 -232Q46 -232 -10 -213T-67 -156Q-67 -136 -54 -119T-17 -86T38 -57T106 -29Q104 -26 102 -18T99 0Q99 20 115 37T168 66V68Q121 81 93 117T64 201Q64 235 80 273T132 344T222 398T356 420Q396 420 428 416T486 407V335ZM311 310Q311 349 302 365T275 382Q257 382 243 363T220 314T205 252T199 189Q199 146 210 125T241 104Q263 104 277 130T298 190T308 259T311 310ZM123 -54Q88 -72 74 -90T59 -129Q59 -164 93 -183T190 -202Q232 -202 256 -195T280 -174Q280 -163 268 -155T233 -134T183 -104T123 -54Z"  />
<glyph unicode="h" horiz-adv-x="523" d="M517 103Q476 49 434 19T357 -12Q330 -12 314 5T297 51Q297 59 299 74T306 107L341 268Q347 296 346 305T333 314Q318 314 292 283T215 184L184 29Q181 13 176 7T155 0H74Q62 0 58 3T53 13Q53 21 55 32T60 53L157 530Q159 538 161 550T164 567Q164 580 161 584T149 588Q144 588 134 585T117 578L105 606L230 654Q250 662 266 666T290 671Q310 671 310 652Q310 646 305 619T292 557L228 249L230 247L282 316Q321 367 360 393T429 420Q485 420 485 357Q485 347 484 334T481 316L433 99Q428 79 430 72T439 65Q446 65 462 81T496 120L517 103Z"  />
<glyph unicode="i" horiz-adv-x="306" d="M308 80Q283 52 259 35T214 7T176 -8T150 -12Q141 -12 129 -10T106 0T88 22T80 59Q80 70 82 84T87 114T93 142T98 165L124 278Q126 287 128 299T131 316Q131 324 127 327T120 331Q117 331 115 330T107 323T92 309T68 284L46 304Q80 341 105 364T149 399T182 416T208 420Q237 420 251 401T265 355Q265 334 262 316T253 275L214 105Q212 97 210 86T207 67Q207 62 210 58T220 53Q227 53 244 63T288 100L308 80ZM178 542Q178 582 201 610T259 638Q287 638 305 616T324 562Q324 547 319 530T303 500T278 477T244 468Q214 468 196 489T178 542Z"  />
<glyph unicode="j" horiz-adv-x="298" d="M60 298Q113 361 152 390T221 420Q244 420 257 405T270 362Q270 348 266 322T253 253L205 17Q194 -35 174 -80T124 -159T54 -212T-39 -232Q-86 -232 -112 -214T-138 -164Q-138 -138 -120 -121T-76 -104Q-52 -104 -39 -115T-17 -139T-2 -164T16 -175Q22 -175 27 -173T36 -159T46 -125T60 -61L128 272Q135 306 135 314T128 323Q125 323 119 318T106 306T93 292T82 278L60 298ZM181 542Q181 583 204 610T262 638Q290 638 308 617T327 563Q327 524 304 496T247 468Q218 468 200 489T181 542Z"  />
<glyph unicode="k" horiz-adv-x="531" d="M236 272Q269 309 298 336T354 383Q406 420 441 420Q477 420 499 395T521 329Q521 278 476 244T352 201Q369 182 381 164T406 129T432 101T467 82L510 128L530 106L418 -12Q389 -12 365 1T323 31Q306 48 292 70T265 114T241 157T217 189L185 33Q181 15 176 8T156 0H73Q53 0 53 13Q53 18 54 25T58 41L158 535Q161 547 162 552T163 558T164 561T164 568V572Q164 586 150 586Q138 586 119 580L108 609L261 664Q281 671 289 671Q310 671 310 652Q310 646 308 635T304 618L234 272H236ZM221 212Q260 210 291 216T345 235T380 264T392 301Q392 317 385 324T365 332Q354 332 335 320T294 289T253 249T221 212Z"  />
<glyph unicode="l" horiz-adv-x="306" d="M301 78Q262 37 217 13T137 -12Q78 -12 78 52Q78 64 80 83T87 123T95 167T104 209L170 535Q177 569 176 578T162 587Q156 587 147 585T131 579L120 607L243 654Q288 671 303 671Q320 671 320 653Q320 644 316 619T304 558L213 111Q206 79 209 68T223 57Q243 57 283 98L301 78Z"  />
<glyph unicode="m" horiz-adv-x="784" d="M787 108Q735 45 699 17T625 -12Q596 -12 581 4T565 50Q565 60 566 72T570 96L602 255Q605 272 607 283T609 299Q609 316 597 316Q583 316 554 282T477 185L446 31Q442 11 436 6T410 0H347Q332 0 324 3T316 17Q316 28 319 43T326 78L368 281Q373 302 371 309T358 316Q347 316 314 281T237 184L206 31Q202 12 196 6T170 0H106Q75 0 75 17Q75 22 77 33T81 54L127 277Q129 285 130 295T131 311Q131 323 122 323Q115 323 103 309T70 269L48 288Q66 313 86 337T128 379T170 409T212 420Q238 420 251 402T265 352Q265 324 261 299T251 257L253 255Q313 331 361 375T452 420Q508 420 508 356Q508 339 506 322T498 285L493 262L491 257L493 255L496 260L549 323Q631 420 690 420Q748 420 748 360Q748 348 745 326T734 269L701 108Q696 85 697 77T706 69Q715 69 732 86T766 125L787 108Z"  />
<glyph unicode="n" horiz-adv-x="541" d="M47 287Q98 355 140 387T217 420Q269 420 269 356Q269 338 265 312T253 256L255 254Q325 342 373 381T458 420Q487 420 500 402T513 362Q513 344 510 325T496 268L467 154Q461 130 458 116T453 94T451 83T450 77Q450 72 453 69T461 65Q476 65 517 119L541 102Q509 60 483 37T437 3T403 -10T379 -12Q345 -12 332 6T318 48Q318 62 321 80T333 136L361 255Q367 279 368 286T369 299Q369 313 359 313Q345 312 316 281T239 186L208 42Q203 16 196 8T171 0H93Q83 0 80 2T76 14Q76 18 78 28T82 49L131 277Q133 286 134 296T136 310Q136 316 133 319T125 323Q110 323 71 269L47 287Z"  />
<glyph unicode="o" horiz-adv-x="477" d="M51 129Q51 189 76 241T142 334T233 397T335 420Q395 420 430 381T465 275Q465 208 436 155T364 65T271 8T179 -12Q122 -12 87 27T51 129ZM191 153Q191 95 204 64T237 33Q253 33 269 49T297 94T317 163T325 252Q325 317 313 346T275 375Q259 375 244 356T217 306T198 235T191 153Z"  />
<glyph unicode="p" horiz-adv-x="523" d="M187 -94Q183 -111 181 -128T178 -154Q178 -177 197 -190T262 -203L256 -232H-56L-50 -203Q-23 -203 -6 -199T24 -182T43 -149T58 -94L129 254Q132 270 134 284T136 308Q136 316 132 321T122 327Q113 327 97 311T58 265L33 284Q87 357 129 388T207 420Q268 420 268 345Q268 328 266 307T260 267L262 265Q295 310 320 340T365 388T400 413T427 420Q439 420 453 410T480 380T501 332T509 270Q509 204 485 152T425 64T347 8T267 -12Q251 -12 235 -8T207 2L187 -94ZM244 189L223 82Q229 59 241 45T270 30Q289 30 306 48T338 97T360 166T369 246Q369 310 347 310Q339 310 330 300T312 279L244 189Z"  />
<glyph unicode="q" horiz-adv-x="496" d="M390 -94Q387 -108 385 -126T382 -153Q382 -206 468 -203L463 -232H145L150 -203Q177 -202 195 -197T226 -180T246 -148T261 -94L299 92L297 94Q266 64 243 44T201 12T168 -6T140 -12Q105 -12 82 18T58 96Q58 121 67 154T95 224T146 295T223 358T328 403T464 420H494L390 -94ZM351 350Q270 351 231 299T191 158Q190 120 198 104T224 88Q234 88 246 95T271 111T293 131T310 149L351 350Z"  />
<glyph unicode="r" horiz-adv-x="358" d="M46 290Q65 318 86 342T127 383T164 410T196 420Q230 420 230 374Q230 355 217 288T182 126L200 120L253 286Q272 346 298 383T367 420Q392 420 406 406T421 368Q421 359 417 343T405 310T386 282T359 270Q349 270 338 274T319 278Q291 278 267 229T214 70L202 23Q199 11 197 5T190 -5T178 -8T156 -9H90Q76 -9 72 -3T71 18L124 281Q125 287 126 295T128 310T128 321T121 326Q116 326 109 320T93 305T79 287T68 274L46 290Z"  />
<glyph unicode="s" horiz-adv-x="381" d="M81 124Q102 124 120 110T156 80T190 50T222 36Q233 36 240 43T247 62Q247 73 237 88T209 121L156 175Q128 203 116 229T103 283Q103 312 116 337T153 380T209 409T277 420Q322 420 350 400T378 348Q378 322 360 303T317 284Q294 284 283 298T264 330T249 361T225 376Q214 376 207 368T199 348Q199 337 209 321T248 272L290 224Q312 199 320 179T329 133Q329 101 316 74T278 28T219 -1T143 -12Q86 -12 54 8T22 64Q22 89 39 106T81 124Z"  />
<glyph unicode="t" horiz-adv-x="316" d="M339 355H253L200 95Q193 56 215 56Q234 56 288 107L309 85Q290 65 268 47T224 16T179 -4T137 -12Q105 -12 86 4T67 50Q67 54 68 65T72 91T76 120T81 146L124 355H74L80 387Q105 392 132 407T186 443T235 489T273 541H309Q295 512 284 478T264 408H350L339 355Z"  />
<glyph unicode="u" horiz-adv-x="541" d="M543 115Q488 55 442 22T364 -12Q345 -12 334 1T322 34Q322 44 324 63T330 104T338 149T346 186L344 188Q266 89 216 39T129 -12Q87 -12 87 41Q87 63 94 95L136 301Q142 330 131 330Q124 330 113 318T87 286L63 303Q88 337 109 359T149 395T184 414T216 420Q274 420 274 362Q274 351 271 332T263 286L242 182Q234 146 236 136T247 125Q251 125 255 129T265 138Q291 164 309 188T341 240T365 300T384 376Q388 398 393 403T415 408H494Q508 408 511 401T510 371L460 120Q456 100 458 94T466 87Q474 87 491 103T522 135L543 115Z"  />
<glyph unicode="v" horiz-adv-x="469" d="M50 298Q100 364 137 392T207 420Q238 420 251 398T259 337L225 131Q219 93 221 80T236 67Q244 67 252 72T281 98Q297 114 314 138T344 188T365 239T374 284Q374 298 367 304T352 314T337 325T330 345Q330 360 337 373T355 397T382 414T414 420Q447 420 468 398T490 342Q490 321 484 300T464 253T425 199T365 133Q321 89 287 61T227 17T181 -5T149 -12Q120 -12 104 9T87 69Q87 83 90 105T97 147L121 269Q126 292 128 301T130 316Q130 326 122 326Q117 326 104 315T74 279L50 298Z"  />
<glyph unicode="w" horiz-adv-x="711" d="M49 296Q93 356 133 388T205 420Q231 420 246 404T261 359Q261 349 259 333T254 302L230 183Q228 175 227 162T225 143Q225 120 239 120Q247 120 257 129T280 154L336 227L364 376Q368 398 375 403T407 408H473Q487 408 490 403T491 386L454 153Q451 133 448 115T445 89Q445 80 448 74T460 67Q474 67 496 89Q518 111 536 138T568 191T590 241T598 280Q598 293 591 299T576 311T561 322T554 341Q554 371 579 392T639 413Q674 413 695 393T717 340Q717 321 712 301T693 255T653 199T587 127Q510 50 458 19T374 -12Q345 -12 329 7T312 60Q312 68 313 80T315 107T319 136T323 162L321 164Q256 73 210 31T125 -12Q83 -12 83 38Q83 51 84 66T93 119L124 299Q127 316 126 321T118 326Q111 326 99 314T71 282L49 296Z"  />
<glyph unicode="x" horiz-adv-x="531" d="M374 143Q386 110 395 97T416 83Q438 83 457 127L484 118Q452 51 420 20T354 -12Q338 -12 325 -6T299 15T273 59T242 133Q209 88 186 60T145 16T113 -6T84 -12Q62 -12 49 2T36 39Q36 56 47 87T74 152H105Q108 106 148 106Q165 106 183 117T230 162L191 268Q176 309 167 321T147 333Q125 333 110 295L83 305Q138 420 210 420Q249 420 271 389T318 288Q348 330 370 355T408 395T437 415T463 420Q489 420 506 401T524 353Q524 336 519 317T503 283H472Q465 318 427 318Q402 318 376 301T330 261L374 143Z"  />
<glyph unicode="y" horiz-adv-x="486" d="M38 315Q108 420 176 420Q199 420 218 408T251 366T272 289T280 171Q280 163 280 146T279 107T277 65T275 26L277 24Q289 48 304 85T333 161T356 233T366 281Q366 292 362 301T354 318T346 334T342 354Q342 382 364 401T418 420Q448 420 467 403T487 357Q487 334 477 310T448 255T404 187T349 98Q322 52 299 6T259 -79T232 -143T222 -177Q222 -189 233 -197T280 -203L275 -232H-13L-8 -203Q47 -206 70 -183Q81 -172 97 -142T128 -72T153 14T164 106Q164 138 161 178T152 254T136 314T113 339Q104 339 92 330T61 296L38 315Z"  />
<glyph unicode="z" horiz-adv-x="469" d="M447 98Q427 68 411 48T378 14T343 -6T300 -12Q272 -12 245 -2T193 19T149 41T113 51Q87 51 87 22Q87 5 80 -3T56 -12Q41 -12 32 -4T22 19Q22 39 33 63T78 120Q103 145 136 166T206 206T277 241T342 275T392 309T418 345Q388 328 366 316T326 296T293 285T263 281Q241 281 222 287T185 300T154 314T130 321Q120 321 112 316T96 297L71 320Q112 371 145 395T215 420Q239 420 264 412T312 395T355 377T388 369Q399 369 403 377T411 394T420 412T440 420Q453 420 461 409T469 381Q469 364 459 340T415 282Q371 238 320 210T221 161T139 120T91 75L93 73L95 75Q136 95 175 107T243 120Q264 120 283 115T319 103T351 92T378 86Q391 86 399 92T422 115L447 98Z"  />
<glyph unicode="{" horiz-adv-x="396" d="M98 233Q122 235 140 245T170 271T188 305T194 342Q194 365 190 386T181 428Q176 448 172 467T168 507Q168 529 178 557T213 610T275 652T369 669V646Q342 642 324 632T295 608T279 580T274 552Q274 530 277 510T285 469Q290 449 293 428T297 383Q297 354 286 328T254 281T204 244T138 220V218Q174 210 203 195T253 158T285 110T297 55Q297 32 294 11T285 -31Q280 -51 277 -71T274 -114Q274 -127 279 -142T295 -170T324 -194T369 -208V-231Q313 -231 275 -214T213 -173T179 -120T168 -69Q168 -48 172 -29T181 11Q186 31 190 52T194 96Q194 114 188 132T170 166T140 192T98 205V233Z"  />
<glyph unicode="|" horiz-adv-x="546" d="M364 671V-50H258V671H364Z"  />
<glyph unicode="}" horiz-adv-x="396" d="M368 205Q344 203 326 193T296 167T278 133T272 96Q272 73 276 52T285 11T294 -28T298 -69Q298 -92 288 -120T253 -172T191 -214T97 -231V-208Q124 -204 142 -194T171 -171T187 -142T192 -114Q192 -92 189 -72T181 -31Q176 -11 173 10T169 55Q169 83 180 109T212 157T262 194T328 218V220Q292 228 263 243T213 280T181 328T169 383Q169 406 172 427T180 469T188 509T192 552Q192 565 187 579T171 607T142 631T97 646V669Q152 669 190 652T253 611T287 558T298 507Q298 487 294 467T285 427Q280 407 276 386T272 342Q272 324 278 306T296 272T326 246T368 233V205Z"  />
<glyph unicode="~" horiz-adv-x="667" d="M642 420Q639 335 602 289T499 242Q464 242 425 255T347 285Q309 301 275 314T216 328Q148 328 134 242H100Q102 330 141 375T239 420Q279 420 316 407T394 377Q437 358 467 346T526 333Q561 333 582 355T608 420H642Z"  />
<glyph unicode="&#xA0;" horiz-adv-x="333" />
<glyph unicode="&#xA1;" horiz-adv-x="333" d="M189 -134Q187 -168 185 -186T176 -214T156 -224T119 -226H69Q37 -226 26 -220T15 -197Q15 -191 18 -177T27 -150L168 218H210L189 -134ZM296 344Q296 307 272 283T211 258Q176 258 155 280T133 337Q133 373 157 396T219 420Q254 420 275 399T296 344Z"  />
<glyph unicode="&#xA2;" horiz-adv-x="370" d="M100 -232H63L146 -11Q98 -5 73 26T47 110Q47 161 69 215T128 315T213 390T313 420L389 622H426L348 417Q368 411 380 396T392 358Q392 332 375 315T332 298Q317 298 304 306L212 64Q222 56 230 54T249 51Q271 51 298 63T350 102L365 82Q336 40 288 16T183 -11L100 -232ZM277 327Q269 335 263 345T243 356Q229 356 218 338T200 290T188 227T183 160Q183 142 184 129T189 100H191L277 327Z"  />
<glyph unicode="&#xA3;" horiz-adv-x="784" d="M521 81H356Q327 35 304 3T261 -53Q305 -54 342 -72T412 -111T470 -150T517 -168Q542 -168 542 -145Q542 -133 537 -122T524 -99T512 -76T506 -50Q506 -22 525 -3T574 17Q608 17 630 -7T653 -70Q653 -105 638 -134T595 -185T532 -219T453 -232Q430 -232 410 -230T364 -218T301 -190T208 -138Q158 -188 123 -210T62 -232Q39 -232 24 -219T8 -185Q8 -159 26 -136T72 -96T132 -68T192 -53Q206 -24 219 13T242 81H87L97 128H252L299 265Q331 360 381 441T486 576Q513 603 538 621T588 651T640 666T698 671Q759 671 794 649T829 588Q829 559 809 539T761 519Q734 519 720 535T696 570T674 606T642 622Q633 622 624 619T606 607Q585 586 561 531T510 405T451 260T385 128H531L521 81Z"  />
<glyph unicode="&#xA4;" horiz-adv-x="667" d="M519 595L597 517L532 451Q564 394 564 331Q564 298 557 271T532 214L597 149L519 70L453 134Q424 117 396 109T332 101Q299 101 272 109T215 134L150 70L70 149L136 214Q119 243 111 271T103 331Q103 362 111 390T136 451L70 517L150 595L215 530Q246 547 274 555T335 563Q366 563 392 556T453 530L519 595ZM214 332Q214 307 223 286T249 248T287 222T334 212Q359 212 380 221T418 247T443 285T453 332Q453 357 444 379T418 417T381 442T334 452Q309 452 288 443T250 417T224 379T214 332Z"  />
<glyph unicode="&#xA5;" horiz-adv-x="730" d="M449 228H677L669 181H439L435 159Q430 138 429 128T428 110Q428 75 450 61T530 49L520 0H164L174 49Q205 51 224 57T256 77T274 110T286 159L290 181H87L95 228H300L317 315H111L119 362H297L234 504Q225 525 217 538T199 558T176 569T145 573L155 622H444L434 573Q405 572 393 567T380 547Q380 543 380 540T383 531T389 516T400 492L453 375L547 484Q571 511 571 532Q571 567 515 573L525 622H768L758 573Q738 572 724 569T696 558T666 533T626 492L508 362H701L693 315H466L449 228Z"  />
<glyph unicode="&#xA6;" horiz-adv-x="546" d="M364 260V-50H258V260H364ZM364 671V360H258V671H364Z"  />
<glyph unicode="&#xA7;" horiz-adv-x="459" d="M203 -73Q203 -38 186 5T149 96T111 195T94 297Q94 352 117 411T182 520T281 602T407 634Q427 634 450 631T494 619T528 597T542 565Q542 542 528 527T493 512Q476 512 461 522T432 544T404 567T373 577Q338 577 315 547T291 473Q291 435 307 391T344 299T381 202T398 103Q398 38 372 -22T302 -129T201 -204T83 -232Q61 -232 38 -228T-5 -214T-37 -192T-50 -162Q-50 -140 -36 -125T-1 -109Q17 -109 30 -119T57 -142T86 -164T120 -175Q138 -175 153 -167T179 -146T196 -114T203 -73ZM323 79Q323 124 307 165T273 249T238 336T222 432Q222 441 222 447T224 461L222 463Q170 399 170 324Q170 283 187 238T225 144T260 44T269 -59L271 -61Q296 -34 309 2T323 79Z"  />
<glyph unicode="&#xA8;" horiz-adv-x="333" d="M144 499Q116 499 96 519T76 567Q76 595 96 614T144 634Q172 634 191 615T211 567Q211 539 192 519T144 499ZM355 499Q327 499 307 519T287 567Q287 595 307 614T355 634Q383 634 402 615T422 567Q422 539 403 519T355 499Z"  />
<glyph unicode="&#xA9;" horiz-adv-x="771" d="M550 408H531Q521 458 489 486T411 514Q351 514 318 467T284 334Q284 283 295 249T323 193T363 162T409 153Q446 153 476 169T536 221V186Q476 124 380 124Q335 124 297 138T232 179T190 242T175 323Q175 369 191 408T235 477T303 522T389 538Q413 538 432 534T465 525T490 516T508 512Q527 512 531 537H550V408ZM386 674Q458 674 521 647T631 573T705 463T732 328Q732 256 705 193T631 83T521 9T386 -18Q314 -18 251 9T141 83T67 193T40 328Q40 400 67 463T141 573T251 647T386 674ZM386 631Q323 631 268 607T172 542T107 446T83 328Q83 265 107 210T172 114T268 49T386 25Q449 25 504 49T600 114T665 210T689 328Q689 391 665 446T600 542T504 607T386 631Z"  />
<glyph unicode="&#xAA;" horiz-adv-x="324" d="M332 465Q330 453 329 444T332 435Q334 435 342 443T363 465L384 449Q358 417 327 398T272 378Q249 378 238 392T234 437L232 439Q197 407 175 393T136 378Q112 378 95 397T78 445Q78 481 98 516T154 578T235 621T334 638H367L332 465ZM265 591Q241 591 224 582T196 556T180 521T174 482Q174 465 178 455T191 444Q197 444 210 455T243 483L265 591Z"  />
<glyph unicode="&#xAB;" horiz-adv-x="523" d="M525 381L416 213L433 45H397L273 213L484 381H525ZM325 393L204 213L229 34H191L61 213L284 393H325Z"  />
<glyph unicode="&#xAC;" horiz-adv-x="667" d="M644 500V160H539V395H99V500H644Z"  />
<glyph unicode="&#xAD;" horiz-adv-x="397" d="M74 255H377L355 147H52L74 255Z"  />
<glyph unicode="&#xAE;" horiz-adv-x="771" d="M396 529Q437 529 466 521T514 498T542 464T551 422Q551 385 529 359T464 321L530 199Q543 175 554 164T582 150V134H464L363 314H341V217Q341 196 343 184T351 164T369 154T400 150V134H193V150Q223 149 233 162T244 217V448Q244 486 236 498T201 512V529H396ZM341 339Q367 334 387 339T420 357T439 386T446 425Q446 467 424 487T365 508H341V339ZM386 674Q458 674 521 647T631 573T705 463T732 328Q732 256 705 193T631 83T521 9T386 -18Q314 -18 251 9T141 83T67 193T40 328Q40 400 67 463T141 573T251 647T386 674ZM386 631Q323 631 268 607T172 542T107 446T83 328Q83 265 107 210T172 114T268 49T386 25Q449 25 504 49T600 114T665 210T689 328Q689 391 665 446T600 542T504 607T386 631Z"  />
<glyph unicode="&#xAF;" horiz-adv-x="333" d="M133 624H397L375 513H111L133 624Z"  />
<glyph unicode="&#xB0;" horiz-adv-x="410" d="M255 638Q285 638 312 627T358 596T389 549T401 492Q401 462 390 435T359 389T312 358T255 346Q225 346 198 357T152 388T121 435T109 492Q109 522 120 549T151 595T198 626T255 638ZM255 583Q217 583 191 557T164 492Q164 454 190 428T255 401Q293 401 319 427T346 492Q346 530 320 556T255 583Z"  />
<glyph unicode="&#xB1;" horiz-adv-x="667" d="M644 76V-29H99V76H644ZM319 473V693H424V473H644V368H424V148H319V368H99V473H319Z"  />
<glyph unicode="&#xB2;" horiz-adv-x="306" d="M305 410H73V438Q88 449 107 465T145 500T183 537T213 570Q232 593 245 616T259 663Q259 680 252 690T227 700Q214 700 204 695T186 681T173 665T165 650H129Q139 682 156 700T193 728T230 739T259 742Q307 742 334 720T361 665Q361 648 353 632T322 594Q296 569 254 539T175 482H262Q275 482 281 486T291 508H328L305 410Z"  />
<glyph unicode="&#xB3;" horiz-adv-x="306" d="M174 598Q184 603 197 611T223 629T245 653T254 680Q254 689 248 693T233 698Q218 698 204 690T177 671L153 691Q172 710 202 725T270 741Q282 741 296 739T322 730T341 714T349 689Q349 663 325 647T267 618Q273 617 283 614T303 605T320 587T327 557Q327 526 310 498T266 449T205 415T138 402Q128 402 118 403T99 409T85 420T79 438Q79 452 89 462T115 473Q129 473 138 467T155 455Q166 445 170 442T181 439Q194 439 202 449T216 473T224 505T227 536Q227 540 227 547T224 561T217 573T204 578Q201 578 191 574T165 564L174 598Z"  />
<glyph unicode="&#xB4;" horiz-adv-x="333" d="M223 643H361L265 479H174L223 643Z"  />
<glyph unicode="&#xB5;" horiz-adv-x="560" d="M306 408L236 132Q233 121 231 108T229 88Q229 80 234 74T246 68Q271 68 297 111T346 242L387 408H516L439 108Q428 67 431 54T448 41Q453 41 464 58T486 104L500 88Q467 -12 395 -12Q344 -12 327 18T318 102L316 104Q297 74 281 52T249 16T216 -5T177 -12Q156 -12 143 -5T119 19Q111 -10 106 -38T101 -90V-129Q101 -156 85 -177T47 -198Q28 -198 15 -183T2 -143Q2 -122 10 -109T30 -81T54 -49T74 1L177 408H306Z"  />
<glyph unicode="&#xB6;" horiz-adv-x="583" d="M388 -232H339V169Q268 169 218 188T137 238T91 311T76 397Q76 444 91 485T135 556Q154 575 174 587T220 607T282 618T365 622H617V600H596Q561 600 543 585T525 532V-232H476V584H388V-232Z"  />
<glyph unicode="&#xB7;" horiz-adv-x="333" d="M122 296Q122 333 146 357T208 382Q242 382 263 360T285 303Q285 267 261 244T199 220Q164 220 143 241T122 296Z"  />
<glyph unicode="&#xB8;" horiz-adv-x="333" d="M30 -166Q62 -167 83 -155T105 -126Q105 -108 83 -105L107 13H145L135 -35Q164 -37 180 -54T196 -101Q196 -123 188 -141T159 -173T105 -193T24 -198L30 -166Z"  />
<glyph unicode="&#xB9;" horiz-adv-x="306" d="M148 643Q159 647 177 655T217 676T259 704T297 741H341L281 487Q279 479 278 471T277 458Q277 446 287 442T321 438L315 410H125L131 438Q157 439 168 448T187 491L223 645Q198 634 182 627T140 611L148 643Z"  />
<glyph unicode="&#xBA;" horiz-adv-x="306" d="M91 465Q91 498 107 529T149 584T208 623T278 638Q319 638 343 615T367 551Q367 510 347 478T298 424T236 391T178 379Q139 379 115 402T91 465ZM191 479Q191 450 197 431T215 411Q224 411 233 422T249 451T260 492T265 538Q265 570 258 588T239 606Q230 606 222 595T207 565T196 525T191 479Z"  />
<glyph unicode="&#xBB;" horiz-adv-x="523" d="M40 46L149 214L132 382H168L292 214L81 46H40ZM240 34L361 214L336 393H374L504 214L281 34H240Z"  />
<glyph unicode="&#xBC;" horiz-adv-x="739" d="M547 -8L564 74H463V133L668 332H712L662 133H724L712 74H650L633 -8H547ZM594 218L592 220L505 133H576L594 218ZM87 -37L634 638H719L172 -37H87ZM125 542Q182 564 217 587T274 638H319L259 385Q258 381 257 369T255 354Q255 342 263 338T298 334L293 307H103L108 334Q122 334 131 336T146 343T156 359T164 385L201 542Q186 535 176 531T156 522T138 515T118 509L125 542Z"  />
<glyph unicode="&#xBD;" horiz-adv-x="739" d="M691 0H457V25Q482 45 502 64T548 109Q575 136 593 157T622 195T638 226T643 253Q643 290 610 290Q592 290 577 278T548 240H513Q527 285 559 308T642 332Q688 332 716 311T745 256Q745 239 738 224T710 189T653 142T559 75V73H642Q661 73 667 78T675 98H711L691 0ZM87 -37L634 638H719L172 -37H87ZM125 542Q182 564 217 587T274 638H319L259 385Q258 381 257 369T255 354Q255 342 263 338T298 334L293 307H103L108 334Q122 334 131 336T146 343T156 359T164 385L201 542Q186 535 176 531T156 522T138 515T118 509L125 542Z"  />
<glyph unicode="&#xBE;" horiz-adv-x="739" d="M547 -8L564 74H463V133L668 332H712L662 133H724L712 74H650L633 -8H547ZM594 218L592 220L505 133H576L594 218ZM87 -37L634 638H719L172 -37H87ZM160 494Q207 517 224 540T242 576Q242 594 220 594Q209 594 197 588T164 568L141 587Q168 614 196 626T257 638Q294 638 315 623T337 586Q337 565 321 551T258 517V515Q315 503 315 453Q315 424 299 396T256 347T195 312T125 298Q66 298 66 334Q66 349 76 359T103 370Q116 370 125 365T141 353T154 342T169 336Q189 336 202 363T215 432Q215 474 192 474Q187 474 176 470T153 460L160 494Z"  />
<glyph unicode="&#xBF;" horiz-adv-x="388" d="M254 217Q254 152 245 105T210 33Q190 13 168 1T124 -19T86 -33T60 -49Q49 -60 49 -75Q49 -91 59 -101T87 -111Q105 -111 124 -106T162 -94T199 -82T233 -76Q262 -76 279 -93T297 -138Q297 -180 261 -203T160 -226Q78 -226 34 -184T-10 -61Q-10 -20 0 17T29 81Q46 106 70 121T119 146T166 166T202 188Q204 190 208 199T214 217H254ZM340 344Q340 307 316 283T255 258Q220 258 199 280T177 337Q177 373 201 396T263 420Q298 420 319 399T340 344Z"  />
<glyph unicode="&#xC0;" horiz-adv-x="730" d="M696 0H355L365 49Q393 49 412 51T444 61T462 86T468 130L467 235H248L192 159Q178 141 170 123T162 94Q162 74 177 62T235 49L225 0H-36L-26 49Q-3 49 16 54T53 73T90 107T132 159L485 638H610L617 145Q617 115 620 97T633 68T659 53T706 49L696 0ZM464 526H462L296 300H466L464 526ZM528 677L432 841H570L619 677H528Z"  />
<glyph unicode="&#xC1;" horiz-adv-x="730" d="M696 0H355L365 49Q393 49 412 51T444 61T462 86T468 130L467 235H248L192 159Q178 141 170 123T162 94Q162 74 177 62T235 49L225 0H-36L-26 49Q-3 49 16 54T53 73T90 107T132 159L485 638H610L617 145Q617 115 620 97T633 68T659 53T706 49L696 0ZM464 526H462L296 300H466L464 526ZM532 841H670L574 677H483L532 841Z"  />
<glyph unicode="&#xC2;" horiz-adv-x="730" d="M696 0H355L365 49Q393 49 412 51T444 61T462 86T468 130L467 235H248L192 159Q178 141 170 123T162 94Q162 74 177 62T235 49L225 0H-36L-26 49Q-3 49 16 54T53 73T90 107T132 159L485 638H610L617 145Q617 115 620 97T633 68T659 53T706 49L696 0ZM464 526H462L296 300H466L464 526ZM489 841H648L708 677H615L566 752L456 677H362L489 841Z"  />
<glyph unicode="&#xC3;" horiz-adv-x="730" d="M696 0H355L365 49Q393 49 412 51T444 61T462 86T468 130L467 235H248L192 159Q178 141 170 123T162 94Q162 74 177 62T235 49L225 0H-36L-26 49Q-3 49 16 54T53 73T90 107T132 159L485 638H610L617 145Q617 115 620 97T633 68T659 53T706 49L696 0ZM464 526H462L296 300H466L464 526ZM361 697Q366 768 395 805T470 843Q489 843 508 836T546 821T583 806T617 799Q632 799 641 808T656 838H743Q739 768 712 731T641 693Q620 693 599 699T559 714T521 728T489 735Q473 735 466 727T453 697H361Z"  />
<glyph unicode="&#xC4;" horiz-adv-x="730" d="M696 0H355L365 49Q393 49 412 51T444 61T462 86T468 130L467 235H248L192 159Q178 141 170 123T162 94Q162 74 177 62T235 49L225 0H-36L-26 49Q-3 49 16 54T53 73T90 107T132 159L485 638H610L617 145Q617 115 620 97T633 68T659 53T706 49L696 0ZM464 526H462L296 300H466L464 526ZM453 697Q425 697 405 717T385 765Q385 793 405 812T453 832Q481 832 500 813T520 765Q520 737 501 717T453 697ZM664 697Q636 697 616 717T596 765Q596 793 616 812T664 832Q692 832 711 813T731 765Q731 737 712 717T664 697Z"  />
<glyph unicode="&#xC5;" horiz-adv-x="730" d="M696 0H355L365 49Q393 49 412 51T444 61T462 86T468 130L467 235H248L192 159Q178 141 170 123T162 94Q162 74 177 62T235 49L225 0H-36L-26 49Q-3 49 16 54T53 73T90 107T132 159L485 638H610L617 145Q617 115 620 97T633 68T659 53T706 49L696 0ZM464 526H462L296 300H466L464 526ZM553 866Q574 866 592 858T624 837T646 805T654 765Q654 744 646 726T625 693T593 671T553 663Q532 663 514 671T481 693T459 725T451 765Q451 786 459 804T481 836T513 858T553 866ZM553 704Q578 704 595 721T613 764Q613 789 596 807T553 825Q528 825 510 807T492 764Q492 739 510 722T553 704Z"  />
<glyph unicode="&#xC6;" horiz-adv-x="973" d="M982 622L949 461H895Q895 495 887 516T862 550T816 566T748 570H655L608 340H724Q753 340 772 343T803 354T822 374T835 407H884L841 198H792Q806 252 788 270T721 288H598L569 147Q564 119 564 105Q564 74 586 63T650 52Q804 52 888 163H940L883 0H313L323 49Q347 49 363 54T390 72T408 107T423 163L439 238H247L188 163Q168 137 161 123T154 94Q154 50 224 49L214 0H-46L-36 49Q-9 49 9 54T41 70T64 93T87 121L401 516Q412 529 416 536T420 550Q420 563 406 568T348 573L358 622H982ZM504 559L502 561L289 290H449L504 559Z"  />
<glyph unicode="&#xC7;" horiz-adv-x="730" d="M280 -166Q312 -167 333 -155T355 -126Q355 -108 333 -105L351 -14Q291 -8 241 14T156 73T102 157T82 262Q82 300 92 343T123 427T179 507T263 574T378 621T528 638Q595 638 649 629T756 598L714 428H665Q663 499 625 542T507 586Q442 586 394 556T313 477T264 367T248 242Q248 141 292 89T421 36Q487 36 539 67T636 164H685L632 -10H591Q582 3 567 3Q556 3 537 0T493 -6T441 -13T389 -16L385 -35Q414 -37 430 -54T446 -101Q446 -123 438 -141T409 -173T355 -193T274 -198L280 -166Z"  />
<glyph unicode="&#xC8;" horiz-adv-x="676" d="M689 622L656 461H604Q608 522 579 546T487 570H366L318 340H425Q458 340 478 343T511 355T530 376T541 408H593L551 198H499Q505 228 503 246T489 273T459 285T410 288H308L279 146Q276 132 275 123T274 105Q274 76 294 64T361 52Q397 52 429 57T489 75T544 109T597 161H649L591 0H22L32 49Q56 50 72 55T99 73T118 107T133 161L195 467Q203 505 203 522Q203 551 184 562T114 573L124 622H689ZM440 677L344 841H482L531 677H440Z"  />
<glyph unicode="&#xC9;" horiz-adv-x="676" d="M689 622L656 461H604Q608 522 579 546T487 570H366L318 340H425Q458 340 478 343T511 355T530 376T541 408H593L551 198H499Q505 228 503 246T489 273T459 285T410 288H308L279 146Q276 132 275 123T274 105Q274 76 294 64T361 52Q397 52 429 57T489 75T544 109T597 161H649L591 0H22L32 49Q56 50 72 55T99 73T118 107T133 161L195 467Q203 505 203 522Q203 551 184 562T114 573L124 622H689ZM444 841H582L486 677H395L444 841Z"  />
<glyph unicode="&#xCA;" horiz-adv-x="676" d="M689 622L656 461H604Q608 522 579 546T487 570H366L318 340H425Q458 340 478 343T511 355T530 376T541 408H593L551 198H499Q505 228 503 246T489 273T459 285T410 288H308L279 146Q276 132 275 123T274 105Q274 76 294 64T361 52Q397 52 429 57T489 75T544 109T597 161H649L591 0H22L32 49Q56 50 72 55T99 73T118 107T133 161L195 467Q203 505 203 522Q203 551 184 562T114 573L124 622H689ZM401 841H560L620 677H527L478 752L368 677H274L401 841Z"  />
<glyph unicode="&#xCB;" horiz-adv-x="676" d="M689 622L656 461H604Q608 522 579 546T487 570H366L318 340H425Q458 340 478 343T511 355T530 376T541 408H593L551 198H499Q505 228 503 246T489 273T459 285T410 288H308L279 146Q276 132 275 123T274 105Q274 76 294 64T361 52Q397 52 429 57T489 75T544 109T597 161H649L591 0H22L32 49Q56 50 72 55T99 73T118 107T133 161L195 467Q203 505 203 522Q203 551 184 562T114 573L124 622H689ZM365 697Q337 697 317 717T297 765Q297 793 317 812T365 832Q393 832 412 813T432 765Q432 737 413 717T365 697ZM576 697Q548 697 528 717T508 765Q508 793 528 812T576 832Q604 832 623 813T643 765Q643 737 624 717T576 697Z"  />
<glyph unicode="&#xCC;" horiz-adv-x="388" d="M456 622L446 573Q419 573 401 568T370 551T351 518T336 464L268 131Q263 108 264 92T276 67T307 53T359 49L349 0H-3L7 49Q39 49 59 55T92 74T112 108T125 159L187 464Q192 485 193 498T195 521Q195 550 177 561T114 573L124 622H456ZM296 677L200 841H338L387 677H296Z"  />
<glyph unicode="&#xCD;" horiz-adv-x="388" d="M456 622L446 573Q419 573 401 568T370 551T351 518T336 464L268 131Q263 108 264 92T276 67T307 53T359 49L349 0H-3L7 49Q39 49 59 55T92 74T112 108T125 159L187 464Q192 485 193 498T195 521Q195 550 177 561T114 573L124 622H456ZM300 841H438L342 677H251L300 841Z"  />
<glyph unicode="&#xCE;" horiz-adv-x="388" d="M456 622L446 573Q419 573 401 568T370 551T351 518T336 464L268 131Q263 108 264 92T276 67T307 53T359 49L349 0H-3L7 49Q39 49 59 55T92 74T112 108T125 159L187 464Q192 485 193 498T195 521Q195 550 177 561T114 573L124 622H456ZM257 841H416L476 677H383L334 752L224 677H130L257 841Z"  />
<glyph unicode="&#xCF;" horiz-adv-x="388" d="M456 622L446 573Q419 573 401 568T370 551T351 518T336 464L268 131Q263 108 264 92T276 67T307 53T359 49L349 0H-3L7 49Q39 49 59 55T92 74T112 108T125 159L187 464Q192 485 193 498T195 521Q195 550 177 561T114 573L124 622H456ZM221 697Q193 697 173 717T153 765Q153 793 173 812T221 832Q249 832 268 813T288 765Q288 737 269 717T221 697ZM432 697Q404 697 384 717T364 765Q364 793 384 812T432 832Q460 832 479 813T499 765Q499 737 480 717T432 697Z"  />
<glyph unicode="&#xD0;" horiz-adv-x="820" d="M415 622Q471 622 518 620T591 613Q698 594 757 525T817 344Q817 288 797 228T731 117T609 33T420 0H17L26 49Q50 49 67 53T97 70T119 104T135 161L159 280H67L78 343H172L197 466Q204 501 204 522Q204 551 186 562T118 573L127 622H415ZM321 343H492L479 280H308L284 163Q279 137 277 125T275 105Q275 52 355 52Q427 52 482 75T575 138T632 234T651 354Q651 398 639 437T600 506T529 553T418 570H367L321 343Z"  />
<glyph unicode="&#xD1;" horiz-adv-x="775" d="M7 0L17 49Q42 50 58 57T86 81T106 122T122 186L190 520Q166 551 148 562T102 573L112 622H297L620 186L673 447Q676 464 678 481T681 506Q681 570 603 573L613 622H853L843 573Q818 570 800 563T767 540T742 497T722 425L635 -6H581L232 467L177 199Q172 172 170 156T166 124Q168 89 188 72T252 49L242 0H7ZM322 697Q327 768 356 805T431 843Q450 843 469 836T507 821T544 806T578 799Q593 799 602 808T617 838H704Q700 768 673 731T602 693Q581 693 560 699T520 714T482 728T450 735Q434 735 427 727T414 697H322Z"  />
<glyph unicode="&#xD2;" horiz-adv-x="838" d="M88 281Q88 356 114 421T191 534T315 610T484 638Q562 638 625 617T732 556T801 460T825 335Q825 257 796 193T715 82T589 10T429 -16Q342 -16 278 8T172 74T109 168T88 281ZM250 238Q250 193 262 156T298 92T353 51T424 36Q468 36 502 53T563 98T609 163T640 236T657 311T663 377Q663 474 617 530T491 586Q428 586 383 551T308 464T264 351T250 238ZM521 677L425 841H563L612 677H521Z"  />
<glyph unicode="&#xD3;" horiz-adv-x="838" d="M88 281Q88 356 114 421T191 534T315 610T484 638Q562 638 625 617T732 556T801 460T825 335Q825 257 796 193T715 82T589 10T429 -16Q342 -16 278 8T172 74T109 168T88 281ZM250 238Q250 193 262 156T298 92T353 51T424 36Q468 36 502 53T563 98T609 163T640 236T657 311T663 377Q663 474 617 530T491 586Q428 586 383 551T308 464T264 351T250 238ZM525 841H663L567 677H476L525 841Z"  />
<glyph unicode="&#xD4;" horiz-adv-x="838" d="M88 281Q88 356 114 421T191 534T315 610T484 638Q562 638 625 617T732 556T801 460T825 335Q825 257 796 193T715 82T589 10T429 -16Q342 -16 278 8T172 74T109 168T88 281ZM250 238Q250 193 262 156T298 92T353 51T424 36Q468 36 502 53T563 98T609 163T640 236T657 311T663 377Q663 474 617 530T491 586Q428 586 383 551T308 464T264 351T250 238ZM482 841H641L701 677H608L559 752L449 677H355L482 841Z"  />
<glyph unicode="&#xD5;" horiz-adv-x="838" d="M88 281Q88 356 114 421T191 534T315 610T484 638Q562 638 625 617T732 556T801 460T825 335Q825 257 796 193T715 82T589 10T429 -16Q342 -16 278 8T172 74T109 168T88 281ZM250 238Q250 193 262 156T298 92T353 51T424 36Q468 36 502 53T563 98T609 163T640 236T657 311T663 377Q663 474 617 530T491 586Q428 586 383 551T308 464T264 351T250 238ZM354 697Q359 768 388 805T463 843Q482 843 501 836T539 821T576 806T610 799Q625 799 634 808T649 838H736Q732 768 705 731T634 693Q613 693 592 699T552 714T514 728T482 735Q466 735 459 727T446 697H354Z"  />
<glyph unicode="&#xD6;" horiz-adv-x="838" d="M88 281Q88 356 114 421T191 534T315 610T484 638Q562 638 625 617T732 556T801 460T825 335Q825 257 796 193T715 82T589 10T429 -16Q342 -16 278 8T172 74T109 168T88 281ZM250 238Q250 193 262 156T298 92T353 51T424 36Q468 36 502 53T563 98T609 163T640 236T657 311T663 377Q663 474 617 530T491 586Q428 586 383 551T308 464T264 351T250 238ZM446 697Q418 697 398 717T378 765Q378 793 398 812T446 832Q474 832 493 813T513 765Q513 737 494 717T446 697ZM657 697Q629 697 609 717T589 765Q589 793 609 812T657 832Q685 832 704 813T724 765Q724 737 705 717T657 697Z"  />
<glyph unicode="&#xD7;" horiz-adv-x="668" d="M189 586L372 403L555 586L629 512L446 329L628 147L554 73L372 255L189 72L115 146L298 329L115 512L189 586Z"  />
<glyph unicode="&#xD8;" horiz-adv-x="838" d="M277 120Q306 74 344 55T424 36Q468 36 502 53T563 98T609 163T640 236T657 311T663 377Q663 402 660 424T654 455L277 120ZM88 281Q88 356 114 421T191 534T315 610T484 638Q559 638 617 619T710 573L783 638L818 601L749 539Q793 487 809 438T825 335Q825 257 796 193T715 82T589 10T429 -16Q355 -16 296 2T199 51L124 -16L90 24L160 86Q122 130 105 177T88 281ZM633 505Q586 586 491 586Q428 586 383 551T308 464T264 351T250 238Q250 219 253 201T258 172L633 505Z"  />
<glyph unicode="&#xD9;" horiz-adv-x="757" d="M443 622L433 573Q407 573 389 569T359 552T338 519T323 464L277 241Q273 222 271 203T269 173Q269 119 309 88T417 56Q468 56 505 71T567 111T608 167T630 232L673 447Q678 472 678 488Q678 568 588 573L598 622H843L833 573Q810 572 793 565T763 546T744 521T734 491L680 220Q669 166 644 123T581 48T493 1T382 -16Q324 -16 276 -2T194 38T140 99T121 178Q121 189 123 208T128 238L174 464Q177 478 179 494T181 521Q181 550 165 560T105 573L115 622H443ZM480 677L384 841H522L571 677H480Z"  />
<glyph unicode="&#xDA;" horiz-adv-x="757" d="M443 622L433 573Q407 573 389 569T359 552T338 519T323 464L277 241Q273 222 271 203T269 173Q269 119 309 88T417 56Q468 56 505 71T567 111T608 167T630 232L673 447Q678 472 678 488Q678 568 588 573L598 622H843L833 573Q810 572 793 565T763 546T744 521T734 491L680 220Q669 166 644 123T581 48T493 1T382 -16Q324 -16 276 -2T194 38T140 99T121 178Q121 189 123 208T128 238L174 464Q177 478 179 494T181 521Q181 550 165 560T105 573L115 622H443ZM484 841H622L526 677H435L484 841Z"  />
<glyph unicode="&#xDB;" horiz-adv-x="757" d="M443 622L433 573Q407 573 389 569T359 552T338 519T323 464L277 241Q273 222 271 203T269 173Q269 119 309 88T417 56Q468 56 505 71T567 111T608 167T630 232L673 447Q678 472 678 488Q678 568 588 573L598 622H843L833 573Q810 572 793 565T763 546T744 521T734 491L680 220Q669 166 644 123T581 48T493 1T382 -16Q324 -16 276 -2T194 38T140 99T121 178Q121 189 123 208T128 238L174 464Q177 478 179 494T181 521Q181 550 165 560T105 573L115 622H443ZM441 841H600L660 677H567L518 752L408 677H314L441 841Z"  />
<glyph unicode="&#xDC;" horiz-adv-x="757" d="M443 622L433 573Q407 573 389 569T359 552T338 519T323 464L277 241Q273 222 271 203T269 173Q269 119 309 88T417 56Q468 56 505 71T567 111T608 167T630 232L673 447Q678 472 678 488Q678 568 588 573L598 622H843L833 573Q810 572 793 565T763 546T744 521T734 491L680 220Q669 166 644 123T581 48T493 1T382 -16Q324 -16 276 -2T194 38T140 99T121 178Q121 189 123 208T128 238L174 464Q177 478 179 494T181 521Q181 550 165 560T105 573L115 622H443ZM405 697Q377 697 357 717T337 765Q337 793 357 812T405 832Q433 832 452 813T472 765Q472 737 453 717T405 697ZM616 697Q588 697 568 717T548 765Q548 793 568 812T616 832Q644 832 663 813T683 765Q683 737 664 717T616 697Z"  />
<glyph unicode="&#xDD;" horiz-adv-x="730" d="M802 573Q782 572 768 569T740 558T710 533T670 492L454 256L435 159Q430 138 429 128T428 110Q428 75 450 61T530 49L520 0H164L174 49Q205 51 224 57T256 77T274 110T286 159L305 256L194 504Q185 525 177 538T159 558T136 569T105 573L115 622H404L394 573Q365 572 353 567T340 547Q340 543 340 540T343 531T349 516T360 492L441 315L591 484Q615 511 615 532Q615 567 559 573L569 622H812L802 573ZM471 841H609L513 677H422L471 841Z"  />
<glyph unicode="&#xDE;" horiz-adv-x="652" d="M276 153Q296 150 330 151T399 167Q419 175 437 188T469 223T491 273T499 341Q499 377 489 400T459 436T415 455T361 461H339L276 153ZM270 109Q267 89 273 77T291 59T321 51T357 48L347 0H2L12 49Q44 50 64 56T96 74T115 107T128 159L190 463Q193 478 196 496T199 524Q199 550 180 561T114 573L124 622H465L455 573Q428 571 411 568T382 557T363 539T349 511H426Q548 511 606 465T665 330Q665 264 640 220T572 148T475 108T362 96Q350 96 328 98T270 109Z"  />
<glyph unicode="&#xDF;" horiz-adv-x="531" d="M144 409Q156 480 181 529T240 610T314 656T397 671Q467 671 507 637T548 544Q548 425 393 385V383Q453 363 479 329T506 235Q506 180 487 134T433 54T351 3T248 -12L256 23Q314 28 340 83T366 225Q366 279 355 315T320 366L326 398Q379 415 401 453T424 552Q424 594 413 613T380 633Q312 633 284 475L209 43Q199 -15 177 -65T122 -153T43 -211T-59 -232Q-107 -232 -137 -213T-168 -163Q-168 -139 -150 -122T-105 -105Q-81 -105 -66 -118T-40 -147T-19 -176T4 -189Q25 -189 38 -159T65 -47L144 409Z"  />
<glyph unicode="&#xE0;" horiz-adv-x="504" d="M413 102Q407 70 419 70Q427 70 443 84T477 122L503 105Q487 85 466 65T423 27T377 -1T334 -12Q307 -12 292 1T277 41Q277 53 279 71T283 103L281 105Q248 72 224 50T181 14T148 -6T123 -12Q88 -12 64 19T40 97Q40 154 69 211T152 315T277 390T435 419H477L413 102ZM333 350Q295 350 265 336T215 296T183 235T172 160Q172 127 181 109T207 90Q218 90 237 104T294 160L333 350ZM305 479L209 643H347L396 479H305Z"  />
<glyph unicode="&#xE1;" horiz-adv-x="504" d="M413 102Q407 70 419 70Q427 70 443 84T477 122L503 105Q487 85 466 65T423 27T377 -1T334 -12Q307 -12 292 1T277 41Q277 53 279 71T283 103L281 105Q248 72 224 50T181 14T148 -6T123 -12Q88 -12 64 19T40 97Q40 154 69 211T152 315T277 390T435 419H477L413 102ZM333 350Q295 350 265 336T215 296T183 235T172 160Q172 127 181 109T207 90Q218 90 237 104T294 160L333 350ZM309 643H447L351 479H260L309 643Z"  />
<glyph unicode="&#xE2;" horiz-adv-x="504" d="M413 102Q407 70 419 70Q427 70 443 84T477 122L503 105Q487 85 466 65T423 27T377 -1T334 -12Q307 -12 292 1T277 41Q277 53 279 71T283 103L281 105Q248 72 224 50T181 14T148 -6T123 -12Q88 -12 64 19T40 97Q40 154 69 211T152 315T277 390T435 419H477L413 102ZM333 350Q295 350 265 336T215 296T183 235T172 160Q172 127 181 109T207 90Q218 90 237 104T294 160L333 350ZM276 643H435L495 479H402L353 554L243 479H149L276 643Z"  />
<glyph unicode="&#xE3;" horiz-adv-x="504" d="M413 102Q407 70 419 70Q427 70 443 84T477 122L503 105Q487 85 466 65T423 27T377 -1T334 -12Q307 -12 292 1T277 41Q277 53 279 71T283 103L281 105Q248 72 224 50T181 14T148 -6T123 -12Q88 -12 64 19T40 97Q40 154 69 211T152 315T277 390T435 419H477L413 102ZM333 350Q295 350 265 336T215 296T183 235T172 160Q172 127 181 109T207 90Q218 90 237 104T294 160L333 350ZM138 499Q143 570 172 607T247 645Q266 645 285 638T323 623T360 608T394 601Q409 601 418 610T433 640H520Q516 570 489 533T418 495Q397 495 376 501T336 516T298 530T266 537Q250 537 243 529T230 499H138Z"  />
<glyph unicode="&#xE4;" horiz-adv-x="504" d="M413 102Q407 70 419 70Q427 70 443 84T477 122L503 105Q487 85 466 65T423 27T377 -1T334 -12Q307 -12 292 1T277 41Q277 53 279 71T283 103L281 105Q248 72 224 50T181 14T148 -6T123 -12Q88 -12 64 19T40 97Q40 154 69 211T152 315T277 390T435 419H477L413 102ZM333 350Q295 350 265 336T215 296T183 235T172 160Q172 127 181 109T207 90Q218 90 237 104T294 160L333 350ZM230 499Q202 499 182 519T162 567Q162 595 182 614T230 634Q258 634 277 615T297 567Q297 539 278 519T230 499ZM441 499Q413 499 393 519T373 567Q373 595 393 614T441 634Q469 634 488 615T508 567Q508 539 489 519T441 499Z"  />
<glyph unicode="&#xE5;" horiz-adv-x="504" d="M413 102Q407 70 419 70Q427 70 443 84T477 122L503 105Q487 85 466 65T423 27T377 -1T334 -12Q307 -12 292 1T277 41Q277 53 279 71T283 103L281 105Q248 72 224 50T181 14T148 -6T123 -12Q88 -12 64 19T40 97Q40 154 69 211T152 315T277 390T435 419H477L413 102ZM333 350Q295 350 265 336T215 296T183 235T172 160Q172 127 181 109T207 90Q218 90 237 104T294 160L333 350ZM337 668Q358 668 376 660T408 639T430 607T438 567Q438 546 430 528T409 495T377 473T337 465Q316 465 298 473T265 495T243 527T235 567Q235 588 243 606T265 638T297 660T337 668ZM337 506Q362 506 379 523T397 566Q397 591 380 609T337 627Q312 627 294 609T276 566Q276 541 294 524T337 506Z"  />
<glyph unicode="&#xE6;" horiz-adv-x="657" d="M476 399Q525 420 567 420Q609 420 635 398T662 339Q662 308 647 284T602 241T530 205T433 173Q431 166 431 158T431 141Q431 54 509 54Q563 54 622 99L640 77Q586 35 526 12T413 -12Q359 -12 326 24T293 118Q228 45 190 17T127 -12Q109 -12 94 -4T68 19T50 54T43 97Q43 150 71 207T151 311T276 388T438 419H480L476 399ZM339 350Q308 350 279 339T226 305T189 245T175 160Q175 126 184 108T211 90Q224 90 242 105T299 162L339 350ZM550 336Q550 357 543 370T521 383Q510 383 498 369T474 331T454 273T438 203Q495 226 522 260T550 336Z"  />
<glyph unicode="&#xE7;" horiz-adv-x="360" d="M70 -166Q102 -167 123 -155T145 -126Q145 -108 123 -105L142 -9Q96 -1 72 29T47 111Q47 162 69 216T127 316T212 391T315 420Q349 420 370 403T392 358Q392 332 375 316T331 299Q310 299 298 308T277 328Q269 339 262 347T242 356Q228 356 218 336T199 286T187 223T183 163Q183 104 200 78T254 51Q300 51 350 102L365 82Q335 39 286 15T180 -12L175 -35Q204 -37 220 -54T236 -101Q236 -123 228 -141T199 -173T145 -193T64 -198L70 -166H70Z"  />
<glyph unicode="&#xE8;" horiz-adv-x="405" d="M392 77Q341 36 280 12T168 -12Q112 -12 79 22T46 115Q46 160 66 213T122 312T209 389T319 420Q362 420 388 398T415 339Q415 312 403 289T363 247T291 210T185 174Q183 164 183 157T182 141Q182 54 261 54Q287 54 316 66T375 99L392 77ZM191 203Q242 223 272 258T303 336Q303 357 295 370T274 383Q251 383 229 338T191 203ZM255 479L159 643H297L346 479H255Z"  />
<glyph unicode="&#xE9;" horiz-adv-x="405" d="M392 77Q341 36 280 12T168 -12Q112 -12 79 22T46 115Q46 160 66 213T122 312T209 389T319 420Q362 420 388 398T415 339Q415 312 403 289T363 247T291 210T185 174Q183 164 183 157T182 141Q182 54 261 54Q287 54 316 66T375 99L392 77ZM191 203Q242 223 272 258T303 336Q303 357 295 370T274 383Q251 383 229 338T191 203ZM259 643H397L301 479H210L259 643Z"  />
<glyph unicode="&#xEA;" horiz-adv-x="405" d="M392 77Q341 36 280 12T168 -12Q112 -12 79 22T46 115Q46 160 66 213T122 312T209 389T319 420Q362 420 388 398T415 339Q415 312 403 289T363 247T291 210T185 174Q183 164 183 157T182 141Q182 54 261 54Q287 54 316 66T375 99L392 77ZM191 203Q242 223 272 258T303 336Q303 357 295 370T274 383Q251 383 229 338T191 203ZM229 643H388L448 479H355L306 554L196 479H102L229 643Z"  />
<glyph unicode="&#xEB;" horiz-adv-x="405" d="M392 77Q341 36 280 12T168 -12Q112 -12 79 22T46 115Q46 160 66 213T122 312T209 389T319 420Q362 420 388 398T415 339Q415 312 403 289T363 247T291 210T185 174Q183 164 183 157T182 141Q182 54 261 54Q287 54 316 66T375 99L392 77ZM191 203Q242 223 272 258T303 336Q303 357 295 370T274 383Q251 383 229 338T191 203ZM180 499Q152 499 132 519T112 567Q112 595 132 614T180 634Q208 634 227 615T247 567Q247 539 228 519T180 499ZM391 499Q363 499 343 519T323 567Q323 595 343 614T391 634Q419 634 438 615T458 567Q458 539 439 519T391 499Z"  />
<glyph unicode="&#xEC;" horiz-adv-x="306" d="M306 80Q268 38 226 13T148 -12Q79 -12 79 61Q79 72 82 87T88 120L120 280Q126 311 125 321T116 331Q111 331 97 319T65 284L44 304Q99 366 136 393T203 420Q230 420 245 403T260 355Q260 344 259 333T256 312L209 83Q206 66 208 60T218 53Q229 53 247 67T286 103L306 80ZM207 479L111 643H249L298 479H207Z"  />
<glyph unicode="&#xED;" horiz-adv-x="306" d="M306 80Q268 38 226 13T148 -12Q79 -12 79 61Q79 72 82 87T88 120L120 280Q126 311 125 321T116 331Q111 331 97 319T65 284L44 304Q99 366 136 393T203 420Q230 420 245 403T260 355Q260 344 259 333T256 312L209 83Q206 66 208 60T218 53Q229 53 247 67T286 103L306 80ZM211 643H349L253 479H162L211 643Z"  />
<glyph unicode="&#xEE;" horiz-adv-x="306" d="M306 80Q268 38 226 13T148 -12Q79 -12 79 61Q79 72 82 87T88 120L120 280Q126 311 125 321T116 331Q111 331 97 319T65 284L44 304Q99 366 136 393T203 420Q230 420 245 403T260 355Q260 344 259 333T256 312L209 83Q206 66 208 60T218 53Q229 53 247 67T286 103L306 80ZM168 643H327L387 479H294L245 554L135 479H41L168 643Z"  />
<glyph unicode="&#xEF;" horiz-adv-x="306" d="M306 80Q268 38 226 13T148 -12Q79 -12 79 61Q79 72 82 87T88 120L120 280Q126 311 125 321T116 331Q111 331 97 319T65 284L44 304Q99 366 136 393T203 420Q230 420 245 403T260 355Q260 344 259 333T256 312L209 83Q206 66 208 60T218 53Q229 53 247 67T286 103L306 80ZM132 499Q104 499 84 519T64 567Q64 595 84 614T132 634Q160 634 179 615T199 567Q199 539 180 519T132 499ZM343 499Q315 499 295 519T275 567Q275 595 295 614T343 634Q371 634 390 615T410 567Q410 539 391 519T343 499Z"  />
<glyph unicode="&#xF0;" horiz-adv-x="417" d="M160 153Q160 97 173 65T206 33Q222 33 237 51T265 100T284 170T292 252Q292 311 280 341T244 372Q228 372 213 354T186 305T167 235T160 153ZM478 589L364 551Q384 520 397 486T418 419T429 354T432 299Q432 241 417 196T378 116T322 57T260 18T199 -5T147 -12Q90 -12 55 27T20 132Q20 201 50 253T120 341T200 395T260 414Q268 414 278 412T299 402Q299 432 292 462T274 520L144 476L128 521L254 564Q243 586 231 604T206 634L239 658Q295 635 333 590L462 634L478 589Z"  />
<glyph unicode="&#xF1;" horiz-adv-x="541" d="M47 287Q98 355 140 387T217 420Q269 420 269 356Q269 338 265 312T253 256L255 254Q325 342 373 381T458 420Q487 420 500 402T513 362Q513 344 510 325T496 268L467 154Q461 130 458 116T453 94T451 83T450 77Q450 72 453 69T461 65Q476 65 517 119L541 102Q509 60 483 37T437 3T403 -10T379 -12Q345 -12 332 6T318 48Q318 62 321 80T333 136L361 255Q367 279 368 286T369 299Q369 313 359 313Q345 312 316 281T239 186L208 42Q203 16 196 8T171 0H93Q83 0 80 2T76 14Q76 18 78 28T82 49L131 277Q133 286 134 296T136 310Q136 316 133 319T125 323Q110 323 71 269L47 287ZM156 499Q161 570 190 607T265 645Q284 645 303 638T341 623T378 608T412 601Q427 601 436 610T451 640H538Q534 570 507 533T436 495Q415 495 394 501T354 516T316 530T284 537Q268 537 261 529T248 499H156Z"  />
<glyph unicode="&#xF2;" horiz-adv-x="477" d="M51 129Q51 189 76 241T142 334T233 397T335 420Q395 420 430 381T465 275Q465 208 436 155T364 65T271 8T179 -12Q122 -12 87 27T51 129ZM191 153Q191 95 204 64T237 33Q253 33 269 49T297 94T317 163T325 252Q325 317 313 346T275 375Q259 375 244 356T217 306T198 235T191 153ZM291 479L195 643H333L382 479H291Z"  />
<glyph unicode="&#xF3;" horiz-adv-x="477" d="M51 129Q51 189 76 241T142 334T233 397T335 420Q395 420 430 381T465 275Q465 208 436 155T364 65T271 8T179 -12Q122 -12 87 27T51 129ZM191 153Q191 95 204 64T237 33Q253 33 269 49T297 94T317 163T325 252Q325 317 313 346T275 375Q259 375 244 356T217 306T198 235T191 153ZM295 643H433L337 479H246L295 643Z"  />
<glyph unicode="&#xF4;" horiz-adv-x="477" d="M51 129Q51 189 76 241T142 334T233 397T335 420Q395 420 430 381T465 275Q465 208 436 155T364 65T271 8T179 -12Q122 -12 87 27T51 129ZM191 153Q191 95 204 64T237 33Q253 33 269 49T297 94T317 163T325 252Q325 317 313 346T275 375Q259 375 244 356T217 306T198 235T191 153ZM262 643H421L481 479H388L339 554L229 479H135L262 643Z"  />
<glyph unicode="&#xF5;" horiz-adv-x="477" d="M51 129Q51 189 76 241T142 334T233 397T335 420Q395 420 430 381T465 275Q465 208 436 155T364 65T271 8T179 -12Q122 -12 87 27T51 129ZM191 153Q191 95 204 64T237 33Q253 33 269 49T297 94T317 163T325 252Q325 317 313 346T275 375Q259 375 244 356T217 306T198 235T191 153ZM124 499Q129 570 158 607T233 645Q252 645 271 638T309 623T346 608T380 601Q395 601 404 610T419 640H506Q502 570 475 533T404 495Q383 495 362 501T322 516T284 530T252 537Q236 537 229 529T216 499H124Z"  />
<glyph unicode="&#xF6;" horiz-adv-x="477" d="M51 129Q51 189 76 241T142 334T233 397T335 420Q395 420 430 381T465 275Q465 208 436 155T364 65T271 8T179 -12Q122 -12 87 27T51 129ZM191 153Q191 95 204 64T237 33Q253 33 269 49T297 94T317 163T325 252Q325 317 313 346T275 375Q259 375 244 356T217 306T198 235T191 153ZM216 499Q188 499 168 519T148 567Q148 595 168 614T216 634Q244 634 263 615T283 567Q283 539 264 519T216 499ZM427 499Q399 499 379 519T359 567Q359 595 379 614T427 634Q455 634 474 615T494 567Q494 539 475 519T427 499Z"  />
<glyph unicode="&#xF7;" horiz-adv-x="668" d="M372 182Q398 182 416 164T434 120Q434 94 416 76T372 57Q346 57 328 75T309 120Q309 146 327 164T372 182ZM372 602Q398 602 416 584T434 539Q434 513 416 495T372 477Q346 477 328 495T309 539Q309 565 327 583T372 602ZM644 382V277H99V382H644Z"  />
<glyph unicode="&#xF8;" horiz-adv-x="477" d="M193 123Q194 78 208 56T237 33Q255 33 271 50T299 98T318 168T325 255L193 123ZM51 129Q51 189 76 241T142 334T233 397T335 420Q355 420 377 414T417 393L467 443L489 423L437 371Q451 351 458 330T465 275Q465 208 436 155T364 65T271 8T179 -12Q158 -12 137 -6T98 17L40 -41L19 -19L77 39Q64 56 58 80T51 129ZM323 295Q320 336 308 355T275 375Q260 375 245 357T218 310T199 242T191 163L323 295Z"  />
<glyph unicode="&#xF9;" horiz-adv-x="541" d="M543 115Q488 55 442 22T364 -12Q345 -12 334 1T322 34Q322 44 324 63T330 104T338 149T346 186L344 188Q266 89 216 39T129 -12Q87 -12 87 41Q87 63 94 95L136 301Q142 330 131 330Q124 330 113 318T87 286L63 303Q88 337 109 359T149 395T184 414T216 420Q274 420 274 362Q274 351 271 332T263 286L242 182Q234 146 236 136T247 125Q251 125 255 129T265 138Q291 164 309 188T341 240T365 300T384 376Q388 398 393 403T415 408H494Q508 408 511 401T510 371L460 120Q456 100 458 94T466 87Q474 87 491 103T522 135L543 115ZM323 479L227 643H365L414 479H323Z"  />
<glyph unicode="&#xFA;" horiz-adv-x="541" d="M543 115Q488 55 442 22T364 -12Q345 -12 334 1T322 34Q322 44 324 63T330 104T338 149T346 186L344 188Q266 89 216 39T129 -12Q87 -12 87 41Q87 63 94 95L136 301Q142 330 131 330Q124 330 113 318T87 286L63 303Q88 337 109 359T149 395T184 414T216 420Q274 420 274 362Q274 351 271 332T263 286L242 182Q234 146 236 136T247 125Q251 125 255 129T265 138Q291 164 309 188T341 240T365 300T384 376Q388 398 393 403T415 408H494Q508 408 511 401T510 371L460 120Q456 100 458 94T466 87Q474 87 491 103T522 135L543 115ZM327 643H465L369 479H278L327 643Z"  />
<glyph unicode="&#xFB;" horiz-adv-x="541" d="M543 115Q488 55 442 22T364 -12Q345 -12 334 1T322 34Q322 44 324 63T330 104T338 149T346 186L344 188Q266 89 216 39T129 -12Q87 -12 87 41Q87 63 94 95L136 301Q142 330 131 330Q124 330 113 318T87 286L63 303Q88 337 109 359T149 395T184 414T216 420Q274 420 274 362Q274 351 271 332T263 286L242 182Q234 146 236 136T247 125Q251 125 255 129T265 138Q291 164 309 188T341 240T365 300T384 376Q388 398 393 403T415 408H494Q508 408 511 401T510 371L460 120Q456 100 458 94T466 87Q474 87 491 103T522 135L543 115ZM284 643H443L503 479H410L361 554L251 479H157L284 643Z"  />
<glyph unicode="&#xFC;" horiz-adv-x="541" d="M543 115Q488 55 442 22T364 -12Q345 -12 334 1T322 34Q322 44 324 63T330 104T338 149T346 186L344 188Q266 89 216 39T129 -12Q87 -12 87 41Q87 63 94 95L136 301Q142 330 131 330Q124 330 113 318T87 286L63 303Q88 337 109 359T149 395T184 414T216 420Q274 420 274 362Q274 351 271 332T263 286L242 182Q234 146 236 136T247 125Q251 125 255 129T265 138Q291 164 309 188T341 240T365 300T384 376Q388 398 393 403T415 408H494Q508 408 511 401T510 371L460 120Q456 100 458 94T466 87Q474 87 491 103T522 135L543 115ZM248 499Q220 499 200 519T180 567Q180 595 200 614T248 634Q276 634 295 615T315 567Q315 539 296 519T248 499ZM459 499Q431 499 411 519T391 567Q391 595 411 614T459 634Q487 634 506 615T526 567Q526 539 507 519T459 499Z"  />
<glyph unicode="&#xFD;" horiz-adv-x="486" d="M38 315Q108 420 176 420Q199 420 218 408T251 366T272 289T280 171Q280 163 280 146T279 107T277 65T275 26L277 24Q289 48 304 85T333 161T356 233T366 281Q366 292 362 301T354 318T346 334T342 354Q342 382 364 401T418 420Q448 420 467 403T487 357Q487 334 477 310T448 255T404 187T349 98Q322 52 299 6T259 -79T232 -143T222 -177Q222 -189 233 -197T280 -203L275 -232H-13L-8 -203Q47 -206 70 -183Q81 -172 97 -142T128 -72T153 14T164 106Q164 138 161 178T152 254T136 314T113 339Q104 339 92 330T61 296L38 315ZM300 643H438L342 479H251L300 643Z"  />
<glyph unicode="&#xFE;" horiz-adv-x="523" d="M256 -232H-56L-50 -203Q-23 -203 -6 -198T24 -180T44 -146T59 -91L186 535Q193 569 192 578T178 587Q172 587 163 585T147 579L136 607L259 654Q304 671 319 671Q336 671 336 653Q336 644 332 619T320 558L260 267L262 265Q292 303 308 323T340 359Q370 391 390 405T427 420Q439 420 453 410T479 381Q494 358 501 331T509 271Q509 215 489 164T435 73T357 11T264 -12Q250 -12 237 -9T207 2L188 -95Q184 -112 182 -129T180 -156Q180 -185 209 -196Q217 -200 228 -201T262 -203L256 -232ZM244 189L223 82Q229 59 241 45T270 30Q289 30 306 48T338 97T360 166T369 246Q369 310 347 310Q339 310 330 300T312 279L244 189Z"  />
<glyph unicode="&#xFF;" horiz-adv-x="486" d="M38 315Q108 420 176 420Q199 420 218 408T251 366T272 289T280 171Q280 163 280 146T279 107T277 65T275 26L277 24Q289 48 304 85T333 161T356 233T366 281Q366 292 362 301T354 318T346 334T342 354Q342 382 364 401T418 420Q448 420 467 403T487 357Q487 334 477 310T448 255T404 187T349 98Q322 52 299 6T259 -79T232 -143T222 -177Q222 -189 233 -197T280 -203L275 -232H-13L-8 -203Q47 -206 70 -183Q81 -172 97 -142T128 -72T153 14T164 106Q164 138 161 178T152 254T136 314T113 339Q104 339 92 330T61 296L38 315ZM221 499Q193 499 173 519T153 567Q153 595 173 614T221 634Q249 634 268 615T288 567Q288 539 269 519T221 499ZM432 499Q404 499 384 519T364 567Q364 595 384 614T432 634Q460 634 479 615T499 567Q499 539 480 519T432 499Z"  />
<glyph unicode="&#x131;" horiz-adv-x="306" d="M306 80Q268 38 226 13T148 -12Q79 -12 79 61Q79 72 82 87T88 120L120 280Q126 311 125 321T116 331Q111 331 97 319T65 284L44 304Q99 366 136 393T203 420Q230 420 245 403T260 355Q260 344 259 333T256 312L209 83Q206 66 208 60T218 53Q229 53 247 67T286 103L306 80Z"  />
<glyph unicode="&#x152;" horiz-adv-x="1072" d="M1053 461H1001Q1000 493 993 514T969 547T924 565T851 570H761L713 340H825Q855 340 874 342T905 352T924 373T937 408H989L946 198H894Q907 251 889 269T810 288H703L674 146Q672 136 671 125T669 106Q669 77 689 65T756 52Q910 52 992 161H1044L987 0H701Q618 0 565 -1T476 -4Q441 -6 420 -7T380 -9Q311 -9 257 13T166 74T109 165T89 276Q89 330 110 392T178 507T300 596T483 631Q493 631 518 630T575 627Q607 625 640 624T701 622H1086L1053 461ZM588 454Q593 477 594 489T596 510Q596 519 593 531T580 553T554 571T510 579Q447 579 400 546T320 462T272 354T255 246Q255 201 267 164T300 100T352 58T419 43Q447 43 465 51T495 73T514 108T526 153L588 454Z"  />
<glyph unicode="&#x153;" horiz-adv-x="667" d="M657 77Q605 36 545 12T433 -12Q365 -12 331 40Q250 -12 179 -12Q121 -12 87 27T52 132Q52 191 78 243T145 335T236 397T335 420Q403 420 441 367Q511 420 584 420Q626 420 652 398T679 339Q679 306 661 281T612 237T539 202T450 174Q446 155 446 140Q446 54 526 54Q552 54 581 65T640 99L657 77ZM192 153Q192 97 204 65T238 33Q254 33 269 51T297 100T316 170T324 252Q324 311 312 343T275 375Q257 375 242 354T216 301T198 229T192 153ZM539 383Q513 383 494 336T455 203Q507 223 537 258T567 336Q567 362 561 372T539 383Z"  />
<glyph unicode="&#x160;" horiz-adv-x="589" d="M135 206Q135 172 143 142T171 88T221 50T295 36Q346 36 376 58T406 119Q406 144 388 168T343 218T284 270T225 325T180 386T162 454Q162 482 173 514T211 574T277 620T377 638Q403 638 422 635T456 629T485 622T514 619Q536 619 551 634H598L570 439H512Q498 511 463 548T371 586Q333 586 309 566T285 516Q285 492 303 467T350 416T411 362T472 305T519 244T538 177Q538 135 520 100T468 39T388 -1T284 -16Q230 -16 167 -1T43 41L86 206H135ZM480 677H321L261 841H354L403 766L513 841H607L480 677Z"  />
<glyph unicode="&#x161;" horiz-adv-x="381" d="M81 124Q102 124 120 110T156 80T190 50T222 36Q233 36 240 43T247 62Q247 73 237 88T209 121L156 175Q128 203 116 229T103 283Q103 312 116 337T153 380T209 409T277 420Q322 420 350 400T378 348Q378 322 360 303T317 284Q294 284 283 298T264 330T249 361T225 376Q214 376 207 368T199 348Q199 337 209 321T248 272L290 224Q312 199 320 179T329 133Q329 101 316 74T278 28T219 -1T143 -12Q86 -12 54 8T22 64Q22 89 39 106T81 124ZM319 479H160L100 643H193L242 568L352 643H446L319 479Z"  />
<glyph unicode="&#x178;" horiz-adv-x="730" d="M802 573Q782 572 768 569T740 558T710 533T670 492L454 256L435 159Q430 138 429 128T428 110Q428 75 450 61T530 49L520 0H164L174 49Q205 51 224 57T256 77T274 110T286 159L305 256L194 504Q185 525 177 538T159 558T136 569T105 573L115 622H404L394 573Q365 572 353 567T340 547Q340 543 340 540T343 531T349 516T360 492L441 315L591 484Q615 511 615 532Q615 567 559 573L569 622H812L802 573ZM392 697Q364 697 344 717T324 765Q324 793 344 812T392 832Q420 832 439 813T459 765Q459 737 440 717T392 697ZM603 697Q575 697 555 717T535 765Q535 793 555 812T603 832Q631 832 650 813T670 765Q670 737 651 717T603 697Z"  />
<glyph unicode="&#x17D;" horiz-adv-x="721" d="M631 0H30V49L529 570H421Q375 570 343 563T287 541T245 501T206 442H160L197 622H744V584L238 52H382Q433 52 470 60T536 85T590 128T640 193H686L631 0ZM538 677H379L319 841H412L461 766L571 841H665L538 677Z"  />
<glyph unicode="&#x17E;" horiz-adv-x="469" d="M447 98Q427 68 411 48T378 14T343 -6T300 -12Q272 -12 245 -2T193 19T149 41T113 51Q87 51 87 22Q87 5 80 -3T56 -12Q41 -12 32 -4T22 19Q22 39 33 63T78 120Q103 145 136 166T206 206T277 241T342 275T392 309T418 345Q388 328 366 316T326 296T293 285T263 281Q241 281 222 287T185 300T154 314T130 321Q120 321 112 316T96 297L71 320Q112 371 145 395T215 420Q239 420 264 412T312 395T355 377T388 369Q399 369 403 377T411 394T420 412T440 420Q453 420 461 409T469 381Q469 364 459 340T415 282Q371 238 320 210T221 161T139 120T91 75L93 73L95 75Q136 95 175 107T243 120Q264 120 283 115T319 103T351 92T378 86Q391 86 399 92T422 115L447 98ZM363 479H204L144 643H237L286 568L396 643H490L363 479Z"  />
<glyph unicode="&#x192;" horiz-adv-x="563" d="M176 384Q199 386 223 393T256 408Q265 465 285 513T337 596T411 651T503 671Q554 671 583 654T612 605Q612 581 596 566T557 550Q533 550 517 563T489 591T468 619T449 632Q429 632 420 587L385 408H458L447 355H375L321 45Q309 -24 283 -76T222 -162T143 -214T52 -232Q4 -232 -26 -213T-57 -162Q-57 -138 -39 -121T6 -104Q32 -104 46 -117T71 -146T92 -175T118 -189Q128 -189 135 -183T150 -160T163 -117T176 -47L246 355H170L176 384Z"  />
<glyph unicode="&#x2C6;" horiz-adv-x="333" d="M180 643H339L399 479H306L257 554L147 479H53L180 643Z"  />
<glyph unicode="&#x2DC;" horiz-adv-x="333" d="M52 499Q57 570 86 607T161 645Q180 645 199 638T237 623T274 608T308 601Q323 601 332 610T347 640H434Q430 570 403 533T332 495Q311 495 290 501T250 516T212 530T180 537Q164 537 157 529T144 499H52Z"  />
<glyph unicode="&#x2013;" horiz-adv-x="500" d="M506 311V189H-6V311H506Z"  />
<glyph unicode="&#x2014;" horiz-adv-x="1000" d="M1006 311V189H-6V311H1006Z"  />
<glyph unicode="&#x2018;" horiz-adv-x="333" d="M378 636Q271 601 271 537Q271 517 278 503T293 475T308 450T315 422Q315 393 293 373T239 352Q198 352 173 382T147 459Q147 497 162 531T206 594T274 642T361 671L378 636Z"  />
<glyph unicode="&#x2019;" horiz-adv-x="333" d="M110 387Q217 422 217 486Q217 506 210 520T195 548T180 573T173 601Q173 630 195 650T249 671Q290 671 315 641T341 564Q341 526 326 492T282 429T214 381T127 352L110 387Z"  />
<glyph unicode="&#x201A;" horiz-adv-x="333" d="M20 -134Q127 -99 127 -35Q127 -15 120 -1T105 27T90 52T83 80Q83 109 105 129T159 150Q200 150 225 120T251 43Q251 5 236 -29T192 -92T124 -140T37 -169L20 -134Z"  />
<glyph unicode="&#x201C;" horiz-adv-x="613" d="M661 636Q554 601 554 537Q554 517 561 503T576 475T591 450T598 422Q598 393 576 373T522 352Q481 352 456 382T430 459Q430 497 445 531T489 594T557 642T644 671L661 636ZM379 636Q272 601 272 537Q272 517 279 503T294 475T309 450T316 422Q316 393 294 373T240 352Q199 352 174 382T148 459Q148 497 163 531T207 594T275 642T362 671L379 636Z"  />
<glyph unicode="&#x201D;" horiz-adv-x="613" d="M390 387Q497 422 497 486Q497 506 490 520T475 548T460 573T453 601Q453 630 475 650T529 671Q570 671 595 641T621 564Q621 526 606 492T562 429T494 381T407 352L390 387ZM109 387Q216 422 216 486Q216 506 209 520T194 548T179 573T172 601Q172 630 194 650T248 671Q289 671 314 641T340 564Q340 526 325 492T281 429T213 381T126 352L109 387Z"  />
<glyph unicode="&#x201E;" horiz-adv-x="613" d="M301 -134Q408 -99 408 -35Q408 -15 401 -1T386 27T371 52T364 80Q364 109 386 129T440 150Q481 150 506 120T532 43Q532 5 517 -29T473 -92T405 -140T318 -169L301 -134ZM20 -134Q127 -99 127 -35Q127 -15 120 -1T105 27T90 52T83 80Q83 109 105 129T159 150Q200 150 225 120T251 43Q251 5 236 -29T192 -92T124 -140T37 -169L20 -134Z"  />
<glyph unicode="&#x2020;" horiz-adv-x="459" d="M248 -207Q247 -216 243 -221T225 -227H115Q78 -227 78 -207Q78 -203 81 -193T87 -175L248 342L91 294Q71 288 63 289T55 301Q55 304 56 310T58 321L79 421Q81 430 84 433T89 436Q93 436 104 432T125 425L256 380V605Q256 622 260 626T276 630H387Q405 630 410 628T416 621Q416 617 412 608T405 594L304 380L466 430Q487 437 493 435T499 422Q499 420 497 407T492 384L478 313Q475 299 472 294T460 288Q456 288 446 291T433 295L296 342L248 -207Z"  />
<glyph unicode="&#x2021;" horiz-adv-x="477" d="M399 75Q406 77 417 79T431 82Q446 82 440 55L420 -39Q414 -65 403 -65Q399 -65 393 -63T378 -58L239 -10L253 -184Q255 -209 252 -218T231 -227H114Q105 -227 99 -225T93 -219Q93 -214 98 -201T108 -180L189 -10L58 -50Q42 -55 34 -57T20 -61T13 -63T8 -63Q-1 -63 -2 -56T0 -29L18 61Q22 84 30 84Q35 84 44 81T61 75L197 29L196 202L268 376L137 336Q110 328 101 326T87 323Q71 323 77 351L97 447Q102 470 109 470Q114 470 122 468T134 463L275 415L265 574Q265 579 264 593T262 615Q262 624 265 627T279 630H398Q412 630 415 628T419 621Q419 618 417 611T413 600L326 415L475 460Q503 469 510 469Q520 469 520 456Q520 451 519 444T516 433L499 347Q495 327 490 324T469 325L318 376L319 202L247 29L399 75Z"  />
<glyph unicode="&#x2022;" horiz-adv-x="354" d="M56 286Q56 311 65 333T91 371T130 396T177 406Q202 406 224 397T262 371T287 333T297 286Q297 261 288 239T262 201T224 175T177 165Q152 165 130 174T92 200T66 239T56 286Z"  />
<glyph unicode="&#x2026;" horiz-adv-x="865" d="M529 72Q529 35 502 12T433 -12Q390 -12 364 11T337 72Q337 109 364 133T433 157Q475 157 502 133T529 72ZM240 72Q240 35 213 12T144 -12Q102 -12 75 11T48 72Q48 109 75 133T144 157Q186 157 213 133T240 72ZM818 72Q818 35 791 12T722 -12Q680 -12 653 11T626 72Q626 109 653 133T722 157Q764 157 791 133T818 72Z"  />
<glyph unicode="&#x2030;" horiz-adv-x="986" d="M252 611Q241 611 231 593T208 523L190 451Q187 439 184 425T179 396T176 371T174 354Q174 326 190 326Q201 326 213 346T235 409L252 481Q260 514 265 541T270 583Q270 611 252 611ZM87 418Q87 460 101 500T139 570T193 619T257 638Q302 638 329 604T357 514Q357 474 342 436T303 367T249 318T187 299Q142 299 115 332T87 418ZM59 -37L605 638H690L144 -37H59ZM722 111Q722 153 736 193T774 263T828 312T892 331Q937 331 964 297T992 207Q992 167 977 129T938 60T884 11T822 -8Q777 -8 750 25T722 111ZM887 304Q876 304 866 286T843 216L825 144Q822 132 819 118T814 89T811 64T809 47Q809 19 825 19Q836 19 848 39T870 102L887 174Q895 207 900 234T905 276Q905 304 887 304ZM416 111Q416 153 430 193T468 263T522 312T586 331Q631 331 658 297T686 207Q686 167 671 129T632 60T578 11T516 -8Q471 -8 444 25T416 111ZM581 304Q570 304 560 286T537 216L519 144Q516 132 513 118T508 89T505 64T503 47Q503 19 519 19Q530 19 542 39T564 102L581 174Q589 207 594 234T599 276Q599 304 581 304Z"  />
<glyph unicode="&#x2039;" horiz-adv-x="343" d="M336 393L215 213L240 34H203L72 213L295 393H336Z"  />
<glyph unicode="&#x203A;" horiz-adv-x="343" d="M52 34L173 214L148 393H185L316 214L93 34H52Z"  />
<glyph unicode="&#x20AC;" horiz-adv-x="568" d="M499 243H266Q266 208 271 172T289 107T320 59T365 40Q391 40 430 60T507 114L538 93Q523 77 503 59T456 24T399 -3T333 -14Q275 -14 234 10T165 72T125 155T110 243H45L55 290H111Q113 304 114 317T118 344H55L65 391H129Q144 442 169 486T232 564T318 617T427 637Q457 637 482 633T527 622T561 608T585 596L562 461H520Q522 479 519 502T505 545T475 579T425 593Q398 593 376 576T334 530T302 465T279 391H539L529 344H270Q268 330 267 317T265 290H509L499 243Z"  />
<glyph unicode="&#x2122;" horiz-adv-x="1052" d="M392 671V561H375Q372 608 351 627T281 646H263V359Q263 338 265 326T272 306T287 297T312 294V273H91V294Q108 294 118 296T133 306T139 325T141 359V646H125Q77 646 56 627T29 561H13V671H392ZM626 671L739 429L850 671H1020V652Q1004 652 995 650T980 642T972 622T970 588V343Q970 317 981 306T1020 294V273H795V294Q813 294 824 296T840 305T848 325T850 359V604H848L695 273H683L529 604H527V342Q527 315 539 305T583 294V273H446V294Q464 294 475 296T491 305T498 325T500 359V588Q500 628 489 640T446 652V671H626Z"  />

</font>
</defs>
</svg>
