<svg xmlns="http://www.w3.org/2000/svg">
<defs>
<font horiz-adv-x="694" id="e3a9cbeb-1a58-44e7-899c-cbac01f22588">
<font-face font-family="" panose-1="2 11 8 5 3 5 2 9 2 4" ascent="923" descent="-200" units-per-em="1000" alphabetic="0">
</font-face>
<missing-glyph horiz-adv-x="0" />

<glyph unicode="&#xA;" />
<glyph unicode="&#xD;" horiz-adv-x="0" />
<glyph unicode=" " horiz-adv-x="370" />
<glyph unicode="!" horiz-adv-x="520" d="M337 722H489L358 200H246L337 722ZM219 140H359L330 0H190L219 140Z"  />
<glyph unicode="&quot;" horiz-adv-x="667" d="M365 722H477V498H365V722ZM190 722H302V498H190V722Z"  />
<glyph unicode="#" horiz-adv-x="740" d="M245 196H160L179 286H277L319 406H234L253 496H351L421 692H517L447 496H545L615 692H711L641 496H726L707 406H609L567 286H652L633 196H535L466 0H370L439 196H341L272 0H176L245 196ZM513 406H415L373 286H471L513 406Z"  />
<glyph unicode="$" horiz-adv-x="740" d="M327 -19Q253 -17 198 0T109 48T62 124T62 226H224Q216 167 247 132T350 88L395 300L356 305Q286 314 242 333T174 380T145 441T147 513Q159 570 192 612T271 681T374 723T489 741L499 788H571L561 741Q698 732 757 671T799 506H637Q646 565 620 594T538 634L496 434L606 418Q666 409 702 388T755 340T775 280T772 218Q749 112 655 51T399 -19L385 -88H313L327 -19ZM422 88Q465 91 496 101T549 127T583 160T600 198Q608 237 584 257T501 285L465 290L422 88ZM466 634Q442 632 418 626T374 607T339 576T319 535Q310 493 334 474T406 447L426 444L466 634Z"  />
<glyph unicode="%" horiz-adv-x="1185" d="M881 -19Q786 -19 740 30T713 177Q723 222 745 257T801 316T875 352T963 365Q1057 365 1104 317T1133 177Q1123 129 1100 93T1044 31T970 -6T881 -19ZM368 327Q321 327 285 339T227 377T197 438T200 523Q209 568 232 603T287 662T361 698T450 711Q497 711 533 699T591 662T621 603T620 523Q609 475 587 439T531 377T457 340T368 327ZM258 -35L966 727H1072L364 -35H258ZM899 65Q925 65 944 73T976 97T997 131T1010 173Q1015 195 1015 214T1008 249T986 272T945 281Q919 281 901 273T869 249T847 215T834 173Q829 151 829 132T836 97T858 74T899 65ZM386 411Q412 411 430 419T462 443T484 477T497 519Q501 541 501 560T495 595T473 618T432 627Q406 627 387 619T355 595T334 561T321 519Q316 497 316 478T323 443T345 420T386 411Z"  />
<glyph unicode="&amp;" horiz-adv-x="1037" d="M764 236Q785 251 805 275T842 329T873 389T892 444H1038Q1030 408 1014 369T974 292T919 218T851 152L1013 0H787L731 61Q656 17 576 -1T411 -19Q313 -19 251 0T155 51T112 120T111 194Q121 242 164 291T292 371L379 404Q337 436 317 479T305 565Q314 610 342 643T409 698T495 730T589 741Q621 741 660 733T732 704T783 649T790 562Q784 534 767 508T725 459T669 418T605 389L764 236ZM463 321L372 287Q335 273 310 248T279 194Q273 168 282 147T312 112T364 91T435 83Q492 83 548 99T641 141L463 321ZM571 639Q524 639 494 618T457 565Q451 539 461 523T483 496L528 455L559 467Q604 485 626 507T656 561Q663 598 637 618T571 639Z"  />
<glyph unicode="&apos;" horiz-adv-x="370" d="M129 722H241V498H129V722Z"  />
<glyph unicode="(" horiz-adv-x="370" d="M209 -137Q154 -7 142 103T148 302Q167 391 226 501T396 741H505Q457 672 421 613T359 501T316 399T288 302Q277 254 274 205T274 103T289 -9T318 -137H209Z"  />
<glyph unicode=")" horiz-adv-x="370" d="M288 741Q343 611 356 501T350 302Q331 213 272 103T101 -137H-7Q40 -68 76 -9T138 103T181 205T210 302Q220 350 223 399T223 501T208 613T179 741H288Z"  />
<glyph unicode="*" horiz-adv-x="519" d="M304 722L288 591L393 671L438 593L317 541L438 491L393 413L288 492L305 361H215L231 492L126 412L81 490L203 541L81 592L126 670L231 591L214 722H304Z"  />
<glyph unicode="+" horiz-adv-x="600" d="M244 506H356V309H553V197H356V0H244V197H47V309H244V506Z"  />
<glyph unicode="&#x2c;" horiz-adv-x="370" d="M333 140L156 -84H38L171 140H333Z"  />
<glyph unicode="-" horiz-adv-x="370" d="M392 323L368 211H90L114 323H392Z"  />
<glyph unicode="." horiz-adv-x="370" d="M284 140L255 0H115L144 140H284Z"  />
<glyph unicode="/" horiz-adv-x="444" d="M469 741H591L127 -19H5L469 741Z"  />
<glyph unicode="0" horiz-adv-x="740" d="M768 346Q751 265 717 198T632 83T514 8T365 -19Q282 -19 227 7T142 82T107 198T118 346Q132 412 160 477T237 595T357 679T529 711Q603 711 656 686T741 614T779 500T768 346ZM276 346Q264 289 263 242T275 160T317 107T394 88Q443 88 479 111T542 172T584 254T609 342Q638 479 609 541T503 604Q468 604 435 593T372 554T317 475T276 346Z"  />
<glyph unicode="1" horiz-adv-x="740" d="M263 586Q336 608 388 631T491 692H639L492 0H340L457 552Q418 521 358 496T235 452L263 586Z"  />
<glyph unicode="2" horiz-adv-x="740" d="M79 131L228 210Q328 263 397 304T512 378T580 441T610 499Q619 543 587 571T496 599Q429 599 387 570T334 490L332 481H174Q197 593 282 652T528 711Q608 711 658 692T736 644T769 578T769 508Q761 471 739 433T672 354T559 269T387 174L267 115L266 112H699L676 0H52L79 131Z"  />
<glyph unicode="3" horiz-adv-x="740" d="M240 204Q235 169 245 147T276 111T324 93T381 88Q425 88 457 97T511 122T545 157T562 197Q569 227 561 247T532 279T478 295T400 300H360L384 412H422Q510 412 555 435T611 507Q621 554 587 579T495 604Q437 604 392 583T333 509H175Q187 566 220 604T300 667T402 701T515 711Q599 711 652 694T735 650T771 589T772 521Q758 455 708 417T576 362V360Q610 357 641 346T693 313T723 263T724 195Q713 146 683 107T605 39T494 -4T352 -19Q283 -19 235 -10T156 16T108 55T84 102T77 153T82 204H240Z"  />
<glyph unicode="4" horiz-adv-x="740" d="M735 692L644 266H775L751 154H620L588 0H436L468 154H53L86 309L543 692H735ZM492 266L554 558L214 266H492Z"  />
<glyph unicode="5" horiz-adv-x="740" d="M273 191Q267 137 304 113T406 88Q437 88 466 98T520 126T560 167T583 217Q590 250 582 275T555 316T509 341T449 350Q405 350 360 331T289 268L141 272L251 692H786L762 580H369L318 399Q366 433 413 447T522 462Q578 462 624 447T700 401T742 326T742 223Q730 168 701 123T626 47T519 -2T383 -19Q327 -19 273 -11T178 21T117 85T111 190V191H273Z"  />
<glyph unicode="6" horiz-adv-x="740" d="M623 503Q634 553 602 578T518 604Q466 604 428 588T362 542T316 472T285 383Q314 404 341 418T396 440T454 451T520 455Q582 455 628 439T704 393T744 323T745 237Q733 181 703 135T626 54T518 0T381 -19Q287 -19 229 5T141 76T109 191T125 345Q145 440 186 509T283 623T407 689T552 711Q601 711 647 700T727 663T777 599T781 503H623ZM583 221Q589 251 582 274T558 314T514 339T456 348Q423 348 392 340T336 316T292 276T266 218Q260 192 265 169T285 127T328 99T395 88Q428 88 458 96T514 120T558 161T583 221Z"  />
<glyph unicode="7" horiz-adv-x="740" d="M789 574L347 0H161L628 580H180L204 692H814L789 574Z"  />
<glyph unicode="8" horiz-adv-x="740" d="M85 189Q98 251 148 295T290 359V361Q215 379 187 418T172 518Q179 555 203 589T271 651T376 694T521 711Q604 711 659 695T745 651T785 590T788 518Q775 458 730 419T602 361V359Q685 340 716 296T735 189Q729 159 707 123T640 56T529 3T365 -19Q269 -19 211 2T122 55T86 123T85 189ZM244 196Q233 144 273 116T388 88Q462 88 514 116T578 196Q585 227 577 247T548 281T499 299T434 305Q362 305 309 278T244 196ZM327 505Q318 463 354 438T457 412Q523 412 570 437T627 505Q633 532 624 550T597 581T552 598T498 604Q469 604 441 599T390 581T350 551T327 505Z"  />
<glyph unicode="9" horiz-adv-x="740" d="M253 191Q248 137 280 113T373 88Q433 88 473 108T538 159T578 229T600 302L605 327Q552 284 495 268T376 251Q322 251 275 263T194 302T147 370T144 469Q156 525 186 569T263 645T371 694T507 711Q598 711 656 688T744 618T776 501T759 338Q738 237 700 169T608 59T486 -1T338 -19Q273 -19 224 -5T143 35T98 95T94 171L98 191H253ZM485 604Q442 604 411 593T357 563T321 522T303 475Q298 452 303 431T324 393T366 368T429 358Q462 358 493 366T550 390T593 428T617 479Q630 539 593 571T485 604Z"  />
<glyph unicode=":" horiz-adv-x="370" d="M361 502L331 362H191L221 502H361ZM284 140L255 0H115L144 140H284Z"  />
<glyph unicode=";" horiz-adv-x="370" d="M333 140L156 -84H38L171 140H333ZM376 502L346 362H206L236 502H376Z"  />
<glyph unicode="&lt;" horiz-adv-x="600" d="M47 298L553 514V407L193 253L553 99V-8L47 208V298Z"  />
<glyph unicode="=" horiz-adv-x="600" d="M553 307H47V419H553V307ZM553 87H47V199H553V87Z"  />
<glyph unicode="&gt;" horiz-adv-x="600" d="M47 99L407 253L47 407V514L553 298V208L47 -8V99Z"  />
<glyph unicode="?" horiz-adv-x="667" d="M278 263Q284 288 291 307T308 341T333 368T368 391L501 466Q530 483 544 500T564 540Q574 589 537 609T430 629Q371 629 327 624T255 610L279 722Q297 726 320 729T368 735T417 739T461 741Q525 741 579 733T671 704T725 646T728 549Q719 505 686 464T575 383L475 334Q437 315 420 293T394 234L388 204H266L278 263ZM243 140H383L354 0H214L243 140Z"  />
<glyph unicode="@" horiz-adv-x="800" d="M652 546H738L636 312Q628 295 623 282T616 257Q614 247 619 240T637 232Q652 232 672 244T713 278T750 331T775 403Q788 464 778 510T737 588T660 635T552 651Q486 651 428 629T325 569T247 477T202 360Q187 291 198 237T241 144T325 86T445 65Q505 65 562 85T667 138H763Q692 62 602 22T405 -19Q324 -19 260 11T153 92T95 213T96 361Q113 440 156 509T263 629T404 711T571 741Q641 741 702 719T806 657T867 559T871 431Q859 376 835 334T781 260T717 207T653 173T597 154T559 148Q492 148 500 202H498Q474 176 442 162T374 148Q343 148 319 160T279 194T259 248T262 317Q272 363 296 406T355 483T432 537T520 558Q556 558 584 543T629 495L652 546ZM574 368Q583 413 565 437T507 462Q481 462 458 451T416 422T384 381T365 331Q357 293 373 269T429 244Q456 244 480 254T523 281T555 320T574 368Z"  />
<glyph unicode="A" horiz-adv-x="963" d="M532 722H736L952 0H760L711 162H295L185 0H11L532 722ZM678 280L595 594L378 280H678Z"  />
<glyph unicode="B" horiz-adv-x="889" d="M251 722H676Q729 722 776 714T855 686T902 630T905 538Q898 504 878 477T828 429T765 398T694 384L693 377Q727 374 763 365T826 334T866 279T869 194Q863 164 843 130T785 67T687 19T539 0H98L251 722ZM283 112H507Q544 112 576 117T634 135T676 166T699 213Q705 244 695 264T664 295T616 311T562 316H327L283 112ZM350 428H581Q641 428 678 448T726 516Q732 545 724 563T696 592T648 606T589 610H389L350 428Z"  />
<glyph unicode="C" horiz-adv-x="889" d="M763 493Q769 527 757 551T720 592T665 615T600 623Q562 623 518 611T431 568T355 487T305 361Q289 286 301 236T343 155T411 112T489 99Q539 99 577 111T644 142T691 184T717 231H885Q865 159 821 111T718 34T590 -7T451 -19Q361 -19 293 5T184 76T130 195T137 361Q156 452 199 523T306 642T449 716T623 741Q680 741 740 730T847 690T919 614T931 493H763Z"  />
<glyph unicode="D" horiz-adv-x="889" d="M239 722H582Q686 722 755 694T863 617T911 500T903 353Q896 319 881 280T839 202T776 126T689 62T575 17T430 0H86L239 722ZM273 118H433Q510 118 564 143T655 206T710 287T737 365Q750 428 741 473T703 547T632 590T535 604H376L273 118Z"  />
<glyph unicode="E" horiz-adv-x="741" d="M786 604H376L340 434H735L710 316H315L273 118H701L676 0H86L239 722H811L786 604Z"  />
<glyph unicode="F" horiz-adv-x="667" d="M778 722L753 604H376L338 428H694L669 310H313L248 0H86L239 722H778Z"  />
<glyph unicode="G" horiz-adv-x="963" d="M814 489Q820 527 808 553T771 597T716 621T655 629Q598 629 542 614T439 567T356 485T306 364Q295 314 299 266T330 181T409 122T544 99Q568 99 590 100T637 106T689 116T749 132L778 270H547L571 382H960L888 45Q846 28 796 16T695 -3T596 -15T508 -19Q407 -19 329 4T202 74T135 193T138 363Q155 444 198 513T307 633T460 712T655 741Q737 741 803 726T913 679T976 600T982 489H814Z"  />
<glyph unicode="H" horiz-adv-x="889" d="M239 722H401L338 428H731L794 722H956L803 0H641L706 310H313L248 0H86L239 722Z"  />
<glyph unicode="I" horiz-adv-x="370" d="M257 722H419L266 0H104L257 722Z"  />
<glyph unicode="J" horiz-adv-x="741" d="M228 237Q215 172 248 136T344 99Q398 99 435 117T496 163T534 225T555 294L646 722H808L715 286Q683 136 586 59T329 -19Q263 -19 209 -5T119 40T68 119T66 237H228Z"  />
<glyph unicode="K" horiz-adv-x="815" d="M408 722L341 407L713 722H912L525 397L797 0H583L335 380L255 0H93L246 722H408Z"  />
<glyph unicode="L" horiz-adv-x="667" d="M239 722H401L273 118H670L645 0H86L239 722Z"  />
<glyph unicode="M" horiz-adv-x="1259" d="M512 722L660 134L1053 722H1323L1170 0H1008L1139 620H1137L724 0H526L368 620H366L235 0H89L242 722H512Z"  />
<glyph unicode="N" horiz-adv-x="963" d="M242 722H470L761 168H763L881 722H1027L874 0H656L356 564H354L235 0H89L242 722Z"  />
<glyph unicode="O" horiz-adv-x="964" d="M137 361Q157 456 200 527T308 645T456 717T639 741Q739 741 812 717T929 646T986 527T979 361Q959 266 916 195T808 77T660 5T477 -19Q377 -19 304 5T187 76T130 195T137 361ZM305 361Q278 233 331 166T503 99Q621 99 702 166T811 361Q838 489 785 556T614 623Q555 623 505 606T415 556T347 474T305 361Z"  />
<glyph unicode="P" horiz-adv-x="815" d="M251 722H602Q773 722 836 664T875 490Q868 458 850 420T792 349T690 293T532 270H317L260 0H98L251 722ZM342 388H531Q563 388 592 393T645 410T684 442T707 491Q715 528 704 550T670 584T615 600T548 604H388L342 388Z"  />
<glyph unicode="Q" horiz-adv-x="964" d="M953 0H871Q796 0 750 0T676 -1T637 -3T618 -5Q578 -12 547 -15T477 -19Q377 -19 304 5T187 76T130 195T137 361Q157 456 200 527T308 645T456 717T639 741Q739 741 812 717T929 646T986 527T979 361Q962 280 929 217T847 107Q879 109 911 110T976 112L953 0ZM305 361Q278 233 331 166T503 99Q621 99 702 166T811 361Q838 489 785 556T614 623Q555 623 505 606T415 556T347 474T305 361Z"  />
<glyph unicode="R" horiz-adv-x="889" d="M251 722H684Q744 722 792 712T873 679T919 619T921 528Q911 481 888 447T834 391T763 357T682 342V340Q743 337 775 322T821 280T832 214T822 125Q814 80 814 51T818 0H644Q640 16 643 49T652 114Q661 167 659 200T640 252T586 278T491 285H320L260 0H98L251 722ZM344 397H554Q590 397 622 401T679 418T723 451T748 505Q755 538 746 557T716 587T666 601T605 604H388L344 397Z"  />
<glyph unicode="S" horiz-adv-x="815" d="M261 226Q253 161 294 125T431 88Q481 88 518 98T580 123T620 158T638 198Q646 237 622 257T539 285L394 305Q325 315 281 334T212 380T182 439T183 507Q196 570 232 614T320 686T432 728T557 741Q716 741 786 679T837 506H675Q685 576 644 605T519 634Q494 634 468 628T418 610T379 579T357 535Q348 493 372 474T444 447L644 418Q707 409 743 387T796 337T814 278T810 218Q786 106 679 44T386 -19Q308 -19 249 -3T152 45T101 122T99 226H261Z"  />
<glyph unicode="T" horiz-adv-x="740" d="M879 722L854 604H579L451 0H289L417 604H142L167 722H879Z"  />
<glyph unicode="U" horiz-adv-x="889" d="M235 722H397L303 281Q284 190 327 142T464 93Q554 93 619 139T705 285L798 722H960L868 288Q855 226 827 171T748 73T615 6T415 -19Q349 -19 292 -2T195 49T139 136T137 259L235 722Z"  />
<glyph unicode="V" horiz-adv-x="889" d="M350 722L486 152L863 722H1031L538 0H352L164 722H350Z"  />
<glyph unicode="W" horiz-adv-x="1333" d="M722 722H926L1001 158H1003L1310 722H1472L1063 0H864L785 576H783L467 0H272L167 722H341L412 158H414L722 722Z"  />
<glyph unicode="X" horiz-adv-x="889" d="M11 0L417 375L188 722H408L555 473L812 722H1004L629 375L878 0H658L493 269L215 0H11Z"  />
<glyph unicode="Y" horiz-adv-x="889" d="M1028 722L585 275L527 0H365L423 275L167 722H379L541 413L836 722H1028Z"  />
<glyph unicode="Z" horiz-adv-x="741" d="M59 153L629 604H187L212 722H844L811 567L242 118H739L714 0H27L59 153Z"  />
<glyph unicode="[" horiz-adv-x="370" d="M505 741L486 651H362L214 -47H338L318 -137H54L241 741H505Z"  />
<glyph unicode="\" horiz-adv-x="444" d="M429 -19H307L167 741H289L429 -19Z"  />
<glyph unicode="]" horiz-adv-x="370" d="M-7 -137L12 -47H136L284 651H160L179 741H443L256 -137H-7Z"  />
<glyph unicode="^" horiz-adv-x="600" d="M70 317L250 692H350L530 317H418L300 580L182 317H70Z"  />
<glyph unicode="_" horiz-adv-x="500" d="M-26 -125L-15 -75H484L473 -125H-26Z"  />
<glyph unicode="`" horiz-adv-x="296" d="M246 586L103 726H274L360 586H246Z"  />
<glyph unicode="a" horiz-adv-x="741" d="M678 95Q673 70 669 48T662 0H522Q523 17 525 34T532 69Q475 21 412 1T275 -19Q209 -19 167 -5T102 31T72 80T71 135Q84 194 118 230T202 286T316 312T452 319H573Q580 352 574 374T551 408T511 426T458 431Q402 431 367 411T321 361H163Q179 409 212 440T289 489T382 514T481 521Q534 521 583 512T668 479T720 413T722 305L678 95ZM429 229Q342 229 292 210T231 145Q228 132 231 118T245 92T276 73T329 65Q357 65 392 73T459 101T518 152T554 229H429Z"  />
<glyph unicode="b" horiz-adv-x="741" d="M221 722H373L312 433H314Q362 484 421 502T537 521Q561 521 590 517T646 500T698 468T737 418T757 346T750 247Q739 194 712 146T642 61T543 3T416 -19Q386 -19 358 -15T304 0T260 28T230 69H228Q224 52 220 35T210 0H64Q69 21 77 54T93 118L221 722ZM273 251Q265 215 270 184T291 129T333 91T396 77Q432 77 464 91T523 128T567 183T593 251Q600 287 596 318T575 373T533 411T470 425Q434 425 402 411T343 374T299 319T273 251Z"  />
<glyph unicode="c" horiz-adv-x="667" d="M538 326Q545 377 518 404T439 431Q409 431 380 420T326 387T282 330T253 249Q245 213 246 181T259 124T296 85T361 71Q415 71 454 96T510 175H668Q657 125 626 89T550 28T452 -7T342 -19Q198 -19 133 50T96 251Q110 317 142 367T221 452T326 503T452 521Q527 521 576 506T654 464T692 402T696 326H538Z"  />
<glyph unicode="d" horiz-adv-x="741" d="M698 118Q691 87 685 54T677 0H531Q533 17 535 34T541 69H539Q496 20 436 1T315 -19Q245 -19 198 2T124 60T91 145T95 247Q113 331 153 384T241 468T338 510T424 521Q452 521 479 517T532 503T577 475T611 433H613L674 722H826L698 118ZM574 251Q581 287 577 318T556 373T514 411T451 425Q415 425 383 411T324 374T280 319T254 251Q246 215 251 184T272 129T314 91T377 77Q413 77 445 91T504 128T548 183T574 251Z"  />
<glyph unicode="e" horiz-adv-x="741" d="M257 217Q248 178 257 150T287 105T337 79T399 71Q416 71 436 74T476 84T513 104T540 135H702Q687 88 649 58T562 11T464 -12T375 -19Q279 -19 221 4T134 64T100 150T106 251Q117 303 142 351T213 437T326 498T490 521Q544 521 596 508T686 463T740 379T740 248L734 217H257ZM595 307Q599 341 590 364T563 403T519 424T461 431Q433 431 405 424T351 401T306 363T276 307H595Z"  />
<glyph unicode="f" horiz-adv-x="519" d="M241 406H111L131 502H261L270 545Q292 645 354 686T524 728Q556 728 591 727T653 722L633 628Q619 629 601 630T565 632Q527 632 502 626T460 605T433 570T416 517L413 502H569L549 406H393L307 0H155L241 406Z"  />
<glyph unicode="g" horiz-adv-x="741" d="M679 29Q666 -33 635 -76T556 -147T447 -187T308 -200Q249 -200 201 -192T119 -164T69 -114T61 -35H213Q206 -72 238 -91T324 -110Q408 -110 460 -76T526 27L541 95H539Q517 72 490 56T433 28T375 12T320 7Q254 7 207 27T132 83T96 164T98 260Q111 320 141 368T215 451T313 503T427 521Q501 521 546 497T619 433L639 502H783Q780 491 776 476T768 443T760 408T753 378L679 29ZM261 264Q253 229 257 200T276 149T319 115T384 103Q422 103 454 115T511 149T552 200T577 264Q584 298 580 327T561 379T518 413T453 425Q415 425 383 413T326 379T285 328T261 264Z"  />
<glyph unicode="h" horiz-adv-x="740" d="M228 722H380L316 419H318Q363 473 419 497T545 521Q579 521 617 511T684 477T728 411T730 309L665 0H513L569 266Q579 312 575 342T558 389T522 412T472 419Q442 419 412 409T356 376T309 321T278 242L227 0H75L228 722Z"  />
<glyph unicode="i" horiz-adv-x="296" d="M330 502L224 0H72L178 502H330ZM217 722H385L359 600H191L217 722Z"  />
<glyph unicode="j" horiz-adv-x="296" d="M235 -25Q227 -60 212 -90T169 -143T100 -179T-2 -192Q-17 -192 -39 -190T-82 -185L-61 -86Q-49 -88 -39 -89T-18 -90Q31 -90 54 -70T90 6L195 502H347L235 -25ZM376 600H208L234 722H402L376 600Z"  />
<glyph unicode="k" horiz-adv-x="741" d="M390 722L299 296L577 502H777L486 285L727 0H518L296 280L237 0H85L238 722H390Z"  />
<glyph unicode="l" horiz-adv-x="296" d="M377 722L224 0H72L225 722H377Z"  />
<glyph unicode="m" horiz-adv-x="1184" d="M158 379Q164 407 169 440T180 502H326Q323 482 321 462T313 422Q370 474 424 497T543 521Q615 521 664 493T734 410Q789 473 852 497T978 521Q1014 521 1053 512T1123 478T1168 409T1168 294L1106 0H954L1010 266Q1020 312 1016 342T999 389T963 412T913 419Q883 419 853 409T797 376T750 321T719 242L668 0H516L572 266Q582 312 578 342T561 389T525 412T475 419Q445 419 415 409T359 376T312 321T281 242L230 0H78L158 379Z"  />
<glyph unicode="n" horiz-adv-x="740" d="M156 383Q163 416 168 447T177 502H323Q320 481 318 461T310 419H312Q362 473 419 497T545 521Q579 521 617 511T684 477T728 411T730 309L665 0H513L569 266Q579 312 575 342T558 389T522 412T472 419Q442 419 412 409T356 376T309 321T278 242L227 0H75L156 383Z"  />
<glyph unicode="o" horiz-adv-x="740" d="M480 521Q576 521 634 498T721 438T756 352T750 251Q739 199 714 151T643 65T529 4T365 -19Q269 -19 211 4T124 64T90 150T96 251Q107 303 132 351T203 437T316 498T480 521ZM460 425Q417 425 383 412T322 375T279 320T254 251Q246 214 249 183T269 128T314 91T386 77Q429 77 463 90T524 127T567 182T592 251Q600 288 597 319T577 374T532 411T460 425Z"  />
<glyph unicode="p" horiz-adv-x="741" d="M149 384Q156 415 161 448T170 502H316Q314 485 312 468T306 433H308Q329 457 355 474T410 501T470 516T531 521Q601 521 648 500T722 442T756 357T752 255Q740 199 718 157T667 84T606 34T541 2T477 -14T422 -19Q394 -19 367 -15T315 -1T270 26T236 69H234L179 -192H27L149 384ZM273 251Q265 215 270 184T291 129T333 91T396 77Q432 77 464 91T523 128T567 183T593 251Q600 287 596 318T575 373T533 411T470 425Q434 425 402 411T343 374T299 319T273 251Z"  />
<glyph unicode="q" horiz-adv-x="741" d="M632 -192H480L535 69H533Q509 43 482 27T425 0T367 -15T309 -19Q285 -19 256 -15T200 2T148 34T109 84T89 156T97 255Q108 308 135 356T205 441T303 499T430 521Q460 521 488 517T542 502T586 474T617 433H619Q622 450 627 467T637 502H783Q777 481 769 448T754 384L632 -192ZM254 251Q246 215 251 184T272 129T314 91T377 77Q413 77 445 91T504 128T548 183T574 251Q581 287 577 318T556 373T514 411T451 425Q415 425 383 411T324 374T280 319T254 251Z"  />
<glyph unicode="r" horiz-adv-x="519" d="M164 376Q172 412 177 444T187 502H333Q327 458 318 410H320Q328 423 342 440T378 474T431 501T507 512Q554 512 603 502L579 388Q572 390 565 390T548 392Q540 393 530 393T509 394Q416 394 359 351T280 203L237 0H85L164 376Z"  />
<glyph unicode="s" horiz-adv-x="667" d="M244 154Q242 106 267 89T349 71Q415 71 448 88T487 133Q491 152 478 164T424 182L310 198Q247 207 212 224T160 263T142 309T145 356Q151 384 170 413T225 466T318 505T454 521Q499 521 543 514T621 487T670 435T677 353H519Q524 397 498 414T412 431Q369 431 341 417T308 377Q306 367 307 359T315 344T339 332T383 322L525 299Q565 293 591 279T632 246T650 202T648 150Q641 116 621 86T565 32T474 -5T344 -19Q269 -19 216 -12T132 15T88 68T82 154H244Z"  />
<glyph unicode="t" horiz-adv-x="519" d="M446 655L413 502H592L572 406H393L343 172Q334 130 348 109T406 87Q431 87 458 89T502 96L482 0Q450 -4 417 -6T351 -9Q294 -9 258 0T203 30T182 82T188 158L241 406H101L121 502H261L284 609L446 655Z"  />
<glyph unicode="u" horiz-adv-x="740" d="M690 119Q682 86 678 55T669 0H523Q525 21 528 41T536 83H534Q484 29 427 5T300 -19Q266 -19 228 -9T161 25T118 91T116 193L181 502H333L277 236Q267 189 270 160T288 113T324 90T374 83Q404 83 434 93T490 125T537 180T568 260L619 502H771L690 119Z"  />
<glyph unicode="v" horiz-adv-x="741" d="M294 502L401 112L674 502H836L466 0H276L117 502H294Z"  />
<glyph unicode="w" horiz-adv-x="1185" d="M796 502L884 128L1122 502H1280L938 0H761L673 384L423 0H246L117 502H288L369 128L611 502H796Z"  />
<glyph unicode="x" horiz-adv-x="741" d="M345 502L448 343L615 502H806L529 264L730 0H510L400 168L213 0H11L323 264L143 502H345Z"  />
<glyph unicode="y" horiz-adv-x="741" d="M297 502L406 139L671 502H836L312 -192H138L288 2L117 502H297Z"  />
<glyph unicode="z" horiz-adv-x="667" d="M699 502L673 377L268 104L267 102H637L616 0H51L77 125L482 404L483 406H156L176 502H699Z"  />
<glyph unicode="{" horiz-adv-x="370" d="M515 657H459Q440 657 428 651T407 635T395 613T389 591L349 401Q343 373 327 355T293 325T255 309T224 303L223 301Q235 299 251 295T282 279T305 250T307 203L266 13Q264 2 263 -9T265 -30T279 -46T308 -53H364L346 -137H222Q206 -137 186 -130T149 -106T124 -66T122 -9L164 192Q168 213 161 226T140 246T112 257T87 260L105 344Q115 344 131 347T163 357T193 378T211 412L254 613Q261 646 280 670T322 710T369 733T409 741H533L515 657Z"  />
<glyph unicode="|" horiz-adv-x="222" d="M55 741H167V-19H55V741Z"  />
<glyph unicode="}" horiz-adv-x="370" d="M-17 -53H38Q57 -53 69 -47T90 -31T102 -10T108 13L149 203Q155 231 171 249T205 279T242 294T273 301L274 303Q262 304 246 309T215 325T193 354T191 401L231 591Q233 601 234 613T232 634T218 650T189 657H133L151 741H275Q291 741 311 734T348 710T374 670T376 613L333 412Q328 391 336 378T357 358T386 347T411 344L393 260Q383 260 367 257T335 247T304 226T286 192L244 -9Q237 -42 218 -66T175 -106T128 -129T88 -137H-35L-17 -53Z"  />
<glyph unicode="~" horiz-adv-x="600" d="M530 251Q497 200 467 182T406 163Q374 163 347 173T294 197T243 220T189 231Q166 231 145 217T105 160L70 255Q103 306 133 324T194 343Q226 343 253 333T306 309T357 286T411 275Q434 275 455 289T495 346L530 251Z"  />
<glyph unicode="&#xA0;" horiz-adv-x="370" />
<glyph unicode="&#xA1;" horiz-adv-x="520" d="M297 -181H145L276 341H388L297 -181ZM415 401H275L304 541H444L415 401Z"  />
<glyph unicode="&#xA2;" horiz-adv-x="740" d="M701 175Q690 125 659 89T586 28T494 -7T398 -19Q339 -19 297 -10L238 -116H186L252 0Q205 16 177 42T135 102T121 173T129 251Q143 317 176 367T255 452T359 503T480 521Q513 521 539 518L603 634H655L586 510Q631 501 661 483T707 441T729 388T729 326H571Q580 391 534 416L346 78Q356 74 368 73T394 71Q448 71 487 96T543 175H701ZM490 429Q485 431 472 431Q442 431 413 420T359 387T315 330T286 249Q276 203 280 165T307 102L490 429Z"  />
<glyph unicode="&#xA3;" horiz-adv-x="740" d="M681 0H54L77 112H171L215 317H121L144 424H238L253 498Q266 558 295 603T367 679T462 725T575 741Q654 741 704 725T782 682T817 618T816 542L813 529H645Q657 585 635 609T556 634Q508 634 471 607T419 513L400 424H604L581 317H377L333 112H704L681 0Z"  />
<glyph unicode="&#xA4;" horiz-adv-x="740" d="M140 146L212 205Q197 234 193 270T197 346Q205 385 224 420T271 487L225 546L296 605L344 546Q379 568 417 580T495 592Q536 592 570 580T629 546L700 605L747 546L674 487Q705 423 689 346Q681 306 661 270T614 205L662 146L590 87L544 146Q509 124 471 112T391 100Q351 100 318 112T259 146L186 87L140 146ZM309 346Q303 318 308 294T328 251T365 223T415 212Q443 212 469 222T518 251T555 293T577 346Q583 374 578 398T558 441T522 469T472 480Q444 480 418 470T369 441T331 399T309 346Z"  />
<glyph unicode="&#xA5;" horiz-adv-x="740" d="M336 153H152L171 243H355L371 316H187L206 406H330L183 722H341L465 413L723 722H863L584 406H708L689 316H505L489 243H673L654 153H470L438 0H304L336 153Z"  />
<glyph unicode="&#xA6;" horiz-adv-x="222" d="M55 265H167V-19H55V265ZM55 741H167V457H55V741Z"  />
<glyph unicode="&#xA7;" horiz-adv-x="668" d="M681 585Q639 611 589 625T494 639Q444 639 414 628T379 591Q376 578 382 569T407 550T456 532T533 508Q624 481 659 446T683 361Q673 316 631 286T515 238V236Q538 230 558 219T593 193T613 157T613 110Q605 72 581 43T520 -5T439 -35T342 -46Q275 -46 213 -34T94 0L119 118Q166 88 224 72T337 56Q382 56 415 66T454 105Q456 116 454 125T442 141T413 157T361 175L304 192Q203 223 163 259T133 341Q143 387 185 420T301 478Q251 502 232 529T221 591Q237 666 309 703T489 741Q513 741 540 739T596 731T653 719T706 703L681 585ZM385 435Q342 416 321 397T295 362Q288 323 355 301L419 281Q461 292 490 311T522 348Q527 370 510 384T449 413L385 435Z"  />
<glyph unicode="&#xA8;" horiz-adv-x="296" d="M376 722H498L473 604H351L376 722ZM104 722H226L201 604H79L104 722Z"  />
<glyph unicode="&#xA9;" horiz-adv-x="800" d="M20 361Q20 440 50 509T131 629T252 711T400 741Q479 741 548 711T668 630T750 509T780 361Q780 282 750 213T669 93T548 11T400 -19Q321 -19 252 11T132 92T50 213T20 361ZM126 361Q126 301 147 251T205 163T292 104T400 83Q458 83 508 104T595 162T653 250T674 361Q674 421 653 471T595 559T508 618T400 639Q342 639 292 618T205 560T147 472T126 361ZM583 306Q577 268 561 239T522 190T471 160T411 150Q369 150 334 166T273 210T233 277T218 361Q218 406 231 445T270 512T330 556T409 572Q441 572 469 563T520 534T558 487T579 420H495Q489 456 464 472T409 488Q361 488 335 455T308 361Q308 306 336 270T411 234Q445 234 468 251T495 306H583Z"  />
<glyph unicode="&#xAA;" horiz-adv-x="481" d="M436 439Q401 411 359 399T263 387Q216 387 187 395T141 417T121 449T120 485Q127 520 149 541T204 575T281 591T375 595H463Q470 626 446 638T385 651Q348 651 326 639T297 612H182Q192 642 213 661T264 691T329 707T400 711Q439 711 474 706T534 686T570 646T572 581L542 442Q540 431 539 419T539 397H427L436 439ZM369 535Q312 535 280 525T243 490Q240 476 253 462T308 447Q326 447 348 451T391 466T428 494T450 535H369Z"  />
<glyph unicode="&#xAB;" horiz-adv-x="593" d="M331 267L504 461H638L483 267L556 73H422L331 267ZM89 267L262 461H396L241 267L314 73H180L89 267Z"  />
<glyph unicode="&#xAC;" horiz-adv-x="600" d="M441 307H47V419H553V108H441V307Z"  />
<glyph unicode="&#xAD;" horiz-adv-x="370" d="M392 323L368 211H90L114 323H392Z"  />
<glyph unicode="&#xAE;" horiz-adv-x="800" d="M20 361Q20 440 50 509T131 629T252 711T400 741Q479 741 548 711T668 630T750 509T780 361Q780 282 750 213T669 93T548 11T400 -19Q321 -19 252 11T132 92T50 213T20 361ZM126 361Q126 301 147 251T205 163T292 104T400 83Q458 83 508 104T595 162T653 250T674 361Q674 421 653 471T595 559T508 618T400 639Q342 639 292 618T205 560T147 472T126 361ZM252 563H397Q474 563 517 537T560 443Q560 416 551 397T527 365T496 347T462 341L564 166H470L379 333H336V166H252V563ZM336 399H406Q435 399 452 408T470 452Q470 468 462 477T443 490T417 496T391 497H336V399Z"  />
<glyph unicode="&#xAF;" horiz-adv-x="296" d="M509 707L491 623H69L87 707H509Z"  />
<glyph unicode="&#xB0;" horiz-adv-x="400" d="M57 568Q57 598 68 624T98 669T144 700T200 711Q230 711 256 700T301 670T332 624T343 568Q343 538 332 512T302 467T256 436T200 425Q170 425 144 436T99 466T68 512T57 568ZM129 568Q129 539 150 518T200 497Q229 497 250 518T271 568Q271 597 250 618T200 639Q171 639 150 618T129 568Z"  />
<glyph unicode="&#xB1;" horiz-adv-x="600" d="M244 506H356V381H553V269H356V143H244V269H47V381H244V506ZM47 112H553V0H47V112Z"  />
<glyph unicode="&#xB2;" horiz-adv-x="481" d="M105 363L205 411Q269 442 314 465T387 508T430 544T448 578Q454 605 433 619T379 633Q337 633 311 616T278 568L277 563H149Q157 600 175 628T223 674T299 702T408 711Q465 711 500 700T554 671T578 634T580 595Q575 575 563 553T526 506T460 455T357 400L279 365V363H534L517 285H88L105 363Z"  />
<glyph unicode="&#xB3;" horiz-adv-x="481" d="M309 537H334Q391 537 420 550T454 586Q459 611 437 625T381 639Q347 639 318 626T281 582H153Q161 619 183 644T237 684T309 705T395 711Q458 711 497 701T557 675T583 638T584 597Q576 558 543 535T456 502V500Q478 499 498 492T532 473T552 443T554 402Q541 342 477 308T295 274Q221 274 180 286T119 319T98 365T100 415H228Q225 394 232 381T252 360T282 349T316 346Q370 346 396 365T427 405Q433 436 405 447T318 459H292L309 537Z"  />
<glyph unicode="&#xB4;" horiz-adv-x="296" d="M184 586L330 726H501L298 586H184Z"  />
<glyph unicode="&#xB5;" horiz-adv-x="740" d="M181 502H333L277 236Q267 189 270 160T288 113T324 90T374 83Q404 83 434 93T490 125T537 180T568 260L619 502H771L690 119Q682 86 678 55T669 0H523Q525 21 528 41T536 83H534Q484 29 427 5T319 -19Q295 -19 271 -11T231 19L186 -192H34L181 502Z"  />
<glyph unicode="&#xB6;" horiz-adv-x="620" d="M304 425Q197 425 148 464T113 571Q122 616 147 645T208 691T291 715T389 722H692L533 -27H421L563 644H462L320 -27H208L304 425Z"  />
<glyph unicode="&#xB7;" horiz-adv-x="370" d="M150 276Q154 295 165 312T191 341T225 361T263 369Q282 369 297 362T323 342T336 312T336 276Q332 257 321 240T295 211T261 191T223 183Q204 183 189 190T163 210T150 240T150 276Z"  />
<glyph unicode="&#xB8;" horiz-adv-x="296" d="M133 6H197L119 -55H121Q133 -53 145 -53T174 -52Q191 -52 206 -56T231 -70T246 -91T248 -120Q240 -157 199 -178T100 -200Q65 -200 28 -195T-37 -181L-4 -133Q16 -141 38 -144T77 -148Q109 -148 124 -141T142 -122Q148 -92 100 -92Q78 -92 54 -101L41 -70L133 6Z"  />
<glyph unicode="&#xB9;" horiz-adv-x="481" d="M225 637Q273 650 306 664T372 700H487L399 285H281L350 607Q324 589 286 574T206 547L225 637Z"  />
<glyph unicode="&#xBA;" horiz-adv-x="481" d="M133 549Q140 580 156 609T203 660T279 697T392 711Q458 711 498 697T558 661T583 609T580 549Q574 518 558 489T511 437T435 401T323 387Q257 387 217 400T156 436T131 488T133 549ZM255 549Q247 508 265 481T337 453Q389 453 419 480T458 549Q466 589 448 617T378 645Q325 645 294 617T255 549Z"  />
<glyph unicode="&#xBB;" horiz-adv-x="593" d="M374 267L201 73H67L222 267L149 461H283L374 267ZM616 267L443 73H309L464 267L391 461H525L616 267Z"  />
<glyph unicode="&#xBC;" horiz-adv-x="1111" d="M925 415H1075L1021 160H1100L1083 82H1004L987 0H869L886 82H611L633 184L925 415ZM877 748H989L269 -56H157L877 748ZM180 637Q228 650 261 664T327 700H442L354 285H236L305 607Q279 589 241 574T161 547L180 637ZM723 160H903L938 325L723 160Z"  />
<glyph unicode="&#xBD;" horiz-adv-x="1111" d="M641 78L741 126Q805 157 850 180T923 223T966 259T985 293Q990 320 969 334T915 348Q873 348 847 331T815 283L814 278H686Q694 315 711 343T760 389T836 417T944 426Q1001 426 1036 415T1091 386T1115 349T1116 310Q1112 290 1100 268T1063 221T997 170T893 115L816 80L815 78H1070L1054 0H625L641 78ZM876 748H988L268 -56H156L876 748ZM192 637Q240 650 273 664T339 700H454L366 285H248L317 607Q291 589 253 574T173 547L192 637Z"  />
<glyph unicode="&#xBE;" horiz-adv-x="1111" d="M964 415H1114L1060 160H1139L1122 82H1043L1026 0H908L925 82H650L672 184L964 415ZM303 537H328Q385 537 414 550T448 586Q453 611 431 625T375 639Q341 639 312 626T275 582H147Q155 619 177 644T231 684T303 705T389 711Q452 711 491 701T551 675T577 638T578 597Q570 558 537 535T450 502V500Q472 499 492 492T526 473T546 443T548 402Q535 342 471 308T289 274Q215 274 174 286T113 319T92 365T94 415H222Q219 394 226 381T246 360T276 349T310 346Q364 346 390 365T421 405Q427 436 399 447T312 459H286L303 537ZM1059 748L339 -56H227L947 748H1059ZM762 160H942L977 325L762 160Z"  />
<glyph unicode="&#xBF;" horiz-adv-x="667" d="M503 278Q497 252 490 234T473 200T448 173T413 150L280 75Q251 58 237 41T217 1Q212 -23 219 -40T244 -67T289 -83T351 -88Q410 -88 454 -83T526 -69L502 -181Q484 -185 461 -188T413 -194T364 -198T320 -200Q256 -200 202 -192T110 -163T56 -105T53 -8Q62 35 95 77T206 158L305 207Q344 226 361 248T387 307L393 337H515L503 278ZM538 401H398L427 541H567L538 401Z"  />
<glyph unicode="&#xC0;" horiz-adv-x="963" d="M532 722H736L952 0H760L711 162H295L185 0H11L532 722ZM678 280L595 594L378 280H678ZM613 769L470 909H641L727 769H613Z"  />
<glyph unicode="&#xC1;" horiz-adv-x="963" d="M532 722H736L952 0H760L711 162H295L185 0H11L532 722ZM678 280L595 594L378 280H678ZM551 769L697 909H868L665 769H551Z"  />
<glyph unicode="&#xC2;" horiz-adv-x="963" d="M532 722H736L952 0H760L711 162H295L185 0H11L532 722ZM678 280L595 594L378 280H678ZM753 909L839 769H729L656 849L549 769H439L585 909H753Z"  />
<glyph unicode="&#xC3;" horiz-adv-x="963" d="M532 722H736L952 0H760L711 162H295L185 0H11L532 722ZM678 280L595 594L378 280H678ZM889 905Q860 837 821 807T729 777Q699 777 661 788L611 803Q593 808 579 811T552 815Q530 815 517 807T489 777H420Q437 835 478 870T580 905Q591 905 603 902T642 891L693 876Q713 870 728 867T753 864Q796 864 818 905H889Z"  />
<glyph unicode="&#xC4;" horiz-adv-x="963" d="M532 722H736L952 0H760L711 162H295L185 0H11L532 722ZM678 280L595 594L378 280H678ZM743 905H865L840 787H718L743 905ZM471 905H593L568 787H446L471 905Z"  />
<glyph unicode="&#xC5;" horiz-adv-x="963" d="M532 722H736L952 0H760L711 162H295L185 0H11L532 722ZM678 280L595 594L378 280H678ZM527 832Q538 882 578 902T672 923Q698 923 720 918T756 902T776 874T777 832Q766 782 726 762T633 741Q607 741 585 746T549 762T528 790T527 832ZM717 832Q722 856 708 866T662 877Q630 877 611 867T587 832Q582 808 596 798T643 787Q675 787 693 797T717 832Z"  />
<glyph unicode="&#xC6;" horiz-adv-x="1259" d="M1325 722L1300 604H895L898 434H1242L1217 316H897L901 118H1219L1194 0H739L735 162H332L192 0H6L649 722H1325ZM436 280H737L735 620L436 280Z"  />
<glyph unicode="&#xC7;" horiz-adv-x="889" d="M423 -19Q340 -15 278 10T178 83T129 200T137 361Q156 452 199 523T306 642T449 716T623 741Q680 741 740 730T847 690T919 614T931 493H763Q769 527 757 551T720 592T665 615T600 623Q562 623 518 611T431 568T355 487T305 361Q289 286 301 236T343 155T411 112T489 99Q539 99 577 111T644 142T691 184T717 231H885Q866 163 826 117T732 42T615 -1T487 -18L439 -55H441Q453 -53 465 -53T494 -52Q511 -52 526 -56T551 -70T566 -91T568 -120Q560 -157 519 -178T420 -200Q385 -200 348 -195T282 -181L315 -133Q336 -141 358 -144T397 -148Q429 -148 444 -141T462 -122Q468 -92 420 -92Q398 -92 374 -101L361 -70L423 -19Z"  />
<glyph unicode="&#xC8;" horiz-adv-x="741" d="M786 604H376L340 434H735L710 316H315L273 118H701L676 0H86L239 722H811L786 604ZM514 769L371 909H542L628 769H514Z"  />
<glyph unicode="&#xC9;" horiz-adv-x="741" d="M786 604H376L340 434H735L710 316H315L273 118H701L676 0H86L239 722H811L786 604ZM452 769L598 909H769L566 769H452Z"  />
<glyph unicode="&#xCA;" horiz-adv-x="741" d="M786 604H376L340 434H735L710 316H315L273 118H701L676 0H86L239 722H811L786 604ZM654 909L740 769H630L557 849L450 769H340L486 909H654Z"  />
<glyph unicode="&#xCB;" horiz-adv-x="741" d="M786 604H376L340 434H735L710 316H315L273 118H701L676 0H86L239 722H811L786 604ZM372 905H494L469 787H347L372 905ZM644 905H766L741 787H619L644 905Z"  />
<glyph unicode="&#xCC;" horiz-adv-x="370" d="M257 722H419L266 0H104L257 722ZM322 769L179 909H350L436 769H322Z"  />
<glyph unicode="&#xCD;" horiz-adv-x="370" d="M257 722H419L266 0H104L257 722ZM260 769L406 909H577L374 769H260Z"  />
<glyph unicode="&#xCE;" horiz-adv-x="370" d="M257 722H419L266 0H104L257 722ZM462 909L548 769H438L365 849L258 769H148L294 909H462Z"  />
<glyph unicode="&#xCF;" horiz-adv-x="370" d="M257 722H419L266 0H104L257 722ZM180 905H302L277 787H155L180 905ZM452 905H574L549 787H427L452 905Z"  />
<glyph unicode="&#xD0;" horiz-adv-x="889" d="M153 316H81L104 428H176L239 722H582Q686 722 755 694T863 617T911 500T903 353Q896 319 881 280T839 202T776 126T689 62T575 17T430 0H86L153 316ZM338 428H532L509 316H315L273 118H433Q510 118 564 143T655 206T710 287T737 365Q750 428 741 473T703 547T632 590T535 604H376L338 428Z"  />
<glyph unicode="&#xD1;" horiz-adv-x="963" d="M242 722H470L761 168H763L881 722H1027L874 0H656L356 564H354L235 0H89L242 722ZM895 905Q866 837 827 807T735 777Q705 777 667 788L617 803Q599 808 585 811T558 815Q536 815 523 807T495 777H426Q443 835 484 870T586 905Q597 905 609 902T648 891L699 876Q719 870 734 867T759 864Q802 864 824 905H895Z"  />
<glyph unicode="&#xD2;" horiz-adv-x="964" d="M137 361Q157 456 200 527T308 645T456 717T639 741Q739 741 812 717T929 646T986 527T979 361Q959 266 916 195T808 77T660 5T477 -19Q377 -19 304 5T187 76T130 195T137 361ZM305 361Q278 233 331 166T503 99Q621 99 702 166T811 361Q838 489 785 556T614 623Q555 623 505 606T415 556T347 474T305 361ZM619 769L476 909H647L733 769H619Z"  />
<glyph unicode="&#xD3;" horiz-adv-x="964" d="M137 361Q157 456 200 527T308 645T456 717T639 741Q739 741 812 717T929 646T986 527T979 361Q959 266 916 195T808 77T660 5T477 -19Q377 -19 304 5T187 76T130 195T137 361ZM305 361Q278 233 331 166T503 99Q621 99 702 166T811 361Q838 489 785 556T614 623Q555 623 505 606T415 556T347 474T305 361ZM557 769L703 909H874L671 769H557Z"  />
<glyph unicode="&#xD4;" horiz-adv-x="964" d="M137 361Q157 456 200 527T308 645T456 717T639 741Q739 741 812 717T929 646T986 527T979 361Q959 266 916 195T808 77T660 5T477 -19Q377 -19 304 5T187 76T130 195T137 361ZM305 361Q278 233 331 166T503 99Q621 99 702 166T811 361Q838 489 785 556T614 623Q555 623 505 606T415 556T347 474T305 361ZM759 909L845 769H735L662 849L555 769H445L591 909H759Z"  />
<glyph unicode="&#xD5;" horiz-adv-x="964" d="M137 361Q157 456 200 527T308 645T456 717T639 741Q739 741 812 717T929 646T986 527T979 361Q959 266 916 195T808 77T660 5T477 -19Q377 -19 304 5T187 76T130 195T137 361ZM305 361Q278 233 331 166T503 99Q621 99 702 166T811 361Q838 489 785 556T614 623Q555 623 505 606T415 556T347 474T305 361ZM895 905Q866 837 827 807T735 777Q705 777 667 788L617 803Q599 808 585 811T558 815Q536 815 523 807T495 777H426Q443 835 484 870T586 905Q597 905 609 902T648 891L699 876Q719 870 734 867T759 864Q802 864 824 905H895Z"  />
<glyph unicode="&#xD6;" horiz-adv-x="964" d="M137 361Q157 456 200 527T308 645T456 717T639 741Q739 741 812 717T929 646T986 527T979 361Q959 266 916 195T808 77T660 5T477 -19Q377 -19 304 5T187 76T130 195T137 361ZM305 361Q278 233 331 166T503 99Q621 99 702 166T811 361Q838 489 785 556T614 623Q555 623 505 606T415 556T347 474T305 361ZM749 905H871L846 787H724L749 905ZM477 905H599L574 787H452L477 905Z"  />
<glyph unicode="&#xD7;" horiz-adv-x="600" d="M65 411L142 488L300 330L458 488L535 411L376 253L535 95L458 18L300 177L142 18L65 95L223 253L65 411Z"  />
<glyph unicode="&#xD8;" horiz-adv-x="964" d="M193 72Q97 167 137 361Q157 456 200 527T308 645T456 717T639 741Q782 741 871 692L978 790L1023 741L924 650Q971 603 985 531T979 361Q959 266 916 195T808 77T660 5T477 -19Q331 -19 246 31L138 -68L93 -19L193 72ZM755 585Q700 623 614 623Q555 623 505 606T415 556T347 474T305 361Q282 251 319 187L755 585ZM363 137Q388 118 423 109T503 99Q621 99 702 166T811 361Q835 468 798 535L363 137Z"  />
<glyph unicode="&#xD9;" horiz-adv-x="889" d="M235 722H397L303 281Q284 190 327 142T464 93Q554 93 619 139T705 285L798 722H960L868 288Q855 226 827 171T748 73T615 6T415 -19Q349 -19 292 -2T195 49T139 136T137 259L235 722ZM582 769L439 909H610L696 769H582Z"  />
<glyph unicode="&#xDA;" horiz-adv-x="889" d="M235 722H397L303 281Q284 190 327 142T464 93Q554 93 619 139T705 285L798 722H960L868 288Q855 226 827 171T748 73T615 6T415 -19Q349 -19 292 -2T195 49T139 136T137 259L235 722ZM520 769L666 909H837L634 769H520Z"  />
<glyph unicode="&#xDB;" horiz-adv-x="889" d="M235 722H397L303 281Q284 190 327 142T464 93Q554 93 619 139T705 285L798 722H960L868 288Q855 226 827 171T748 73T615 6T415 -19Q349 -19 292 -2T195 49T139 136T137 259L235 722ZM722 909L808 769H698L625 849L518 769H408L554 909H722Z"  />
<glyph unicode="&#xDC;" horiz-adv-x="889" d="M235 722H397L303 281Q284 190 327 142T464 93Q554 93 619 139T705 285L798 722H960L868 288Q855 226 827 171T748 73T615 6T415 -19Q349 -19 292 -2T195 49T139 136T137 259L235 722ZM440 905H562L537 787H415L440 905ZM712 905H834L809 787H687L712 905Z"  />
<glyph unicode="&#xDD;" horiz-adv-x="889" d="M1028 722L585 275L527 0H365L423 275L167 722H379L541 413L836 722H1028ZM520 769L666 909H837L634 769H520Z"  />
<glyph unicode="&#xDE;" horiz-adv-x="815" d="M251 722H413L387 600H576Q747 600 810 542T849 368Q842 336 824 298T766 227T664 171T506 148H291L260 0H98L251 722ZM316 266H505Q537 266 566 271T619 288T658 320T681 369Q689 406 678 428T644 462T589 478T522 482H362L316 266Z"  />
<glyph unicode="&#xDF;" horiz-adv-x="815" d="M176 479Q194 561 236 612T332 692T447 731T564 741Q657 741 711 723T791 677T823 620T823 566Q813 521 781 487T681 430Q651 420 634 413T607 400T595 389T590 376Q588 365 598 356T629 340L721 311Q778 293 802 258T815 168Q806 128 784 94T725 34T638 -5T522 -19Q460 -19 419 -8T356 25T327 77T328 144H486Q480 111 498 93Q515 77 556 77Q598 77 621 93T650 135Q656 161 644 175T605 199L529 223Q459 245 438 281T427 370Q435 408 463 441T541 492L611 517Q640 527 654 539T671 568Q678 603 644 624T553 645Q460 645 401 595T320 441L227 0H75L176 479Z"  />
<glyph unicode="&#xE0;" horiz-adv-x="741" d="M678 95Q673 70 669 48T662 0H522Q523 17 525 34T532 69Q475 21 412 1T275 -19Q209 -19 167 -5T102 31T72 80T71 135Q84 194 118 230T202 286T316 312T452 319H573Q580 352 574 374T551 408T511 426T458 431Q402 431 367 411T321 361H163Q179 409 212 440T289 489T382 514T481 521Q534 521 583 512T668 479T720 413T722 305L678 95ZM429 229Q342 229 292 210T231 145Q228 132 231 118T245 92T276 73T329 65Q357 65 392 73T459 101T518 152T554 229H429ZM469 586L326 726H497L583 586H469Z"  />
<glyph unicode="&#xE1;" horiz-adv-x="741" d="M678 95Q673 70 669 48T662 0H522Q523 17 525 34T532 69Q475 21 412 1T275 -19Q209 -19 167 -5T102 31T72 80T71 135Q84 194 118 230T202 286T316 312T452 319H573Q580 352 574 374T551 408T511 426T458 431Q402 431 367 411T321 361H163Q179 409 212 440T289 489T382 514T481 521Q534 521 583 512T668 479T720 413T722 305L678 95ZM429 229Q342 229 292 210T231 145Q228 132 231 118T245 92T276 73T329 65Q357 65 392 73T459 101T518 152T554 229H429ZM407 586L553 726H724L521 586H407Z"  />
<glyph unicode="&#xE2;" horiz-adv-x="741" d="M678 95Q673 70 669 48T662 0H522Q523 17 525 34T532 69Q475 21 412 1T275 -19Q209 -19 167 -5T102 31T72 80T71 135Q84 194 118 230T202 286T316 312T452 319H573Q580 352 574 374T551 408T511 426T458 431Q402 431 367 411T321 361H163Q179 409 212 440T289 489T382 514T481 521Q534 521 583 512T668 479T720 413T722 305L678 95ZM429 229Q342 229 292 210T231 145Q228 132 231 118T245 92T276 73T329 65Q357 65 392 73T459 101T518 152T554 229H429ZM609 726L695 586H585L512 666L405 586H295L441 726H609Z"  />
<glyph unicode="&#xE3;" horiz-adv-x="741" d="M678 95Q673 70 669 48T662 0H522Q523 17 525 34T532 69Q475 21 412 1T275 -19Q209 -19 167 -5T102 31T72 80T71 135Q84 194 118 230T202 286T316 312T452 319H573Q580 352 574 374T551 408T511 426T458 431Q402 431 367 411T321 361H163Q179 409 212 440T289 489T382 514T481 521Q534 521 583 512T668 479T720 413T722 305L678 95ZM429 229Q342 229 292 210T231 145Q228 132 231 118T245 92T276 73T329 65Q357 65 392 73T459 101T518 152T554 229H429ZM745 722Q716 654 677 624T585 594Q555 594 517 605L467 620Q449 625 435 628T408 632Q386 632 373 624T345 594H276Q293 652 334 687T436 722Q447 722 459 719T498 708L549 693Q569 687 584 684T609 681Q652 681 674 722H745Z"  />
<glyph unicode="&#xE4;" horiz-adv-x="741" d="M678 95Q673 70 669 48T662 0H522Q523 17 525 34T532 69Q475 21 412 1T275 -19Q209 -19 167 -5T102 31T72 80T71 135Q84 194 118 230T202 286T316 312T452 319H573Q580 352 574 374T551 408T511 426T458 431Q402 431 367 411T321 361H163Q179 409 212 440T289 489T382 514T481 521Q534 521 583 512T668 479T720 413T722 305L678 95ZM429 229Q342 229 292 210T231 145Q228 132 231 118T245 92T276 73T329 65Q357 65 392 73T459 101T518 152T554 229H429ZM599 722H721L696 604H574L599 722ZM327 722H449L424 604H302L327 722Z"  />
<glyph unicode="&#xE5;" horiz-adv-x="741" d="M678 95Q673 70 669 48T662 0H522Q523 17 525 34T532 69Q475 21 412 1T275 -19Q209 -19 167 -5T102 31T72 80T71 135Q84 194 118 230T202 286T316 312T452 319H573Q580 352 574 374T551 408T511 426T458 431Q402 431 367 411T321 361H163Q179 409 212 440T289 489T382 514T481 521Q534 521 583 512T668 479T720 413T722 305L678 95ZM429 229Q342 229 292 210T231 145Q228 132 231 118T245 92T276 73T329 65Q357 65 392 73T459 101T518 152T554 229H429ZM386 659Q397 709 437 729T530 750Q556 750 578 745T614 729T635 701T636 659Q625 609 585 589T491 568Q465 568 443 573T407 589T387 617T386 659ZM576 659Q581 683 567 693T520 704Q488 704 470 694T446 659Q441 635 455 625T501 614Q533 614 552 624T576 659Z"  />
<glyph unicode="&#xE6;" horiz-adv-x="1185" d="M163 359Q178 410 210 441T284 490T374 514T469 521Q563 521 615 502T687 439Q739 485 798 503T936 521Q1020 521 1074 502T1157 446T1191 358T1183 244L1178 217H707Q694 145 731 108T841 71Q891 71 931 89T990 154H1152Q1140 118 1117 87T1055 32T960 -5T827 -19Q772 -19 732 -12T663 10T616 46T588 95Q535 33 463 7T303 -19Q247 -19 201 -9T124 22T79 74T74 147Q91 230 170 268T399 307H574Q589 431 459 431Q436 431 414 426T372 412T340 390T321 359H163ZM383 217Q323 217 281 197T231 144Q224 113 250 92T333 71Q369 71 404 80T470 107T522 152T555 217H383ZM1039 307Q1043 340 1035 363T1008 402T965 424T909 431Q884 431 857 425T804 404T758 365T726 307H1039Z"  />
<glyph unicode="&#xE7;" horiz-adv-x="667" d="M303 -17Q179 -7 125 61T96 251Q110 317 142 367T221 452T326 503T452 521Q527 521 576 506T654 464T692 402T696 326H538Q545 377 518 404T439 431Q409 431 380 420T326 387T282 330T253 249Q245 213 246 181T259 124T296 85T361 71Q415 71 454 96T510 175H668Q657 128 628 93T558 33T467 -4T363 -19L317 -55H319Q331 -53 343 -53T372 -52Q389 -52 404 -56T429 -70T444 -91T446 -120Q438 -157 397 -178T298 -200Q263 -200 226 -195T160 -181L193 -133Q214 -141 236 -144T275 -148Q307 -148 322 -141T340 -122Q346 -92 298 -92Q276 -92 252 -101L239 -70L303 -17Z"  />
<glyph unicode="&#xE8;" horiz-adv-x="741" d="M257 217Q248 178 257 150T287 105T337 79T399 71Q416 71 436 74T476 84T513 104T540 135H702Q687 88 649 58T562 11T464 -12T375 -19Q279 -19 221 4T134 64T100 150T106 251Q117 303 142 351T213 437T326 498T490 521Q544 521 596 508T686 463T740 379T740 248L734 217H257ZM595 307Q599 341 590 364T563 403T519 424T461 431Q433 431 405 424T351 401T306 363T276 307H595ZM481 586L338 726H509L595 586H481Z"  />
<glyph unicode="&#xE9;" horiz-adv-x="741" d="M257 217Q248 178 257 150T287 105T337 79T399 71Q416 71 436 74T476 84T513 104T540 135H702Q687 88 649 58T562 11T464 -12T375 -19Q279 -19 221 4T134 64T100 150T106 251Q117 303 142 351T213 437T326 498T490 521Q544 521 596 508T686 463T740 379T740 248L734 217H257ZM595 307Q599 341 590 364T563 403T519 424T461 431Q433 431 405 424T351 401T306 363T276 307H595ZM419 586L565 726H736L533 586H419Z"  />
<glyph unicode="&#xEA;" horiz-adv-x="741" d="M257 217Q248 178 257 150T287 105T337 79T399 71Q416 71 436 74T476 84T513 104T540 135H702Q687 88 649 58T562 11T464 -12T375 -19Q279 -19 221 4T134 64T100 150T106 251Q117 303 142 351T213 437T326 498T490 521Q544 521 596 508T686 463T740 379T740 248L734 217H257ZM621 726L707 586H597L524 666L417 586H307L453 726H621ZM595 307Q599 341 590 364T563 403T519 424T461 431Q433 431 405 424T351 401T306 363T276 307H595Z"  />
<glyph unicode="&#xEB;" horiz-adv-x="741" d="M257 217Q248 178 257 150T287 105T337 79T399 71Q416 71 436 74T476 84T513 104T540 135H702Q687 88 649 58T562 11T464 -12T375 -19Q279 -19 221 4T134 64T100 150T106 251Q117 303 142 351T213 437T326 498T490 521Q544 521 596 508T686 463T740 379T740 248L734 217H257ZM595 307Q599 341 590 364T563 403T519 424T461 431Q433 431 405 424T351 401T306 363T276 307H595ZM611 722H733L708 604H586L611 722ZM339 722H461L436 604H314L339 722Z"  />
<glyph unicode="&#xEC;" horiz-adv-x="296" d="M224 0H72L178 502H330L224 0ZM246 586L103 726H274L360 586H246Z"  />
<glyph unicode="&#xED;" horiz-adv-x="296" d="M224 0H72L178 502H330L224 0ZM184 586L330 726H501L298 586H184Z"  />
<glyph unicode="&#xEE;" horiz-adv-x="296" d="M224 0H72L178 502H330L224 0ZM386 726L472 586H362L289 666L182 586H72L218 726H386Z"  />
<glyph unicode="&#xEF;" horiz-adv-x="296" d="M224 0H72L178 502H330L224 0ZM104 722H226L201 604H79L104 722ZM376 722H498L473 604H351L376 722Z"  />
<glyph unicode="&#xF0;" horiz-adv-x="740" d="M395 655Q363 669 332 677T276 689L376 775Q413 774 461 758T555 718L700 775L734 711L629 670Q662 645 684 615Q736 544 756 460T756 280Q726 137 626 59T365 -19Q269 -19 211 4T124 64T90 150T96 251Q110 318 144 368T226 450T331 499T447 515Q485 515 519 508T588 480L590 482Q575 518 545 550T474 609L299 540L266 604L395 655ZM254 251Q246 214 249 183T269 128T314 91T386 77Q429 77 463 90T524 127T567 182T592 251Q600 288 597 319T577 374T532 411T460 425Q417 425 383 412T322 375T279 320T254 251Z"  />
<glyph unicode="&#xF1;" horiz-adv-x="740" d="M156 383Q163 416 168 447T177 502H323Q320 481 318 461T310 419H312Q362 473 419 497T545 521Q579 521 617 511T684 477T728 411T730 309L665 0H513L569 266Q579 312 575 342T558 389T522 412T472 419Q442 419 412 409T356 376T309 321T278 242L227 0H75L156 383ZM744 722Q715 654 676 624T584 594Q554 594 516 605L466 620Q448 625 434 628T407 632Q385 632 372 624T344 594H275Q292 652 333 687T435 722Q446 722 458 719T497 708L548 693Q568 687 583 684T608 681Q651 681 673 722H744Z"  />
<glyph unicode="&#xF2;" horiz-adv-x="740" d="M480 521Q576 521 634 498T721 438T756 352T750 251Q739 199 714 151T643 65T529 4T365 -19Q269 -19 211 4T124 64T90 150T96 251Q107 303 132 351T203 437T316 498T480 521ZM460 425Q417 425 383 412T322 375T279 320T254 251Q246 214 249 183T269 128T314 91T386 77Q429 77 463 90T524 127T567 182T592 251Q600 288 597 319T577 374T532 411T460 425ZM468 586L325 726H496L582 586H468Z"  />
<glyph unicode="&#xF3;" horiz-adv-x="740" d="M480 521Q576 521 634 498T721 438T756 352T750 251Q739 199 714 151T643 65T529 4T365 -19Q269 -19 211 4T124 64T90 150T96 251Q107 303 132 351T203 437T316 498T480 521ZM460 425Q417 425 383 412T322 375T279 320T254 251Q246 214 249 183T269 128T314 91T386 77Q429 77 463 90T524 127T567 182T592 251Q600 288 597 319T577 374T532 411T460 425ZM406 586L552 726H723L520 586H406Z"  />
<glyph unicode="&#xF4;" horiz-adv-x="740" d="M480 521Q576 521 634 498T721 438T756 352T750 251Q739 199 714 151T643 65T529 4T365 -19Q269 -19 211 4T124 64T90 150T96 251Q107 303 132 351T203 437T316 498T480 521ZM460 425Q417 425 383 412T322 375T279 320T254 251Q246 214 249 183T269 128T314 91T386 77Q429 77 463 90T524 127T567 182T592 251Q600 288 597 319T577 374T532 411T460 425ZM608 726L694 586H584L511 666L404 586H294L440 726H608Z"  />
<glyph unicode="&#xF5;" horiz-adv-x="740" d="M480 521Q576 521 634 498T721 438T756 352T750 251Q739 199 714 151T643 65T529 4T365 -19Q269 -19 211 4T124 64T90 150T96 251Q107 303 132 351T203 437T316 498T480 521ZM460 425Q417 425 383 412T322 375T279 320T254 251Q246 214 249 183T269 128T314 91T386 77Q429 77 463 90T524 127T567 182T592 251Q600 288 597 319T577 374T532 411T460 425ZM744 722Q715 654 676 624T584 594Q554 594 516 605L466 620Q448 625 434 628T407 632Q385 632 372 624T344 594H275Q292 652 333 687T435 722Q446 722 458 719T497 708L548 693Q568 687 583 684T608 681Q651 681 673 722H744Z"  />
<glyph unicode="&#xF6;" horiz-adv-x="740" d="M480 521Q576 521 634 498T721 438T756 352T750 251Q739 199 714 151T643 65T529 4T365 -19Q269 -19 211 4T124 64T90 150T96 251Q107 303 132 351T203 437T316 498T480 521ZM460 425Q417 425 383 412T322 375T279 320T254 251Q246 214 249 183T269 128T314 91T386 77Q429 77 463 90T524 127T567 182T592 251Q600 288 597 319T577 374T532 411T460 425ZM598 722H720L695 604H573L598 722ZM326 722H448L423 604H301L326 722Z"  />
<glyph unicode="&#xF7;" horiz-adv-x="600" d="M47 197V309H553V197H47ZM213 46Q213 82 238 107T300 133Q336 133 361 108T387 46Q387 10 362 -15T300 -41Q264 -41 239 -16T213 46ZM213 460Q213 496 238 521T300 547Q336 547 361 522T387 460Q387 424 362 399T300 373Q264 373 239 398T213 460Z"  />
<glyph unicode="&#xF8;" horiz-adv-x="740" d="M147 41Q102 79 93 135T96 251Q107 303 132 351T203 437T316 498T480 521Q589 521 653 490L746 573L781 534L698 461Q744 423 753 368T750 251Q739 199 714 151T643 65T529 4T365 -19Q255 -19 193 13L99 -71L65 -32L147 41ZM551 397Q519 425 460 425Q417 425 383 412T322 375T279 320T254 251Q247 220 249 193T262 143L551 397ZM294 102Q327 77 386 77Q429 77 463 90T524 127T567 182T592 251Q599 282 597 309T584 359L294 102Z"  />
<glyph unicode="&#xF9;" horiz-adv-x="740" d="M690 119Q682 86 678 55T669 0H523Q525 21 528 41T536 83H534Q484 29 427 5T300 -19Q266 -19 228 -9T161 25T118 91T116 193L181 502H333L277 236Q267 189 270 160T288 113T324 90T374 83Q404 83 434 93T490 125T537 180T568 260L619 502H771L690 119ZM468 586L325 726H496L582 586H468Z"  />
<glyph unicode="&#xFA;" horiz-adv-x="740" d="M690 119Q682 86 678 55T669 0H523Q525 21 528 41T536 83H534Q484 29 427 5T300 -19Q266 -19 228 -9T161 25T118 91T116 193L181 502H333L277 236Q267 189 270 160T288 113T324 90T374 83Q404 83 434 93T490 125T537 180T568 260L619 502H771L690 119ZM406 586L552 726H723L520 586H406Z"  />
<glyph unicode="&#xFB;" horiz-adv-x="740" d="M690 119Q682 86 678 55T669 0H523Q525 21 528 41T536 83H534Q484 29 427 5T300 -19Q266 -19 228 -9T161 25T118 91T116 193L181 502H333L277 236Q267 189 270 160T288 113T324 90T374 83Q404 83 434 93T490 125T537 180T568 260L619 502H771L690 119ZM608 726L694 586H584L511 666L404 586H294L440 726H608Z"  />
<glyph unicode="&#xFC;" horiz-adv-x="740" d="M690 119Q682 86 678 55T669 0H523Q525 21 528 41T536 83H534Q484 29 427 5T300 -19Q266 -19 228 -9T161 25T118 91T116 193L181 502H333L277 236Q267 189 270 160T288 113T324 90T374 83Q404 83 434 93T490 125T537 180T568 260L619 502H771L690 119ZM326 722H448L423 604H301L326 722ZM598 722H720L695 604H573L598 722Z"  />
<glyph unicode="&#xFD;" horiz-adv-x="741" d="M297 502L406 139L671 502H836L312 -192H138L288 2L117 502H297ZM407 586L553 726H724L521 586H407Z"  />
<glyph unicode="&#xFE;" horiz-adv-x="741" d="M221 722H367L306 433H308Q329 457 355 474T410 501T470 516T531 521Q601 521 648 500T722 442T756 357T752 255Q740 199 718 157T667 84T606 34T541 2T477 -14T422 -19Q394 -19 367 -15T315 -1T270 26T236 69H234L179 -192H27L221 722ZM273 251Q265 215 270 184T291 129T333 91T396 77Q432 77 464 91T523 128T567 183T593 251Q600 287 596 318T575 373T533 411T470 425Q434 425 402 411T343 374T299 319T273 251Z"  />
<glyph unicode="&#xFF;" horiz-adv-x="741" d="M297 502L406 139L671 502H836L312 -192H138L288 2L117 502H297ZM327 722H449L424 604H302L327 722ZM599 722H721L696 604H574L599 722Z"  />
<glyph unicode="&#x152;" horiz-adv-x="1259" d="M1304 604H934L898 434H1254L1229 316H873L831 118H1219L1194 0H724Q665 0 610 -3Q551 -6 495 -6Q400 -6 322 15T193 81T122 196T123 365Q144 465 192 534T307 646T454 708T620 728Q679 728 748 725Q815 722 891 722H1329L1304 604ZM771 598Q751 602 715 606T633 610Q573 610 517 596T416 552T337 475T290 360Q277 298 290 252T335 174T415 128T523 112Q555 112 596 116T671 128L771 598Z"  />
<glyph unicode="&#x153;" horiz-adv-x="1185" d="M727 217Q713 148 745 110T850 71Q865 71 885 74T926 85T965 109T994 150H1152Q1138 101 1103 69T1023 17T927 -11T830 -19Q750 -19 693 5T607 72Q578 47 545 30T479 2T414 -14T354 -19Q262 -19 207 5T123 69T91 156T96 251Q107 303 132 351T200 437T305 498T454 521Q543 521 599 500T684 433Q743 478 807 499T940 521Q1028 521 1082 501T1163 445T1193 360T1185 251L1178 217H727ZM381 77Q413 77 445 88T504 122T553 178T583 256Q592 300 586 333T563 387T518 420T456 431Q421 431 389 420T331 388T285 334T256 259Q247 218 250 185T268 127T311 90T381 77ZM1039 307Q1051 365 1021 398T924 431Q893 431 864 422T810 397T769 358T746 307H1039Z"  />
<glyph unicode="&#x160;" horiz-adv-x="815" d="M261 226Q253 161 294 125T431 88Q481 88 518 98T580 123T620 158T638 198Q646 237 622 257T539 285L394 305Q325 315 281 334T212 380T182 439T183 507Q196 570 232 614T320 686T432 728T557 741Q716 741 786 679T837 506H675Q685 576 644 605T519 634Q494 634 468 628T418 610T379 579T357 535Q348 493 372 474T444 447L644 418Q707 409 743 387T796 337T814 278T810 218Q786 106 679 44T386 -19Q308 -19 249 -3T152 45T101 122T99 226H261ZM509 909L584 829L693 909H805L655 769H487L397 909H509Z"  />
<glyph unicode="&#x161;" horiz-adv-x="667" d="M244 154Q242 106 267 89T349 71Q415 71 448 88T487 133Q491 152 478 164T424 182L310 198Q247 207 212 224T160 263T142 309T145 356Q151 384 170 413T225 466T318 505T454 521Q499 521 543 514T621 487T670 435T677 353H519Q524 397 498 414T412 431Q369 431 341 417T308 377Q306 367 307 359T315 344T339 332T383 322L525 299Q565 293 591 279T632 246T650 202T648 150Q641 116 621 86T565 32T474 -5T344 -19Q269 -19 216 -12T132 15T88 68T82 154H244ZM396 726L471 646L580 726H692L542 586H374L284 726H396Z"  />
<glyph unicode="&#x178;" horiz-adv-x="889" d="M1028 722L585 275L527 0H365L423 275L167 722H379L541 413L836 722H1028ZM440 905H562L537 787H415L440 905ZM712 905H834L809 787H687L712 905Z"  />
<glyph unicode="&#x17D;" horiz-adv-x="741" d="M59 153L629 604H187L212 722H844L811 567L242 118H739L714 0H27L59 153ZM472 909L547 829L656 909H768L618 769H450L360 909H472Z"  />
<glyph unicode="&#x17E;" horiz-adv-x="667" d="M699 502L673 377L268 104L267 102H637L616 0H51L77 125L482 404L483 406H156L176 502H699ZM396 726L471 646L580 726H692L542 586H374L284 726H396Z"  />
<glyph unicode="&#x192;" horiz-adv-x="740" d="M203 424H378L419 538Q438 592 461 630T515 693T590 729T692 741Q722 741 758 738T815 730L784 637Q767 642 751 643T713 645Q678 645 656 638T618 615T591 577T567 521L530 424H708L675 328H497L394 49Q373 -8 350 -53T292 -128T211 -175T94 -192Q63 -192 36 -189T-15 -181L17 -90Q31 -92 50 -94T87 -96Q115 -96 136 -90T177 -65T213 -12T251 79L339 328H169L203 424Z"  />
<glyph unicode="&#x2C6;" horiz-adv-x="296" d="M386 726L472 586H362L289 666L182 586H72L218 726H386Z"  />
<glyph unicode="&#x2DC;" horiz-adv-x="296" d="M522 722Q493 654 454 624T362 594Q332 594 294 605L244 620Q226 625 212 628T185 632Q163 632 150 624T122 594H53Q70 652 111 687T213 722Q224 722 236 719T275 708L326 693Q346 687 361 684T386 681Q429 681 451 722H522Z"  />
<glyph unicode="&#x2013;" horiz-adv-x="500" d="M568 323L544 211H44L68 323H568Z"  />
<glyph unicode="&#x2014;" horiz-adv-x="1000" d="M1068 323L1044 211H44L68 323H1068Z"  />
<glyph unicode="&#x2018;" horiz-adv-x="370" d="M166 498L344 722H462L328 498H166Z"  />
<glyph unicode="&#x2019;" horiz-adv-x="370" d="M462 722L284 498H166L300 722H462Z"  />
<glyph unicode="&#x201A;" horiz-adv-x="370" d="M317 89L140 -135H22L155 89H317Z"  />
<glyph unicode="&#x201C;" horiz-adv-x="667" d="M457 498L635 722H753L619 498H457ZM172 498L350 722H468L334 498H172Z"  />
<glyph unicode="&#x201D;" horiz-adv-x="667" d="M468 722L290 498H172L306 722H468ZM753 722L575 498H457L591 722H753Z"  />
<glyph unicode="&#x201E;" horiz-adv-x="667" d="M333 89L156 -135H38L171 89H333ZM618 89L441 -135H323L456 89H618Z"  />
<glyph unicode="&#x2020;" horiz-adv-x="668" d="M563 722L525 544H737L713 432H501L410 0H258L349 432H137L161 544H373L411 722H563Z"  />
<glyph unicode="&#x2021;" horiz-adv-x="668" d="M77 150L101 262H313L355 460H143L167 572H379L411 722H563L531 572H743L719 460H507L465 262H677L653 150H441L410 0H258L289 150H77Z"  />
<glyph unicode="&#x2022;" horiz-adv-x="500" d="M145 361Q153 398 174 431T225 489T291 528T365 542Q402 542 432 528T481 489T508 431T507 361Q499 323 478 291T427 233T361 194T288 180Q250 180 221 194T172 233T145 290T145 361Z"  />
<glyph unicode="&#x2026;" horiz-adv-x="1000" d="M266 140L237 0H97L126 140H266ZM932 140L903 0H763L792 140H932ZM599 140L570 0H430L459 140H599Z"  />
<glyph unicode="&#x2030;" horiz-adv-x="1333" d="M679 -19Q622 -19 590 -1T544 46T530 106T535 167Q547 222 569 260T621 320T687 353T765 363Q860 363 896 317T912 177Q901 125 880 88T828 27T760 -8T679 -19ZM294 329Q237 329 205 347T159 394T145 454T150 515Q162 570 184 608T236 668T302 701T380 711Q475 711 511 665T527 525Q516 473 495 436T443 375T375 340T294 329ZM1096 -19Q1039 -19 1007 -1T961 46T947 106T952 167Q964 222 986 260T1038 320T1104 353T1182 363Q1277 363 1313 317T1329 177Q1318 125 1297 88T1245 27T1177 -8T1096 -19ZM248 -34H148L813 726H913L248 -34ZM1119 59Q1136 59 1150 69T1175 95T1193 131T1206 173Q1213 207 1212 229T1204 263T1187 280T1167 285Q1143 285 1127 273T1100 241T1083 199T1072 156Q1061 108 1075 84T1119 59ZM317 407Q334 407 348 417T373 443T391 479T404 521Q411 555 410 577T402 611T385 628T365 633Q341 633 325 621T298 589T281 547T270 504Q259 456 273 432T317 407ZM702 59Q719 59 733 69T758 95T776 131T789 173Q796 207 795 229T787 263T770 280T750 285Q726 285 710 273T683 241T666 199T655 156Q644 108 658 84T702 59Z"  />
<glyph unicode="&#x2039;" horiz-adv-x="370" d="M108 267L281 461H415L260 267L333 73H199L108 267Z"  />
<glyph unicode="&#x203A;" horiz-adv-x="370" d="M67 73L222 267L149 461H283L374 267L201 73H67Z"  />
<glyph unicode="&#x20AC;" horiz-adv-x="740" d="M221 470Q275 588 366 649T578 711Q623 711 670 702T753 671T809 611T819 516H657Q661 538 654 554T632 582T598 599T560 605Q497 605 453 568T380 470H670L619 380H348Q346 372 344 363T340 346L333 313H581L530 223H327Q329 163 355 126T445 88Q468 88 490 95T532 117T566 150T588 192H750Q733 131 699 91T618 26T518 -9T410 -19Q295 -19 232 41T168 223H68L119 313H176Q177 321 178 329T182 347Q184 355 186 363T190 380H101L152 470H221Z"  />
<glyph unicode="&#x2122;" horiz-adv-x="1000" d="M827 591H825L726 310H645L546 591H544V310H438V722H590L686 472L781 722H933V310H827V591ZM135 638H21V722H361V638H247V310H135V638Z"  />

</font>
</defs>
</svg>
